<svg xmlns="http://www.w3.org/2000/svg" viewBox="0 0 76.85 119.14"><defs><style>.cls-1{fill:none;stroke:#32c7ce;stroke-miterlimit:10;stroke-width:2px;}.cls-2{fill:#32c7ce;}</style></defs><title>Asset 7</title><g id="Layer_2" data-name="Layer 2"><g id="Layer_1-2" data-name="Layer 1"><path class="cls-1" d="M14.44,55.12C23.27,27.06,42.53,1.66,42.53,1.66s19.06,25.15,28,53" transform="translate(-4.03)"/><path class="cls-2" d="M5.82,64a5.62,5.62,0,0,1,.51-1.48,4.49,4.49,0,0,1,.84-1.15,3.33,3.33,0,0,1,2.52-1l-.15.7a2.77,2.77,0,0,0-1.46.42,3.39,3.39,0,0,0-1,1.08,4.85,4.85,0,0,0-.59,1.51,4.46,4.46,0,0,0,0,1.74A2.94,2.94,0,0,0,7,67.23a2.19,2.19,0,0,0,1.22.71,2.05,2.05,0,0,0,1.43-.2,3.39,3.39,0,0,0,1.21-1.42l1.29-2.44a5.38,5.38,0,0,1,.8-1.14A2.49,2.49,0,0,1,14,62a2.6,2.6,0,0,1,1.45,0A2.68,2.68,0,0,1,17,62.8a3.24,3.24,0,0,1,.8,1.55,4.56,4.56,0,0,1,0,2,4.62,4.62,0,0,1-.92,2.06,3.46,3.46,0,0,1-1.49,1,3,3,0,0,1-1.6.11l.15-.71a2.71,2.71,0,0,0,1.65-.24,2.75,2.75,0,0,0,1-1,4.8,4.8,0,0,0,.54-1.41,3.38,3.38,0,0,0-.23-2.38,2.25,2.25,0,0,0-1.55-1.14,1.77,1.77,0,0,0-1.5.26,4,4,0,0,0-1.08,1.36l-1.31,2.49a4.14,4.14,0,0,1-1,1.32,2.59,2.59,0,0,1-1.14.54,3.12,3.12,0,0,1-1.18,0,2.78,2.78,0,0,1-1.48-.81,3.26,3.26,0,0,1-.84-1.59A4.91,4.91,0,0,1,5.82,64Z" transform="translate(-4.03)"/><path class="cls-2" d="M4.65,70.91,16.18,76l-.05.91L4,80.46l0-.71,3.81-1.12.35-5.43L4.6,71.6ZM8.93,73.5l-.32,4.92,6.88-2Z" transform="translate(-4.03)"/><path class="cls-2" d="M4.65,87.38l11-6.17.11.7L5.38,87.74,17.07,90l.11.7L4.8,88.32Z" transform="translate(-4.03)"/><path class="cls-2" d="M7,96.7l10.49-5.47,3.15,6-.59.3L17.23,92.1l-4.31,2.25,2.64,5.08-.59.31-2.65-5.08L7.92,97l2.94,5.67-.6.31Z" transform="translate(-4.03)"/><path class="cls-2" d="M15.81,109.36a6,6,0,0,1-1-1.2,4.49,4.49,0,0,1-.56-1.3,3.61,3.61,0,0,1-.05-1.35,3.44,3.44,0,0,1,.51-1.31l.54.49a2.7,2.7,0,0,0-.39,1.46,3.33,3.33,0,0,0,.4,1.46,4.68,4.68,0,0,0,1,1.28,4.6,4.6,0,0,0,1.48.92,3,3,0,0,0,1.49.15,2.07,2.07,0,0,0,1.23-.69,2,2,0,0,0,.56-1.33,3.28,3.28,0,0,0-.6-1.76L19,103.83a6.2,6.2,0,0,1-.58-1.27,2.62,2.62,0,0,1-.07-1.27,3,3,0,0,1,2.15-2.12,3.26,3.26,0,0,1,1.74.1,4.52,4.52,0,0,1,1.7,1,4.41,4.41,0,0,1,1.3,1.84,3.35,3.35,0,0,1,.15,1.81,3,3,0,0,1-.72,1.44l-.53-.49a2.79,2.79,0,0,0,.63-1.55,2.67,2.67,0,0,0-.33-1.41,4.66,4.66,0,0,0-.94-1.19,3.4,3.4,0,0,0-2.17-1,2.23,2.23,0,0,0-1.77.75,1.82,1.82,0,0,0-.54,1.43,3.92,3.92,0,0,0,.62,1.62l1.47,2.4a3.92,3.92,0,0,1,.62,1.54,2.48,2.48,0,0,1-.11,1.26,3.23,3.23,0,0,1-.62,1,2.83,2.83,0,0,1-1.45.87,3.28,3.28,0,0,1-1.8-.09A5.2,5.2,0,0,1,15.81,109.36Z" transform="translate(-4.03)"/><path class="cls-2" d="M28.24,116.68l3.43-9.37-2.3-.84.22-.6a8.47,8.47,0,0,0,1.6.46,1.16,1.16,0,0,0,.83-.11,1.3,1.3,0,0,0,.42-.61l.54.19-4.07,11.12Z" transform="translate(-4.03)"/><path class="cls-2" d="M38.92,119.06l.4-3.4L33.66,115l.09-.8,6.5-6.9.73.09-.91,7.69,2.08.25-.08.67L40,115.74l-.41,3.4Zm-4.5-4.66,4.91.59.79-6.61Z" transform="translate(-4.03)"/><path class="cls-2" d="M50,118.64l-2.9-11.48.67-.17,2.74,10.79,5.85-1.48.18.68Z" transform="translate(-4.03)"/><path class="cls-2" d="M65.89,112.16,55.5,105.57l.53-.47,9.64,6.18L60.62,101l.48-.43,9.68,6.14-5-10.31.52-.47L71.65,107l-.67.6-9.3-5.9,4.84,9.91Z" transform="translate(-4.03)"/><path class="cls-2" d="M76.12,101.05l-9.35-8.47.34-.84,12.6.45-.26.65-4-.14-2,5,2.94,2.67Zm-3.25-3.81,1.85-4.57-7.17-.25Z" transform="translate(-4.03)"/><path class="cls-2" d="M80.68,85.05l-11.15-.92-.33,4.05-.66-.05.7-8.42.65.06-.31,3.72,11.15.92Z" transform="translate(-4.03)"/><path class="cls-2" d="M80.88,77.37l-11.79,1-.6-6.77.65-.06.54,6.13,4.85-.42L74,71.58l.66-.06.51,5.71,4.94-.44-.54-6.36.67-.06Z" transform="translate(-4.03)"/><path class="cls-2" d="M79.7,66.85,68.13,69.37l-.89-4.08a5.29,5.29,0,0,1-.1-2,2.61,2.61,0,0,1,.69-1.42,2.87,2.87,0,0,1,1.5-.77,3,3,0,0,1,1.67,0,2.8,2.8,0,0,1,1.18.74,4.25,4.25,0,0,1,.74,1l5.13-3.63.16.72-5,3.53.84,3.89,5.51-1.2Zm-6.3.72-.64-2.92a4.83,4.83,0,0,0-1.11-2.42,2.54,2.54,0,0,0-3.69.66,3.68,3.68,0,0,0-.08,2.27l.75,3.44Z" transform="translate(-4.03)"/></g></g></svg>