<svg xmlns="http://www.w3.org/2000/svg" viewBox="0 0 116.12 172.3"><defs><style>.cls-1{fill:#82ced7;}.cls-2{fill:none;stroke:#82ced7;stroke-linecap:round;stroke-linejoin:round;stroke-width:5px;}</style></defs><title>Asset 35</title><g id="Layer_2" data-name="Layer 2"><g id="DT"><path class="cls-1" d="M66.84,36.25a10.85,10.85,0,0,1-1.21-2.5,8.39,8.39,0,0,1-.41-2.55,6.2,6.2,0,0,1,.5-2.42,5.55,5.55,0,0,1,1.54-2L68.71,29a4,4,0,0,0-1,1.85,4.65,4.65,0,0,0,0,2.16,7.22,7.22,0,0,0,1,2.22,6.69,6.69,0,0,0,1.61,1.73,4.05,4.05,0,0,0,1.9.8,2.77,2.77,0,0,0,1.89-.46,2.5,2.5,0,0,0,1.17-1.68A5.77,5.77,0,0,0,74.92,33l-1.35-4a9.31,9.31,0,0,1-.52-2.58,4.62,4.62,0,0,1,.47-2.3,5.33,5.33,0,0,1,4.77-2.71,6.05,6.05,0,0,1,3,1.06,8.88,8.88,0,0,1,2.55,2.65,8.64,8.64,0,0,1,1.47,3.73A6.07,6.07,0,0,1,84.87,32,5.33,5.33,0,0,1,83,34.24l-1.42-2.19a3.9,3.9,0,0,0,1.36-1.84,3.74,3.74,0,0,0,0-2,6.31,6.31,0,0,0-.89-2A4.7,4.7,0,0,0,79.48,24a3,3,0,0,0-2.52.34A2.45,2.45,0,0,0,75.78,26a5.41,5.41,0,0,0,.35,2.53l1.3,3.89a7.37,7.37,0,0,1,.54,3,4.67,4.67,0,0,1-.7,2.26,5.56,5.56,0,0,1-1.63,1.61,5,5,0,0,1-3,.83,6.13,6.13,0,0,1-3.1-1.06A9.54,9.54,0,0,1,66.84,36.25Z"/><path class="cls-1" d="M70.24,40.76,91,37.22l1.41,2.49-13.71,16-1.27-2.25,3.75-4.37L77.2,42l-5.68,1Zm9.33.71,3.34,5.88,6.67-7.67Z"/><path class="cls-1" d="M80.5,59.72l14.82-15L96.4,47,83.76,59.84,101.67,58l1.09,2.27L81.83,62.47Z"/><path class="cls-1" d="M84.32,67.68l18.45-7.28L107.36,72l-2.08.81-3.65-9.25L95.6,66l3.29,8.33-2.06.81-3.3-8.34L87.38,69.2l3.74,9.53L89,79.56Z"/><path class="cls-1" d="M92.06,89.43l18.21-9.72.53,2.51L96.27,89.8l16.37,1.09.42,1.94-14.52,7.65,16.38,1.09.53,2.49-20.61-1.53-.48-2.3,14.13-7.45-16-1.12Z"/><path class="cls-1" d="M95.32,104.65l20.16,6.21.14,2.86-19.46,8.13L96,119.26l5.32-2.21-.4-8.12-5.51-1.69Zm8,4.84.33,6.75,9.41-3.84Z"/><path class="cls-1" d="M95.63,124.38,113,126.6l.82-6.35,2.31.29-1.91,14.89-2.31-.3.77-6-17.36-2.22Z"/><path class="cls-1" d="M95.09,130.08l18.47,7.22L109,149l-2.08-.82,3.62-9.26-6-2.36-3.26,8.34L99.19,144l3.27-8.35-6.16-2.41-3.75,9.52L90.44,142Z"/><path class="cls-1" d="M91.71,139.85l15.5,12.38-4.79,6a8.62,8.62,0,0,1-2.75,2.39,4.62,4.62,0,0,1-2.8.52,5.6,5.6,0,0,1-2.71-1.25,5.83,5.83,0,0,1-1.75-2.13,5.27,5.27,0,0,1-.44-2.2,8.07,8.07,0,0,1,.35-2.06l-9.46-2.57,1.68-2.1,8.94,2.51,3.33-4.17-6.68-5.34Zm6.74,8.63-2.7,3.37a5.69,5.69,0,0,0-1.44,3.27,3.64,3.64,0,0,0,4.08,3.43,4.74,4.74,0,0,0,2.54-1.79l3.07-3.85Z"/></g><g id="D"><path class="cls-2" d="M63,13.16C57.71,6.38,54.16,2.5,54.16,2.5S.64,60.92,2.55,121c1.42,44.76,48.7,58.75,78.78,42"/></g></g></svg>