<svg xmlns="http://www.w3.org/2000/svg" viewBox="0 0 116.08 172.3"><defs><style>.cls-1{fill:#82ced7;}.cls-2{fill:none;stroke:#82ced7;stroke-linecap:round;stroke-linejoin:round;stroke-width:5px;}</style></defs><title>Asset 16</title><g id="Layer_2" data-name="Layer 2"><g id="DT"><path class="cls-1" d="M66.63,35.93a9.64,9.64,0,0,1-1.14-2.36,7.27,7.27,0,0,1-.35-2.36,5.51,5.51,0,0,1,.48-2.2A5.85,5.85,0,0,1,67,27.1l.65,1a4.66,4.66,0,0,0-1.24,2.22,5.55,5.55,0,0,0,0,2.53,8.05,8.05,0,0,0,1.08,2.49,7.7,7.7,0,0,0,2,2.12,4.89,4.89,0,0,0,2.36.88,3.54,3.54,0,0,0,2.29-.6,3.4,3.4,0,0,0,1.47-1.91,5.61,5.61,0,0,0-.24-3.11L74.07,28.3a9.34,9.34,0,0,1-.4-2.31,4.22,4.22,0,0,1,.41-2.08,4.94,4.94,0,0,1,4.38-2.53,5.54,5.54,0,0,1,2.78.9,7.79,7.79,0,0,1,2.34,2.37,7.61,7.61,0,0,1,1.32,3.53,5.76,5.76,0,0,1-.53,3,5,5,0,0,1-1.77,2l-.66-1A4.62,4.62,0,0,0,83.62,30a4.56,4.56,0,0,0,.06-2.43,7.83,7.83,0,0,0-1-2.32,5.59,5.59,0,0,0-3.09-2.55,3.74,3.74,0,0,0-3.18.46,3,3,0,0,0-1.48,2.08,6.81,6.81,0,0,0,.31,2.9l1.38,4.5A6.66,6.66,0,0,1,77,35.36a4.38,4.38,0,0,1-.72,2,5.29,5.29,0,0,1-1.42,1.37,4.82,4.82,0,0,1-2.72.79,5.63,5.63,0,0,1-2.88-.91A8.48,8.48,0,0,1,66.63,35.93Z"/><path class="cls-1" d="M70.43,41.15l20.83-3.48L92,39,78.34,55.08l-.58-1L82.07,49l-4.5-7.92L71,42.15Zm8.38-.3L82.88,48l7.78-9.16Z"/><path class="cls-1" d="M80.67,60,95.4,44.87l.51,1.06L82,60.22l19.85-1.93.51,1.07-21,2.06Z"/><path class="cls-1" d="M84.47,68.06l18.44-7.29,4.19,10.59-1,.4-3.79-9.59-7.58,3,3.53,8.93-1,.42-3.53-8.93-7.73,3,3.91,10-1,.41Z"/><path class="cls-1" d="M92.09,89.42l18.24-9.57.25,1.17-17,8.82,19.18,1.29.22,1.06L96,101.1l19.18,1.3.24,1.16L94.79,102.1l-.32-1.46,16.36-8.57L92.38,90.81Z"/><path class="cls-1" d="M95.38,105l20.17,6.28.07,1.52L96.17,121l-.06-1.18,6.13-2.6-.44-9.09-6.36-2Zm7.62,3.5.4,8.25,11.07-4.67Z"/><path class="cls-1" d="M95.55,124.93l18.58,2.38.87-6.75,1.08.14-1.79,14-1.09-.14.79-6.2L95.41,126Z"/><path class="cls-1" d="M95,130.44l18.48,7.22-4.15,10.61-1-.4,3.75-9.61-7.58-3-3.5,9-1.05-.41,3.5-9-7.74-3-3.92,9.95-1-.4Z"/><path class="cls-1" d="M91.44,140.12l15.49,12.38L102.56,158a8.85,8.85,0,0,1-2.47,2.23,4.4,4.4,0,0,1-2.59.6,4.85,4.85,0,0,1-2.57-1.14,5.09,5.09,0,0,1-1.72-2.21,5,5,0,0,1-.29-2.32,7.45,7.45,0,0,1,.55-2l-10.13-2.83.77-1L94,152.05l4.16-5.21L90.77,141ZM99,147.54l-3.12,3.91a8.11,8.11,0,0,0-2,4,3.5,3.5,0,0,0,1.57,3.17,3.54,3.54,0,0,0,3.18.93,6.13,6.13,0,0,0,3-2.31l3.69-4.6Z"/></g><g id="D"><path class="cls-2" d="M63,13.16C57.71,6.38,54.16,2.5,54.16,2.5S.64,60.92,2.55,121c1.42,44.76,48.7,58.75,78.78,42"/></g></g></svg>