<svg xmlns="http://www.w3.org/2000/svg" viewBox="0 0 80.67 120.15"><defs><style>.cls-1{fill:#82ced7;}.cls-2{fill:none;stroke:#82ced7;stroke-linecap:round;stroke-linejoin:round;stroke-width:5px;}</style></defs><title>Asset 9</title><g id="Layer_2" data-name="Layer 2"><g id="DRIPS"><path class="cls-1" d="M46.83,25.76A7,7,0,0,1,46,24a5.72,5.72,0,0,1-.28-1.76,4.25,4.25,0,0,1,.34-1.66,3.86,3.86,0,0,1,1.06-1.41l1,1.54A2.63,2.63,0,0,0,47.39,22a3.13,3.13,0,0,0,0,1.49A4.75,4.75,0,0,0,48.09,25a4.21,4.21,0,0,0,1.1,1.19,2.68,2.68,0,0,0,1.31.55,1.88,1.88,0,0,0,1.3-.31,1.68,1.68,0,0,0,.8-1.16,3.83,3.83,0,0,0-.22-1.8l-.92-2.76A5.87,5.87,0,0,1,51.1,19a3.14,3.14,0,0,1,.32-1.58,3.39,3.39,0,0,1,1.24-1.3,3.35,3.35,0,0,1,2.05-.57,4.25,4.25,0,0,1,2.07.73,6.06,6.06,0,0,1,1.76,1.83,6,6,0,0,1,1,2.57,4,4,0,0,1-.32,2.19,3.56,3.56,0,0,1-1.31,1.53l-1-1.5a2.67,2.67,0,0,0,.94-1.27,2.73,2.73,0,0,0,0-1.39,4.5,4.5,0,0,0-.62-1.39,3.24,3.24,0,0,0-1.76-1.49,2.06,2.06,0,0,0-1.74.23A1.73,1.73,0,0,0,53,18.73a3.82,3.82,0,0,0,.24,1.74l.9,2.68a5.07,5.07,0,0,1,.37,2.07A3.15,3.15,0,0,1,54,26.78a3.79,3.79,0,0,1-1.12,1.1,3.34,3.34,0,0,1-2,.58,4.29,4.29,0,0,1-2.13-.73A6.37,6.37,0,0,1,46.83,25.76Z"/><path class="cls-1" d="M49.07,28.79l14.32-2.43,1,1.71-9.43,11-.88-1.56,2.58-3-2.76-4.87L50,30.34Zm6.43.49,2.29,4,4.6-5.27Z"/><path class="cls-1" d="M56.2,41.89l10.2-10.3.74,1.56L58.44,42l12.33-1.29.75,1.56L57.11,43.79Z"/><path class="cls-1" d="M58.81,47.36l12.7-5,3.16,8-1.43.55-2.51-6.36-4.15,1.63,2.27,5.74-1.43.56-2.26-5.74-4.24,1.67L63.49,55,62,55.54Z"/><path class="cls-1" d="M64.15,62.34l12.53-6.69.37,1.73-10,5.21,11.27.75.28,1.34-10,5.26,11.27.75.37,1.72-14.19-1-.33-1.58,9.73-5.13-11-.78Z"/><path class="cls-1" d="M66.42,72.83,80.3,77.11l.1,2L67,84.68l-.09-1.78,3.66-1.53-.27-5.59-3.79-1.16Zm5.51,3.34.23,4.64,6.48-2.64Z"/><path class="cls-1" d="M66.57,86.36l12,1.53.56-4.37,1.59.2L79.36,94l-1.6-.21.53-4.12-12-1.54Z"/><path class="cls-1" d="M66.24,90.33,79,95.3l-3.13,8-1.43-.57,2.49-6.38-4.15-1.62-2.25,5.74-1.42-.56,2.24-5.75-4.23-1.65-2.59,6.55L63,98.51Z"/><path class="cls-1" d="M63.89,97l10.66,8.52-3.3,4.13a6.06,6.06,0,0,1-1.88,1.64,3.2,3.2,0,0,1-1.93.36,3.91,3.91,0,0,1-1.87-.86,4,4,0,0,1-1.2-1.46,3.5,3.5,0,0,1-.3-1.52,4.75,4.75,0,0,1,.24-1.42l-6.52-1.77L59,103.21l6.15,1.72,2.29-2.87L62.8,98.39ZM68.52,103l-1.85,2.33a3.84,3.84,0,0,0-1,2.25,2.51,2.51,0,0,0,2.81,2.36,3.31,3.31,0,0,0,1.75-1.24L72.34,106Z"/><path class="cls-2" d="M44.11,9.84c-3.61-4.67-6-7.34-6-7.34S1.22,42.71,2.53,84.05c1,30.8,33.52,40.43,54.23,28.88"/></g></g></svg>