<svg xmlns="http://www.w3.org/2000/svg" viewBox="0 0 59.28 88.65"><defs><style>.cls-1{fill:#82ced7;}.cls-2{fill:none;stroke:#82ced7;stroke-linecap:round;stroke-linejoin:round;stroke-width:5px;}</style></defs><title>Asset 5</title><g id="Layer_2" data-name="Layer 2"><g id="DRIPS"><path class="cls-1" d="M34.7,19.4a5.31,5.31,0,0,1-.6-1.25,4.08,4.08,0,0,1-.21-1.28,3.26,3.26,0,0,1,.25-1.2,2.79,2.79,0,0,1,.77-1l.73,1.11a1.9,1.9,0,0,0-.53.93,2.33,2.33,0,0,0,0,1.08,3.45,3.45,0,0,0,.49,1.1,3.06,3.06,0,0,0,.8.87,1.93,1.93,0,0,0,.95.4,1.34,1.34,0,0,0,.94-.23,1.22,1.22,0,0,0,.59-.84,2.83,2.83,0,0,0-.16-1.31l-.67-2a4.48,4.48,0,0,1-.26-1.29A2.37,2.37,0,0,1,38,13.32a2.5,2.5,0,0,1,.9-.94A2.4,2.4,0,0,1,40.43,12a3,3,0,0,1,1.51.53,4.46,4.46,0,0,1,1.27,1.32,4.2,4.2,0,0,1,.73,1.87,2.88,2.88,0,0,1-.23,1.59,2.58,2.58,0,0,1-1,1.11l-.71-1.09a1.92,1.92,0,0,0,.68-.92,1.82,1.82,0,0,0,0-1,3.11,3.11,0,0,0-.45-1A2.34,2.34,0,0,0,41,13.28a1.45,1.45,0,0,0-1.26.17,1.2,1.2,0,0,0-.59.85,2.74,2.74,0,0,0,.17,1.26l.66,2a4,4,0,0,1,.27,1.5,2.26,2.26,0,0,1-.36,1.13,2.61,2.61,0,0,1-.81.81,2.46,2.46,0,0,1-1.48.41,3,3,0,0,1-1.55-.53A4.83,4.83,0,0,1,34.7,19.4Z"/><path class="cls-1" d="M36.33,21.59l10.39-1.77.71,1.25-6.85,8L39.94,28l1.87-2.18-2-3.54L37,22.72ZM41,22l1.67,2.94L46,21.05Z"/><path class="cls-1" d="M41.51,31.12l7.41-7.48.54,1.13-6.32,6.41,9-.94.55,1.13L42.17,32.49Z"/><path class="cls-1" d="M43.41,35.09l9.22-3.65,2.3,5.82-1,.41L52.06,33l-3,1.19,1.64,4.17-1,.4L48,34.63l-3.07,1.22,1.86,4.76-1,.42Z"/><path class="cls-1" d="M47.28,46l9.11-4.86.26,1.25-7.26,3.79,8.19.55.2,1-7.25,3.82,8.18.55L59,53.28l-10.31-.76-.24-1.15,7.07-3.73-8-.56Z"/><path class="cls-1" d="M48.94,53.6,59,56.7l.07,1.43L49.36,62.2l-.07-1.29L52,59.8l-.2-4.06L49,54.89Zm4,2.42.17,3.37,4.7-1.91Z"/><path class="cls-1" d="M49,63.41l8.68,1.11.4-3.17,1.16.15-1,7.44-1.16-.15.38-3-8.68-1.11Z"/><path class="cls-1" d="M48.8,66.3,58,69.91l-2.28,5.83-1-.42,1.81-4.63-3-1.18-1.63,4.17-1-.4,1.63-4.18-3.08-1.2-1.88,4.76-1.05-.41Z"/><path class="cls-1" d="M47.09,71.16l7.75,6.19-2.4,3a4.11,4.11,0,0,1-1.37,1.19,2.29,2.29,0,0,1-1.4.26,2.74,2.74,0,0,1-1.36-.62,2.87,2.87,0,0,1-.87-1.06A2.62,2.62,0,0,1,47.22,79a3.41,3.41,0,0,1,.18-1L42.66,76.7l.84-1L48,76.9l1.67-2.08L46.3,72.15Zm3.37,4.31-1.35,1.69a2.77,2.77,0,0,0-.72,1.63,1.58,1.58,0,0,0,.67,1.33,1.61,1.61,0,0,0,1.37.39,2.37,2.37,0,0,0,1.27-.9l1.53-1.92Z"/><path class="cls-2" d="M32.73,7.83c-2.62-3.39-4.4-5.33-4.4-5.33S1.57,31.71,2.53,61.73c.71,22.38,24.34,29.38,39.38,21"/></g></g></svg>