<svg xmlns="http://www.w3.org/2000/svg" viewBox="0 0 52.73 82.26"><defs><style>.cls-1{fill:none;stroke:#32c7ce;stroke-miterlimit:10;stroke-width:2px;}.cls-2{fill:#32c7ce;}</style></defs><title>Asset 9</title><g id="Layer_2" data-name="Layer 2"><g id="Layer_1-2" data-name="Layer 1"><path class="cls-1" d="M9.91,38.34C16,19.08,29.18,1.66,29.18,1.66S42.26,18.91,48.36,38.05" transform="translate(-2.77)"/><path class="cls-2" d="M4,44.43a3.83,3.83,0,0,1,.35-1,2.94,2.94,0,0,1,.58-.79,2.27,2.27,0,0,1,.77-.5,2.31,2.31,0,0,1,1-.15l-.1.48a1.86,1.86,0,0,0-1,.29,2.16,2.16,0,0,0-.73.74,3.3,3.3,0,0,0-.4,1,3.06,3.06,0,0,0,0,1.2,1.91,1.91,0,0,0,.43.93,1.45,1.45,0,0,0,.84.49,1.36,1.36,0,0,0,1-.13,2.36,2.36,0,0,0,.83-1l.88-1.68a4.79,4.79,0,0,1,.55-.79,1.86,1.86,0,0,1,.73-.48,1.81,1.81,0,0,1,1,0,1.9,1.9,0,0,1,1,.55,2.33,2.33,0,0,1,.55,1.07,3.28,3.28,0,0,1,0,1.36,3.07,3.07,0,0,1-.63,1.41,2.34,2.34,0,0,1-1,.72,2,2,0,0,1-1.1.08l.1-.49a1.74,1.74,0,0,0,1.85-.85,3,3,0,0,0,.37-1,2.23,2.23,0,0,0-.16-1.63,1.52,1.52,0,0,0-1.06-.79,1.21,1.21,0,0,0-1,.18,2.68,2.68,0,0,0-.75.93l-.9,1.71a2.85,2.85,0,0,1-.69.91,2,2,0,0,1-.79.37,2.21,2.21,0,0,1-.81,0,1.83,1.83,0,0,1-1-.55A2.26,2.26,0,0,1,4,46,3.4,3.4,0,0,1,4,44.43Z" transform="translate(-2.77)"/><path class="cls-2" d="M3.19,49.17l7.91,3.49,0,.63L2.77,55.72l0-.48,2.61-.77.24-3.72L3.16,49.64ZM6.13,51l-.22,3.38,4.72-1.39Z" transform="translate(-2.77)"/><path class="cls-2" d="M3.19,60.47l7.54-4.23.08.48-7.12,4,8,1.54.08.48-8.5-1.62Z" transform="translate(-2.77)"/><path class="cls-2" d="M4.81,66.87,12,63.11l2.15,4.14-.4.21-1.95-3.75-3,1.54,1.82,3.49-.41.21L8.45,65.46,5.44,67l2,3.89L7,71.14Z" transform="translate(-2.77)"/><path class="cls-2" d="M10.85,75.55a3.55,3.55,0,0,1-.7-.82,3,3,0,0,1-.38-.89,2.25,2.25,0,0,1,0-.93,2.51,2.51,0,0,1,.35-.9l.37.33a1.9,1.9,0,0,0-.27,1,2.25,2.25,0,0,0,.28,1,3.2,3.2,0,0,0,.68.88,3.08,3.08,0,0,0,1,.63,2,2,0,0,0,1,.11,1.49,1.49,0,0,0,.85-.48,1.4,1.4,0,0,0,.38-.91A2.28,2.28,0,0,0,14,73.37l-1-1.61a4.23,4.23,0,0,1-.39-.88A1.63,1.63,0,0,1,13,69.14a1.8,1.8,0,0,1,1-.58,2.21,2.21,0,0,1,1.19.07,3,3,0,0,1,1.17.7,2.91,2.91,0,0,1,.89,1.26,2.23,2.23,0,0,1,.1,1.24,2,2,0,0,1-.49,1l-.36-.33A1.93,1.93,0,0,0,17,71.42a1.85,1.85,0,0,0-.23-1,3.09,3.09,0,0,0-.64-.81A2.33,2.33,0,0,0,14.6,69a1.51,1.51,0,0,0-1.21.51,1.2,1.2,0,0,0-.37,1,2.56,2.56,0,0,0,.42,1.11l1,1.65a2.85,2.85,0,0,1,.43,1.06,1.86,1.86,0,0,1-.08.86,2.2,2.2,0,0,1-.42.69,1.94,1.94,0,0,1-1,.59,2.17,2.17,0,0,1-1.23-.06A3.42,3.42,0,0,1,10.85,75.55Z" transform="translate(-2.77)"/><path class="cls-2" d="M19.38,80.57l2.35-6.42-1.58-.58.15-.41a5.47,5.47,0,0,0,1.1.31A.81.81,0,0,0,22,73.4a1,1,0,0,0,.29-.42l.37.13-2.8,7.63Z" transform="translate(-2.77)"/><path class="cls-2" d="M26.72,82.21,27,79.88l-3.89-.46.07-.55,4.45-4.74.5.06-.62,5.28,1.42.17-.05.46-1.43-.17-.27,2.33ZM23.63,79l3.37.39.54-4.53Z" transform="translate(-2.77)"/><path class="cls-2" d="M34.3,81.91l-2-7.87.46-.12,1.88,7.41,4-1,.12.46Z" transform="translate(-2.77)"/><path class="cls-2" d="M45.21,77.47,38.08,73l.36-.32,6.62,4.24L41.59,69.8l.33-.3,6.64,4.21L45.1,66.64l.36-.32,3.7,7.6-.46.41-6.38-4,3.32,6.8Z" transform="translate(-2.77)"/><path class="cls-2" d="M52.23,69.83,45.82,64l.23-.58,8.64.3-.18.45-2.72-.09-1.4,3.45,2,1.84ZM50,67.22l1.26-3.13-4.92-.17Z" transform="translate(-2.77)"/><path class="cls-2" d="M55.35,58.87l-7.65-.63L47.48,61,47,61l.47-5.77.45,0-.21,2.55,7.65.63Z" transform="translate(-2.77)"/><path class="cls-2" d="M55.49,53.6l-8.09.72L47,49.67l.45,0,.37,4.21,3.32-.29-.34-3.92.46,0,.34,3.92,3.39-.3-.37-4.37.46,0Z" transform="translate(-2.77)"/><path class="cls-2" d="M54.68,46.36l-7.94,1.73-.61-2.79a3.63,3.63,0,0,1-.07-1.37,1.79,1.79,0,0,1,.48-1,1.89,1.89,0,0,1,1-.53,2,2,0,0,1,1.15,0,2,2,0,0,1,.81.5,2.89,2.89,0,0,1,.51.7l3.51-2.49.11.5-3.43,2.42.59,2.67,3.77-.82Zm-4.32.5-.44-2a3.26,3.26,0,0,0-.77-1.66,1.42,1.42,0,0,0-1.41-.33,1.49,1.49,0,0,0-1.12.78,2.58,2.58,0,0,0,0,1.56l.51,2.36Z" transform="translate(-2.77)"/></g></g></svg>