<svg xmlns="http://www.w3.org/2000/svg" viewBox="0 0 71.26 118.09"><defs><style>.cls-1{fill:none;stroke:#32c7ce;stroke-miterlimit:10;stroke-width:2px;}.cls-2{fill:#32c7ce;}</style></defs><title>Asset 11</title><g id="Layer_2" data-name="Layer 2"><g id="Layer_1-2" data-name="Layer 1"><path class="cls-1" d="M42.36.54c9.72,15.14,33,55.65,32.11,81C73.84,99,62.31,109,49.18,111.5" transform="translate(-4.24)"/><path class="cls-2" d="M30.35,8.33a5.89,5.89,0,0,1,1-1.19,4.36,4.36,0,0,1,1.19-.76,3.45,3.45,0,0,1,1.3-.28,3.41,3.41,0,0,1,1.37.29l-.39.6a2.68,2.68,0,0,0-1.5-.13A3.13,3.13,0,0,0,32,7.49a4.69,4.69,0,0,0-1.08,1.18,4.43,4.43,0,0,0-.65,1.6,2.81,2.81,0,0,0,.09,1.48,2.13,2.13,0,0,0,.89,1.1,2,2,0,0,0,1.38.33,3.31,3.31,0,0,0,1.62-.89l2.07-1.8a5.56,5.56,0,0,1,1.15-.78,2.51,2.51,0,0,1,1.22-.28,3,3,0,0,1,2.43,1.75,3.25,3.25,0,0,1,.19,1.71,4.42,4.42,0,0,1-.71,1.84A4.43,4.43,0,0,1,39,16.31a3.41,3.41,0,0,1-1.74.44,3,3,0,0,1-1.53-.46l.39-.61A2.56,2.56,0,0,0,39,15.49a4.52,4.52,0,0,0,1-1.12,3.33,3.33,0,0,0,.63-2.28,2.21,2.21,0,0,0-1-1.61,1.74,1.74,0,0,0-1.48-.29,3.89,3.89,0,0,0-1.49.87L34.58,12.9a4,4,0,0,1-1.41.86,2.47,2.47,0,0,1-1.25.09,3,3,0,0,1-1.08-.43,2.8,2.8,0,0,1-1.09-1.27,3.27,3.27,0,0,1-.21-1.78A5.18,5.18,0,0,1,30.35,8.33Z" transform="translate(-4.24)"/><path class="cls-2" d="M27.4,13.25l8,9.61-.45.78L22.64,21.45l.35-.6,3.88.69,2.71-4.67-2.52-3Zm2.66,4.19L27.6,21.67l7,1.24Z" transform="translate(-4.24)"/><path class="cls-2" d="M20.22,26.05l12.39,1.6-.32.62-11.7-1.5,8,8.7-.32.62-8.45-9.2Z" transform="translate(-4.24)"/><path class="cls-2" d="M16.93,32.56l10.69,4.86-2.8,6.14-.59-.27,2.53-5.56-4.39-2L20,40.9l-.61-.27,2.36-5.17-4.48-2-2.64,5.75L14,38.9Z" transform="translate(-4.24)"/><path class="cls-2" d="M11.65,44.44a5.53,5.53,0,0,1,.74-1.36,4.26,4.26,0,0,1,1-1,3.36,3.36,0,0,1,1.23-.53,3.26,3.26,0,0,1,1.39,0l-.25.66a2.79,2.79,0,0,0-1.5.18,3.14,3.14,0,0,0-1.2.89,4.55,4.55,0,0,0-.82,1.38,4.4,4.4,0,0,0-.32,1.7,2.9,2.9,0,0,0,.39,1.43,2.1,2.1,0,0,0,1.09.89,1.94,1.94,0,0,0,1.42,0,3.29,3.29,0,0,0,1.41-1.19l1.66-2.18a5.37,5.37,0,0,1,1-1A2.49,2.49,0,0,1,20,43.84a2.77,2.77,0,0,1,1.43.19,2.72,2.72,0,0,1,1.3,1,3.26,3.26,0,0,1,.53,1.65,5,5,0,0,1-1.56,3.8,3.41,3.41,0,0,1-1.62.79,2.79,2.79,0,0,1-1.58-.15l.25-.67a2.56,2.56,0,0,0,2.85-.78,4.54,4.54,0,0,0,.76-1.3A3.28,3.28,0,0,0,22.51,46a2.23,2.23,0,0,0-1.33-1.37,1.8,1.8,0,0,0-1.51,0,4,4,0,0,0-1.28,1.16l-1.68,2.22a3.93,3.93,0,0,1-1.21,1.13,2.53,2.53,0,0,1-1.2.35,3.21,3.21,0,0,1-1.15-.21,2.81,2.81,0,0,1-1.32-1,3.34,3.34,0,0,1-.57-1.69A5.24,5.24,0,0,1,11.65,44.44Z" transform="translate(-4.24)"/><path class="cls-2" d="M8.17,55.18l9.49,2.76.68-2.34.61.18a9.08,9.08,0,0,0-.35,1.62,1.17,1.17,0,0,0,.17.81,1.22,1.22,0,0,0,.63.37l-.15.55L8,55.85Z" transform="translate(-4.24)"/><path class="cls-2" d="M5.93,64.18l3.32.71,1.19-5.52.77.16,6.22,7-.15.72L9.77,65.68l-.44,2-.65-.14.43-2L5.8,64.83Zm5-4-1,4.8,6.45,1.38Z" transform="translate(-4.24)"/><path class="cls-2" d="M4.63,72.5l11.72.72,0,.68-11-.66-.36,6-.69,0Z" transform="translate(-4.24)"/><path class="cls-2" d="M4.74,87.36l10.47-6.25.19.69L5.62,87.56,17,87.7l.17.62L7.39,94.13l11.38.16L19,95l-12.21-.2-.23-.85,9.39-5.59L5,88.16Z" transform="translate(-4.24)"/><path class="cls-2" d="M9.44,100.71l11.81-4.08.57.7-6.39,10.73-.44-.54,2-3.39L13.6,100l-3.73,1.29Zm4.86-1,3.08,3.79L21,97.38Z" transform="translate(-4.24)"/><path class="cls-2" d="M20.83,111.89l5.9-9.39-3.41-2.14.34-.56,7.09,4.46-.34.55-3.14-2-5.89,9.39Z" transform="translate(-4.24)"/><path class="cls-2" d="M27.56,115.43l3.32-11.26,6.46,1.91-.19.62L31.3,105l-1.37,4.62,5.46,1.61-.19.64-5.45-1.61L28.35,115l6.07,1.81-.18.63Z" transform="translate(-4.24)"/><path class="cls-2" d="M38,118l.19-11.74,4.14.07a5,5,0,0,1,1.94.36,2.52,2.52,0,0,1,1.22,1,2.83,2.83,0,0,1,.4,1.62,3,3,0,0,1-.42,1.6,2.87,2.87,0,0,1-1,1,4.43,4.43,0,0,1-1.15.47l2.34,5.78-.73,0-2.28-5.62-4-.06L38.59,118Zm.74-6.24,2.95,0a4.83,4.83,0,0,0,2.6-.53,2.11,2.11,0,0,0,.92-1.88,2.14,2.14,0,0,0-.72-1.83,3.63,3.63,0,0,0-2.18-.59l-3.49-.06Z" transform="translate(-4.24)"/></g></g></svg>