<svg xmlns="http://www.w3.org/2000/svg" viewBox="0 0 175.39 241.72"><defs><style>.cls-1{fill:#82ced7;}.cls-2{fill:none;stroke:#82ced7;stroke-linecap:round;stroke-linejoin:round;stroke-width:5px;}</style></defs><title>Asset 6</title><g id="Layer_2" data-name="Layer 2"><g id="DRIPS"><path class="cls-1" d="M7.05,165l18.3-9.55.51,2.52-14.6,7.44,16.36,1.24.4,2-14.59,7.51,16.36,1.24.51,2.5L9.71,178.1l-.47-2.3,14.21-7.31L7.5,167.21Z" transform="translate(-7.05)"/><path class="cls-1" d="M10.41,181.12l21.07-1.2,1.12,2.63L17.19,197l-1-2.38,4.22-3.92-3.2-7.48-5.76.33Zm9.2,1.75,2.66,6.21,7.48-6.87Z" transform="translate(-7.05)"/><path class="cls-1" d="M19.6,200.22l14.77-9.38-3.43-5.41,2-1.25L41,196.85l-2,1.25L35.74,193,21,202.38Z" transform="translate(-7.05)"/><path class="cls-1" d="M25.42,208.82,40,195.36l8.49,9.18-1.65,1.51-6.75-7.3-4.75,4.39,6.08,6.58-1.64,1.51-6.08-6.59-4.86,4.48,6.92,7.54-1.66,1.53Z" transform="translate(-7.05)"/><path class="cls-1" d="M36.49,220.3l11.69-16,6.2,4.53a8.57,8.57,0,0,1,2.51,2.64,4.61,4.61,0,0,1,.64,2.77,6.37,6.37,0,0,1-3.18,4.6,4.84,4.84,0,0,1-2.18.54,7.34,7.34,0,0,1-2.07-.26l-2.16,9.57-2.17-1.59,2.11-9-4.31-3.14-5,6.9Zm8.32-7.11,3.49,2.55a5.69,5.69,0,0,0,3.33,1.3,3.67,3.67,0,0,0,3.25-4.23,4.67,4.67,0,0,0-1.9-2.45l-4-2.91Z" transform="translate(-7.05)"/><path class="cls-1" d="M63.59,236.14a10.91,10.91,0,0,1-2.47-1.29A8,8,0,0,1,59.27,233a6.15,6.15,0,0,1-1-2.23,5.54,5.54,0,0,1,0-2.56l2.5.92a3.87,3.87,0,0,0,.26,2.12,4.54,4.54,0,0,0,1.3,1.71,7.35,7.35,0,0,0,2.11,1.2,6.5,6.5,0,0,0,2.32.43,4,4,0,0,0,2-.49A2.71,2.71,0,0,0,70,232.65a2.51,2.51,0,0,0-.06-2.05,5.61,5.61,0,0,0-1.82-1.91l-3.47-2.41a9.57,9.57,0,0,1-2-1.76,4.63,4.63,0,0,1-1-2.13,5.35,5.35,0,0,1,2.21-5,6.11,6.11,0,0,1,3.06-1,9,9,0,0,1,3.62.61A8.6,8.6,0,0,1,74,219.16,5.91,5.91,0,0,1,75.53,222a5.17,5.17,0,0,1-.21,2.92l-2.44-.9a3.89,3.89,0,0,0,0-2.3,3.78,3.78,0,0,0-1.16-1.64A6.59,6.59,0,0,0,69.78,219a4.73,4.73,0,0,0-3.35-.21,3,3,0,0,0-1.82,1.77,2.47,2.47,0,0,0,.06,2.07,5.37,5.37,0,0,0,1.79,1.82l3.37,2.35a7.53,7.53,0,0,1,2.22,2.1,4.6,4.6,0,0,1,.79,2.23,5.57,5.57,0,0,1-.35,2.26,4.93,4.93,0,0,1-1.89,2.43,6,6,0,0,1-3.11,1A9.37,9.37,0,0,1,63.59,236.14Z" transform="translate(-7.05)"/><path class="cls-1" d="M71.34,238.75l10.5-18.3,2.82.5,3.65,20.77-2.56-.45-1-5.67-8-1.4-2.87,5ZM77.83,232l6.66,1.17-1.67-10Z" transform="translate(-7.05)"/><path class="cls-1" d="M92.15,241.57l-6.61-20,2.51,0,5.69,17.09,6.46-16.81,2.51.06-7.5,19.67Z" transform="translate(-7.05)"/><path class="cls-1" d="M104,241.45l-3.08-19.59,12.35-2,.34,2.21-9.83,1.55,1,6.39,8.85-1.39.34,2.2-8.86,1.39,1,6.53,10.11-1.56.35,2.23Z" transform="translate(-7.05)"/><path class="cls-1" d="M119.76,238.67l-6.83-18.62.55-.2c.31-.1.68-.24,1.11-.41l1.37-.5,1.31-.45a13.77,13.77,0,0,1,6-.93,7.19,7.19,0,0,1,4.26,1.94,11.84,11.84,0,0,1,2.82,4.61,12,12,0,0,1,.83,5.58,7.48,7.48,0,0,1-2.11,4.37,13.43,13.43,0,0,1-5.19,3.11Zm1.69-2.95,1.64-.6a10.55,10.55,0,0,0,3.7-2.16,5.58,5.58,0,0,0,1.71-3.27,9.52,9.52,0,0,0-.68-4.62,9.4,9.4,0,0,0-2.44-3.95,5.28,5.28,0,0,0-3.32-1.33,11,11,0,0,0-4.19.77l-1.74.64Z" transform="translate(-7.05)"/><path class="cls-1" d="M137.68,232.43l-5-21.4,1.68-1,5,21.41Z" transform="translate(-7.05)"/><path class="cls-1" d="M148.8,224l-13.35-14.67,5-4.51a9.37,9.37,0,0,1,3.28-2,5.87,5.87,0,0,1,3.36-.2,6,6,0,0,1,3,1.91,6.2,6.2,0,0,1,1.62,3.09,5.66,5.66,0,0,1-.39,3.23,9,9,0,0,1-2.22,3l-3.29,3,4.94,5.43Zm-4.46-8.75,3.26-3a4.82,4.82,0,0,0,1.69-3.07,4,4,0,0,0-1.15-3.15,3.52,3.52,0,0,0-3-1.33,5.36,5.36,0,0,0-3.2,1.54l-3.17,2.88Z" transform="translate(-7.05)"/><path class="cls-1" d="M160.35,213l-15.79-12,1.56-2.06,14,10.61,5.66-7.46,1.82,1.37Z" transform="translate(-7.05)"/><path class="cls-1" d="M168.46,202.31l-14.57-15.26,1.27-2.57,21,2.4L175,189.2l-5.72-.67-3.61,7.29,4,4.17Zm-4.63-8.13,3-6.06-10.09-1.24Z" transform="translate(-7.05)"/><path class="cls-1" d="M176.83,184.66l-19.09-5.38.66-2.33L176.08,171l-14.84-4.17.68-2.44,19.1,5.37L180.4,172l-17.93,6,15.05,4.23Z" transform="translate(-7.05)"/><path class="cls-1" d="M182.1,162.06l-17.35-2.32-.85,6.35-2.31-.31,2-14.88,2.31.31-.8,6,17.35,2.32Z" transform="translate(-7.05)"/><path class="cls-2" d="M172.45,147.34C163.75,61.24,94.79,2.5,94.79,2.5s-69,58.74-77.67,144.84" transform="translate(-7.05)"/><path class="cls-1" d="M46.5,165V124H36.64v-5.34a27.59,27.59,0,0,0,7.41-.79,7.82,7.82,0,0,0,4-2.33,6.64,6.64,0,0,0,1.45-3.76h6.11V165Z" transform="translate(-7.05)"/><path class="cls-1" d="M84.81,165l0-12.62H60.08v-7.62l24.51-33H93.5v33H102v7.62H93.5V165ZM68.47,144.71H84.78V122.85Z" transform="translate(-7.05)"/><path class="cls-1" d="M113.37,165l0-53.22h8V158H146V165Z" transform="translate(-7.05)"/></g></g></svg>