<svg xmlns="http://www.w3.org/2000/svg" viewBox="0 0 177.19 241.82"><defs><style>.cls-1{fill:#82ced7;}.cls-2{fill:none;stroke:#82ced7;stroke-linecap:round;stroke-linejoin:round;stroke-width:5px;}</style></defs><title>Asset 33</title><g id="Layer_2" data-name="Layer 2"><g id="DT"><path class="cls-1" d="M14.09,107.75l20.64-.15L34,110.07l-16.39,0,14,8.57-.54,1.91-16.4,0,14,8.56L28,131.57,10.48,120.65l.63-2.26,16,0L13.48,110Z" transform="translate(-6.83)"/><path class="cls-1" d="M9.19,125.57l18.66,9.84-.39,2.84L6.83,142.64l.36-2.57,5.63-1.19,1.11-8-5.09-2.69Zm7,6.24-.92,6.7,10-2Z" transform="translate(-6.83)"/><path class="cls-1" d="M6.9,148.11l17.5.38.14-6.41,2.33,0-.32,15-2.33,0,.13-6-17.5-.38Z" transform="translate(-6.83)"/><path class="cls-1" d="M6.84,157.46l19.7-2.25L28,167.64l-2.22.24L24.61,158l-6.43.74,1,8.89-2.21.26L16,159l-6.57.75,1.14,10.17-2.25.26Z" transform="translate(-6.83)"/><path class="cls-1" d="M8.66,172.27l19.07-5.46,2.11,7.39a8.77,8.77,0,0,1,.36,3.62A4.57,4.57,0,0,1,29,180.4a5.65,5.65,0,0,1-2.59,1.49,5.74,5.74,0,0,1-2.74.19,5.17,5.17,0,0,1-2.06-.92,7.1,7.1,0,0,1-1.47-1.48l-7.58,6.23-.74-2.59L19,177.49l-1.47-5.13-8.21,2.35Zm10.93-.49,1.19,4.15A5.69,5.69,0,0,0,22.61,179a3.18,3.18,0,0,0,2.94.42,3.15,3.15,0,0,0,2.22-1.77,4.73,4.73,0,0,0,0-3.1l-1.36-4.74Z" transform="translate(-6.83)"/><path class="cls-1" d="M21.12,202.57a10.63,10.63,0,0,1-1.22-2.49,8.22,8.22,0,0,1-.42-2.56A6.26,6.26,0,0,1,20,195.1a5.52,5.52,0,0,1,1.53-2L23,195.28a3.88,3.88,0,0,0-1.05,1.86,4.61,4.61,0,0,0,0,2.15,7.14,7.14,0,0,0,1,2.21,6.54,6.54,0,0,0,1.61,1.73,4.08,4.08,0,0,0,1.9.79,2.76,2.76,0,0,0,1.89-.47,2.45,2.45,0,0,0,1.16-1.69,5.66,5.66,0,0,0-.33-2.62l-1.37-4a9.34,9.34,0,0,1-.53-2.58,4.47,4.47,0,0,1,.46-2.29,5.29,5.29,0,0,1,4.75-2.74,6.06,6.06,0,0,1,3,1,8.87,8.87,0,0,1,2.56,2.64,8.64,8.64,0,0,1,1.49,3.73,6,6,0,0,1-.45,3.19,5.17,5.17,0,0,1-1.9,2.23l-1.43-2.18a3.59,3.59,0,0,0,1.39-3.87,6.42,6.42,0,0,0-.91-2,4.71,4.71,0,0,0-2.57-2.16,3,3,0,0,0-2.52.36,2.45,2.45,0,0,0-1.18,1.7,5.37,5.37,0,0,0,.37,2.52l1.32,3.89a7.39,7.39,0,0,1,.55,3,4.66,4.66,0,0,1-.68,2.26,5.36,5.36,0,0,1-1.63,1.62,5,5,0,0,1-2.95.85,6.17,6.17,0,0,1-3.11-1A9.52,9.52,0,0,1,21.12,202.57Z" transform="translate(-6.83)"/><path class="cls-1" d="M26,209.48l19.11-8.93,2,2-9,19.1-1.83-1.84,2.46-5.2-5.75-5.76-5.22,2.44Zm9.19-1.79L40,212.47l4.4-9.16Z" transform="translate(-6.83)"/><path class="cls-1" d="M44,225.48l5.13-20.42,2.09,1.4-4.35,17.47L61.3,213.2l2.09,1.39L46.52,227.18Z" transform="translate(-6.83)"/><path class="cls-1" d="M53.55,231.46l8-18.15,11.45,5-.91,2-9.1-4-2.61,5.93,8.2,3.6-.9,2-8.21-3.61-2.66,6.06,9.36,4.14-.91,2.07Z" transform="translate(-6.83)"/><path class="cls-1" d="M67.31,237.24,72.05,218l.57.15,1.15.28,1.41.35,1.34.35A13.75,13.75,0,0,1,82,221.68a7.09,7.09,0,0,1,2.45,4,11.8,11.8,0,0,1-.23,5.39,12,12,0,0,1-2.44,5.09,7.44,7.44,0,0,1-4.19,2.45,13.7,13.7,0,0,1-6-.32Zm3-1.5,1.69.42a10.67,10.67,0,0,0,4.28.27,5.54,5.54,0,0,0,3.24-1.75,11.56,11.56,0,0,0,2.21-8.85,5.27,5.27,0,0,0-2-3,11,11,0,0,0-3.9-1.7l-1.8-.45Z" transform="translate(-6.83)"/><path class="cls-1" d="M93.3,241.82,92.49,222l6.38-.26a9.35,9.35,0,0,1,5.53,1.11,4.42,4.42,0,0,1,2,3.76,4.5,4.5,0,0,1-.7,2.73,5.88,5.88,0,0,1-2.79,2,6.54,6.54,0,0,1,2,.63,4.28,4.28,0,0,1,1.33,1,4.15,4.15,0,0,1,.76,1.34,5.88,5.88,0,0,1,.27,1.59,4.51,4.51,0,0,1-1.74,4.08,10.1,10.1,0,0,1-5.66,1.56Zm2.09-11.21,4.31-.17a9,9,0,0,0,1.55-.22,4.5,4.5,0,0,0,1.39-.58,3,3,0,0,0,1-1A2.88,2.88,0,0,0,104,227a2.83,2.83,0,0,0-1.43-2.52,6.31,6.31,0,0,0-3.46-.69l-4,.16Zm.36,9,4-.16a7.16,7.16,0,0,0,3.74-1,2.77,2.77,0,0,0,1.19-2.57,3,3,0,0,0-.72-2,3.53,3.53,0,0,0-1.76-1.06,7.53,7.53,0,0,0-2.43-.26l-4.32.17Z" transform="translate(-6.83)"/><path class="cls-1" d="M114,239.83l-1.79-8.26-9-9.7,2.71-.58,7.07,7.8,3.14-10,2.72-.59-4.16,12.56,1.78,8.24Z" transform="translate(-6.83)"/><path class="cls-1" d="M132.34,234.22l-9.42-17.45,11-5.94,1,2-8.75,4.72,3.07,5.7,7.88-4.25,1.06,1.95-7.89,4.26,3.14,5.82,9-4.84,1.08,2Z" transform="translate(-6.83)"/><path class="cls-1" d="M144.52,227.78,137.31,208l2.2-1.84,18.23,10.62-2,1.66-5-2.91-6.24,5.22,2,5.41Zm-1-9.31,5.19-4.34L140,208.94Z" transform="translate(-6.83)"/><path class="cls-1" d="M163.77,209.48a8.14,8.14,0,0,1-3.77,2.85,7.76,7.76,0,0,1-4.54.11,14,14,0,0,1-5-2.62,13.63,13.63,0,0,1-3.72-4.16,7.51,7.51,0,0,1-.95-4.39,8.41,8.41,0,0,1,1.88-4.33,7.69,7.69,0,0,1,3-2.4,7.21,7.21,0,0,1,3.43-.62,6.9,6.9,0,0,1,3.24,1.05l-1.67,2.13a5.71,5.71,0,0,0-2.17-.64,4.46,4.46,0,0,0-2.19.35,4.76,4.76,0,0,0-1.92,1.54,5.3,5.3,0,0,0-1.21,2.91,5.16,5.16,0,0,0,.9,3.09,13.54,13.54,0,0,0,3.15,3.27q3.25,2.55,5.67,2.62a4.78,4.78,0,0,0,4.07-2.06,4.7,4.7,0,0,0,1-2.26,4.75,4.75,0,0,0-.24-2.24,6.4,6.4,0,0,0-1.17-2l1.66-2.13a8.4,8.4,0,0,1,1.5,2,7,7,0,0,1,.76,2.42,6.74,6.74,0,0,1-.25,2.68A8.11,8.11,0,0,1,163.77,209.48Z" transform="translate(-6.83)"/><path class="cls-1" d="M169.41,201.4l-17.79-8.76,1.12-2.28,7.58,3.74,4.73-9.6-7.58-3.73,1.12-2.28,17.79,8.76-1.12,2.28-8.21-4.05-4.73,9.6,8.21,4Z" transform="translate(-6.83)"/><path class="cls-1" d="M180,175.34l-19.43-4,1.35-6.57a9.42,9.42,0,0,1,1.46-3.57,5.79,5.79,0,0,1,2.59-2.13,5.88,5.88,0,0,1,3.56-.24,6.16,6.16,0,0,1,3.14,1.54,5.59,5.59,0,0,1,1.58,2.84,8.85,8.85,0,0,1,0,3.73l-.9,4.35,7.19,1.48Zm-8.77-4.44.89-4.31a4.82,4.82,0,0,0-.45-3.48,4,4,0,0,0-2.78-1.88,3.56,3.56,0,0,0-3.19.69,5.44,5.44,0,0,0-1.68,3.13l-.86,4.19Z" transform="translate(-6.83)"/><path class="cls-1" d="M182.76,160.84,163,159l.24-2.58L180.73,158l.87-9.33,2.27.21Z" transform="translate(-6.83)"/><path class="cls-1" d="M184,149.19l-20.09-6.42-.11-2.87L183.37,132l.1,2.59-5.34,2.15.31,8.13,5.49,1.75Zm-8-4.92-.26-6.76-9.45,3.74Z" transform="translate(-6.83)"/><path class="cls-1" d="M183.13,130.58l-19.51,3.58-.44-2.39,13.27-13.09-15.16,2.78-.46-2.49,19.51-3.58.41,2.22L167.29,130.9l15.38-2.82Z" transform="translate(-6.83)"/><path class="cls-1" d="M178.32,108.81l-16.76,5L163.4,120l-2.24.67-4.31-14.37,2.24-.67,1.73,5.79,16.77-5Z" transform="translate(-6.83)"/><path class="cls-1" d="M176.12,101.72l-3.05,1.08-1-2.85,3.05-1.08Z" transform="translate(-6.83)"/><path class="cls-1" d="M52.52,170.82V129.16H42.43v-4.9a29,29,0,0,0,7.42-.75,7.35,7.35,0,0,0,3.9-2.25,6.29,6.29,0,0,0,1.34-3.66h5.49v53.22Z" transform="translate(-6.83)"/><path class="cls-1" d="M90.35,170.82v-13.1H65.44V150.8l24.65-33.2H98v33.31h8.65v6.81H98v13.1ZM72.87,150.91H90.24v-23.3Z" transform="translate(-6.83)"/><path class="cls-1" d="M118.5,170.82l0-53.22h8v46.3h24.58v6.92Z" transform="translate(-6.83)"/></g><g id="D"><path class="cls-2" d="M158.4,85C135.49,38,95.19,2.5,95.19,2.5s-41.42,38.78-64.06,89" transform="translate(-6.83)"/></g></g></svg>