<svg xmlns="http://www.w3.org/2000/svg" viewBox="0 0 177.16 241.8"><defs><style>.cls-1{fill:#82ced7;}.cls-2{fill:none;stroke:#82ced7;stroke-linecap:round;stroke-linejoin:round;stroke-width:5px;}</style></defs><title>Asset 12</title><g id="Layer_2" data-name="Layer 2"><g id="DT"><path class="cls-1" d="M14.08,107.7h20.6l-.32,1.15-19.18-.09,16.39,10-.29,1H12.08l16.38,10L28.14,131,10.58,120.19l.41-1.44H29.45L13.7,109.06Z" transform="translate(-6.86)"/><path class="cls-1" d="M9.2,125.94l18.65,9.91-.21,1.5L7,141.81l.17-1.17,6.51-1.41,1.24-9L9,127.08ZM16,130.79,14.9,139l11.75-2.54Z" transform="translate(-6.86)"/><path class="cls-1" d="M6.88,148.65l18.73.4.15-6.8,1.09,0-.3,14.14-1.09,0,.13-6.26-18.73-.39Z" transform="translate(-6.86)"/><path class="cls-1" d="M6.88,157.88l19.71-2.25,1.29,11.31-1.09.13-1.17-10.25-8.09.92,1.08,9.54-1.11.13-1.09-9.54-8.26.94,1.19,10.64-1.12.12Z" transform="translate(-6.86)"/><path class="cls-1" d="M8.8,172.61l19.07-5.46,1.93,6.72a8.88,8.88,0,0,1,.37,3.31,4.33,4.33,0,0,1-1,2.46,4.85,4.85,0,0,1-2.42,1.44,4.82,4.82,0,0,1-4.85-1,7.17,7.17,0,0,1-1.35-1.63l-8.17,6.62L12,183.9l8-6.45L18.17,171l-9.07,2.6Zm10.45-1.88,1.38,4.8a8,8,0,0,0,2.13,3.93,3.5,3.5,0,0,0,3.49.57,3.57,3.57,0,0,0,2.6-2.07,6.11,6.11,0,0,0-.12-3.81l-1.62-5.67Z" transform="translate(-6.86)"/><path class="cls-1" d="M21,202.29a9.68,9.68,0,0,1-1.15-2.36,7.26,7.26,0,0,1-.37-2.36,5.63,5.63,0,0,1,1.85-4.12l.66,1a4.56,4.56,0,0,0-1.23,2.22,5.6,5.6,0,0,0,0,2.54,8.13,8.13,0,0,0,1.09,2.48,7.39,7.39,0,0,0,2,2.1,4.89,4.89,0,0,0,2.36.88,3.56,3.56,0,0,0,2.29-.62A3.41,3.41,0,0,0,30,202.14a5.61,5.61,0,0,0-.26-3.1l-1.36-4.43a9.73,9.73,0,0,1-.42-2.3,4.26,4.26,0,0,1,.41-2.09,4.48,4.48,0,0,1,1.67-1.77,4.54,4.54,0,0,1,2.69-.78,5.49,5.49,0,0,1,2.78.89,7.45,7.45,0,0,1,2.35,2.36,7.57,7.57,0,0,1,1.35,3.52,5.78,5.78,0,0,1-.52,3,4.9,4.9,0,0,1-1.76,2l-.66-1A4.62,4.62,0,0,0,38,196.22a4.46,4.46,0,0,0,0-2.43,7.74,7.74,0,0,0-1-2.32,5.66,5.66,0,0,0-3.1-2.54,3.77,3.77,0,0,0-3.18.48,3,3,0,0,0-1.47,2.09,6.69,6.69,0,0,0,.33,2.9l1.4,4.49a6.71,6.71,0,0,1,.37,2.77,4.38,4.38,0,0,1-.72,2A5.15,5.15,0,0,1,29.2,205a4.8,4.8,0,0,1-2.71.8,5.51,5.51,0,0,1-2.89-.89A8.53,8.53,0,0,1,21,202.29Z" transform="translate(-6.86)"/><path class="cls-1" d="M26.3,209.7l19.16-8.89,1.08,1.08L37.62,221l-.83-.83,2.8-6-6.43-6.45-6,2.8Zm8-2.52L40.13,213l5.07-10.9Z" transform="translate(-6.86)"/><path class="cls-1" d="M44.28,225.65l5-20.52,1,.65-4.69,19.38,16.1-11.76,1,.65-17,12.48Z" transform="translate(-6.86)"/><path class="cls-1" d="M54,231.6l8-18.16L72.35,218l-.44,1-9.44-4.15-3.28,7.46L68,226.2l-.45,1-8.79-3.86L55.39,231l9.79,4.33-.46,1Z" transform="translate(-6.86)"/><path class="cls-1" d="M67.71,237.37l4.75-19.26.3.08.72.19,1,.26,1.16.29a14.18,14.18,0,0,1,5.52,2.46,6.72,6.72,0,0,1,2.47,3.92,12.33,12.33,0,0,1-.28,5.55,12.5,12.5,0,0,1-2.49,5.28,7.21,7.21,0,0,1-4.22,2.34,14.85,14.85,0,0,1-6.11-.41Zm1.42-.81,1.6.4a14.59,14.59,0,0,0,5.4.45,6.23,6.23,0,0,0,3.8-1.95,13.09,13.09,0,0,0,2.48-10.2,6,6,0,0,0-2.5-3.36,15.45,15.45,0,0,0-4.81-2l-1.76-.43Z" transform="translate(-6.86)"/><path class="cls-1" d="M93.77,241.8,93,222l5.57-.23a8.75,8.75,0,0,1,5.22,1.1,4.37,4.37,0,0,1,2,3.74,4.53,4.53,0,0,1-.77,2.88,5.67,5.67,0,0,1-3,1.91,7.13,7.13,0,0,1,2,.5,4.58,4.58,0,0,1,1.43,1,3.8,3.8,0,0,1,.88,1.36,5.47,5.47,0,0,1,.35,1.78,4.46,4.46,0,0,1-1.79,4,9.69,9.69,0,0,1-5.42,1.55Zm.64-10.62,4.82-.2a11.74,11.74,0,0,0,1.91-.24,6.37,6.37,0,0,0,1.8-.67,3.63,3.63,0,0,0,1.31-1.27,3.54,3.54,0,0,0,.44-2,3.43,3.43,0,0,0-1.8-3.11,8.54,8.54,0,0,0-4.43-.81l-4.38.18Zm.39,9.46,4.44-.19a10.11,10.11,0,0,0,4.79-1.11,3.21,3.21,0,0,0,1.54-3.15,3.87,3.87,0,0,0-.93-2.53,4.64,4.64,0,0,0-2.28-1.27,10.87,10.87,0,0,0-3.08-.29l-4.82.2Z" transform="translate(-6.86)"/><path class="cls-1" d="M113.93,239.88l-1.8-8.36-8.89-9.62,1.18-.25,8,8.71L116,219.15l1.16-.25-4,12.42,1.81,8.34Z" transform="translate(-6.86)"/><path class="cls-1" d="M132.74,234l-9.42-17.45,10-5.41.52,1-9.08,4.9,3.87,7.17,8.45-4.56.54,1-8.45,4.56,3.94,7.32,9.43-5.06.54,1Z" transform="translate(-6.86)"/><path class="cls-1" d="M144.84,227.46l-7.15-19.87,1.16-1,18.28,10.58-.91.76-5.76-3.33-7,5.84,2.25,6.26Zm-1.8-8.18,6.33-5.3L139,208Z" transform="translate(-6.86)"/><path class="cls-1" d="M163.51,209.78a7.84,7.84,0,0,1-3.56,2.7,7,7,0,0,1-4.32,0,15,15,0,0,1-5-2.74,15.15,15.15,0,0,1-3.88-4.17,7.08,7.08,0,0,1-1.08-4.21,7.6,7.6,0,0,1,1.74-4.12,6.88,6.88,0,0,1,2.79-2.21,7.06,7.06,0,0,1,3.21-.53,6.42,6.42,0,0,1,2.92.94l-.74.95a6.71,6.71,0,0,0-2.48-.69,5.48,5.48,0,0,0-2.55.41,5.82,5.82,0,0,0-2.27,1.82,6.47,6.47,0,0,0-1.48,3.54,6,6,0,0,0,1,3.62,14.91,14.91,0,0,0,3.54,3.7c2.4,1.88,4.52,2.83,6.38,2.88a5.83,5.83,0,0,0,4.83-2.58,5.68,5.68,0,0,0,1.23-2.63,5.56,5.56,0,0,0-.21-2.57,6.59,6.59,0,0,0-1.28-2.24l.75-.95a6.34,6.34,0,0,1,1.31,1.88,6.91,6.91,0,0,1,.6,2.31,6.62,6.62,0,0,1-.25,2.48A7.12,7.12,0,0,1,163.51,209.78Z" transform="translate(-6.86)"/><path class="cls-1" d="M169.53,201l-17.8-8.76.48-1,8,4,5.62-11.42-8-3.95.47-1,17.8,8.77-.48,1-8.76-4.32-5.62,11.42,8.76,4.31Z" transform="translate(-6.86)"/><path class="cls-1" d="M180.1,174.94l-19.42-4,1.22-6a9.41,9.41,0,0,1,1.41-3.49,5.55,5.55,0,0,1,2.49-2.06,5.82,5.82,0,0,1,3.45-.23,6.08,6.08,0,0,1,3.12,1.56,5.66,5.66,0,0,1,1.57,2.84,8.57,8.57,0,0,1,0,3.67l-1,5,7.44,1.53ZM171.74,172l1-5a6.33,6.33,0,0,0-.46-4.35,4.6,4.6,0,0,0-3.38-2.32,4.18,4.18,0,0,0-3.89.85,7.23,7.23,0,0,0-2,4L162,170Z" transform="translate(-6.86)"/><path class="cls-1" d="M182.81,160.51l-19.74-1.87.1-1.15,18.58,1.73.94-10.08,1.17.11Z" transform="translate(-6.86)"/><path class="cls-1" d="M184,148.76l-20.1-6.5-.06-1.52,19.55-8,0,1.18-6.16,2.53.35,9.1,6.33,2.05Zm-7.58-3.58-.31-8.25L165,141.48Z" transform="translate(-6.86)"/><path class="cls-1" d="M183.06,130.19l-19.51,3.58-.16-.86L178.64,118l-17.4,3.2-.19-1,19.5-3.59.17.92-15.2,14.87,17.35-3.18Z" transform="translate(-6.86)"/><path class="cls-1" d="M178.2,108.26l-17.95,5.38,2,6.52-1.06.31-4.06-13.54,1-.32,1.8,6,17.95-5.38Z" transform="translate(-6.86)"/><path class="cls-1" d="M176.06,101.58l-2,.7-.55-1.56,2-.7Z" transform="translate(-6.86)"/><path class="cls-1" d="M53.82,170.82V126h-11v-2.87a39.23,39.23,0,0,0,7.47-.53,5.19,5.19,0,0,0,3.33-1.75,5.68,5.68,0,0,0,.83-3.24H57v53.22Z" transform="translate(-6.86)"/><path class="cls-1" d="M89.41,170.82V155.43H63.79v-3.6L89.11,117.6h3.32v34.82h9.42v3H92.43v15.39Zm-22.52-18.4H89.11V122.53Z" transform="translate(-6.86)"/><path class="cls-1" d="M116.9,170.82,117,117.6h3.09v50.05h27.16v3.17Z" transform="translate(-6.86)"/></g><g id="D"><path class="cls-2" d="M158.42,85C135.51,38,95.21,2.5,95.21,2.5s-41.42,38.78-64.06,89" transform="translate(-6.86)"/></g></g></svg>