<svg xmlns="http://www.w3.org/2000/svg" viewBox="0 0 66.81 108.17"><defs><style>.cls-1{fill:#82ced7;}.cls-2{fill:none;stroke:#82ced7;stroke-linecap:round;stroke-linejoin:round;stroke-width:5px;}</style></defs><title>Asset 7</title><g id="Layer_2" data-name="Layer 2"><g id="DRIPS"><path class="cls-1" d="M38.89,23.3a7,7,0,0,1-.69-1.54A5.44,5.44,0,0,1,38,20.18a4,4,0,0,1,.28-1.49,3.45,3.45,0,0,1,.87-1.26l.82,1.37A2.49,2.49,0,0,0,39.35,20a3.14,3.14,0,0,0,0,1.33,4.83,4.83,0,0,0,.56,1.37,3.8,3.8,0,0,0,.91,1.06,2.23,2.23,0,0,0,1.07.5A1.46,1.46,0,0,0,43,23.92a1.51,1.51,0,0,0,.67-1,3.65,3.65,0,0,0-.19-1.62l-.76-2.47a6.22,6.22,0,0,1-.29-1.59,3.06,3.06,0,0,1,.26-1.41,2.9,2.9,0,0,1,1-1.17,2.56,2.56,0,0,1,1.68-.5,3.1,3.1,0,0,1,1.7.65,5.39,5.39,0,0,1,1.45,1.63,5.74,5.74,0,0,1,.83,2.31,3.92,3.92,0,0,1-.27,2A3.07,3.07,0,0,1,48,22.05l-.81-1.34A2.39,2.39,0,0,0,48,19.57a2.6,2.6,0,0,0,0-1.24,4.45,4.45,0,0,0-.51-1.25A2.76,2.76,0,0,0,46,15.74,1.62,1.62,0,0,0,43.94,17a3.67,3.67,0,0,0,.2,1.56l.74,2.4a5.13,5.13,0,0,1,.3,1.86,3.05,3.05,0,0,1-.39,1.39,3.37,3.37,0,0,1-.93,1,2.6,2.6,0,0,1-1.67.51,3.29,3.29,0,0,1-1.76-.65A5.62,5.62,0,0,1,38.89,23.3Z"/><path class="cls-1" d="M40.87,26.07l11.77-2.18.8,1.54-7.76,9.88L45,33.92l2.13-2.69-2.27-4.37-3.22.6Zm5.28.44L48,30.14l3.77-4.73Z"/><path class="cls-1" d="M46.69,37.81l8.39-9.23.61,1.4-7.16,7.9,10.14-1.15.62,1.39L47.44,39.5Z"/><path class="cls-1" d="M48.78,42.69l10.44-4.5,2.6,7.18-1.18.5-2.07-5.71-3.4,1.47L57,46.77l-1.17.5L54,42.13l-3.48,1.49,2.11,5.88L51.43,50Z"/><path class="cls-1" d="M53.12,56.07l10.31-6,.3,1.55-8.22,4.67,9.26.67.24,1.2-8.22,4.72,9.27.67.3,1.54-11.66-1-.28-1.41,8-4.6-9-.69Z"/><path class="cls-1" d="M55,65.43l11.42,3.83L66.51,71l-11,5-.07-1.6,3-1.36-.23-5-3.11-1Zm4.54,3,.19,4.17,5.32-2.37Z"/><path class="cls-1" d="M55.22,77.67,65,79.05l.46-3.92,1.31.18-1.08,9.18-1.31-.18.44-3.7L55,79.23Z"/><path class="cls-1" d="M54.86,81.18l10.46,4.45-2.58,7.19-1.17-.51,2-5.71L60.2,85.15l-1.84,5.14-1.18-.5L59,84.64l-3.48-1.49L53.42,89l-1.19-.51Z"/><path class="cls-1" d="M53,87.16l8.78,7.63L59,98.49A5.08,5.08,0,0,1,57.46,100a2.48,2.48,0,0,1-1.59.32,3,3,0,0,1-1.53-.78,3.42,3.42,0,0,1-1-1.3,3.48,3.48,0,0,1-.25-1.36,5.11,5.11,0,0,1,.2-1.27L47.94,94l1-1.29L54,94.24l1.89-2.57-3.78-3.29Zm3.82,5.32-1.53,2.08a3.66,3.66,0,0,0-.82,2,2,2,0,0,0,.77,1.63,1.67,1.67,0,0,0,1.54.48,2.72,2.72,0,0,0,1.44-1.1l1.74-2.38Z"/><path class="cls-2" d="M36.72,9.07c-3-4.18-5-6.57-5-6.57S1.45,38.53,2.53,75.56c.8,27.6,27.56,36.22,44.59,25.87"/></g></g></svg>