<svg xmlns="http://www.w3.org/2000/svg" viewBox="0 0 139.12 204.94"><defs><style>.cls-1{fill:#82ced7;}.cls-2{fill:none;stroke:#82ced7;stroke-linecap:round;stroke-linejoin:round;stroke-width:5px;}</style></defs><title>Asset 14</title><g id="Layer_2" data-name="Layer 2"><g id="DT"><path class="cls-1" d="M7.26,124.4l19.82.7-.24,7a8.9,8.9,0,0,1-.67,3.27,4.39,4.39,0,0,1-1.71,2,4.78,4.78,0,0,1-2.75.63,5.09,5.09,0,0,1-2.7-.76,4.89,4.89,0,0,1-1.61-1.69,7.06,7.06,0,0,1-.77-2L6.8,137.37l0-1.23,9.57-3.67.24-6.66-9.43-.34Zm10.52,1.45-.18,5a8.16,8.16,0,0,0,.82,4.4,3.48,3.48,0,0,0,3.14,1.62,3.56,3.56,0,0,0,3.11-1.16A6.15,6.15,0,0,0,25.74,132l.21-5.9Z" transform="translate(-6.8)"/><path class="cls-1" d="M6.9,140.68l19.69-2.36,1.35,11.3-1.09.13-1.22-10.24-8.09,1L18.68,150l-1.12.13-1.14-9.53-8.25,1,1.24,10.63-1.11.13Z" transform="translate(-6.8)"/><path class="cls-1" d="M11.11,162.3a8.24,8.24,0,0,1-.59-3.73,4.56,4.56,0,0,1,1.36-2.8,9.22,9.22,0,0,1,3.37-2l12.45-4.6.41,1.11-12.89,4.76A5.44,5.44,0,0,0,12,157.66a5.42,5.42,0,0,0,.12,4.28,7.14,7.14,0,0,0,1.62,2.67,3.91,3.91,0,0,0,2.31,1.1,6.44,6.44,0,0,0,3-.44l12.89-4.77.37,1-12.84,4.75a7.89,7.89,0,0,1-3.61.56,4.7,4.7,0,0,1-2.76-1.31A8.43,8.43,0,0,1,11.11,162.3Z" transform="translate(-6.8)"/><path class="cls-1" d="M19.42,177.84a9.54,9.54,0,0,1-1.27-2.3,7.25,7.25,0,0,1-.49-2.33A5.8,5.8,0,0,1,18,171a5.94,5.94,0,0,1,1.28-2l.71,1a4.6,4.6,0,0,0-1.11,2.28,5.61,5.61,0,0,0,.17,2.53,7.88,7.88,0,0,0,1.22,2.42,7.42,7.42,0,0,0,2.13,2,4.75,4.75,0,0,0,2.39.75,3.57,3.57,0,0,0,2.26-.73,3.37,3.37,0,0,0,1.36-2,5.68,5.68,0,0,0-.42-3.09l-1.59-4.34a9.9,9.9,0,0,1-.54-2.28,4.32,4.32,0,0,1,.3-2.11,5,5,0,0,1,4.23-2.77,5.57,5.57,0,0,1,2.82.74,7.62,7.62,0,0,1,2.47,2.23,7.53,7.53,0,0,1,1.52,3.45,5.68,5.68,0,0,1-.35,3,5,5,0,0,1-1.66,2.13l-.71-1A4.31,4.31,0,0,0,36,168.46a7.7,7.7,0,0,0-1.16-2.26,5.62,5.62,0,0,0-3.22-2.37,3.76,3.76,0,0,0-3.15.64,3,3,0,0,0-1.36,2.17,6.57,6.57,0,0,0,.48,2.87l1.63,4.42a6.72,6.72,0,0,1,.51,2.74,4.29,4.29,0,0,1-.61,2,5.14,5.14,0,0,1-1.34,1.45,4.72,4.72,0,0,1-2.66.94,5.42,5.42,0,0,1-2.93-.74A8.5,8.5,0,0,1,19.42,177.84Z" transform="translate(-6.8)"/><path class="cls-1" d="M25.72,185.54l17.81-11.35,1.21.92-6.3,20.16-.93-.72,2-6.36-7.24-5.53-5.62,3.58ZM33.3,182l6.56,5,3.58-11.47Z" transform="translate(-6.8)"/><path class="cls-1" d="M41.83,196.93l7.58-18.32,5.15,2.12a8.82,8.82,0,0,1,4.28,3.2,4.42,4.42,0,0,1,.25,4.23,4.53,4.53,0,0,1-1.92,2.29,5.61,5.61,0,0,1-3.48.49,7,7,0,0,1,1.56,1.28,4.59,4.59,0,0,1,.9,1.45,4,4,0,0,1,.23,1.61A5.65,5.65,0,0,1,56,197,4.47,4.47,0,0,1,52.63,200a9.65,9.65,0,0,1-5.57-.87Zm1.42-.63,4.11,1.7a10.34,10.34,0,0,0,4.81,1,3.25,3.25,0,0,0,2.73-2.23,3.74,3.74,0,0,0,.21-2.68A4.62,4.62,0,0,0,53.58,192a11,11,0,0,0-2.68-1.55l-4.46-1.84Zm3.62-8.74,4.46,1.84a11.19,11.19,0,0,0,1.83.58,6.22,6.22,0,0,0,1.91.15,3.56,3.56,0,0,0,1.73-.6,3.62,3.62,0,0,0,1.25-1.65,3.43,3.43,0,0,0-.34-3.58A8.5,8.5,0,0,0,54,181.71L50,180Z" transform="translate(-6.8)"/><path class="cls-1" d="M57.43,202.73l3.64-19.49,1.14.21L58.8,201.79l10,1.85-.21,1.16Z" transform="translate(-6.8)"/><path class="cls-1" d="M71.12,204.94,71,185.11l11.39-.05v1.1l-10.31,0,0,8.15,9.6,0v1.12l-9.6,0,0,8.31h10.7v1.12Z" transform="translate(-6.8)"/><path class="cls-1" d="M96,202.63,89.35,184l5.24-1.87a8.82,8.82,0,0,1,5.32-.51,4.43,4.43,0,0,1,3,3,4.55,4.55,0,0,1,.12,3,5.71,5.71,0,0,1-2.25,2.7,7,7,0,0,1,2-.1,4.69,4.69,0,0,1,1.64.48,3.76,3.76,0,0,1,1.25,1,5.48,5.48,0,0,1,.86,1.59,4.45,4.45,0,0,1-.5,4.39,9.7,9.7,0,0,1-4.71,3.1ZM93.47,192.3,98,190.67a10.91,10.91,0,0,0,1.75-.8,6.28,6.28,0,0,0,1.52-1.17A3.39,3.39,0,0,0,102,185a3.41,3.41,0,0,0-2.65-2.42,8.47,8.47,0,0,0-4.46.54l-4.14,1.48Zm3.18,8.91,4.19-1.5a10.29,10.29,0,0,0,4.24-2.48,3.25,3.25,0,0,0,.53-3.48,3.83,3.83,0,0,0-1.64-2.13,4.57,4.57,0,0,0-2.55-.53,10.82,10.82,0,0,0-3,.64l-4.54,1.63Z" transform="translate(-6.8)"/><path class="cls-1" d="M117.73,192.8a7.86,7.86,0,0,1-4.21,1.49,7.36,7.36,0,0,1-4.25-1.22,16.37,16.37,0,0,1-6.35-9.2,7.48,7.48,0,0,1,.34-4.43,8.5,8.5,0,0,1,7.08-4.89,7.34,7.34,0,0,1,4.22,1.26,16.73,16.73,0,0,1,6.36,9.2,7.43,7.43,0,0,1-.32,4.39A7.78,7.78,0,0,1,117.73,192.8Zm-.64-.93a6.62,6.62,0,0,0,2.51-2.94,6,6,0,0,0,.18-3.77,13.93,13.93,0,0,0-2.22-4.58,14.13,14.13,0,0,0-3.55-3.74,6.1,6.1,0,0,0-3.61-1.17,6.54,6.54,0,0,0-3.62,1.28,6.67,6.67,0,0,0-2.49,3,6.24,6.24,0,0,0-.21,3.83,16.11,16.11,0,0,0,5.75,8.32,6.17,6.17,0,0,0,3.63,1.13A6.8,6.8,0,0,0,117.09,191.87Z" transform="translate(-6.8)"/><path class="cls-1" d="M130,181.43l-14.35-12.05-4.37,5.21-.84-.71,9.09-10.83.84.71-4,4.79,14.34,12Z" transform="translate(-6.8)"/><path class="cls-1" d="M138.23,169.16l-16.77-8.35-3,6.09-1-.49,6.31-12.66,1,.49-2.79,5.6,16.77,8.35Z" transform="translate(-6.8)"/><path class="cls-1" d="M142.24,159.94,123,155.1l.28-1.12,18.09,4.53,2.46-9.82L145,149Z" transform="translate(-6.8)"/><path class="cls-1" d="M145.19,146.45l-19.79-1.24.71-11.37,1.09.07-.64,10.3,8.13.51.6-9.59,1.12.08-.6,9.58,8.3.52.69-10.68,1.13.07Z" transform="translate(-6.8)"/><path class="cls-1" d="M145.62,126a9.37,9.37,0,0,1-.15,2.62,7.09,7.09,0,0,1-.83,2.23,5.63,5.63,0,0,1-1.48,1.7,6,6,0,0,1-2.14,1l-.08-1.2a4.62,4.62,0,0,0,2.15-1.34,5.52,5.52,0,0,0,1.2-2.24,7.58,7.58,0,0,0,.26-2.7,7.42,7.42,0,0,0-.73-2.82,4.8,4.8,0,0,0-1.63-1.91,3.57,3.57,0,0,0-2.3-.58,3.33,3.33,0,0,0-2.21,1,5.66,5.66,0,0,0-1.29,2.84l-1,4.52a9.66,9.66,0,0,1-.76,2.22,4.29,4.29,0,0,1-1.38,1.63,5,5,0,0,1-5.05.09,5.57,5.57,0,0,1-2-2.13,7.8,7.8,0,0,1-.9-3.21,7.61,7.61,0,0,1,.55-3.73,5.77,5.77,0,0,1,1.92-2.37,4.9,4.9,0,0,1,2.53-.91l.09,1.2a4.3,4.3,0,0,0-3.79,3.25,7.59,7.59,0,0,0-.22,2.53,5.52,5.52,0,0,0,1.46,3.72,3.77,3.77,0,0,0,3,1.14,3.05,3.05,0,0,0,2.3-1.11,6.68,6.68,0,0,0,1.13-2.69l1-4.61a6.67,6.67,0,0,1,1-2.59,4.26,4.26,0,0,1,1.6-1.39,5.26,5.26,0,0,1,1.9-.51,4.73,4.73,0,0,1,2.76.62,5.44,5.44,0,0,1,2.08,2.19A8.38,8.38,0,0,1,145.62,126Z" transform="translate(-6.8)"/><path class="cls-1" d="M144.58,118.17l-2.09.29-.23-1.65,2.09-.29Z" transform="translate(-6.8)"/><path class="cls-1" d="M41,93.71V73.88H52.23V75h-10V83.1h9.33v1.12H42.19v9.49Z" transform="translate(-6.8)"/><path class="cls-1" d="M52.92,93.71V73.88H54V93.71Z" transform="translate(-6.8)"/><path class="cls-1" d="M56.21,93.71l0-19.83h1.15V92.53H67.51v1.18Z" transform="translate(-6.8)"/><path class="cls-1" d="M68.2,93.71l0-19.83h1.15V92.53H79.5v1.18Z" transform="translate(-6.8)"/><path class="cls-1" d="M39.24,152.31v-4.64a15.53,15.53,0,0,1,1.55-7.14,18.08,18.08,0,0,1,4.08-5.28,38.33,38.33,0,0,1,5.58-4.12q3-1.86,6-3.66a47.45,47.45,0,0,0,5.56-3.86,17.16,17.16,0,0,0,4.08-4.75,12.55,12.55,0,0,0,1.55-6.37,10.08,10.08,0,0,0-3.5-8q-3.49-3-9.35-3-6.44,0-10,3.55a12.64,12.64,0,0,0-3.72,8.74H37.92a16,16,0,0,1,2.17-7.61,15.09,15.09,0,0,1,5.81-5.64,18.54,18.54,0,0,1,9.2-2.13,18.22,18.22,0,0,1,8.25,1.77,13.12,13.12,0,0,1,5.48,5,14.11,14.11,0,0,1,2,7.48,15.43,15.43,0,0,1-1.55,7.15A18.06,18.06,0,0,1,65.17,125a38.27,38.27,0,0,1-5.54,4.08q-3,1.84-6.05,3.63A43.91,43.91,0,0,0,48,136.52,17.29,17.29,0,0,0,44,141.27a12.64,12.64,0,0,0-1.54,6.4v1.62h29v3Z" transform="translate(-6.8)"/><path class="cls-1" d="M90.91,153.12a25.17,25.17,0,0,1-10.07-1.86,15.39,15.39,0,0,1-6.64-5.2,13.25,13.25,0,0,1-2.35-7.81,12.44,12.44,0,0,1,1.62-6.07,16.45,16.45,0,0,1,4.21-5,12.16,12.16,0,0,1,5.5-2.6A15.18,15.18,0,0,1,76.67,120a11.56,11.56,0,0,1-2.47-7.58,12.91,12.91,0,0,1,2.21-7.6,13.9,13.9,0,0,1,6-4.8,22.75,22.75,0,0,1,17.06,0,13.85,13.85,0,0,1,6,4.8,13,13,0,0,1,2.19,7.6,11.8,11.8,0,0,1-2.41,7.58,14.79,14.79,0,0,1-6.5,4.56,12.16,12.16,0,0,1,5.5,2.6,17,17,0,0,1,4.24,5,12.35,12.35,0,0,1,1.63,6.07,13.25,13.25,0,0,1-2.35,7.81,15.34,15.34,0,0,1-6.66,5.2A25.49,25.49,0,0,1,90.91,153.12Zm0-2.87q7.22,0,11.57-3.22a10.13,10.13,0,0,0,4.37-8.56,10.54,10.54,0,0,0-2-6.29,13.29,13.29,0,0,0-5.56-4.34,20.49,20.49,0,0,0-8.39-1.58,20.18,20.18,0,0,0-8.3,1.58,13.29,13.29,0,0,0-5.54,4.34,10.54,10.54,0,0,0-2,6.29A10.13,10.13,0,0,0,79.45,147Q83.8,150.26,90.91,150.25Zm0-27.31q6.11,0,9.79-2.79a9.34,9.34,0,0,0,3.68-7.88,9.67,9.67,0,0,0-3.72-8,15.27,15.27,0,0,0-9.75-3,15.11,15.11,0,0,0-9.72,3,9.7,9.7,0,0,0-3.71,8,9.31,9.31,0,0,0,3.71,7.88A15.79,15.79,0,0,0,90.91,122.94Z" transform="translate(-6.8)"/></g><g id="D"><path class="cls-2" d="M132.43,106.33C119.91,50.08,76.32,2.5,76.32,2.5S29.9,53.17,19.1,111.74" transform="translate(-6.8)"/></g></g></svg>