<svg xmlns="http://www.w3.org/2000/svg" viewBox="0 0 138.05 204.31"><defs><style>.cls-1{fill:#82ced7;}.cls-2{fill:none;stroke:#82ced7;stroke-linecap:round;stroke-linejoin:round;stroke-width:5px;}</style></defs><title>Asset 8</title><g id="Layer_2" data-name="Layer 2"><g id="DRIPS"><path class="cls-1" d="M7.42,150.43a10.94,10.94,0,0,1-.13-2.78,8.33,8.33,0,0,1,.62-2.51,6.17,6.17,0,0,1,1.41-2,5.67,5.67,0,0,1,2.22-1.28l.46,2.62a4,4,0,0,0-1.7,1.3,4.51,4.51,0,0,0-.81,2,7,7,0,0,0,0,2.42,6.52,6.52,0,0,0,.8,2.22,3.94,3.94,0,0,0,1.44,1.48,2.72,2.72,0,0,0,1.91.32,2.48,2.48,0,0,0,1.74-1.09,5.64,5.64,0,0,0,.73-2.54l.33-4.21a8.88,8.88,0,0,1,.53-2.57,4.53,4.53,0,0,1,1.33-1.93,4.91,4.91,0,0,1,2.4-1,4.86,4.86,0,0,1,3.05.41,6.15,6.15,0,0,1,2.37,2.15,9.14,9.14,0,0,1,1.31,3.44,8.58,8.58,0,0,1-.12,4,5.88,5.88,0,0,1-1.67,2.76,5.32,5.32,0,0,1-2.63,1.3l-.45-2.57a3.93,3.93,0,0,0,2-1.16,3.84,3.84,0,0,0,.84-1.84,6.59,6.59,0,0,0,0-2.21,4.67,4.67,0,0,0-1.51-3,3,3,0,0,0-2.45-.68,2.48,2.48,0,0,0-1.76,1.11A5.3,5.3,0,0,0,19,147l-.33,4.09a7.49,7.49,0,0,1-.68,3,4.65,4.65,0,0,1-1.53,1.81,5.53,5.53,0,0,1-2.13.84,4.89,4.89,0,0,1-3.05-.4,6.15,6.15,0,0,1-2.44-2.18A9.56,9.56,0,0,1,7.42,150.43Z" transform="translate(-7.25)"/><path class="cls-1" d="M10.11,161.75,31,159.05l1.31,2.55L18,177.06l-1.18-2.3,3.92-4.22L17,163.31l-5.72.74Zm9.29,1.09,3.1,6,7-7.39Z" transform="translate(-7.25)"/><path class="cls-1" d="M23,182.45l9.62-18.73,1.71,1.83-8.19,16,16.52-7.18,1.72,1.83-19.29,8.44Z" transform="translate(-7.25)"/><path class="cls-1" d="M34.35,192.72l9.74-17.27L55,181.59l-1.11,1.94-8.67-4.88L42,184.29l7.81,4.39-1.09,1.94-7.82-4.41L37.68,192l8.9,5.05-1.11,2Z" transform="translate(-7.25)"/><path class="cls-1" d="M51.3,201.23l4.61-19.29.56.14c.32.08.7.18,1.16.28l1.41.34,1.35.34a13.77,13.77,0,0,1,5.48,2.53,7.2,7.2,0,0,1,2.48,4,13.82,13.82,0,0,1-2.6,10.5,7.47,7.47,0,0,1-4.17,2.48,13.67,13.67,0,0,1-6-.28Zm3.05-1.51,1.69.4a10.66,10.66,0,0,0,4.29.24,5.57,5.57,0,0,0,3.22-1.77,11.54,11.54,0,0,0,2.14-8.87,5.27,5.27,0,0,0-2-2.95,11,11,0,0,0-3.91-1.67l-1.8-.43Z" transform="translate(-7.25)"/><path class="cls-1" d="M87.67,204.31l-10.3-17.88,2.49-.62,8,14.28.56-16.4,1.93-.48,8.11,14.26.56-16.39,2.48-.62-.87,20.65-2.28.56-7.9-13.89-.61,16Z" transform="translate(-7.25)"/><path class="cls-1" d="M106.66,199l-4.14-20.69,2.45-1.49,16.42,13.25-2.22,1.34-4.47-3.62-7,4.21,1.13,5.65Zm.44-9.35,5.78-3.51L105,179.7Z" transform="translate(-7.25)"/><path class="cls-1" d="M126.42,184.82l-12.63-12.11-4.44,4.62-1.68-1.61,10.38-10.83,1.69,1.61-4.19,4.37L128.18,183Z" transform="translate(-7.25)"/><path class="cls-1" d="M135.17,174.25l-17.7-8.95,5.64-11.16,2,1L120.61,164l5.78,2.93,4-8,2,1-4,8,5.9,3,4.64-9.12,2,1Z" transform="translate(-7.25)"/><path class="cls-1" d="M142.86,156.73l-19.54-3.42,1.33-7.57a8.81,8.81,0,0,1,1.26-3.41,4.61,4.61,0,0,1,2.21-1.8,5.55,5.55,0,0,1,3-.2,5.72,5.72,0,0,1,2.55,1,4.91,4.91,0,0,1,1.44,1.73,7.1,7.1,0,0,1,.68,2l9.54-2.29-.47,2.65-9,2.09-.92,5.26,8.42,1.47Zm-10.05-4.34.75-4.25a5.64,5.64,0,0,0-.3-3.56,3.15,3.15,0,0,0-2.46-1.67,3.11,3.11,0,0,0-2.77.62,4.61,4.61,0,0,0-1.36,2.79l-.86,4.85Z" transform="translate(-7.25)"/><path class="cls-1" d="M48.17,86V66.17H60.53v2.22H50.78v6.55h8.75v2.2H50.78V86Z" transform="translate(-7.25)"/><path class="cls-1" d="M62.27,86V66.17h2.54V86Z" transform="translate(-7.25)"/><path class="cls-1" d="M67.84,86l0-19.83h2.59V83.72h9.37V86Z" transform="translate(-7.25)"/><path class="cls-1" d="M81.49,86V66.17h2.6V83.72h9.36V86Z" transform="translate(-7.25)"/><path class="cls-1" d="M45.35,138.18v-5.91a12.52,12.52,0,0,1,1.23-5.74,14.27,14.27,0,0,1,3.27-4.22,26.84,26.84,0,0,1,4.48-3.19q2.45-1.4,4.86-2.64a50,50,0,0,0,4.46-2.58,12.71,12.71,0,0,0,3.28-3A6.27,6.27,0,0,0,68.18,107a6.15,6.15,0,0,0-2.06-4.79,8,8,0,0,0-5.56-1.84,8.52,8.52,0,0,0-9,8.15H44.48a14.94,14.94,0,0,1,1.89-7.23,13.24,13.24,0,0,1,5.43-5.17,18.78,18.78,0,0,1,9-1.94,18.51,18.51,0,0,1,8,1.61A12.33,12.33,0,0,1,74,100.28,12.07,12.07,0,0,1,75.86,107a12.33,12.33,0,0,1-1.22,5.7,13.53,13.53,0,0,1-3.21,4.1,25.67,25.67,0,0,1-4.38,3c-1.59.89-3.18,1.71-4.77,2.48a46.82,46.82,0,0,0-4.38,2.4,11.9,11.9,0,0,0-3.21,2.83,6.11,6.11,0,0,0-1.21,3.81v.63H76v6.24Z" transform="translate(-7.25)"/><path class="cls-1" d="M92.66,138.81a23.84,23.84,0,0,1-9-1.54,13.65,13.65,0,0,1-6-4.37,10.69,10.69,0,0,1-2.13-6.63,9.81,9.81,0,0,1,1.24-4.77,12.75,12.75,0,0,1,3.2-3.85,9.39,9.39,0,0,1,4-2A12.51,12.51,0,0,1,79.4,112a9,9,0,0,1-1.89-5.81,10.72,10.72,0,0,1,2-6.55A12.27,12.27,0,0,1,84.9,95.6a22.15,22.15,0,0,1,15.5,0,12.39,12.39,0,0,1,5.41,4.08,10.67,10.67,0,0,1,2,6.55A9.09,9.09,0,0,1,106,112a12.15,12.15,0,0,1-4.71,3.61,9.39,9.39,0,0,1,4,2,12.92,12.92,0,0,1,3.21,3.85,9.73,9.73,0,0,1,1.26,4.77,10.74,10.74,0,0,1-2.12,6.63,13.54,13.54,0,0,1-6,4.37A24,24,0,0,1,92.66,138.81Zm0-5.63a10.84,10.84,0,0,0,6.78-1.93,6.14,6.14,0,0,0,2.49-5.13,6.4,6.4,0,0,0-1.14-3.76,7.6,7.6,0,0,0-3.21-2.57,13.45,13.45,0,0,0-9.83,0,7.48,7.48,0,0,0-3.21,2.57,6.46,6.46,0,0,0-1.12,3.76,6.12,6.12,0,0,0,2.5,5.13A10.82,10.82,0,0,0,92.66,133.18Zm0-20.44A8.61,8.61,0,0,0,98.25,111a6,6,0,0,0,2.18-4.91,6.09,6.09,0,0,0-2.19-4.94,9.45,9.45,0,0,0-11.18,0,6.07,6.07,0,0,0-2.2,4.94,5.92,5.92,0,0,0,2.2,4.91A8.72,8.72,0,0,0,92.66,112.74Z" transform="translate(-7.25)"/><path class="cls-2" d="M136.29,135.55c.09-89.21-60.46-133-60.46-133S15.14,47.36,16.25,136.31" transform="translate(-7.25)"/><path class="cls-1" d="M45.51,162.43v-13.1h4.21a6.22,6.22,0,0,1,3.62.87,3.24,3.24,0,0,1,.69,4.33,3.9,3.9,0,0,1-1.89,1.22,4.48,4.48,0,0,1,1.3.47,3.11,3.11,0,0,1,.86.72,2.7,2.7,0,0,1,.46.91,4.11,4.11,0,0,1,.14,1.06,3,3,0,0,1-1.27,2.65,6.67,6.67,0,0,1-3.77.87Zm1.68-7.34H50a5,5,0,0,0,1-.1,3.3,3.3,0,0,0,.94-.34,2.18,2.18,0,0,0,.69-.66,1.94,1.94,0,0,0,.26-1,1.87,1.87,0,0,0-.87-1.7,4.21,4.21,0,0,0-2.28-.55H47.19Zm0,5.95h2.65a4.74,4.74,0,0,0,2.5-.54,1.84,1.84,0,0,0,.86-1.67,2,2,0,0,0-.43-1.33,2.45,2.45,0,0,0-1.13-.75,5,5,0,0,0-1.6-.24H47.19Z" transform="translate(-7.25)"/><path class="cls-1" d="M60.7,162.61a5.61,5.61,0,0,1-3-.79,5.08,5.08,0,0,1-2-2.28,9.91,9.91,0,0,1,0-7.29,5.12,5.12,0,0,1,2-2.31,6.06,6.06,0,0,1,6,0,5.18,5.18,0,0,1,2,2.3,8.81,8.81,0,0,1,.69,3.67,8.64,8.64,0,0,1-.69,3.63,5.1,5.1,0,0,1-2,2.28A5.57,5.57,0,0,1,60.7,162.61Zm0-1.46a3.72,3.72,0,0,0,2.07-.55,3.5,3.5,0,0,0,1.3-1.71,8.32,8.32,0,0,0,.45-3,8.54,8.54,0,0,0-.46-3,3.53,3.53,0,0,0-1.3-1.74,4,4,0,0,0-4.12,0,3.69,3.69,0,0,0-1.32,1.75,8.3,8.3,0,0,0-.46,3,8.09,8.09,0,0,0,.46,3,3.53,3.53,0,0,0,1.32,1.71A3.73,3.73,0,0,0,60.7,161.15Z" transform="translate(-7.25)"/><path class="cls-1" d="M70.44,162.43V150.87H66.21v-1.54h9.92v1.54h-4v11.56Z" transform="translate(-7.25)"/><path class="cls-1" d="M79.75,162.43V150.87H75.52v-1.54h9.92v1.54h-4v11.56Z" transform="translate(-7.25)"/><path class="cls-1" d="M85.78,162.43v-13.1H87.5v11.6h6.19v1.5Z" transform="translate(-7.25)"/><path class="cls-1" d="M94.44,162.43v-13.1h8.26v1.47H96.12v4.28H102v1.47H96.11v4.37l6.76,0v1.49Z" transform="translate(-7.25)"/><path class="cls-1" d="M108.31,162.61a6.73,6.73,0,0,1-1.82-.23,5.23,5.23,0,0,1-1.56-.69,4,4,0,0,1-1.16-1.15,3.57,3.57,0,0,1-.58-1.59H105a2.51,2.51,0,0,0,.65,1.25,3,3,0,0,0,1.2.76,4.72,4.72,0,0,0,1.58.26,4.26,4.26,0,0,0,1.54-.27,2.63,2.63,0,0,0,1.13-.76,1.85,1.85,0,0,0,.43-1.21,1.65,1.65,0,0,0-.51-1.26,3.76,3.76,0,0,0-1.57-.76l-2.7-.7a5.89,5.89,0,0,1-1.62-.64,3,3,0,0,1-1.1-1.09,3.51,3.51,0,0,1,.22-3.62,4.11,4.11,0,0,1,1.67-1.29,5.86,5.86,0,0,1,2.39-.46,5.61,5.61,0,0,1,2.59.54,3.8,3.8,0,0,1,1.6,1.4A3.39,3.39,0,0,1,113,153h-1.72a2.57,2.57,0,0,0-.53-1.42,2.44,2.44,0,0,0-1.11-.75,4.44,4.44,0,0,0-1.44-.23,3.09,3.09,0,0,0-2.12.64,2,2,0,0,0-.72,1.52,1.61,1.61,0,0,0,.51,1.26,3.64,3.64,0,0,0,1.53.72l2.63.68a4.92,4.92,0,0,1,1.86.79,3,3,0,0,1,1,1.2,3.51,3.51,0,0,1,.31,1.48,3.22,3.22,0,0,1-.61,1.94,4,4,0,0,1-1.7,1.34A6.34,6.34,0,0,1,108.31,162.61Z" transform="translate(-7.25)"/></g></g></svg>