<svg xmlns="http://www.w3.org/2000/svg" viewBox="0 0 139.28 204.89"><defs><style>.cls-1{fill:#82ced7;}.cls-2{fill:none;stroke:#82ced7;stroke-linecap:round;stroke-linejoin:round;stroke-width:5px;}</style></defs><title>Asset 34</title><g id="Layer_2" data-name="Layer 2"><g id="DT"><path class="cls-1" d="M7.28,124l19.82.7-.27,7.68a8.68,8.68,0,0,1-.78,3.56,4.55,4.55,0,0,1-1.93,2.08,5.63,5.63,0,0,1-2.93.61,5.77,5.77,0,0,1-2.67-.66,5.2,5.2,0,0,1-1.67-1.51,7.75,7.75,0,0,1-.94-1.86l-9.13,3.58.1-2.69,8.66-3.32.19-5.33-8.54-.3ZM17.83,127l-.15,4.31a5.7,5.7,0,0,0,.79,3.49,3.17,3.17,0,0,0,2.66,1.32,3.14,3.14,0,0,0,2.66-1,4.73,4.73,0,0,0,1-2.95l.17-4.92Z" transform="translate(-6.78)"/><path class="cls-1" d="M6.85,140.31,26.54,138,28,150.38l-2.22.25-1.18-9.88-6.43.77,1.06,8.9-2.2.26L16,141.78l-6.57.78,1.2,10.16L8.37,153Z" transform="translate(-6.78)"/><path class="cls-1" d="M11.32,162.58a8.74,8.74,0,0,1-.65-4.21,5.05,5.05,0,0,1,1.53-3.05,10,10,0,0,1,3.54-2.1l11.93-4.4.91,2.47-12.29,4.54a4.85,4.85,0,0,0-2.95,2.36,4.64,4.64,0,0,0,.06,3.62A5.72,5.72,0,0,0,14.77,164a3.59,3.59,0,0,0,2,.95,5.7,5.7,0,0,0,2.71-.41L31.81,160l.88,2.4-12.17,4.49a8.9,8.9,0,0,1-3.9.64,5.14,5.14,0,0,1-3.09-1.37A8.87,8.87,0,0,1,11.32,162.58Z" transform="translate(-6.78)"/><path class="cls-1" d="M19.64,178.16a10.82,10.82,0,0,1-1.35-2.43,8.17,8.17,0,0,1-.56-2.53,6.27,6.27,0,0,1,.36-2.44,5.62,5.62,0,0,1,1.42-2.13l1.58,2.15a3.78,3.78,0,0,0-.94,1.91,4.42,4.42,0,0,0,.15,2.15A6.79,6.79,0,0,0,21.41,177a6.43,6.43,0,0,0,1.7,1.64,3.9,3.9,0,0,0,1.94.69,2.75,2.75,0,0,0,1.86-.56A2.49,2.49,0,0,0,28,177a5.54,5.54,0,0,0-.47-2.6l-1.57-3.92a9,9,0,0,1-.67-2.54,4.56,4.56,0,0,1,.34-2.32,5.34,5.34,0,0,1,4.61-3,6.08,6.08,0,0,1,3.07.88A9.19,9.19,0,0,1,36,166a8.75,8.75,0,0,1,1.68,3.65,6,6,0,0,1-.28,3.21,5.24,5.24,0,0,1-1.78,2.33l-1.54-2.1a3.87,3.87,0,0,0,1.25-1.92,3.76,3.76,0,0,0-.07-2,6.54,6.54,0,0,0-1-2,4.7,4.7,0,0,0-2.68-2,3,3,0,0,0-2.5.48A2.44,2.44,0,0,0,28,167.45a5.46,5.46,0,0,0,.5,2.5L30,173.76a7.46,7.46,0,0,1,.71,3,4.47,4.47,0,0,1-.57,2.29,5.37,5.37,0,0,1-1.53,1.7,5,5,0,0,1-2.91,1,6.2,6.2,0,0,1-3.15-.87A9.51,9.51,0,0,1,19.64,178.16Z" transform="translate(-6.78)"/><path class="cls-1" d="M25.51,185.33l17.75-11.4,2.28,1.74-6.35,20.12-2.06-1.58,1.75-5.48-6.47-4.94-4.85,3.11Zm8.86-3,5.37,4.11,3.15-9.67Z" transform="translate(-6.78)"/><path class="cls-1" d="M41.52,196.83,49.1,178.5,55,180.93a9.43,9.43,0,0,1,4.56,3.33A4.88,4.88,0,0,1,58,190.7a5.81,5.81,0,0,1-3.35.62,6.73,6.73,0,0,1,1.55,1.41,4.47,4.47,0,0,1,.77,1.5,3.65,3.65,0,0,1,.12,1.54,5.48,5.48,0,0,1-.41,1.55,4.53,4.53,0,0,1-3.3,3,10,10,0,0,1-5.78-1Zm3.15-1,3.72,1.54a7.2,7.2,0,0,0,3.8.69,2.75,2.75,0,0,0,2.16-1.83,3.12,3.12,0,0,0,.19-2.12,3.74,3.74,0,0,0-1.16-1.7,7.69,7.69,0,0,0-2.1-1.25l-4-1.65Zm3.44-8.31,4,1.65a8,8,0,0,0,1.49.45,4.83,4.83,0,0,0,1.51.06,2.94,2.94,0,0,0,1.34-.52,2.72,2.72,0,0,0,1-1.29,2.81,2.81,0,0,0-.23-2.88,6.43,6.43,0,0,0-2.86-2.08l-3.67-1.51Z" transform="translate(-6.78)"/><path class="cls-1" d="M57,202.68l3.64-19.49,2.54.47L60,200.92l9.21,1.71-.41,2.24Z" transform="translate(-6.78)"/><path class="cls-1" d="M70.77,204.89l-.08-19.84,12.51,0v2.23l-9.94,0,0,6.47,9,0v2.22l-9,0,0,6.61H83.53v2.26Z" transform="translate(-6.78)"/><path class="cls-1" d="M95.68,202.71,89,184l6-2.15a9.39,9.39,0,0,1,5.61-.59,4.41,4.41,0,0,1,3,3,4.51,4.51,0,0,1,.14,2.82,5.8,5.8,0,0,1-2.07,2.7,7,7,0,0,1,2.1,0,4.51,4.51,0,0,1,1.58.59,4.08,4.08,0,0,1,1.12,1.07,6,6,0,0,1,.74,1.42,4.54,4.54,0,0,1-.46,4.42,9.93,9.93,0,0,1-4.93,3.17Zm-1.35-11.32,4.07-1.45a9.05,9.05,0,0,0,1.41-.66,4.52,4.52,0,0,0,1.15-1,3,3,0,0,0,.65-1.29,3.18,3.18,0,0,0-2.26-3.57,6.38,6.38,0,0,0-3.52.37l-3.73,1.34Zm3,8.48,3.78-1.36a7.05,7.05,0,0,0,3.29-2,2.76,2.76,0,0,0,.37-2.8,3.06,3.06,0,0,0-1.28-1.69,3.57,3.57,0,0,0-2-.49,7.75,7.75,0,0,0-2.4.48l-4.06,1.45Z" transform="translate(-6.78)"/><path class="cls-1" d="M118.09,192.58a8.6,8.6,0,0,1-4.45,1.62,7.73,7.73,0,0,1-4.42-1.16,12.85,12.85,0,0,1-4-3.92A13.2,13.2,0,0,1,103,184a7.92,7.92,0,0,1,.49-4.58,9.21,9.21,0,0,1,7.49-5.18,7.78,7.78,0,0,1,4.42,1.18,15.17,15.17,0,0,1,6.28,9.08,7.75,7.75,0,0,1-.46,4.53A8.54,8.54,0,0,1,118.09,192.58Zm-1.26-1.82a5.63,5.63,0,0,0,2.1-2.47,5.21,5.21,0,0,0,.15-3.25,12.7,12.7,0,0,0-2-4.08,12.85,12.85,0,0,0-3.15-3.35,5.31,5.31,0,0,0-3.12-1.05,5.43,5.43,0,0,0-5.27,6.86,12.64,12.64,0,0,0,2,4.13,12.34,12.34,0,0,0,3.12,3.3,5.3,5.3,0,0,0,3.13,1A5.54,5.54,0,0,0,116.83,190.76Z" transform="translate(-6.78)"/><path class="cls-1" d="M129.79,181.85l-13.4-11.26-4.12,4.91-1.78-1.5,9.65-11.49,1.79,1.5L118,168.64l13.39,11.26Z" transform="translate(-6.78)"/><path class="cls-1" d="M138.05,169.56l-15.67-7.8-2.86,5.73-2.08-1L124.13,153l2.08,1-2.69,5.41,15.66,7.81Z" transform="translate(-6.78)"/><path class="cls-1" d="M142.23,160.36,123,155.53l.63-2.51,17,4.26,2.27-9.09,2.21.56Z" transform="translate(-6.78)"/><path class="cls-1" d="M145.26,146.85l-19.79-1.24.78-12.49,2.23.16-.62,9.92,6.46.41.56-8.94,2.22.14-.56,8.95,6.6.41L143.8,134l2.26.14Z" transform="translate(-6.78)"/><path class="cls-1" d="M145.62,125.67a10.61,10.61,0,0,1-.15,2.78,8.24,8.24,0,0,1-.87,2.44,6.18,6.18,0,0,1-1.61,1.87,5.45,5.45,0,0,1-2.33,1l-.2-2.65a3.89,3.89,0,0,0,1.82-1.11,4.52,4.52,0,0,0,1-1.91,7.28,7.28,0,0,0,.21-2.41,6.7,6.7,0,0,0-.56-2.29,4.11,4.11,0,0,0-1.28-1.62,2.78,2.78,0,0,0-1.88-.51,2.46,2.46,0,0,0-1.83.9,5.49,5.49,0,0,0-1,2.45l-.76,4.15a8.8,8.8,0,0,1-.79,2.51,4.57,4.57,0,0,1-1.52,1.79,4.89,4.89,0,0,1-2.49.78,4.8,4.8,0,0,1-3-.72,6.1,6.1,0,0,1-2.13-2.38,9,9,0,0,1-1-3.56,8.65,8.65,0,0,1,.52-4,5.84,5.84,0,0,1,2-2.57,5.27,5.27,0,0,1,2.74-1l.19,2.6a3.6,3.6,0,0,0-3.1,2.7,6.63,6.63,0,0,0-.19,2.2,4.67,4.67,0,0,0,1.2,3.14,2.94,2.94,0,0,0,2.37.92,2.43,2.43,0,0,0,1.86-.91,5.54,5.54,0,0,0,.91-2.38l.74-4a7.59,7.59,0,0,1,1-2.9,4.74,4.74,0,0,1,1.7-1.64,5.43,5.43,0,0,1,2.21-.61,4.91,4.91,0,0,1,3,.7,6.17,6.17,0,0,1,2.2,2.42A9.34,9.34,0,0,1,145.62,125.67Z" transform="translate(-6.78)"/><path class="cls-1" d="M144.66,118.27l-3.2.44-.41-3,3.2-.44Z" transform="translate(-6.78)"/><path class="cls-1" d="M40.66,93.71V73.88H53l0,2.22H43.26v6.56H52v2.19H43.26v8.86Z" transform="translate(-6.78)"/><path class="cls-1" d="M53.11,93.71V73.88h2.54V93.71Z" transform="translate(-6.78)"/><path class="cls-1" d="M57.06,93.71l0-19.83h2.59V91.44H69v2.27Z" transform="translate(-6.78)"/><path class="cls-1" d="M69.07,93.71V73.88h2.59V91.44H81v2.27Z" transform="translate(-6.78)"/><path class="cls-1" d="M38.73,152.31V145.5a15.21,15.21,0,0,1,1.53-7,17.75,17.75,0,0,1,4-5.2,32.75,32.75,0,0,1,5.5-4c2-1.15,4-2.26,6-3.31a56.33,56.33,0,0,0,5.48-3.3,15.69,15.69,0,0,0,4-3.86,8.51,8.51,0,0,0,1.53-5.06,8,8,0,0,0-2.69-6.22,10.57,10.57,0,0,0-7.28-2.39,10.77,10.77,0,0,0-11.49,10.38H37.63a17.44,17.44,0,0,1,2.3-8.63,16.22,16.22,0,0,1,6.53-6.22,22.13,22.13,0,0,1,10.67-2.34,21.84,21.84,0,0,1,9.55,1.93,14.26,14.26,0,0,1,8.45,13.45,15.17,15.17,0,0,1-1.51,7,16.87,16.87,0,0,1-4,5.08,32.13,32.13,0,0,1-5.39,3.79q-2.94,1.67-5.89,3.13A52,52,0,0,0,53,135.88a15.24,15.24,0,0,0-4,3.7,8.15,8.15,0,0,0-1.51,5v.92H75.31v6.84Z" transform="translate(-6.78)"/><path class="cls-1" d="M95.66,153.12a28.53,28.53,0,0,1-10.82-1.89,16.51,16.51,0,0,1-7.19-5.34,13.14,13.14,0,0,1-2.56-8.08,12.14,12.14,0,0,1,1.55-5.91,15.8,15.8,0,0,1,4-4.76,11.74,11.74,0,0,1,5-2.47,15.36,15.36,0,0,1-5.89-4.47A11.1,11.1,0,0,1,77.41,113a13,13,0,0,1,2.41-8,15.14,15.14,0,0,1,6.55-5,26.25,26.25,0,0,1,18.64,0,15,15,0,0,1,6.51,5,13.06,13.06,0,0,1,2.4,8,11.3,11.3,0,0,1-2.3,7.19,14.85,14.85,0,0,1-5.91,4.47,11.6,11.6,0,0,1,5.06,2.47,16.1,16.1,0,0,1,4,4.76,11.94,11.94,0,0,1,1.57,5.91,13.14,13.14,0,0,1-2.56,8.08,16.57,16.57,0,0,1-7.19,5.34A28.82,28.82,0,0,1,95.66,153.12Zm0-6.22q5.59,0,8.89-2.52a8,8,0,0,0,3.29-6.68,8.36,8.36,0,0,0-1.49-4.91,9.77,9.77,0,0,0-4.21-3.37,15.81,15.81,0,0,0-6.48-1.21,15.58,15.58,0,0,0-6.4,1.21A9.86,9.86,0,0,0,85,132.79a8.43,8.43,0,0,0-1.49,4.91,8,8,0,0,0,3.3,6.68Q90.14,146.9,95.66,146.9Zm0-25.47a11.51,11.51,0,0,0,7.42-2.28,7.66,7.66,0,0,0,2.85-6.33,7.9,7.9,0,0,0-2.87-6.44,12.72,12.72,0,0,0-14.76,0,7.9,7.9,0,0,0-2.87,6.42,7.64,7.64,0,0,0,2.87,6.33A11.49,11.49,0,0,0,95.66,121.43Z" transform="translate(-6.78)"/></g><g id="D"><path class="cls-2" d="M132.48,106.33C120,50.08,76.36,2.5,76.36,2.5S29.94,53.17,19.15,111.74" transform="translate(-6.78)"/></g></g></svg>