<svg xmlns="http://www.w3.org/2000/svg" viewBox="0 0 493.01 367.63"><defs><style>.cls-1{fill:none;stroke:#eb3e94;stroke-linecap:round;stroke-linejoin:round;stroke-width:5px;}.cls-2{fill:#eb3e94;}</style></defs><title>Asset 26</title><g id="Layer_2" data-name="Layer 2"><g id="IMPACT"><path class="cls-1" d="M265.89,345.8a242.94,242.94,0,0,1,10.9,34.87S54,398.77,2.5,212c0,0,5-.62,13.58-1" transform="translate(0 -16.02)"/><path class="cls-1" d="M483.18,107.84c-7.15.53-15.26.34-21.78,1.42" transform="translate(0 -16.02)"/><path class="cls-1" d="M327.42,257.35a185.18,185.18,0,0,0,0,28.39c62.93.22,100.52-25.7,122.93-57.82" transform="translate(0 -16.02)"/><path class="cls-2" d="M339.64,251.5l-19.5-3.62,1.23-6.6a9.36,9.36,0,0,1,1.39-3.59,5.67,5.67,0,0,1,6.11-2.49,6.11,6.11,0,0,1,3.16,1.49,5.64,5.64,0,0,1,1.64,2.8,8.68,8.68,0,0,1,0,3.74l-.81,4.37,7.22,1.34Zm-8.84-4.28.8-4.33a4.79,4.79,0,0,0-.51-3.47,3.93,3.93,0,0,0-2.82-1.82,3.55,3.55,0,0,0-3.18.75,5.48,5.48,0,0,0-1.62,3.16l-.78,4.2Z" transform="translate(0 -16.02)"/><path class="cls-2" d="M342.59,236.19,323.44,231l2-7.41a8.62,8.62,0,0,1,1.56-3.29,4.58,4.58,0,0,1,2.36-1.6,6.46,6.46,0,0,1,5.43,1.31,5.18,5.18,0,0,1,1.29,1.85,7.56,7.56,0,0,1,.5,2l9.7-1.42-.7,2.59-9.19,1.28L335,231.52l8.25,2.22ZM333,231l1.12-4.17a5.73,5.73,0,0,0,0-3.58,3.66,3.66,0,0,0-5.11-1.51,4.65,4.65,0,0,0-1.61,2.66l-1.28,4.75Z" transform="translate(0 -16.02)"/><path class="cls-2" d="M349.8,213.42a8.52,8.52,0,0,1-2.71,3.89,7.77,7.77,0,0,1-4.28,1.59,14.94,14.94,0,0,1-10.34-3.83,7.88,7.88,0,0,1-2.24-4,8.58,8.58,0,0,1,.45-4.7,8.39,8.39,0,0,1,2.71-3.85,7.76,7.76,0,0,1,4.29-1.57A15.11,15.11,0,0,1,348,204.75a7.71,7.71,0,0,1,2.22,4A8.42,8.42,0,0,1,349.8,213.42Zm-2.07-.76a5.73,5.73,0,0,0,.3-3.23,5.22,5.22,0,0,0-1.75-2.74,15.36,15.36,0,0,0-8.48-3.13,5.36,5.36,0,0,0-3.16.94,5.48,5.48,0,0,0-1.89,2.62,5.65,5.65,0,0,0-.27,3.22,5.43,5.43,0,0,0,1.79,2.79,12.45,12.45,0,0,0,4,2.24,12.32,12.32,0,0,0,4.45.9,5.32,5.32,0,0,0,3.12-1A5.62,5.62,0,0,0,347.73,212.66Z" transform="translate(0 -16.02)"/><path class="cls-2" d="M355.61,198.94l-20.92-2.39,1.11-2.25,17.89,2-12.54-12.91,1.1-2.26L357,196.19Z" transform="translate(0 -16.02)"/><path class="cls-2" d="M361,188.73l-17.12-10,1.28-2.19,17.12,10Z" transform="translate(0 -16.02)"/><path class="cls-2" d="M363.86,183.58l-16.28-11.32c0-.06.15-.21.33-.48s.42-.59.68-1,.54-.79.83-1.2l.81-1.12a13.75,13.75,0,0,1,4.35-4.18,7.16,7.16,0,0,1,4.6-.87,12,12,0,0,1,5,2.15,12.11,12.11,0,0,1,3.88,4.1,7.44,7.44,0,0,1,.78,4.79,13.44,13.44,0,0,1-2.46,5.53Zm-.3-3.39,1-1.43a10.57,10.57,0,0,0,1.79-3.9,5.52,5.52,0,0,0-.48-3.65,9.58,9.58,0,0,0-3.22-3.4,9.39,9.39,0,0,0-4.25-1.83,5.28,5.28,0,0,0-3.49.83,11.06,11.06,0,0,0-3,3l-1.06,1.52Z" transform="translate(0 -16.02)"/><path class="cls-2" d="M373.63,169.92,358.76,156.8l8.27-9.38,1.67,1.49-6.58,7.45,4.86,4.29,5.92-6.72,1.67,1.47-5.94,6.73,5,4.37,6.79-7.65,1.7,1.49Z" transform="translate(0 -16.02)"/><path class="cls-2" d="M387.33,155.35l-12.73-15.2,9.47-7.94,1.41,1.71L378,140.18l4.21,5,6.71-5.62,1.41,1.68-6.71,5.62,5.69,6.79Z" transform="translate(0 -16.02)"/><path class="cls-2" d="M398.17,146.41l-10.89-16.57,6.42-4.22a8.51,8.51,0,0,1,3.35-1.42,4.59,4.59,0,0,1,2.82.37,5.72,5.72,0,0,1,2.19,2,5.63,5.63,0,0,1,1,2.56,5,5,0,0,1-.26,2.23,7.66,7.66,0,0,1-1,1.84l8.19,5.38-2.24,1.48L400.06,135l-4.46,2.93,4.69,7.14Zm-3.72-10.29,3.61-2.37a5.73,5.73,0,0,0,2.39-2.66,3.17,3.17,0,0,0-.47-2.93,3.13,3.13,0,0,0-2.35-1.59,4.65,4.65,0,0,0-3,.91l-4.11,2.71Z" transform="translate(0 -16.02)"/><path class="cls-2" d="M412,137.63,403,119.92l11.17-5.63,1,2-8.88,4.48,2.91,5.78,8-4,1,2-8,4,3,5.9,9.15-4.58,1,2Z" transform="translate(0 -16.02)"/><path class="cls-2" d="M431.69,128.94a10.82,10.82,0,0,1-2.7.65,8,8,0,0,1-2.59-.15,6.19,6.19,0,0,1-2.25-1,5.61,5.61,0,0,1-1.67-2l2.49-.94a3.88,3.88,0,0,0,1.59,1.43,4.61,4.61,0,0,0,2.11.43,7.47,7.47,0,0,0,2.38-.48,6.69,6.69,0,0,0,2-1.2,4,4,0,0,0,1.19-1.68,2.76,2.76,0,0,0,0-1.94,2.49,2.49,0,0,0-1.39-1.51,5.66,5.66,0,0,0-2.63-.25l-4.2.46a9.19,9.19,0,0,1-2.63,0,4.59,4.59,0,0,1-2.14-1,5.34,5.34,0,0,1-1.63-5.24,6.14,6.14,0,0,1,1.68-2.72,8.86,8.86,0,0,1,3.14-1.92,8.58,8.58,0,0,1,4-.63,5.85,5.85,0,0,1,3,1.13,5.24,5.24,0,0,1,1.76,2.34l-2.44.92a3.87,3.87,0,0,0-1.51-1.72,3.68,3.68,0,0,0-2-.48,6.5,6.5,0,0,0-2.16.44,4.69,4.69,0,0,0-2.67,2,3,3,0,0,0-.21,2.54,2.48,2.48,0,0,0,1.41,1.52,5.43,5.43,0,0,0,2.54.2l4.08-.44a7.58,7.58,0,0,1,3.06.12,4.55,4.55,0,0,1,2.05,1.17,5.34,5.34,0,0,1,1.22,1.93,4.91,4.91,0,0,1,.18,3.07,6.07,6.07,0,0,1-1.69,2.8A9.44,9.44,0,0,1,431.69,128.94Z" transform="translate(0 -16.02)"/><path class="cls-2" d="M440.39,125.48l-5-19.2,2.46-.64,2.12,8.18,10.36-2.69L448.21,103l2.46-.63,5,19.19-2.46.64-2.3-8.85L440.54,116l2.3,8.85Z" transform="translate(0 -16.02)"/><path class="cls-2" d="M28.74,220.51l-7.18-19.79,2.51,0,6.17,16.92,6-17,2.51,0L31.79,220.5Z" transform="translate(0 -16.02)"/><path class="cls-2" d="M40.56,220.55l.81-19.82,12.5.52-.1,2.23-9.94-.41-.26,6.47,8.94.37-.09,2.22-9-.37-.27,6.61,10.22.44-.09,2.26Z" transform="translate(0 -16.02)"/><path class="cls-2" d="M63.21,222.16a8.3,8.3,0,0,1-4.38-1.6,7.69,7.69,0,0,1-2.58-3.71,13.31,13.31,0,0,1-.53-5.54,13.52,13.52,0,0,1,1.53-5.41,7.8,7.8,0,0,1,3.26-3.23,8.28,8.28,0,0,1,4.63-.8,7.65,7.65,0,0,1,6.38,4.58A5.85,5.85,0,0,1,72,208.9l-2.71-.24a5.1,5.1,0,0,0-2.19-3.77,4.44,4.44,0,0,0-2.21-.77,5.09,5.09,0,0,0-5.31,3,12,12,0,0,0-1.12,4.42,13,13,0,0,0,.11,3.65,6.76,6.76,0,0,0,1,2.54,4.79,4.79,0,0,0,1.72,1.55,6,6,0,0,0,2.25.65,5.17,5.17,0,0,0,2.2-.24,4.89,4.89,0,0,0,1.64-1,5.36,5.36,0,0,0,1.08-1.41,4.82,4.82,0,0,0,.5-1.5l.24-1.74-4.81-.43.17-1.86,7.43.68-.91,10.19-1.9-.17.27-3A7.56,7.56,0,0,1,68,220.89a6,6,0,0,1-2,1.05A7.31,7.31,0,0,1,63.21,222.16Z" transform="translate(0 -16.02)"/><path class="cls-2" d="M81.55,224.3a8.16,8.16,0,0,1-4.28-1.84,7.62,7.62,0,0,1-2.38-3.84,15.24,15.24,0,0,1,1.6-10.88,7.77,7.77,0,0,1,3.43-3.05,8.37,8.37,0,0,1,4.66-.55,7.7,7.7,0,0,1,2.71.92,7.78,7.78,0,0,1,2.1,1.75,7.2,7.2,0,0,1,1.32,2.26,5.85,5.85,0,0,1,.34,2.47l-2.69-.39a5.15,5.15,0,0,0-2-3.88,4.44,4.44,0,0,0-2.16-.89,5.09,5.09,0,0,0-5.47,2.67,12,12,0,0,0-1.36,4.35,12.91,12.91,0,0,0-.08,3.64,6.53,6.53,0,0,0,.86,2.6,4.83,4.83,0,0,0,1.63,1.64,5.88,5.88,0,0,0,2.21.77,5.07,5.07,0,0,0,2.22-.12,4.81,4.81,0,0,0,1.69-.9,5.39,5.39,0,0,0,1.15-1.34,4.92,4.92,0,0,0,.59-1.48l.33-1.72-4.78-.7.27-1.84L90.86,215l-1.47,10.12-1.89-.27.44-3a8,8,0,0,1-1.54,1.4,6.14,6.14,0,0,1-2.09.93A7.18,7.18,0,0,1,81.55,224.3Z" transform="translate(0 -16.02)"/><path class="cls-2" d="M92.77,225.84l3.61-19.5,2.49.46-3.61,19.51Z" transform="translate(0 -16.02)"/><path class="cls-2" d="M99,227l4.3-19.36,12.21,2.71-.49,2.18-9.71-2.16-1.41,6.32,8.74,2-.48,2.17-8.75-1.95L102,225.29l10,2.25-.49,2.21Z" transform="translate(0 -16.02)"/><path class="cls-2" d="M120.35,232.47a10.32,10.32,0,0,1-2.56-1.08,8,8,0,0,1-2-1.65,6,6,0,0,1-1.22-2.15,5.55,5.55,0,0,1-.19-2.55l2.56.72a4,4,0,0,0,.43,2.09,4.69,4.69,0,0,0,1.45,1.6,7.31,7.31,0,0,0,2.2,1,6.59,6.59,0,0,0,2.34.25,4.11,4.11,0,0,0,2-.65,2.83,2.83,0,0,0,1.12-1.59,2.51,2.51,0,0,0-.23-2,5.6,5.6,0,0,0-2-1.76l-3.64-2.12a9.22,9.22,0,0,1-2.1-1.6,4.64,4.64,0,0,1-1.16-2,5,5,0,0,1,.11-2.61,4.84,4.84,0,0,1,1.7-2.57,6.08,6.08,0,0,1,3-1.2,9,9,0,0,1,3.67.32,8.68,8.68,0,0,1,3.56,1.84,5.92,5.92,0,0,1,1.76,2.71,5.22,5.22,0,0,1,0,2.93l-2.51-.71a3.92,3.92,0,0,0-.19-2.28,3.76,3.76,0,0,0-1.3-1.55,6.45,6.45,0,0,0-2-.93,4.7,4.7,0,0,0-3.36.06,3,3,0,0,0-1.67,1.91,2.43,2.43,0,0,0,.23,2.06,5.32,5.32,0,0,0,1.92,1.67l3.55,2.07a7.65,7.65,0,0,1,2.39,1.91,4.68,4.68,0,0,1,1,2.16A5.44,5.44,0,0,1,129,229a4.85,4.85,0,0,1-1.68,2.57,6.1,6.1,0,0,1-3,1.25A9.45,9.45,0,0,1,120.35,232.47Z" transform="translate(0 -16.02)"/><path class="cls-2" d="M141.75,239.51a8.19,8.19,0,0,1-3.78-2.72,7.73,7.73,0,0,1-1.49-4.26,15.24,15.24,0,0,1,3.92-10.28,7.74,7.74,0,0,1,4-2.23,8.25,8.25,0,0,1,4.68.47,7.53,7.53,0,0,1,2.44,1.48,7.88,7.88,0,0,1,1.68,2.16,7.43,7.43,0,0,1,.79,2.5,5.75,5.75,0,0,1-.2,2.48l-2.54-1a5.14,5.14,0,0,0-1.09-4.22,4.57,4.57,0,0,0-1.92-1.34,5.43,5.43,0,0,0-3.11-.28,5.36,5.36,0,0,0-2.81,1.71,11.84,11.84,0,0,0-2.26,3.95,13.41,13.41,0,0,0-.88,3.54,6.66,6.66,0,0,0,.28,2.72,4.91,4.91,0,0,0,1.24,2,5.86,5.86,0,0,0,2,1.23,5.19,5.19,0,0,0,2.19.36,4.88,4.88,0,0,0,3.26-1.58,4.61,4.61,0,0,0,.89-1.31l.7-1.61-4.51-1.71.66-1.75,7,2.66-3.62,9.57-1.79-.68,1.07-2.82a7.49,7.49,0,0,1-1.8,1,6,6,0,0,1-2.24.46A7.31,7.31,0,0,1,141.75,239.51Z" transform="translate(0 -16.02)"/><path class="cls-2" d="M152.08,243.28l8.37-18,7,3.24a8.7,8.7,0,0,1,3,2.1,4.67,4.67,0,0,1,1.16,2.6,6.46,6.46,0,0,1-2.23,5.13,5,5,0,0,1-2,1,7.37,7.37,0,0,1-2.08.14l-.27,9.8-2.43-1.13.32-9.28L158,236.61l-3.61,7.75Zm6.79-8.57,3.92,1.82a5.74,5.74,0,0,0,3.52.64,3.66,3.66,0,0,0,2.37-4.78,4.69,4.69,0,0,0-2.34-2l-4.47-2.08Z" transform="translate(0 -16.02)"/><path class="cls-2" d="M173.41,254.28A8.56,8.56,0,0,1,170,251a7.75,7.75,0,0,1-.89-4.48,14.89,14.89,0,0,1,5.44-9.59,7.82,7.82,0,0,1,4.33-1.56,9.2,9.2,0,0,1,7.93,4.48,7.77,7.77,0,0,1,.86,4.49,15.18,15.18,0,0,1-5.43,9.61,7.72,7.72,0,0,1-4.28,1.56A8.51,8.51,0,0,1,173.41,254.28Zm1.09-1.92a5.68,5.68,0,0,0,3.14.81,5.17,5.17,0,0,0,3-1.29,12.57,12.57,0,0,0,2.8-3.56,12.92,12.92,0,0,0,1.65-4.3,5.06,5.06,0,0,0-2.71-5.56,5.55,5.55,0,0,0-3.13-.78,5.38,5.38,0,0,0-3.05,1.32,12.56,12.56,0,0,0-2.85,3.6,12.4,12.4,0,0,0-1.6,4.25,5.28,5.28,0,0,0,.46,3.24A5.71,5.71,0,0,0,174.5,252.36Z" transform="translate(0 -16.02)"/><path class="cls-2" d="M185.76,261.39l6.86-19.46,2.09,1.49-5.59,15.4,12.81-10.26,1.61,1.16L198,265.16l12.81-10.26,2.07,1.48-16.23,12.79-1.91-1.36,5.39-15.05-12.52,10Z" transform="translate(0 -16.02)"/><path class="cls-2" d="M202.05,273.4l13.26-14.76,1.8,1.63-2.51,18.47,10.31-11.47,1.89,1.7-13.26,14.75-1.68-1.51,2.53-18.75-10.45,11.63Z" transform="translate(0 -16.02)"/><path class="cls-2" d="M213.53,285.35l19.81-9.54,1.37,1.42-19.82,9.53Z" transform="translate(0 -16.02)"/><path class="cls-2" d="M224.21,295.33l6.45-5.46L235,277.35l1.79,2.11-3.55,9.92,10.31-1.95,1.8,2.13-13,2.24-6.43,5.45Z" transform="translate(0 -16.02)"/><path class="cls-2" d="M230.76,303.26l16.13-11.55,7.28,10.18-1.83,1.29-5.79-8.09-5.26,3.77,5.21,7.28-1.8,1.29-5.22-7.29L234.1,304l5.93,8.33-1.84,1.32Z" transform="translate(0 -16.02)"/><path class="cls-2" d="M238.48,314,259.2,310l1.47,2.47-13.39,16.3L246,326.54l3.67-4.44-4.16-7-5.66,1.08Zm9.34.53,3.46,5.82,6.52-7.8Z" transform="translate(0 -16.02)"/><path class="cls-2" d="M248.05,330.39l17.86-8.61,3.34,6.92a8.61,8.61,0,0,1,1,3.51,4.59,4.59,0,0,1-.74,2.75,5.52,5.52,0,0,1-2.31,1.9,5.68,5.68,0,0,1-2.66.66,5.13,5.13,0,0,1-2.18-.56,7.13,7.13,0,0,1-1.7-1.21l-6.42,7.42L253,340.75l6.13-7L256.85,329l-7.7,3.71Zm10.69-2.33,1.87,3.89a5.73,5.73,0,0,0,2.32,2.72,3.17,3.17,0,0,0,3-.08,3.12,3.12,0,0,0,1.89-2.12,4.69,4.69,0,0,0-.52-3.06L265.14,325Z" transform="translate(0 -16.02)"/><path class="cls-2" d="M40.83,263.51l1.48-2.81.77-1.45a10.23,10.23,0,0,1,3.07-3.68,11.46,11.46,0,0,1,4-1.79,21.78,21.78,0,0,1,4.45-.6c1.53-.05,3-.07,4.51-.06a40.16,40.16,0,0,0,4.19-.17,10.28,10.28,0,0,0,3.5-.9,5.15,5.15,0,0,0,2.39-2.34,5,5,0,0,0,.33-4.23A6.53,6.53,0,0,0,66.17,242a7,7,0,0,0-9.59,2.47l-5.11-2.7a12.14,12.14,0,0,1,4.11-4.49,10.77,10.77,0,0,1,5.89-1.67,15.27,15.27,0,0,1,7.2,2,15.22,15.22,0,0,1,5.18,4.21,10.12,10.12,0,0,1,2.06,5.21,9.9,9.9,0,0,1-1.2,5.52,10.19,10.19,0,0,1-3,3.65A11.07,11.07,0,0,1,67.79,258a21.09,21.09,0,0,1-4.31.53c-1.49,0-2.95,0-4.39,0a36.21,36.21,0,0,0-4.07.07,9.6,9.6,0,0,0-3.39.82,5,5,0,0,0-2.32,2.29l-.24.45,16.2,8.54-2.37,4.5Z" transform="translate(0 -16.02)"/><path class="cls-2" d="M78.29,283.86a13,13,0,0,1-5.62-5.39,13.78,13.78,0,0,1-1.45-7.66,23.65,23.65,0,0,1,2.85-9.05,26.88,26.88,0,0,1,6.15-8,14.36,14.36,0,0,1,7.38-3.48,13.08,13.08,0,0,1,8,1.6,14.32,14.32,0,0,1,4.59,3.73,11.07,11.07,0,0,1,2.31,5,9.79,9.79,0,0,1-.67,5.59l-4.87-2.56a6.92,6.92,0,0,0-.37-4.34,6.64,6.64,0,0,0-3.11-3.11,7,7,0,0,0-4.9-.79A8.94,8.94,0,0,0,84,258.12a21.38,21.38,0,0,0-3.77,6,7.9,7.9,0,0,1,3-1.26,9.62,9.62,0,0,1,3.39-.08A10.48,10.48,0,0,1,90,263.94,13.69,13.69,0,0,1,94.88,268a10.1,10.1,0,0,1,1.9,5.31,11.12,11.12,0,0,1-1.41,5.87A12,12,0,0,1,91,284a11.4,11.4,0,0,1-6,1.69A14.11,14.11,0,0,1,78.29,283.86Zm2-4.2a6.55,6.55,0,0,0,6.78-.29,7.57,7.57,0,0,0,2.52-2.88,7.33,7.33,0,0,0,1-3.61,5.41,5.41,0,0,0-1-3.1,7.87,7.87,0,0,0-2.81-2.35,7.2,7.2,0,0,0-3.25-.84,7.35,7.35,0,0,0-3.21.58,4.22,4.22,0,0,0-2.12,1.9,10.29,10.29,0,0,0-1.32,4.28,6.82,6.82,0,0,0,.77,3.71A6.37,6.37,0,0,0,80.34,279.66Z" transform="translate(0 -16.02)"/><path class="cls-2" d="M107.56,298.68l3.93-7.41L96.93,283.6l2.36-4.48,24.62-11.79,5.24,2.76-10.22,19.38,5,2.64-2.36,4.47-5-2.63-3.91,7.42Zm-3.34-17,9.59,5,6.77-12.85Z" transform="translate(0 -16.02)"/><path class="cls-2" d="M117,311l5.45-4.35-2-1.23,2.91-5.52,5.75,3-2.54,4.83-7.47,4.36Z" transform="translate(0 -16.02)"/><path class="cls-2" d="M141.86,317.37a11.44,11.44,0,0,1-6.38-8.59q-1-5.73,3.17-13.56a27.58,27.58,0,0,1,6.11-8.13,13.43,13.43,0,0,1,6.92-3.32,11.81,11.81,0,0,1,7.17,1.42,11.42,11.42,0,0,1,6.32,8.59q.95,5.78-3.21,13.67t-9.41,10.32A11.43,11.43,0,0,1,141.86,317.37Zm2.33-4.38a5.51,5.51,0,0,0,6-.31q2.93-1.92,6.2-8.15t3.3-9.93a5.51,5.51,0,0,0-3.08-5.16,5.58,5.58,0,0,0-6.05.38q-3,2-6.35,8.29T141,307.85A5.62,5.62,0,0,0,144.19,313Z" transform="translate(0 -16.02)"/><path class="cls-2" d="M167.8,331a11.44,11.44,0,0,1-6.38-8.59q-1-5.71,3.17-13.55a27.58,27.58,0,0,1,6.11-8.13,13.28,13.28,0,0,1,6.92-3.32,11.81,11.81,0,0,1,7.17,1.41,11.44,11.44,0,0,1,6.32,8.6q.94,5.76-3.21,13.66t-9.41,10.32A11.43,11.43,0,0,1,167.8,331Zm2.33-4.38a5.51,5.51,0,0,0,6-.31q2.93-1.92,6.2-8.15t3.3-9.92a5.52,5.52,0,0,0-3.08-5.17,5.6,5.6,0,0,0-6.05.38q-3,2-6.35,8.29T167,321.52A5.61,5.61,0,0,0,170.13,326.66Z" transform="translate(0 -16.02)"/><path class="cls-2" d="M193.74,344.72a11.44,11.44,0,0,1-6.38-8.59q-1-5.73,3.18-13.56a27.24,27.24,0,0,1,6.11-8.13,13.21,13.21,0,0,1,6.91-3.32,11.88,11.88,0,0,1,7.17,1.41,11.44,11.44,0,0,1,6.32,8.6q.94,5.78-3.21,13.67t-9.41,10.32A11.46,11.46,0,0,1,193.74,344.72Zm2.33-4.39a5.5,5.5,0,0,0,6-.3q2.93-1.92,6.21-8.15t3.29-9.93a5.52,5.52,0,0,0-3.08-5.17,5.62,5.62,0,0,0-6.05.38q-3,2-6.35,8.3t-3.15,9.74A5.61,5.61,0,0,0,196.07,340.33Z" transform="translate(0 -16.02)"/><path class="cls-2" d="M99.16,34.81,108.75,16l2.84.36,4.67,20.56-2.58-.32L112.42,31l-8.07-1-2.61,5.13Zm6.15-7,6.71.83-2.16-9.93Z" transform="translate(0 -16.02)"/><path class="cls-2" d="M117.71,37.25l3.67-19.49,6.27,1.18a9.45,9.45,0,0,1,5.14,2.33,4.43,4.43,0,0,1,1.11,4.11,4.47,4.47,0,0,1-1.3,2.51,5.83,5.83,0,0,1-3.15,1.29,6.68,6.68,0,0,1,1.8,1.06,4.61,4.61,0,0,1,1.07,1.31,4.12,4.12,0,0,1,.43,1.49,5.81,5.81,0,0,1-.09,1.6A4.54,4.54,0,0,1,130,38.23a10.08,10.08,0,0,1-5.86.24Zm2.89-1.6,3.94.74a7.18,7.18,0,0,0,3.87-.1,2.76,2.76,0,0,0,1.74-2.23A3.13,3.13,0,0,0,129.9,32a3.68,3.68,0,0,0-1.49-1.43,7.7,7.7,0,0,0-2.3-.8l-4.25-.8Zm1.66-8.84,4.25.8a8,8,0,0,0,1.55.13,4.26,4.26,0,0,0,1.48-.25,2.94,2.94,0,0,0,1.21-.78,2.88,2.88,0,0,0,.68-1.46,2.82,2.82,0,0,0-.82-2.77A6.37,6.37,0,0,0,127.38,21l-3.89-.74Z" transform="translate(0 -16.02)"/><path class="cls-2" d="M133.65,40.37l4.67-19.28,2.52.61-4.13,17.07,9.11,2.2-.53,2.21Z" transform="translate(0 -16.02)"/><path class="cls-2" d="M147,43.65l5.6-19,12,3.53-.65,2.14-9.54-2.8-1.82,6.21,8.59,2.53-.63,2.13-8.6-2.54L150,42.17l9.81,2.91-.64,2.17Z" transform="translate(0 -16.02)"/><path class="cls-2" d="M169.91,51,176,34.62l-6-2.24.82-2.18,14.06,5.24-.82,2.19-5.67-2.12-6.11,16.4Z" transform="translate(0 -16.02)"/><path class="cls-2" d="M185.36,57.59a8.53,8.53,0,0,1-3.69-3,7.75,7.75,0,0,1-1.32-4.38,13.19,13.19,0,0,1,1.28-5.45,12.94,12.94,0,0,1,3.22-4.62,7.84,7.84,0,0,1,4.16-2,9.25,9.25,0,0,1,8.32,3.71,7.69,7.69,0,0,1,1.29,4.38,13.19,13.19,0,0,1-1.31,5.5,13.05,13.05,0,0,1-3.18,4.59,7.71,7.71,0,0,1-4.11,2A8.45,8.45,0,0,1,185.36,57.59Zm.9-2a5.62,5.62,0,0,0,3.2.51,5.22,5.22,0,0,0,2.85-1.56,12.66,12.66,0,0,0,2.45-3.82A13,13,0,0,0,196,46.26,5,5,0,0,0,192.76,41a5.09,5.09,0,0,0-6.1,1.13A12.5,12.5,0,0,0,184.17,46,12.2,12.2,0,0,0,183,50.36a5.24,5.24,0,0,0,.77,3.18A5.6,5.6,0,0,0,186.26,55.57Z" transform="translate(0 -16.02)"/><path class="cls-2" d="M199.11,63.88l9.7-17.3,10.78,6.05-1.1,1.93L210,49.8l-3.21,5.71,7.63,4.29-1.07,1.91-7.63-4.28-4.34,7.72Z" transform="translate(0 -16.02)"/><path class="cls-2" d="M211.37,71l10.54-16.8,2.14,1.35-10.53,16.8Z" transform="translate(0 -16.02)"/><path class="cls-2" d="M216.15,73.93l11.38-16.24,2.13,1.48L219.59,73.56l7.68,5.37L226,80.79Z" transform="translate(0 -16.02)"/><path class="cls-2" d="M227.12,81.72l12.56-15.35,2,1.65L230.57,81.61l7.26,5.93-1.45,1.76Z" transform="translate(0 -16.02)"/><path class="cls-1" d="M159.41,184.56C125.66,153,99.91,107.39,100.33,41.49" transform="translate(0 -16.02)"/><path class="cls-2" d="M465.71,222.25,445,218.61l1.24-2.18L464,219.5l-11.75-13.65,1.23-2.18,13.78,15.92Z" transform="translate(0 -16.02)"/><path class="cls-2" d="M472,210.55l-18.14-8,5-11.44,2,.92-4,9.09,5.92,2.62,3.62-8.19,2,.89-3.63,8.21,6.05,2.67,4.16-9.35,2.07.92Z" transform="translate(0 -16.02)"/><path class="cls-2" d="M481.2,188.25a8.17,8.17,0,0,1-2.57,3.88,7.6,7.6,0,0,1-4.2,1.66,13.21,13.21,0,0,1-5.52-.77,13.47,13.47,0,0,1-4.91-2.74,7.8,7.8,0,0,1-2.38-3.91,8.27,8.27,0,0,1,.29-4.69,7.66,7.66,0,0,1,1.38-2.51,7.78,7.78,0,0,1,2.1-1.75,7.22,7.22,0,0,1,2.46-.89,5.8,5.8,0,0,1,2.49.1l-.87,2.57a5.14,5.14,0,0,0-2.2.16,5,5,0,0,0-2,1.1,4.65,4.65,0,0,0-1.26,2,5.12,5.12,0,0,0,1.66,5.86,11.83,11.83,0,0,0,4,2.11,12.94,12.94,0,0,0,3.58.73,6.69,6.69,0,0,0,2.71-.38,4.86,4.86,0,0,0,1.9-1.32,5.84,5.84,0,0,0,1.15-2,5,5,0,0,0,.28-2.2,4.88,4.88,0,0,0-.59-1.82,5.38,5.38,0,0,0-1.11-1.37,4.7,4.7,0,0,0-1.35-.84l-1.64-.64-1.53,4.58-1.77-.59,2.38-7.07,9.7,3.24-.6,1.81-2.86-1a8.34,8.34,0,0,1,1.1,1.76,6.14,6.14,0,0,1,.54,2.23A7.34,7.34,0,0,1,481.2,188.25Z" transform="translate(0 -16.02)"/><path class="cls-2" d="M486.67,169.1a8.25,8.25,0,0,1-2.21,4.1,7.73,7.73,0,0,1-4,2,13.23,13.23,0,0,1-5.56-.28,13.47,13.47,0,0,1-5.14-2.28A7.9,7.9,0,0,1,467,169a8.28,8.28,0,0,1-.13-4.7,7.35,7.35,0,0,1,1.16-2.61,7.7,7.7,0,0,1,1.92-1.94,7.53,7.53,0,0,1,2.37-1.11,5.84,5.84,0,0,1,2.49-.12l-.63,2.64a5.14,5.14,0,0,0-2.18.36,4.87,4.87,0,0,0-1.86,1.27,4.43,4.43,0,0,0-1.08,2.07,5.12,5.12,0,0,0,2.17,5.69,11.89,11.89,0,0,0,4.21,1.74,13,13,0,0,0,3.63.41,6.55,6.55,0,0,0,2.66-.63,4.69,4.69,0,0,0,1.78-1.48,5.91,5.91,0,0,0,1-2.13,4.92,4.92,0,0,0,.08-2.21,4.85,4.85,0,0,0-.74-1.77,5.31,5.31,0,0,0-1.24-1.26,4.72,4.72,0,0,0-1.41-.72l-1.69-.49-1.12,4.7-1.82-.43,1.75-7.26,10,2.37-.44,1.85-2.94-.69a8.16,8.16,0,0,1,1.26,1.65,6.19,6.19,0,0,1,.74,2.17A7.43,7.43,0,0,1,486.67,169.1Z" transform="translate(0 -16.02)"/><path class="cls-2" d="M489,157l-19.52-3.52.45-2.5,19.52,3.52Z" transform="translate(0 -16.02)"/><path class="cls-2" d="M490.22,150l-19.66-2.62,1.65-12.4,2.21.31-1.31,9.86,6.42.85,1.18-8.88,2.2.3-1.18,8.89,6.55.87L489.66,137l2.24.3Z" transform="translate(0 -16.02)"/><path class="cls-2" d="M493,126.86a10.41,10.41,0,0,1-.53,2.73,8.19,8.19,0,0,1-1.2,2.29,6.16,6.16,0,0,1-1.85,1.64,5.44,5.44,0,0,1-2.45.71l.17-2.65a3.86,3.86,0,0,0,1.95-.86,4.59,4.59,0,0,0,1.27-1.74,7.35,7.35,0,0,0,.54-2.37,6.61,6.61,0,0,0-.25-2.34,4,4,0,0,0-1-1.78,2.79,2.79,0,0,0-1.79-.77,2.48,2.48,0,0,0-1.94.65,5.62,5.62,0,0,0-1.32,2.29l-1.31,4a9.21,9.21,0,0,1-1.13,2.38,4.6,4.6,0,0,1-1.75,1.56,5,5,0,0,1-2.58.43,4.77,4.77,0,0,1-2.87-1.12,6.1,6.1,0,0,1-1.78-2.65,9,9,0,0,1-.46-3.65,8.74,8.74,0,0,1,1.06-3.87,5.94,5.94,0,0,1,2.28-2.28,5.27,5.27,0,0,1,2.86-.64l-.17,2.6a3.87,3.87,0,0,0-2.19.67,3.76,3.76,0,0,0-1.25,1.58,7,7,0,0,0-.49,2.16,4.7,4.7,0,0,0,.76,3.27,3,3,0,0,0,2.22,1.24,2.47,2.47,0,0,0,2-.66,5.37,5.37,0,0,0,1.23-2.23l1.28-3.9a7.58,7.58,0,0,1,1.38-2.73,4.5,4.5,0,0,1,1.91-1.39,5.35,5.35,0,0,1,2.27-.31,5,5,0,0,1,2.87,1.1,6.24,6.24,0,0,1,1.85,2.7A9.41,9.41,0,0,1,493,126.86Z" transform="translate(0 -16.02)"/><path class="cls-1" d="M283.35,237.89c-40.36,2.38-80.69-11.73-123.94-53.33" transform="translate(0 -16.02)"/><path class="cls-2" d="M131.44,95.8,150,75.87l-4.79-4.47,2.42-2.59a18.64,18.64,0,0,0,4,3,5.29,5.29,0,0,0,3,.68A4.44,4.44,0,0,0,157,71.3l3,2.77L135.88,99.93Z" transform="translate(0 -16.02)"/><path class="cls-2" d="M141.42,105.11l2.17-2.33,1.12-1.2a10.13,10.13,0,0,1,3.93-2.74,11.37,11.37,0,0,1,4.29-.69,22,22,0,0,1,4.45.58c1.49.36,2.94.73,4.37,1.13a38.93,38.93,0,0,0,4.09.94,10.47,10.47,0,0,0,3.61,0,5.11,5.11,0,0,0,2.91-1.64,5,5,0,0,0,1.44-4A6.52,6.52,0,0,0,171.51,91a7.31,7.31,0,0,0-4.84-2.15,7.45,7.45,0,0,0-5.07,2L157.38,87a12.24,12.24,0,0,1,5.15-3.26,10.86,10.86,0,0,1,6.12-.07,15.46,15.46,0,0,1,6.42,3.84A15.08,15.08,0,0,1,179,92.88a10,10,0,0,1,.63,5.56,9.86,9.86,0,0,1-2.61,5,10.09,10.09,0,0,1-3.9,2.72,11.09,11.09,0,0,1-4.19.66,20.66,20.66,0,0,1-4.3-.62c-1.44-.36-2.85-.75-4.22-1.18a38.15,38.15,0,0,0-4-1,9.63,9.63,0,0,0-3.49-.1,5,5,0,0,0-2.84,1.6l-.35.38,13.4,12.49-3.47,3.72Z" transform="translate(0 -16.02)"/><path class="cls-2" d="M181.64,112.13l8.87-9.52,6.09,5.67-1.14,1.21-4.64-4.33-2.74,2.94L192.2,112l-1.11,1.2L187,109.3l-3.89,4.17Z" transform="translate(0 -16.02)"/><path class="cls-2" d="M192.83,122.81a5.74,5.74,0,0,1-1.7-2.66,5.12,5.12,0,0,1,.09-3,9.7,9.7,0,0,1,4.93-5.28,5.24,5.24,0,0,1,3-.31A5.73,5.73,0,0,1,202,113a5.65,5.65,0,0,1,1.67,2.65,5.16,5.16,0,0,1-.11,3,8.65,8.65,0,0,1-2,3.12,8.5,8.5,0,0,1-3,2.16,5.21,5.21,0,0,1-3,.32A5.73,5.73,0,0,1,192.83,122.81Zm1.12-1.2a3.48,3.48,0,0,0,1.78.94,3.3,3.3,0,0,0,2-.35,8.22,8.22,0,0,0,2.24-1.79,8.1,8.1,0,0,0,1.66-2.41,3.27,3.27,0,0,0,.23-2,3.37,3.37,0,0,0-1-1.71,3.49,3.49,0,0,0-1.79-.93,3.36,3.36,0,0,0-2,.36,8.12,8.12,0,0,0-2.3,1.81,7.8,7.8,0,0,0-1.61,2.38,3.3,3.3,0,0,0-.19,2A3.58,3.58,0,0,0,194,121.61Z" transform="translate(0 -16.02)"/><path class="cls-2" d="M202.32,131.67a5.82,5.82,0,0,1-1.7-2.67,5.12,5.12,0,0,1,.1-3,9.58,9.58,0,0,1,4.92-5.27,5.25,5.25,0,0,1,3-.32,5.73,5.73,0,0,1,2.77,1.49,5.65,5.65,0,0,1,1.67,2.65,5.16,5.16,0,0,1-.11,3,9.65,9.65,0,0,1-4.92,5.28,5.21,5.21,0,0,1-3,.32A5.79,5.79,0,0,1,202.32,131.67Zm1.13-1.21a3.42,3.42,0,0,0,1.77.94,3.23,3.23,0,0,0,2-.35,7.89,7.89,0,0,0,2.24-1.79,8.35,8.35,0,0,0,1.67-2.41,3.34,3.34,0,0,0,.23-2,3.4,3.4,0,0,0-1.05-1.71,3.45,3.45,0,0,0-1.79-.93,3.37,3.37,0,0,0-2.05.36,8,8,0,0,0-2.29,1.81,7.85,7.85,0,0,0-1.62,2.38,3.37,3.37,0,0,0-.19,2A3.53,3.53,0,0,0,203.45,130.46Z" transform="translate(0 -16.02)"/><path class="cls-2" d="M210.54,139.08l7.68-8.23-3-2.81,1.2-1.29,7.31,6.82-1.19,1.29-2.88-2.69L212,140.41Z" transform="translate(0 -16.02)"/><path class="cls-2" d="M216.07,144.24l8.88-9.52,3.16,2.95a6.29,6.29,0,0,1,2.07,3.13,2.9,2.9,0,0,1-.82,2.69,2.86,2.86,0,0,1-1.57.91,3.93,3.93,0,0,1-2.19-.35,4.22,4.22,0,0,1,.62,1.24,3,3,0,0,1,.1,1.1,2.64,2.64,0,0,1-.3,1,4.32,4.32,0,0,1-.59.83,3,3,0,0,1-2.72,1.08,6.78,6.78,0,0,1-3.36-1.95Zm2.48.17,1.87,1.75a4.22,4.22,0,0,0,2,1.18,1.7,1.7,0,0,0,1.63-.6,1.89,1.89,0,0,0,.56-1.16,2.27,2.27,0,0,0-.29-1.22,4.47,4.47,0,0,0-.92-1.17l-2-1.87Zm4-4.25,2,1.87a5.27,5.27,0,0,0,.76.58,3.22,3.22,0,0,0,.85.34,1.87,1.87,0,0,0,.88,0,1.76,1.76,0,0,0,.81-.53,1.72,1.72,0,0,0,.49-1.7,3.85,3.85,0,0,0-1.17-1.79l-1.85-1.73Z" transform="translate(0 -16.02)"/><path class="cls-2" d="M224,151.6l12.31-6.31,1.55,1.45-5.44,12.71L231,158.13l1.43-3.33-3.77-3.52-3.22,1.66Zm6.19-1.27,3.06,2.85,2.55-5.8Z" transform="translate(0 -16.02)"/><path class="cls-2" d="M233.82,160.79l8.88-9.51,1.43,1.33-7.72,8.28,4.4,4.1-1.16,1.24Z" transform="translate(0 -16.02)"/><path class="cls-2" d="M241.16,167.64l8.88-9.51,1.43,1.33-7.72,8.28,4.4,4.1L247,173.08Z" transform="translate(0 -16.02)"/><path class="cls-2" d="M166.91,127.93l8.87-9.52,6.08,5.67-1.13,1.21L176.09,121l-2.75,2.94,4.13,3.85-1.12,1.2-4.12-3.85-3.89,4.17Z" transform="translate(0 -16.02)"/><path class="cls-2" d="M174.53,135l8.87-9.52,1.41,1.31-8.87,9.52Z" transform="translate(0 -16.02)"/><path class="cls-2" d="M178.08,138.35l8.88-9.52,6.15,5.74L192,135.78l-4.73-4.4-2.69,2.89,4.22,3.93-1.13,1.21-4.23-3.94-2.75,2.95L185.5,143l-1.16,1.24Z" transform="translate(0 -16.02)"/><path class="cls-2" d="M186.17,145.89l8.89-9.51,1.42,1.33L188.76,146l4.4,4.09L192,151.33Z" transform="translate(0 -16.02)"/><path class="cls-2" d="M193.51,152.74l8.88-9.52.31.29c.17.17.38.36.63.59l.75.7.68.66a9,9,0,0,1,2.29,3.23,4.8,4.8,0,0,1,.12,3.08,7.65,7.65,0,0,1-1.84,3,7.81,7.81,0,0,1-3,2.12,5,5,0,0,1-3.19.07,8.54,8.54,0,0,1-3.36-2.09Zm2.54.15.86.8a6.31,6.31,0,0,0,2.2,1.4,3.52,3.52,0,0,0,2.31,0,5.83,5.83,0,0,0,2.42-1.71,6,6,0,0,0,1.52-2.47,3.37,3.37,0,0,0-.17-2.24,6.66,6.66,0,0,0-1.58-2.1l-.89-.84Z" transform="translate(0 -16.02)"/><path class="cls-2" d="M202.47,161.09l8.88-9.52,6.14,5.74-1.14,1.21-4.73-4.4-2.7,2.89,4.22,3.93L212,162.15l-4.22-3.94L205,161.16l4.84,4.53-1.15,1.24Z" transform="translate(0 -16.02)"/><path class="cls-2" d="M213.62,171.74a7.48,7.48,0,0,1-1.18-1.42,5.74,5.74,0,0,1-.69-1.6,4.18,4.18,0,0,1-.07-1.65,3.78,3.78,0,0,1,.68-1.58l1.47,1.37a2.33,2.33,0,0,0-.36,1.28,2.83,2.83,0,0,0,.34,1.3,4.64,4.64,0,0,0,.95,1.22,4.31,4.31,0,0,0,1.21.8,2.6,2.6,0,0,0,1.26.21,1.6,1.6,0,0,0,1.06-.55,1.5,1.5,0,0,0,.45-1.2,4,4,0,0,0-.62-1.54l-1.47-2.25a6,6,0,0,1-.78-1.61,3,3,0,0,1-.06-1.57,3.37,3.37,0,0,1,.87-1.51,3.17,3.17,0,0,1,1.81-1,4,4,0,0,1,2.13.21,6,6,0,0,1,2.09,1.32,5.84,5.84,0,0,1,1.56,2.18,4,4,0,0,1,.23,2.13,3.62,3.62,0,0,1-.88,1.77l-1.44-1.34a2.38,2.38,0,0,0,.55-1.31,2.3,2.3,0,0,0-.28-1.22,4,4,0,0,0-.86-1.1,2.94,2.94,0,0,0-1.87-.93,1.81,1.81,0,0,0-1.44.56,1.52,1.52,0,0,0-.45,1.2,3.55,3.55,0,0,0,.61,1.48l1.42,2.17a5.06,5.06,0,0,1,.86,1.87,3,3,0,0,1-.07,1.59,3.56,3.56,0,0,1-.81,1.33,3.2,3.2,0,0,1-1.8,1,4,4,0,0,1-2.18-.19A6.54,6.54,0,0,1,213.62,171.74Z" transform="translate(0 -16.02)"/><path class="cls-1" d="M245.5,88.18c30,35.09,45.64,83.34,37.85,148.78" transform="translate(0 -16.02)"/></g></g></svg>