<svg xmlns="http://www.w3.org/2000/svg" viewBox="0 0 493.01 368.3"><defs><style>.cls-1{fill:none;stroke:#eb3e94;stroke-linecap:round;stroke-linejoin:round;stroke-width:5px;}.cls-2{fill:#eb3e94;}</style></defs><title>Asset 23</title><g id="Layer_2" data-name="Layer 2"><g id="IMPACT"><path class="cls-1" d="M265.89,349.68a243.34,243.34,0,0,1,10.9,34.87S54,402.65,2.5,215.84c0,0,5-.62,13.58-1" transform="translate(0 -19.23)"/><path class="cls-1" d="M483.18,111.72c-7.15.53-15.26.34-21.78,1.42" transform="translate(0 -19.23)"/><path class="cls-1" d="M327.42,261.23a185.18,185.18,0,0,0,0,28.39c62.93.23,100.52-25.7,122.93-57.82" transform="translate(0 -19.23)"/><path class="cls-2" d="M339.64,255.38l-19.5-3.62,1.23-6.59a9.35,9.35,0,0,1,1.39-3.6,5.87,5.87,0,0,1,2.55-2.18,6,6,0,0,1,3.56-.31,6.11,6.11,0,0,1,3.16,1.49,5.63,5.63,0,0,1,1.64,2.81,8.63,8.63,0,0,1,0,3.73l-.81,4.37,7.22,1.34Zm-8.84-4.28.8-4.33a4.8,4.8,0,0,0-.51-3.47,4,4,0,0,0-2.82-1.82,3.55,3.55,0,0,0-3.18.75,5.48,5.48,0,0,0-1.62,3.16l-.78,4.21Z" transform="translate(0 -19.23)"/><path class="cls-2" d="M342.59,240.08l-19.15-5.15,2-7.42a8.69,8.69,0,0,1,1.56-3.29,4.62,4.62,0,0,1,2.36-1.59,6.38,6.38,0,0,1,5.43,1.31,5.06,5.06,0,0,1,1.29,1.84,7.54,7.54,0,0,1,.5,2l9.7-1.43-.7,2.6-9.19,1.27L335,235.41l8.25,2.22ZM333,234.86l1.12-4.17a5.69,5.69,0,0,0,0-3.57,3.16,3.16,0,0,0-2.3-1.89,3.12,3.12,0,0,0-2.81.38,4.58,4.58,0,0,0-1.61,2.65L326.11,233Z" transform="translate(0 -19.23)"/><path class="cls-2" d="M349.8,217.31a8.54,8.54,0,0,1-2.71,3.88,7.86,7.86,0,0,1-4.28,1.6A15,15,0,0,1,332.47,219a7.88,7.88,0,0,1-2.24-4,8.54,8.54,0,0,1,.45-4.69,8.37,8.37,0,0,1,2.71-3.86,7.76,7.76,0,0,1,4.29-1.57,13.31,13.31,0,0,1,5.57.95,13.16,13.16,0,0,1,4.79,2.87,7.73,7.73,0,0,1,2.22,4A8.44,8.44,0,0,1,349.8,217.31Zm-2.07-.77a5.7,5.7,0,0,0,.3-3.22,5.25,5.25,0,0,0-1.75-2.75,12.52,12.52,0,0,0-4-2.19,13,13,0,0,0-4.51-.94,5.36,5.36,0,0,0-3.16.94,5.52,5.52,0,0,0-1.89,2.62,5.65,5.65,0,0,0-.27,3.22,5.45,5.45,0,0,0,1.79,2.8,12.64,12.64,0,0,0,4,2.23,12.32,12.32,0,0,0,4.45.9,5.25,5.25,0,0,0,3.12-1A5.62,5.62,0,0,0,347.73,216.54Z" transform="translate(0 -19.23)"/><path class="cls-2" d="M355.61,202.82l-20.92-2.38,1.11-2.26,17.89,2-12.54-12.92,1.1-2.25L357,200.08Z" transform="translate(0 -19.23)"/><path class="cls-2" d="M361,192.61l-17.12-10,1.28-2.19,17.12,10Z" transform="translate(0 -19.23)"/><path class="cls-2" d="M363.86,187.46l-16.28-11.32.33-.47c.19-.27.42-.59.68-1s.54-.78.83-1.19l.81-1.13a13.75,13.75,0,0,1,4.35-4.18,7.16,7.16,0,0,1,4.6-.86,11.85,11.85,0,0,1,5,2.15,12.09,12.09,0,0,1,3.88,4.09,7.45,7.45,0,0,1,.78,4.79,13.38,13.38,0,0,1-2.46,5.53Zm-.3-3.38,1-1.43a10.68,10.68,0,0,0,1.79-3.91,5.52,5.52,0,0,0-.48-3.65,11.58,11.58,0,0,0-7.47-5.22,5.28,5.28,0,0,0-3.49.82,11.06,11.06,0,0,0-3,3l-1.06,1.52Z" transform="translate(0 -19.23)"/><path class="cls-2" d="M373.63,173.8l-14.87-13.12L367,151.3l1.67,1.49-6.58,7.46,4.86,4.28,5.92-6.72,1.67,1.47L368.63,166l5,4.37,6.79-7.65,1.7,1.5Z" transform="translate(0 -19.23)"/><path class="cls-2" d="M387.33,159.23,374.6,144l9.47-7.94,1.41,1.71L378,144.06l4.21,5,6.71-5.62,1.41,1.69-6.71,5.62,5.69,6.79Z" transform="translate(0 -19.23)"/><path class="cls-2" d="M398.17,150.29l-10.89-16.57,6.42-4.22a8.66,8.66,0,0,1,3.35-1.42,4.6,4.6,0,0,1,2.82.38,6.41,6.41,0,0,1,3.19,4.59,5,5,0,0,1-.26,2.23,7.73,7.73,0,0,1-1,1.85l8.19,5.38L407.78,144l-7.72-5.15-4.46,2.93,4.69,7.14ZM394.45,140l3.61-2.38a5.73,5.73,0,0,0,2.39-2.66A3.17,3.17,0,0,0,400,132a3.13,3.13,0,0,0-2.35-1.59,4.71,4.71,0,0,0-3,.91l-4.11,2.71Z" transform="translate(0 -19.23)"/><path class="cls-2" d="M412,141.51,403,123.8l11.17-5.63,1,2-8.88,4.48,2.91,5.78,8-4,1,2-8,4,3,5.91,9.15-4.58,1,2Z" transform="translate(0 -19.23)"/><path class="cls-2" d="M431.69,132.82a10.4,10.4,0,0,1-2.7.65,8,8,0,0,1-2.59-.15,6,6,0,0,1-2.25-1,5.57,5.57,0,0,1-1.67-1.94l2.49-.94a3.93,3.93,0,0,0,1.59,1.42,4.49,4.49,0,0,0,2.11.43,7,7,0,0,0,2.38-.48,6.88,6.88,0,0,0,2-1.19,4,4,0,0,0,1.19-1.69,2.76,2.76,0,0,0,0-1.94,2.49,2.49,0,0,0-1.39-1.51,5.55,5.55,0,0,0-2.63-.24l-4.2.45a9.19,9.19,0,0,1-2.63,0,4.68,4.68,0,0,1-2.14-1,4.87,4.87,0,0,1-1.46-2.17,4.81,4.81,0,0,1-.17-3.08,6.19,6.19,0,0,1,1.68-2.72,8.86,8.86,0,0,1,3.14-1.92,8.58,8.58,0,0,1,4-.63,6,6,0,0,1,3,1.13,5.24,5.24,0,0,1,1.76,2.34l-2.44.92a3.87,3.87,0,0,0-1.51-1.72,3.68,3.68,0,0,0-2-.48,6.76,6.76,0,0,0-2.16.44,4.69,4.69,0,0,0-2.67,2,3,3,0,0,0-.21,2.54,2.46,2.46,0,0,0,1.41,1.52,5.43,5.43,0,0,0,2.54.2l4.08-.44a7.58,7.58,0,0,1,3.06.12,4.55,4.55,0,0,1,2.05,1.17,5.43,5.43,0,0,1,1.22,1.93,4.91,4.91,0,0,1,.18,3.07,6,6,0,0,1-1.69,2.8A9.44,9.44,0,0,1,431.69,132.82Z" transform="translate(0 -19.23)"/><path class="cls-2" d="M440.39,129.36l-5-19.19,2.46-.64,2.12,8.18,10.36-2.7-2.13-8.17,2.46-.64,5,19.2-2.46.63-2.3-8.85-10.36,2.69,2.3,8.85Z" transform="translate(0 -19.23)"/><path class="cls-2" d="M28.74,224.39,21.56,204.6h2.51l6.17,16.92,6-17,2.51,0-6.94,19.88Z" transform="translate(0 -19.23)"/><path class="cls-2" d="M40.56,224.43l.81-19.81,12.5.51-.1,2.23-9.94-.4-.26,6.46,8.94.37L52.42,216l-9-.37-.27,6.61,10.22.45L53.32,225Z" transform="translate(0 -19.23)"/><path class="cls-2" d="M63.21,226a8.22,8.22,0,0,1-4.38-1.6,7.64,7.64,0,0,1-2.58-3.71,13.31,13.31,0,0,1-.53-5.54,13.52,13.52,0,0,1,1.53-5.41,7.8,7.8,0,0,1,3.26-3.23,8.28,8.28,0,0,1,4.63-.8,7.71,7.71,0,0,1,5,2.4,7.39,7.39,0,0,1,1.43,2.19,5.78,5.78,0,0,1,.48,2.44l-2.71-.24a5.05,5.05,0,0,0-.66-2.11,5,5,0,0,0-1.53-1.66,4.54,4.54,0,0,0-2.21-.77,5.52,5.52,0,0,0-3.07.56A5.39,5.39,0,0,0,59.58,211a11.91,11.91,0,0,0-1.12,4.41,13,13,0,0,0,.11,3.65,6.74,6.74,0,0,0,1,2.55,4.86,4.86,0,0,0,1.72,1.54,5.82,5.82,0,0,0,2.25.65,5,5,0,0,0,2.2-.24,4.89,4.89,0,0,0,1.64-1,5.2,5.2,0,0,0,1.08-1.41,4.82,4.82,0,0,0,.5-1.5l.24-1.74-4.81-.43.17-1.86,7.43.68-.91,10.19-1.9-.17.27-3A8.15,8.15,0,0,1,68,224.78a6.14,6.14,0,0,1-2,1A7.31,7.31,0,0,1,63.21,226Z" transform="translate(0 -19.23)"/><path class="cls-2" d="M81.55,228.18a8.23,8.23,0,0,1-4.28-1.83,7.69,7.69,0,0,1-2.38-3.85,15.24,15.24,0,0,1,1.6-10.88,7.75,7.75,0,0,1,3.43-3,8.28,8.28,0,0,1,4.66-.55,7.5,7.5,0,0,1,2.71.92,7.75,7.75,0,0,1,2.1,1.74A7.25,7.25,0,0,1,90.71,213a5.79,5.79,0,0,1,.34,2.46L88.36,215a5.15,5.15,0,0,0-2-3.88,4.54,4.54,0,0,0-2.16-.89,5.44,5.44,0,0,0-3.1.4,5.31,5.31,0,0,0-2.37,2.27,12,12,0,0,0-1.36,4.35,13,13,0,0,0-.08,3.65,6.64,6.64,0,0,0,.86,2.6,4.8,4.8,0,0,0,1.63,1.63,5.71,5.71,0,0,0,2.21.77,5.07,5.07,0,0,0,2.22-.12,4.81,4.81,0,0,0,1.69-.9,5.22,5.22,0,0,0,1.15-1.34,5,5,0,0,0,.59-1.47l.33-1.73-4.78-.69.27-1.85,7.38,1.09L89.39,229l-1.89-.27.44-3a8,8,0,0,1-1.54,1.4,6.14,6.14,0,0,1-2.09.93A7.18,7.18,0,0,1,81.55,228.18Z" transform="translate(0 -19.23)"/><path class="cls-2" d="M92.77,229.73l3.61-19.51,2.49.47-3.61,19.5Z" transform="translate(0 -19.23)"/><path class="cls-2" d="M99,230.86l4.3-19.36,12.21,2.71L115,216.4l-9.71-2.17-1.41,6.32,8.74,1.95-.48,2.17-8.75-1.95L102,229.17l10,2.25-.49,2.21Z" transform="translate(0 -19.23)"/><path class="cls-2" d="M120.35,236.36a10.73,10.73,0,0,1-2.56-1.09,8,8,0,0,1-2-1.65,6,6,0,0,1-1.22-2.15,5.55,5.55,0,0,1-.19-2.55l2.56.72a4,4,0,0,0,.43,2.09,4.69,4.69,0,0,0,1.45,1.6,6.86,6.86,0,0,0,2.2,1,6.59,6.59,0,0,0,2.34.25,4,4,0,0,0,2-.65,2.77,2.77,0,0,0,1.12-1.59,2.51,2.51,0,0,0-.23-2,5.7,5.7,0,0,0-2-1.76l-3.64-2.12a8.94,8.94,0,0,1-2.1-1.6,4.66,4.66,0,0,1-1.16-2,5,5,0,0,1,.11-2.61,4.83,4.83,0,0,1,1.7-2.58,6,6,0,0,1,3-1.19,9,9,0,0,1,3.67.31,8.57,8.57,0,0,1,3.56,1.85,5.89,5.89,0,0,1,1.76,2.7,5.22,5.22,0,0,1,0,2.93l-2.51-.71a3.94,3.94,0,0,0-.19-2.28,3.82,3.82,0,0,0-1.3-1.55,6.94,6.94,0,0,0-2-.93,4.76,4.76,0,0,0-3.36.06,3,3,0,0,0-1.67,1.92,2.43,2.43,0,0,0,.23,2.06,5.3,5.3,0,0,0,1.92,1.66l3.55,2.07a7.66,7.66,0,0,1,2.39,1.92,4.63,4.63,0,0,1,1,2.16,5.4,5.4,0,0,1-.17,2.28,4.81,4.81,0,0,1-1.68,2.57,6.11,6.11,0,0,1-3,1.26A9.62,9.62,0,0,1,120.35,236.36Z" transform="translate(0 -19.23)"/><path class="cls-2" d="M141.75,243.39a8.25,8.25,0,0,1-3.78-2.71,7.79,7.79,0,0,1-1.49-4.27,15.24,15.24,0,0,1,3.92-10.28,7.81,7.81,0,0,1,4-2.23,8.34,8.34,0,0,1,4.68.47A7.78,7.78,0,0,1,153.2,228a7.31,7.31,0,0,1,.79,2.49,5.73,5.73,0,0,1-.2,2.48l-2.54-1a5.14,5.14,0,0,0-1.09-4.22,4.66,4.66,0,0,0-1.92-1.34,5.43,5.43,0,0,0-3.11-.28,5.49,5.49,0,0,0-2.81,1.71,11.84,11.84,0,0,0-2.26,3.95,13.41,13.41,0,0,0-.88,3.54,6.71,6.71,0,0,0,.28,2.73,4.94,4.94,0,0,0,1.24,1.95,5.86,5.86,0,0,0,2,1.23,4.89,4.89,0,0,0,2.19.36,5,5,0,0,0,1.85-.51,5.22,5.22,0,0,0,1.41-1.06,4.65,4.65,0,0,0,.89-1.32l.7-1.61-4.51-1.71.66-1.74,7,2.65-3.62,9.57-1.79-.67,1.07-2.83a7.51,7.51,0,0,1-1.8,1,6.16,6.16,0,0,1-2.24.45A7.11,7.11,0,0,1,141.75,243.39Z" transform="translate(0 -19.23)"/><path class="cls-2" d="M152.08,247.17l8.37-18,7,3.24a8.85,8.85,0,0,1,3,2.11,4.61,4.61,0,0,1,1.16,2.6,6.42,6.42,0,0,1-2.23,5.12,4.87,4.87,0,0,1-2,1,7,7,0,0,1-2.08.14l-.27,9.81L162.5,252l.32-9.27L158,240.49l-3.61,7.75Zm6.79-8.58,3.92,1.83a5.66,5.66,0,0,0,3.52.63,3.66,3.66,0,0,0,2.37-4.78,4.69,4.69,0,0,0-2.34-2l-4.47-2.08Z" transform="translate(0 -19.23)"/><path class="cls-2" d="M173.41,258.16a8.56,8.56,0,0,1-3.39-3.3,7.73,7.73,0,0,1-.89-4.48,12.91,12.91,0,0,1,1.79-5.3,13.25,13.25,0,0,1,3.65-4.29,7.82,7.82,0,0,1,4.33-1.56,8.49,8.49,0,0,1,4.56,1.2,8.39,8.39,0,0,1,3.37,3.28,7.79,7.79,0,0,1,.86,4.5,15.25,15.25,0,0,1-5.43,9.61,7.78,7.78,0,0,1-4.28,1.55A8.51,8.51,0,0,1,173.41,258.16Zm1.09-1.92a5.68,5.68,0,0,0,3.14.81,5.22,5.22,0,0,0,3-1.28,12.78,12.78,0,0,0,2.8-3.57,12.92,12.92,0,0,0,1.65-4.3,5.45,5.45,0,0,0-.42-3.27,5.42,5.42,0,0,0-8.47-1.75,12.76,12.76,0,0,0-2.85,3.61,12.36,12.36,0,0,0-1.6,4.24,5.32,5.32,0,0,0,.46,3.25A5.75,5.75,0,0,0,174.5,256.24Z" transform="translate(0 -19.23)"/><path class="cls-2" d="M185.76,265.28l6.86-19.47,2.09,1.49-5.59,15.4,12.81-10.26,1.61,1.16L198,269l12.81-10.26,2.07,1.48-16.23,12.79-1.91-1.36,5.39-15-12.52,10Z" transform="translate(0 -19.23)"/><path class="cls-2" d="M202.05,277.28l13.26-14.75,1.8,1.62-2.51,18.47,10.31-11.47,1.89,1.7L213.54,287.6l-1.68-1.51,2.53-18.75L203.94,279Z" transform="translate(0 -19.23)"/><path class="cls-2" d="M213.53,289.23l19.81-9.54,1.37,1.42-19.82,9.53Z" transform="translate(0 -19.23)"/><path class="cls-2" d="M224.21,299.21l6.45-5.46L235,281.23l1.79,2.11-3.55,9.92,10.31-1.94,1.8,2.12-13,2.24-6.43,5.46Z" transform="translate(0 -19.23)"/><path class="cls-2" d="M230.76,307.14l16.13-11.54,7.28,10.17-1.83,1.29L246.55,299l-5.26,3.77L246.5,310l-1.8,1.3-5.22-7.3-5.38,3.85,5.93,8.34-1.84,1.31Z" transform="translate(0 -19.23)"/><path class="cls-2" d="M238.48,317.84l20.72-3.95,1.47,2.46-13.39,16.3L246,330.42l3.67-4.44-4.16-7-5.66,1.08Zm9.34.53,3.46,5.81,6.52-7.8Z" transform="translate(0 -19.23)"/><path class="cls-2" d="M248.05,334.27l17.86-8.6,3.34,6.92a8.53,8.53,0,0,1,1,3.5,4.59,4.59,0,0,1-.74,2.75,5.61,5.61,0,0,1-2.31,1.91,5.79,5.79,0,0,1-2.66.65,5,5,0,0,1-2.18-.56,7.39,7.39,0,0,1-1.7-1.2l-6.42,7.41L253,344.63l6.13-7-2.31-4.81-7.7,3.71Zm10.69-2.33,1.87,3.89a5.68,5.68,0,0,0,2.32,2.72,3.65,3.65,0,0,0,4.86-2.19,4.71,4.71,0,0,0-.52-3.07l-2.13-4.43Z" transform="translate(0 -19.23)"/><path class="cls-2" d="M40.83,267.39l1.48-2.81.77-1.45a10.11,10.11,0,0,1,3.07-3.67,11.48,11.48,0,0,1,4-1.8,21.78,21.78,0,0,1,4.45-.6c1.53-.05,3-.07,4.51-.06a40.25,40.25,0,0,0,4.19-.16,10.52,10.52,0,0,0,3.5-.91,5.15,5.15,0,0,0,2.39-2.34,5,5,0,0,0,.33-4.23,6.48,6.48,0,0,0-3.31-3.44,7.27,7.27,0,0,0-5.24-.8,7.37,7.37,0,0,0-4.35,3.26l-5.11-2.69a12.17,12.17,0,0,1,4.11-4.5,10.85,10.85,0,0,1,5.89-1.67,15.41,15.41,0,0,1,7.2,2,15.1,15.1,0,0,1,5.18,4.21,10.06,10.06,0,0,1,2.06,5.2,9.88,9.88,0,0,1-1.2,5.52,10.1,10.1,0,0,1-3,3.65,10.89,10.89,0,0,1-3.87,1.73,21.09,21.09,0,0,1-4.31.53c-1.49,0-2.95,0-4.39,0a38.74,38.74,0,0,0-4.07.07,9.82,9.82,0,0,0-3.39.82,5,5,0,0,0-2.32,2.29l-.24.45,16.2,8.55L62.9,279Z" transform="translate(0 -19.23)"/><path class="cls-2" d="M78.29,287.75a13.06,13.06,0,0,1-5.62-5.4,13.78,13.78,0,0,1-1.45-7.66,23.65,23.65,0,0,1,2.85-9.05,27,27,0,0,1,6.15-8.05,14.36,14.36,0,0,1,7.38-3.48,13.08,13.08,0,0,1,8,1.6,14.46,14.46,0,0,1,4.59,3.73,11.11,11.11,0,0,1,2.31,5,9.76,9.76,0,0,1-.67,5.58l-4.87-2.56a6.93,6.93,0,0,0-.37-4.34A6.68,6.68,0,0,0,93.44,260a7.08,7.08,0,0,0-4.9-.78A8.85,8.85,0,0,0,84,262a21.38,21.38,0,0,0-3.77,6,8.23,8.23,0,0,1,3-1.26,9.86,9.86,0,0,1,3.39-.08A10.73,10.73,0,0,1,90,267.82a13.79,13.79,0,0,1,4.87,4.09,10.1,10.1,0,0,1,1.9,5.31,11.1,11.1,0,0,1-1.41,5.87A12.06,12.06,0,0,1,91,287.85a11.49,11.49,0,0,1-6,1.68A14.09,14.09,0,0,1,78.29,287.75Zm2-4.2a6.52,6.52,0,0,0,6.78-.3,7.54,7.54,0,0,0,2.52-2.87,7.36,7.36,0,0,0,1-3.62,5.43,5.43,0,0,0-1-3.1,7.87,7.87,0,0,0-2.81-2.35,7.46,7.46,0,0,0-3.25-.84,7.21,7.21,0,0,0-3.21.59A4.2,4.2,0,0,0,78.18,273a10.29,10.29,0,0,0-1.32,4.29,6.81,6.81,0,0,0,.77,3.7A6.39,6.39,0,0,0,80.34,283.55Z" transform="translate(0 -19.23)"/><path class="cls-2" d="M107.56,302.56l3.93-7.41-14.56-7.67L99.29,283l24.62-11.79,5.24,2.76-10.22,19.39,5,2.63-2.36,4.48-5-2.64-3.91,7.42Zm-3.34-17,9.59,5,6.77-12.85Z" transform="translate(0 -19.23)"/><path class="cls-2" d="M117,314.92l5.45-4.35-2-1.23,2.91-5.52,5.75,3-2.54,4.82L119.11,316Z" transform="translate(0 -19.23)"/><path class="cls-2" d="M141.86,321.25a11.44,11.44,0,0,1-6.38-8.59q-1-5.71,3.17-13.55a27.58,27.58,0,0,1,6.11-8.13,13.28,13.28,0,0,1,6.92-3.32,11.73,11.73,0,0,1,7.17,1.41,11.44,11.44,0,0,1,6.32,8.6q.95,5.76-3.21,13.66t-9.41,10.32A11.43,11.43,0,0,1,141.86,321.25Zm2.33-4.38a5.51,5.51,0,0,0,6-.31q2.93-1.92,6.2-8.15t3.3-9.93a5.52,5.52,0,0,0-3.08-5.16,5.6,5.6,0,0,0-6.05.38q-3,2-6.35,8.29T141,311.73A5.61,5.61,0,0,0,144.19,316.87Z" transform="translate(0 -19.23)"/><path class="cls-2" d="M167.8,334.92a11.43,11.43,0,0,1-6.38-8.58q-1-5.73,3.17-13.56a27.58,27.58,0,0,1,6.11-8.13,13.28,13.28,0,0,1,6.92-3.32,11.88,11.88,0,0,1,7.17,1.41,11.44,11.44,0,0,1,6.32,8.6q.94,5.78-3.21,13.67t-9.41,10.31A11.4,11.4,0,0,1,167.8,334.92Zm2.33-4.38a5.49,5.49,0,0,0,6-.31q2.93-1.91,6.2-8.14t3.3-9.93a5.53,5.53,0,0,0-3.08-5.17,5.6,5.6,0,0,0-6.05.38q-3,2-6.35,8.3T167,325.41A5.61,5.61,0,0,0,170.13,330.54Z" transform="translate(0 -19.23)"/><path class="cls-2" d="M193.74,348.6a11.44,11.44,0,0,1-6.38-8.59q-1-5.73,3.18-13.56a27.24,27.24,0,0,1,6.11-8.13,13.29,13.29,0,0,1,6.91-3.32,11.81,11.81,0,0,1,7.17,1.42,11.42,11.42,0,0,1,6.32,8.59q.94,5.78-3.21,13.67T204.43,349A11.43,11.43,0,0,1,193.74,348.6Zm2.33-4.38a5.51,5.51,0,0,0,6-.31q2.93-1.92,6.21-8.15t3.29-9.93a5.49,5.49,0,0,0-3.08-5.16,5.58,5.58,0,0,0-6.05.38q-3,2-6.35,8.29t-3.15,9.74A5.62,5.62,0,0,0,196.07,344.22Z" transform="translate(0 -19.23)"/><path class="cls-2" d="M100.69,38.93,103,19.23l12.27,1.45-.28,2.2-9.67-1.14-.76,6.51,8.69,1L113,31.46l-8.69-1-1,8.8Z" transform="translate(0 -19.23)"/><path class="cls-2" d="M114.83,40.75l3.1-19.59,2.51.4-3.11,19.59Z" transform="translate(0 -19.23)"/><path class="cls-2" d="M120.53,41.64l3.8-19.46,2.54.49-3.34,17.24,9.19,1.78-.43,2.23Z" transform="translate(0 -19.23)"/><path class="cls-2" d="M134,44.34l4.69-19.27,2.52.61-4.14,17.06,9.1,2.21-.54,2.21Z" transform="translate(0 -19.23)"/><path class="cls-2" d="M153.67,49.79a10.42,10.42,0,0,1-2.54-1.12,8,8,0,0,1-2-1.68A6.36,6.36,0,0,1,148,44.83a5.61,5.61,0,0,1-.14-2.56l2.55.76a3.76,3.76,0,0,0,.4,2.09,4.49,4.49,0,0,0,1.42,1.63,7.24,7.24,0,0,0,2.18,1,6.42,6.42,0,0,0,2.34.28,4,4,0,0,0,2-.62,2.68,2.68,0,0,0,1.14-1.57,2.48,2.48,0,0,0-.19-2,5.74,5.74,0,0,0-1.95-1.79l-3.61-2.18A9.08,9.08,0,0,1,152,38.26a4.61,4.61,0,0,1-1.13-2.06,4.94,4.94,0,0,1,.15-2.61,4.75,4.75,0,0,1,1.74-2.54,6,6,0,0,1,3-1.15,8.87,8.87,0,0,1,3.66.37A8.64,8.64,0,0,1,163,32.16a6.1,6.1,0,0,1,1.71,2.73,5.21,5.21,0,0,1,0,2.93l-2.5-.74a3.83,3.83,0,0,0-.15-2.29,3.87,3.87,0,0,0-1.27-1.57,6.67,6.67,0,0,0-2-.95,4.69,4.69,0,0,0-3.36,0,3,3,0,0,0-1.7,1.89,2.46,2.46,0,0,0,.2,2.07,5.35,5.35,0,0,0,1.9,1.69l3.51,2.13a7.44,7.44,0,0,1,2.36,2,4.51,4.51,0,0,1,.93,2.17,5.4,5.4,0,0,1-.2,2.28A4.94,4.94,0,0,1,160.65,49a6.07,6.07,0,0,1-3,1.2A9.37,9.37,0,0,1,153.67,49.79Z" transform="translate(0 -19.23)"/><path class="cls-2" d="M169.76,54.85,175.23,40l-3.59-1.32.58-1.56a11.72,11.72,0,0,0,2.69.72,2.64,2.64,0,0,0,1.59-.26,2.32,2.32,0,0,0,.89-1.09l1.7.62-6.87,18.61Z" transform="translate(0 -19.23)"/><path class="cls-2" d="M175.09,56.79l.6-1.43.32-.75a5.62,5.62,0,0,1,1.55-2.2,6.28,6.28,0,0,1,2.14-1.2,12.61,12.61,0,0,1,2.48-.57q1.27-.18,2.55-.3a21,21,0,0,0,2.39-.38,6.1,6.1,0,0,0,2-.81,3.51,3.51,0,0,0,1.29-1.6,3.13,3.13,0,0,0,0-2.69,4.14,4.14,0,0,0-2.28-2,4.42,4.42,0,0,0-3.31-.2,4.3,4.3,0,0,0-2.36,2.18l-2.33-1a6.68,6.68,0,0,1,2-2.57,6,6,0,0,1,3.07-1.17,8.12,8.12,0,0,1,3.88.72,7.91,7.91,0,0,1,2.91,2,5.22,5.22,0,0,1,.91,5.73,5.7,5.7,0,0,1-1.54,2.21A6.17,6.17,0,0,1,189.21,52a12.87,12.87,0,0,1-2.42.53c-.84.11-1.67.19-2.51.26a18,18,0,0,0-2.34.34,5.67,5.67,0,0,0-1.94.77,3.48,3.48,0,0,0-1.28,1.59l-.15.36,9.64,4.07L187.33,62Z" transform="translate(0 -19.23)"/><path class="cls-2" d="M193.23,64.78l9.17-17.59,11,5.72-1,2-8.63-4.5-3,5.81,7.75,4-1,1.94-7.76-4L195.54,66Z" transform="translate(0 -19.23)"/><path class="cls-2" d="M211.75,75.41A8.55,8.55,0,0,1,208.49,72a7.75,7.75,0,0,1-.71-4.51,15,15,0,0,1,5.83-9.36A7.89,7.89,0,0,1,218,56.72a9.21,9.21,0,0,1,7.74,4.8,7.81,7.81,0,0,1,.68,4.53,13.26,13.26,0,0,1-2,5.26,13.12,13.12,0,0,1-3.78,4.12,7.71,7.71,0,0,1-4.34,1.38A8.46,8.46,0,0,1,211.75,75.41Zm1.16-1.88a5.61,5.61,0,0,0,3.1.94,5.17,5.17,0,0,0,3-1.16A12.47,12.47,0,0,0,222,69.86a13,13,0,0,0,1.82-4.23,5.39,5.39,0,0,0-.28-3.28,6.09,6.09,0,0,0-5.3-3.29,5.42,5.42,0,0,0-3.09,1.19,12.42,12.42,0,0,0-3,3.49,12.1,12.1,0,0,0-1.78,4.18,5.33,5.33,0,0,0,.33,3.26A5.66,5.66,0,0,0,212.91,73.53Z" transform="translate(0 -19.23)"/><path class="cls-2" d="M226.19,85.34a8.45,8.45,0,0,1-2.92-3.72,7.72,7.72,0,0,1-.28-4.56,13,13,0,0,1,2.48-5,13.36,13.36,0,0,1,4.19-3.77,8,8,0,0,1,4.5-1,9.24,9.24,0,0,1,7.26,5.51,7.72,7.72,0,0,1,.25,4.56,15.15,15.15,0,0,1-6.67,8.8,7.72,7.72,0,0,1-4.45,1A8.49,8.49,0,0,1,226.19,85.34Zm1.34-1.75a5.55,5.55,0,0,0,3,1.22,5.17,5.17,0,0,0,3.14-.87,12.55,12.55,0,0,0,3.25-3.16,12.71,12.71,0,0,0,2.21-4,5.32,5.32,0,0,0,0-3.3A5.44,5.44,0,0,0,231,70.57a12.57,12.57,0,0,0-3.3,3.2,12.28,12.28,0,0,0-2.16,4,5.3,5.3,0,0,0,0,3.28A5.7,5.7,0,0,0,227.53,83.59Z" transform="translate(0 -19.23)"/><path class="cls-2" d="M237.84,94.66,249.7,81.78,245,77.44l1.58-1.71,11,10.17L256,87.61l-4.45-4.1L239.72,96.39Z" transform="translate(0 -19.23)"/><path class="cls-2" d="M244.62,101l14.74-13.27,4.27,4.74a9.39,9.39,0,0,1,2.68,5,4.45,4.45,0,0,1-1.62,3.95,4.5,4.5,0,0,1-2.55,1.2,5.82,5.82,0,0,1-3.29-.89,6.78,6.78,0,0,1,.79,1.94,4.63,4.63,0,0,1,.05,1.69,3.9,3.9,0,0,1-.56,1.44,5.71,5.71,0,0,1-1,1.23,4.53,4.53,0,0,1-4.26,1.26,10.14,10.14,0,0,1-4.81-3.36Zm3.27.47,2.69,3a7.15,7.15,0,0,0,3.13,2.27,2.76,2.76,0,0,0,2.74-.72,3.1,3.1,0,0,0,1.08-1.83,3.81,3.81,0,0,0-.31-2,8,8,0,0,0-1.35-2L253,96.89Zm6.69-6,2.88,3.21a7.7,7.7,0,0,0,1.16,1,4.47,4.47,0,0,0,1.33.7,2.9,2.9,0,0,0,1.43.11,2.85,2.85,0,0,0,1.43-.75,2.81,2.81,0,0,0,1-2.7A6.4,6.4,0,0,0,262.15,94L259.5,91Z" transform="translate(0 -19.23)"/><path class="cls-2" d="M254.16,111.5l20.29-5.76,1.68,2.33-11.9,17.41-1.52-2.1,3.26-4.75-4.75-6.6-5.55,1.57Zm9.35-.3,3.95,5.49,5.81-8.34Z" transform="translate(0 -19.23)"/><path class="cls-2" d="M264.68,126.5l17.21-9.86,1.29,2.25L268,127.62l4.66,8.13-2,1.13Z" transform="translate(0 -19.23)"/><path class="cls-2" d="M271.18,138.08l18-8.24,1.08,2.36-16,7.3,3.9,8.52-2.07.95Z" transform="translate(0 -19.23)"/><path class="cls-2" d="M278.26,154.64l18.9-6,3.75,11.78-2.13.66-2.94-9.28-6.25,2,2.65,8.34-2.1.66-2.64-8.34-8.45,2.68Z" transform="translate(0 -19.23)"/><path class="cls-2" d="M282.3,168.09l19.23-4.82.62,2.46-19.24,4.83Z" transform="translate(0 -19.23)"/><path class="cls-2" d="M283.68,173.42l19.5-3.65,2.3,12.29-2.2.4-1.83-9.77-6.36,1.19,1.65,8.8-2.19.41-1.65-8.82-6.5,1.22,1.86,10.06L286,186Z" transform="translate(0 -19.23)"/><path class="cls-2" d="M286.27,188.06,306,186l.27,2.57-17.45,1.85,1,9.32-2.26.24Z" transform="translate(0 -19.23)"/><path class="cls-2" d="M287.63,201.45l19.82-.59c0,.06,0,.25,0,.58s0,.72,0,1.18,0,.95,0,1.46,0,1,0,1.38a13.69,13.69,0,0,1-1,5.95,7.14,7.14,0,0,1-3.18,3.43,13.82,13.82,0,0,1-10.82.24,7.4,7.4,0,0,1-3.48-3.38,13.73,13.73,0,0,1-1.32-5.91Zm2.25,2.54.06,1.74a10.59,10.59,0,0,0,.88,4.2,5.62,5.62,0,0,0,2.56,2.65,11.59,11.59,0,0,0,9.12-.25,5.31,5.31,0,0,0,2.31-2.74,11,11,0,0,0,.59-4.21l0-1.85Z" transform="translate(0 -19.23)"/><path class="cls-2" d="M287.44,224.66a10.54,10.54,0,0,1,.46-2.74,8.25,8.25,0,0,1,1.15-2.32,6.16,6.16,0,0,1,1.81-1.68,5.57,5.57,0,0,1,2.44-.77l-.11,2.66a3.8,3.8,0,0,0-1.93.9,4.48,4.48,0,0,0-1.23,1.77,7.2,7.2,0,0,0-.49,2.38,6.38,6.38,0,0,0,.3,2.34,4,4,0,0,0,1.08,1.75,2.71,2.71,0,0,0,1.81.73,2.52,2.52,0,0,0,1.93-.69,5.51,5.51,0,0,0,1.25-2.32l1.24-4a8.79,8.79,0,0,1,1.07-2.4,4.52,4.52,0,0,1,1.71-1.6,4.92,4.92,0,0,1,2.57-.49,4.8,4.8,0,0,1,2.89,1.06,6,6,0,0,1,1.85,2.61,9.2,9.2,0,0,1,.54,3.64,8.74,8.74,0,0,1-1,3.89,6,6,0,0,1-2.23,2.33,5.25,5.25,0,0,1-2.85.7l.12-2.6a3.93,3.93,0,0,0,2.18-.71,3.81,3.81,0,0,0,1.2-1.62,6.55,6.55,0,0,0,.45-2.17,4.72,4.72,0,0,0-.83-3.25,3,3,0,0,0-2.25-1.19,2.47,2.47,0,0,0-1.95.7,5.37,5.37,0,0,0-1.18,2.26l-1.2,3.93a7.63,7.63,0,0,1-1.31,2.76,4.62,4.62,0,0,1-1.88,1.43,5.51,5.51,0,0,1-2.26.37,5,5,0,0,1-2.9-1.05,6.12,6.12,0,0,1-1.91-2.65A9.48,9.48,0,0,1,287.44,224.66Z" transform="translate(0 -19.23)"/><path class="cls-1" d="M159.41,188.44c-33.75-31.52-59.5-77.17-59.08-143.07" transform="translate(0 -19.23)"/><path class="cls-2" d="M465.71,226.13,445,222.49l1.24-2.18L464,223.38l-11.75-13.64,1.23-2.19,13.78,15.92Z" transform="translate(0 -19.23)"/><path class="cls-2" d="M472,214.43l-18.14-8,5-11.45,2,.92-4,9.1,5.92,2.61,3.62-8.19,2,.9-3.63,8.2,6.05,2.67,4.16-9.35,2.07.92Z" transform="translate(0 -19.23)"/><path class="cls-2" d="M481.2,192.13a8.2,8.2,0,0,1-2.57,3.89,7.75,7.75,0,0,1-4.2,1.66A15.27,15.27,0,0,1,464,194.16a7.76,7.76,0,0,1-2.38-3.91,8.27,8.27,0,0,1,.29-4.69,7.51,7.51,0,0,1,1.38-2.5,7.82,7.82,0,0,1,2.1-1.76,7.22,7.22,0,0,1,2.46-.89,6,6,0,0,1,2.49.1l-.87,2.58a5.19,5.19,0,0,0-4.17,1.25,4.62,4.62,0,0,0-1.26,2,5.1,5.1,0,0,0,1.66,5.85,11.83,11.83,0,0,0,4,2.11,13.36,13.36,0,0,0,3.58.74,6.68,6.68,0,0,0,2.71-.39,4.86,4.86,0,0,0,1.9-1.32,5.71,5.71,0,0,0,1.15-2,5,5,0,0,0,.28-2.21,4.94,4.94,0,0,0-.59-1.82,5.56,5.56,0,0,0-1.11-1.37,4.7,4.7,0,0,0-1.35-.84l-1.64-.64L473.13,189l-1.77-.59,2.38-7.07,9.7,3.25-.6,1.81-2.86-1a8.26,8.26,0,0,1,1.1,1.75,6.14,6.14,0,0,1,.54,2.23A7.28,7.28,0,0,1,481.2,192.13Z" transform="translate(0 -19.23)"/><path class="cls-2" d="M486.67,173a8.21,8.21,0,0,1-2.21,4.1,7.74,7.74,0,0,1-4,2,15.26,15.26,0,0,1-10.7-2.57,7.9,7.9,0,0,1-2.72-3.69,8.28,8.28,0,0,1-.13-4.7,7.35,7.35,0,0,1,1.16-2.61A7.87,7.87,0,0,1,470,163.6a7.53,7.53,0,0,1,2.37-1.11,6,6,0,0,1,2.49-.11l-.63,2.64a5.11,5.11,0,0,0-4,1.62,4.47,4.47,0,0,0-1.08,2.08,5.11,5.11,0,0,0,2.17,5.68,11.89,11.89,0,0,0,4.21,1.74,13.06,13.06,0,0,0,3.63.42,6.9,6.9,0,0,0,2.66-.63,4.88,4.88,0,0,0,1.78-1.48,5.91,5.91,0,0,0,1-2.13,5,5,0,0,0,.08-2.22,4.73,4.73,0,0,0-.74-1.76,5.35,5.35,0,0,0-1.24-1.27,4.72,4.72,0,0,0-1.41-.72l-1.69-.48-1.12,4.69-1.82-.43,1.75-7.26,10,2.37-.44,1.86-2.94-.7a8.16,8.16,0,0,1,1.26,1.65,6.19,6.19,0,0,1,.74,2.17A7.4,7.4,0,0,1,486.67,173Z" transform="translate(0 -19.23)"/><path class="cls-2" d="M489,160.9l-19.52-3.52.45-2.5,19.52,3.52Z" transform="translate(0 -19.23)"/><path class="cls-2" d="M490.22,153.88l-19.66-2.62,1.65-12.39,2.21.3L473.11,149l6.42.85,1.18-8.87,2.2.29-1.18,8.89,6.55.87,1.38-10.14,2.24.3Z" transform="translate(0 -19.23)"/><path class="cls-2" d="M493,130.74a10.41,10.41,0,0,1-.53,2.73,8.05,8.05,0,0,1-1.2,2.29,6,6,0,0,1-1.85,1.64,5.44,5.44,0,0,1-2.45.72l.17-2.66a3.86,3.86,0,0,0,1.95-.86,4.52,4.52,0,0,0,1.27-1.74,7.35,7.35,0,0,0,.54-2.36,6.67,6.67,0,0,0-.25-2.35,4,4,0,0,0-1-1.78,2.73,2.73,0,0,0-1.79-.76,2.47,2.47,0,0,0-1.94.64,5.69,5.69,0,0,0-1.32,2.29l-1.31,4a9.21,9.21,0,0,1-1.13,2.38,4.6,4.6,0,0,1-1.75,1.56,5.33,5.33,0,0,1-5.45-.68,6.13,6.13,0,0,1-1.78-2.66,9,9,0,0,1-.46-3.65,8.74,8.74,0,0,1,1.06-3.87,6,6,0,0,1,2.28-2.27,5.18,5.18,0,0,1,2.86-.64l-.17,2.6a3.8,3.8,0,0,0-2.19.66,3.85,3.85,0,0,0-1.25,1.59,7,7,0,0,0-.49,2.15,4.68,4.68,0,0,0,.76,3.27,3,3,0,0,0,2.22,1.24,2.46,2.46,0,0,0,2-.65,5.44,5.44,0,0,0,1.23-2.23l1.28-3.91a7.66,7.66,0,0,1,1.38-2.73,4.5,4.5,0,0,1,1.91-1.39,5.51,5.51,0,0,1,2.27-.31,4.93,4.93,0,0,1,2.87,1.11,6.15,6.15,0,0,1,1.85,2.69A9.43,9.43,0,0,1,493,130.74Z" transform="translate(0 -19.23)"/><path class="cls-1" d="M288.06,239.39c-40.36,2.39-85.4-9.35-128.65-50.95" transform="translate(0 -19.23)"/></g></g></svg>