<svg xmlns="http://www.w3.org/2000/svg" viewBox="0 0 504.21 663.78"><defs><style>.cls-1{fill:#eb3e94;}.cls-2{fill:none;stroke:#eb3e94;stroke-linecap:round;stroke-linejoin:round;stroke-width:6px;}</style></defs><title>Asset 29</title><g id="Layer_2" data-name="Layer 2"><g id="PT"><path class="cls-1" d="M28.71,209l.11-19.83,12.51.07,0,2.23-9.94,0,0,6.47,9,0,0,2.22-9,0,0,6.61,10.23.09v2.26Z" transform="translate(0 -4.09)"/><path class="cls-1" d="M43.28,209.09l8.27-19.41,2.86.16L60.49,210l-2.59-.14-1.65-5.51-8.12-.45-2.26,5.3Zm5.65-7.47,6.75.37-2.84-9.75Z" transform="translate(0 -4.09)"/><path class="cls-1" d="M70.36,211.39a8.22,8.22,0,0,1-4.4-1.7,7.65,7.65,0,0,1-2.49-3.8,13.81,13.81,0,0,1-.4-5.61,13.56,13.56,0,0,1,1.57-5.34,7.48,7.48,0,0,1,3.23-3.13,8.43,8.43,0,0,1,4.67-.69,7.64,7.64,0,0,1,3.6,1.27A7.19,7.19,0,0,1,78.49,195a6.78,6.78,0,0,1,.81,3.3L76.62,198A6,6,0,0,0,76,195.8a4.48,4.48,0,0,0-1.45-1.67,4.76,4.76,0,0,0-2.32-.82,5.26,5.26,0,0,0-3.11.51A5.12,5.12,0,0,0,67,196.21a13.39,13.39,0,0,0-1.12,4.4q-.44,4.13.76,6.2a4.84,4.84,0,0,0,3.91,2.38,4.56,4.56,0,0,0,4.23-1.73,6.21,6.21,0,0,0,1.06-2l2.68.29a8.36,8.36,0,0,1-.93,2.35A7.1,7.1,0,0,1,75.91,210a6.63,6.63,0,0,1-2.4,1.21A8.47,8.47,0,0,1,70.36,211.39Z" transform="translate(0 -4.09)"/><path class="cls-1" d="M80.78,212.29,84,192.72l2.5.42-1.38,8.33,10.56,1.75,1.38-8.34,2.5.42-3.24,19.56-2.5-.41,1.49-9-10.55-1.75-1.5,9Z" transform="translate(0 -4.09)"/><path class="cls-1" d="M110.52,217.94l2-8.2-3.84-12.68,2.69.67,2.93,10.11,7.22-7.61,2.7.66L115,210.35l-2,8.19Z" transform="translate(0 -4.09)"/><path class="cls-1" d="M121.19,220.78l5.82-19,12,3.67-.67,2.14-9.5-2.92-1.91,6.18,8.57,2.63-.66,2.13L126.23,213l-1.94,6.32,9.77,3-.66,2.16Z" transform="translate(0 -4.09)"/><path class="cls-1" d="M135,225l13.78-16,2.68,1-.36,21.09-2.43-.93.12-5.75-7.6-2.9-3.77,4.36Zm7.65-5.39L149,222l.26-10.16Z" transform="translate(0 -4.09)"/><path class="cls-1" d="M153.28,232.16l8.44-17.95,6.95,3.26a8.81,8.81,0,0,1,3,2.12,4.59,4.59,0,0,1,1.15,2.6,6.38,6.38,0,0,1-2.24,5.12,5.07,5.07,0,0,1-2,.94,7.37,7.37,0,0,1-2.08.14l-.3,9.8-2.43-1.14.36-9.28-4.83-2.27-3.64,7.73Zm6.82-8.56,3.91,1.84a5.76,5.76,0,0,0,3.52.65,3.19,3.19,0,0,0,2.26-1.94,3.13,3.13,0,0,0,.12-2.83,4.64,4.64,0,0,0-2.33-2l-4.46-2.1Z" transform="translate(0 -4.09)"/><path class="cls-1" d="M176.42,243.85,182.15,224l2.17,1.36-4.7,15.7,12.2-11,1.68,1.06-4.63,15.74,12.19-11,2.16,1.36L187.76,251l-2-1.25,4.51-15.33-11.93,10.66Z" transform="translate(0 -4.09)"/><path class="cls-1" d="M193.92,255.36l12.23-15.62,9.85,7.71-1.39,1.76-7.83-6.13-4,5.1,7.05,5.52-1.37,1.75-7.06-5.53-4.07,5.2,8,6.33-1.4,1.78Z" transform="translate(0 -4.09)"/><path class="cls-1" d="M215.38,274.21a8.26,8.26,0,0,1-2.33-4,7.65,7.65,0,0,1,.41-4.5,15.27,15.27,0,0,1,7.81-7.75,7.87,7.87,0,0,1,4.57-.38,8.41,8.41,0,0,1,4.06,2.36,7.81,7.81,0,0,1,2.25,5,7.46,7.46,0,0,1-.31,2.6,5.76,5.76,0,0,1-1.21,2.18l-1.91-1.92a5.25,5.25,0,0,0,.85-2,5,5,0,0,0-.11-2.25,4.54,4.54,0,0,0-1.19-2,5.47,5.47,0,0,0-2.72-1.54,5.36,5.36,0,0,0-3.26.4,11.9,11.9,0,0,0-3.7,2.66,12.94,12.94,0,0,0-2.25,2.87,6.5,6.5,0,0,0-.87,2.6,4.72,4.72,0,0,0,.32,2.28,5.93,5.93,0,0,0,1.31,1.95,5,5,0,0,0,1.84,1.23,4.67,4.67,0,0,0,1.89.29,5.14,5.14,0,0,0,1.73-.38,4.74,4.74,0,0,0,1.35-.83l1.31-1.18-3.41-3.42,1.32-1.31,5.26,5.29-7.26,7.22-1.34-1.35,2.14-2.13a7.75,7.75,0,0,1-2.07.2,6.15,6.15,0,0,1-2.23-.51A7.39,7.39,0,0,1,215.38,274.21Z" transform="translate(0 -4.09)"/><path class="cls-1" d="M223.42,282.23l15.36-12.55,4.86,5.95a8.75,8.75,0,0,1,1.76,3.19,4.67,4.67,0,0,1-.08,2.85,5.72,5.72,0,0,1-1.8,2.38,5.77,5.77,0,0,1-2.44,1.26,5,5,0,0,1-2.25,0,7.58,7.58,0,0,1-1.94-.78l-4.5,8.71-1.7-2.08,4.33-8.21-3.38-4.13-6.62,5.4Zm9.85-4.77,2.73,3.35a5.74,5.74,0,0,0,2.89,2.1,3.18,3.18,0,0,0,2.87-.77,3.11,3.11,0,0,0,1.34-2.5,4.7,4.7,0,0,0-1.21-2.86L238.77,273Z" transform="translate(0 -4.09)"/><path class="cls-1" d="M238,301.93a8.53,8.53,0,0,1-1.54-4.48,7.65,7.65,0,0,1,1.23-4.4,13,13,0,0,1,4-3.92,13.13,13.13,0,0,1,5.19-2.19,7.85,7.85,0,0,1,4.56.56,9.21,9.21,0,0,1,5.06,7.58,7.69,7.69,0,0,1-1.26,4.4,15.26,15.26,0,0,1-9.18,6.13,7.79,7.79,0,0,1-4.52-.54A8.55,8.55,0,0,1,238,301.93Zm1.84-1.23a5.66,5.66,0,0,0,2.43,2.14,5.19,5.19,0,0,0,3.25.2,12.61,12.61,0,0,0,4.11-1.92A12.79,12.79,0,0,0,253,298a5.36,5.36,0,0,0,1.1-3.1,6,6,0,0,0-3.46-5.18,5.45,5.45,0,0,0-3.31-.2,12.5,12.5,0,0,0-4.17,1.93,12.33,12.33,0,0,0-3.34,3.07,5.24,5.24,0,0,0-1.05,3.11A5.63,5.63,0,0,0,239.82,300.7Z" transform="translate(0 -4.09)"/><path class="cls-1" d="M246,314.27l15-14.16,1.17,2.28-12,11.13,16.08-3.25.91,1.77-12,11.18L271.2,320l1.16,2.27-20.28,3.92L251,324.09l11.68-10.9L247,316.29Z" transform="translate(0 -4.09)"/><path class="cls-1" d="M40.76,248.6,42.14,246l.73-1.39a10.21,10.21,0,0,1,3.07-3.66,12,12,0,0,1,4-1.81,21.79,21.79,0,0,1,4.46-.62c1.53-.06,3-.09,4.54-.1a37.93,37.93,0,0,0,4.24-.23,10.56,10.56,0,0,0,3.57-1,5.63,5.63,0,0,0,2.47-2.5,5.27,5.27,0,0,0,.34-4.49A7,7,0,0,0,66,226.5a7.15,7.15,0,0,0-10,2.54l-4.55-2.39a11.62,11.62,0,0,1,4-4.36,10.75,10.75,0,0,1,5.77-1.63,14.57,14.57,0,0,1,7,1.93,14.6,14.6,0,0,1,5,4.09,9.85,9.85,0,0,1,2,5.11,9.74,9.74,0,0,1-1.2,5.42A10.17,10.17,0,0,1,71,240.87a11.08,11.08,0,0,1-3.9,1.76,20.71,20.71,0,0,1-4.34.56c-1.5,0-3,.05-4.43,0a34.78,34.78,0,0,0-4.15.15,10.36,10.36,0,0,0-3.48.94,5.43,5.43,0,0,0-2.43,2.45l-.28.54,16.36,8.63-2.13,4Z" transform="translate(0 -4.09)"/><path class="cls-1" d="M77.46,268.56a12.5,12.5,0,0,1-5.46-5.3,13.65,13.65,0,0,1-1.38-7.61,24.1,24.1,0,0,1,2.9-9.1,27.48,27.48,0,0,1,6.09-8A14.09,14.09,0,0,1,86.89,235a12.61,12.61,0,0,1,7.86,1.55,13.75,13.75,0,0,1,4.44,3.61,10.76,10.76,0,0,1,2.26,4.85,9.68,9.68,0,0,1-.63,5.46l-4.3-2.27a7.21,7.21,0,0,0-.39-4.53,7,7,0,0,0-3.28-3.29,7.45,7.45,0,0,0-5.17-.83,9.57,9.57,0,0,0-4.83,3,23,23,0,0,0-4.11,6.57,8,8,0,0,1,3.11-1.56,9.54,9.54,0,0,1,3.58-.22,10.3,10.3,0,0,1,3.6,1.15,13.28,13.28,0,0,1,4.82,4.07,10.07,10.07,0,0,1,1.85,5.32,11.37,11.37,0,0,1-1.44,5.92,12.55,12.55,0,0,1-4.29,4.8,11,11,0,0,1-5.88,1.74A13.81,13.81,0,0,1,77.46,268.56Zm1.88-3.77a6.91,6.91,0,0,0,3.68.85,6.81,6.81,0,0,0,3.49-1.2,9.1,9.1,0,0,0,3.74-6.92,5.88,5.88,0,0,0-1-3.33,8,8,0,0,0-3-2.54,7.94,7.94,0,0,0-6.92-.19A4.82,4.82,0,0,0,77,253.6a10.33,10.33,0,0,0-1.37,4.48,7.28,7.28,0,0,0,.83,3.93A6.65,6.65,0,0,0,79.34,264.79Z" transform="translate(0 -4.09)"/><path class="cls-1" d="M106.66,283.34l4.06-7.7-14.65-7.72,2.15-4.07L123,252l4.65,2.45L117.33,274l5.08,2.68-2.11,4L115.22,278l-4.06,7.7Zm-4.11-17.12,10.21,5.38L120,257.91Z" transform="translate(0 -4.09)"/><path class="cls-1" d="M115.71,295.27l5.34-4.2-1.9-1.17,2.72-5.15,5.36,2.83-2.37,4.5-7.16,4.24Z" transform="translate(0 -4.09)"/><path class="cls-1" d="M140,301.5a11.17,11.17,0,0,1-6.21-8.45q-.92-5.67,3.25-13.57a27.91,27.91,0,0,1,6.1-8.16,13.3,13.3,0,0,1,6.84-3.35,11.51,11.51,0,0,1,7,1.35,11.13,11.13,0,0,1,6.13,8.48q.93,5.71-3.26,13.66t-9.38,10.36A11.13,11.13,0,0,1,140,301.5Zm2.1-3.92a5.87,5.87,0,0,0,6.29-.29q3.09-2,6.49-8.43t3.36-10.31a5.88,5.88,0,0,0-3.28-5.41,6,6,0,0,0-6.36.36c-2.13,1.34-4.34,4.2-6.64,8.55s-3.33,7.66-3.22,10.13A6,6,0,0,0,142.06,297.58Z" transform="translate(0 -4.09)"/><path class="cls-1" d="M166,315.21a11.15,11.15,0,0,1-6.21-8.46q-.91-5.65,3.25-13.56a27.73,27.73,0,0,1,6.1-8.16,13.23,13.23,0,0,1,6.83-3.35,11.49,11.49,0,0,1,7,1.35,11.14,11.14,0,0,1,6.14,8.47q.92,5.73-3.27,13.67t-9.37,10.36A11.15,11.15,0,0,1,166,315.21Zm2.1-3.92a5.87,5.87,0,0,0,6.29-.3q3.09-2,6.49-8.42t3.36-10.31a5.89,5.89,0,0,0-3.29-5.41,6,6,0,0,0-6.35.35q-3.19,2-6.64,8.56t-3.23,10.13A6,6,0,0,0,168.07,311.29Z" transform="translate(0 -4.09)"/><path class="cls-1" d="M192,328.92a11.16,11.16,0,0,1-6.22-8.46q-.91-5.65,3.25-13.56a27.91,27.91,0,0,1,6.1-8.16,13.15,13.15,0,0,1,6.84-3.35,11.36,11.36,0,0,1,7,1.35,11.11,11.11,0,0,1,6.13,8.47q.93,5.73-3.26,13.67t-9.37,10.36A11.18,11.18,0,0,1,192,328.92Zm2.09-3.93a5.85,5.85,0,0,0,6.29-.29q3.09-2,6.49-8.43T210.21,306a5.86,5.86,0,0,0-3.28-5.4,6,6,0,0,0-6.36.35q-3.19,2-6.63,8.56t-3.23,10.13A6,6,0,0,0,194.07,325Z" transform="translate(0 -4.09)"/><path class="cls-1" d="M89.67,302.75l1.77-15.17,1.63.81-1.48,13,9.39-9.08,1.63.81-11,10.64Z" transform="translate(0 -4.09)"/><path class="cls-1" d="M98,306.86l6.36-12.9,8.13,4-.72,1.45-6.47-3.19-2.08,4.21,5.83,2.87-.71,1.45-5.84-2.88-2.12,4.3,6.65,3.3-.73,1.48Z" transform="translate(0 -4.09)"/><path class="cls-1" d="M113.38,314.65a5.91,5.91,0,0,1-2.54-2.22,5.62,5.62,0,0,1-.78-3.18,11.12,11.12,0,0,1,3.54-7.15,5.69,5.69,0,0,1,3.05-1.34,6.09,6.09,0,0,1,3.34.67,5.43,5.43,0,0,1,1.66,1.24,5.54,5.54,0,0,1,1.06,1.68,5.26,5.26,0,0,1,.4,1.85,4.26,4.26,0,0,1-.31,1.78l-1.77-.87a3.59,3.59,0,0,0,.1-1.6,3.52,3.52,0,0,0-.6-1.52,3.24,3.24,0,0,0-1.29-1.1,3.7,3.7,0,0,0-4.37.62,8.47,8.47,0,0,0-1.91,2.7,9.36,9.36,0,0,0-.88,2.49,4.89,4.89,0,0,0,0,2,3.47,3.47,0,0,0,.76,1.49,4.11,4.11,0,0,0,1.35,1,3.63,3.63,0,0,0,1.55.41,3.41,3.41,0,0,0,1.37-.24,3.81,3.81,0,0,0,1.1-.67,3.33,3.33,0,0,0,.73-.89l.62-1.11-3.14-1.55L117,308l4.86,2.4L118.6,317l-1.24-.61,1-2a5.35,5.35,0,0,1-1.37.62,4.46,4.46,0,0,1-1.65.18A5.4,5.4,0,0,1,113.38,314.65Z" transform="translate(0 -4.09)"/><path class="cls-1" d="M121.48,318.42l6.36-12.9,8.14,4-.73,1.45-6.47-3.19L126.7,312l5.83,2.87-.71,1.45L126,313.44l-2.12,4.3,6.65,3.3-.72,1.48Z" transform="translate(0 -4.09)"/><path class="cls-1" d="M135.07,325.12l5.61-11.39-4.17-2.05.75-1.52L147,315l-.75,1.52-3.93-1.94-5.61,11.39Z" transform="translate(0 -4.09)"/><path class="cls-1" d="M141.46,328.27l11-10.6,1.87.92-1.69,15.2L151,333l.47-4.15-5.29-2.61-3,2.9Zm5.89-3.38,4.4,2.17.87-7.32Z" transform="translate(0 -4.09)"/><path class="cls-1" d="M154.76,334.82l6.36-12.9,4.15,2.05a6.74,6.74,0,0,1,3.14,2.62,3.55,3.55,0,0,1-1.42,4.59,4.26,4.26,0,0,1-2.45.29,4.85,4.85,0,0,1,1.05,1.09,3.3,3.3,0,0,1,.49,1.12,3.07,3.07,0,0,1,0,1.13,4.2,4.2,0,0,1-.37,1.1,3.3,3.3,0,0,1-2.53,2,7.17,7.17,0,0,1-4.14-1Zm2.33-.56,2.62,1.29a5.14,5.14,0,0,0,2.72.68,2,2,0,0,0,1.65-1.22,2.28,2.28,0,0,0,.23-1.52,2.62,2.62,0,0,0-.76-1.29,5.39,5.39,0,0,0-1.45-1l-2.81-1.39Zm2.89-5.85,2.81,1.38a5.82,5.82,0,0,0,1.05.4,3.41,3.41,0,0,0,1.09.12,2.11,2.11,0,0,0,1-.32,2.07,2.07,0,0,0,.75-.88,2,2,0,0,0,0-2.1,4.64,4.64,0,0,0-2-1.64l-2.58-1.27Z" transform="translate(0 -4.09)"/><path class="cls-1" d="M166.37,340.55l6.37-12.9,1.69.83L168.8,339.9l6.09,3-.73,1.48Z" transform="translate(0 -4.09)"/><path class="cls-1" d="M176.32,345.45l6.36-12.9,8.14,4-.73,1.45-6.47-3.19L181.55,339l5.83,2.87-.72,1.45-5.83-2.88-2.12,4.3,6.65,3.3-.73,1.47Z" transform="translate(0 -4.09)"/><path class="cls-1" d="M191.34,353.07a7.65,7.65,0,0,1-1.68-1.11,5.83,5.83,0,0,1-1.2-1.44,4.55,4.55,0,0,1-.59-1.69,4,4,0,0,1,.21-1.85l1.73.85a2.9,2.9,0,0,0,0,1.55,3.31,3.31,0,0,0,.82,1.34,5,5,0,0,0,1.43,1,4.73,4.73,0,0,0,1.64.49,2.88,2.88,0,0,0,1.48-.21,2,2,0,0,0,1-1,1.8,1.8,0,0,0,.11-1.48,4.06,4.06,0,0,0-1.17-1.52l-2.32-2a6.5,6.5,0,0,1-1.29-1.41A3.37,3.37,0,0,1,191,343a3.53,3.53,0,0,1,.42-1.84,3.42,3.42,0,0,1,1.55-1.61,4.38,4.38,0,0,1,2.27-.47,6.67,6.67,0,0,1,2.57.71,6.25,6.25,0,0,1,2.3,1.79,4.33,4.33,0,0,1,.9,2.16,3.83,3.83,0,0,1-.37,2.09l-1.7-.83a2.74,2.74,0,0,0,.17-1.66,2.7,2.7,0,0,0-.72-1.27,4.55,4.55,0,0,0-1.31-.93,3.41,3.41,0,0,0-2.4-.4,2.16,2.16,0,0,0-1.44,1.14,1.74,1.74,0,0,0-.11,1.5,3.91,3.91,0,0,0,1.15,1.45l2.26,1.94a5.58,5.58,0,0,1,1.45,1.68,3.36,3.36,0,0,1,.4,1.67,3.85,3.85,0,0,1-.42,1.6,3.56,3.56,0,0,1-1.54,1.62,4.43,4.43,0,0,1-2.32.49A6.79,6.79,0,0,1,191.34,353.07Z" transform="translate(0 -4.09)"/><path class="cls-1" d="M102.24,23.78l2.44-19.69,12.41,1.54-.28,2.22-9.87-1.22-.8,6.42,8.89,1.1-.27,2.21-8.9-1.11L105,21.81l10.15,1.29-.27,2.24Z" transform="translate(0 -4.09)"/><path class="cls-1" d="M132.42,31.92a10.13,10.13,0,0,1-2-.62A6.12,6.12,0,0,1,128.54,30a6.89,6.89,0,0,1-1.48-2.42c-.46,0-.88,0-1.24-.05a8.42,8.42,0,0,1-1.11-.14,8.64,8.64,0,0,1-4.25-2,7.65,7.65,0,0,1-2.3-3.93,12.85,12.85,0,0,1,0-5.64,13.2,13.2,0,0,1,2.06-5.26,7.85,7.85,0,0,1,3.58-2.87,9.3,9.3,0,0,1,9,1.7,7.71,7.71,0,0,1,2.26,4A13.41,13.41,0,0,1,135,19a13.58,13.58,0,0,1-1.88,5,7.52,7.52,0,0,1-3.55,2.91,3.39,3.39,0,0,0,1.16,1.91,5,5,0,0,0,2.07,1Zm-7.3-6.73a5.18,5.18,0,0,0,4.57-1.08q1.84-1.59,2.61-5.63t-.36-6.23a5.62,5.62,0,0,0-8.43-1.59q-1.85,1.68-2.61,5.7t.38,6.17A5.14,5.14,0,0,0,125.12,25.19Z" transform="translate(0 -4.09)"/><path class="cls-1" d="M142.78,31.32a8.94,8.94,0,0,1-3.84-1.85,5.19,5.19,0,0,1-1.65-3,9.89,9.89,0,0,1,.29-4.1l3.12-12.32,2.56.64L140,23.39a4.85,4.85,0,0,0,.27,3.78,4.61,4.61,0,0,0,3,2,5.52,5.52,0,0,0,2.59.12,3.56,3.56,0,0,0,2-1.14,5.66,5.66,0,0,0,1.19-2.46L152.28,13l2.48.63-3.19,12.58a9,9,0,0,1-1.69,3.57A5.13,5.13,0,0,1,147,31.53,9,9,0,0,1,142.78,31.32Z" transform="translate(0 -4.09)"/><path class="cls-1" d="M151.4,33.25l12.89-16.7,2.73.87.78,21.08-2.47-.79-.2-5.75-7.74-2.48L153.87,34Zm7.34-5.8,6.44,2.06-.29-10.16Z" transform="translate(0 -4.09)"/><path class="cls-1" d="M169.64,39.32l7.17-18.49,2.42.94-6.34,16.37,8.73,3.39-.82,2.12Z" transform="translate(0 -4.09)"/><path class="cls-1" d="M191.75,48.58l7.62-15.75L193.61,30l1-2.1,13.5,6.54-1,2.1-5.44-2.64L194,49.69Z" transform="translate(0 -4.09)"/><path class="cls-1" d="M207.08,57a8.6,8.6,0,0,1-3.36-3.33,7.73,7.73,0,0,1-.84-4.5,12.91,12.91,0,0,1,1.85-5.27,13.1,13.1,0,0,1,3.69-4.26,7.86,7.86,0,0,1,4.35-1.51,8.48,8.48,0,0,1,4.55,1.24,8.39,8.39,0,0,1,3.33,3.33,7.77,7.77,0,0,1,.82,4.5,13.48,13.48,0,0,1-1.89,5.32,13.22,13.22,0,0,1-3.65,4.23,7.71,7.71,0,0,1-4.3,1.51A8.4,8.4,0,0,1,207.08,57Zm1.11-1.91a5.67,5.67,0,0,0,3.12.85,5.17,5.17,0,0,0,3-1.26,12.61,12.61,0,0,0,2.84-3.53,12.77,12.77,0,0,0,1.69-4.29,5.33,5.33,0,0,0-.38-3.27,6,6,0,0,0-5.39-3.12A5.44,5.44,0,0,0,210,41.74a12.56,12.56,0,0,0-2.88,3.57,12.11,12.11,0,0,0-1.65,4.24,5.23,5.23,0,0,0,.43,3.24A5.67,5.67,0,0,0,208.19,55.08Z" transform="translate(0 -4.09)"/><path class="cls-1" d="M224.34,67.9l10.42-14.06L229.62,50,231,48.15l12.06,8.94L241.67,59l-4.86-3.6L226.39,69.42Z" transform="translate(0 -4.09)"/><path class="cls-1" d="M232.14,73.71,245.44,59l1.88,1.7L241.66,67l7.94,7.17,5.66-6.27,1.88,1.7L243.85,84.28,242,82.58l6.13-6.79-7.94-7.17L234,75.41Z" transform="translate(0 -4.09)"/><path class="cls-1" d="M246,86.6l14.79-13.22,8.33,9.32-1.67,1.48-6.63-7.41L256,81.09l6,6.67-1.65,1.48-6-6.68L249.42,87l6.8,7.65-1.69,1.51Z" transform="translate(0 -4.09)"/><path class="cls-1" d="M258.2,100.64l20.5-5,1.59,2.38-12.56,17-1.43-2.16,3.43-4.62-4.49-6.78-5.6,1.36Zm9.36.06,3.74,5.64,6.12-8.11Z" transform="translate(0 -4.09)"/><path class="cls-1" d="M268.35,116.3l17.75-8.86,1.08,2.18-9.12,16.26,13.8-6.89,1.13,2.27-17.75,8.86-1-2,9.24-16.5-14,7Z" transform="translate(0 -4.09)"/><path class="cls-1" d="M276.33,132.82,295,126.23l.81,2.29-11.06,15,14.54-5.13.84,2.4-18.7,6.59-.76-2.13L291.92,130l-14.74,5.2Z" transform="translate(0 -4.09)"/><path class="cls-1" d="M283.71,157.41a9,9,0,0,1-.11-4.26,5.17,5.17,0,0,1,1.91-2.84,10,10,0,0,1,3.78-1.62l12.39-2.86.59,2.57-12.76,2.94a4.92,4.92,0,0,0-3.24,2,4.68,4.68,0,0,0-.39,3.6,5.55,5.55,0,0,0,1.08,2.36,3.5,3.5,0,0,0,1.9,1.21,5.82,5.82,0,0,0,2.74-.06l12.76-2.94.58,2.48-12.65,2.92a8.91,8.91,0,0,1-4,.13,5.16,5.16,0,0,1-2.89-1.74A9.23,9.23,0,0,1,283.71,157.41Z" transform="translate(0 -4.09)"/><path class="cls-1" d="M285.84,165.62l20.59,4.62.36,2.84L288,182.71l-.33-2.57,5.13-2.62-1-8.07-5.63-1.26Zm8.37,4.2.85,6.71,9.09-4.56Z" transform="translate(0 -4.09)"/><path class="cls-1" d="M288,184.54l19.81-.9.12,2.59-17.54.81.43,9.35-2.27.11Z" transform="translate(0 -4.09)"/><path class="cls-1" d="M156.72,180.18l12-15.76,2,1.54-5.12,6.72,8.5,6.49,5.13-6.71,2,1.54-12,15.76-2-1.54,5.55-7.27-8.5-6.5-5.56,7.27Z" transform="translate(0 -4.09)"/><path class="cls-1" d="M172.16,191.8l16.66-12.94,2.43,1.53L186.72,201l-2.19-1.38,1.25-5.62-6.88-4.34-4.55,3.53Zm8.56-3.78,5.72,3.61,2.26-9.91Z" transform="translate(0 -4.09)"/><path class="cls-1" d="M189.61,202.61l9.29-17.52,6.79,3.59a8.55,8.55,0,0,1,2.85,2.26,4.54,4.54,0,0,1,1,2.65,5.69,5.69,0,0,1-.72,2.9,5.75,5.75,0,0,1-1.77,2.11,5.08,5.08,0,0,1-2.08.84,7.74,7.74,0,0,1-2.09,0l-.77,9.77L199.77,208l.8-9.24-4.72-2.5-4,7.55Zm7.23-8.21,3.81,2a5.66,5.66,0,0,0,3.49.81,3.67,3.67,0,0,0,2.61-4.65,4.68,4.68,0,0,0-2.23-2.16l-4.35-2.3Z" transform="translate(0 -4.09)"/><path class="cls-1" d="M210.45,213.06l1.65-21,2.29,1-1.37,18,12.46-13,2.29,1-14.52,15.24Z" transform="translate(0 -4.09)"/><path class="cls-1" d="M222.19,218.08l7-18.55,11.7,4.41-.8,2.09-9.3-3.51-2.29,6,8.38,3.17-.78,2.08-8.4-3.17-2.33,6.18,9.56,3.65-.79,2.11Z" transform="translate(0 -4.09)"/><path class="cls-1" d="M244,226.09a10.64,10.64,0,0,1-2.53-1.16,8,8,0,0,1-1.94-1.71,6.11,6.11,0,0,1-1.15-2.18,5.48,5.48,0,0,1-.11-2.56l2.54.8a3.91,3.91,0,0,0,.36,2.1,4.64,4.64,0,0,0,1.4,1.64,6.91,6.91,0,0,0,2.17,1.09,6.62,6.62,0,0,0,2.33.32,4.08,4.08,0,0,0,2-.59,2.76,2.76,0,0,0,1.16-1.56,2.44,2.44,0,0,0-.16-2,5.6,5.6,0,0,0-1.91-1.82l-3.58-2.23a9.11,9.11,0,0,1-2.05-1.66,4.61,4.61,0,0,1-1.09-2.07,5,5,0,0,1,.18-2.61,4.86,4.86,0,0,1,1.78-2.52,6.07,6.07,0,0,1,3-1.1,9,9,0,0,1,3.65.42,8.73,8.73,0,0,1,3.51,1.95,6,6,0,0,1,1.67,2.76,5.21,5.21,0,0,1-.06,2.93l-2.49-.78a3.77,3.77,0,0,0-.12-2.29,3.66,3.66,0,0,0-1.25-1.59,6.62,6.62,0,0,0-2-1,4.73,4.73,0,0,0-3.36,0,3,3,0,0,0-1.73,1.86,2.46,2.46,0,0,0,.17,2.07,5.45,5.45,0,0,0,1.87,1.72l3.49,2.18a7.73,7.73,0,0,1,2.33,2,4.68,4.68,0,0,1,.89,2.19,5.59,5.59,0,0,1-.23,2.28A4.9,4.9,0,0,1,251,225.4a6.17,6.17,0,0,1-3.06,1.16A9.57,9.57,0,0,1,244,226.09Z" transform="translate(0 -4.09)"/><path class="cls-1" d="M259,230.18l4.37-17-6.21-1.6.59-2.26,14.53,3.75-.59,2.26-5.85-1.51-4.37,16.95Z" transform="translate(0 -4.09)"/><path class="cls-1" d="M340.29,246.31l-15.61-2.4-.58,3.79-1.64-.25a11.65,11.65,0,0,0,.17-2.78,2.53,2.53,0,0,0-.58-1.51,2.3,2.3,0,0,0-1.24-.66l.27-1.79,19.61,3Z" transform="translate(0 -4.09)"/><path class="cls-1" d="M342.34,234.1,323,229.67l2.77-12,2.16.52-2.18,9.49,6.39,1.46,2-8.53,2.14.49-2,8.53,8.64,2Z" transform="translate(0 -4.09)"/><path class="cls-1" d="M348.13,212.84a8.56,8.56,0,0,1-2.49,4,7.72,7.72,0,0,1-4.19,1.83,15,15,0,0,1-10.53-3.25,7.92,7.92,0,0,1-2.46-3.9,8.56,8.56,0,0,1,.19-4.71,8.46,8.46,0,0,1,2.49-4,7.72,7.72,0,0,1,4.2-1.8,13.24,13.24,0,0,1,5.61.63,13.39,13.39,0,0,1,4.95,2.61,7.81,7.81,0,0,1,2.44,3.85A8.49,8.49,0,0,1,348.13,212.84Zm-2.11-.65a5.61,5.61,0,0,0,.12-3.23,5.18,5.18,0,0,0-1.9-2.65,12.51,12.51,0,0,0-4.08-2,12.85,12.85,0,0,0-4.56-.68,5.25,5.25,0,0,0-3.1,1.11,5.49,5.49,0,0,0-1.74,2.72,5.59,5.59,0,0,0-.09,3.23,5.42,5.42,0,0,0,1.94,2.69,12.48,12.48,0,0,0,4.14,2,12.34,12.34,0,0,0,4.49.65,5.27,5.27,0,0,0,3.07-1.15A5.65,5.65,0,0,0,346,212.19Z" transform="translate(0 -4.09)"/><path class="cls-1" d="M354.19,195.83a8.51,8.51,0,0,1-2.84,3.78,7.7,7.7,0,0,1-4.34,1.45,12.86,12.86,0,0,1-5.48-1.11,13.2,13.2,0,0,1-4.72-3.08,7.81,7.81,0,0,1-2.09-4.09,9.22,9.22,0,0,1,3.45-8.44,7.8,7.8,0,0,1,4.34-1.42,15.2,15.2,0,0,1,10.22,4.18,7.7,7.7,0,0,1,2.09,4.05A8.49,8.49,0,0,1,354.19,195.83Zm-2-.84a5.65,5.65,0,0,0,.41-3.21,5.17,5.17,0,0,0-1.65-2.8,12.4,12.4,0,0,0-3.9-2.33,12.94,12.94,0,0,0-4.47-1.1,5.39,5.39,0,0,0-3.19.83,5.52,5.52,0,0,0-2,2.56,5.59,5.59,0,0,0-.38,3.21,5.48,5.48,0,0,0,1.69,2.85,12.59,12.59,0,0,0,3.94,2.37,12.19,12.19,0,0,0,4.42,1,5.16,5.16,0,0,0,3.15-.87A5.59,5.59,0,0,0,352.15,195Z" transform="translate(0 -4.09)"/><path class="cls-1" d="M360.28,182l-15.53-8.07-2.95,5.68-2.07-1.07,6.92-13.32,2.07,1.08-2.79,5.37,15.53,8.07Z" transform="translate(0 -4.09)"/><path class="cls-1" d="M364.87,173.31l-16.64-10.79,3.47-5.35a9.31,9.31,0,0,1,4.09-3.87,4.44,4.44,0,0,1,4.24.52,4.53,4.53,0,0,1,1.82,2.16,5.91,5.91,0,0,1,0,3.41,6.54,6.54,0,0,1,1.67-1.27,4.28,4.28,0,0,1,1.61-.48,3.81,3.81,0,0,1,1.54.16,5.78,5.78,0,0,1,1.45.68,4.56,4.56,0,0,1,2.33,3.79,10.15,10.15,0,0,1-2,5.52Zm-7.94-8.17,2.35-3.63a8.18,8.18,0,0,0,.71-1.38,4.24,4.24,0,0,0,.33-1.47,3,3,0,0,0-.26-1.41,2.91,2.91,0,0,0-1.09-1.19,2.83,2.83,0,0,0-2.88-.28,6.39,6.39,0,0,0-2.57,2.43l-2.15,3.32Zm7.55,4.89,2.18-3.37a7.11,7.11,0,0,0,1.37-3.61,2.76,2.76,0,0,0-1.4-2.46,3.14,3.14,0,0,0-2.05-.57,3.72,3.72,0,0,0-1.88.83,7.63,7.63,0,0,0-1.62,1.83l-2.35,3.63Z" transform="translate(0 -4.09)"/><path class="cls-1" d="M372.81,161l-10.69-18.19,1.83-2.21,19.85,7.12-1.65,2-5.42-1.95L371.54,154l2.93,5Zm-2.64-9,4.31-5.21-9.54-3.51Z" transform="translate(0 -4.09)"/><path class="cls-1" d="M384.88,146.77l-13.69-14.35,1.87-1.79,12.13,12.69,6.77-6.47,1.58,1.64Z" transform="translate(0 -4.09)"/><path class="cls-1" d="M395,137.47l-12.06-15.75,2.06-1.58,10.68,13.93,7.43-5.7,1.39,1.81Z" transform="translate(0 -4.09)"/><path class="cls-1" d="M410.28,126.49l-9.53-17.39,10.83-5.94,1.06,2-8.54,4.69,3.15,5.74,7.67-4.2,1.06,1.92-7.68,4.21,4.26,7.77Z" transform="translate(0 -4.09)"/><path class="cls-1" d="M423,119.86l-8.13-18.09,2.32-1,8.13,18.09Z" transform="translate(0 -4.09)"/><path class="cls-1" d="M428.37,117.35l-6.69-18.67,11.78-4.22.74,2.11-9.36,3.36L427,106l8.43-3,.75,2.09-8.44,3,2.23,6.22,9.64-3.42.76,2.13Z" transform="translate(0 -4.09)"/><path class="cls-1" d="M442.45,112.53l-4.79-19.24,2.52-.63,4.25,17,9.09-2.26.55,2.2Z" transform="translate(0 -4.09)"/><path class="cls-1" d="M455.91,109.34,453,89.72l.58-.08,1.17-.17,1.44-.22,1.37-.18a13.74,13.74,0,0,1,6,.29,7.13,7.13,0,0,1,3.78,2.75,11.84,11.84,0,0,1,1.84,5.08,12.05,12.05,0,0,1-.31,5.64,7.48,7.48,0,0,1-2.95,3.85,13.32,13.32,0,0,1-5.71,2Zm2.26-2.55,1.72-.25a10.85,10.85,0,0,0,4.06-1.38,5.58,5.58,0,0,0,2.33-2.86,11.54,11.54,0,0,0-1.33-9,5.24,5.24,0,0,0-3-2,11.09,11.09,0,0,0-4.26-.09l-1.83.27Z" transform="translate(0 -4.09)"/></g><g id="P"><path class="cls-2" d="M298.59,664.87c1.38-155.11,35.71-253-39.93-314.53l-26.07-17.73" transform="translate(0 -4.09)"/><path class="cls-2" d="M266.39,334.37a243.48,243.48,0,0,1,10.9,34.88S54.5,387.34,3,200.53c0,0,5-.62,13.58-1" transform="translate(0 -4.09)"/><path class="cls-2" d="M320.31,664.87s41-375-67.21-502.9" transform="translate(0 -4.09)"/><path class="cls-2" d="M315.25,326.61s0-75.87,99.33-151.73" transform="translate(0 -4.09)"/><path class="cls-2" d="M177.81,437.11S265.24,400.35,306.48,450" transform="translate(0 -4.09)"/><path class="cls-2" d="M238.63,424S183,494.9,117,445.69C117,445.69,171.66,370,238.63,424Z" transform="translate(0 -4.09)"/><path class="cls-2" d="M388.74,368.2s36.3-82.43,112.47-51.11C501.21,317.09,467,404,388.74,368.2Z" transform="translate(0 -4.09)"/><path class="cls-2" d="M372.2,423s25.67-40.65,78.18-17C450.38,406,423.1,447.23,372.2,423Z" transform="translate(0 -4.09)"/><path class="cls-2" d="M327.91,504.51s6.62-154.71,143.82-177.9" transform="translate(0 -4.09)"/><path class="cls-2" d="M381.38,315.73s-26.53,55.83-31.7,105.69" transform="translate(0 -4.09)"/><path class="cls-2" d="M338.56,450s14.89-28.47,67.28-36.6" transform="translate(0 -4.09)"/><path class="cls-2" d="M154.84,165.4c-31.24-29.65-54.91-72.78-54-135.33" transform="translate(0 -4.09)"/><path class="cls-2" d="M475.65,96.85c2.63-.19,5.31-.34,8-.43,0,0,8.94,178.49-155.76,177.9,0,0-.07-6.41.95-16.8" transform="translate(0 -4.09)"/></g></g></svg>