<svg xmlns="http://www.w3.org/2000/svg" viewBox="0 0 656.51 808.35"><defs><style>.cls-1{fill:none;stroke-width:2px;}.cls-1,.cls-10,.cls-11,.cls-12,.cls-13,.cls-14,.cls-15,.cls-16,.cls-17,.cls-18,.cls-19,.cls-2,.cls-20,.cls-21,.cls-22,.cls-23,.cls-24,.cls-25,.cls-26,.cls-27,.cls-28,.cls-29,.cls-3,.cls-30,.cls-31,.cls-32,.cls-33,.cls-34,.cls-35,.cls-36,.cls-37,.cls-38,.cls-39,.cls-4,.cls-40,.cls-41,.cls-42,.cls-43,.cls-44,.cls-45,.cls-46,.cls-47,.cls-48,.cls-49,.cls-5,.cls-50,.cls-51,.cls-52,.cls-53,.cls-6,.cls-7,.cls-8,.cls-9{stroke:#eb3e94;stroke-miterlimit:10;}.cls-2{font-size:32.01px;}.cls-10,.cls-11,.cls-12,.cls-13,.cls-14,.cls-15,.cls-16,.cls-17,.cls-18,.cls-19,.cls-2,.cls-20,.cls-21,.cls-22,.cls-23,.cls-24,.cls-25,.cls-26,.cls-27,.cls-28,.cls-29,.cls-3,.cls-30,.cls-31,.cls-32,.cls-33,.cls-34,.cls-35,.cls-36,.cls-37,.cls-38,.cls-39,.cls-4,.cls-40,.cls-41,.cls-42,.cls-43,.cls-44,.cls-45,.cls-46,.cls-47,.cls-48,.cls-49,.cls-5,.cls-50,.cls-51,.cls-52,.cls-53,.cls-6,.cls-7,.cls-8,.cls-9{fill:#4f6337;font-family:MyriadPro-Regular, Myriad Pro;}.cls-3{font-size:32.01px;}.cls-4{font-size:32.01px;}.cls-5{font-size:32.01px;}.cls-6{font-size:32.01px;}.cls-7{font-size:32.01px;}.cls-8{font-size:32.01px;}.cls-9{font-size:32.01px;}.cls-10{font-size:32.01px;}.cls-11{font-size:32.01px;}.cls-12{font-size:32.01px;}.cls-13{font-size:32.01px;}.cls-14{font-size:32.01px;}.cls-15{font-size:32.01px;}.cls-16{font-size:32.01px;}.cls-17{font-size:32.01px;}.cls-18{font-size:32.01px;}.cls-19{font-size:32.01px;}.cls-20{font-size:32.01px;}.cls-21{font-size:32.01px;}.cls-22{font-size:32.01px;}.cls-23{font-size:32.01px;}.cls-24{font-size:32.01px;}.cls-25{font-size:32.01px;}.cls-26{font-size:32.01px;}.cls-27{font-size:32.01px;}.cls-28{font-size:32.01px;}.cls-29{font-size:32.01px;}.cls-30{font-size:32.01px;}.cls-31{font-size:32.01px;}.cls-32{font-size:32.01px;}.cls-33{font-size:32.01px;}.cls-34{font-size:32.01px;}.cls-35{font-size:32.01px;}.cls-36{font-size:32.01px;}.cls-37{font-size:32.01px;}.cls-38{font-size:32.01px;}.cls-39{font-size:32.01px;}.cls-40{font-size:32.01px;}.cls-41{font-size:32.01px;}.cls-42{font-size:32.01px;}.cls-43{font-size:32.01px;}.cls-44{font-size:32.01px;}.cls-45{font-size:32.01px;}.cls-46{font-size:32.01px;}.cls-47{font-size:32.01px;}.cls-48{font-size:32.01px;}.cls-49{font-size:32.01px;}.cls-50{font-size:32.01px;}.cls-51{font-size:32.01px;}.cls-52{font-size:32.01px;}.cls-53{font-size:32.01px;}</style></defs><title>Asset 4</title><g id="Layer_2" data-name="Layer 2"><g id="Layer_1-2" data-name="Layer 1"><path class="cls-1" d="M55.61,354.47s85.31-31,114.41,11.27"/><path class="cls-1" d="M342.51,537C320.74,598,293,700.28,301.94,808.16"/><path class="cls-1" d="M312,642.48s-45.08-111.92,59.8-180.74C371.79,461.74,424.26,574.86,312,642.48Z"/><path class="cls-1" d="M143.77,100.9s123.12,68.67,133.85,188"/><path class="cls-1" d="M134.29,345S60,302.46,1.52,369.47C1.52,369.47,75.89,417.3,134.29,345Z"/><path class="cls-1" d="M215.44,159.63s-19-83.45-107.89-81.18C107.55,78.45,122.68,165.58,215.44,159.63Z"/><path class="cls-1" d="M124.27,221.6s98.46,89.39,88,206.11"/><path class="cls-1" d="M258.94,470.19s31.32-35.94,82.57-58.85"/><text class="cls-2" transform="translate(353.09 421.45) rotate(-22.33)">B</text><text class="cls-3" transform="matrix(0.95, -0.32, 0.32, 0.95, 367.92, 415.26)">U</text><text class="cls-4" transform="matrix(0.96, -0.26, 0.26, 0.96, 386.29, 409.03)">T</text><text class="cls-5" transform="translate(400.61 405.2) rotate(-12.94)"> </text><text class="cls-6" transform="translate(406.1 403.8) rotate(-10.43)">B</text><text class="cls-7" transform="translate(422.06 400.95) rotate(-7.71)">I</text><text class="cls-8" transform="translate(428.39 399.87) rotate(-4.52)">G</text><text class="cls-4" transform="matrix(1, -0.02, 0.02, 1, 447.78, 398.49)"> </text><text class="cls-9" transform="matrix(1, 0, 0, 1, 453.61, 398.34)">I</text><text class="cls-10" transform="translate(459.89 398) rotate(4.3)">M</text><text class="cls-11" transform="translate(483.9 399.93) rotate(9.55)">P</text><text class="cls-12" transform="matrix(0.97, 0.23, -0.23, 0.97, 496.76, 401.92)">A</text><text class="cls-13" transform="matrix(0.95, 0.31, -0.31, 0.95, 513.93, 405.93)">C</text><text class="cls-14" transform="translate(531.11 411.48) rotate(21.96)">T</text><path class="cls-1" d="M260.25,434.23s43.91-78.56,131.17-118.37"/><text class="cls-15" transform="matrix(0.93, -0.36, 0.36, 0.93, 402.02, 323.79)">S</text><text class="cls-16" transform="matrix(0.96, -0.29, 0.29, 0.96, 415.29, 318.4)">M</text><text class="cls-17" transform="translate(438.15 311.63) rotate(-11.72)">A</text><text class="cls-18" transform="translate(456.04 307.95) rotate(-7.97)">L</text><text class="cls-19" transform="translate(469.77 306) rotate(-4.78)">L</text><text class="cls-20" transform="matrix(1, -0.04, 0.04, 1, 483.78, 304.89)"> </text><text class="cls-21" transform="matrix(1, 0, 0, 1, 489.46, 304.51)">P</text><text class="cls-16" transform="matrix(1, 0.05, -0.05, 1, 505.24, 304.46)">L</text><text class="cls-22" transform="translate(519.07 305.1) rotate(6.36)">A</text><text class="cls-23" transform="translate(537.25 307.07) rotate(10.05)">N</text><text class="cls-24" transform="translate(556.76 310.57) rotate(13.19)">T</text><text class="cls-8" transform="matrix(0.96, 0.27, -0.27, 0.96, 570.99, 313.88)">S</text><path class="cls-1" d="M270.93,328.89s20.42-45.74,63.53-82.33"/><text class="cls-25" transform="matrix(0.75, -0.66, 0.66, 0.75, 345.95, 247.48)">2</text><text class="cls-26" transform="translate(357.55 237.29) rotate(-39.45)">5</text><text class="cls-20" transform="translate(369.58 227.45) rotate(-38.22)"> </text><text class="cls-27" transform="translate(374.13 223.74) rotate(-36.76)">G</text><text class="cls-28" transform="translate(390.03 211.96) rotate(-35.32)"> </text><text class="cls-14" transform="translate(394.92 208.49) rotate(-34.6)">I</text><text class="cls-29" transform="matrix(0.84, -0.55, 0.55, 0.84, 400.4, 204.59)">N</text><text class="cls-30" transform="matrix(0.85, -0.52, 0.52, 0.85, 417.34, 193.64)"> </text><text class="cls-31" transform="translate(421.24 191.16) rotate(-30.65)">T</text><text class="cls-32" transform="translate(434.09 183.52) rotate(-28.95)">R</text><text class="cls-33" transform="translate(448.41 175.56) rotate(-27.05)">A</text><text class="cls-28" transform="translate(464.93 167.09) rotate(-24.99)">N</text><text class="cls-26" transform="matrix(0.92, -0.39, 0.39, 0.92, 483.13, 158.64)">S</text><text class="cls-34" transform="translate(496.77 152.78) rotate(-21.53)">P</text><text class="cls-35" transform="translate(511.67 146.84) rotate(-19.62)">O</text><text class="cls-36" transform="translate(531.51 139.79) rotate(-17.74)">R</text><text class="cls-18" transform="translate(547.28 134.75) rotate(-16.15)">T</text><text class="cls-25" transform="translate(561.74 130.58) rotate(-14.92)">/</text><text class="cls-37" transform="translate(571.48 127.94) rotate(-13.64)">R</text><text class="cls-38" transform="matrix(0.98, -0.21, 0.21, 0.98, 587.31, 124.1)">E</text><text class="cls-24" transform="translate(602.33 120.85) rotate(-10.72)">T</text><text class="cls-39" transform="translate(614.7 118.45) rotate(-9.4)">A</text><text class="cls-33" transform="translate(633.2 115.44) rotate(-8.25)">I</text><text class="cls-40" transform="translate(639.95 114.42) rotate(-7.32)">L</text><path class="cls-1" d="M306.93,179.75c-32.76,85.51-54.84,236-47.49,390.41"/><text class="cls-41" transform="translate(319.8 176.6) rotate(-65.43)">C</text><text class="cls-42" transform="translate(326.91 160.86) rotate(-62.01)">U</text><text class="cls-43" transform="translate(336.05 143.72) rotate(-58.57)">T</text><text class="cls-44" transform="matrix(0.57, -0.82, 0.82, 0.57, 343.57, 131.34)">S</text><text class="cls-12" transform="matrix(0.6, -0.8, 0.8, 0.6, 351.97, 119.25)"> </text><text class="cls-4" transform="translate(355.29 114.62) rotate(-50.81)">F</text><text class="cls-45" transform="matrix(0.69, -0.73, 0.73, 0.69, 364.11, 103.53)">O</text><text class="cls-42" transform="translate(378.11 88.61) rotate(-41.38)">O</text><text class="cls-42" transform="translate(393.41 75.06) rotate(-36.11)">D</text><text class="cls-46" transform="matrix(0.84, -0.54, 0.54, 0.84, 409.68, 63.41)"> </text><text class="cls-47" transform="translate(413.06 60.73) rotate(-28.86)">W</text><text class="cls-48" transform="translate(433.77 49.34) rotate(-23.57)">A</text><text class="cls-20" transform="translate(450.4 42.1) rotate(-19.31)">S</text><text class="cls-49" transform="matrix(0.96, -0.27, 0.27, 0.96, 464.01, 37.29)">T</text><text class="cls-50" transform="translate(478.05 33.34) rotate(-11.75)">E</text><text class="cls-51" transform="translate(492.35 30.45) rotate(-9.07)"> </text><text class="cls-52" transform="matrix(0.99, -0.11, 0.11, 0.99, 497.83, 29.39)">B</text><text class="cls-53" transform="translate(513.06 27.66) rotate(-1.17)">Y</text><path class="cls-1" d="M258.47,808.16s87-445.38-248.87-542.29"/><path class="cls-1" d="M142.81,479.48s109.91,157.26,95.75,328.68"/><path class="cls-1" d="M200.6,593.46s36.7-115-73-175.84C127.63,417.62,83.65,534.3,200.6,593.46Z"/><path class="cls-1" d="M195.78,324.35s6.61-120.48-114.85-151.83C80.93,172.52,67.71,296.51,195.78,324.35Z"/></g></g></svg>