<svg xmlns="http://www.w3.org/2000/svg" viewBox="0 0 503.21 663.26"><defs><style>.cls-1{fill:#eb3e94;}.cls-2{fill:none;stroke:#eb3e94;stroke-linecap:round;stroke-linejoin:round;stroke-width:5px;}</style></defs><title>Asset 22</title><g id="Layer_2" data-name="Layer 2"><g id="PT"><path class="cls-1" d="M28.64,209l.11-19.83,11.39.06v1.1l-10.32-.06,0,8.15,9.6.05v1.13l-9.6-.06-.05,8.32,10.7.09v1.12Z" transform="translate(0 -4.14)"/><path class="cls-1" d="M43.13,209.14l8.33-19.41,1.52.08L59.12,210,57.94,210,56,203.58l-9.09-.5-2.63,6.12Zm4.27-7.22,8.24.46-3.5-11.5Z" transform="translate(0 -4.14)"/><path class="cls-1" d="M69.44,211.33a7.66,7.66,0,0,1-4.17-1.6A7,7,0,0,1,63,206.07a18.09,18.09,0,0,1,1.2-11.17,7.08,7.08,0,0,1,3-3.13,7.65,7.65,0,0,1,4.42-.7,6.82,6.82,0,0,1,5.49,3.65,6.42,6.42,0,0,1,.75,3l-1.2-.13a6.65,6.65,0,0,0-.72-2.47,5.48,5.48,0,0,0-1.7-1.95,5.57,5.57,0,0,0-2.74-1,6.44,6.44,0,0,0-3.79.6,6.06,6.06,0,0,0-2.53,2.78,14.61,14.61,0,0,0-1.28,5q-.49,4.54.92,6.93a6.59,6.59,0,0,0,7.62,2.4,5.4,5.4,0,0,0,2.08-1.53,6.9,6.9,0,0,0,1.23-2.26l1.2.12A6.44,6.44,0,0,1,76,208.3,6.9,6.9,0,0,1,74.4,210a6.79,6.79,0,0,1-2.24,1.1A7,7,0,0,1,69.44,211.33Z" transform="translate(0 -4.14)"/><path class="cls-1" d="M80.69,212.37l3.24-19.57L85,193l-1.46,8.82,12.55,2.08,1.46-8.82,1.06.17L95.36,214.8l-1.06-.17L95.9,205l-12.56-2.08-1.59,9.64Z" transform="translate(0 -4.14)"/><path class="cls-1" d="M110,218l2.05-8.31-3.76-12.54,1.17.29,3.36,11.34,8.14-8.5,1.15.28L113,210l-2,8.28Z" transform="translate(0 -4.14)"/><path class="cls-1" d="M121.1,220.91l5.83-19,10.88,3.34-.32,1.05-9.86-3-2.4,7.79,9.18,2.82-.33,1.08-9.18-2.82-2.44,7.94,10.22,3.17-.33,1.08Z" transform="translate(0 -4.14)"/><path class="cls-1" d="M134.8,225.13l13.84-15.95,1.42.55-.3,21.11-1.1-.42.09-6.66-8.51-3.25-4.37,5Zm6.26-5.57,7.71,2.94.17-12Z" transform="translate(0 -4.14)"/><path class="cls-1" d="M153.13,232.32l8.44-17.95,6.33,3a8.7,8.7,0,0,1,2.74,1.89,4.33,4.33,0,0,1,1.19,2.37,4.73,4.73,0,0,1-.51,2.77,5.08,5.08,0,0,1-1.75,2.19,5,5,0,0,1-2.19.82,7.34,7.34,0,0,1-2.11-.06l-.39,10.51-1.12-.52.39-10.25-6-2.83-4,8.54Zm5.46-9.1,4.52,2.12a8.15,8.15,0,0,0,4.37,1,3.53,3.53,0,0,0,2.72-2.26,3.61,3.61,0,0,0,.16-3.32,6.24,6.24,0,0,0-3-2.42l-5.34-2.51Z" transform="translate(0 -4.14)"/><path class="cls-1" d="M176,243.87l5.85-19.76,1,.64-5.54,18.36,14.29-12.85.92.57L187,249.24l14.3-12.85,1,.63-15.39,13.75-1.27-.8,5.26-17.69-13.77,12.34Z" transform="translate(0 -4.14)"/><path class="cls-1" d="M193.73,255.58,206,240l9,7-.67.87-8.13-6.36-5,6.41,7.56,5.92-.69.89-7.56-5.92-5.12,6.55,8.4,6.61-.69.89Z" transform="translate(0 -4.14)"/><path class="cls-1" d="M214.64,274a7.64,7.64,0,0,1-2.2-3.84,7.24,7.24,0,0,1,.5-4.32,17.22,17.22,0,0,1,7.93-7.89,7.3,7.3,0,0,1,4.36-.52,7.49,7.49,0,0,1,3.85,2.19,6.33,6.33,0,0,1,1.36,2.05,7.83,7.83,0,0,1,.57,2.43,7.12,7.12,0,0,1-.24,2.44,5.39,5.39,0,0,1-1.08,2.1l-.85-.86a5.56,5.56,0,0,0,1-2.36,6.15,6.15,0,0,0-.14-2.66,5.21,5.21,0,0,0-1.38-2.34,6,6,0,0,0-7.07-1.38,13.55,13.55,0,0,0-4.17,3,14.64,14.64,0,0,0-2.49,3.15,7.89,7.89,0,0,0-1.05,3,5.61,5.61,0,0,0,.3,2.71,7,7,0,0,0,1.59,2.4,6.16,6.16,0,0,0,2.35,1.54,5.62,5.62,0,0,0,2.41.3,6.34,6.34,0,0,0,2.19-.59,6.2,6.2,0,0,0,1.68-1.14l1.63-1.63-3.91-3.93.68-.67,4.66,4.68-7.15,7.12-.76-.76,2.45-2.43a7.43,7.43,0,0,1-2.31.34,6.41,6.41,0,0,1-2.4-.5A7,7,0,0,1,214.64,274Z" transform="translate(0 -4.14)"/><path class="cls-1" d="M223.16,282.54,238.52,270l4.42,5.42a8.91,8.91,0,0,1,1.66,2.89,4.37,4.37,0,0,1,.05,2.65,4.83,4.83,0,0,1-1.66,2.28,5.1,5.1,0,0,1-2.53,1.22,5,5,0,0,1-2.32-.21,6.8,6.8,0,0,1-1.88-1l-4.9,9.32-.78-1,4.78-9.07-4.22-5.16-7.31,6Zm8.86-5.85,3.15,3.86a8.06,8.06,0,0,0,3.51,2.77,3.53,3.53,0,0,0,3.44-.86,3.57,3.57,0,0,0,1.57-2.92,6.21,6.21,0,0,0-1.61-3.46l-3.73-4.57Z" transform="translate(0 -4.14)"/><path class="cls-1" d="M237.29,301.6a7.91,7.91,0,0,1-1.43-4.23,7.44,7.44,0,0,1,1.3-4.23,14,14,0,0,1,4.09-3.9,14.32,14.32,0,0,1,5.21-2.3,7.62,7.62,0,0,1,4.43.42,7.83,7.83,0,0,1,3.36,2.94,7.69,7.69,0,0,1,1.41,4.22,7.38,7.38,0,0,1-1.34,4.21,16.78,16.78,0,0,1-9.31,6.2,7.43,7.43,0,0,1-4.37-.4A7.77,7.77,0,0,1,237.29,301.6Zm.93-.62a6.79,6.79,0,0,0,2.9,2.56,5.93,5.93,0,0,0,3.76.24,14.14,14.14,0,0,0,4.63-2.14,14.34,14.34,0,0,0,3.8-3.48,6.25,6.25,0,0,0,1.23-3.59,6.53,6.53,0,0,0-1.22-3.64,6.63,6.63,0,0,0-2.91-2.55,6.26,6.26,0,0,0-3.82-.27,13.78,13.78,0,0,0-4.67,2.13,13.57,13.57,0,0,0-3.75,3.47,6.13,6.13,0,0,0-1.19,3.61A6.78,6.78,0,0,0,238.22,301Z" transform="translate(0 -4.14)"/><path class="cls-1" d="M245.48,314.24l15.09-14,.55,1.06-14.12,13,18.85-3.79.49,1-14.07,13.06,18.85-3.78.54,1.05-20.25,4-.68-1.33,13.53-12.56-18.13,3.62Z" transform="translate(0 -4.14)"/><path class="cls-1" d="M40.56,248.83l.94-1.77.5-1a10.25,10.25,0,0,1,3.12-3.71,11.76,11.76,0,0,1,4-1.84,25.86,25.86,0,0,1,4.55-.7l4.7-.27a33,33,0,0,0,4.46-.55,11.53,11.53,0,0,0,3.87-1.53,8.42,8.42,0,0,0,2.89-3.26,6.74,6.74,0,0,0,.42-5.79,9.14,9.14,0,0,0-4.55-4.68,9,9,0,0,0-7-1,8.39,8.39,0,0,0-4.89,4l-1.91-1a10.73,10.73,0,0,1,3.64-3.81,10.15,10.15,0,0,1,5.16-1.51,12.36,12.36,0,0,1,6.08,1.6,12.11,12.11,0,0,1,4.29,3.59,8.78,8.78,0,0,1,1.69,4.62,9.4,9.4,0,0,1-1.17,5A10.27,10.27,0,0,1,68.29,239a12,12,0,0,1-4,1.82,25.52,25.52,0,0,1-4.52.69c-1.57.09-3.13.18-4.69.25a28.63,28.63,0,0,0-4.46.54,11.56,11.56,0,0,0-3.86,1.53,8.38,8.38,0,0,0-2.89,3.29l-.5.95,17,9-.94,1.78Z" transform="translate(0 -4.14)"/><path class="cls-1" d="M73.8,267a10.49,10.49,0,0,1-4.75-4.86,13.38,13.38,0,0,1-1-7.36,27,27,0,0,1,3.15-9.28,30.68,30.68,0,0,1,5.78-8,13.89,13.89,0,0,1,6.81-3.78A10.83,10.83,0,0,1,91.2,235a11.27,11.27,0,0,1,3.71,3.06,10,10,0,0,1,1.94,4.2,10.62,10.62,0,0,1-.22,4.89l-1.75-.93a8.44,8.44,0,0,0-.52-5.41,8.56,8.56,0,0,0-4-4.13,9.45,9.45,0,0,0-6.46-1.06,12.23,12.23,0,0,0-6.19,3.89,35.93,35.93,0,0,0-5.83,9.05,10.44,10.44,0,0,1,3.75-2.88,10.21,10.21,0,0,1,9.09.3,12.51,12.51,0,0,1,4.62,4A9.56,9.56,0,0,1,91,255.28a12.83,12.83,0,0,1-1.66,6.19,14.36,14.36,0,0,1-4.11,5,9.87,9.87,0,0,1-5.34,2A11.44,11.44,0,0,1,73.8,267Zm1.07-1.7a8.51,8.51,0,0,0,4.68,1.05,8.27,8.27,0,0,0,4.37-1.65,11.65,11.65,0,0,0,3.41-4.12,12.35,12.35,0,0,0,1.52-4.9,7.24,7.24,0,0,0-1-4.35,9.61,9.61,0,0,0-3.91-3.43,9.72,9.72,0,0,0-9,0,7.88,7.88,0,0,0-3.25,3.34,12.58,12.58,0,0,0-1.59,5.41,9.64,9.64,0,0,0,1.08,5A8.62,8.62,0,0,0,74.87,265.26Z" transform="translate(0 -4.14)"/><path class="cls-1" d="M102.55,281.5l4.76-9-15-7.94,1.11-2.12,25.49-12.27,2,1L110,271.62l5.54,2.92-.93,1.78-5.54-2.92-4.77,9ZM95,263.71l13.07,6.89L117.34,253Z" transform="translate(0 -4.14)"/><path class="cls-1" d="M109.69,291.4l4.86-3.57L113,287l1.82-3.46,3.59,1.89-1.55,2.95-5.79,3.75Z" transform="translate(0 -4.14)"/><path class="cls-1" d="M130.81,297a9.83,9.83,0,0,1-5.34-7.83q-.73-5.4,3.55-13.52a30.47,30.47,0,0,1,6.08-8.39,12.89,12.89,0,0,1,6.43-3.48,9.67,9.67,0,0,1,6.29,1,9.85,9.85,0,0,1,5.33,7.89q.73,5.47-3.58,13.66T140.35,297A9.92,9.92,0,0,1,130.81,297Zm1-1.73a7.64,7.64,0,0,0,7.83-.21q3.93-2.26,7.88-9.76t3.61-12.11A8,8,0,0,0,139,266.83q-4,2.24-8,9.77t-3.5,12A7.85,7.85,0,0,0,131.83,295.28Z" transform="translate(0 -4.14)"/><path class="cls-1" d="M155,309.76a9.83,9.83,0,0,1-5.34-7.83q-.74-5.4,3.54-13.52a30.48,30.48,0,0,1,6.09-8.39,12.89,12.89,0,0,1,6.43-3.48,9.67,9.67,0,0,1,6.29,1,9.84,9.84,0,0,1,5.32,7.89q.75,5.47-3.57,13.66t-9.22,10.59A9.92,9.92,0,0,1,155,309.76Zm1-1.73a7.64,7.64,0,0,0,7.83-.21q3.93-2.26,7.88-9.76t3.6-12.11a7.69,7.69,0,0,0-4.25-6.59,7.81,7.81,0,0,0-7.88.22q-4,2.24-8,9.77c-2.63,5-3.79,9-3.51,12A7.88,7.88,0,0,0,156,308Z" transform="translate(0 -4.14)"/><path class="cls-1" d="M179.19,322.51a9.83,9.83,0,0,1-5.34-7.83q-.73-5.42,3.54-13.52a30.47,30.47,0,0,1,6.08-8.39,13,13,0,0,1,6.44-3.48,9.67,9.67,0,0,1,6.29,1,9.84,9.84,0,0,1,5.32,7.89q.73,5.47-3.57,13.65t-9.22,10.6A9.92,9.92,0,0,1,179.19,322.51Zm1-1.73a7.64,7.64,0,0,0,7.83-.21q3.93-2.26,7.87-9.76t3.61-12.11a7.69,7.69,0,0,0-4.25-6.59,7.83,7.83,0,0,0-7.89.22q-4,2.24-8,9.77c-2.63,5-3.79,9-3.51,12A7.86,7.86,0,0,0,180.21,320.78Z" transform="translate(0 -4.14)"/><path class="cls-1" d="M89.35,302.88,91,287.66l.77.38-1.54,14.38,10.46-10,.77.38L90.39,303.39Z" transform="translate(0 -4.14)"/><path class="cls-1" d="M97.2,306.75l6.36-12.91,7.4,3.65-.35.72-6.71-3.31-2.61,5.3,6.25,3.08-.36.73-6.25-3.08-2.67,5.41,7,3.45-.37.73Z" transform="translate(0 -4.14)"/><path class="cls-1" d="M111.83,314.18a5.59,5.59,0,0,1-2.41-2.12,5.28,5.28,0,0,1-.67-3.08,12.47,12.47,0,0,1,3.59-7.27,5.25,5.25,0,0,1,2.87-1.39,5.52,5.52,0,0,1,3.16.6,4.77,4.77,0,0,1,1.41,1.09,5.33,5.33,0,0,1,1,1.53,5,5,0,0,1,.41,1.73,3.82,3.82,0,0,1-.25,1.69l-.78-.38a4,4,0,0,0,.1-1.85,4.28,4.28,0,0,0-.72-1.79,3.82,3.82,0,0,0-1.49-1.29,4.72,4.72,0,0,0-2.68-.5,4.66,4.66,0,0,0-2.5,1.22,9.76,9.76,0,0,0-2.16,3,11.26,11.26,0,0,0-1,2.75,5.66,5.66,0,0,0,0,2.28,4.06,4.06,0,0,0,.84,1.79,5.12,5.12,0,0,0,1.66,1.27,4.32,4.32,0,0,0,2,.5,4.28,4.28,0,0,0,1.73-.35,5,5,0,0,0,1.36-.92,4.47,4.47,0,0,0,.88-1.18l.74-1.5-3.61-1.78.31-.62,4.3,2.11-3.24,6.57-.69-.34,1.11-2.25a5.28,5.28,0,0,1-1.51.78,4.69,4.69,0,0,1-1.76.22A5.1,5.1,0,0,1,111.83,314.18Z" transform="translate(0 -4.14)"/><path class="cls-1" d="M119.94,318l6.36-12.91,7.41,3.65-.35.72-6.71-3.31-2.61,5.3,6.24,3.08-.36.73-6.25-3.08L121,317.55,128,321l-.36.73Z" transform="translate(0 -4.14)"/><path class="cls-1" d="M133.37,324.57l6-12.19L135,310.2l.35-.71,9.2,4.53-.35.71-4.07-2-6,12.19Z" transform="translate(0 -4.14)"/><path class="cls-1" d="M139.26,327.48l11.07-10.58,1,.49-1.65,15.22-.77-.38.52-4.8-5.93-2.92L140,327.84Zm4.9-3.6,5.37,2.65.93-8.67Z" transform="translate(0 -4.14)"/><path class="cls-1" d="M152.28,333.9,158.64,321l3.63,1.79a6.41,6.41,0,0,1,2.94,2.51,3.21,3.21,0,0,1,0,3.08,3.35,3.35,0,0,1-1.49,1.57,4.17,4.17,0,0,1-2.55.18,5.19,5.19,0,0,1,1.07,1,3.34,3.34,0,0,1,.58,1.1,2.87,2.87,0,0,1,.09,1.17,3.76,3.76,0,0,1-.4,1.26,3.23,3.23,0,0,1-2.54,2,7,7,0,0,1-4-.89Zm1.06-.39,2.89,1.42a7.44,7.44,0,0,0,3.44,1,2.35,2.35,0,0,0,2.08-1.48,2.78,2.78,0,0,0,.28-1.93,3.38,3.38,0,0,0-1-1.6,8,8,0,0,0-1.86-1.25L156,328.08Zm3-6.16,3.14,1.55a8.23,8.23,0,0,0,1.29.5,4.39,4.39,0,0,0,1.38.2,2.42,2.42,0,0,0,2.26-1.49,2.47,2.47,0,0,0-.07-2.6,6.14,6.14,0,0,0-2.54-2.05L159,322.05Z" transform="translate(0 -4.14)"/><path class="cls-1" d="M163.63,339.49l6.38-12.9.75.37-6,12.14,6.59,3.24-.38.77Z" transform="translate(0 -4.14)"/><path class="cls-1" d="M173.58,344.39l6.35-12.91,7.41,3.65-.35.72-6.71-3.31-2.61,5.3,6.24,3.08-.36.73-6.24-3.08L174.64,344l7,3.45-.36.73Z" transform="translate(0 -4.14)"/><path class="cls-1" d="M187.87,351.65a7.19,7.19,0,0,1-1.59-1,5.31,5.31,0,0,1-1.09-1.34,3.94,3.94,0,0,1-.51-1.55,4.16,4.16,0,0,1,.15-1.7l.79.39a3.37,3.37,0,0,0,0,1.84,4.09,4.09,0,0,0,1,1.57,5.69,5.69,0,0,0,1.6,1.15,5.28,5.28,0,0,0,2,.57,3.5,3.5,0,0,0,1.79-.31,2.58,2.58,0,0,0,1.21-1.23,2.42,2.42,0,0,0,.21-1.74,4.12,4.12,0,0,0-1.3-1.85l-2.48-2.26a7.32,7.32,0,0,1-1.11-1.29,3.37,3.37,0,0,1,1.28-4.65,4,4,0,0,1,2.07-.47,5.62,5.62,0,0,1,2.34.61,5.44,5.44,0,0,1,2.13,1.71,4.17,4.17,0,0,1,.78,2.07,3.61,3.61,0,0,1-.35,1.92l-.79-.39a3.42,3.42,0,0,0,.22-2,3.34,3.34,0,0,0-.87-1.54,5.61,5.61,0,0,0-1.49-1.07,4.08,4.08,0,0,0-2.87-.44A2.72,2.72,0,0,0,189.2,340a2.18,2.18,0,0,0-.15,1.85,4.89,4.89,0,0,0,1.27,1.69l2.53,2.3a4.86,4.86,0,0,1,1.24,1.59,3.1,3.1,0,0,1,.29,1.51,3.83,3.83,0,0,1-.38,1.38,3.45,3.45,0,0,1-1.4,1.5,4,4,0,0,1-2.13.5A6.17,6.17,0,0,1,187.87,351.65Z" transform="translate(0 -4.14)"/><path class="cls-1" d="M102.09,23.82l2.44-19.68,11.3,1.4-.14,1.09L105.46,5.36l-1,8.09L114,14.63l-.14,1.11-9.53-1.18-1,8.25,10.61,1.34-.14,1.12Z" transform="translate(0 -4.14)"/><path class="cls-1" d="M130.89,31.7a6.85,6.85,0,0,1-1.57-.56,6.21,6.21,0,0,1-1.8-1.32,5.57,5.57,0,0,1-1.31-2.35c-.44,0-.87,0-1.26,0a8.57,8.57,0,0,1-1.16-.13,8,8,0,0,1-4-1.9,7.4,7.4,0,0,1-2.13-3.84,14.06,14.06,0,0,1,.08-5.73,14.2,14.2,0,0,1,2-5.36,7.35,7.35,0,0,1,3.37-2.86,8.59,8.59,0,0,1,8.47,1.6,7.32,7.32,0,0,1,2.08,3.89,14.61,14.61,0,0,1-.1,5.72,14.58,14.58,0,0,1-2.07,5.47,7.26,7.26,0,0,1-4,2.92,4.34,4.34,0,0,0,1.37,2.29,5.51,5.51,0,0,0,2.25,1.1ZM124,26.21a6.1,6.1,0,0,0,5.4-1.24c1.45-1.23,2.45-3.35,3-6.35s.4-5.26-.46-7a6,6,0,0,0-4.59-3.23,6,6,0,0,0-5.44,1.34q-2.16,2-3,6.39t.51,7A6.1,6.1,0,0,0,124,26.21Z" transform="translate(0 -4.14)"/><path class="cls-1" d="M142,31.32a8.28,8.28,0,0,1-3.41-1.62A4.55,4.55,0,0,1,137,27a9.14,9.14,0,0,1,.27-3.9l3.26-12.87,1.14.29-3.37,13.32a5.39,5.39,0,0,0,.31,4.16,5.39,5.39,0,0,0,3.59,2.32,7.09,7.09,0,0,0,3.12.18,4,4,0,0,0,2.22-1.28,6.43,6.43,0,0,0,1.31-2.7l3.38-13.32,1,.26-3.37,13.27A7.84,7.84,0,0,1,148.36,30a4.74,4.74,0,0,1-2.65,1.53A8.4,8.4,0,0,1,142,31.32Z" transform="translate(0 -4.14)"/><path class="cls-1" d="M151.21,33.41l13-16.67,1.45.46.85,21.1-1.13-.36-.27-6.65-8.67-2.78-4.09,5.25Zm5.95-5.9L165,30l-.49-12Z" transform="translate(0 -4.14)"/><path class="cls-1" d="M169.52,39.46,176.71,21l1.08.42-6.74,17.39,9.44,3.66-.43,1.1Z" transform="translate(0 -4.14)"/><path class="cls-1" d="M191.67,48.84,199.83,32l-6.12-3,.48-1,12.72,6.16-.47,1-5.63-2.73-8.17,16.87Z" transform="translate(0 -4.14)"/><path class="cls-1" d="M206.23,56.84a7.92,7.92,0,0,1-3.15-3.17,7.44,7.44,0,0,1-.7-4.37,14,14,0,0,1,2-5.31A14,14,0,0,1,208,39.64a7.47,7.47,0,0,1,4.15-1.58,8.51,8.51,0,0,1,7.45,4.31,7.44,7.44,0,0,1,.66,4.37,14.56,14.56,0,0,1-2,5.34,14.21,14.21,0,0,1-3.62,4.33A7.38,7.38,0,0,1,210.52,58,7.74,7.74,0,0,1,206.23,56.84Zm.56-1a6.69,6.69,0,0,0,3.73,1A6.11,6.11,0,0,0,214,55.44a14.3,14.3,0,0,0,3.2-4,14.17,14.17,0,0,0,1.87-4.8,6.18,6.18,0,0,0-.48-3.77,7.36,7.36,0,0,0-6.43-3.73,6.3,6.3,0,0,0-3.55,1.44,13.68,13.68,0,0,0-3.25,4,13.69,13.69,0,0,0-1.84,4.77,6.25,6.25,0,0,0,.53,3.77A6.8,6.8,0,0,0,206.79,55.86Z" transform="translate(0 -4.14)"/><path class="cls-1" d="M224.19,68.23l11.16-15.05-5.47-4,.66-.88,11.35,8.42-.65.88-5-3.72-11.16,15Z" transform="translate(0 -4.14)"/><path class="cls-1" d="M231.94,74.06l13.29-14.72.79.72-6,6.64,9.45,8.53,6-6.64.79.72L243,84l-.79-.72,6.54-7.25-9.44-8.53-6.55,7.25Z" transform="translate(0 -4.14)"/><path class="cls-1" d="M245.74,86.93l14.79-13.22,7.58,8.49-.81.73-6.88-7.69-6.07,5.43,6.4,7.16-.84.75-6.4-7.16L247.31,87l7.11,8-.84.75Z" transform="translate(0 -4.14)"/><path class="cls-1" d="M257.86,101l20.53-4.92.85,1.26-12.53,17-.65-1L270,108l-5-7.59L258.49,102Zm8.33-.89,4.56,6.88,7.13-9.68Z" transform="translate(0 -4.14)"/><path class="cls-1" d="M268,116.67l17.75-8.85.39.78-10.5,18.58,15.83-7.9.48,1-17.75,8.85-.42-.83,10.48-18.51-15.78,7.88Z" transform="translate(0 -4.14)"/><path class="cls-1" d="M276,133.22l18.71-6.59.29.82-12.73,17.14L299,138.71l.36,1-18.71,6.59-.31-.88L293,128.36l-16.64,5.87Z" transform="translate(0 -4.14)"/><path class="cls-1" d="M283.11,157.17a8.14,8.14,0,0,1-.12-3.77,4.61,4.61,0,0,1,1.71-2.6,9.26,9.26,0,0,1,3.59-1.55l12.94-3,.26,1.15-13.39,3.09a4.74,4.74,0,0,0-4,6.43,7,7,0,0,0,1.27,2.85,4,4,0,0,0,2.15,1.4,6.57,6.57,0,0,0,3-.07L303.94,158l.24,1-13.34,3.08a7.85,7.85,0,0,1-3.65.09,4.58,4.58,0,0,1-2.57-1.65A8.33,8.33,0,0,1,283.11,157.17Z" transform="translate(0 -4.14)"/><path class="cls-1" d="M285.36,166,306,170.68l.2,1.51-18.76,9.69-.15-1.17,5.91-3.06-1.15-9-6.49-1.48Zm7.87,2.9,1,8.19L305,171.55Z" transform="translate(0 -4.14)"/><path class="cls-1" d="M287.52,184.92l19.82-.87.05,1.15-18.63.85.46,10.11-1.18.05Z" transform="translate(0 -4.14)"/><path class="cls-1" d="M156.52,180.44l12-15.76.85.65L164,172.44l10.11,7.73,5.43-7.11.85.65-12,15.76-.85-.65,5.93-7.76-10.12-7.73-5.92,7.76Z" transform="translate(0 -4.14)"/><path class="cls-1" d="M172,192l16.72-12.9,1.29.81-4.47,20.64-1-.63,1.4-6.51-7.7-4.87-5.28,4.07Zm7.24-4.23,7,4.41,2.53-11.75Z" transform="translate(0 -4.14)"/><path class="cls-1" d="M189.52,202.82l9.29-17.52,6.18,3.28a8.8,8.8,0,0,1,2.65,2,4.36,4.36,0,0,1,1.07,2.43,4.79,4.79,0,0,1-.64,2.74,5.1,5.1,0,0,1-1.86,2.1,4.91,4.91,0,0,1-2.22.71,7.12,7.12,0,0,1-2.1-.16L201,208.9l-1.09-.58.88-10.21L194.89,195l-4.42,8.33Zm5.89-8.83,4.42,2.34a8,8,0,0,0,4.31,1.19A3.52,3.52,0,0,0,207,195.4a3.6,3.6,0,0,0,.31-3.31,6.2,6.2,0,0,0-2.83-2.56l-5.21-2.76Z" transform="translate(0 -4.14)"/><path class="cls-1" d="M210.19,213.17l1.48-21.06,1.07.48-1.38,19.89,13.91-14.29,1.07.48-14.7,15.15Z" transform="translate(0 -4.14)"/><path class="cls-1" d="M222.1,218.29l7-18.56,10.65,4-.38,1-9.65-3.64-2.88,7.62,9,3.39-.4,1-9-3.39-2.93,7.78,10,3.8-.4,1.05Z" transform="translate(0 -4.14)"/><path class="cls-1" d="M243.18,226a9.54,9.54,0,0,1-2.39-1.1,7.56,7.56,0,0,1-1.77-1.59,5.82,5.82,0,0,1-1-2,5.91,5.91,0,0,1-.14-2.35l1.15.36a4.65,4.65,0,0,0,.45,2.5,5.59,5.59,0,0,0,1.63,1.94A7.9,7.9,0,0,0,243.5,225a7.41,7.41,0,0,0,2.89.36,4.86,4.86,0,0,0,2.38-.81,3.55,3.55,0,0,0,1.39-1.92,3.38,3.38,0,0,0-.08-2.41,5.65,5.65,0,0,0-2.16-2.25l-3.86-2.57a9.48,9.48,0,0,1-1.77-1.52,4.26,4.26,0,0,1-1-1.88,5,5,0,0,1,1.77-4.73,5.56,5.56,0,0,1,2.72-1.07,7.67,7.67,0,0,1,3.31.34,7.5,7.5,0,0,1,3.27,1.89,5.74,5.74,0,0,1,1.5,2.65,5,5,0,0,1-.08,2.69l-1.15-.36a4.64,4.64,0,0,0-.13-2.8,4.49,4.49,0,0,0-1.5-1.91,7.59,7.59,0,0,0-2.27-1.15,5.59,5.59,0,0,0-4,0,3.72,3.72,0,0,0-2.16,2.38,3,3,0,0,0,.18,2.55,6.52,6.52,0,0,0,2.08,2l3.93,2.61a6.73,6.73,0,0,1,2,1.91,4.2,4.2,0,0,1,.7,2,5.12,5.12,0,0,1-.22,1.95,4.73,4.73,0,0,1-1.6,2.34,5.46,5.46,0,0,1-2.8,1.13A8.42,8.42,0,0,1,243.18,226Z" transform="translate(0 -4.14)"/><path class="cls-1" d="M259,230.29l4.68-18.14-6.59-1.7.28-1.07L271,212.92l-.27,1.06-6.06-1.56L260,230.56Z" transform="translate(0 -4.14)"/><path class="cls-1" d="M339.83,246l-16.52-2.54-.62,4.07-1.06-.16a14.83,14.83,0,0,0,.23-2.78,1.94,1.94,0,0,0-.46-1.33,2.14,2.14,0,0,0-1.15-.49l.15-1,19.6,3Z" transform="translate(0 -4.14)"/><path class="cls-1" d="M342,233.72l-19.33-4.44,2.51-10.93,1.07.24L324,228.38l7.91,1.81L334,221.1l1.1.26L333,230.45l9.25,2.12Z" transform="translate(0 -4.14)"/><path class="cls-1" d="M347.52,213.27a7.87,7.87,0,0,1-2.37,3.78,7.51,7.51,0,0,1-4.1,1.67,16.46,16.46,0,0,1-10.68-3.3,7.45,7.45,0,0,1-2.47-3.69,7.76,7.76,0,0,1,.15-4.46,7.67,7.67,0,0,1,2.37-3.76,7.35,7.35,0,0,1,4.11-1.62,14.47,14.47,0,0,1,5.65.73,14.17,14.17,0,0,1,5,2.56,7.35,7.35,0,0,1,2.45,3.64A7.64,7.64,0,0,1,347.52,213.27Zm-1.07-.33a6.71,6.71,0,0,0,.16-3.87,6,6,0,0,0-2.19-3.07,16.9,16.9,0,0,0-9.69-3,6.2,6.2,0,0,0-3.56,1.32,6.5,6.5,0,0,0-2.05,3.25,6.66,6.66,0,0,0-.14,3.86,6.31,6.31,0,0,0,2.21,3.13,16.17,16.17,0,0,0,9.67,3,6.13,6.13,0,0,0,3.55-1.36A6.75,6.75,0,0,0,346.45,212.94Z" transform="translate(0 -4.14)"/><path class="cls-1" d="M353.58,196.22a7.86,7.86,0,0,1-2.7,3.55,7.41,7.41,0,0,1-4.23,1.29,14,14,0,0,1-5.53-1.21,14.25,14.25,0,0,1-4.82-3,7.58,7.58,0,0,1-2.13-3.9,7.81,7.81,0,0,1,.55-4.43,7.71,7.71,0,0,1,2.71-3.53,7.34,7.34,0,0,1,4.23-1.25,14.56,14.56,0,0,1,5.57,1.24,14.32,14.32,0,0,1,4.78,3,7.35,7.35,0,0,1,2.12,3.85A7.7,7.7,0,0,1,353.58,196.22Zm-1-.43a6.77,6.77,0,0,0,.51-3.83,6,6,0,0,0-1.91-3.26,16.78,16.78,0,0,0-9.38-3.83,6.2,6.2,0,0,0-3.66,1,6.63,6.63,0,0,0-2.34,3,6.75,6.75,0,0,0-.48,3.84,6.29,6.29,0,0,0,1.92,3.32,13.68,13.68,0,0,0,4.38,2.67,13.42,13.42,0,0,0,5,1.16,6.16,6.16,0,0,0,3.65-1A6.75,6.75,0,0,0,352.54,195.79Z" transform="translate(0 -4.14)"/><path class="cls-1" d="M360,181.6,343.37,173l-3.13,6-1-.51,6.53-12.54,1,.5L343.87,172l16.63,8.65Z" transform="translate(0 -4.14)"/><path class="cls-1" d="M364.58,173.06l-16.64-10.79,3-4.67a8.73,8.73,0,0,1,3.92-3.63,4.39,4.39,0,0,1,4.2.53,4.53,4.53,0,0,1,1.91,2.3,5.65,5.65,0,0,1-.15,3.51,7,7,0,0,1,1.54-1.3,4.69,4.69,0,0,1,1.59-.62,3.91,3.91,0,0,1,1.63.07,5.33,5.33,0,0,1,1.65.74,4.5,4.5,0,0,1,2.27,3.8,9.79,9.79,0,0,1-1.87,5.32Zm-8.3-6.66,2.62-4.05a12.35,12.35,0,0,0,.91-1.69,6.57,6.57,0,0,0,.49-1.86A3.56,3.56,0,0,0,360,157a3.46,3.46,0,0,0-1.39-1.53,3.42,3.42,0,0,0-3.58-.32,8.45,8.45,0,0,0-3.22,3.14L349.44,162Zm7.94,5.15,2.42-3.73a10.19,10.19,0,0,0,1.86-4.55,3.23,3.23,0,0,0-1.69-3.08,3.74,3.74,0,0,0-2.59-.7,4.61,4.61,0,0,0-2.36,1.12,11.18,11.18,0,0,0-2,2.35l-2.63,4Z" transform="translate(0 -4.14)"/><path class="cls-1" d="M372.56,160.76,361.9,142.52l1-1.17,19.9,7.07-.75.9-6.28-2.22-5.81,7,3.36,5.75ZM369.29,153l5.27-6.36-11.33-4Z" transform="translate(0 -4.14)"/><path class="cls-1" d="M384.74,146.53l-13.68-14.36.83-.79,12.89,13.48,7.32-7,.81.85Z" transform="translate(0 -4.14)"/><path class="cls-1" d="M394.75,137.25l-12-15.75.91-.71L395,135.6l8-6.16.72.93Z" transform="translate(0 -4.14)"/><path class="cls-1" d="M410.08,126.34,400.55,109l9.84-5.39.53,1-8.81,4.83,3.91,7.12,8.17-4.49.54,1-8.17,4.48,4.56,8.32Z" transform="translate(0 -4.14)"/><path class="cls-1" d="M422.87,119.71l-8.13-18.09,1-.43,8.13,18.09Z" transform="translate(0 -4.14)"/><path class="cls-1" d="M428.25,117.28l-6.69-18.67,10.72-3.84.37,1-9.71,3.48,2.74,7.67,9-3.23.38,1-9,3.24,2.81,7.83L439,112.26l.38,1Z" transform="translate(0 -4.14)"/><path class="cls-1" d="M442.39,112.47l-4.77-19.25,1.11-.28,4.52,18.1,9.82-2.45.29,1.14Z" transform="translate(0 -4.14)"/><path class="cls-1" d="M455.81,109.25l-2.95-19.61.31,0,.73-.1,1-.15,1.19-.17a14.34,14.34,0,0,1,6.05.17A6.78,6.78,0,0,1,465.94,92a14.61,14.61,0,0,1,1.56,11.07,7.11,7.11,0,0,1-3,3.77,14.8,14.8,0,0,1-5.81,1.95Zm1-1.28,1.63-.25a14.71,14.71,0,0,0,5.16-1.64,6.21,6.21,0,0,0,2.78-3.25,10.77,10.77,0,0,0,.29-5.28,10.6,10.6,0,0,0-1.88-5.09,6,6,0,0,0-3.6-2.16,15.33,15.33,0,0,0-5.2,0l-1.79.27Z" transform="translate(0 -4.14)"/></g><g id="P"><path class="cls-2" d="M298.09,664.9c1.38-155.11,35.71-253-39.93-314.53l-26.07-17.72" transform="translate(0 -4.14)"/><path class="cls-2" d="M265.89,334.41a242.94,242.94,0,0,1,10.9,34.87S54,387.38,2.5,200.56c0,0,5-.62,13.58-1" transform="translate(0 -4.14)"/><path class="cls-2" d="M319.81,664.9s41-375-67.21-502.89" transform="translate(0 -4.14)"/><path class="cls-2" d="M314.75,326.64s0-75.86,99.33-151.73" transform="translate(0 -4.14)"/><path class="cls-2" d="M177.31,437.14S264.74,400.39,306,450.05" transform="translate(0 -4.14)"/><path class="cls-2" d="M238.13,424.06s-55.59,70.88-121.63,21.66C116.5,445.72,171.16,370,238.13,424.06Z" transform="translate(0 -4.14)"/><path class="cls-2" d="M388.24,368.24s36.3-82.44,112.47-51.12C500.71,317.12,466.51,404,388.24,368.24Z" transform="translate(0 -4.14)"/><path class="cls-2" d="M371.7,423.06s25.67-40.66,78.18-17C449.88,406,422.6,447.26,371.7,423.06Z" transform="translate(0 -4.14)"/><path class="cls-2" d="M327.41,504.54S334,349.83,471.23,326.64" transform="translate(0 -4.14)"/><path class="cls-2" d="M380.88,315.76s-26.53,55.83-31.7,105.69" transform="translate(0 -4.14)"/><path class="cls-2" d="M338.06,450.05s14.89-28.47,67.28-36.6" transform="translate(0 -4.14)"/><path class="cls-2" d="M154.34,165.43c-31.24-29.65-54.91-72.78-54-135.33" transform="translate(0 -4.14)"/><path class="cls-2" d="M475.15,96.88q3.94-.28,8-.43s8.94,178.49-155.76,177.9c0,0-.07-6.41.95-16.8" transform="translate(0 -4.14)"/></g></g></svg>