<svg xmlns="http://www.w3.org/2000/svg" viewBox="0 0 279.15 594.59"><defs><style>.cls-1{fill:none;stroke:#eb3e94;stroke-linecap:round;stroke-linejoin:round;stroke-width:5px;}</style></defs><title>Asset 16</title><g id="Layer_2" data-name="Layer 2"><g id="IMPACT"><path class="cls-1" d="M144.77,2.5s71.11,280,17.09,589.59"/><path class="cls-1" d="M61.25,115c71,19.18,103.41,56.12,114.26,86.58"/><path class="cls-1" d="M178.31,237.21s13.45-73.3,70.27-122.25"/><path class="cls-1" d="M2.5,259.84s102.89-45.27,177,16.23"/><path class="cls-1" d="M18.06,223.13c7.84,7.09,27.42,19.48,69.36,20.69"/><path class="cls-1" d="M132.25,250.66S62,245,38.29,285.6"/><line class="cls-1" x1="201.17" y1="364.9" x2="180.3" y2="423.7"/><path class="cls-1" d="M178.31,237.21S190.73,160.4,265.45,178"/><path class="cls-1" d="M91,314.32c72.47,11.52,93.44,64.21,89.32,109.38"/><path class="cls-1" d="M169.47,364.9c-.68.85-62.31-55.75-144.38-7"/><path class="cls-1" d="M179.46,96.43s-9,21.87-10.27,46"/><path class="cls-1" d="M178.31,468.44s17.41-61.82,98.34-89.91"/><path class="cls-1" d="M75.2,178s36.36-38.58,66.81-23"/><path class="cls-1" d="M116,152.57s-18.71,8-7.39,35.23"/><path class="cls-1" d="M97.28,64.22s-13.41,47.07,22.09,74.55"/><path class="cls-1" d="M119.37,83.37s-25.8,17.25-12.29,42.77"/></g></g></svg>