<svg xmlns="http://www.w3.org/2000/svg" viewBox="0 0 512.37 741.85"><defs><style>.cls-1{fill:#eb3e94;}.cls-2{fill:none;stroke:#eb3e94;stroke-linecap:round;stroke-linejoin:round;stroke-width:6px;}</style></defs><title>Asset 30</title><g id="Layer_2" data-name="Layer 2"><g id="PT"><path class="cls-1" d="M31.86,288.66l-18.14,8L8.65,285.26l2-.89,4,9.09,5.92-2.62L17,282.65l2-.9,3.64,8.2,6-2.68-4.12-9.37,2.07-.91Z" transform="translate(-4.14)"/><path class="cls-1" d="M26.61,277.6,5.8,274.13l-.52-2.82,18.2-10.65.47,2.55-5,2.9,1.48,8,5.68.94ZM18,273.87l-1.23-6.65L8,272.28Z" transform="translate(-4.14)"/><path class="cls-1" d="M24.5,253A8.18,8.18,0,0,1,23,257.5a7.81,7.81,0,0,1-3.7,2.65,13.86,13.86,0,0,1-5.58.63,13.65,13.65,0,0,1-5.41-1.35,7.43,7.43,0,0,1-3.25-3.09,8.44,8.44,0,0,1-.89-4.64,7.83,7.83,0,0,1,1.11-3.65,7.2,7.2,0,0,1,2.49-2.45,6.87,6.87,0,0,1,3.27-1l-.18,2.7a5.9,5.9,0,0,0-2.16.7,4.65,4.65,0,0,0-1.61,1.51,4.83,4.83,0,0,0-.72,2.36A5.24,5.24,0,0,0,7,255a5.1,5.1,0,0,0,2.47,2,13.39,13.39,0,0,0,4.44.93q4.14.27,6.17-1a4.78,4.78,0,0,0,2.2-4,4.53,4.53,0,0,0-.43-2.43,4.7,4.7,0,0,0-1.47-1.72,6.1,6.1,0,0,0-2.08-1l.18-2.7a8.44,8.44,0,0,1,2.38.84,7,7,0,0,1,2,1.58,6.66,6.66,0,0,1,1.3,2.34A8.26,8.26,0,0,1,24.5,253Z" transform="translate(-4.14)"/><path class="cls-1" d="M24.83,245.1,6,238.77l.81-2.41,8,2.7,3.42-10.14-8-2.7.81-2.4,18.8,6.34-.81,2.4-8.67-2.92L17,239.78l8.67,2.92Z" transform="translate(-4.14)"/><path class="cls-1" d="M35.91,220.85l-6.77-5.07L16,214.37l1.66-2.22,10.46,1.26-4.19-9.62,1.67-2.23,5.09,12.21,6.75,5.06Z" transform="translate(-4.14)"/><path class="cls-1" d="M41.44,213.7l-13-14.94,9.43-8.22,1.46,1.69-7.5,6.54,4.26,4.88,6.75-5.89,1.46,1.67-6.76,5.9,4.35,5,7.73-6.71,1.48,1.71Z" transform="translate(-4.14)"/><path class="cls-1" d="M50.54,205.49,47.6,184.6l2.53-1.34,15.63,14.17-2.29,1.21-4.26-3.87L52,198.58l.81,5.7Zm1-9.3,6-3.17L50,186.13Z" transform="translate(-4.14)"/><path class="cls-1" d="M66.2,197.51,61.28,178.3l7.44-1.91a8.78,8.78,0,0,1,3.63-.25,4.56,4.56,0,0,1,2.55,1.27A5.65,5.65,0,0,1,76.31,180a5.55,5.55,0,0,1,.11,2.75,5.11,5.11,0,0,1-1,2,7.58,7.58,0,0,1-1.52,1.43l6,7.75-2.61.66-5.62-7.38-5.17,1.33,2.12,8.27ZM66,186.57l4.18-1.07a5.7,5.7,0,0,0,3.13-1.74,3.21,3.21,0,0,0,.51-2.93,3.14,3.14,0,0,0-1.71-2.26,4.67,4.67,0,0,0-3.1-.1l-4.78,1.22Z" transform="translate(-4.14)"/><path class="cls-1" d="M88.55,193.45l-3.88-20.27,2.55.23,2.93,16.12,5.9-15.31,2,.18,3,16.13,5.9-15.31,2.54.23-7.58,19.22-2.33-.21-2.93-15.71-5.8,14.91Z" transform="translate(-4.14)"/><path class="cls-1" d="M107.13,195.93l7-18.55,11.7,4.44-.81,2.08-9.3-3.52-2.29,6.05,8.38,3.18-.79,2.07-8.39-3.18-2.34,6.19,9.56,3.65-.81,2.11Z" transform="translate(-4.14)"/><path class="cls-1" d="M124.17,203.43l12-15.79,5.34,4.06a9.47,9.47,0,0,1,2.58,2.87,5.88,5.88,0,0,1,.8,3.26,6.05,6.05,0,0,1-1.32,3.32,6.2,6.2,0,0,1-2.76,2.15,5.65,5.65,0,0,1-3.24.2,8.62,8.62,0,0,1-3.35-1.64l-3.54-2.69L126.25,205Zm7.81-6,3.5,2.67a4.75,4.75,0,0,0,3.33,1.1,3.9,3.9,0,0,0,2.89-1.69,3.54,3.54,0,0,0,.76-3.18,5.38,5.38,0,0,0-2.09-2.87l-3.4-2.59Z" transform="translate(-4.14)"/><path class="cls-1" d="M135.36,212.15l15.24-12.7,4.91,5.9a8.76,8.76,0,0,1,1.8,3.17,4.6,4.6,0,0,1-.06,2.85,5.68,5.68,0,0,1-1.77,2.4,5.78,5.78,0,0,1-2.43,1.29,5.17,5.17,0,0,1-2.25,0,7.2,7.2,0,0,1-1.94-.76l-4.42,8.76L142.72,221l4.25-8.25-3.42-4.1L137,214.1Zm9.8-4.86,2.77,3.32a5.7,5.7,0,0,0,2.91,2.07,3.67,3.67,0,0,0,4.18-3.32,4.66,4.66,0,0,0-1.25-2.84l-3.15-3.78Z" transform="translate(-4.14)"/><path class="cls-1" d="M144.81,224.08l17.72-8.93,5.63,11.18-2,1-4.47-8.88-5.78,2.91,4,8-2,1-4-8-5.91,3,4.58,9.15-2,1Z" transform="translate(-4.14)"/><path class="cls-1" d="M152.05,241.29l17.6-11.56.59,2.44-15,9.91,17.91,1.9.59,2.44-20.93-2.16Z" transform="translate(-4.14)"/><path class="cls-1" d="M154.17,251.17l19.83-.23.15,12.51h-2.24l-.11-9.94-6.48.07.11,9-2.23,0-.1-9-6.61.08.09,10.23-2.26,0Z" transform="translate(-4.14)"/><path class="cls-1" d="M154.33,264.71l19.3,4.58-.56,2.36-17.42,6.64,15,3.56-.58,2.47-19.3-4.58.52-2.2L169,270.79l-15.22-3.61Z" transform="translate(-4.14)"/><path class="cls-1" d="M147.88,285.28l15.58,8,2.91-5.7,2.08,1.06L161.63,302l-2.08-1.06,2.75-5.39-15.59-8Z" transform="translate(-4.14)"/><path class="cls-1" d="M127.24,86.37a12.54,12.54,0,0,1-7.3-2.14,13.6,13.6,0,0,1-4.77-6.09,24,24,0,0,1-1.68-9.41,27.46,27.46,0,0,1,1.64-9.94,14.15,14.15,0,0,1,4.79-6.52A12.73,12.73,0,0,1,127.6,50a13.93,13.93,0,0,1,5.62,1.13,10.88,10.88,0,0,1,4.25,3.24,9.66,9.66,0,0,1,2,5.12H134.6a7.2,7.2,0,0,0-2.46-3.83,7,7,0,0,0-4.44-1.38,7.42,7.42,0,0,0-5,1.68,9.52,9.52,0,0,0-2.89,4.88,23.21,23.21,0,0,0-.57,7.73,8,8,0,0,1,2-2.83,9.63,9.63,0,0,1,3.07-1.87,10.4,10.4,0,0,1,3.72-.66,13.22,13.22,0,0,1,6.16,1.36,10,10,0,0,1,4.13,3.84,11.36,11.36,0,0,1,1.48,5.9,12.36,12.36,0,0,1-1.56,6.25,11,11,0,0,1-4.39,4.28A13.61,13.61,0,0,1,127.24,86.37Zm-.1-4.21a6.83,6.83,0,0,0,6.19-3.66,8.34,8.34,0,0,0,.92-4,8.22,8.22,0,0,0-.85-3.89,5.81,5.81,0,0,0-2.46-2.47,8,8,0,0,0-3.83-.86,7.5,7.5,0,0,0-3.49.85,7.82,7.82,0,0,0-2.72,2.21,4.8,4.8,0,0,0-1.05,3,10.42,10.42,0,0,0,.87,4.6,7.43,7.43,0,0,0,2.57,3.1A6.73,6.73,0,0,0,127.14,82.16Z" transform="translate(-4.14)"/><path class="cls-1" d="M143.35,92.16,146.12,86l-2.23-.15V80H150v5.09l-4.36,7.09Z" transform="translate(-4.14)"/><path class="cls-1" d="M168.52,86.37a12.54,12.54,0,0,1-7.3-2.14,13.74,13.74,0,0,1-4.77-6.09,24,24,0,0,1-1.68-9.41,27.46,27.46,0,0,1,1.64-9.94,14.1,14.1,0,0,1,4.8-6.52,12.69,12.69,0,0,1,7.68-2.3,13.88,13.88,0,0,1,5.61,1.13,10.81,10.81,0,0,1,4.25,3.24,9.67,9.67,0,0,1,2,5.12h-4.87a7.2,7.2,0,0,0-2.46-3.83A7,7,0,0,0,169,54.25,7.42,7.42,0,0,0,164,55.93a9.44,9.44,0,0,0-2.88,4.88,22.93,22.93,0,0,0-.58,7.73,8,8,0,0,1,2-2.83,9.52,9.52,0,0,1,3.07-1.87,10.32,10.32,0,0,1,3.72-.66,13.25,13.25,0,0,1,6.16,1.36,10,10,0,0,1,4.12,3.84,11.26,11.26,0,0,1,1.48,5.9,12.46,12.46,0,0,1-1.55,6.25,11,11,0,0,1-4.39,4.28A13.68,13.68,0,0,1,168.52,86.37Zm-.1-4.21a6.8,6.8,0,0,0,6.19-3.66,9.08,9.08,0,0,0,.07-7.86,5.81,5.81,0,0,0-2.46-2.47,8,8,0,0,0-3.82-.86,7.54,7.54,0,0,0-3.5.85,7.91,7.91,0,0,0-2.72,2.21,4.8,4.8,0,0,0-1.05,3A10.42,10.42,0,0,0,162,78a7.43,7.43,0,0,0,2.57,3.1A6.73,6.73,0,0,0,168.42,82.16Z" transform="translate(-4.14)"/><path class="cls-1" d="M197.65,86.37a11.16,11.16,0,0,1-9.44-4.59q-3.45-4.59-3.45-13.51a27.84,27.84,0,0,1,1.59-10.07,13.22,13.22,0,0,1,4.49-6.15A11.45,11.45,0,0,1,197.67,50a11.13,11.13,0,0,1,9.38,4.64q3.48,4.64,3.49,13.61t-3.46,13.53A11.16,11.16,0,0,1,197.65,86.37Zm0-4.46a5.87,5.87,0,0,0,5.43-3.19q1.82-3.19,1.81-10.48t-1.83-10.69a5.91,5.91,0,0,0-5.43-3.25,6,6,0,0,0-5.46,3.28q-1.87,3.27-1.88,10.66c0,4.85.62,8.33,1.87,10.47A6,6,0,0,0,197.67,81.91Z" transform="translate(-4.14)"/><path class="cls-1" d="M227,86.37a11.17,11.17,0,0,1-9.44-4.59q-3.45-4.59-3.45-13.51a27.84,27.84,0,0,1,1.59-10.07,13.29,13.29,0,0,1,4.49-6.15A11.46,11.46,0,0,1,227.07,50a11.14,11.14,0,0,1,9.38,4.64q3.48,4.64,3.48,13.61t-3.46,13.53A11.16,11.16,0,0,1,227,86.37Zm0-4.46a5.87,5.87,0,0,0,5.43-3.19q1.8-3.19,1.81-10.48t-1.84-10.69A5.89,5.89,0,0,0,227,54.3a6,6,0,0,0-5.45,3.28q-1.89,3.27-1.88,10.66c0,4.85.62,8.33,1.87,10.47A6,6,0,0,0,227.07,81.91Z" transform="translate(-4.14)"/><path class="cls-1" d="M158.25,125.52V99.88h3.4v13.26l11.49-13.26h3.91L168.49,110l9.31,15.57h-3.71l-8-13.18-4.45,5.09v8.09Z" transform="translate(-4.14)"/><path class="cls-1" d="M191.17,125.87a10.67,10.67,0,0,1-5.82-1.55,10,10,0,0,1-3.76-4.48,19.74,19.74,0,0,1,0-14.22,10,10,0,0,1,3.82-4.52,10.71,10.71,0,0,1,5.87-1.57,9.72,9.72,0,0,1,3.63.67,10.07,10.07,0,0,1,3,1.84,9.83,9.83,0,0,1,2.1,2.65,7.67,7.67,0,0,1,.89,3.1h-3.51a6.66,6.66,0,0,0-3.25-4.6,5.89,5.89,0,0,0-2.94-.74,6.58,6.58,0,0,0-6.49,4.43,15.52,15.52,0,0,0-.93,5.82,17.24,17.24,0,0,0,.56,4.68,8.6,8.6,0,0,0,1.59,3.16,6.25,6.25,0,0,0,2.39,1.79,7.53,7.53,0,0,0,3,.58,6.46,6.46,0,0,0,2.81-.57,6.13,6.13,0,0,0,2-1.46,6.75,6.75,0,0,0,1.22-1.93,6.39,6.39,0,0,0,.48-2l.11-2.27h-6.24v-2.41l9.64,0v13.23H198.9v-3.9a10.22,10.22,0,0,1-1.71,2.07,7.85,7.85,0,0,1-2.51,1.58A9.31,9.31,0,0,1,191.17,125.87Z" transform="translate(-4.14)"/><path class="cls-1" d="M257,233.48a8.65,8.65,0,0,1-2.76,3.85,7.78,7.78,0,0,1-4.31,1.54,12.91,12.91,0,0,1-5.5-1,13.12,13.12,0,0,1-4.78-3,8,8,0,0,1-2.19-4.05,9.28,9.28,0,0,1,3.27-8.51,7.78,7.78,0,0,1,4.32-1.51,13.35,13.35,0,0,1,5.55,1,13.16,13.16,0,0,1,4.76,2.94,7.81,7.81,0,0,1,2.17,4A8.53,8.53,0,0,1,257,233.48Zm-2.06-.79a5.64,5.64,0,0,0,.34-3.22,5.19,5.19,0,0,0-1.71-2.77,15.38,15.38,0,0,0-8.44-3.24,5.39,5.39,0,0,0-3.17.89A5.51,5.51,0,0,0,240,227a5.43,5.43,0,0,0-.31,3.22,5.33,5.33,0,0,0,1.75,2.82,12.6,12.6,0,0,0,4,2.28,12,12,0,0,0,4.44,1,5.2,5.2,0,0,0,3.14-.94A5.67,5.67,0,0,0,254.89,232.69Z" transform="translate(-4.14)"/><path class="cls-1" d="M260.87,222.79l-18.21-7.87,4.91-11.34,2,.89-3.86,8.94,6,2.6,3.48-8,2,.87-3.47,8,8.13,3.52Z" transform="translate(-4.14)"/><path class="cls-1" d="M269.17,204l-17.76-8.81,5.49-11.07,2,1-4.33,8.72,5.87,2.91,3.89-7.83,2,1-3.9,7.84,7.94,3.94Z" transform="translate(-4.14)"/><path class="cls-1" d="M279.79,184.31a8.55,8.55,0,0,1-3.27,3.43,7.84,7.84,0,0,1-4.48.92,15.07,15.07,0,0,1-9.64-5.37,8,8,0,0,1-1.59-4.32,9.19,9.19,0,0,1,4.43-8,7.8,7.8,0,0,1,4.48-.9,15.25,15.25,0,0,1,9.66,5.36,7.77,7.77,0,0,1,1.58,4.27A8.46,8.46,0,0,1,279.79,184.31Zm-1.93-1.07a5.76,5.76,0,0,0,.79-3.14,5.22,5.22,0,0,0-1.31-3,12.56,12.56,0,0,0-3.59-2.78,13.07,13.07,0,0,0-4.31-1.61,5.36,5.36,0,0,0-3.27.44,5.56,5.56,0,0,0-2.27,2.31,5.46,5.46,0,0,0-.75,3.14,5.39,5.39,0,0,0,1.33,3,12.64,12.64,0,0,0,3.63,2.82,12.11,12.11,0,0,0,4.26,1.57,5.28,5.28,0,0,0,3.24-.49A5.7,5.7,0,0,0,277.86,183.24Z" transform="translate(-4.14)"/><path class="cls-1" d="M289.37,168.1a8.51,8.51,0,0,1-3.46,3.23,7.79,7.79,0,0,1-4.52.66,13,13,0,0,1-5.2-2.05,13.26,13.26,0,0,1-4.11-3.86,7.82,7.82,0,0,1-1.34-4.4,9.19,9.19,0,0,1,4.88-7.7,7.78,7.78,0,0,1,4.52-.64,13.31,13.31,0,0,1,5.25,2.1,13.15,13.15,0,0,1,4.08,3.82,7.64,7.64,0,0,1,1.34,4.35A8.4,8.4,0,0,1,289.37,168.1Zm-1.86-1.18a5.66,5.66,0,0,0,1-3.09,5.19,5.19,0,0,0-1.14-3.05,12.5,12.5,0,0,0-3.42-3,12.79,12.79,0,0,0-4.21-1.86,5.36,5.36,0,0,0-3.29.25,6.07,6.07,0,0,0-3.33,5.27,5.48,5.48,0,0,0,1.16,3.11,12.63,12.63,0,0,0,3.46,3,12.27,12.27,0,0,0,4.16,1.81,5.18,5.18,0,0,0,3.26-.3A5.61,5.61,0,0,0,287.51,166.92Z" transform="translate(-4.14)"/><path class="cls-1" d="M295.33,158.53l-16.05-11.65.34-.47c.2-.26.43-.58.7-1l.85-1.18c.3-.4.58-.77.84-1.1a13.87,13.87,0,0,1,4.43-4.1,7.16,7.16,0,0,1,4.62-.76,11.92,11.92,0,0,1,4.91,2.25,12,12,0,0,1,3.8,4.17,7.47,7.47,0,0,1,.68,4.8,13.54,13.54,0,0,1-2.57,5.48Zm-.24-3.39,1-1.41a10.46,10.46,0,0,0,1.87-3.86,5.59,5.59,0,0,0-.4-3.66,11.57,11.57,0,0,0-7.37-5.38,5.23,5.23,0,0,0-3.5.75,11,11,0,0,0-3,3l-1.09,1.5Z" transform="translate(-4.14)"/><path class="cls-1" d="M311.11,137.77l-18.59-9,1.72-1.91,14.68,7.27-8.77-13.87,1.33-1.48L316.21,126l-8.77-13.87,1.7-1.9L320,127.8l-1.56,1.75-14.35-7,8.5,13.55Z" transform="translate(-4.14)"/><path class="cls-1" d="M324.17,123.56l-8.11-19.48,2.11-1.94,18.7,9.77L335,113.67l-5.1-2.68-6,5.5,2.22,5.32Zm-1.4-9.26,5-4.57-9-4.78Z" transform="translate(-4.14)"/><path class="cls-1" d="M344.12,106.66a10.3,10.3,0,0,1-2.41,1.39,7.88,7.88,0,0,1-2.51.61,6.14,6.14,0,0,1-2.45-.32A5.5,5.5,0,0,1,334.6,107l2.11-1.62a3.87,3.87,0,0,0,1.93.91,4.56,4.56,0,0,0,2.15-.19,7.17,7.17,0,0,0,2.13-1.15,6.52,6.52,0,0,0,1.61-1.72,4,4,0,0,0,.65-2,2.73,2.73,0,0,0-.59-1.85,2.51,2.51,0,0,0-1.77-1,5.6,5.6,0,0,0-2.59.52l-3.89,1.64a9.06,9.06,0,0,1-2.53.72,4.54,4.54,0,0,1-2.32-.3,4.94,4.94,0,0,1-2-1.66,4.85,4.85,0,0,1-1-2.9,6.14,6.14,0,0,1,.83-3.09,9,9,0,0,1,2.45-2.74,8.73,8.73,0,0,1,3.61-1.74,6,6,0,0,1,3.22.22,5.17,5.17,0,0,1,2.36,1.74l-2.07,1.58a3.82,3.82,0,0,0-1.94-1.22,3.76,3.76,0,0,0-2,.1,6.47,6.47,0,0,0-1.94,1.05A4.68,4.68,0,0,0,331,95a3,3,0,0,0,.52,2.49,2.5,2.5,0,0,0,1.79,1,5.37,5.37,0,0,0,2.49-.54l3.79-1.59a7.52,7.52,0,0,1,3-.77,4.62,4.62,0,0,1,2.3.53,5.63,5.63,0,0,1,1.73,1.51,4.92,4.92,0,0,1,1.05,2.89,6.08,6.08,0,0,1-.82,3.17A9.59,9.59,0,0,1,344.12,106.66Z" transform="translate(-4.14)"/><path class="cls-1" d="M355.88,98l-9.33-14.8-5.42,3.42-1.25-2,12.7-8,1.24,2-5.12,3.23L358,96.63Z" transform="translate(-4.14)"/><path class="cls-1" d="M364.67,92.69l-9-17.67,11.14-5.68,1,2L359,75.85l2.94,5.77,8-4.07,1,2-8,4.08,3,5.89L375,84.88l1,2Z" transform="translate(-4.14)"/><path class="cls-1" d="M334.64,219.76a10.91,10.91,0,0,1-.25,2.77,8,8,0,0,1-.95,2.4,6.19,6.19,0,0,1-1.67,1.82,5.45,5.45,0,0,1-2.37,1l-.1-2.65a3.93,3.93,0,0,0,1.85-1.06,4.66,4.66,0,0,0,1.08-1.86,7,7,0,0,0,.29-2.41,6.6,6.6,0,0,0-.48-2.31,4.13,4.13,0,0,0-1.23-1.66,2.71,2.71,0,0,0-1.85-.57,2.48,2.48,0,0,0-1.87.84,5.58,5.58,0,0,0-1.07,2.41l-.9,4.13a9,9,0,0,1-.87,2.48,4.55,4.55,0,0,1-1.58,1.73,4.9,4.9,0,0,1-2.52.7,4.84,4.84,0,0,1-3-.82,6.12,6.12,0,0,1-2.05-2.45,9,9,0,0,1-.83-3.59,8.57,8.57,0,0,1,.66-4,6,6,0,0,1,2-2.51,5.25,5.25,0,0,1,2.78-.93l.1,2.61a3.86,3.86,0,0,0-2.12.88,3.92,3.92,0,0,0-1.07,1.71,6.31,6.31,0,0,0-.26,2.2,4.69,4.69,0,0,0,1.08,3.17,3,3,0,0,0,2.34,1,2.42,2.42,0,0,0,1.89-.85,5.29,5.29,0,0,0,1-2.35l.88-4a7.63,7.63,0,0,1,1.08-2.86,4.61,4.61,0,0,1,1.76-1.58,5.51,5.51,0,0,1,2.22-.55,4.94,4.94,0,0,1,3,.81,6.06,6.06,0,0,1,2.12,2.49A9.42,9.42,0,0,1,334.64,219.76Z" transform="translate(-4.14)"/><path class="cls-1" d="M334.05,213l-18.13-10.78.54-2.82,20.83-3.32-.49,2.55-5.68.89-1.53,8,5,2.94Zm-6.64-6.59,1.27-6.64-10.05,1.51Z" transform="translate(-4.14)"/><path class="cls-1" d="M337.29,195.7l-17.94-8.45,1.49-3.18,17.37,1.57L326,173.18l1.49-3.17,17.94,8.46-1.12,2.37L329.79,174l12,12-1,2.14L324,186.57l14.37,6.77Z" transform="translate(-4.14)"/><path class="cls-1" d="M346.79,177.15,331.3,164.76l7.82-9.76,1.73,1.4-6.21,7.77,5.06,4,5.59-7,1.74,1.39-5.61,7,5.16,4.13,6.42-8,1.77,1.41Z" transform="translate(-4.14)"/><path class="cls-1" d="M362.88,160.21l-10.5-14-5.13,3.84-1.4-1.86,12-9,1.4,1.87-4.84,3.63,10.5,14Z" transform="translate(-4.14)"/><path class="cls-1" d="M376.7,152.09a8.57,8.57,0,0,1-4.65.87,7.74,7.74,0,0,1-4.17-1.87,14.91,14.91,0,0,1-4.68-10,7.86,7.86,0,0,1,1.23-4.43,9.25,9.25,0,0,1,8.25-3.88,7.79,7.79,0,0,1,4.16,1.9,15.22,15.22,0,0,1,4.7,10,7.77,7.77,0,0,1-1.21,4.39A8.43,8.43,0,0,1,376.7,152.09Zm-.94-2a5.61,5.61,0,0,0,2.48-2.08,5.18,5.18,0,0,0,.68-3.18,12.4,12.4,0,0,0-1.29-4.35,12.6,12.6,0,0,0-2.55-3.83,5.37,5.37,0,0,0-2.91-1.56,5.43,5.43,0,0,0-6.33,5.9,12.83,12.83,0,0,0,1.3,4.41,12.11,12.11,0,0,0,2.54,3.76,5.32,5.32,0,0,0,2.91,1.5A5.62,5.62,0,0,0,375.76,150.09Z" transform="translate(-4.14)"/><path class="cls-1" d="M394.49,146.14l-2.86-17.27-6.32,1-.38-2.3,14.8-2.45.38,2.3-6,1L397,145.72Z" transform="translate(-4.14)"/><path class="cls-1" d="M403.29,144.67l.88-19.81,2.53.11-.37,8.44,10.69.47.37-8.44,2.54.11-.88,19.82-2.54-.12.41-9.14-10.69-.47-.4,9.14Z" transform="translate(-4.14)"/><path class="cls-1" d="M420.92,145.85,426,126.68l12.09,3.21-.59,2.16-9.61-2.55-1.66,6.25,8.66,2.3-.57,2.15-8.67-2.3-1.7,6.39,9.88,2.65-.58,2.19Z" transform="translate(-4.14)"/><path class="cls-1" d="M441.4,152.68l5.8-19.81,2.17,1.38-4.76,15.68L456.85,139l1.68,1.07-4.7,15.71,12.23-10.93,2.16,1.37L452.7,159.86l-2-1.26,4.57-15.31-12,10.61Z" transform="translate(-4.14)"/><path class="cls-1" d="M456.9,163.55l14.37-13.67,8.62,9.07-1.63,1.53-6.85-7.21-4.69,4.46,6.17,6.49-1.61,1.53-6.18-6.5-4.79,4.56,7,7.43-1.64,1.56Z" transform="translate(-4.14)"/><path class="cls-1" d="M466.6,174.49l16.08-11.6,1.49,2.05-16.08,11.61Z" transform="translate(-4.14)"/><path class="cls-1" d="M472.93,185.09a8.21,8.21,0,0,1-1-4.55,7.65,7.65,0,0,1,1.77-4.16,15.31,15.31,0,0,1,9.81-5,7.85,7.85,0,0,1,4.47,1,8.31,8.31,0,0,1,3.14,3.49,7.64,7.64,0,0,1,.81,2.74,7.78,7.78,0,0,1-.21,2.73,7.49,7.49,0,0,1-1.09,2.38,5.89,5.89,0,0,1-1.82,1.7l-1.23-2.42a5.06,5.06,0,0,0,1.43-1.68,5.19,5.19,0,0,0,.6-2.18,4.6,4.6,0,0,0-.53-2.28,5.1,5.1,0,0,0-5.33-2.92,11.93,11.93,0,0,0-4.34,1.4,13.62,13.62,0,0,0-3,2,6.66,6.66,0,0,0-1.62,2.21,4.92,4.92,0,0,0-.4,2.28,6.08,6.08,0,0,0,.65,2.25,5,5,0,0,0,1.38,1.73,4.78,4.78,0,0,0,1.71.87,5.29,5.29,0,0,0,1.76.16,4.83,4.83,0,0,0,1.54-.37l1.6-.72-2.19-4.31,1.66-.84,3.38,6.65L476.75,192l-.87-1.7,2.69-1.37a7.66,7.66,0,0,1-2-.45,6.07,6.07,0,0,1-2-1.17A7,7,0,0,1,472.93,185.09Z" transform="translate(-4.14)"/><path class="cls-1" d="M477.25,193.47l19.29-4.63.59,2.47-8.21,2,2.49,10.41,8.22-2,.59,2.47-19.29,4.63-.59-2.47,8.9-2.13-2.5-10.41-8.89,2.14Z" transform="translate(-4.14)"/><path class="cls-1" d="M481.13,215.51l17.48-.67-.24-6.4,2.33-.09.57,15-2.33.09-.23-6-17.49.67Z" transform="translate(-4.14)"/><path class="cls-1" d="M390.6,223.43V218a12.27,12.27,0,0,1,1.22-5.63,14.13,14.13,0,0,1,3.23-4.17,27.21,27.21,0,0,1,4.41-3.18q2.4-1.38,4.79-2.65a44.51,44.51,0,0,0,4.4-2.64,12.78,12.78,0,0,0,3.23-3.1,6.86,6.86,0,0,0,1.22-4,6.35,6.35,0,0,0-2.15-5,8.46,8.46,0,0,0-5.84-1.92,9.15,9.15,0,0,0-6.37,2.21,9.05,9.05,0,0,0-2.83,6.1h-6.2a14.1,14.1,0,0,1,1.85-6.91,12.91,12.91,0,0,1,5.23-5,20.06,20.06,0,0,1,16.21-.33,11.4,11.4,0,0,1,6.76,10.78,12.28,12.28,0,0,1-1.2,5.63,13.63,13.63,0,0,1-3.17,4.07,25.74,25.74,0,0,1-4.32,3q-2.37,1.32-4.72,2.51a38.63,38.63,0,0,0-4.34,2.49,12.12,12.12,0,0,0-3.18,3,6.53,6.53,0,0,0-1.21,4v.74h22.29v5.49Z" transform="translate(-4.14)"/><path class="cls-1" d="M351.3,247V230.84h10.19v1.83h-8.1v5.27h7.3v1.81h-7.31v5.4l8.34,0V247Z" transform="translate(-4.14)"/><path class="cls-1" d="M364.28,247V230.84h2.11v14.32H374V247Z" transform="translate(-4.14)"/><path class="cls-1" d="M376.3,247V230.84h10.2v1.83h-8.11v5.27h7.3v1.81h-7.31v5.4l8.34,0V247Z" transform="translate(-4.14)"/><path class="cls-1" d="M389.28,247V230.84h5.47a7.92,7.92,0,0,1,3.09.58,4.63,4.63,0,0,1,2.9,4.53,5.06,5.06,0,0,1-.72,2.76,4.63,4.63,0,0,1-2,1.73,7.19,7.19,0,0,1-3,.59h-3.62v6Zm2.12-7.72H395a3.89,3.89,0,0,0,2.7-.93,3.23,3.23,0,0,0,1-2.53,2.91,2.91,0,0,0-1.07-2.44,4.44,4.44,0,0,0-2.78-.82H391.4Z" transform="translate(-4.14)"/><path class="cls-1" d="M402.62,247V230.84h2.07v6.89h8.72v-6.89h2.07V247h-2.07v-7.46h-8.72V247Z" transform="translate(-4.14)"/><path class="cls-1" d="M417.66,247l5.86-16.17h2.34L431.71,247h-2.12L428,242.6h-6.63l-1.6,4.41Zm4.26-6.33h5.52l-2.75-7.81Z" transform="translate(-4.14)"/><path class="cls-1" d="M433.89,247V230.84h2l8.54,12.57V230.84h2.07V247h-1.85L436,234.26V247Z" transform="translate(-4.14)"/><path class="cls-1" d="M453.48,247V232.74h-5.22v-1.9h12.23v1.9h-4.93V247Z" transform="translate(-4.14)"/><path class="cls-1" d="M467.74,247.24a8.67,8.67,0,0,1-2.25-.29,6.59,6.59,0,0,1-1.93-.85,5.09,5.09,0,0,1-1.43-1.42,4.52,4.52,0,0,1-.71-2h2.17a3.13,3.13,0,0,0,.8,1.54,3.69,3.69,0,0,0,1.49.94,5.78,5.78,0,0,0,1.95.31,5.25,5.25,0,0,0,1.89-.32,3.43,3.43,0,0,0,1.4-.94,2.26,2.26,0,0,0,.52-1.5,2,2,0,0,0-.63-1.55,4.57,4.57,0,0,0-1.93-.94l-3.33-.86a7.66,7.66,0,0,1-2-.79,3.8,3.8,0,0,1-1.36-1.34,4.13,4.13,0,0,1-.49-2.08,3.9,3.9,0,0,1,.76-2.39,4.92,4.92,0,0,1,2.06-1.59,7.32,7.32,0,0,1,2.95-.57,7.06,7.06,0,0,1,3.21.66,4.92,4.92,0,0,1,2,1.73,4.24,4.24,0,0,1,.67,2.3h-2.13a3.11,3.11,0,0,0-.65-1.75,3,3,0,0,0-1.36-.93,5.32,5.32,0,0,0-1.78-.29,3.87,3.87,0,0,0-2.62.79,2.45,2.45,0,0,0-.89,1.88,2,2,0,0,0,.64,1.56,4.34,4.34,0,0,0,1.88.88l3.24.84a6.21,6.21,0,0,1,2.3,1,3.67,3.67,0,0,1,1.23,1.48,4.44,4.44,0,0,1,.37,1.83A4,4,0,0,1,473,245a4.91,4.91,0,0,1-2.09,1.65A7.76,7.76,0,0,1,467.74,247.24Z" transform="translate(-4.14)"/><path class="cls-1" d="M359.25,223.7a8.61,8.61,0,0,1-4.58-1.19,7.77,7.77,0,0,1-3-3.47,14.92,14.92,0,0,1,0-11,7.79,7.79,0,0,1,3-3.49,9.23,9.23,0,0,1,9.12,0,7.76,7.76,0,0,1,3,3.48,15.24,15.24,0,0,1,0,11,7.74,7.74,0,0,1-3,3.47A8.52,8.52,0,0,1,359.25,223.7Zm0-2.21a5.68,5.68,0,0,0,3.13-.83,5.22,5.22,0,0,0,2-2.6,12.61,12.61,0,0,0,.68-4.48,12.8,12.8,0,0,0-.69-4.56,5.38,5.38,0,0,0-2-2.64,6.1,6.1,0,0,0-6.23,0,5.4,5.4,0,0,0-2,2.65,12.48,12.48,0,0,0-.7,4.54,12.14,12.14,0,0,0,.7,4.48,5.26,5.26,0,0,0,2,2.6A5.71,5.71,0,0,0,359.25,221.49Z" transform="translate(-4.14)"/><path class="cls-1" d="M370.84,223.43V203.59H383.2v2.23h-9.74v6.55h8.75v2.2h-8.75v8.86Z" transform="translate(-4.14)"/><path class="cls-1" d="M278.8,506.62l-19-5.79,1.95-6.41a9.45,9.45,0,0,1,1.79-3.41,5.93,5.93,0,0,1,2.78-1.89,6.07,6.07,0,0,1,3.57.09,6.2,6.2,0,0,1,3,1.84,5.59,5.59,0,0,1,1.31,3,8.67,8.67,0,0,1-.37,3.71l-1.3,4.26,7,2.13Zm-8.31-5.25,1.28-4.21a4.76,4.76,0,0,0-.12-3.5,3.93,3.93,0,0,0-2.59-2.13,3.58,3.58,0,0,0-3.25.39,5.45,5.45,0,0,0-2,3L262.6,499Z" transform="translate(-4.14)"/><path class="cls-1" d="M283.57,491.42l-18.44-7.29L268,477a8.52,8.52,0,0,1,1.92-3.09,4.59,4.59,0,0,1,2.53-1.32,5.67,5.67,0,0,1,2.95.4,5.81,5.81,0,0,1,2.3,1.52,5,5,0,0,1,1.06,2,7.5,7.5,0,0,1,.27,2.07l9.8-.32-1,2.5-9.28.23-2,5,7.95,3.14Zm-9-6.27,1.59-4a5.64,5.64,0,0,0,.42-3.55,3.66,3.66,0,0,0-4.91-2.08,4.69,4.69,0,0,0-1.9,2.46L268,482.54Z" transform="translate(-4.14)"/><path class="cls-1" d="M290.1,475.61l-17.81-8.73,5.5-11.23,2,1-4.38,8.93,5.81,2.85,3.95-8,2,1-3.95,8.05,5.94,2.91,4.53-9.17,2,1Z" transform="translate(-4.14)"/><path class="cls-1" d="M299.61,457.26l-20.66-4,1.27-2.16,17.69,3.4-11.5-13.86,1.28-2.16,13.48,16.17Z" transform="translate(-4.14)"/><path class="cls-1" d="M305.84,447.08,289.6,435.7l7.18-10.25,1.83,1.3-5.71,8.14,5.3,3.72,5.14-7.34,1.82,1.28L300,439.9l5.41,3.79,5.9-8.36,1.85,1.3Z" transform="translate(-4.14)"/><path class="cls-1" d="M314.88,434.44l-15.26-12.67,1.55-1.86,18.55,1.77-11.86-9.84,1.62-1.95,15.26,12.66-1.44,1.74-18.84-1.79,12,10Z" transform="translate(-4.14)"/><path class="cls-1" d="M330.33,416.7l-12.57-12.18-4.46,4.61-1.67-1.63,10.44-10.78,1.67,1.63-4.2,4.34,12.57,12.18Z" transform="translate(-4.14)"/><path class="cls-1" d="M341.73,405.47l-13-15,9.34-8.1,1.45,1.69-7.37,6.38,4.3,4.95,6.61-5.73,1.44,1.66-6.62,5.73,5.81,6.7Z" transform="translate(-4.14)"/><path class="cls-1" d="M359.12,391.53a8.49,8.49,0,0,1-4.38,1.81,7.77,7.77,0,0,1-4.47-1,13.08,13.08,0,0,1-4.14-3.76,13.25,13.25,0,0,1-2.49-5.05,7.94,7.94,0,0,1,.3-4.6,9.25,9.25,0,0,1,7.27-5.49,7.85,7.85,0,0,1,4.46,1,13.27,13.27,0,0,1,4.18,3.81,13,13,0,0,1,2.47,5,7.73,7.73,0,0,1-.27,4.54A8.48,8.48,0,0,1,359.12,391.53Zm-1.33-1.76a5.62,5.62,0,0,0,2-2.55,5.14,5.14,0,0,0,0-3.25,12.67,12.67,0,0,0-2.15-4,13,13,0,0,0-3.29-3.22,5.4,5.4,0,0,0-3.17-.92,5.49,5.49,0,0,0-3,1.19,5.58,5.58,0,0,0-2,2.56,5.52,5.52,0,0,0,0,3.32,12.64,12.64,0,0,0,2.17,4.05,12.26,12.26,0,0,0,3.26,3.16,5.37,5.37,0,0,0,3.16.87A5.62,5.62,0,0,0,357.79,389.77Z" transform="translate(-4.14)"/><path class="cls-1" d="M374.42,380.85a8.52,8.52,0,0,1-4.49,1.49,7.72,7.72,0,0,1-4.39-1.28,13.09,13.09,0,0,1-3.87-4,13.3,13.3,0,0,1-2.12-5.22,7.93,7.93,0,0,1,.62-4.56,8.49,8.49,0,0,1,3.17-3.49,8.37,8.37,0,0,1,4.48-1.47,7.74,7.74,0,0,1,4.38,1.31,13.35,13.35,0,0,1,3.89,4.09,13.11,13.11,0,0,1,2.11,5.18,7.67,7.67,0,0,1-.59,4.51A8.51,8.51,0,0,1,374.42,380.85Zm-1.2-1.85a5.61,5.61,0,0,0,2.17-2.4,5.18,5.18,0,0,0,.24-3.25,12.39,12.39,0,0,0-1.86-4.13,12.8,12.8,0,0,0-3.06-3.45,5.32,5.32,0,0,0-3.09-1.14A6,6,0,0,0,362.4,368a5.36,5.36,0,0,0-.24,3.31,14.9,14.9,0,0,0,4.9,7.57,5.24,5.24,0,0,0,3.09,1.09A5.55,5.55,0,0,0,373.22,379Z" transform="translate(-4.14)"/><path class="cls-1" d="M383.75,374.63l-9.69-17.3.51-.28,1-.58,1.26-.71,1.22-.66a13.74,13.74,0,0,1,5.75-1.86,7.14,7.14,0,0,1,4.51,1.24,11.76,11.76,0,0,1,3.51,4.1,12,12,0,0,1,1.71,5.38,7.57,7.57,0,0,1-1.39,4.65,13.71,13.71,0,0,1-4.64,3.9Zm1.21-3.18,1.52-.85a10.59,10.59,0,0,0,3.31-2.73,5.57,5.57,0,0,0,1.17-3.49,9.57,9.57,0,0,0-1.41-4.46,9.3,9.3,0,0,0-3-3.51,5.25,5.25,0,0,0-3.49-.78,11,11,0,0,0-4,1.42l-1.61.91Z" transform="translate(-4.14)"/><path class="cls-1" d="M407,362.3l-13.42-15.68,2.33-1.06,10.54,12.54L404,341.88l1.8-.82,10.61,12.52-2.48-16.22,2.32-1.06,3,20.45-2.14,1L406.7,345.53l2.36,15.82Z" transform="translate(-4.14)"/><path class="cls-1" d="M424.78,354.36l-.39-21.1,2.68-1,13.8,15.95-2.42.93-3.76-4.36-7.59,2.91.1,5.76Zm2.1-9.12,6.32-2.42-6.58-7.75Z" transform="translate(-4.14)"/><path class="cls-1" d="M449.63,345.5a10.72,10.72,0,0,1-2.72.53,7.87,7.87,0,0,1-2.58-.25,6.1,6.1,0,0,1-2.21-1.09,5.51,5.51,0,0,1-1.59-2l2.53-.84a3.84,3.84,0,0,0,1.53,1.49,4.65,4.65,0,0,0,2.09.52,7.33,7.33,0,0,0,2.39-.39,6.83,6.83,0,0,0,2.09-1.11,4.14,4.14,0,0,0,1.25-1.64,2.75,2.75,0,0,0,0-1.94,2.46,2.46,0,0,0-1.33-1.56,5.69,5.69,0,0,0-2.62-.35l-4.21.28a9,9,0,0,1-2.63-.15,4.62,4.62,0,0,1-2.1-1,5,5,0,0,1-1.37-2.22,4.78,4.78,0,0,1,0-3.08,6.08,6.08,0,0,1,1.79-2.65,8.92,8.92,0,0,1,3.21-1.8,8.69,8.69,0,0,1,4-.47,6,6,0,0,1,3,1.26,5.22,5.22,0,0,1,1.67,2.41l-2.48.82a3.86,3.86,0,0,0-1.43-1.78,3.77,3.77,0,0,0-1.94-.56,6.75,6.75,0,0,0-2.18.35,4.66,4.66,0,0,0-2.75,1.94,3,3,0,0,0-.31,2.52,2.4,2.4,0,0,0,1.34,1.57,5.48,5.48,0,0,0,2.53.31l4.1-.28a7.46,7.46,0,0,1,3.05.25,4.57,4.57,0,0,1,2,1.25,5.71,5.71,0,0,1,1.14,2,5,5,0,0,1,0,3.08,6,6,0,0,1-1.81,2.73A9.49,9.49,0,0,1,449.63,345.5Z" transform="translate(-4.14)"/><path class="cls-1" d="M463.61,340.89l-4.86-16.81-6.15,1.78-.65-2.24,14.41-4.17.65,2.24-5.81,1.68,4.86,16.81Z" transform="translate(-4.14)"/><path class="cls-1" d="M473.91,338l-4.86-19.23,12.13-3.06.54,2.17-9.64,2.43,1.58,6.28,8.68-2.19.55,2.15-8.7,2.2,1.62,6.41,9.93-2.48.55,2.19Z" transform="translate(-4.14)"/></g><g id="P"><path class="cls-2" d="M209.23,149.25s71.12,280,17.1,589.6" transform="translate(-4.14)"/><path class="cls-2" d="M178.91,288c26.74,11.24,50.21,29.84,61.07,60.31" transform="translate(-4.14)"/><path class="cls-2" d="M151.88,297.59a75,75,0,0,1-124.66,1.26" transform="translate(-4.14)"/><circle class="cls-2" cx="171.62" cy="80.27" r="77.27" transform="translate(-10.63 144.86) rotate(-45)"/><path class="cls-2" d="M434.28,53.79a30.14,30.14,0,1,1-33.64-26.18A30.15,30.15,0,0,1,434.28,53.79Z" transform="translate(-4.14)"/><path class="cls-2" d="M66.82,411.43A18.62,18.62,0,1,1,46,395.25,18.62,18.62,0,0,1,66.82,411.43Z" transform="translate(-4.14)"/><path class="cls-2" d="M86.79,359.62a11.21,11.21,0,1,1-12.51-9.73A11.2,11.2,0,0,1,86.79,359.62Z" transform="translate(-4.14)"/><path class="cls-2" d="M106.87,440.34a11.21,11.21,0,1,1-12.51-9.74A11.21,11.21,0,0,1,106.87,440.34Z" transform="translate(-4.14)"/><path class="cls-2" d="M513.42,319.84a11.21,11.21,0,1,1-12.51-9.73A11.21,11.21,0,0,1,513.42,319.84Z" transform="translate(-4.14)"/><path class="cls-2" d="M487.62,393.34a11.21,11.21,0,1,1-12-10.32A11.21,11.21,0,0,1,487.62,393.34Z" transform="translate(-4.14)"/><path class="cls-2" d="M352.29,323.86a11.21,11.21,0,1,1-12-10.31A11.22,11.22,0,0,1,352.29,323.86Z" transform="translate(-4.14)"/><path class="cls-2" d="M155.41,460.21a11.21,11.21,0,1,1-12-10.31A11.23,11.23,0,0,1,155.41,460.21Z" transform="translate(-4.14)"/><path class="cls-2" d="M89.35,507a11.21,11.21,0,1,1-12-10.32A11.21,11.21,0,0,1,89.35,507Z" transform="translate(-4.14)"/><path class="cls-2" d="M242.78,384s16-87.47,87.13-135.12" transform="translate(-4.14)"/><path class="cls-2" d="M67,406.59s102.89-45.26,177,16.23" transform="translate(-4.14)"/><path class="cls-2" d="M82.52,369.88c7.84,7.09,27.42,19.48,69.36,20.69" transform="translate(-4.14)"/><path class="cls-2" d="M196.71,397.41s-70.26-5.63-94,34.95" transform="translate(-4.14)"/><line class="cls-2" x1="261.49" y1="511.66" x2="240.62" y2="570.45"/><path class="cls-2" d="M372.77,391.15c19.82-8.35,51.43-15.1,92.72-2.68" transform="translate(-4.14)"/><path class="cls-2" d="M242.78,384s12.42-76.82,87.13-59.25" transform="translate(-4.14)"/><path class="cls-2" d="M155.44,461.07c72.47,11.52,93.45,64.21,89.32,109.38" transform="translate(-4.14)"/><path class="cls-2" d="M233.94,511.66c-.69.84-62.32-55.75-144.39-7" transform="translate(-4.14)"/><path class="cls-2" d="M243.92,243.18s-9,21.87-10.27,46" transform="translate(-4.14)"/><path class="cls-2" d="M242.78,615.19s17.4-61.82,98.34-89.91" transform="translate(-4.14)"/><path class="cls-2" d="M363.5,518.15a11.21,11.21,0,1,1-12-10.31A11.23,11.23,0,0,1,363.5,518.15Z" transform="translate(-4.14)"/><path class="cls-2" d="M490.17,231.43a83.31,83.31,0,0,1-163.36,5.95" transform="translate(-4.14)"/></g></g></svg>