<svg xmlns="http://www.w3.org/2000/svg" viewBox="0 0 511.95 740.85"><defs><style>.cls-1{fill:#eb3e94;}.cls-2,.cls-3{fill:none;stroke:#eb3e94;stroke-linecap:round;stroke-linejoin:round;}.cls-2{stroke-width:5px;}.cls-3{stroke-width:6.03px;}</style></defs><title>Asset 23</title><g id="Layer_2" data-name="Layer 2"><g id="PT"><path class="cls-1" d="M31.71,287.75l-18.13,8L9,285.38l1-.44,4.18,9.43,7.45-3.31-3.89-8.77,1-.46,3.9,8.78,7.59-3.37-4.31-9.79,1-.46Z" transform="translate(-4.11)"/><path class="cls-1" d="M26.61,276.68,5.79,273.14l-.28-1.5L23.7,260.92l.21,1.17-5.73,3.38,1.65,9,6.57,1.12Zm-8-2.46-1.5-8.12L6.74,272.21Z" transform="translate(-4.11)"/><path class="cls-1" d="M24.48,253a7.75,7.75,0,0,1-1.43,4.24,7.08,7.08,0,0,1-3.56,2.42,15.17,15.17,0,0,1-5.66.53,15.25,15.25,0,0,1-5.55-1.26A7.1,7.1,0,0,1,5,256a7.65,7.65,0,0,1-.88-4.39A6.8,6.8,0,0,1,7.56,246a6.33,6.33,0,0,1,2.94-.87l-.08,1.2a6.79,6.79,0,0,0-2.44.83,5.39,5.39,0,0,0-1.87,1.78,5.56,5.56,0,0,0-.85,2.77A6.48,6.48,0,0,0,6,255.48a6.09,6.09,0,0,0,2.89,2.41,14.8,14.8,0,0,0,5,1.07c3,.2,5.34-.21,6.89-1.21a5.83,5.83,0,0,0,2.55-4.85,5.73,5.73,0,0,0-.47-2.87,5.5,5.5,0,0,0-1.62-2A6.73,6.73,0,0,0,19,246.89l.08-1.2a6.29,6.29,0,0,1,2.14.81,6.9,6.9,0,0,1,3,3.76A7.25,7.25,0,0,1,24.48,253Z" transform="translate(-4.11)"/><path class="cls-1" d="M25,244.19,6.16,237.85l.34-1L15,239.7,19,227.63l-8.47-2.85.34-1L29.7,230.1l-.34,1L20.11,228,16,240.06l9.25,3.11Z" transform="translate(-4.11)"/><path class="cls-1" d="M35.92,220.39l-6.85-5.13-13-1.44.72-1,11.75,1.33-4.64-10.82.71-.94,5.12,12,6.83,5.12Z" transform="translate(-4.11)"/><path class="cls-1" d="M41.82,213,28.78,198l8.58-7.49.72.83-7.77,6.78,5.36,6.14L42.9,198l.74.85-7.23,6.32,5.46,6.26,8.08-7,.74.85Z" transform="translate(-4.11)"/><path class="cls-1" d="M50.93,204.8l-2.87-20.92,1.34-.71L65.09,197.3l-1,.55-5-4.45-8,4.26.9,6.6Zm-.06-8.38,7.3-3.86-8.94-8.05Z" transform="translate(-4.11)"/><path class="cls-1" d="M66.61,196.91,61.69,177.7,68.47,176a8.94,8.94,0,0,1,3.32-.28,4.38,4.38,0,0,1,2.42,1.07,4.86,4.86,0,0,1,1.38,2.46,5.17,5.17,0,0,1,0,2.81,5,5,0,0,1-1.17,2,7,7,0,0,1-1.67,1.29l6.39,8.36L78,194l-6.22-8.15-6.46,1.66,2.34,9.14ZM65,186.42l4.84-1.24a8.18,8.18,0,0,0,4-2A4.24,4.24,0,0,0,72.53,177a6.15,6.15,0,0,0-3.82,0L63,178.5Z" transform="translate(-4.11)"/><path class="cls-1" d="M88.58,192.94l-3.73-20.26,1.19.11,3.37,18.87,6.92-17.93,1.08.1,3.46,18.89,6.94-17.93,1.17.1-7.49,19.23L100,194l-3.33-18.16L90,193.07Z" transform="translate(-4.11)"/><path class="cls-1" d="M107.48,195.6l7-18.55,10.65,4-.39,1-9.65-3.65-2.88,7.61,9,3.41-.4,1.05-9-3.4-3,7.77,10,3.82-.4,1.05Z" transform="translate(-4.11)"/><path class="cls-1" d="M124.5,203.2l12-15.78,4.87,3.7a9.51,9.51,0,0,1,2.53,2.78,5.59,5.59,0,0,1,.78,3.14,5.8,5.8,0,0,1-1.29,3.2,6,6,0,0,1-2.76,2.14,5.66,5.66,0,0,1-3.24.18,8.54,8.54,0,0,1-3.3-1.6L130,197.87l-4.6,6Zm6.25-6.27,4.06,3.09a6.38,6.38,0,0,0,4.12,1.48,4.69,4.69,0,0,0,3.56-2.05,4.2,4.2,0,0,0,.91-3.88,7.3,7.3,0,0,0-2.74-3.55l-3.91-3Z" transform="translate(-4.11)"/><path class="cls-1" d="M135.62,212l15.23-12.7,4.48,5.38A9,9,0,0,1,157,207.5a4.38,4.38,0,0,1,.07,2.65,4.8,4.8,0,0,1-1.63,2.3,5.12,5.12,0,0,1-2.52,1.24,4.85,4.85,0,0,1-2.32-.19,7.26,7.26,0,0,1-1.89-.94l-4.8,9.36-.79-.95,4.68-9.12-4.27-5.12-7.24,6.05Zm8.8-5.94,3.19,3.84a8.17,8.17,0,0,0,3.54,2.73,3.53,3.53,0,0,0,3.43-.89,3.57,3.57,0,0,0,1.54-2.94,6.13,6.13,0,0,0-1.65-3.44l-3.77-4.53Z" transform="translate(-4.11)"/><path class="cls-1" d="M145.07,223.91,162.78,215l5.12,10.16-1,.5-4.63-9.22L155,220.1l4.32,8.57-1,.51L154,220.6l-7.42,3.74,4.79,9.57-1,.51Z" transform="translate(-4.11)"/><path class="cls-1" d="M152.2,241.08l17.56-11.73.28,1.14-16.57,11.1,19.81,2.23.28,1.14-21-2.34Z" transform="translate(-4.11)"/><path class="cls-1" d="M154.22,251l19.84-.23.12,11.39h-1.09L173,251.88l-8.15.09.11,9.6h-1.12l-.11-9.6-8.31.09.09,10.7h-1.12Z" transform="translate(-4.11)"/><path class="cls-1" d="M154.29,264.58l19.3,4.57-.21.85-20,7.54,17.22,4.08-.25,1-19.3-4.58.22-.91,19.9-7.48L154,265.62Z" transform="translate(-4.11)"/><path class="cls-1" d="M147.69,285.23l16.69,8.52,3.1-6.06,1,.5L162,300.79l-1-.5,2.85-5.57-16.69-8.53Z" transform="translate(-4.11)"/><path class="cls-1" d="M126.14,85.87a10.52,10.52,0,0,1-6.47-2.08,13.42,13.42,0,0,1-4.32-6.06,26.76,26.76,0,0,1-1.54-9.67,30.43,30.43,0,0,1,1.41-9.73,13.85,13.85,0,0,1,4.25-6.52,10.92,10.92,0,0,1,7.16-2.34,11.3,11.3,0,0,1,4.7,1A9.94,9.94,0,0,1,135,53.26a10.59,10.59,0,0,1,2.09,4.43h-2a8.49,8.49,0,0,0-3-4.55,8.63,8.63,0,0,0-5.5-1.76,9.39,9.39,0,0,0-6.22,2.08,12.26,12.26,0,0,0-3.67,6.32,35.86,35.86,0,0,0-.92,10.73,10.32,10.32,0,0,1,5.52-7.22,10.21,10.21,0,0,1,4.62-1,12.41,12.41,0,0,1,6,1.36,9.61,9.61,0,0,1,4,3.93,12.77,12.77,0,0,1,1.42,6.25A14.47,14.47,0,0,1,136,80.12a9.81,9.81,0,0,1-3.8,4.23A11.45,11.45,0,0,1,126.14,85.87Zm.14-2a8.59,8.59,0,0,0,4.64-1.25A8.27,8.27,0,0,0,134,79.12a11.72,11.72,0,0,0,1.1-5.24,12.54,12.54,0,0,0-.94-5,7.22,7.22,0,0,0-2.92-3.37,9.55,9.55,0,0,0-5.06-1.21,9.62,9.62,0,0,0-8,4.24A7.82,7.82,0,0,0,116.89,73,12.47,12.47,0,0,0,118,78.48a9.66,9.66,0,0,0,3.29,3.92A8.58,8.58,0,0,0,126.28,83.86Z" transform="translate(-4.11)"/><path class="cls-1" d="M140.83,90.76l2.65-5.43h-1.77V81.41h4.06v3.33l-3.37,6Z" transform="translate(-4.11)"/><path class="cls-1" d="M162.87,85.87a10.54,10.54,0,0,1-6.47-2.08,13.42,13.42,0,0,1-4.32-6.06,27,27,0,0,1-1.54-9.67A30.43,30.43,0,0,1,152,58.33a13.94,13.94,0,0,1,4.26-6.52,10.87,10.87,0,0,1,7.15-2.34,11.38,11.38,0,0,1,4.71,1,10.11,10.11,0,0,1,3.67,2.81,10.59,10.59,0,0,1,2.09,4.43h-2a8.51,8.51,0,0,0-3-4.55,8.61,8.61,0,0,0-5.5-1.76,9.34,9.34,0,0,0-6.21,2.08,12.13,12.13,0,0,0-3.67,6.32,36.16,36.16,0,0,0-.93,10.73,10.39,10.39,0,0,1,2-4.3,10.17,10.17,0,0,1,8.18-4,12.37,12.37,0,0,1,5.94,1.36,9.49,9.49,0,0,1,4,3.93A12.77,12.77,0,0,1,174,73.78a14.33,14.33,0,0,1-1.31,6.34,9.81,9.81,0,0,1-3.8,4.23A11.43,11.43,0,0,1,162.87,85.87Zm.15-2a8.56,8.56,0,0,0,4.63-1.25,8.36,8.36,0,0,0,3.1-3.49,11.85,11.85,0,0,0,1.1-5.24,12.53,12.53,0,0,0-.95-5A7.17,7.17,0,0,0,168,65.46a9.55,9.55,0,0,0-5.06-1.21,9.58,9.58,0,0,0-8,4.24A7.82,7.82,0,0,0,153.63,73a12.2,12.2,0,0,0,1.11,5.53A9.51,9.51,0,0,0,158,82.4,8.55,8.55,0,0,0,163,83.86Z" transform="translate(-4.11)"/><path class="cls-1" d="M189.72,85.87a9.81,9.81,0,0,1-8.37-4.44q-3.16-4.44-3.17-13.61a30.53,30.53,0,0,1,1.47-10.26,13,13,0,0,1,4.07-6.08,9.62,9.62,0,0,1,6.05-2,9.86,9.86,0,0,1,8.39,4.5q3.21,4.5,3.21,13.75t-3.22,13.67A9.94,9.94,0,0,1,189.72,85.87Zm.1-2A7.65,7.65,0,0,0,196.65,80q2.41-3.84,2.42-12.3t-2.46-12.4a7.71,7.71,0,0,0-6.84-3.84,7.82,7.82,0,0,0-6.87,3.86q-2.52,3.87-2.52,12.38T182.9,80A7.86,7.86,0,0,0,189.82,83.86Z" transform="translate(-4.11)"/><path class="cls-1" d="M217.07,85.87a9.81,9.81,0,0,1-8.38-4.44q-3.16-4.44-3.17-13.61A30.53,30.53,0,0,1,207,57.56a13,13,0,0,1,4.07-6.08,9.65,9.65,0,0,1,6.06-2A9.84,9.84,0,0,1,225.5,54q3.21,4.5,3.21,13.75t-3.22,13.67A9.92,9.92,0,0,1,217.07,85.87Zm.09-2A7.65,7.65,0,0,0,224,80q2.41-3.84,2.42-12.3T224,55.32a7.7,7.7,0,0,0-6.83-3.84,7.83,7.83,0,0,0-6.88,3.86q-2.52,3.87-2.52,12.38T210.24,80A7.86,7.86,0,0,0,217.16,83.86Z" transform="translate(-4.11)"/><path class="cls-1" d="M158.81,125V99.38h1.45v14.79l13.62-14.79h1.91l-9.38,10.23,9.9,15.41h-1.76l-9.18-14.4-5.11,5.58V125Z" transform="translate(-4.11)"/><path class="cls-1" d="M189.55,125.37a9.94,9.94,0,0,1-5.52-1.49,9.27,9.27,0,0,1-3.5-4.4,22.18,22.18,0,0,1,0-14.45,9.49,9.49,0,0,1,3.5-4.48A9.72,9.72,0,0,1,189.55,99a8,8,0,0,1,3.11.62,9.62,9.62,0,0,1,2.75,1.69,9.47,9.47,0,0,1,2,2.45,6.92,6.92,0,0,1,.93,2.89H196.8a7.22,7.22,0,0,0-1.29-3,7.93,7.93,0,0,0-2.56-2.29,6.71,6.71,0,0,0-3.4-.88,7.8,7.8,0,0,0-7.71,5.22,17.46,17.46,0,0,0-1.07,6.55,19.27,19.27,0,0,0,.62,5.15,10.27,10.27,0,0,0,1.75,3.67,7.07,7.07,0,0,0,2.77,2.19,8.86,8.86,0,0,0,3.64.73,7.84,7.84,0,0,0,3.55-.75,7.37,7.37,0,0,0,2.48-1.93,8.42,8.42,0,0,0,1.45-2.54,7.79,7.79,0,0,0,.48-2.58v-3h-7.16V112h8.54v13h-1.38v-4.47a9.45,9.45,0,0,1-1.8,2.44,8.46,8.46,0,0,1-2.64,1.73A9,9,0,0,1,189.55,125.37Z" transform="translate(-4.11)"/><path class="cls-1" d="M256.84,233.29a7.83,7.83,0,0,1-2.64,3.6,7.35,7.35,0,0,1-4.2,1.39,16.44,16.44,0,0,1-10.43-4,7.49,7.49,0,0,1-2.21-3.85,8.49,8.49,0,0,1,3.08-8,7.37,7.37,0,0,1,4.21-1.33,14.52,14.52,0,0,1,5.59,1.12,14.21,14.21,0,0,1,4.85,2.9,7.43,7.43,0,0,1,2.2,3.8A7.75,7.75,0,0,1,256.84,233.29Zm-1.06-.41a6.65,6.65,0,0,0,.43-3.84,6,6,0,0,0-2-3.22,14.25,14.25,0,0,0-4.42-2.53,14,14,0,0,0-5-1.09,6.15,6.15,0,0,0-3.65,1.06,7.38,7.38,0,0,0-2.67,7,6.26,6.26,0,0,0,2,3.28,13.78,13.78,0,0,0,4.44,2.57,13.41,13.41,0,0,0,5,1.06,6.11,6.11,0,0,0,3.63-1.11A6.65,6.65,0,0,0,255.78,232.88Z" transform="translate(-4.11)"/><path class="cls-1" d="M261.06,221.92l-18.21-7.87,4.46-10.3,1,.44-4,9.21,7.45,3.22,3.71-8.56,1,.45-3.7,8.56,8.71,3.77Z" transform="translate(-4.11)"/><path class="cls-1" d="M269.45,203.17l-17.76-8.81,5-10.05,1,.48-4.47,9,7.28,3.61,4.14-8.36,1,.5-4.15,8.36,8.51,4.22Z" transform="translate(-4.11)"/><path class="cls-1" d="M279.66,184.06a7.78,7.78,0,0,1-3.11,3.21,7.44,7.44,0,0,1-4.35.78,14,14,0,0,1-5.34-1.85,14.24,14.24,0,0,1-4.43-3.59,7.48,7.48,0,0,1-1.65-4.12A8.47,8.47,0,0,1,265,171a7.36,7.36,0,0,1,4.35-.74,14.43,14.43,0,0,1,5.38,1.9,14.1,14.1,0,0,1,4.39,3.54,7.29,7.29,0,0,1,1.65,4.08A7.66,7.66,0,0,1,279.66,184.06Zm-1-.54a6.78,6.78,0,0,0,1-3.75,6.1,6.1,0,0,0-1.51-3.46,14.27,14.27,0,0,0-4-3.13,14.11,14.11,0,0,0-4.83-1.78,6.16,6.16,0,0,0-3.75.54,6.56,6.56,0,0,0-2.68,2.76,6.67,6.67,0,0,0-.94,3.75,6.3,6.3,0,0,0,1.51,3.52,16.13,16.13,0,0,0,8.84,4.92,6.16,6.16,0,0,0,3.75-.59A6.73,6.73,0,0,0,278.68,183.52Z" transform="translate(-4.11)"/><path class="cls-1" d="M289.22,168a7.82,7.82,0,0,1-3.29,3,7.39,7.39,0,0,1-4.39.53,16.46,16.46,0,0,1-9.44-6,7.5,7.5,0,0,1-1.41-4.21A7.79,7.79,0,0,1,272,157a7.68,7.68,0,0,1,3.28-3,7.38,7.38,0,0,1,4.39-.49,14.57,14.57,0,0,1,5.26,2.21,14.07,14.07,0,0,1,4.18,3.79,7.3,7.3,0,0,1,1.41,4.16A7.68,7.68,0,0,1,289.22,168Zm-1-.6a6.78,6.78,0,0,0,1.17-3.69,6.06,6.06,0,0,0-1.31-3.54,14,14,0,0,0-3.84-3.35,13.86,13.86,0,0,0-4.71-2.06,6.21,6.21,0,0,0-3.79.32,7.42,7.42,0,0,0-4,6.29,6.26,6.26,0,0,0,1.3,3.6,16.34,16.34,0,0,0,8.54,5.43,6.2,6.2,0,0,0,3.79-.38A6.83,6.83,0,0,0,288.27,167.35Z" transform="translate(-4.11)"/><path class="cls-1" d="M295.56,157.73l-16.05-11.65.19-.25.44-.59.61-.84c.24-.31.47-.64.71-1a14.49,14.49,0,0,1,4.37-4.19,6.78,6.78,0,0,1,4.55-.81,14.72,14.72,0,0,1,9,6.66,7.15,7.15,0,0,1,.58,4.79,15,15,0,0,1-2.68,5.5Zm-.22-1.61,1-1.33a14.71,14.71,0,0,0,2.45-4.84,6.14,6.14,0,0,0-.37-4.25,10.64,10.64,0,0,0-3.56-3.92,10.48,10.48,0,0,0-4.95-2.22,6,6,0,0,0-4.06,1,15.37,15.37,0,0,0-3.64,3.72l-1.07,1.47Z" transform="translate(-4.11)"/><path class="cls-1" d="M311.13,137.31l-18.49-9.09.8-.89,17.17,8.55-10.26-16.25.72-.81,17.22,8.49L308,111.05l.78-.88,11,17.49-1,1.11-16.57-8.15,9.85,15.64Z" transform="translate(-4.11)"/><path class="cls-1" d="M324.49,122.73l-8.06-19.52,1.13-1,18.74,9.72-.87.8-5.92-3.06-6.71,6.15,2.54,6.16Zm-2.17-8.1,6.08-5.58-10.67-5.53Z" transform="translate(-4.11)"/><path class="cls-1" d="M343.9,106.32a9.93,9.93,0,0,1-2.27,1.31,7.28,7.28,0,0,1-2.32.53,5.82,5.82,0,0,1-2.24-.31,6,6,0,0,1-2-1.24l1-.73a4.63,4.63,0,0,0,2.3,1.07,5.59,5.59,0,0,0,2.52-.22,7.68,7.68,0,0,0,2.4-1.26,7.47,7.47,0,0,0,2-2.16,4.92,4.92,0,0,0,.71-2.41,3.6,3.6,0,0,0-.77-2.24,3.38,3.38,0,0,0-2-1.33,5.65,5.65,0,0,0-3.08.47l-4.32,1.68a9.94,9.94,0,0,1-2.27.57,4.19,4.19,0,0,1-2.11-.26,5,5,0,0,1-2.85-4.17,5.47,5.47,0,0,1,.69-2.84,7.68,7.68,0,0,1,2.19-2.51,7.5,7.5,0,0,1,3.42-1.58,5.64,5.64,0,0,1,3,.3A4.88,4.88,0,0,1,340,90.6l-1,.74A4.3,4.3,0,0,0,334.23,90a7.72,7.72,0,0,0-2.24,1.2,5.63,5.63,0,0,0-2.31,3.26,3.75,3.75,0,0,0,.7,3.14,3,3,0,0,0,2.19,1.32,6.62,6.62,0,0,0,2.86-.53l4.39-1.71a6.62,6.62,0,0,1,2.73-.56,4.35,4.35,0,0,1,2,.57A5.17,5.17,0,0,1,346.06,98a4.7,4.7,0,0,1,1,2.64,5.54,5.54,0,0,1-.69,3A8.65,8.65,0,0,1,343.9,106.32Z" transform="translate(-4.11)"/><path class="cls-1" d="M356.36,97.27l-10-15.85-5.75,3.63-.59-.93,12-7.54.59.93-5.29,3.34,10,15.84Z" transform="translate(-4.11)"/><path class="cls-1" d="M365.09,92l-9-17.67,10.15-5.17.49,1-9.18,4.69,3.69,7.25,8.56-4.36.51,1-8.55,4.36,3.77,7.4,9.54-4.83.52,1Z" transform="translate(-4.11)"/><path class="cls-1" d="M334.71,219.63a9.66,9.66,0,0,1-.23,2.62,7.45,7.45,0,0,1-.91,2.2A5.65,5.65,0,0,1,332,226.1a5.83,5.83,0,0,1-2.17.93l0-1.21a4.66,4.66,0,0,0,2.2-1.27,5.5,5.5,0,0,0,1.27-2.19,7.75,7.75,0,0,0,.35-2.69,7.31,7.31,0,0,0-.64-2.84,4.83,4.83,0,0,0-1.56-2,3.6,3.6,0,0,0-2.28-.66,3.39,3.39,0,0,0-2.24.89,5.68,5.68,0,0,0-1.39,2.79l-1.12,4.5a9.4,9.4,0,0,1-.83,2.18,4.27,4.27,0,0,1-1.43,1.58,4.4,4.4,0,0,1-2.34.65,4.51,4.51,0,0,1-2.71-.72,5.53,5.53,0,0,1-1.93-2.2,7.74,7.74,0,0,1-.79-3.24,7.57,7.57,0,0,1,.67-3.71,5.78,5.78,0,0,1,2-2.3,5,5,0,0,1,2.57-.83l0,1.21a4.29,4.29,0,0,0-3.89,3.12,7.76,7.76,0,0,0-.31,2.51,5.58,5.58,0,0,0,1.34,3.78,3.76,3.76,0,0,0,3,1.23,3,3,0,0,0,2.34-1,6.53,6.53,0,0,0,1.21-2.65l1.13-4.57a6.56,6.56,0,0,1,1.12-2.55,4.2,4.2,0,0,1,1.64-1.34,5.29,5.29,0,0,1,1.92-.45,4.77,4.77,0,0,1,2.74.71,5.63,5.63,0,0,1,2,2.26A8.46,8.46,0,0,1,334.71,219.63Z" transform="translate(-4.11)"/><path class="cls-1" d="M334.17,212.06l-18.12-10.85.29-1.49,20.84-3.39-.22,1.16-6.57,1.07-1.71,8.95,5.71,3.42Zm-6.57-5.19,1.55-8.11-11.86,1.94Z" transform="translate(-4.11)"/><path class="cls-1" d="M337.48,194.87l-17.94-8.46.52-1.09,20,1.21-13.64-14.76.5-1.07,17.94,8.46-.5,1.06L329.1,173l12.41,13.31-.68,1.44-17.93-1.08L338,193.8Z" transform="translate(-4.11)"/><path class="cls-1" d="M347,176.32l-15.49-12.39,7.11-8.89.86.68-6.44,8.06,6.36,5.09,6-7.5.88.7-6,7.5,6.49,5.19,6.7-8.33.88.7Z" transform="translate(-4.11)"/><path class="cls-1" d="M363.34,159.45l-11.25-15-5.44,4.08-.65-.87,11.31-8.49.65.88-5,3.75,11.25,15Z" transform="translate(-4.11)"/><path class="cls-1" d="M376.5,151.74a7.78,7.78,0,0,1-4.4.78,7.36,7.36,0,0,1-4-1.91,13.91,13.91,0,0,1-3.26-4.62,14.17,14.17,0,0,1-1.49-5.5,7.47,7.47,0,0,1,1.07-4.31,8.53,8.53,0,0,1,7.79-3.66,7.48,7.48,0,0,1,4,1.95,14.39,14.39,0,0,1,3.25,4.68,14.21,14.21,0,0,1,1.5,5.44,7.33,7.33,0,0,1-1.05,4.27A7.58,7.58,0,0,1,376.5,151.74Zm-.48-1a6.73,6.73,0,0,0,3-2.48,6,6,0,0,0,.8-3.68,14.11,14.11,0,0,0-1.44-4.9,14.34,14.34,0,0,0-2.87-4.27,6.17,6.17,0,0,0-3.37-1.75,6.58,6.58,0,0,0-3.79.67,6.72,6.72,0,0,0-2.95,2.49,6.26,6.26,0,0,0-.83,3.74,13.54,13.54,0,0,0,1.42,4.94,13.69,13.69,0,0,0,2.87,4.22,6.17,6.17,0,0,0,3.4,1.71A6.67,6.67,0,0,0,376,150.72Z" transform="translate(-4.11)"/><path class="cls-1" d="M395.12,145.54l-3.07-18.48-6.71,1.11-.18-1.08,13.95-2.32.18,1.08-6.17,1,3.07,18.48Z" transform="translate(-4.11)"/><path class="cls-1" d="M403.66,144.19l.87-19.82,1.07,0-.39,8.94,12.72.56.39-8.94,1.07,0-.88,19.81-1.06,0,.43-9.76-12.72-.56-.43,9.76Z" transform="translate(-4.11)"/><path class="cls-1" d="M421.39,145.48l5.08-19.17,11,2.92-.28,1.06-10-2.64-2.09,7.87,9.28,2.47-.29,1.08-9.28-2.46-2.13,8,10.33,2.78-.29,1.08Z" transform="translate(-4.11)"/><path class="cls-1" d="M441.41,152.22l5.93-19.73,1,.64-5.62,18.33,14.35-12.79.92.58-5.55,18.38,14.36-12.78,1,.63-15.45,13.69-1.26-.81,5.33-17.67L442.6,153Z" transform="translate(-4.11)"/><path class="cls-1" d="M457.26,163.32l14.37-13.67,7.85,8.26-.8.75-7.1-7.47-5.91,5.61,6.61,7-.81.77-6.61-7-6,5.73,7.35,7.77-.81.78Z" transform="translate(-4.11)"/><path class="cls-1" d="M466.89,174.25,483,162.65l.63.86-16.09,11.61Z" transform="translate(-4.11)"/><path class="cls-1" d="M472.81,184.27a7.6,7.6,0,0,1-.91-4.33,7.15,7.15,0,0,1,1.81-4,14.67,14.67,0,0,1,4.55-3.37,14.91,14.91,0,0,1,5.41-1.7,7.28,7.28,0,0,1,4.31.84,7.52,7.52,0,0,1,3,3.27,6.22,6.22,0,0,1,.67,2.37,7.7,7.7,0,0,1-1.18,4.74,5.62,5.62,0,0,1-1.67,1.66l-.55-1.08a5.59,5.59,0,0,0,1.64-2,6.18,6.18,0,0,0,.68-2.57,5.19,5.19,0,0,0-.59-2.65,6,6,0,0,0-6.31-3.49,13.52,13.52,0,0,0-4.89,1.57,14.94,14.94,0,0,0-3.33,2.23,8.15,8.15,0,0,0-1.92,2.49A5.62,5.62,0,0,0,473,181a6.76,6.76,0,0,0,.77,2.77,6.23,6.23,0,0,0,1.76,2.19,5.83,5.83,0,0,0,2.21,1,6.41,6.41,0,0,0,2.26.11,6,6,0,0,0,1.95-.57l2.05-1-2.52-4.94.86-.43,3,5.89-9,4.58-.48-1,3.08-1.57a7.09,7.09,0,0,1-2.31-.39,6.5,6.5,0,0,1-2.13-1.21A6.72,6.72,0,0,1,472.81,184.27Z" transform="translate(-4.11)"/><path class="cls-1" d="M477.45,193.36l19.29-4.63.25,1-8.7,2.09,3,12.38,8.7-2.09.24,1-19.28,4.63-.25-1,9.5-2.28-3-12.38-9.5,2.28Z" transform="translate(-4.11)"/><path class="cls-1" d="M481.18,215.49l18.73-.72-.27-6.8,1.1,0,.54,14.13-1.09,0-.24-6.25-18.73.72Z" transform="translate(-4.11)"/><path class="cls-1" d="M391.09,222.93v-3.72a12.34,12.34,0,0,1,1.24-5.72,14.48,14.48,0,0,1,3.27-4.23,31.93,31.93,0,0,1,4.47-3.31q2.43-1.48,4.85-2.93a38.21,38.21,0,0,0,4.46-3.1,13.86,13.86,0,0,0,3.27-3.8,10.14,10.14,0,0,0,1.24-5.1,8.08,8.08,0,0,0-2.81-6.42,11,11,0,0,0-7.49-2.43q-5.16,0-8,2.85a10.06,10.06,0,0,0-3,7H390a12.91,12.91,0,0,1,1.74-6.1,12.07,12.07,0,0,1,4.66-4.52,14.79,14.79,0,0,1,7.37-1.71,14.53,14.53,0,0,1,6.61,1.42,10.53,10.53,0,0,1,4.39,4,11.31,11.31,0,0,1,1.56,6,12.42,12.42,0,0,1-1.23,5.73,14.52,14.52,0,0,1-3.26,4.2,31.46,31.46,0,0,1-4.44,3.28q-2.42,1.47-4.85,2.9a36.49,36.49,0,0,0-4.46,3.08,13.82,13.82,0,0,0-3.25,3.81,10.07,10.07,0,0,0-1.24,5.13v1.3h23.24v2.42Z" transform="translate(-4.11)"/><path class="cls-1" d="M351.67,246.51V230.34H361v.9h-8.41v6.64h7.83v.92h-7.83v6.77l8.72,0v.91Z" transform="translate(-4.11)"/><path class="cls-1" d="M364.34,246.51l0-16.17h.94v15.21h8.25v1Z" transform="translate(-4.11)"/><path class="cls-1" d="M376.35,246.51V230.34h9.28v.9h-8.41v6.64h7.83v.92h-7.83v6.77l8.72,0v.91Z" transform="translate(-4.11)"/><path class="cls-1" d="M389,246.51V230.34h5a7.69,7.69,0,0,1,3,.56,4.57,4.57,0,0,1,2.06,1.65,4.75,4.75,0,0,1,.74,2.71,4.93,4.93,0,0,1-.73,2.75,4.62,4.62,0,0,1-2,1.72,7,7,0,0,1-2.94.59H390v6.19Zm1-7.15h4.16a5.15,5.15,0,0,0,3.4-1.08,3.78,3.78,0,0,0,1.3-3.08,3.41,3.41,0,0,0-1.32-3,6,6,0,0,0-3.54-.95h-4Z" transform="translate(-4.11)"/><path class="cls-1" d="M402,246.51V230.34h.87v7.29h10.38v-7.29h.87v16.17h-.87v-8H402.87v8Z" transform="translate(-4.11)"/><path class="cls-1" d="M416.94,246.51l5.92-16.17h1.24l5.9,16.17h-1l-1.87-5.1h-7.42l-1.87,5.1Zm3.15-6.06h6.74l-3.37-9.2Z" transform="translate(-4.11)"/><path class="cls-1" d="M432.82,246.51V230.34h.72l9.72,14.43V230.34h.88v16.17h-.76l-9.69-14.38v14.38Z" transform="translate(-4.11)"/><path class="cls-1" d="M451.89,246.51V231.24h-5.55v-.9h11.53v.9h-5.1v15.27Z" transform="translate(-4.11)"/><path class="cls-1" d="M464.94,246.74a8.06,8.06,0,0,1-2.13-.28,6.19,6.19,0,0,1-1.77-.8,4.73,4.73,0,0,1-1.29-1.31,4.59,4.59,0,0,1-.68-1.8h1a3.67,3.67,0,0,0,1,1.84,4.64,4.64,0,0,0,1.74,1.11,6.62,6.62,0,0,0,2.19.36,6,6,0,0,0,2.33-.43,3.83,3.83,0,0,0,1.65-1.21,2.86,2.86,0,0,0,.61-1.83,2.79,2.79,0,0,0-.65-1.86,4.61,4.61,0,0,0-2.23-1.22L463,238.26a7.69,7.69,0,0,1-1.75-.75A3.43,3.43,0,0,1,460,236.3a4,4,0,0,1,.22-4.12,4.54,4.54,0,0,1,1.85-1.5,6.29,6.29,0,0,1,2.66-.54,6.05,6.05,0,0,1,3,.67,4.71,4.71,0,0,1,1.81,1.69,4,4,0,0,1,.6,2.11h-1a3.84,3.84,0,0,0-.79-2.14,3.71,3.71,0,0,0-1.64-1.12,6.24,6.24,0,0,0-2-.34,4.53,4.53,0,0,0-3.11,1,3.07,3.07,0,0,0-1.1,2.38,2.44,2.44,0,0,0,.76,1.93,5.34,5.34,0,0,0,2.12,1.08l3.69,1.06a5.23,5.23,0,0,1,2.05,1,3.46,3.46,0,0,1,1,1.38,4.27,4.27,0,0,1,.3,1.58,3.85,3.85,0,0,1-.66,2.2,4.53,4.53,0,0,1-1.91,1.57A7,7,0,0,1,464.94,246.74Z" transform="translate(-4.11)"/><path class="cls-1" d="M359,223.2a7.9,7.9,0,0,1-4.32-1.16,7.36,7.36,0,0,1-2.79-3.42,13.91,13.91,0,0,1-1-5.57,14.09,14.09,0,0,1,1-5.61,7.44,7.44,0,0,1,2.79-3.45,8.54,8.54,0,0,1,8.61,0,7.39,7.39,0,0,1,2.76,3.45,14.49,14.49,0,0,1,1,5.62,14.21,14.21,0,0,1-1,5.56,7.39,7.39,0,0,1-2.76,3.43A7.77,7.77,0,0,1,359,223.2Zm0-1.12a6.73,6.73,0,0,0,3.74-1,6.06,6.06,0,0,0,2.29-3,14.28,14.28,0,0,0,.77-5A14,14,0,0,0,365,208a6.17,6.17,0,0,0-2.3-3,7.39,7.39,0,0,0-7.44,0,6.23,6.23,0,0,0-2.35,3,13.74,13.74,0,0,0-.81,5.07,13.59,13.59,0,0,0,.81,5,6.17,6.17,0,0,0,2.35,3A6.71,6.71,0,0,0,359,222.08Z" transform="translate(-4.11)"/><path class="cls-1" d="M370.55,222.93V203.09h11.22v1.1h-10v8.12h9.33v1.13h-9.33v9.49Z" transform="translate(-4.11)"/><path class="cls-1" d="M279,505.76,260,500l1.78-5.85a9.43,9.43,0,0,1,1.73-3.34,5.56,5.56,0,0,1,2.67-1.83,5.84,5.84,0,0,1,3.45.1,6.06,6.06,0,0,1,3,1.85,5.64,5.64,0,0,1,1.29,3,8.35,8.35,0,0,1-.36,3.65l-1.49,4.89,7.27,2.21ZM271,502.07l1.48-4.88a6.28,6.28,0,0,0,0-4.37,4.63,4.63,0,0,0-3.16-2.63,4.2,4.2,0,0,0-3.95.49,7.3,7.3,0,0,0-2.37,3.81l-1.44,4.69Z" transform="translate(-4.11)"/><path class="cls-1" d="M283.82,490.54l-18.44-7.3,2.57-6.5a8.67,8.67,0,0,1,1.72-2.85,4.31,4.31,0,0,1,2.29-1.34,4.81,4.81,0,0,1,2.79.33,5.16,5.16,0,0,1,2.3,1.62,5,5,0,0,1,.95,2.13,6.88,6.88,0,0,1,.07,2.11l10.52-.27-.45,1.15-10.25.25-2.45,6.2,8.77,3.47Zm-9.43-4.88,1.84-4.64a8.16,8.16,0,0,0,.71-4.42,3.52,3.52,0,0,0-2.43-2.58,3.56,3.56,0,0,0-3.32.06,6.08,6.08,0,0,0-2.23,3.09l-2.17,5.48Z" transform="translate(-4.11)"/><path class="cls-1" d="M290.31,474.71,272.5,466l5-10.22,1,.48L274,465.5l7.31,3.58,4.23-8.62,1,.5-4.23,8.62,7.47,3.66,4.73-9.6,1,.5Z" transform="translate(-4.11)"/><path class="cls-1" d="M299.82,456.54l-20.76-3.87.6-1,19.61,3.62-12.62-15.43.6-1,13.38,16.34Z" transform="translate(-4.11)"/><path class="cls-1" d="M306.1,446.32l-16.24-11.39,6.54-9.32.9.63-5.92,8.45,6.67,4.67,5.51-7.86.92.65L299,440l6.8,4.77,6.17-8.74.92.64Z" transform="translate(-4.11)"/><path class="cls-1" d="M315.13,433.65,299.86,421l.56-.68,21.24,2.11L308,411.13l.69-.83L324,423l-.6.72-21.15-2.13,13.57,11.27Z" transform="translate(-4.11)"/><path class="cls-1" d="M330.75,415.77l-13.46-13-4.73,4.89-.79-.77,9.84-10.15.79.76L318.05,402l13.46,13Z" transform="translate(-4.11)"/><path class="cls-1" d="M342.05,404.75l-13-15,8.48-7.34.72.82-7.59,6.58L336,396l7.05-6.11.74.85-7,6.11,6.21,7.17Z" transform="translate(-4.11)"/><path class="cls-1" d="M358.9,391.25a7.85,7.85,0,0,1-4.14,1.67,7.48,7.48,0,0,1-4.3-1.05,16.44,16.44,0,0,1-6.72-8.93,7.49,7.49,0,0,1,.16-4.44,8.5,8.5,0,0,1,6.87-5.18,7.34,7.34,0,0,1,4.27,1.09,14.57,14.57,0,0,1,4.15,3.91,14.14,14.14,0,0,1,2.58,5,7.36,7.36,0,0,1-.14,4.4A7.71,7.71,0,0,1,358.9,391.25Zm-.68-.9a6.64,6.64,0,0,0,2.4-3,6,6,0,0,0,0-3.77,14.22,14.22,0,0,0-2.41-4.49,14.49,14.49,0,0,0-3.69-3.59,6.12,6.12,0,0,0-3.66-1,6.56,6.56,0,0,0-3.57,1.43,6.62,6.62,0,0,0-2.37,3.05,6.3,6.3,0,0,0-.05,3.83,16.09,16.09,0,0,0,6.09,8.08,6.17,6.17,0,0,0,3.67,1A6.7,6.7,0,0,0,358.22,390.35Z" transform="translate(-4.11)"/><path class="cls-1" d="M374.18,380.55a7.88,7.88,0,0,1-4.25,1.37,7.42,7.42,0,0,1-4.21-1.35,14,14,0,0,1-3.85-4.14,14.25,14.25,0,0,1-2.23-5.24,7.56,7.56,0,0,1,.48-4.42,7.69,7.69,0,0,1,3-3.33,7.6,7.6,0,0,1,4.24-1.35,7.36,7.36,0,0,1,4.19,1.39,14.54,14.54,0,0,1,3.86,4.19,14.37,14.37,0,0,1,2.22,5.19,7.53,7.53,0,0,1-.46,4.38A7.72,7.72,0,0,1,374.18,380.55Zm-.61-.95a6.7,6.7,0,0,0,2.6-2.86,6,6,0,0,0,.29-3.76,16.84,16.84,0,0,0-5.51-8.49,6.22,6.22,0,0,0-3.58-1.28,7.35,7.35,0,0,0-6.24,4.05,6.24,6.24,0,0,0-.32,3.82,13.77,13.77,0,0,0,2.07,4.69,13.63,13.63,0,0,0,3.43,3.8,6.08,6.08,0,0,0,3.59,1.23A6.69,6.69,0,0,0,373.57,379.6Z" transform="translate(-4.11)"/><path class="cls-1" d="M384.2,373.94l-9.69-17.31a1.67,1.67,0,0,0,.27-.14l.65-.36.91-.5,1.06-.58a14.39,14.39,0,0,1,5.71-2,6.85,6.85,0,0,1,4.48,1.17,12.54,12.54,0,0,1,3.59,4.25,12.32,12.32,0,0,1,1.78,5.56,7.11,7.11,0,0,1-1.48,4.59,14.83,14.83,0,0,1-4.74,3.88Zm.48-1.56,1.44-.8a14.52,14.52,0,0,0,4.25-3.37,6.23,6.23,0,0,0,1.45-4,10.75,10.75,0,0,0-1.59-5,10.63,10.63,0,0,0-3.57-4.09,5.91,5.91,0,0,0-4.12-.75,15.17,15.17,0,0,0-4.87,1.84l-1.58.89Z" transform="translate(-4.11)"/><path class="cls-1" d="M407,361.82l-13.29-15.74,1.08-.5L407,360.3l-2.88-19,1-.45,12.37,14.68-2.87-19,1.07-.49,3,20.42-1.36.62L405.48,343l2.75,18.28Z" transform="translate(-4.11)"/><path class="cls-1" d="M425.18,353.69l-.32-21.12,1.42-.54L440.14,348l-1.1.42-4.37-5-8.51,3.26.1,6.66Zm1-8.33,7.71-2.95-7.9-9.06Z" transform="translate(-4.11)"/><path class="cls-1" d="M449.36,345.15a9.73,9.73,0,0,1-2.57.5,7.35,7.35,0,0,1-2.37-.26,5.56,5.56,0,0,1-3.5-2.85l1.14-.38a4.57,4.57,0,0,0,1.83,1.77,5.46,5.46,0,0,0,2.46.61,7.84,7.84,0,0,0,2.68-.41,7.37,7.37,0,0,0,2.55-1.4,4.82,4.82,0,0,0,1.45-2.05,3.51,3.51,0,0,0,0-2.37,3.42,3.42,0,0,0-1.48-1.91,5.66,5.66,0,0,0-3.07-.56l-4.62.18a9.81,9.81,0,0,1-2.34-.2,4.22,4.22,0,0,1-1.91-.93,4.51,4.51,0,0,1-1.28-2.07,4.44,4.44,0,0,1,0-2.81,5.57,5.57,0,0,1,1.57-2.46,7.71,7.71,0,0,1,2.89-1.65,7.43,7.43,0,0,1,3.75-.39,5.77,5.77,0,0,1,2.77,1.27,5,5,0,0,1,1.51,2.23l-1.15.38a4.59,4.59,0,0,0-1.74-2.19,4.51,4.51,0,0,0-2.34-.67,7.5,7.5,0,0,0-2.5.39,5.55,5.55,0,0,0-3.25,2.34,3.75,3.75,0,0,0-.37,3.2,3,3,0,0,0,1.64,2,6.46,6.46,0,0,0,2.89.43l4.7-.18a6.78,6.78,0,0,1,2.77.36,4.22,4.22,0,0,1,1.74,1.21,5.16,5.16,0,0,1,1,1.71,4.8,4.8,0,0,1,.08,2.83,5.58,5.58,0,0,1-1.61,2.56A8.67,8.67,0,0,1,449.36,345.15Z" transform="translate(-4.11)"/><path class="cls-1" d="M464.22,340.24l-5.2-18-6.54,1.89-.3-1.05,13.58-3.93.31,1.05-6,1.74,5.21,18Z" transform="translate(-4.11)"/><path class="cls-1" d="M474.32,337.4l-4.85-19.23,11-2.79.27,1.07-10,2.52,2,7.9,9.31-2.35.27,1.09L473,328l2,8.06,10.38-2.59.27,1.09Z" transform="translate(-4.11)"/></g><g id="P"><path class="cls-2" d="M209.28,148.75s71.12,280,17.1,589.6" transform="translate(-4.11)"/><path class="cls-2" d="M179,287.49c26.74,11.24,50.21,29.84,61.07,60.31" transform="translate(-4.11)"/><path class="cls-2" d="M151.93,297.09a75,75,0,0,1-124.66,1.26" transform="translate(-4.11)"/><circle class="cls-2" cx="171.67" cy="79.77" r="77.27" transform="translate(-10.24 144.75) rotate(-45)"/><path class="cls-2" d="M434.33,53.29a30.14,30.14,0,1,1-33.64-26.18A30.15,30.15,0,0,1,434.33,53.29Z" transform="translate(-4.11)"/><path class="cls-2" d="M66.87,410.93a18.62,18.62,0,1,1-20.79-16.18A18.62,18.62,0,0,1,66.87,410.93Z" transform="translate(-4.11)"/><path class="cls-2" d="M86.84,359.12a11.21,11.21,0,1,1-12.51-9.73A11.2,11.2,0,0,1,86.84,359.12Z" transform="translate(-4.11)"/><path class="cls-2" d="M106.92,439.84a11.21,11.21,0,1,1-12.51-9.74A11.21,11.21,0,0,1,106.92,439.84Z" transform="translate(-4.11)"/><path class="cls-2" d="M513.47,319.34A11.21,11.21,0,1,1,501,309.61,11.21,11.21,0,0,1,513.47,319.34Z" transform="translate(-4.11)"/><path class="cls-2" d="M487.67,392.84a11.21,11.21,0,1,1-12-10.32A11.21,11.21,0,0,1,487.67,392.84Z" transform="translate(-4.11)"/><path class="cls-2" d="M352.34,323.36a11.21,11.21,0,1,1-12-10.31A11.22,11.22,0,0,1,352.34,323.36Z" transform="translate(-4.11)"/><path class="cls-2" d="M155.46,459.71a11.21,11.21,0,1,1-12-10.31A11.23,11.23,0,0,1,155.46,459.71Z" transform="translate(-4.11)"/><path class="cls-2" d="M89.39,506.45a11.2,11.2,0,1,1-12-10.32A11.2,11.2,0,0,1,89.39,506.45Z" transform="translate(-4.11)"/><path class="cls-2" d="M242.83,383.47S258.87,296,330,248.35" transform="translate(-4.11)"/><path class="cls-2" d="M67,406.09s102.89-45.26,177,16.23" transform="translate(-4.11)"/><path class="cls-2" d="M82.57,369.38c7.84,7.09,27.42,19.48,69.36,20.69" transform="translate(-4.11)"/><path class="cls-2" d="M196.76,396.91s-70.26-5.63-94,34.95" transform="translate(-4.11)"/><line class="cls-2" x1="261.56" y1="511.16" x2="240.7" y2="569.95"/><path class="cls-2" d="M372.82,390.65c19.82-8.35,51.43-15.1,92.72-2.68" transform="translate(-4.11)"/><path class="cls-2" d="M242.83,383.47s12.42-76.82,87.13-59.25" transform="translate(-4.11)"/><path class="cls-2" d="M155.49,460.57C228,472.09,248.94,524.78,244.81,570" transform="translate(-4.11)"/><path class="cls-2" d="M234,511.16c-.69.84-62.32-55.75-144.39-7" transform="translate(-4.11)"/><path class="cls-2" d="M244,242.68s-9,21.87-10.27,46" transform="translate(-4.11)"/><path class="cls-2" d="M242.83,614.69s17.4-61.82,98.34-89.91" transform="translate(-4.11)"/><path class="cls-2" d="M363.55,517.65a11.21,11.21,0,1,1-12-10.31A11.23,11.23,0,0,1,363.55,517.65Z" transform="translate(-4.11)"/><path class="cls-3" d="M490.22,230.93a83.31,83.31,0,0,1-163.36,5.95" transform="translate(-4.11)"/></g></g></svg>