<svg xmlns="http://www.w3.org/2000/svg" viewBox="0 0 542.05 661.94"><defs><style>.cls-1{fill:none;stroke-width:2px;}.cls-1,.cls-10,.cls-11,.cls-12,.cls-13,.cls-14,.cls-15,.cls-16,.cls-17,.cls-18,.cls-19,.cls-2,.cls-20,.cls-21,.cls-22,.cls-23,.cls-24,.cls-25,.cls-26,.cls-27,.cls-28,.cls-29,.cls-3,.cls-30,.cls-31,.cls-32,.cls-33,.cls-34,.cls-35,.cls-36,.cls-37,.cls-38,.cls-39,.cls-4,.cls-40,.cls-41,.cls-42,.cls-43,.cls-44,.cls-45,.cls-46,.cls-47,.cls-48,.cls-49,.cls-5,.cls-50,.cls-51,.cls-52,.cls-53,.cls-54,.cls-55,.cls-56,.cls-57,.cls-6,.cls-7,.cls-8,.cls-9{stroke:#eb3e94;stroke-miterlimit:10;}.cls-2{font-size:32.01px;}.cls-10,.cls-11,.cls-12,.cls-13,.cls-14,.cls-15,.cls-16,.cls-17,.cls-18,.cls-19,.cls-2,.cls-20,.cls-21,.cls-22,.cls-23,.cls-24,.cls-25,.cls-26,.cls-27,.cls-28,.cls-29,.cls-3,.cls-30,.cls-31,.cls-32,.cls-33,.cls-34,.cls-35,.cls-36,.cls-37,.cls-38,.cls-39,.cls-4,.cls-40,.cls-41,.cls-42,.cls-43,.cls-44,.cls-45,.cls-46,.cls-47,.cls-48,.cls-49,.cls-5,.cls-50,.cls-51,.cls-52,.cls-53,.cls-54,.cls-55,.cls-56,.cls-57,.cls-6,.cls-7,.cls-8,.cls-9{fill:#013b03;font-family:MyriadPro-Regular, Myriad Pro;}.cls-3{font-size:32.01px;}.cls-4{font-size:32.01px;}.cls-5{font-size:32.01px;}.cls-6{font-size:32.01px;}.cls-7{font-size:32.01px;}.cls-8{font-size:32.01px;}.cls-9{font-size:32.01px;}.cls-10{font-size:32.01px;}.cls-11{font-size:32.01px;}.cls-12{font-size:32.01px;}.cls-13{font-size:32.01px;}.cls-14{font-size:32.01px;}.cls-15{font-size:32.01px;}.cls-16{font-size:32.01px;}.cls-17{font-size:32.01px;}.cls-18{font-size:32.01px;}.cls-19{font-size:32.01px;}.cls-20{font-size:32.01px;}.cls-21{font-size:32.01px;}.cls-22{font-size:32.01px;}.cls-23{font-size:32.01px;}.cls-24{font-size:32.01px;}.cls-25{font-size:32.01px;}.cls-26{font-size:32.01px;}.cls-27{font-size:32.01px;}.cls-28{font-size:32.01px;}.cls-29{font-size:32.01px;}.cls-30{font-size:32.01px;}.cls-31{font-size:32.01px;}.cls-32{font-size:32.01px;}.cls-33{font-size:32.01px;}.cls-34{font-size:32.01px;}.cls-35{font-size:32.01px;}.cls-36{font-size:32.01px;}.cls-37{font-size:32.01px;}.cls-38{font-size:32.01px;}.cls-39{font-size:32.01px;}.cls-40{font-size:32.01px;}.cls-41{font-size:32.01px;}.cls-42{font-size:32.01px;}.cls-43{font-size:32.01px;}.cls-44{font-size:32.01px;}.cls-45{font-size:32.01px;}.cls-46{font-size:32.01px;}.cls-47{font-size:32.01px;}.cls-48{font-size:32.01px;}.cls-49{font-size:32.01px;}.cls-50{font-size:32.01px;}.cls-51{font-size:32.01px;}.cls-52{font-size:32.01px;}.cls-53{font-size:32.01px;}.cls-54{font-size:32.01px;}.cls-55{font-size:32.01px;}.cls-56{font-size:32.01px;}.cls-57{font-size:32.01px;}</style></defs><title>Asset 5</title><g id="Layer_2" data-name="Layer 2"><g id="Layer_1-2" data-name="Layer 1"><path class="cls-1" d="M487.41,348.27S335.83,426.73,289.06,606"/><path class="cls-1" d="M136.72,502.51S277.94,566.08,284.6,658.72"/><path class="cls-1" d="M313,606S298,623.5,284.6,658.72"/><text class="cls-2" transform="translate(326.97 605.33) rotate(-55.55)">T</text><text class="cls-3" transform="translate(334.77 593.77) rotate(-53.12)">O</text><text class="cls-4" transform="translate(347.5 577) rotate(-51.12)"> </text><text class="cls-4" transform="translate(351.11 572.4) rotate(-49.51)">F</text><text class="cls-5" transform="translate(358.82 563.19) rotate(-47.22)">A</text><text class="cls-6" transform="matrix(0.73, -0.69, 0.69, 0.73, 371.01, 549.78)">M</text><text class="cls-6" transform="translate(388.95 533.04) rotate(-40.53)">I</text><text class="cls-5" transform="matrix(0.78, -0.62, 0.62, 0.78, 393.92, 528.67)">L</text><text class="cls-2" transform="matrix(0.81, -0.59, 0.59, 0.81, 404.97, 519.96)">I</text><text class="cls-7" transform="translate(410.2 516) rotate(-33.92)">E</text><text class="cls-8" transform="matrix(0.86, -0.51, 0.51, 0.86, 422.18, 507.89)">S</text><text class="cls-4" transform="translate(434.87 500.48) rotate(-28.08)"> </text><text class="cls-8" transform="translate(440.03 497.71) rotate(-26.52)">I</text><text class="cls-9" transform="matrix(0.92, -0.39, 0.39, 0.92, 445.62, 494.65)">N</text><text class="cls-10" transform="matrix(0.94, -0.34, 0.34, 0.94, 463.88, 487.03)"> </text><text class="cls-11" transform="matrix(0.96, -0.28, 0.28, 0.96, 468.98, 484.92)">N</text><text class="cls-12" transform="translate(487.75 479.45) rotate(-11.75)">E</text><text class="cls-3" transform="matrix(0.99, -0.14, 0.14, 0.99, 501.81, 476.48)">E</text><text class="cls-4" transform="translate(515.93 474.37) rotate(-3.2)">D</text><text class="cls-9" transform="matrix(1, 0, 0, 1, 534.9, 473.45)">.</text><path class="cls-1" d="M312.2,489.22S295.9,538,290.48,575"/><text class="cls-4" transform="translate(2.26 378.52) rotate(8.39)">T</text><text class="cls-9" transform="translate(16.91 380.62) rotate(10.91)">H</text><text class="cls-13" transform="translate(36.39 384.41) rotate(13.02)">E</text><text class="cls-14" transform="translate(50.87 387.8) rotate(14.24)"> </text><text class="cls-3" transform="matrix(0.96, 0.28, -0.28, 0.96, 56.55, 389.07)">M</text><text class="cls-15" transform="matrix(0.95, 0.32, -0.32, 0.95, 79.87, 395.81)">A</text><text class="cls-16" transform="translate(97.43 401.73) rotate(20.86)">R</text><text class="cls-13" transform="translate(112.55 407.46) rotate(23.08)">K</text><text class="cls-17" transform="translate(127.54 413.84) rotate(25.35)">E</text><text class="cls-5" transform="translate(141.24 420.31) rotate(27.74)">T</text><text class="cls-8" transform="matrix(0.87, 0.49, -0.49, 0.87, 154.44, 427.31)"> </text><text class="cls-17" transform="translate(159.52 430.02) rotate(31.62)">A</text><text class="cls-17" transform="translate(175.11 439.53) rotate(35.26)">N</text><text class="cls-18" transform="matrix(0.77, 0.64, -0.64, 0.77, 191.19, 450.82)">D</text><text class="cls-10" transform="translate(206.62 463.71) rotate(42.4)"> </text><text class="cls-17" transform="matrix(0.19, -0.98, 0.98, 0.19, 325.24, 481.05)">D</text><text class="cls-8" transform="matrix(0.22, -0.98, 0.98, 0.22, 329.2, 461.06)">O</text><text class="cls-3" transform="matrix(0.25, -0.97, 0.97, 0.25, 333.87, 440.45)">N</text><text class="cls-16" transform="translate(338.83 420.9) rotate(-74.38)">A</text><text class="cls-19" transform="translate(343.2 405.22) rotate(-73.32)">T</text><text class="cls-2" transform="matrix(0.31, -0.95, 0.95, 0.31, 347.51, 390.79)">E</text><text class="cls-9" transform="matrix(0.33, -0.94, 0.94, 0.33, 352.01, 376.64)">D</text><text class="cls-13" transform="translate(358.81 357.35) rotate(-69.63)"> </text><text class="cls-20" transform="translate(360.82 351.77) rotate(-68.58)">X</text><text class="cls-21" transform="translate(366.96 336.06) rotate(-66.96)">X</text><text class="cls-22" transform="matrix(0.42, -0.91, 0.91, 0.42, 373.52, 320.57)">X</text><text class="cls-23" transform="translate(380.54 305.29) rotate(-63.28)">X</text><text class="cls-10" transform="matrix(0.47, -0.88, 0.88, 0.47, 388.4, 289.82)"> </text><text class="cls-14" transform="translate(390.55 285.6) rotate(-60.46)">V</text><text class="cls-13" transform="matrix(0.53, -0.85, 0.85, 0.53, 398.83, 270.98)">E</text><text class="cls-4" transform="matrix(0.57, -0.82, 0.82, 0.57, 406.43, 258.55)">G</text><text class="cls-15" transform="translate(417.5 242.53) rotate(-52.32)">E</text><text class="cls-24" transform="matrix(0.65, -0.76, 0.76, 0.65, 426.66, 230.62)">T</text><text class="cls-25" transform="matrix(0.7, -0.72, 0.72, 0.7, 434.56, 221.22)">A</text><text class="cls-15" transform="translate(447.14 208.17) rotate(-41.58)">B</text><text class="cls-13" transform="translate(459.03 197.59) rotate(-37.3)">L</text><text class="cls-12" transform="translate(469.82 189.27) rotate(-32.86)">E</text><text class="cls-6" transform="translate(481.71 181.5) rotate(-27.94)">S</text><path class="cls-1" d="M240.23,409c21.7,26.21,48,77.39,51,131.54"/><text class="cls-26" transform="matrix(0.89, 0.46, -0.46, 0.89, 42.76, 260.21)">O</text><text class="cls-27" transform="matrix(0.87, 0.49, -0.49, 0.87, 61.38, 269.98)">F</text><text class="cls-28" transform="matrix(0.86, 0.51, -0.51, 0.86, 74.21, 277.3)"> </text><text class="cls-27" transform="translate(78.36 279.68) rotate(31.59)">V</text><text class="cls-29" transform="translate(92.81 288.57) rotate(33.07)">E</text><text class="cls-30" transform="translate(105.23 296.6) rotate(34.68)">G</text><text class="cls-30" transform="translate(121.44 307.85) rotate(36.33)">E</text><text class="cls-26" transform="matrix(0.79, 0.61, -0.61, 0.79, 133.78, 316.91)">T</text><text class="cls-31" transform="translate(143.78 324.59) rotate(39.35)">A</text><text class="cls-32" transform="matrix(0.75, 0.66, -0.66, 0.75, 158.15, 336.38)">B</text><text class="cls-28" transform="matrix(0.73, 0.68, -0.68, 0.73, 170.47, 347.18)">L</text><text class="cls-33" transform="translate(180.82 356.8) rotate(44.76)">E</text><text class="cls-33" transform="translate(191.31 367.17) rotate(46.67)">S</text><text class="cls-34" transform="translate(201.48 378.01) rotate(48.08)"> </text><text class="cls-35" transform="translate(204.61 381.38) rotate(49.38)">T</text><text class="cls-36" transform="translate(213.76 391.88) rotate(51.94)">O</text><path class="cls-1" d="M291.28,527.35s-.39-114.64-43.77-209.86"/><text class="cls-37" transform="matrix(0.86, 0.51, -0.51, 0.86, 68.72, 127.93)">D</text><text class="cls-38" transform="translate(86.05 138.3) rotate(33.47)">E</text><text class="cls-27" transform="translate(98.31 146.39) rotate(35.69)">L</text><text class="cls-39" transform="matrix(0.8, 0.61, -0.61, 0.8, 109.77, 154.68)">I</text><text class="cls-19" transform="matrix(0.78, 0.63, -0.63, 0.78, 115.14, 158.64)">V</text><text class="cls-40" transform="translate(128.14 169.23) rotate(41.59)">E</text><text class="cls-41" transform="translate(139.13 178.92) rotate(43.97)">R</text><text class="cls-42" transform="translate(150.75 190.13) rotate(46.34)">E</text><text class="cls-43" transform="translate(160.89 200.63) rotate(48.97)">D</text><text class="cls-9" transform="translate(174.16 216.04) rotate(50.92)"> </text><text class="cls-44" transform="matrix(0.61, 0.79, -0.79, 0.61, 177.9, 220.48)">X</text><text class="cls-17" transform="translate(188.07 233.75) rotate(55.01)">X</text><text class="cls-45" transform="translate(197.69 247.43) rotate(57.35)">X</text><text class="cls-46" transform="matrix(0.51, 0.86, -0.86, 0.51, 206.74, 261.51)">X</text><text class="cls-47" transform="matrix(0.48, 0.88, -0.88, 0.48, 215.46, 276.51)"> </text><text class="cls-48" transform="translate(218.36 281.61) rotate(62.57)">K</text><text class="cls-44" transform="translate(225.67 295.57) rotate(64.75)">G</text><path class="cls-1" d="M273.22,284.68c11.32,47.76,27.54,237.92,11,377.14"/><text class="cls-26" transform="translate(166.26 15.68) rotate(56)">E</text><text class="cls-49" transform="translate(174.57 27.96) rotate(58.92)">V</text><text class="cls-36" transform="translate(183.25 42.37) rotate(61.05)">E</text><text class="cls-49" transform="translate(190.42 55.28) rotate(62.85)">R</text><text class="cls-31" transform="matrix(0.43, 0.9, -0.9, 0.43, 197.69, 69.44)">Y</text><text class="cls-50" transform="matrix(0.41, 0.91, -0.91, 0.41, 204.73, 84.31)"> </text><text class="cls-51" transform="translate(206.65 88.4) rotate(66.57)">Y</text><text class="cls-9" transform="matrix(0.38, 0.93, -0.93, 0.38, 213.08, 103.24)">E</text><text class="cls-52" transform="translate(218.68 116.99) rotate(69.44)">A</text><text class="cls-53" transform="translate(225.23 134.47) rotate(70.9)">R</text><text class="cls-54" transform="translate(230.56 149.97) rotate(71.81)">,</text><text class="cls-55" transform="translate(232.41 155.59) rotate(72.29)"> </text><text class="cls-56" transform="translate(233.98 160.09) rotate(73.46)">W</text><text class="cls-57" transform="translate(241.36 185.17) rotate(75.02)">E</text><text class="cls-34" transform="matrix(0.25, 0.97, -0.97, 0.25, 245.2, 199.62)"> </text><text class="cls-34" transform="translate(246.72 205.39) rotate(76.76)">H</text><text class="cls-18" transform="translate(251.3 224.82) rotate(78.15)">A</text><text class="cls-26" transform="translate(254.82 241.51) rotate(79.29)">V</text><text class="cls-39" transform="translate(257.97 258.23) rotate(80.39)">E</text><text class="cls-57" transform="translate(260.45 272.97) rotate(81.1)"> </text><path class="cls-1" d="M284.23,661.82c12.31-101.31-23.8-158.28-58.24-194.55"/></g></g></svg>