<svg xmlns="http://www.w3.org/2000/svg" viewBox="0 0 530.9 774.44"><defs><style>.cls-1,.cls-3{fill:none;stroke:#eb3e94;stroke-linecap:round;stroke-linejoin:round;}.cls-1{stroke-width:5px;}.cls-2{fill:#eb3e94;}.cls-3{stroke-width:6px;}</style></defs><title>Asset 11</title><g id="Layer_2" data-name="Layer 2"><g id="IMPACT"><path class="cls-1" d="M207.15,209.53s71.11,280,17.09,589.6" transform="translate(0 -27.19)"/><path class="cls-1" d="M123.63,322c71,19.18,103.4,56.12,114.26,86.59" transform="translate(0 -27.19)"/><circle class="cls-1" cx="169.53" cy="113.36" r="77.27"/><path class="cls-2" d="M118.26,148.48a13,13,0,0,1-7.48-2.15,13.74,13.74,0,0,1-4.85-6.11,23.34,23.34,0,0,1-1.7-9.33,27,27,0,0,1,1.68-10,14.26,14.26,0,0,1,4.91-6.51,13,13,0,0,1,7.79-2.3,14.23,14.23,0,0,1,5.79,1.16,11.06,11.06,0,0,1,4.38,3.34,9.84,9.84,0,0,1,2,5.26h-5.51a6.82,6.82,0,0,0-2.34-3.67,6.63,6.63,0,0,0-4.21-1.3,7,7,0,0,0-4.7,1.59,8.91,8.91,0,0,0-2.7,4.56,21.58,21.58,0,0,0-.53,7.11,8,8,0,0,1,2.06-2.51,9.61,9.61,0,0,1,3-1.65,10.53,10.53,0,0,1,3.52-.59,13.53,13.53,0,0,1,6.21,1.35,10,10,0,0,1,4.16,3.81,11.07,11.07,0,0,1,1.49,5.85,12,12,0,0,1-1.61,6.22,11.42,11.42,0,0,1-4.53,4.29A14.05,14.05,0,0,1,118.26,148.48Zm-.14-4.67a6.52,6.52,0,0,0,3.43-.91,6.45,6.45,0,0,0,2.42-2.52A8.26,8.26,0,0,0,124,133a5.48,5.48,0,0,0-2.36-2.26,7.94,7.94,0,0,0-3.59-.77,7.39,7.39,0,0,0-3.26.77,7.32,7.32,0,0,0-2.57,2,4.21,4.21,0,0,0-1,2.66,10.31,10.31,0,0,0,.83,4.41,6.78,6.78,0,0,0,2.41,2.92A6.37,6.37,0,0,0,118.12,143.81Z" transform="translate(0 -27.19)"/><path class="cls-2" d="M134.67,154.47l2.79-6.38-2.32-.17v-6.24h6.51v5.45l-4.58,7.34Z" transform="translate(0 -27.19)"/><path class="cls-2" d="M151.82,147.94a47.24,47.24,0,0,1,1.19-5.69,74.62,74.62,0,0,1,2.45-7.53,78.68,78.68,0,0,1,3.88-8.52,68.38,68.38,0,0,1,5.44-8.66H145.41v-5h25.71v5a49,49,0,0,0-3.55,5.37c-1.17,2-2.3,4.17-3.37,6.43s-2,4.52-2.89,6.78a66.22,66.22,0,0,0-2.08,6.44,30.52,30.52,0,0,0-1,5.38Z" transform="translate(0 -27.19)"/><path class="cls-2" d="M186.25,148.48a11.44,11.44,0,0,1-9.64-4.62q-3.51-4.63-3.51-13.48a27.3,27.3,0,0,1,1.61-10,13.31,13.31,0,0,1,4.57-6.16,11.8,11.8,0,0,1,7-2.09,11.41,11.41,0,0,1,9.6,4.66q3.52,4.65,3.53,13.58t-3.51,13.51A11.44,11.44,0,0,1,186.25,148.48Zm0-5a5.5,5.5,0,0,0,5.14-3q1.68-3.06,1.68-10.1,0-7.2-1.71-10.32a5.52,5.52,0,0,0-5.14-3.14,5.61,5.61,0,0,0-5.17,3.16q-1.74,3.15-1.75,10.3c0,4.68.59,8,1.75,10.08A5.63,5.63,0,0,0,186.28,143.51Z" transform="translate(0 -27.19)"/><path class="cls-2" d="M215.58,148.48a11.46,11.46,0,0,1-9.65-4.62q-3.51-4.63-3.51-13.48a27.28,27.28,0,0,1,1.62-10,13.24,13.24,0,0,1,4.57-6.16,11.75,11.75,0,0,1,7-2.09,11.38,11.38,0,0,1,9.6,4.66q3.54,4.65,3.54,13.58t-3.51,13.51A11.45,11.45,0,0,1,215.58,148.48Zm0-5a5.5,5.5,0,0,0,5.14-3c1.12-2,1.69-5.41,1.69-10.1s-.57-8.24-1.72-10.32a5.52,5.52,0,0,0-5.13-3.14,5.6,5.6,0,0,0-5.17,3.16q-1.75,3.15-1.75,10.3t1.75,10.08A5.61,5.61,0,0,0,215.6,143.51Z" transform="translate(0 -27.19)"/><path class="cls-2" d="M148.89,187.63V162h4v12.86L163.74,162h4.47l-8.37,10,9.15,15.6h-4.22l-7.67-12.84-4.26,5v7.89Z" transform="translate(0 -27.19)"/><path class="cls-2" d="M182.38,188a10.88,10.88,0,0,1-5.91-1.56,10.07,10.07,0,0,1-3.82-4.49,19.14,19.14,0,0,1,0-14.17,10.26,10.26,0,0,1,3.91-4.54,11,11,0,0,1,6-1.58,10.2,10.2,0,0,1,6.87,2.57,9.37,9.37,0,0,1,2.12,2.69,7.94,7.94,0,0,1,.89,3.16h-4a6.48,6.48,0,0,0-1.06-2.53,6.34,6.34,0,0,0-2.05-1.87,5.55,5.55,0,0,0-2.8-.71,6.69,6.69,0,0,0-3.67,1,6.77,6.77,0,0,0-2.49,3.21,14.86,14.86,0,0,0-.89,5.6,16.25,16.25,0,0,0,.55,4.56,8.45,8.45,0,0,0,1.54,3,5.75,5.75,0,0,0,2.29,1.68,7.62,7.62,0,0,0,2.8.52,6,6,0,0,0,2.58-.52,5.73,5.73,0,0,0,1.87-1.32,6.18,6.18,0,0,0,1.17-1.77,5.16,5.16,0,0,0,.47-1.83l.15-2.08h-6v-2.73l10,0v13.26h-2.75v-3.76a10.63,10.63,0,0,1-1.68,2,8.26,8.26,0,0,1-2.48,1.53A9.35,9.35,0,0,1,182.38,188Z" transform="translate(0 -27.19)"/><path class="cls-2" d="M257.72,292.16l-18-8.43L245,272.55l2,.95-4.15,8.82,5.94,2.79,3.72-7.92,2,.93L250.81,286l8,3.77Z" transform="translate(0 -27.19)"/><path class="cls-2" d="M267.71,272.19a8.59,8.59,0,0,1-3.14,3.54,7.89,7.89,0,0,1-4.44,1.08,14.93,14.93,0,0,1-9.83-5,7.93,7.93,0,0,1-1.74-4.26,9.23,9.23,0,0,1,4.14-8.12,7.75,7.75,0,0,1,4.44-1.05,15.14,15.14,0,0,1,9.84,5,7.6,7.6,0,0,1,1.74,4.21A8.46,8.46,0,0,1,267.71,272.19Zm-2-1a5.55,5.55,0,0,0,.68-3.16,5.24,5.24,0,0,0-1.41-2.93,12.63,12.63,0,0,0-3.69-2.65A13,13,0,0,0,257,261a5.41,5.41,0,0,0-3.25.56,5.54,5.54,0,0,0-2.18,2.39,5.12,5.12,0,0,0,.81,6.15,14.78,14.78,0,0,0,8,4.1,5.25,5.25,0,0,0,3.22-.6A5.52,5.52,0,0,0,265.74,271.18Z" transform="translate(0 -27.19)"/><path class="cls-2" d="M276.5,255.71a8.58,8.58,0,0,1-3.27,3.42,7.74,7.74,0,0,1-4.48.92,15,15,0,0,1-9.64-5.36,7.87,7.87,0,0,1-1.59-4.31,8.5,8.5,0,0,1,1.16-4.58,8.41,8.41,0,0,1,3.26-3.39,7.81,7.81,0,0,1,4.48-.9,15.13,15.13,0,0,1,9.66,5.36,7.67,7.67,0,0,1,1.59,4.26A8.6,8.6,0,0,1,276.5,255.71Zm-1.93-1.08a5.64,5.64,0,0,0,.78-3.14,5.18,5.18,0,0,0-1.31-3,12.54,12.54,0,0,0-3.59-2.77,12.77,12.77,0,0,0-4.31-1.61,5.38,5.38,0,0,0-3.27.44,6.09,6.09,0,0,0-3,5.45,5.4,5.4,0,0,0,1.34,3,12.64,12.64,0,0,0,3.63,2.82,12.31,12.31,0,0,0,4.26,1.57,5.28,5.28,0,0,0,3.24-.49A5.66,5.66,0,0,0,274.57,254.63Z" transform="translate(0 -27.19)"/><path class="cls-2" d="M281.77,245.81l-17-10.22c0-.06.13-.22.31-.5s.37-.61.61-1,.48-.82.75-1.25.5-.82.73-1.18a13.86,13.86,0,0,1,4.06-4.46,7.09,7.09,0,0,1,4.53-1.16,11.8,11.8,0,0,1,5.09,1.81,12.13,12.13,0,0,1,4.15,3.83,7.52,7.52,0,0,1,1.1,4.73,13.7,13.7,0,0,1-2.09,5.68Zm-.53-3.36.9-1.5a10.63,10.63,0,0,0,1.52-4,5.48,5.48,0,0,0-.72-3.61,11.56,11.56,0,0,0-7.8-4.72,5.3,5.3,0,0,0-3.43,1.06,11,11,0,0,0-2.78,3.22l-.95,1.59Z" transform="translate(0 -27.19)"/><path class="cls-2" d="M295.38,223.72l-19.67-6.26,1.43-2.13,15.56,5.11L282.05,208l1.11-1.65,15.6,5.05-10.65-12.48,1.42-2.12,13.28,15.82-1.3,1.95-15.2-4.92,10.34,12.21Z" transform="translate(0 -27.19)"/><path class="cls-2" d="M304.43,210.18,292.5,192.79l1.67-2.33,20.3,5.72L313,198.29l-5.54-1.58-4.74,6.62,3.26,4.75Zm-3.26-8.77,3.93-5.49-9.75-2.84Z" transform="translate(0 -27.19)"/><path class="cls-2" d="M319.94,189.48a10.51,10.51,0,0,1-2,2,8,8,0,0,1-2.27,1.24,6,6,0,0,1-2.44.34,5.53,5.53,0,0,1-2.44-.77l1.61-2.11a3.92,3.92,0,0,0,2.1.37,4.57,4.57,0,0,0,2-.75,6.92,6.92,0,0,0,1.76-1.67,6.58,6.58,0,0,0,1.1-2.09,4.06,4.06,0,0,0,.12-2.06,2.75,2.75,0,0,0-1.07-1.62,2.48,2.48,0,0,0-2-.55,5.65,5.65,0,0,0-2.37,1.19l-3.32,2.6a9,9,0,0,1-2.25,1.36,4.55,4.55,0,0,1-2.32.32,4.94,4.94,0,0,1-2.39-1.06,4.78,4.78,0,0,1-1.76-2.53,6,6,0,0,1,0-3.19,9,9,0,0,1,1.64-3.29,8.73,8.73,0,0,1,3-2.64,6.08,6.08,0,0,1,3.16-.63,5.25,5.25,0,0,1,2.74,1.06l-1.59,2.07a3.83,3.83,0,0,0-2.19-.67A3.74,3.74,0,0,0,307,177a6.59,6.59,0,0,0-1.61,1.52,4.73,4.73,0,0,0-1.18,3.15,3,3,0,0,0,1.16,2.26,2.46,2.46,0,0,0,2,.54,5.39,5.39,0,0,0,2.26-1.17l3.23-2.54a7.6,7.6,0,0,1,2.66-1.51,4.55,4.55,0,0,1,2.36-.09,5.31,5.31,0,0,1,2.06,1,4.93,4.93,0,0,1,1.78,2.51,6.16,6.16,0,0,1,0,3.28A9.53,9.53,0,0,1,319.94,189.48Z" transform="translate(0 -27.19)"/><path class="cls-2" d="M328.3,178.38l-13.61-11-4,5-1.81-1.46,9.44-11.67,1.81,1.47-3.8,4.7,13.6,11Z" transform="translate(0 -27.19)"/><path class="cls-2" d="M334.93,170.26l-15.07-12.89,8.13-9.51,1.69,1.47-6.47,7.55,4.93,4.21,5.82-6.8,1.69,1.44-5.84,6.82,5,4.29,6.67-7.75,1.72,1.47Z" transform="translate(0 -27.19)"/><path class="cls-2" d="M347.75,155.43l-9.65-18.76,1.95-2.1,19.42,8.23-1.76,1.9-5.3-2.25-5.53,6,2.63,5.12Zm-2.14-9.11,4.6-5-9.32-4Z" transform="translate(0 -27.19)"/><path class="cls-2" d="M362.46,139.79,343.34,131l1.75-1.79,16.37,7.5-7.88-16.19,1.75-1.8,9.27,18.9Z" transform="translate(0 -27.19)"/><path class="cls-2" d="M376.44,126.28a8.56,8.56,0,0,1-4.13,2.31,7.74,7.74,0,0,1-4.55-.43,14.91,14.91,0,0,1-7.63-8,7.8,7.8,0,0,1-.26-4.59,9.22,9.22,0,0,1,6.57-6.32,7.85,7.85,0,0,1,4.55.46,13.32,13.32,0,0,1,4.59,3.28,13.16,13.16,0,0,1,3.06,4.68,7.76,7.76,0,0,1,.27,4.55A8.47,8.47,0,0,1,376.44,126.28Zm-1.53-1.59a5.63,5.63,0,0,0,1.68-2.77,5.17,5.17,0,0,0-.38-3.23,12.48,12.48,0,0,0-2.62-3.71,12.9,12.9,0,0,0-3.64-2.81,5.41,5.41,0,0,0-3.26-.54,5.43,5.43,0,0,0-4.1,7.62,12.74,12.74,0,0,0,2.64,3.76,12.35,12.35,0,0,0,3.61,2.75,5.31,5.31,0,0,0,3.25.48A5.68,5.68,0,0,0,374.91,124.69Z" transform="translate(0 -27.19)"/><path class="cls-2" d="M384.51,118.31,371.09,103.7,373,102l13.42,14.62Z" transform="translate(0 -27.19)"/><path class="cls-2" d="M389.23,114l-13.1-14.89.45-.38.89-.79c.34-.31.71-.63,1.09-1l1.05-.9a13.73,13.73,0,0,1,5.23-3,7.1,7.1,0,0,1,4.67.26,11.9,11.9,0,0,1,4.3,3.28,12.08,12.08,0,0,1,2.79,4.9,7.49,7.49,0,0,1-.39,4.84,13.65,13.65,0,0,1-3.71,4.78Zm.52-3.36,1.31-1.15a10.72,10.72,0,0,0,2.66-3.36,5.49,5.49,0,0,0,.41-3.66,9.29,9.29,0,0,0-2.31-4.07,9.45,9.45,0,0,0-3.69-2.8,5.24,5.24,0,0,0-3.58,0,11.05,11.05,0,0,0-3.63,2.23L379.53,99Z" transform="translate(0 -27.19)"/><path class="cls-2" d="M402.53,102.35,389.87,87.08l9.63-8,1.42,1.73-7.66,6.34,4.14,5,6.89-5.72,1.42,1.71-6.91,5.73L403,99l7.9-6.51,1.44,1.74Z" transform="translate(0 -27.19)"/><path class="cls-2" d="M414.8,92.24,402.6,76.6l.46-.35.94-.73c.36-.29.75-.59,1.15-.89l1.1-.84a13.81,13.81,0,0,1,5.4-2.71,7.2,7.2,0,0,1,4.64.54,11.9,11.9,0,0,1,4.1,3.52,12.1,12.1,0,0,1,2.5,5.07,7.51,7.51,0,0,1-.67,4.8,13.51,13.51,0,0,1-4,4.55Zm.71-3.32,1.38-1.07a10.78,10.78,0,0,0,2.86-3.2,5.57,5.57,0,0,0,.62-3.63,9.48,9.48,0,0,0-2.06-4.2,9.38,9.38,0,0,0-3.53-3,5.29,5.29,0,0,0-3.57-.25,11,11,0,0,0-3.75,2L406,76.72Z" transform="translate(0 -27.19)"/><path class="cls-2" d="M427.65,83.61l-7-20.85,1.59-1.18,7,20.86Z" transform="translate(0 -27.19)"/><path class="cls-2" d="M439.14,73.86,434.23,67l-12.12-5.34L424.37,60,434,64.4,432.88,54l2.26-1.61,1.15,13.18,4.9,6.86Z" transform="translate(0 -27.19)"/><path class="cls-2" d="M448,67.61,436.89,51.16l10.37-7L448.5,46l-8.24,5.56L443.88,57l7.42-5,1.25,1.84-7.44,5,3.7,5.48,8.49-5.7,1.27,1.88Z" transform="translate(0 -27.19)"/><path class="cls-2" d="M459.36,59.92l-4.57-20.59,2.42-1.54,16.69,12.9-2.19,1.39-4.55-3.53-6.87,4.36,1.25,5.62Zm.25-9.35,5.7-3.63-8-6.28Z" transform="translate(0 -27.19)"/><path class="cls-2" d="M475.93,49.47l-10.14-17,6.61-3.92a8.52,8.52,0,0,1,3.4-1.27,4.62,4.62,0,0,1,2.81.5,6.4,6.4,0,0,1,3,4.73,5,5,0,0,1-.36,2.22,7.3,7.3,0,0,1-1.06,1.8l7.95,5.74-2.31,1.37-7.48-5.49-4.58,2.73,4.37,7.34ZM472.67,39l3.72-2.21a5.67,5.67,0,0,0,2.5-2.55,3.14,3.14,0,0,0-.34-2.95,3.11,3.11,0,0,0-2.27-1.69,4.69,4.69,0,0,0-3,.78L469,32.92Z" transform="translate(0 -27.19)"/><path class="cls-2" d="M489.75,41.33l-1.6-2.81,2.62-1.5,1.6,2.81Z" transform="translate(0 -27.19)"/><circle class="cls-1" cx="46.25" cy="446.82" r="18.62"/><circle class="cls-1" cx="73.59" cy="394.1" r="11.21"/><circle class="cls-1" cx="93.66" cy="474.81" r="11.21"/><circle class="cls-1" cx="517.19" cy="351.91" r="11.21"/><circle class="cls-1" cx="474.35" cy="427.29" r="11.21"/><circle class="cls-1" cx="339.03" cy="357.81" r="11.21"/><circle class="cls-1" cx="142.15" cy="494.16" r="11.21"/><circle class="cls-1" cx="76.08" cy="540.89" r="11.21"/><path class="cls-1" d="M240.69,444.25S254.14,370.94,311,322" transform="translate(0 -27.19)"/><path class="cls-2" d="M332.6,277.05a10.26,10.26,0,0,1-.4,2.75,7.84,7.84,0,0,1-1.09,2.34,6.3,6.3,0,0,1-1.76,1.73,5.53,5.53,0,0,1-2.43.82L327,282a3.87,3.87,0,0,0,1.91-.94,4.58,4.58,0,0,0,1.19-1.81,7,7,0,0,0,.42-2.38,6.51,6.51,0,0,0-.35-2.33,4,4,0,0,0-1.13-1.73,2.71,2.71,0,0,0-1.82-.68,2.51,2.51,0,0,0-1.91.73,5.64,5.64,0,0,0-1.2,2.36L323,279.31a9.25,9.25,0,0,1-1,2.43,4.53,4.53,0,0,1-1.67,1.64,4.93,4.93,0,0,1-2.56.55,4.71,4.71,0,0,1-2.91-1,6,6,0,0,1-1.91-2.57,9.09,9.09,0,0,1-.63-3.62,8.66,8.66,0,0,1,.88-3.92,5.92,5.92,0,0,1,2.17-2.38,5.23,5.23,0,0,1,2.83-.77l-.05,2.61a3.56,3.56,0,0,0-3.33,2.41,6.8,6.8,0,0,0-.39,2.17,4.74,4.74,0,0,0,.91,3.23,3,3,0,0,0,2.28,1.13,2.42,2.42,0,0,0,1.93-.74,5.5,5.5,0,0,0,1.13-2.29l1.1-4a7.53,7.53,0,0,1,1.24-2.79A4.7,4.7,0,0,1,324.8,270a5.57,5.57,0,0,1,2.25-.42,4.93,4.93,0,0,1,2.92,1,6.23,6.23,0,0,1,2,2.6A9.53,9.53,0,0,1,332.6,277.05Z" transform="translate(0 -27.19)"/><path class="cls-2" d="M332.24,270.52l-17.7-11.46.64-2.8,20.94-2.52-.58,2.52-5.72.68L328,264.87l4.84,3.13Zm-6.39-6.84,1.53-6.59-10.11,1.14Z" transform="translate(0 -27.19)"/><path class="cls-2" d="M336.11,253.43l-17.61-9.11,1.61-3.12,17.29,2.21L325.64,230.5l1.61-3.1,17.62,9.11-1.21,2.33-14.24-7.37L341,243.94l-1.09,2.11-16.73-2.23,14.11,7.3Z" transform="translate(0 -27.19)"/><path class="cls-2" d="M346.27,235.19l-15-12.93,8.16-9.49,1.69,1.47-6.49,7.54L339.5,226l5.84-6.79,1.69,1.45-5.86,6.8,5,4.32,6.69-7.74,1.72,1.47Z" transform="translate(0 -27.19)"/><path class="cls-2" d="M363,218.92l-10-14.38-5.26,3.66-1.33-1.92,12.33-8.56,1.33,1.92-5,3.45,10,14.37Z" transform="translate(0 -27.19)"/><path class="cls-2" d="M377,211.37a8.56,8.56,0,0,1-4.68.71,7.82,7.82,0,0,1-4.11-2,12.89,12.89,0,0,1-3.12-4.63,13.18,13.18,0,0,1-1.21-5.51,7.84,7.84,0,0,1,1.39-4.39,8.5,8.5,0,0,1,3.72-2.9,8.33,8.33,0,0,1,4.66-.68,7.82,7.82,0,0,1,4.09,2,15.25,15.25,0,0,1,4.35,10.15,7.82,7.82,0,0,1-1.36,4.35A8.45,8.45,0,0,1,377,211.37Zm-.87-2a5.54,5.54,0,0,0,2.55-2,5.22,5.22,0,0,0,.79-3.15,15.35,15.35,0,0,0-3.56-8.31,5.27,5.27,0,0,0-2.85-1.65,5.44,5.44,0,0,0-3.2.43,5.5,5.5,0,0,0-2.53,2,5.44,5.44,0,0,0-.8,3.22,12.63,12.63,0,0,0,1.14,4.45,12.32,12.32,0,0,0,2.41,3.85,5.29,5.29,0,0,0,2.86,1.6A5.6,5.6,0,0,0,376.1,209.34Z" transform="translate(0 -27.19)"/><path class="cls-2" d="M395.11,206l-2.57-17.31-6.34.94-.34-2.31,14.84-2.2.34,2.3-6,.89,2.58,17.31Z" transform="translate(0 -27.19)"/><path class="cls-2" d="M403.63,204.83l1.54-19.78,2.53.2-.66,8.42,10.67.83.65-8.42,2.53.19-1.53,19.78-2.53-.2.71-9.12-10.67-.83-.71,9.12Z" transform="translate(0 -27.19)"/><path class="cls-2" d="M421.32,206.63l5.75-19,12,3.63-.66,2.13-9.52-2.88-1.88,6.2,8.58,2.59-.65,2.13-8.58-2.6-1.92,6.33,9.79,3-.66,2.17Z" transform="translate(0 -27.19)"/><path class="cls-2" d="M441.38,214.11l6.42-19.62,2.12,1.44-5.24,15.53,12.57-10.55,1.64,1.12-5.18,15.56L466.28,207l2.11,1.44-15.93,13.15-1.94-1.31,5-15.17-12.29,10.24Z" transform="translate(0 -27.19)"/><path class="cls-2" d="M456.59,225.38l14.79-13.22,8.34,9.33L478,223l-6.62-7.41-4.83,4.32,6,6.67L470.9,228l-6-6.68-4.93,4.4,6.8,7.65-1.69,1.51Z" transform="translate(0 -27.19)"/><path class="cls-2" d="M466.06,236.77l16.48-11,1.41,2.11-16.48,11Z" transform="translate(0 -27.19)"/><path class="cls-2" d="M472,247.63a8.29,8.29,0,0,1-.81-4.59A7.62,7.62,0,0,1,473.1,239a15.22,15.22,0,0,1,10-4.62,7.8,7.8,0,0,1,4.42,1.2,8.32,8.32,0,0,1,3,3.6,7.52,7.52,0,0,1,.71,2.77,7.73,7.73,0,0,1-.31,2.72,7.45,7.45,0,0,1-1.17,2.34,5.85,5.85,0,0,1-1.88,1.63l-1.15-2.46a5.1,5.1,0,0,0,1.5-1.63,4.93,4.93,0,0,0,.67-2.15,4.59,4.59,0,0,0-.44-2.3,5.09,5.09,0,0,0-5.23-3.11,12,12,0,0,0-4.38,1.24,13.24,13.24,0,0,0-3.1,1.93,6.54,6.54,0,0,0-1.7,2.14,4.82,4.82,0,0,0-.48,2.27,5.89,5.89,0,0,0,.57,2.27,4.92,4.92,0,0,0,1.31,1.78,4.66,4.66,0,0,0,1.68.93,5.29,5.29,0,0,0,1.75.22,4.7,4.7,0,0,0,1.56-.31l1.62-.67-2-4.37,1.69-.79,3.13,6.77-9.28,4.31-.8-1.72,2.74-1.28a7.62,7.62,0,0,1-2-.51,6.31,6.31,0,0,1-1.93-1.25A7.22,7.22,0,0,1,472,247.63Z" transform="translate(0 -27.19)"/><path class="cls-2" d="M476.07,256.16l19.43-4,.51,2.49-8.28,1.69,2.14,10.48,8.28-1.69.5,2.49-19.43,4-.51-2.49,9-1.82-2.14-10.49-9,1.83Z" transform="translate(0 -27.19)"/><path class="cls-2" d="M479.15,278.17l17.51.12,0-6.4H499l-.11,15-2.33,0,.05-6.05-17.51-.12Z" transform="translate(0 -27.19)"/><path class="cls-1" d="M64.88,466.87s102.88-45.26,177,16.23" transform="translate(0 -27.19)"/><path class="cls-1" d="M80.44,430.16c7.83,7.09,27.42,19.48,69.35,20.69" transform="translate(0 -27.19)"/><path class="cls-1" d="M194.63,457.69s-70.26-5.63-94,34.95" transform="translate(0 -27.19)"/><path class="cls-2" d="M279.27,559.63a8.22,8.22,0,0,1-2.52,4,7.76,7.76,0,0,1-4.2,1.7A15.82,15.82,0,0,1,262,562.07a7.56,7.56,0,0,1-2.44-3.77,8.46,8.46,0,0,1,.23-4.72,7.71,7.71,0,0,1,1.94-3.29,7.17,7.17,0,0,1,3-1.8,6.87,6.87,0,0,1,3.4-.16l-.8,2.58a5.73,5.73,0,0,0-2.27.17,4.47,4.47,0,0,0-1.92,1.1,4.68,4.68,0,0,0-1.25,2.12,5.25,5.25,0,0,0-.1,3.15,5.08,5.08,0,0,0,1.93,2.57,13.4,13.4,0,0,0,4.1,1.94c2.64.82,4.72,1,6.23.46a4.79,4.79,0,0,0,3.08-3.38,4.57,4.57,0,0,0,.15-2.46,4.67,4.67,0,0,0-1-2,6.25,6.25,0,0,0-1.8-1.43l.81-2.58a8.1,8.1,0,0,1,2.12,1.37,7.14,7.14,0,0,1,1.57,2,6.59,6.59,0,0,1,.71,2.59A8.2,8.2,0,0,1,279.27,559.63Z" transform="translate(0 -27.19)"/><path class="cls-2" d="M285.15,543.36a8.88,8.88,0,0,1-2.37,3.55,5.07,5.07,0,0,1-3.19,1.21,9.87,9.87,0,0,1-4-.85l-11.77-4.8,1-2.44,12.12,5a4.85,4.85,0,0,0,3.78.25,4.6,4.6,0,0,0,2.4-2.71,5.85,5.85,0,0,0,.48-2.55,3.52,3.52,0,0,0-.87-2.08,5.63,5.63,0,0,0-2.27-1.53l-12.13-5,1-2.36,12,4.9a9,9,0,0,1,3.31,2.16,5.19,5.19,0,0,1,1.35,3.1A9,9,0,0,1,285.15,543.36Z" transform="translate(0 -27.19)"/><path class="cls-2" d="M291,529.67,275.4,521.8l-2.88,5.73-2.09-1,6.75-13.41,2.08,1-2.72,5.4,15.64,7.87Z" transform="translate(0 -27.19)"/><path class="cls-2" d="M298.57,515.69,281.8,505.1l6.61-10.45,1.87,1.2-5.21,8.23,5.55,3.51,4.67-7.4,1.86,1.17-4.68,7.4,7.49,4.73Z" transform="translate(0 -27.19)"/><path class="cls-2" d="M311.24,497.4a8.48,8.48,0,0,1-3.7,3,7.79,7.79,0,0,1-4.56.32,15.06,15.06,0,0,1-8.82-6.62,7.86,7.86,0,0,1-1-4.49,9.26,9.26,0,0,1,5.46-7.3,7.71,7.71,0,0,1,4.56-.28,13.17,13.17,0,0,1,5.07,2.49,13,13,0,0,1,3.77,4.12,7.63,7.63,0,0,1,1,4.44A8.44,8.44,0,0,1,311.24,497.4Zm-1.76-1.32a5.65,5.65,0,0,0,1.2-3,5.18,5.18,0,0,0-.9-3.13,12.46,12.46,0,0,0-3.18-3.23,13,13,0,0,0-4.06-2.18,5.27,5.27,0,0,0-3.29,0,5.42,5.42,0,0,0-2.81,8.18,12.58,12.58,0,0,0,3.21,3.28,12.4,12.4,0,0,0,4,2.13,5.29,5.29,0,0,0,3.28-.05A5.7,5.7,0,0,0,309.48,496.08Z" transform="translate(0 -27.19)"/><path class="cls-2" d="M323,483a8.48,8.48,0,0,1-3.94,2.62,7.68,7.68,0,0,1-4.57-.08,14.9,14.9,0,0,1-8.22-7.34,7.86,7.86,0,0,1-.61-4.56,9.21,9.21,0,0,1,6.06-6.81,7.77,7.77,0,0,1,4.57.11,15.24,15.24,0,0,1,8.25,7.34,7.73,7.73,0,0,1,.61,4.52A8.39,8.39,0,0,1,323,483Zm-1.64-1.47a5.63,5.63,0,0,0,1.45-2.89,5.21,5.21,0,0,0-.62-3.2,15.4,15.4,0,0,0-6.75-6,5.37,5.37,0,0,0-3.29-.28,5.46,5.46,0,0,0-2.71,1.75,5.55,5.55,0,0,0-1.43,2.9,5.38,5.38,0,0,0,.65,3.25,12.42,12.42,0,0,0,2.92,3.55,12.29,12.29,0,0,0,3.81,2.46,5.35,5.35,0,0,0,3.27.24A5.73,5.73,0,0,0,321.38,481.54Z" transform="translate(0 -27.19)"/><path class="cls-2" d="M330.4,474.59l-13.69-14.34c0-.05.18-.18.42-.4s.53-.49.86-.82.68-.66,1.05-1l1-.94a13.63,13.63,0,0,1,5.1-3.23,7.14,7.14,0,0,1,4.68.07,11.82,11.82,0,0,1,4.42,3.1,12,12,0,0,1,3,4.79,7.39,7.39,0,0,1-.19,4.84,13.47,13.47,0,0,1-3.51,4.93Zm.38-3.37L332,470a10.79,10.79,0,0,0,2.53-3.47,5.57,5.57,0,0,0,.26-3.67,11.46,11.46,0,0,0-6.28-6.62,5.3,5.3,0,0,0-3.58.11,11,11,0,0,0-3.53,2.38L320.1,460Z" transform="translate(0 -27.19)"/><path class="cls-2" d="M349.59,457.21,333,445l2-1.56,13.1,9.84L342,438l1.58-1.21,13.16,9.8-6.08-15.25,2-1.55,7.5,19.25-1.86,1.43-12.82-9.54,5.87,14.88Z" transform="translate(0 -27.19)"/><path class="cls-2" d="M362.51,447.32l-5-20.5,2.39-1.58,16.94,12.56-2.16,1.43-4.62-3.43-6.77,4.49,1.35,5.6Zm.07-9.35,5.63-3.74-8.11-6.13Z" transform="translate(0 -27.19)"/><path class="cls-2" d="M384.52,433.71a10.64,10.64,0,0,1-2.56,1.07,7.87,7.87,0,0,1-2.57.28,6.26,6.26,0,0,1-2.39-.62,5.57,5.57,0,0,1-2-1.65l2.3-1.33a3.87,3.87,0,0,0,1.8,1.14,4.6,4.6,0,0,0,2.16.09,7,7,0,0,0,2.26-.87,6.61,6.61,0,0,0,1.82-1.51,4,4,0,0,0,.89-1.85,2.72,2.72,0,0,0-.36-1.91,2.48,2.48,0,0,0-1.61-1.26,5.66,5.66,0,0,0-2.64.18l-4.06,1.14A9.21,9.21,0,0,1,375,427a4.51,4.51,0,0,1-2.26-.59,4.88,4.88,0,0,1-1.8-1.9,4.77,4.77,0,0,1-.66-3,6,6,0,0,1,1.21-3,9,9,0,0,1,2.78-2.4,8.71,8.71,0,0,1,3.81-1.27,5.85,5.85,0,0,1,3.16.63,5.23,5.23,0,0,1,2.12,2l-2.26,1.3a3.84,3.84,0,0,0-1.77-1.45,3.79,3.79,0,0,0-2-.15,6.39,6.39,0,0,0-2.06.79,4.67,4.67,0,0,0-2.3,2.44,3,3,0,0,0,.2,2.54,2.47,2.47,0,0,0,1.64,1.27,5.42,5.42,0,0,0,2.54-.22l4-1.1a7.44,7.44,0,0,1,3-.37,4.63,4.63,0,0,1,2.21.81,5.57,5.57,0,0,1,1.52,1.71,5,5,0,0,1,.68,3,6.07,6.07,0,0,1-1.22,3A9.54,9.54,0,0,1,384.52,433.71Z" transform="translate(0 -27.19)"/><path class="cls-2" d="M396.59,426.79l-8-15.57-5.71,2.92-1.06-2.07,13.35-6.85,1.07,2.08-5.38,2.75,8,15.58Z" transform="translate(0 -27.19)"/><path class="cls-2" d="M406,422.07,397.81,404l11.39-5.17.91,2L401.06,405l2.67,5.89,8.16-3.7.92,2-8.17,3.71,2.73,6,9.33-4.2.93,2.06Z" transform="translate(0 -27.19)"/><line class="cls-1" x1="263.54" y1="544.75" x2="242.67" y2="603.54"/><path class="cls-1" d="M364.61,454.48c19.83-8.35,57.5-18.15,98.8-5.73" transform="translate(0 -27.19)"/><path class="cls-1" d="M240.69,444.25s12.42-76.82,87.13-59.25" transform="translate(0 -27.19)"/><path class="cls-1" d="M153.35,521.35c72.47,11.52,93.45,64.21,89.32,109.38" transform="translate(0 -27.19)"/><path class="cls-1" d="M231.85,571.94c-.68.84-62.32-55.75-144.39-7" transform="translate(0 -27.19)"/><path class="cls-1" d="M241.83,303.46s-9,21.87-10.27,46" transform="translate(0 -27.19)"/><path class="cls-1" d="M240.69,675.47s17.4-61.82,98.34-89.91" transform="translate(0 -27.19)"/><circle class="cls-1" cx="350.24" cy="552.1" r="11.21"/><circle class="cls-1" cx="64.88" cy="273.82" r="62.38"/><path class="cls-1" d="M137.57,385s36.37-38.58,66.81-23" transform="translate(0 -27.19)"/><circle class="cls-1" cx="127.25" cy="363.68" r="11.21"/><circle class="cls-1" cx="161" cy="232.85" r="11.21"/><path class="cls-1" d="M178.37,359.6s-18.71,8-7.39,35.23" transform="translate(0 -27.19)"/><circle class="cls-1" cx="172.85" cy="376.37" r="7.98"/><circle class="cls-1" cx="188.81" cy="259.42" r="7.98"/><path class="cls-1" d="M159.66,271.25s-13.41,47.07,22.08,74.55" transform="translate(0 -27.19)"/><path class="cls-1" d="M181.74,290.4s-25.8,17.25-12.28,42.78" transform="translate(0 -27.19)"/><path class="cls-1" d="M427.28,403.81s45-16.43,78.7-20.69" transform="translate(0 -27.19)"/><path class="cls-2" d="M387.79,282.88v-5.45a12.21,12.21,0,0,1,1.23-5.64,14.09,14.09,0,0,1,3.23-4.17,26.65,26.65,0,0,1,4.4-3.17c1.61-.92,3.2-1.81,4.8-2.65a48.53,48.53,0,0,0,4.39-2.64,12.78,12.78,0,0,0,3.23-3.1,6.79,6.79,0,0,0,1.22-4.05,6.35,6.35,0,0,0-2.15-5,8.44,8.44,0,0,0-5.84-1.92,8.64,8.64,0,0,0-9.2,8.32h-6.19a14.06,14.06,0,0,1,1.84-6.91,13,13,0,0,1,5.24-5,17.73,17.73,0,0,1,8.55-1.87,17.41,17.41,0,0,1,7.65,1.55A11.43,11.43,0,0,1,417,252a12.15,12.15,0,0,1-1.21,5.63,13.59,13.59,0,0,1-3.17,4.07,26.33,26.33,0,0,1-4.32,3c-1.57.88-3.15,1.72-4.72,2.5a40.08,40.08,0,0,0-4.33,2.5,12.33,12.33,0,0,0-3.19,3,6.53,6.53,0,0,0-1.21,4v.74h22.3v5.48Z" transform="translate(0 -27.19)"/><path class="cls-2" d="M348.49,306.47V290.3h10.2v1.82h-8.11v5.28h7.3v1.81h-7.31v5.39l8.34,0v1.85Z" transform="translate(0 -27.19)"/><path class="cls-2" d="M361.47,306.47V290.3h2.12v14.31h7.64v1.86Z" transform="translate(0 -27.19)"/><path class="cls-2" d="M373.49,306.47V290.3h10.2v1.82h-8.11v5.28h7.31v1.81h-7.32v5.39l8.35,0v1.85Z" transform="translate(0 -27.19)"/><path class="cls-2" d="M386.48,306.47V290.3H392a7.69,7.69,0,0,1,3.08.58,4.63,4.63,0,0,1,2.91,4.53,5.06,5.06,0,0,1-.72,2.76,4.58,4.58,0,0,1-2,1.72,7,7,0,0,1-3,.6H388.6v6Zm2.11-7.73h3.59a3.93,3.93,0,0,0,2.71-.93,3.21,3.21,0,0,0,1-2.52,2.88,2.88,0,0,0-1.08-2.44,4.41,4.41,0,0,0-2.77-.83h-3.49Z" transform="translate(0 -27.19)"/><path class="cls-2" d="M399.82,306.47V290.3h2.07v6.89h8.72V290.3h2.07v16.17h-2.07V299h-8.72v7.46Z" transform="translate(0 -27.19)"/><path class="cls-2" d="M414.86,306.47l5.86-16.17h2.33l5.85,16.17h-2.11l-1.59-4.42h-6.63l-1.6,4.42Zm4.26-6.33h5.51l-2.75-7.82Z" transform="translate(0 -27.19)"/><path class="cls-2" d="M431.08,306.47V290.3h2l8.55,12.57V290.3h2.06v16.17h-1.84l-8.68-12.75v12.75Z" transform="translate(0 -27.19)"/><path class="cls-2" d="M450.67,306.47V292.2h-5.22v-1.9h12.24v1.9h-4.94v14.27Z" transform="translate(0 -27.19)"/><path class="cls-2" d="M464.93,306.69a8.67,8.67,0,0,1-2.25-.28,6.55,6.55,0,0,1-1.92-.86,5.09,5.09,0,0,1-1.44-1.41,4.7,4.7,0,0,1-.71-2h2.17a3.21,3.21,0,0,0,.8,1.54,3.76,3.76,0,0,0,1.49.94A5.78,5.78,0,0,0,465,305a5.53,5.53,0,0,0,1.9-.32,3.26,3.26,0,0,0,1.39-.95,2.23,2.23,0,0,0,.53-1.49,2,2,0,0,0-.63-1.55,4.5,4.5,0,0,0-1.94-.94l-3.33-.87a7.44,7.44,0,0,1-2-.78,3.75,3.75,0,0,1-1.36-1.35,4,4,0,0,1-.49-2.07,3.88,3.88,0,0,1,.76-2.39,4.89,4.89,0,0,1,2.06-1.6,7.46,7.46,0,0,1,2.95-.56,7,7,0,0,1,3.2.66,4.79,4.79,0,0,1,2,1.73,4.24,4.24,0,0,1,.67,2.29h-2.12a2.87,2.87,0,0,0-2-2.67,5.4,5.4,0,0,0-1.78-.29,3.8,3.8,0,0,0-2.62.79,2.39,2.39,0,0,0-.89,1.87,2,2,0,0,0,.63,1.57,4.51,4.51,0,0,0,1.88.88l3.25.84a6.15,6.15,0,0,1,2.29,1,3.81,3.81,0,0,1,1.23,1.48,4.51,4.51,0,0,1,.38,1.83,4,4,0,0,1-.75,2.39,4.86,4.86,0,0,1-2.1,1.65A7.73,7.73,0,0,1,464.93,306.69Z" transform="translate(0 -27.19)"/><path class="cls-2" d="M356.45,283.16a8.5,8.5,0,0,1-4.58-1.2,7.77,7.77,0,0,1-3-3.46,13,13,0,0,1-1-5.49,13.23,13.23,0,0,1,1.05-5.54,7.86,7.86,0,0,1,3-3.49,9.18,9.18,0,0,1,9.11,0,7.76,7.76,0,0,1,3,3.48,15.1,15.1,0,0,1,0,11,7.69,7.69,0,0,1-3,3.46A8.46,8.46,0,0,1,356.45,283.16Zm0-2.21a5.63,5.63,0,0,0,3.13-.84,5.13,5.13,0,0,0,2-2.59,12.41,12.41,0,0,0,.68-4.49,13,13,0,0,0-.68-4.55,5.36,5.36,0,0,0-2-2.64,5.44,5.44,0,0,0-8.23,2.65,12.74,12.74,0,0,0-.7,4.54,12.37,12.37,0,0,0,.7,4.49,5.26,5.26,0,0,0,2,2.59A5.58,5.58,0,0,0,356.45,281Z" transform="translate(0 -27.19)"/><path class="cls-2" d="M368,282.88V263.05H380.4l0,2.22h-9.74v6.56h8.76V274h-8.76v8.86Z" transform="translate(0 -27.19)"/><path class="cls-3" d="M487.36,290.89A83.31,83.31,0,0,1,324,296.84" transform="translate(0 -27.19)"/></g></g></svg>