<svg xmlns="http://www.w3.org/2000/svg" viewBox="0 0 410.33 457.63"><defs><style>.cls-1{fill:none;stroke:#f37521;stroke-miterlimit:10;stroke-width:3px;}.cls-2{fill:#f37521;}</style></defs><title>Asset 27</title><g id="Layer_2" data-name="Layer 2"><g id="Layer_7" data-name="Layer 7"><path class="cls-1" d="M1.64,235.27S-6.55,469,101.82,457.83C240.15,443.61,130.25-49,388.27,29" transform="translate(0 -2.09)"/><circle class="cls-2" cx="404.13" cy="30.06" r="6.2"/><path class="cls-1" d="M354.76,39.58S361.29,22.7,388.27,29" transform="translate(0 -2.09)"/><path class="cls-1" d="M365.4,2.37S362,20.15,388.27,29" transform="translate(0 -2.09)"/><path class="cls-2" d="M21.59,390.49a7.29,7.29,0,0,1-.34-4.06,6.73,6.73,0,0,1,2-3.42,11.58,11.58,0,0,1,4.21-2.44,11.76,11.76,0,0,1,4.86-.77,6.81,6.81,0,0,1,3.75,1.41,7.28,7.28,0,0,1,2.34,3.38,6.68,6.68,0,0,1,.39,2.47,6.85,6.85,0,0,1-.49,2.35,6.55,6.55,0,0,1-1.21,1.94,5.12,5.12,0,0,1-1.77,1.27l-.8-2.24a4.36,4.36,0,0,0,1.44-1.3,4.45,4.45,0,0,0,.76-1.82,4,4,0,0,0-.2-2A4.8,4.8,0,0,0,35,383a4.74,4.74,0,0,0-2.73-.9,10.63,10.63,0,0,0-3.92.72,11.72,11.72,0,0,0-2.86,1.43A5.81,5.81,0,0,0,23.81,386a4.07,4.07,0,0,0-.6,1.93,5.14,5.14,0,0,0,.3,2,4.51,4.51,0,0,0,1,1.66,4.28,4.28,0,0,0,1.39.94,4.52,4.52,0,0,0,1.51.34,4.1,4.1,0,0,0,1.38-.15l1.47-.44-1.42-4,1.54-.55,2.18,6.15-8.43,3-.56-1.58,2.48-.88a6.72,6.72,0,0,1-1.7-.62,5.25,5.25,0,0,1-1.58-1.24A6.2,6.2,0,0,1,21.59,390.49Z" transform="translate(0 -2.09)"/><path class="cls-2" d="M27.58,405.12l15.56-7.68,3,6a7.61,7.61,0,0,1,.87,3.06,4,4,0,0,1-.63,2.41A5.59,5.59,0,0,1,42,411.21a4.32,4.32,0,0,1-1.92-.47,6.4,6.4,0,0,1-1.49-1l-5.55,6.55-1-2.11,5.3-6.15-2.07-4.19-6.7,3.31ZM36.92,403l1.67,3.39a5,5,0,0,0,2,2.35,3.19,3.19,0,0,0,4.23-2,4.07,4.07,0,0,0-.47-2.67l-1.91-3.87Z" transform="translate(0 -2.09)"/><path class="cls-2" d="M41.34,429.39a7.43,7.43,0,0,1-1.54-3.84,6.75,6.75,0,0,1,.89-3.9A11.2,11.2,0,0,1,44,418.06a11.44,11.44,0,0,1,4.44-2.14,7,7,0,0,1,4,.3,8.06,8.06,0,0,1,4.74,6.41,6.86,6.86,0,0,1-.92,3.9,11.62,11.62,0,0,1-3.36,3.61,11.48,11.48,0,0,1-4.4,2.13,6.76,6.76,0,0,1-4-.28A7.43,7.43,0,0,1,41.34,429.39Zm1.55-1.14A4.91,4.91,0,0,0,45.11,430a4.49,4.49,0,0,0,2.84,0,11.1,11.1,0,0,0,3.51-1.85,11.09,11.09,0,0,0,2.85-2.85,4.63,4.63,0,0,0,.83-2.76,5.27,5.27,0,0,0-3.24-4.38,4.75,4.75,0,0,0-2.9,0A11.18,11.18,0,0,0,45.44,420a10.84,10.84,0,0,0-2.79,2.82,4.72,4.72,0,0,0-.79,2.76A5,5,0,0,0,42.89,428.25Z" transform="translate(0 -2.09)"/><path class="cls-2" d="M56.07,445l5.42-17.22L63.36,429l-4.44,13.63,10.9-9.34,1.45,1-4.39,13.66,10.9-9.34,1.86,1.23L65.83,451.47l-1.71-1.14L68.38,437,57.73,446.1Z" transform="translate(0 -2.09)"/><path class="cls-2" d="M92,458.34,91.4,441l10.8-.37.06,1.94-8.52.3.2,5.73,7.65-.27.07,1.92-7.65.27.26,7.74Z" transform="translate(0 -2.09)"/><path class="cls-2" d="M119.94,452.94a7.57,7.57,0,0,1-4.06.83,6.82,6.82,0,0,1-3.68-1.58,13.08,13.08,0,0,1-4.24-8.66,6.82,6.82,0,0,1,1-3.9,8.06,8.06,0,0,1,7.15-3.51,6.73,6.73,0,0,1,3.67,1.59,11.73,11.73,0,0,1,3,4,11.49,11.49,0,0,1,1.3,4.71,6.75,6.75,0,0,1-1,3.86A7.43,7.43,0,0,1,119.94,452.94Zm-.85-1.74a4.9,4.9,0,0,0,2.13-1.86,4.58,4.58,0,0,0,.55-2.79,13.45,13.45,0,0,0-3.49-7.1,4.61,4.61,0,0,0-2.57-1.31,4.78,4.78,0,0,0-2.78.52,4.87,4.87,0,0,0-2.11,1.88,4.77,4.77,0,0,0-.55,2.85,11,11,0,0,0,1.2,3.84,10.63,10.63,0,0,0,2.28,3.25,4.63,4.63,0,0,0,2.57,1.27A5,5,0,0,0,119.09,451.2Z" transform="translate(0 -2.09)"/><path class="cls-2" d="M135.17,441.93,122,430.58l4.39-5.08a7.72,7.72,0,0,1,2.48-2,4.08,4.08,0,0,1,2.47-.35,4.85,4.85,0,0,1,2.32,1.18,5,5,0,0,1,1.46,1.92,4.44,4.44,0,0,1,.31,1.94,6.33,6.33,0,0,1-.38,1.78l8.19,2.57-1.54,1.78L134,431.83l-3,3.53,5.66,4.89Zm-5.6-7.77L132,431.3a5,5,0,0,0,1.38-2.81,2.81,2.81,0,0,0-1.1-2.36,2.77,2.77,0,0,0-2.36-.77,4.06,4.06,0,0,0-2.27,1.48l-2.82,3.26Z" transform="translate(0 -2.09)"/><path class="cls-2" d="M152.68,417,139.5,404.11l1-2.28,18.4,1.47-.94,2.07-5-.41L150,411.43l3.6,3.53Zm-4.28-7,2.45-5.39-8.86-.79Z" transform="translate(0 -2.09)"/><path class="cls-2" d="M166.66,381.52a9.09,9.09,0,0,1-1,2.21,6.81,6.81,0,0,1-1.48,1.71,5.26,5.26,0,0,1-1.9,1,4.79,4.79,0,0,1-2.24.11l.69-2.22a3.42,3.42,0,0,0,1.83-.34,4.07,4.07,0,0,0,1.43-1.23,6.18,6.18,0,0,0,.93-1.91,5.62,5.62,0,0,0,.26-2,3.6,3.6,0,0,0-.53-1.73,2.41,2.41,0,0,0-1.37-1,2.18,2.18,0,0,0-1.78.16,4.92,4.92,0,0,0-1.58,1.69L158,381.1a7.77,7.77,0,0,1-1.43,1.8,4.07,4.07,0,0,1-1.81,1,4.33,4.33,0,0,1-2.28-.15,4.19,4.19,0,0,1-2.22-1.53,5.3,5.3,0,0,1-1-2.62,7.85,7.85,0,0,1,.34-3.2,7.67,7.67,0,0,1,1.68-3.08,5.12,5.12,0,0,1,2.4-1.48,4.55,4.55,0,0,1,2.56,0l-.67,2.18a3.47,3.47,0,0,0-2,.12,3.28,3.28,0,0,0-1.37,1.11,5.84,5.84,0,0,0-.86,1.73,4.15,4.15,0,0,0,0,2.94,2.63,2.63,0,0,0,1.65,1.5,2.14,2.14,0,0,0,1.8-.16,4.8,4.8,0,0,0,1.5-1.65l1.88-3.07a6.57,6.57,0,0,1,1.71-2.05,4,4,0,0,1,1.91-.8,4.68,4.68,0,0,1,2,.19,4.31,4.31,0,0,1,2.23,1.52,5.38,5.38,0,0,1,1,2.66A8.35,8.35,0,0,1,166.66,381.52Z" transform="translate(0 -2.09)"/><path class="cls-2" d="M172,362a7.74,7.74,0,0,1-1.61,3.37,4.55,4.55,0,0,1-2.61,1.45,8.72,8.72,0,0,1-3.59-.24l-10.79-2.71.56-2.23,11.11,2.78a4.28,4.28,0,0,0,3.31-.24,4.09,4.09,0,0,0,1.74-2.65,4.92,4.92,0,0,0,.09-2.27,3.1,3.1,0,0,0-1-1.7,5.07,5.07,0,0,0-2.16-1L156,353.76l.54-2.17,11,2.76a7.77,7.77,0,0,1,3.14,1.47,4.47,4.47,0,0,1,1.55,2.51A7.9,7.9,0,0,1,172,362Z" transform="translate(0 -2.09)"/><path class="cls-2" d="M176.44,342.94a8.94,8.94,0,0,1-.8,2.3,7.05,7.05,0,0,1-1.33,1.83,5.4,5.4,0,0,1-1.81,1.18,4.8,4.8,0,0,1-2.22.3l.49-2.27a3.52,3.52,0,0,0,1.8-.49,4.06,4.06,0,0,0,1.32-1.35,6.34,6.34,0,0,0,.77-2,6,6,0,0,0,.09-2.06,3.63,3.63,0,0,0-.68-1.67,2.42,2.42,0,0,0-1.45-.89,2.17,2.17,0,0,0-1.77.31,4.87,4.87,0,0,0-1.42,1.81l-1.66,3.3a7.74,7.74,0,0,1-1.28,1.92,4,4,0,0,1-1.71,1.12,4.28,4.28,0,0,1-2.29.05,4.19,4.19,0,0,1-2.34-1.34,5.3,5.3,0,0,1-1.2-2.52,7.82,7.82,0,0,1,.07-3.22,7.55,7.55,0,0,1,1.42-3.21,5.17,5.17,0,0,1,2.26-1.68,4.58,4.58,0,0,1,2.56-.19l-.48,2.23a3.38,3.38,0,0,0-2,.29,3.33,3.33,0,0,0-1.28,1.22,6,6,0,0,0-.7,1.8,4.12,4.12,0,0,0,.24,2.93,2.56,2.56,0,0,0,1.76,1.35,2.15,2.15,0,0,0,1.79-.31,4.83,4.83,0,0,0,1.35-1.77l1.61-3.22a6.57,6.57,0,0,1,1.54-2.19,3.94,3.94,0,0,1,1.83-.95,4.66,4.66,0,0,1,2,0,4.29,4.29,0,0,1,2.34,1.32,5.23,5.23,0,0,1,1.26,2.57A8.16,8.16,0,0,1,176.44,342.94Z" transform="translate(0 -2.09)"/><path class="cls-2" d="M179.54,326.59l-15-2.9-1.06,5.5-2-.39,2.49-12.89,2,.39-1,5.2,15,2.9Z" transform="translate(0 -2.09)"/><path class="cls-2" d="M181.46,316.55l-16-9.26.44-2.47,18.19-3.11-.4,2.24-5,.84-1.25,7,4.36,2.53Zm-5.88-5.7,1-5.83-8.78,1.43Z" transform="translate(0 -2.09)"/><path class="cls-2" d="M185.23,295.22l-17.1-2.93.37-2.19L185.6,293Z" transform="translate(0 -2.09)"/><path class="cls-2" d="M186.94,285.22l-17.12-2.87.35-2.09L185,273.44l-13.3-2.22.36-2.19,17.12,2.86-.33,2-15,6.92L187.3,283Z" transform="translate(0 -2.09)"/><path class="cls-2" d="M190.25,265.35l-16.08-9.07.42-2.47,18.15-3.33-.38,2.24-5,.9-1.18,7,4.4,2.47Zm-5.94-5.63,1-5.83-8.76,1.52Z" transform="translate(0 -2.09)"/><path class="cls-2" d="M193.85,244l-17.1-3,.95-5.49a8.2,8.2,0,0,1,2-4.53,3.87,3.87,0,0,1,3.59-1,4,4,0,0,1,2.21,1.11,5.17,5.17,0,0,1,1.17,2.74,5.68,5.68,0,0,1,.91-1.59,3.7,3.7,0,0,1,1.13-.95,3.52,3.52,0,0,1,1.29-.4,5.09,5.09,0,0,1,1.4.05,4,4,0,0,1,3.18,2.25,8.88,8.88,0,0,1,.29,5.12Zm-9.2-3.84.64-3.73a6.87,6.87,0,0,0,.1-1.36,4,4,0,0,0-.24-1.29,2.59,2.59,0,0,0-.7-1,2.81,2.81,0,0,0-3.7.18,5.6,5.6,0,0,0-1.22,2.84l-.59,3.42Zm7.75,1.34L193,238a6.23,6.23,0,0,0-.14-3.38,2.43,2.43,0,0,0-2-1.49,2.72,2.72,0,0,0-1.84.25,3.27,3.27,0,0,0-1.24,1.31,6.82,6.82,0,0,0-.66,2l-.65,3.73Z" transform="translate(0 -2.09)"/><path class="cls-2" d="M197.19,224.84l-17.07-3.13.41-2.23,15.11,2.76,1.47-8.06,2,.36Z" transform="translate(0 -2.09)"/><path class="cls-2" d="M200.32,208l-17-3.35,2.12-10.74,1.91.39-1.68,8.53,5.56,1.1,1.51-7.69,1.91.38-1.52,7.7,5.68,1.12,1.75-8.78,1.95.38Z" transform="translate(0 -2.09)"/><path class="cls-2" d="M205.83,181.2l-16.91-3.87,2.41-10.54,1.89.45-1.9,8.3,5.59,1.28,1.71-7.46,1.87.43-1.71,7.46,7.56,1.73Z" transform="translate(0 -2.09)"/><path class="cls-2" d="M211.64,158.11a7.72,7.72,0,0,1-1.64,3.35,4.42,4.42,0,0,1-2.63,1.42,8.4,8.4,0,0,1-3.58-.27L193,159.81l.58-2.23,11.09,2.89a4.28,4.28,0,0,0,3.31-.22,4,4,0,0,0,1.76-2.63,5,5,0,0,0,.12-2.27,3.11,3.11,0,0,0-1-1.71,5,5,0,0,0-2.15-1.06l-11.09-2.88.56-2.16,11,2.86a7.83,7.83,0,0,1,3.12,1.49,4.48,4.48,0,0,1,1.53,2.52A7.74,7.74,0,0,1,211.64,158.11Z" transform="translate(0 -2.09)"/><path class="cls-2" d="M216.11,141.15l-14.66-4.41-1.61,5.37-2-.59L201.66,129l2,.58-1.53,5.07L216.76,139Z" transform="translate(0 -2.09)"/><path class="cls-2" d="M222.47,122.34a7.72,7.72,0,0,1-1.92,3.2,4.51,4.51,0,0,1-2.74,1.2,8.71,8.71,0,0,1-3.55-.58l-10.49-3.71.77-2.17,10.81,3.82a4.22,4.22,0,0,0,3.31.06,4,4,0,0,0,2-2.47,5,5,0,0,0,.31-2.25,3.08,3.08,0,0,0-.84-1.78,5,5,0,0,0-2.05-1.24l-10.8-3.82.74-2.1,10.71,3.78a7.87,7.87,0,0,1,3,1.75,4.55,4.55,0,0,1,1.31,2.65A7.88,7.88,0,0,1,222.47,122.34Z" transform="translate(0 -2.09)"/><path class="cls-2" d="M227,109.54l-16-6.83,2.64-6.18a7.6,7.6,0,0,1,1.76-2.65,4,4,0,0,1,2.24-1.09,5,5,0,0,1,2.58.42,5,5,0,0,1,2,1.39,4.45,4.45,0,0,1,.88,1.75,6.36,6.36,0,0,1,.18,1.82l8.58,0-.92,2.16-8.12,0-1.84,4.3,6.87,2.94Zm-7.69-5.71,1.49-3.47a5.08,5.08,0,0,0,.46-3.1A3.2,3.2,0,0,0,217,95.33a4.08,4.08,0,0,0-1.72,2.1l-1.69,4Z" transform="translate(0 -2.09)"/><path class="cls-2" d="M234.85,91.94l-15.36-8.07,5.09-9.69,1.72.92-4,7.7,5,2.64,3.64-6.94,1.73.9L229,86.35,234.11,89l4.18-7.91,1.75.92Z" transform="translate(0 -2.09)"/><path class="cls-2" d="M249.69,66.78l-16.76-6.72,1.38-1.77,13.25,5.46-8.49-11.57,1.07-1.37,13.29,5.41-8.49-11.58,1.37-1.76,10.58,14.66-1.26,1.62-12.95-5.27,8.24,11.32Z" transform="translate(0 -2.09)"/><path class="cls-2" d="M264.25,49.79,252.19,37.31l1.6-1.54,12.06,12.48Z" transform="translate(0 -2.09)"/><path class="cls-2" d="M274.41,41,265.22,28.7l-4.48,3.36-1.22-1.64L270,22.55l1.22,1.63L267,27.36l9.18,12.25Z" transform="translate(0 -2.09)"/><path class="cls-2" d="M285.07,33.55l-7.53-15.63,2-1,3.2,6.66,8.44-4.06L288,12.9l2-1,7.53,15.64-2,1L292,21.32l-8.44,4.06,3.48,7.21Z" transform="translate(0 -2.09)"/><path class="cls-2" d="M319.06,22.27a7.77,7.77,0,0,1-3.73-.17A4.47,4.47,0,0,1,313,20.26a8.72,8.72,0,0,1-1.19-3.4l-1.73-11,2.27-.36,1.79,11.32a4.3,4.3,0,0,0,1.52,2.94,4.07,4.07,0,0,0,3.12.57,5,5,0,0,0,2.12-.8A3.19,3.19,0,0,0,322.06,18a5,5,0,0,0,.11-2.39L320.38,4.25l2.21-.35,1.77,11.21a7.87,7.87,0,0,1-.13,3.46,4.45,4.45,0,0,1-1.7,2.41A7.85,7.85,0,0,1,319.06,22.27Z" transform="translate(0 -2.09)"/><path class="cls-2" d="M338,20.91a9.41,9.41,0,0,1-2.41-.32,7,7,0,0,1-2.06-.93A5.4,5.4,0,0,1,332,18.14a4.89,4.89,0,0,1-.75-2.11h2.32a3.42,3.42,0,0,0,.85,1.66,4.11,4.11,0,0,0,1.59,1,6.42,6.42,0,0,0,2.1.34,5.59,5.59,0,0,0,2-.34,3.57,3.57,0,0,0,1.5-1,2.39,2.39,0,0,0,.57-1.6,2.15,2.15,0,0,0-.66-1.67,5,5,0,0,0-2.07-1l-3.57-.94a8.11,8.11,0,0,1-2.14-.86,4,4,0,0,1-1.45-1.45A4.36,4.36,0,0,1,331.79,8a4.22,4.22,0,0,1,.83-2.56,5.37,5.37,0,0,1,2.22-1.7A8,8,0,0,1,338,3.1a7.53,7.53,0,0,1,3.43.73,5.16,5.16,0,0,1,2.11,1.87,4.56,4.56,0,0,1,.71,2.46H342a3.44,3.44,0,0,0-.69-1.88,3.35,3.35,0,0,0-1.46-1,5.82,5.82,0,0,0-1.9-.31,4.11,4.11,0,0,0-2.82.83,2.63,2.63,0,0,0-1,2,2.16,2.16,0,0,0,.68,1.68,4.71,4.71,0,0,0,2,1l3.48.91a6.68,6.68,0,0,1,2.46,1.06,4,4,0,0,1,1.31,1.6,4.58,4.58,0,0,1,.39,2,4.36,4.36,0,0,1-.81,2.57,5.43,5.43,0,0,1-2.26,1.75A8.18,8.18,0,0,1,338,20.91Z" transform="translate(0 -2.09)"/></g></g></svg>