<svg xmlns="http://www.w3.org/2000/svg" viewBox="0 0 626.12 558.7"><defs><style>.cls-1{fill:none;stroke:#eb3e94;stroke-linecap:round;stroke-linejoin:round;stroke-width:5px;}.cls-2{fill:#eb3e94;}</style></defs><title>Asset 22</title><g id="Layer_2" data-name="Layer 2"><g id="IMPACT"><path class="cls-1" d="M324.65,286.86S141.11,232.25,219.71,2.5C219.71,2.5,371.07,69.19,324.65,286.86Z"/><path class="cls-1" d="M232.9,328S194.35,155.49,2.5,205.44C2.5,205.44,31.43,356.58,232.9,328Z"/><path class="cls-1" d="M215.59,395.77s-80.48-28.83-133,85.57C82.58,481.34,176.8,483.13,215.59,395.77Z"/><path class="cls-1" d="M378.24,278.2S391.35,63.36,617.61,108.43"/><path class="cls-2" d="M405,288l-7.92-19.5,2.5-.11,6.82,16.67,5.33-17.21,2.5-.11L408,287.86Z"/><path class="cls-2" d="M416.59,287.39l-1.78-19.75,12.46-1.13.19,2.23-9.91.89.58,6.45,8.92-.8.2,2.21-8.93.81.59,6.58,10.2-.89.2,2.25Z"/><path class="cls-2" d="M439.14,285.2a8.25,8.25,0,0,1-4.63-.55,7.77,7.77,0,0,1-3.37-3,15.27,15.27,0,0,1-1.54-10.89,7.78,7.78,0,0,1,2.42-3.89,8.3,8.3,0,0,1,4.32-1.85,7.81,7.81,0,0,1,2.86.11,7.73,7.73,0,0,1,2.51,1.08,7.6,7.6,0,0,1,1.9,1.8,5.9,5.9,0,0,1,1,2.27l-2.69.39a5.15,5.15,0,0,0-3-3.17,4.73,4.73,0,0,0-2.32-.24,5.54,5.54,0,0,0-2.87,1.26,5.48,5.48,0,0,0-1.62,2.85,12,12,0,0,0-.07,4.56,12.79,12.79,0,0,0,.95,3.52,6.5,6.5,0,0,0,1.56,2.25,4.9,4.9,0,0,0,2,1.11,5.89,5.89,0,0,0,2.34.11,5,5,0,0,0,2.09-.74,4.83,4.83,0,0,0,1.36-1.34,5.33,5.33,0,0,0,.73-1.62,4.59,4.59,0,0,0,.14-1.58l-.17-1.75-4.77.69-.27-1.84,7.39-1.05,1.45,10.12-1.88.28-.43-3a8.15,8.15,0,0,1-1.08,1.78,6.2,6.2,0,0,1-1.74,1.48A7.21,7.21,0,0,1,439.14,285.2Z"/><path class="cls-2" d="M457.41,282a8.15,8.15,0,0,1-4.65-.25,7.69,7.69,0,0,1-3.55-2.79,13.26,13.26,0,0,1-2.12-5.15,13.43,13.43,0,0,1-.12-5.62,7.78,7.78,0,0,1,2.18-4,8.32,8.32,0,0,1,4.19-2.12,7.67,7.67,0,0,1,2.86-.06,7.85,7.85,0,0,1,2.58.91,7.63,7.63,0,0,1,2,1.68,6,6,0,0,1,1.17,2.2l-2.66.56a5.18,5.18,0,0,0-1.26-1.83,4.82,4.82,0,0,0-1.94-1.14,4.49,4.49,0,0,0-2.34-.1,5.51,5.51,0,0,0-2.77,1.44,5.41,5.41,0,0,0-1.44,2.95,12,12,0,0,0,.21,4.55,12.94,12.94,0,0,0,1.18,3.46,6.62,6.62,0,0,0,1.7,2.14,4.82,4.82,0,0,0,2.1,1,6,6,0,0,0,2.34,0,5,5,0,0,0,2-.87,4.67,4.67,0,0,0,1.28-1.43,5,5,0,0,0,.62-1.65,4.78,4.78,0,0,0,.05-1.59l-.28-1.73-4.73,1-.38-1.83,7.31-1.52,2.09,10-1.86.39-.62-2.95a7.72,7.72,0,0,1-1,1.84A6.27,6.27,0,0,1,460,281,7.09,7.09,0,0,1,457.41,282Z"/><path class="cls-2" d="M468.15,279.25,463.22,260l2.45-.64,4.94,19.21Z"/><path class="cls-2" d="M473.94,277.79l-5.72-19,12-3.61.64,2.14-9.53,2.87,1.87,6.2,8.58-2.58.64,2.12-8.59,2.59,1.91,6.33,9.8-2.93.65,2.17Z"/><path class="cls-2" d="M495.15,271.11a10.38,10.38,0,0,1-2.7.64,8,8,0,0,1-2.59-.15,6.09,6.09,0,0,1-2.25-1,5.57,5.57,0,0,1-1.66-2l2.49-.94a3.86,3.86,0,0,0,1.58,1.43,4.62,4.62,0,0,0,2.11.44,7.36,7.36,0,0,0,2.38-.48,6.81,6.81,0,0,0,2-1.19,4.1,4.1,0,0,0,1.19-1.69,2.76,2.76,0,0,0,0-1.94,2.49,2.49,0,0,0-1.39-1.51,5.65,5.65,0,0,0-2.63-.25l-4.2.45a9.19,9.19,0,0,1-2.63,0,4.59,4.59,0,0,1-2.14-1,5,5,0,0,1-1.46-2.17,4.85,4.85,0,0,1-.16-3.07,6,6,0,0,1,1.69-2.72,8.91,8.91,0,0,1,3.13-1.92,8.64,8.64,0,0,1,4-.63,5.87,5.87,0,0,1,3,1.14,5.24,5.24,0,0,1,1.76,2.34l-2.44.92a3.82,3.82,0,0,0-1.5-1.73,3.9,3.9,0,0,0-2-.48,6.88,6.88,0,0,0-2.17.44,4.69,4.69,0,0,0-2.67,2,3,3,0,0,0-.21,2.53,2.43,2.43,0,0,0,1.4,1.53,5.45,5.45,0,0,0,2.54.2l4.09-.44a7.74,7.74,0,0,1,3.06.13,4.61,4.61,0,0,1,2,1.17,5.62,5.62,0,0,1,1.22,1.94,5,5,0,0,1,.17,3.07,6.14,6.14,0,0,1-1.7,2.8A9.48,9.48,0,0,1,495.15,271.11Z"/><path class="cls-2" d="M508.85,265.26l-8.74-17.8.53-.25,1.06-.52c.42-.21.85-.43,1.31-.64l1.25-.6a13.74,13.74,0,0,1,5.83-1.54,7.14,7.14,0,0,1,4.45,1.48,13.84,13.84,0,0,1,4.69,9.75,7.45,7.45,0,0,1-1.64,4.56,13.58,13.58,0,0,1-4.83,3.65Zm1.38-3.1,1.56-.77a10.52,10.52,0,0,0,3.46-2.55,5.46,5.46,0,0,0,1.35-3.42,11.54,11.54,0,0,0-4-8.2,5.29,5.29,0,0,0-3.45-1,11,11,0,0,0-4.09,1.2l-1.66.82Z"/><path class="cls-2" d="M531.22,253.71a8.52,8.52,0,0,1-4.54,1.35,7.78,7.78,0,0,1-4.34-1.43,12.85,12.85,0,0,1-3.73-4.16,13.26,13.26,0,0,1-2-5.29,7.94,7.94,0,0,1,.77-4.54,9.26,9.26,0,0,1,7.8-4.71,7.82,7.82,0,0,1,4.34,1.46,15.2,15.2,0,0,1,5.7,9.45,7.75,7.75,0,0,1-.74,4.49A8.47,8.47,0,0,1,531.22,253.71Zm-1.14-1.89a5.63,5.63,0,0,0,2.25-2.33,5.22,5.22,0,0,0,.35-3.23,12.69,12.69,0,0,0-1.74-4.2,12.82,12.82,0,0,0-2.93-3.54,5.35,5.35,0,0,0-3.06-1.24,5.43,5.43,0,0,0-5.68,6.52,12.72,12.72,0,0,0,1.75,4.25,12.55,12.55,0,0,0,2.91,3.48,5.27,5.27,0,0,0,3.05,1.18A5.55,5.55,0,0,0,530.08,251.82Z"/><path class="cls-2" d="M540.75,247.45,529,231.5l2-1.44,17.58,6.17-9.15-12.4,2-1.51,11.78,16-1.82,1.34-17.85-6.25L542.79,246Z"/><path class="cls-2" d="M555.13,236.74l-7.87-19.57,2.14-1.91,18.57,10L566,227,561,224.24l-6.06,5.43,2.16,5.34Zm-1.28-9.27,5-4.51L550,218.07Z"/><path class="cls-2" d="M570.83,222.14,558.27,210l-4.46,4.6-1.68-1.63,10.46-10.76,1.67,1.62-4.21,4.34,12.55,12.19Z"/><path class="cls-2" d="M578,214.59l-15.24-12.7,8-9.6,1.71,1.44-6.37,7.64,5,4.14,5.73-6.88,1.71,1.42-5.75,6.89,5.08,4.24,6.57-7.85,1.74,1.45Z"/><path class="cls-2" d="M588.09,202.24l-16.24-11.38.34-.48c.19-.26.42-.58.68-1l.84-1.19.81-1.12a13.7,13.7,0,0,1,4.37-4.16,7.15,7.15,0,0,1,4.6-.85,13.83,13.83,0,0,1,8.82,6.28,7.51,7.51,0,0,1,.76,4.79,13.43,13.43,0,0,1-2.48,5.52Zm-.29-3.38,1-1.43a10.84,10.84,0,0,0,1.81-3.89,5.56,5.56,0,0,0-.47-3.65,11.53,11.53,0,0,0-7.45-5.26,5.21,5.21,0,0,0-3.49.81,10.89,10.89,0,0,0-3,3L575.13,190Z"/><path class="cls-2" d="M597.61,190.3l-14.22-16.77,1-1.68,14.21,16.78Z"/><path class="cls-2" d="M606.38,173l-7.51-3.86-13.22.82,1.26-2.47,10.53-.52-5.75-8.78,1.27-2.47L600,166.89l7.5,3.86Z"/><path class="cls-2" d="M611.15,163.42l-18.24-7.79,4.92-11.5,2,.89L596,154.16l6,2.54,3.52-8.23,2,.87L604,157.59l6.08,2.6,4.05-9.4,2.08.89Z"/><path class="cls-2" d="M616.56,150.85l-16.46-13.2.93-2.71,21.08-.4-.83,2.46-5.76.09-2.62,7.7,4.5,3.61Zm-5.66-7.45,2.18-6.4-10.17.1Z"/><path class="cls-2" d="M622.72,132.22l-19.25-4.76,1.84-7.46a8.73,8.73,0,0,1,1.49-3.32,4.67,4.67,0,0,1,2.33-1.64,5.61,5.61,0,0,1,3,0,5.71,5.71,0,0,1,2.47,1.2,5.08,5.08,0,0,1,1.32,1.82,7.18,7.18,0,0,1,.55,2l9.66-1.62-.64,2.61-9.16,1.46L615,127.7l8.29,2Zm-9.72-5,1-4.19a5.79,5.79,0,0,0-.06-3.58,3.18,3.18,0,0,0-2.34-1.83,3.13,3.13,0,0,0-2.8.43,4.6,4.6,0,0,0-1.56,2.69l-1.18,4.78Z"/><path class="cls-2" d="M444,244.77l-5.53-8.48-16.59,10.9-3.35-5.11,1.92-32.87,6-3.91L441,227.39l5.69-3.74,3.35,5.1-5.69,3.74,5.55,8.46Zm-19.85-6.38,10.93-7.17-9.62-14.64Z"/><path class="cls-2" d="M474.77,224.58l-5.52-8.47L452.66,227l-3.36-5.1L451.22,189l6-3.92,14.5,22.09,5.7-3.73,3.35,5.1-5.7,3.74,5.55,8.45Zm-19.84-6.37L465.85,211l-9.62-14.64Z"/><path class="cls-2" d="M493.32,221.83l-1.41-8.28-2.46,1.36-4.13-6.28,6.56-4.31,3.61,5.5.25,10.42Z"/><path class="cls-2" d="M516.88,196.94l-5.52-8.47-16.6,10.89-3.35-5.1,1.92-32.87,6-3.92,14.5,22.09,5.69-3.74,3.35,5.11-5.69,3.73,5.55,8.46ZM497,190.57,508,183.4l-9.62-14.65Z"/><path class="cls-2" d="M544.75,179.42A13.82,13.82,0,0,1,532,181.15q-6.6-2.34-12.46-11.26a33.38,33.38,0,0,1-5-11.19,16,16,0,0,1,.54-9.24,14.21,14.21,0,0,1,5.66-6.74,13.75,13.75,0,0,1,12.76-1.66q6.64,2.37,12.56,11.36t5.4,15.94A13.77,13.77,0,0,1,544.75,179.42Zm-3.26-5a6.62,6.62,0,0,0,3.15-6.48q-.32-4.2-5-11.3t-8.55-9.27a6.66,6.66,0,0,0-7.25.24,6.74,6.74,0,0,0-3.13,6.61q.33,4.34,5,11.53t8.44,9A6.8,6.8,0,0,0,541.49,174.4Z"/><path class="cls-2" d="M574.31,160a13.81,13.81,0,0,1-12.78,1.72q-6.6-2.34-12.46-11.26a33.21,33.21,0,0,1-5-11.19,16,16,0,0,1,.54-9.24,14.21,14.21,0,0,1,5.66-6.74A13.78,13.78,0,0,1,563,121.66Q569.66,124,575.57,133T581,149A13.78,13.78,0,0,1,574.31,160Zm-3.26-5a6.64,6.64,0,0,0,3.16-6.48q-.33-4.19-5-11.29-4.76-7.26-8.55-9.28a7,7,0,0,0-10.38,6.85q.33,4.34,5.05,11.54t8.44,9A6.78,6.78,0,0,0,571.05,155Z"/><path class="cls-2" d="M472,413.63l-5.46-13.31,8.3-3.4.6,1.49-6.54,2.68,1.81,4.4,5.87-2.41.6,1.48-5.87,2.4,2.44,6Z"/><path class="cls-2" d="M480.41,410.18l-.63-15.29,1.93-.79L492,405.44l-1.74.71-2.8-3.1L482,405.29l.17,4.18Zm1.38-6.65,4.53-1.86-4.9-5.51Z"/><path class="cls-2" d="M494.12,404.56l-5.46-13.31,2.36-1,8.52,9.35L499.1,387l2.35-1,5.46,13.31-1.76.72-4.41-10.76.55,12.34-1.59.65-8.2-9.09,4.37,10.66Z"/><path class="cls-2" d="M510.05,398l-5.45-13.31,1.7-.7,5.46,13.31Z"/><path class="cls-2" d="M514.9,396l-5.45-13.31,1.74-.71L516,393.8l6.29-2.58.62,1.53Z"/><path class="cls-2" d="M525.16,391.84l-5.46-13.31,1.71-.7,5.45,13.31Z"/><path class="cls-2" d="M530,389.85l-5.45-13.31,8.39-3.44.61,1.51-6.68,2.73,1.78,4.35,6-2.47.61,1.49-6,2.47,1.81,4.44,6.88-2.8.62,1.52Z"/><path class="cls-2" d="M545.64,383.66a7.88,7.88,0,0,1-1.94.52,5.89,5.89,0,0,1-1.88-.05,4.66,4.66,0,0,1-1.66-.68,4.05,4.05,0,0,1-1.24-1.38l1.78-.73a2.82,2.82,0,0,0,1.18,1,3.3,3.3,0,0,0,1.54.27,5.29,5.29,0,0,0,1.72-.4,4.76,4.76,0,0,0,1.45-.91,2.87,2.87,0,0,0,.82-1.24,2,2,0,0,0-.07-1.41,1.76,1.76,0,0,0-1-1.06,3.92,3.92,0,0,0-1.91-.13l-3,.42a6.46,6.46,0,0,1-1.91,0,3.27,3.27,0,0,1-1.57-.65,3.84,3.84,0,0,1-1.29-3.76,4.48,4.48,0,0,1,1.16-2A6.64,6.64,0,0,1,540,370a6.22,6.22,0,0,1,2.86-.54,4.3,4.3,0,0,1,2.21.76,3.74,3.74,0,0,1,1.32,1.66l-1.75.72a2.8,2.8,0,0,0-1.12-1.22,2.84,2.84,0,0,0-1.44-.31,4.78,4.78,0,0,0-1.56.37,3.42,3.42,0,0,0-1.89,1.53,2.19,2.19,0,0,0-.1,1.85,1.82,1.82,0,0,0,1.05,1.07,3.92,3.92,0,0,0,1.85.09l3-.4a5.63,5.63,0,0,1,2.22,0,3.34,3.34,0,0,1,1.51.81,3.91,3.91,0,0,1,.93,1.38,3.54,3.54,0,0,1,.19,2.22,4.39,4.39,0,0,1-1.17,2.07A6.89,6.89,0,0,1,545.64,383.66Z"/><path class="cls-2" d="M474.59,334.82l-9.29-17.53,10.92-5.78,1,2L468.64,318l3.07,5.79,7.74-4.1,1,1.94-7.73,4.1,4.15,7.83Z"/><path class="cls-2" d="M487.16,328.32l-7.38-18.41,11.6-4.66.82,2.08L483,311l2.41,6,8.31-3.34.83,2.06-8.33,3.34,2.46,6.14,9.51-3.79.84,2.1Z"/><path class="cls-2" d="M501.25,322.86l-5.34-19.1,12-3.37.59,2.16L499,305.23l1.75,6.23,8.62-2.41.6,2.14-8.64,2.42,1.78,6.36,9.86-2.72.61,2.18Z"/><path class="cls-2" d="M515.83,318.93l-3.18-19.58.58-.08,1.17-.19c.46-.08.93-.16,1.43-.23l1.37-.21a13.91,13.91,0,0,1,6,.22,7.21,7.21,0,0,1,3.81,2.71,11.85,11.85,0,0,1,1.9,5.06,12.14,12.14,0,0,1-.24,5.64,7.51,7.51,0,0,1-2.9,3.89,13.49,13.49,0,0,1-5.69,2.07Zm2.22-2.57,1.72-.28a10.57,10.57,0,0,0,4.05-1.43,5.55,5.55,0,0,0,2.29-2.88,11.49,11.49,0,0,0-1.44-9,5.26,5.26,0,0,0-3-1.93,11,11,0,0,0-4.26,0l-1.83.3Z"/><path class="cls-2" d="M539.12,316.33a10.17,10.17,0,0,1-2.78-.2,8.18,8.18,0,0,1-2.42-.91,6.2,6.2,0,0,1-1.85-1.64,5.54,5.54,0,0,1-1-2.35l2.66-.15a3.84,3.84,0,0,0,1.08,1.84A4.72,4.72,0,0,0,536.7,314a7.51,7.51,0,0,0,2.41.25,6.8,6.8,0,0,0,2.3-.53,4,4,0,0,0,1.64-1.25,2.74,2.74,0,0,0,.54-1.87,2.46,2.46,0,0,0-.87-1.85,5.74,5.74,0,0,0-2.44-1l-4.14-.82a9.46,9.46,0,0,1-2.49-.83,4.66,4.66,0,0,1-1.76-1.56,4.83,4.83,0,0,1-.74-2.5,4.76,4.76,0,0,1,.77-3,6,6,0,0,1,2.41-2.1,9.12,9.12,0,0,1,3.58-.89,8.67,8.67,0,0,1,4,.59,5.89,5.89,0,0,1,2.54,2,5.34,5.34,0,0,1,1,2.76l-2.61.15a3.59,3.59,0,0,0-2.64-3.15,6.59,6.59,0,0,0-2.2-.22,4.68,4.68,0,0,0-3.16,1.14,3,3,0,0,0-1,2.35,2.46,2.46,0,0,0,.89,1.88,5.45,5.45,0,0,0,2.36.95l4,.81a7.65,7.65,0,0,1,2.88,1,4.6,4.6,0,0,1,1.6,1.73,5.5,5.5,0,0,1,.59,2.22,4.9,4.9,0,0,1-.76,3,6.11,6.11,0,0,1-2.45,2.16A9.52,9.52,0,0,1,539.12,316.33Z"/><path class="cls-2" d="M465.09,392.89l-11.87-30.63-7.37,2.85-1.55-4a22.53,22.53,0,0,0,5.31-2.74,6.27,6.27,0,0,0,2.32-2.91,5.24,5.24,0,0,0,0-3.23l4.57-1.77,15.41,39.76Z"/><path class="cls-2" d="M494.75,382.08a13.77,13.77,0,0,1-12.86-1q-6-3.66-9.82-13.62a33,33,0,0,1-2.57-12,16,16,0,0,1,2.46-8.92,14.22,14.22,0,0,1,7-5.4,13.76,13.76,0,0,1,12.83,1q6,3.71,9.89,13.73t1.95,16.73A13.8,13.8,0,0,1,494.75,382.08Zm-2.14-5.59a6.64,6.64,0,0,0,4.45-5.68q.56-4.17-2.51-12.09-3.14-8.09-6.43-10.85a6.65,6.65,0,0,0-7.13-1.29,6.77,6.77,0,0,0-4.45,5.81q-.59,4.31,2.53,12.34t6.36,10.58A6.8,6.8,0,0,0,492.61,376.49Z"/><path class="cls-2" d="M527.72,369.3a13.82,13.82,0,0,1-12.86-1q-6-3.68-9.83-13.62a33.19,33.19,0,0,1-2.56-12,16.08,16.08,0,0,1,2.46-8.93,14.29,14.29,0,0,1,6.95-5.4,13.75,13.75,0,0,1,12.82,1.06q6,3.69,9.9,13.73t1.94,16.72A13.78,13.78,0,0,1,527.72,369.3Zm-2.14-5.59A6.63,6.63,0,0,0,530,358q.57-4.17-2.5-12.09-3.13-8.08-6.43-10.86A6.66,6.66,0,0,0,514,333.8a6.77,6.77,0,0,0-4.44,5.8q-.58,4.32,2.53,12.34t6.36,10.58A6.8,6.8,0,0,0,525.58,363.71Z"/><path class="cls-1" d="M459.67,332.68c-53.89,37.25-71.62,100.14-71.62,100.14,197.36,0,203.39-122.22,203.39-122.22s-12.74-6-38.92-4.66"/><path class="cls-2" d="M445.73,496.76,433.81,480.9l9.88-7.42,1.32,1.78-7.78,5.86,3.94,5.24,7-5.26,1.32,1.75-7,5.26,5.32,7.08Z"/><path class="cls-2" d="M454.23,490.11l-3.63-20.78,2.48-1.42,16.09,13.63-2.24,1.29-4.39-3.73-7.05,4,1,5.67Zm.67-9.33,5.87-3.36-7.7-6.64Z"/><path class="cls-2" d="M470.42,481.11,463,462.71l7.12-2.87a8.8,8.8,0,0,1,3.56-.74,4.69,4.69,0,0,1,2.7.93,5.63,5.63,0,0,1,1.74,2.42,5.57,5.57,0,0,1,.48,2.71,5,5,0,0,1-.7,2.14,7.49,7.49,0,0,1-1.31,1.61l7,6.89-2.5,1-6.55-6.57-4.95,2,3.2,7.93Zm-1.62-10.82,4-1.62a5.69,5.69,0,0,0,2.87-2.14,3.19,3.19,0,0,0,.12-3,3.15,3.15,0,0,0-2-2,4.7,4.7,0,0,0-3.09.31l-4.57,1.85Z"/><path class="cls-2" d="M485.37,475.11l-4.79-19.25L484,455l9.77,14.45,1.92-17.36,3.39-.84,4.8,19.24-2.55.64-3.87-15.56-1.7,16.95-2.3.57-9.38-14,3.84,15.41Z"/><path class="cls-2" d="M514,469.53a8.91,8.91,0,0,1-4.25-.33,5.08,5.08,0,0,1-2.62-2.19,10,10,0,0,1-1.23-3.93l-1.55-12.62,2.61-.32,1.6,13a4.88,4.88,0,0,0,1.63,3.42,4.63,4.63,0,0,0,3.53.77,5.73,5.73,0,0,0,2.47-.83,3.55,3.55,0,0,0,1.39-1.77,5.79,5.79,0,0,0,.23-2.73l-1.61-13,2.53-.31,1.59,12.88a8.94,8.94,0,0,1-.27,3.94,5.14,5.14,0,0,1-2,2.69A9,9,0,0,1,514,469.53Z"/><path class="cls-2" d="M523.88,468.18l-.57-19.82,2.43-.07,10.92,15.11L536.21,448l2.54-.08.57,19.83-2.26.06L526,452.48l.45,15.63Z"/><path class="cls-2" d="M542.9,467.93l.56-19.83,2.54.08L545.44,468Z"/><path class="cls-2" d="M553.53,468.41,554.78,451l-6.39-.45.16-2.33,15,1.07-.17,2.33-6-.43-1.24,17.45Z"/><path class="cls-2" d="M569.49,470l1.09-8.37-5.23-12.17,2.75.36,4,9.73,6.32-8.38,2.76.36-8.14,10.44L572,470.29Z"/><path class="cls-1" d="M461.07,548.64c-16.7-.54-35.5-3.06-56.66-8.12,0,0,5.08-20.1,23.73-40.46"/><path class="cls-2" d="M473.72,558.7l-1.24-19.79.58,0,1.19-.08,1.45-.09,1.38-.06a13.69,13.69,0,0,1,6,.81,7.1,7.1,0,0,1,3.53,3.07,11.85,11.85,0,0,1,1.39,5.22,12,12,0,0,1-.79,5.59,7.47,7.47,0,0,1-3.27,3.58,13.5,13.5,0,0,1-5.86,1.51Zm2.46-2.34,1.74-.11a10.66,10.66,0,0,0,4.17-1,5.52,5.52,0,0,0,2.56-2.64,11.51,11.51,0,0,0-.54-9.11,5.32,5.32,0,0,0-2.81-2.22,11,11,0,0,0-4.24-.45l-1.84.11Z"/><path class="cls-2" d="M500.11,556.27a8.61,8.61,0,0,1-4.72-.39,7.77,7.77,0,0,1-3.54-2.9,13,13,0,0,1-2-5.23,13.17,13.17,0,0,1,.09-5.63,7.88,7.88,0,0,1,2.35-4,9.25,9.25,0,0,1,9-1.57,7.76,7.76,0,0,1,3.52,2.92,13.48,13.48,0,0,1,2,5.28,13.17,13.17,0,0,1-.07,5.59,7.67,7.67,0,0,1-2.32,3.92A8.45,8.45,0,0,1,500.11,556.27Zm-.38-2.18a5.59,5.59,0,0,0,2.93-1.36,5.25,5.25,0,0,0,1.5-2.9,12.52,12.52,0,0,0-.11-4.53,12.77,12.77,0,0,0-1.46-4.37,5.34,5.34,0,0,0-2.4-2.26,6,6,0,0,0-6.13,1.08,5.46,5.46,0,0,0-1.52,3,12.85,12.85,0,0,0,.09,4.6,12.48,12.48,0,0,0,1.47,4.3,5.23,5.23,0,0,0,2.42,2.2A5.61,5.61,0,0,0,499.73,554.09Z"/><path class="cls-2" d="M512.75,553.45l-6.06-18.89,2.31-.74,14.69,11.48L519,530.62l2.42-.77,6.06,18.88-2.16.69-14.91-11.64,4.78,14.89Z"/><path class="cls-2" d="M531.41,547.22l-2.49-21,2.56-1.28,15.32,14.49-2.32,1.17-4.17-4L533,540.34l.68,5.72Zm1.18-9.28,6-3-7.32-7Z"/><path class="cls-2" d="M551.62,536.11l-9.79-14.5-5.31,3.58-1.31-1.93,12.44-8.4,1.31,1.93-5,3.39,9.79,14.5Z"/><path class="cls-2" d="M561.1,529.14l-12.7-15.23,2-1.63,12.7,15.24Z"/><path class="cls-2" d="M572.52,518.87a8.59,8.59,0,0,1-4,2.52,7.8,7.8,0,0,1-4.57-.21,14.93,14.93,0,0,1-8-7.56,7.87,7.87,0,0,1-.49-4.58,9.27,9.27,0,0,1,6.25-6.64,7.78,7.78,0,0,1,4.56.24,15.14,15.14,0,0,1,8,7.56,7.79,7.79,0,0,1,.49,4.53A8.44,8.44,0,0,1,572.52,518.87Zm-1.61-1.51a5.61,5.61,0,0,0,1.53-2.85,5.15,5.15,0,0,0-.53-3.21,12.43,12.43,0,0,0-2.8-3.57,13,13,0,0,0-3.79-2.63,5.38,5.38,0,0,0-3.27-.37,5.43,5.43,0,0,0-3.72,7.81,12.55,12.55,0,0,0,2.83,3.62,12.12,12.12,0,0,0,3.74,2.57,5.3,5.3,0,0,0,3.26.32A5.61,5.61,0,0,0,570.91,517.36Z"/><path class="cls-2" d="M581.08,508.63l-16.6-10.84,1.32-2,18.64-.35L571.53,487l1.39-2.12,16.61,10.84-1.24,1.89-18.91.37,13.09,8.55Z"/></g></g></svg>