<svg xmlns="http://www.w3.org/2000/svg" viewBox="0 0 697.12 822.04"><defs><style>.cls-1{fill:none;stroke-width:2px;}.cls-1,.cls-10,.cls-11,.cls-12,.cls-13,.cls-14,.cls-15,.cls-16,.cls-17,.cls-18,.cls-19,.cls-2,.cls-20,.cls-21,.cls-22,.cls-23,.cls-24,.cls-25,.cls-26,.cls-27,.cls-28,.cls-29,.cls-3,.cls-30,.cls-31,.cls-32,.cls-33,.cls-4,.cls-5,.cls-6,.cls-7,.cls-8,.cls-9{stroke:#eb3e94;stroke-miterlimit:10;}.cls-2{font-size:32.01px;}.cls-10,.cls-11,.cls-12,.cls-13,.cls-14,.cls-15,.cls-16,.cls-17,.cls-18,.cls-19,.cls-2,.cls-20,.cls-21,.cls-22,.cls-23,.cls-24,.cls-25,.cls-26,.cls-27,.cls-28,.cls-29,.cls-3,.cls-30,.cls-31,.cls-32,.cls-33,.cls-4,.cls-5,.cls-6,.cls-7,.cls-8,.cls-9{fill:#4f6337;font-family:MyriadPro-Regular, Myriad Pro;}.cls-3{font-size:32.01px;}.cls-4{font-size:32.01px;}.cls-5{font-size:32.01px;}.cls-6{font-size:32.01px;}.cls-7{font-size:32.01px;}.cls-8{font-size:32.01px;}.cls-9{font-size:32.01px;}.cls-10{font-size:32.01px;}.cls-11{font-size:32.01px;}.cls-12{font-size:32.01px;}.cls-13{font-size:32.01px;}.cls-14{font-size:32.01px;}.cls-15{font-size:32.01px;}.cls-16{font-size:32.01px;}.cls-17{font-size:32.01px;}.cls-18{font-size:32.01px;}.cls-19{font-size:32.01px;}.cls-20{font-size:32.01px;}.cls-21{font-size:32.01px;}.cls-22{font-size:32.01px;}.cls-23{font-size:32.01px;}.cls-24{font-size:32.01px;}.cls-25{font-size:32.01px;}.cls-26{font-size:32.01px;}.cls-27{font-size:32.01px;}.cls-28{font-size:32.01px;}.cls-29{font-size:32.01px;}.cls-30{font-size:32.01px;}.cls-31{font-size:32.01px;}.cls-32{font-size:32.01px;}.cls-33{font-size:32.01px;}</style></defs><title>Asset 6</title><g id="Layer_2" data-name="Layer 2"><g id="Layer_1-2" data-name="Layer 1"><path class="cls-1" d="M168.65,668.9s164.42,45.28,163.8,153"/><path class="cls-1" d="M90.43,565.54s239.31,80.21,242,256.32"/><path class="cls-1" d="M355.34,761.56s-20.07,26.61-22.89,60.3"/><path class="cls-1" d="M113.64,372.37S297.41,532.3,322.89,700"/><path class="cls-1" d="M330.29,67.68s49,220.84-15,560.72"/><path class="cls-1" d="M332.45,821.86S325,782,350,718.13"/><text class="cls-2" transform="matrix(0.32, -0.95, 0.95, 0.32, 363.19, 714.82)">W</text><text class="cls-3" transform="translate(371.76 690.05) rotate(-69.86)">I</text><text class="cls-4" transform="matrix(0.36, -0.93, 0.93, 0.36, 374.09, 683.59)">L</text><text class="cls-5" transform="translate(379.18 670.29) rotate(-67.85)">L</text><text class="cls-6" transform="translate(384.6 657.05) rotate(-66.99)"> </text><text class="cls-7" transform="translate(386.87 651.55) rotate(-66.02)">R</text><text class="cls-8" transform="translate(393.48 636.57) rotate(-64.3)">O</text><text class="cls-2" transform="matrix(0.47, -0.88, 0.88, 0.47, 402.57, 617.62)">O</text><text class="cls-6" transform="translate(412.03 599.7) rotate(-60.44)">T</text><text class="cls-2" transform="translate(419.47 586.64) rotate(-59.28)"> </text><text class="cls-3" transform="matrix(0.53, -0.85, 0.85, 0.53, 422.4, 581.53)">A</text><text class="cls-9" transform="matrix(0.57, -0.82, 0.82, 0.57, 432.22, 565.83)">N</text><text class="cls-4" transform="translate(443.47 549.4) rotate(-52.78)">D</text><text class="cls-10" transform="matrix(0.63, -0.78, 0.78, 0.63, 455.83, 533.3)"> </text><text class="cls-2" transform="matrix(0.65, -0.76, 0.76, 0.65, 459.47, 528.71)">S</text><text class="cls-11" transform="translate(469 517.55) rotate(-46.83)">P</text><text class="cls-12" transform="matrix(0.72, -0.7, 0.7, 0.72, 479.83, 505.96)">R</text><text class="cls-13" transform="matrix(0.76, -0.65, 0.65, 0.76, 491.29, 494.7)">O</text><text class="cls-3" transform="translate(506.93 481.23) rotate(-36.62)">U</text><text class="cls-14" transform="matrix(0.84, -0.54, 0.54, 0.84, 522.52, 469.69)">T</text><text class="cls-15" transform="translate(534.99 461.68) rotate(-30.68)"> </text><text class="cls-16" transform="matrix(0.87, -0.49, 0.49, 0.87, 540.03, 458.67)">I</text><text class="cls-17" transform="translate(545.55 455.33) rotate(-26.16)">N</text><path class="cls-1" d="M332.06,792.67s-3.22-63.31,5.82-123.77"/><text class="cls-11" transform="matrix(0.14, -0.99, 0.99, 0.14, 349.04, 664.49)">W</text><text class="cls-18" transform="matrix(0.17, -0.99, 0.99, 0.17, 352.7, 638.67)">E</text><text class="cls-19" transform="translate(355.28 623.98) rotate(-79.18)"> </text><text class="cls-20" transform="matrix(0.21, -0.98, 0.98, 0.21, 356.31, 618.13)">H</text><text class="cls-2" transform="matrix(0.25, -0.97, 0.97, 0.25, 360.43, 598.74)">O</text><text class="cls-7" transform="matrix(0.28, -0.96, 0.96, 0.28, 365.61, 578.35)">P</text><text class="cls-21" transform="translate(370.07 562.92) rotate(-72.15)">E</text><text class="cls-22" transform="translate(374.68 548.75) rotate(-70.97)"> </text><text class="cls-22" transform="translate(376.13 544.36) rotate(-69.92)">T</text><text class="cls-6" transform="translate(381.18 530.36) rotate(-67.88)">H</text><text class="cls-23" transform="translate(388.62 512.01) rotate(-65.56)">A</text><text class="cls-11" transform="translate(395.29 497.29) rotate(-63.79)">T</text><text class="cls-6" transform="matrix(0.46, -0.89, 0.89, 0.46, 401.95, 483.84)"> </text><text class="cls-3" transform="translate(404.03 479.71) rotate(-61.3)">T</text><text class="cls-7" transform="matrix(0.51, -0.86, 0.86, 0.51, 411.09, 466.67)">H</text><text class="cls-23" transform="matrix(0.54, -0.84, 0.84, 0.54, 421.39, 449.66)">I</text><text class="cls-21" transform="translate(424.99 443.94) rotate(-55.86)">S</text><text class="cls-3" transform="matrix(0.58, -0.81, 0.81, 0.58, 433.38, 431.63)"> </text><text class="cls-7" transform="translate(436.73 426.84) rotate(-53.07)">S</text><text class="cls-24" transform="matrix(0.64, -0.77, 0.77, 0.64, 445.43, 415.02)">M</text><text class="cls-18" transform="matrix(0.68, -0.74, 0.74, 0.68, 460.89, 396.39)">A</text><text class="cls-5" transform="translate(473.44 382.75) rotate(-45.22)">L</text><text class="cls-14" transform="translate(483.35 372.73) rotate(-43.26)">L</text><text class="cls-21" transform="translate(493.72 363.03) rotate(-41.85)"> </text><text class="cls-18" transform="translate(498.04 359.07) rotate(-40.4)">S</text><text class="cls-25" transform="translate(509.25 349.5) rotate(-38.32)">E</text><text class="cls-26" transform="translate(520.78 340.36) rotate(-36.24)">E</text><text class="cls-22" transform="translate(532.55 331.63) rotate(-33.73)">D</text><text class="cls-27" transform="translate(549.37 320.45) rotate(-31.22)">L</text><text class="cls-12" transform="translate(561.51 313.14) rotate(-29.64)">I</text><text class="cls-5" transform="translate(567.2 309.74) rotate(-27.54)">N</text><text class="cls-24" transform="translate(584.71 300.55) rotate(-24.15)">G</text><path class="cls-1" d="M348.49,261.55C338.84,221.62,288.57,176,288.57,176"/><path class="cls-1" d="M342.87,245.81s-12-73.41-70.24-91.76C272.63,154.05,271,222.51,342.87,245.81Z"/><path class="cls-1" d="M449.24,369.24c8.52-26.16-4.14-69.8-4.14-69.8"/><path class="cls-1" d="M451.56,358.29s19-46.06-7.83-77C443.73,281.3,418.78,319.78,451.56,358.29Z"/><path class="cls-1" d="M344.2,173.36c2.54-27.4,31.45-62.45,31.45-62.45"/><path class="cls-1" d="M346.41,162.39s.84-49.8,37.68-67.6C384.09,94.79,391.76,140,346.41,162.39Z"/><path class="cls-1" d="M244.19,520.92c-7.22-28.07,9-73.11,9-73.11"/><path class="cls-1" d="M242.48,509.26s-16.86-49.69,13.36-80.43C255.84,428.83,279.51,471,242.48,509.26Z"/><path class="cls-1" d="M290.52,597.92c-17-12.92-52.28-14.76-52.28-14.76"/><path class="cls-1" d="M283.08,593.43s-29-25.66-58.5-13.9C224.58,579.53,246.45,607.66,283.08,593.43Z"/><path class="cls-1" d="M223.72,492.49C191,467.65,123.24,464.11,123.24,464.11"/><path class="cls-1" d="M209.42,483.85S153.75,434.53,97,457.14C97,457.14,139,511.21,209.42,483.85Z"/><path class="cls-1" d="M345.18,395c-3.12-41-45.42-94-45.42-94"/><path class="cls-1" d="M342.16,378.61s0-74.38-54.6-101.85C287.56,276.76,275,344.08,342.16,378.61Z"/><path class="cls-1" d="M340.17,455.82c2.36-41,43.68-94.84,43.68-94.84"/><path class="cls-1" d="M342.89,439.33S341.54,365,395.6,336.49C395.6,336.49,409.4,403.57,342.89,439.33Z"/><path class="cls-1" d="M348.94,293c4.69-40.81,49-92.2,49-92.2"/><path class="cls-1" d="M352.59,276.71s2.89-74.33,58.48-99.68C411.07,177,421,244.79,352.59,276.71Z"/><path class="cls-1" d="M428.94,585.36c27.09-30.88,92.71-46.67,92.71-46.67"/><path class="cls-1" d="M441.5,573.94S485.85,515.81,546,526.62C546,526.62,515.94,586.67,441.5,573.94Z"/><path class="cls-1" d="M500.84,364.75c39.12-12.57,103.52,7.62,103.52,7.62"/><path class="cls-1" d="M517.49,361.4s67.92-27.07,114,13.12C631.44,374.52,574.8,410.59,517.49,361.4Z"/><path class="cls-1" d="M161.34,112.94S155.62,40.05,207.64,8C207.64,8,225.3,72.79,161.34,112.94Z"/><path class="cls-1" d="M131.64,37.58s6.46,73.85,22.2,102.57c4-32.5,42.08-96.27,42.08-96.27"/><path class="cls-1" d="M144,113.82S96.71,58,120.18,1.62C120.18,1.62,172.38,43.85,144,113.82Z"/><path class="cls-1" d="M162.55,261.74s-72-12.85-109,35.77C53.57,297.51,116.31,321.45,162.55,261.74Z"/><path class="cls-1" d="M90.48,224.79s72.85,13.68,99.89,32.17c-32.74.81-99.94,32.41-99.94,32.41"/><path class="cls-1" d="M165.14,244.55S114.26,192,55.82,209.84C55.82,209.84,92.71,266,165.14,244.55Z"/><text class="cls-10" transform="matrix(0.51, -0.86, 0.86, 0.51, 366.03, 764.17)">T</text><text class="cls-28" transform="matrix(0.57, -0.82, 0.82, 0.57, 373.39, 751.66)">H</text><text class="cls-2" transform="matrix(0.63, -0.78, 0.78, 0.63, 384.63, 735.72)">E</text><text class="cls-12" transform="matrix(0.66, -0.75, 0.75, 0.66, 393.9, 724.34)"> </text><text class="cls-5" transform="matrix(0.69, -0.72, 0.72, 0.69, 397.48, 719.96)">H</text><text class="cls-14" transform="translate(411.1 705.86) rotate(-42.72)">E</text><text class="cls-3" transform="translate(421.71 695.95) rotate(-39.63)">A</text><text class="cls-29" transform="matrix(0.8, -0.6, 0.6, 0.8, 435.88, 684.23)">R</text><text class="cls-2" transform="translate(449.02 674.46) rotate(-34.06)">T</text><text class="cls-12" transform="translate(461.16 666.23) rotate(-31.83)">S</text><text class="cls-10" transform="matrix(0.86, -0.51, 0.51, 0.86, 473.79, 658.44)"> </text><text class="cls-6" transform="translate(478.74 655.39) rotate(-28.5)">O</text><text class="cls-4" transform="translate(497.2 645.42) rotate(-26.22)">F</text><text class="cls-15" transform="translate(510.42 638.95) rotate(-24.97)"> </text><text class="cls-5" transform="translate(515.62 636.36) rotate(-23.2)">M</text><text class="cls-3" transform="translate(538.27 626.67) rotate(-20.75)">O</text><text class="cls-15" transform="translate(557.98 619.23) rotate(-18.88)">R</text><text class="cls-2" transform="translate(573.41 613.95) rotate(-17.39)">E</text><text class="cls-14" transform="translate(587.65 609.53) rotate(-16.43)"> </text><text class="cls-20" transform="translate(593.35 607.79) rotate(-15.43)">P</text><text class="cls-18" transform="translate(608.91 603.49) rotate(-14.06)">E</text><text class="cls-30" transform="translate(623.27 599.84) rotate(-12.5)">O</text><text class="cls-11" transform="matrix(0.98, -0.19, 0.19, 0.98, 643.87, 595.29)">P</text><text class="cls-3" transform="matrix(0.99, -0.16, 0.16, 0.99, 659.7, 592.25)">L</text><text class="cls-15" transform="matrix(0.99, -0.14, 0.14, 0.99, 673.67, 589.9)">E</text><text class="cls-11" transform="translate(688.36 587.88) rotate(-6.41)">!</text><path class="cls-1" d="M308.31,576.2c10,67,19.23,164.88,24.14,245.66"/><text class="cls-26" transform="matrix(0.98, 0.2, -0.2, 0.98, 2.74, 103.81)">T</text><text class="cls-6" transform="matrix(0.96, 0.29, -0.29, 0.96, 16.8, 106.6)">H</text><text class="cls-18" transform="translate(35.41 112.15) rotate(20.95)">A</text><text class="cls-10" transform="matrix(0.91, 0.42, -0.42, 0.91, 52.46, 118.61)">N</text><text class="cls-2" transform="translate(70.37 126.93) rotate(28.32)">K</text><text class="cls-14" transform="translate(84.72 134.74) rotate(30.39)"> </text><text class="cls-5" transform="translate(88.53 136.84) rotate(32.16)">Y</text><text class="cls-11" transform="translate(101.25 144.69) rotate(35.28)">O</text><text class="cls-10" transform="translate(118.19 156.66) rotate(38.78)">U</text><text class="cls-6" transform="translate(133.46 169.07) rotate(40.94)"> </text><text class="cls-4" transform="translate(137.9 172.82) rotate(42.65)">F</text><text class="cls-27" transform="matrix(0.7, 0.71, -0.71, 0.7, 148.58, 182.51)">O</text><text class="cls-14" transform="translate(163.18 197.43) rotate(48.42)">R</text><text class="cls-20" transform="matrix(0.64, 0.77, -0.77, 0.64, 173.93, 209.63)"> </text><text class="cls-11" transform="translate(176.82 212.94) rotate(51.54)">Y</text><text class="cls-22" transform="translate(186.27 224.68) rotate(54.05)">O</text><text class="cls-14" transform="translate(198.54 241.58) rotate(56.84)">U</text><text class="cls-31" transform="translate(209.26 258.02) rotate(59.19)">R</text><text class="cls-2" transform="translate(217.56 272.05) rotate(60.6)"> </text><text class="cls-26" transform="matrix(0.47, 0.88, -0.88, 0.47, 220.52, 277.17)">S</text><text class="cls-14" transform="translate(227.53 290.16) rotate(63.92)">U</text><text class="cls-26" transform="translate(236.17 307.85) rotate(65.93)">P</text><text class="cls-21" transform="translate(242.73 322.51) rotate(67.65)">P</text><text class="cls-14" transform="translate(248.88 337.3) rotate(69.54)">O</text><text class="cls-15" transform="translate(256.22 357.05) rotate(71.34)">R</text><text class="cls-20" transform="translate(261.53 372.78) rotate(72.81)">T</text><text class="cls-12" transform="matrix(0.28, 0.96, -0.96, 0.28, 265.96, 387.22)"> </text><text class="cls-22" transform="translate(267.7 392.89) rotate(74.9)">O</text><text class="cls-26" transform="matrix(0.24, 0.97, -0.97, 0.24, 273.18, 413.31)">F</text><text class="cls-11" transform="translate(276.63 427.66) rotate(77.17)"> </text><text class="cls-24" transform="translate(277.72 432.24) rotate(77.88)">T</text><text class="cls-24" transform="matrix(0.19, 0.98, -0.98, 0.19, 280.91, 446.94)">H</text><text class="cls-32" transform="translate(284.65 466.59) rotate(80.38)">E</text><text class="cls-33" transform="translate(287.13 481.36) rotate(81.09)"> </text><text class="cls-21" transform="translate(288.09 487.3) rotate(81.77)">F</text><text class="cls-18" transform="translate(289.89 499.44) rotate(82.67)">A</text><text class="cls-25" transform="translate(292.28 518.04) rotate(83.73)">R</text><text class="cls-25" transform="translate(294.12 534.3) rotate(84.91)">M</text><text class="cls-3" transform="translate(296.27 559.12) rotate(85.75)">.</text></g></g></svg>