<svg xmlns="http://www.w3.org/2000/svg" viewBox="0 0 620.19 755.25"><defs><style>.cls-1{fill:#eb3e94;}.cls-2{fill:none;stroke:#eb3e94;stroke-linecap:round;stroke-linejoin:round;stroke-width:5px;}</style></defs><title>Asset 24</title><g id="Layer_2" data-name="Layer 2"><g id="PT"><path class="cls-1" d="M67.77,258.18l5.46-19.06,11,3.13-.31,1.05L74,240.47l-2.24,7.83L81,250.94,80.64,252l-9.23-2.64-2.29,8,10.28,3-.31,1.08Z"/><path class="cls-1" d="M81.44,262.12l13.12-16.54,1.45.48.63,21.11-1.12-.37-.2-6.66-8.65-2.87-4.14,5.22Zm6-5.83,7.83,2.59-.36-12Z"/><path class="cls-1" d="M106.11,271a7.8,7.8,0,0,1-3.65-2.58,7.06,7.06,0,0,1-1.3-4.12,17.93,17.93,0,0,1,3.92-10.52,7.13,7.13,0,0,1,3.69-2.3,7.59,7.59,0,0,1,4.45.42,6.82,6.82,0,0,1,3,2,6.72,6.72,0,0,1,1.47,2.9,6.21,6.21,0,0,1,0,3.06l-1.13-.42a6.74,6.74,0,0,0-.08-2.57,5.51,5.51,0,0,0-1.17-2.31,5.72,5.72,0,0,0-2.42-1.61,6.53,6.53,0,0,0-3.82-.35,6.07,6.07,0,0,0-3.14,2.07,14.78,14.78,0,0,0-2.46,4.49q-1.6,4.27-.82,6.95a5.83,5.83,0,0,0,3.91,3.83,5.61,5.61,0,0,0,2.88.37,5.31,5.31,0,0,0,2.39-1,6.72,6.72,0,0,0,1.75-1.89l1.13.42a6.22,6.22,0,0,1-1.39,1.82,7,7,0,0,1-2,1.27,6.62,6.62,0,0,1-2.45.51A7,7,0,0,1,106.11,271Z"/><path class="cls-1" d="M116.6,274.64l7.59-18.33,1,.41L121.76,265l11.76,4.86,3.42-8.26,1,.41-7.59,18.33-1-.41,3.74-9L121.33,266l-3.74,9Z"/><path class="cls-1" d="M139.85,284.49l8.49-17.92,1.09.52-1.26,20L163,273.51l1.06.5-8.5,17.92-1.06-.5,7.24-15.27-13.34,12.37-1.44-.68,1.13-17.92L140.91,285Z"/><path class="cls-1" d="M166.41,297.84a7.87,7.87,0,0,1-3.28-3,7.39,7.39,0,0,1-.89-4.33,16.3,16.3,0,0,1,5.19-9.9,7.48,7.48,0,0,1,4.08-1.76,7.79,7.79,0,0,1,4.36,1,7.69,7.69,0,0,1,3.26,3,7.44,7.44,0,0,1,.85,4.33,14.59,14.59,0,0,1-1.76,5.42,14.28,14.28,0,0,1-3.44,4.49,7.44,7.44,0,0,1-4,1.75A7.74,7.74,0,0,1,166.41,297.84Zm.52-1a6.72,6.72,0,0,0,3.77.86,6,6,0,0,0,3.42-1.59,14.23,14.23,0,0,0,3-4.11,14.05,14.05,0,0,0,1.66-4.87,6.2,6.2,0,0,0-.64-3.74,7.39,7.39,0,0,0-6.59-3.45,6.25,6.25,0,0,0-3.49,1.6,16.11,16.11,0,0,0-4.69,9,6,6,0,0,0,.69,3.73A6.77,6.77,0,0,0,166.93,296.84Z"/><path class="cls-1" d="M177.24,303.29l9.85-17.21.77.44,1.56,21.28,8.79-15.35.93.53-9.86,17.21-.81-.46-1.54-21.21-8.77,15.31Z"/><path class="cls-1" d="M197.9,315.45l9.88-15.92L202,295.94l.58-.93,12,7.45-.58.94-5.31-3.3L198.82,316Z"/><path class="cls-1" d="M206.78,321l11.06-16.47.89.6-5,7.42,10.57,7.1,5-7.42.89.6L219.12,329.3l-.89-.6,5.45-8.1-10.57-7.1-5.44,8.1Z"/><path class="cls-1" d="M229.69,336.89l7.61-19.15.94.72-7.16,17.79,15.39-11.51.86.65-7.1,17.84,15.4-11.51.94.72L240,344.75l-1.19-.91,6.83-17.15-14.82,11.06Z"/><path class="cls-1" d="M246.68,350.11l12.76-15.18,8.71,7.33-.7.84-7.9-6.64-5.24,6.24,7.35,6.18-.72.86-7.35-6.18-5.35,6.36,8.17,6.91-.72.86Z"/><path class="cls-1" d="M262.74,363.94l13.58-14.46.22.22.53.51.76.72.87.82a14.47,14.47,0,0,1,3.61,4.86,6.76,6.76,0,0,1,.23,4.62,14.71,14.71,0,0,1-7.73,8.08,7.13,7.13,0,0,1-4.82,0,14.86,14.86,0,0,1-5.13-3.35Zm1.63,0,1.2,1.13a14.69,14.69,0,0,0,4.5,3,6.19,6.19,0,0,0,4.26.16,13.16,13.16,0,0,0,7.16-7.67,6,6,0,0,0-.53-4.16,15.21,15.21,0,0,0-3.23-4.08l-1.32-1.24Z"/><path class="cls-1" d="M280.08,381.16a8,8,0,0,1-2.17-3.91,7.39,7.39,0,0,1,.51-4.39,13.89,13.89,0,0,1,3.32-4.58,14.07,14.07,0,0,1,4.71-3.2,7.42,7.42,0,0,1,4.42-.39,8.49,8.49,0,0,1,6,6.17,7.47,7.47,0,0,1-.55,4.38,14.65,14.65,0,0,1-3.37,4.6,14.33,14.33,0,0,1-4.66,3.19,7.45,7.45,0,0,1-4.38.4A7.78,7.78,0,0,1,280.08,381.16Zm.81-.79a6.71,6.71,0,0,0,3.31,2,6,6,0,0,0,3.75-.44,16.86,16.86,0,0,0,7.26-7.06,6.14,6.14,0,0,0,.56-3.76,6.53,6.53,0,0,0-1.86-3.36,6.71,6.71,0,0,0-3.32-2,6.35,6.35,0,0,0-3.81.43,16.26,16.26,0,0,0-7.26,7A6.13,6.13,0,0,0,279,377,6.74,6.74,0,0,0,280.89,380.37Z"/><path class="cls-1" d="M288.61,389.72l14.93-13.06.58.66L298.66,398,312,386.3l.71.8-14.93,13.06-.61-.7,5.45-20.55-13.27,11.61Z"/><path class="cls-1" d="M300.3,403.16l20.07-6.56.94,1.19-11.11,18-.73-.93,3.5-5.66L307.34,402,301,404.06Zm8.23-1.56,5.11,6.49L320,397.87Z"/><path class="cls-1" d="M315,422.39l15.26-10.87-4-5.54.89-.64,8.21,11.52-.9.64-3.62-5.1L315.6,423.28Z"/><path class="cls-1" d="M320.94,430.94l16.65-10.77,6.19,9.56-.93.59-5.6-8.66-6.84,4.43,5.21,8.06-.94.61-5.21-8.06-7,4.51,5.78,9-.94.61Z"/><path class="cls-1" d="M446.14,243.81a15.93,15.93,0,0,1-6.51,2.4,13,13,0,0,1-6.44-.77,11.66,11.66,0,0,1-5.19-4.05l2.2-1.44a10.74,10.74,0,0,0,6.84,3.78,11.62,11.62,0,0,0,8-2.11,16,16,0,0,0,4.69-4.51,10,10,0,0,0,1.74-5.13,8.24,8.24,0,0,0-1.44-5,8.51,8.51,0,0,0-4.55-3.64,10.8,10.8,0,0,0-5.85-.13,19.47,19.47,0,0,0-6.17,2.72l-3,2-1.33-2,3-2a13.89,13.89,0,0,0,4.35-4.39,11.71,11.71,0,0,0,1.77-5.17,7,7,0,0,0-1.06-4.55,7.18,7.18,0,0,0-3.13-2.59,8.74,8.74,0,0,0-4.69-.59,13.45,13.45,0,0,0-5.72,2.33,12.22,12.22,0,0,0-3.59,3.67,10.27,10.27,0,0,0-1.61,5,9,9,0,0,0,1.66,5.48L418,224.55a11.51,11.51,0,0,1-2-6.41,12.63,12.63,0,0,1,1.68-6.26,14.19,14.19,0,0,1,4.62-4.89,17.86,17.86,0,0,1,6.69-2.81,11.17,11.17,0,0,1,6,.5,9.25,9.25,0,0,1,4.46,3.69,9.11,9.11,0,0,1,1.39,6.11,13.94,13.94,0,0,1-3,6.94,16.11,16.11,0,0,1,5.91-.89,10.73,10.73,0,0,1,4.84,1.41,10.86,10.86,0,0,1,3.58,3.47,11.43,11.43,0,0,1,1.82,4.7,11.07,11.07,0,0,1-.43,4.9,14,14,0,0,1-2.64,4.7A20.89,20.89,0,0,1,446.14,243.81Z"/><path class="cls-1" d="M465.57,238.1l-.93-7.22-1.78,1.17-2.59-4,4.1-2.68,2.2,3.35.58,8.3Z"/><path class="cls-1" d="M478.05,222.08q-1.17-3.12-2.46-7.81t-2.42-10.43q-1.14-5.76-1.86-12.14a127.54,127.54,0,0,1-.82-12.85l-20.91,13.73-1.29-2,23.42-15.37,1.29,2a92.23,92.23,0,0,0,.35,9.51q.43,5,1.2,10t1.73,9.63q1,4.59,2,8.28a61.19,61.19,0,0,0,1.94,6Z"/><path class="cls-1" d="M511.22,201.08a11.85,11.85,0,0,1-11.38,1.07q-6.13-2.39-12.2-11.63a36.85,36.85,0,0,1-5.31-11.31,15.69,15.69,0,0,1,.08-8.82,11.64,11.64,0,0,1,4.78-6,11.87,11.87,0,0,1,11.43-1q6.21,2.42,12.33,11.73t5.8,15.91A12,12,0,0,1,511.22,201.08ZM510,199a9.19,9.19,0,0,0,4.34-8.38q-.11-5.48-5.7-14T498,165.73a9.3,9.3,0,0,0-9.44.65,9.45,9.45,0,0,0-4.37,8.45q0,5.55,5.65,14.14t10.68,10.72A9.47,9.47,0,0,0,510,199Z"/><path class="cls-1" d="M538.78,183a11.82,11.82,0,0,1-11.38,1.07q-6.14-2.37-12.2-11.62a37,37,0,0,1-5.31-11.31,15.68,15.68,0,0,1,.08-8.82,11.64,11.64,0,0,1,4.78-6,11.87,11.87,0,0,1,11.43-1q6.21,2.42,12.33,11.74t5.8,15.91A11.93,11.93,0,0,1,538.78,183Zm-1.22-2.08a9.22,9.22,0,0,0,4.33-8.39q-.09-5.47-5.7-14t-10.68-10.87a9.28,9.28,0,0,0-9.43.65,9.39,9.39,0,0,0-4.37,8.44q0,5.57,5.65,14.14T528,181.6A9.51,9.51,0,0,0,537.56,180.9Z"/><path class="cls-1" d="M507.21,233.19l-12.52-8.81.7-.49,11.84,8.31-3.67-14,.7-.49,3.9,14.81Z"/><path class="cls-1" d="M514.39,228.2l-8.21-11.81,6.78-4.71.46.65-6.15,4.27,3.38,4.85,5.71-4,.47.67-5.72,4,3.44,4.95,6.39-4.41.46.67Z"/><path class="cls-1" d="M528,219a5.57,5.57,0,0,1-3,1.08,5.21,5.21,0,0,1-3-.91,12.46,12.46,0,0,1-4.63-6.66,5.31,5.31,0,0,1,.18-3.18,5.49,5.49,0,0,1,2.06-2.47,4.5,4.5,0,0,1,1.63-.71,5.25,5.25,0,0,1,1.81-.1,5.18,5.18,0,0,1,1.71.48,4,4,0,0,1,1.36,1l-.72.5a4,4,0,0,0-1.56-1,4.47,4.47,0,0,0-1.92-.24,3.74,3.74,0,0,0-1.84.69,4.37,4.37,0,0,0-1.89,4.87,9.81,9.81,0,0,0,1.61,3.36,10.83,10.83,0,0,0,1.93,2.18,5.85,5.85,0,0,0,2,1.13,4.13,4.13,0,0,0,2,.12,4.93,4.93,0,0,0,1.91-.83,4.43,4.43,0,0,0,1.4-1.48,4.1,4.1,0,0,0,.52-1.68,4.68,4.68,0,0,0-.14-1.64,4.24,4.24,0,0,0-.61-1.34l-1-1.38-3.3,2.3-.4-.57,3.94-2.74,4.18,6-.64.44-1.43-2.05a5.41,5.41,0,0,1-.05,1.7,4.72,4.72,0,0,1-.66,1.64A5,5,0,0,1,528,219Z"/><path class="cls-1" d="M539.23,211.18a5.58,5.58,0,0,1-3,1.09,5.21,5.21,0,0,1-3-.91,12.46,12.46,0,0,1-4.63-6.66,5.31,5.31,0,0,1,.18-3.18,5.51,5.51,0,0,1,2.06-2.48,4.48,4.48,0,0,1,1.63-.7,5.25,5.25,0,0,1,1.81-.1,5,5,0,0,1,1.71.48,3.87,3.87,0,0,1,1.36,1l-.72.5a3.92,3.92,0,0,0-1.56-1,4.45,4.45,0,0,0-1.92-.24,3.81,3.81,0,0,0-1.85.69,4.39,4.39,0,0,0-1.88,4.87A9.81,9.81,0,0,0,531,208a11.11,11.11,0,0,0,1.93,2.18,6,6,0,0,0,2,1.13,4.13,4.13,0,0,0,2,.12,4.93,4.93,0,0,0,1.91-.83,4.43,4.43,0,0,0,1.4-1.48,4.1,4.1,0,0,0,.52-1.69,4.62,4.62,0,0,0-.14-1.63,4.4,4.4,0,0,0-.61-1.35L539,203l-3.3,2.3-.4-.58,3.94-2.73,4.18,6-.64.44-1.43-2.06a5.12,5.12,0,0,1-.05,1.7,4.74,4.74,0,0,1-2.07,3.07Z"/><path class="cls-1" d="M546.46,205.92l-8.21-11.82.63-.44,8.21,11.81Z"/><path class="cls-1" d="M550.38,203.19l-8.21-11.81,6.78-4.71.45.65-6.14,4.27,3.37,4.85,5.72-4,.46.67-5.71,4,3.44,4.95,6.38-4.41.47.67Z"/><path class="cls-1" d="M563.64,194.21a6.84,6.84,0,0,1-1.69.88,5.41,5.41,0,0,1-1.7.31,4.07,4.07,0,0,1-3-1.26l.72-.5a3.39,3.39,0,0,0,1.63.85,4,4,0,0,0,1.84-.08,5.82,5.82,0,0,0,3.27-2.33,3.55,3.55,0,0,0,.59-1.73,2.56,2.56,0,0,0-.49-1.65,2.44,2.44,0,0,0-1.42-1,4.08,4.08,0,0,0-2.25.24L557.94,189a6.85,6.85,0,0,1-1.66.35,3.12,3.12,0,0,1-1.52-.26,3.22,3.22,0,0,1-1.32-1.18,3.26,3.26,0,0,1-.61-1.94,4,4,0,0,1,.59-2,5.64,5.64,0,0,1,1.67-1.75,5.5,5.5,0,0,1,2.53-1,4.21,4.21,0,0,1,2.18.32,3.58,3.58,0,0,1,1.51,1.24l-.72.5a3.11,3.11,0,0,0-3.42-1.16,5.58,5.58,0,0,0-1.67.8,4,4,0,0,0-1.78,2.29,2.74,2.74,0,0,0,.41,2.3,2.17,2.17,0,0,0,1.54,1,4.8,4.8,0,0,0,2.09-.29l3.24-1.1a4.77,4.77,0,0,1,2-.31,3.08,3.08,0,0,1,1.46.48,3.73,3.73,0,0,1,1,1,3.43,3.43,0,0,1,.63,2,4,4,0,0,1-.59,2.11A6.2,6.2,0,0,1,563.64,194.21Z"/><path class="cls-1" d="M472.28,413.5l-5.46-13.32,7.53-3.08.3.73-6.73,2.77,2.23,5.45,6.26-2.57.31.75-6.26,2.57,2.61,6.37Z"/><path class="cls-1" d="M481.47,409.73l-.59-15.31,1-.42,10.32,11.32-.79.33-3.26-3.57-6.11,2.51.18,4.82Zm.55-6.05,5.54-2.27L481.68,395Z"/><path class="cls-1" d="M494.9,404.22l-5.45-13.31.81-.33L500.37,401l-.06-14.57.79-.33,5.46,13.31-.79.33-4.65-11.34.12,13.2-1.07.43-9.06-9.36,4.59,11.2Z"/><path class="cls-1" d="M510.24,397.94l-5.45-13.32.71-.29L511,397.64Z"/><path class="cls-1" d="M514.66,396.12l-5.44-13.31.77-.32L515.13,395l6.79-2.79.32.8Z"/><path class="cls-1" d="M524.91,391.92l-5.45-13.31.72-.29,5.45,13.31Z"/><path class="cls-1" d="M529.33,390.11l-5.45-13.31,7.64-3.13.3.73-6.92,2.84,2.24,5.47,6.44-2.64.31.75-6.44,2.64,2.28,5.58,7.19-2.92.31.75Z"/><path class="cls-1" d="M544.23,384.22a6.9,6.9,0,0,1-1.84.49,5.24,5.24,0,0,1-1.73-.07,4,4,0,0,1-1.51-.64,4.23,4.23,0,0,1-1.17-1.24l.81-.33a3.41,3.41,0,0,0,1.42,1.18,3.88,3.88,0,0,0,1.8.32,5.68,5.68,0,0,0,1.92-.43,5.25,5.25,0,0,0,1.78-1.14,3.48,3.48,0,0,0,.95-1.56,2.53,2.53,0,0,0-.12-1.71,2.42,2.42,0,0,0-1.16-1.31,4.11,4.11,0,0,0-2.25-.25l-3.33.36a6.83,6.83,0,0,1-1.7,0,3,3,0,0,1-1.43-.58,3.18,3.18,0,0,1-1-1.43,3.23,3.23,0,0,1-.18-2,4,4,0,0,1,1-1.86,5.67,5.67,0,0,1,2-1.34,5.6,5.6,0,0,1,2.7-.47,4.19,4.19,0,0,1,2.06.79,3.55,3.55,0,0,1,1.21,1.53l-.81.34a3.39,3.39,0,0,0-1.38-1.5,3.21,3.21,0,0,0-1.72-.37,5.41,5.41,0,0,0-1.79.41,4.05,4.05,0,0,0-2.24,1.85,2.72,2.72,0,0,0-.1,2.33,2.18,2.18,0,0,0,1.28,1.34,4.86,4.86,0,0,0,2.11.17l3.4-.37a4.6,4.6,0,0,1,2,.12,3.17,3.17,0,0,1,1.33.78,4,4,0,0,1,.78,1.2,3.41,3.41,0,0,1,.19,2,3.93,3.93,0,0,1-1,1.93A6.17,6.17,0,0,1,544.23,384.22Z"/><path class="cls-1" d="M477.15,333.38l-9-17.7,10-5.07.5,1-9,4.54,3.67,7.24,8.32-4.21.51,1-8.32,4.22,4.29,8.46Z"/><path class="cls-1" d="M489.86,327.15l-7.05-18.54,10.64-4,.39,1-9.64,3.67,2.9,7.61,9-3.41.4,1.05-9,3.42,2.95,7.76,10-3.77.4,1.05Z"/><path class="cls-1" d="M503.84,322.07l-5-19.19,11-2.89.28,1.07-10,2.61,2.07,7.88,9.29-2.43.28,1.09-9.29,2.43,2.11,8L514.94,318l.28,1.08Z"/><path class="cls-1" d="M518.23,318.47l-2.92-19.62.31,0,.73-.1,1-.15,1.19-.17a14.49,14.49,0,0,1,6,.18,6.79,6.79,0,0,1,3.77,2.69,14.73,14.73,0,0,1,1.54,11.07,7.17,7.17,0,0,1-3,3.77A14.8,14.8,0,0,1,521.1,318Zm1-1.29,1.62-.24A14.56,14.56,0,0,0,526,315.3a6.16,6.16,0,0,0,2.78-3.24,10.75,10.75,0,0,0,.3-5.28,10.6,10.6,0,0,0-1.88-5.09,6,6,0,0,0-3.59-2.17,15.11,15.11,0,0,0-5.21,0l-1.79.27Z"/><path class="cls-1" d="M535.27,316.31l-1.45-19.78,1.07-.08,1.45,19.78Z"/><path class="cls-1" d="M541.19,315.8l0-19.84h.87L554,313.68l0-17.7h1.07l0,19.83h-.94l-11.85-17.66,0,17.64Z"/><path class="cls-1" d="M566.29,317a7.68,7.68,0,0,1-4.14-1.58,7.18,7.18,0,0,1-2.35-3.66,17.1,17.1,0,0,1,1.13-11.12,7.3,7.3,0,0,1,3-3.17,7.47,7.47,0,0,1,4.37-.75,6.13,6.13,0,0,1,2.34.72,7.57,7.57,0,0,1,2,1.52,7.28,7.28,0,0,1,1.36,2,5.29,5.29,0,0,1,.49,2.3l-1.2-.12a5.46,5.46,0,0,0-.75-2.43,6.24,6.24,0,0,0-1.79-2,5.3,5.3,0,0,0-2.55-.94,6.05,6.05,0,0,0-6.35,3.42,13.69,13.69,0,0,0-1.33,5,15.49,15.49,0,0,0,.07,4,8,8,0,0,0,1.07,3,5.48,5.48,0,0,0,2,1.9,6.83,6.83,0,0,0,2.75.85,6.26,6.26,0,0,0,2.79-.3,5.62,5.62,0,0,0,2-1.3,6.13,6.13,0,0,0,1.32-1.84,5.81,5.81,0,0,0,.57-1.95l.23-2.29-5.51-.56.1-.95,6.57.66-1,10-1.07-.1.35-3.44a7.36,7.36,0,0,1-1.57,1.73,6.52,6.52,0,0,1-2.17,1.14A7.06,7.06,0,0,1,566.29,317Z"/><path class="cls-1" d="M466.33,392.4l-13-33.49-8.25,3.19-.83-2.14a30.92,30.92,0,0,0,5.42-2.56,4.17,4.17,0,0,0,2-2.27,4.6,4.6,0,0,0-.32-2.66l1.92-.75,15.42,39.76Z"/><path class="cls-1" d="M491.53,383.32A11.86,11.86,0,0,1,480.17,382q-5.49-3.62-9.49-13.92a36.81,36.81,0,0,1-2.82-12.17,15.58,15.58,0,0,1,1.93-8.61,11.62,11.62,0,0,1,5.93-4.9,11.9,11.9,0,0,1,11.39,1.4q5.56,3.68,9.59,14.06t2.35,16.77A12,12,0,0,1,491.53,383.32Zm-.77-2.3a9.22,9.22,0,0,0,6-7.29q1-5.37-2.64-14.89T486,346a9.3,9.3,0,0,0-9.36-1.33,9.41,9.41,0,0,0-6,7.34q-1.16,5.44,2.56,15t8.19,12.72A9.49,9.49,0,0,0,490.76,381Z"/><path class="cls-1" d="M522.27,371.4a11.86,11.86,0,0,1-11.36-1.34q-5.49-3.62-9.49-13.92A36.81,36.81,0,0,1,498.6,344a15.56,15.56,0,0,1,1.93-8.6,11.62,11.62,0,0,1,5.93-4.9,11.9,11.9,0,0,1,11.39,1.4q5.56,3.67,9.59,14.06t2.35,16.77A12,12,0,0,1,522.27,371.4Zm-.77-2.3a9.22,9.22,0,0,0,6-7.29q1.05-5.37-2.64-14.89t-8.17-12.87a9.28,9.28,0,0,0-9.36-1.33,9.41,9.41,0,0,0-6,7.34q-1.16,5.44,2.56,15T512,367.79A9.49,9.49,0,0,0,521.5,369.1Z"/><path class="cls-1" d="M446,496.52l-11.91-15.85,9-6.75.66.88-8,6,4.88,6.5,7.45-5.61.68.9-7.46,5.6,5.71,7.59Z"/><path class="cls-1" d="M455.88,489.05l-3.29-20.86,1.33-.74,16,13.82-1,.57-5.05-4.35-8,4.42,1,6.58Zm-.23-8.37,7.22-4-9.09-7.86Z"/><path class="cls-1" d="M472.23,480.3,465,461.82l6.52-2.54a9.11,9.11,0,0,1,3.26-.68,4.42,4.42,0,0,1,2.54.78,4.79,4.79,0,0,1,1.65,2.27,5.08,5.08,0,0,1,.38,2.79,5,5,0,0,1-.92,2.14,7.25,7.25,0,0,1-1.49,1.49l7.34,7.53-1.15.45L476,468.71l-6.22,2.41,3.42,8.8Zm-2.83-10.23,4.65-1.81a8.12,8.12,0,0,0,3.72-2.48,3.52,3.52,0,0,0,.24-3.53,3.57,3.57,0,0,0-2.29-2.4,6.2,6.2,0,0,0-3.79.47l-5.5,2.13Z"/><path class="cls-1" d="M487.29,474.54l-4.58-19.3,1.17-.28,11.54,16.4,3-19.86,1.15-.28,4.59,19.3-1.15.27-3.91-16.44-2.66,18-1.54.37L484.59,458l3.85,16.22Z"/><path class="cls-1" d="M515.33,469.38a8.14,8.14,0,0,1-3.76-.31,4.64,4.64,0,0,1-2.4-2,9.39,9.39,0,0,1-1.13-3.74l-1.5-13.2,1.17-.13,1.56,13.66a4.73,4.73,0,0,0,5.94,4.67,7,7,0,0,0,3-.94,4,4,0,0,0,1.63-2,6.48,6.48,0,0,0,.27-3l-1.56-13.66,1.06-.12,1.55,13.6a7.8,7.8,0,0,1-.31,3.64,4.68,4.68,0,0,1-1.93,2.37A8.49,8.49,0,0,1,515.33,469.38Z"/><path class="cls-1" d="M525.89,468.07l-.41-19.83h.88l12.3,17.44-.37-17.7,1.07,0,.41,19.83-.93,0-12.25-17.38.37,17.63Z"/><path class="cls-1" d="M544.94,468l.7-19.83,1.07,0L546,468Z"/><path class="cls-1" d="M555.7,468.57l1.45-18.68-6.78-.53.08-1.09,14.1,1.09-.08,1.1-6.24-.49-1.45,18.68Z"/><path class="cls-1" d="M569.75,470l1.12-8.49-5.13-12.05,1.2.16,4.6,10.9,7.15-9.35,1.17.15-8,10.36-1.11,8.45Z"/><path class="cls-1" d="M473.52,558.7l-1.18-19.8h.31l.74,0,1-.06,1.2-.06a14.4,14.4,0,0,1,6,.71,6.72,6.72,0,0,1,3.51,3,14.69,14.69,0,0,1,.57,11.16,7.16,7.16,0,0,1-3.34,3.49,14.8,14.8,0,0,1-6,1.42Zm1.11-1.2,1.64-.1a14.28,14.28,0,0,0,5.3-1.17,6.23,6.23,0,0,0,3.05-3,13.15,13.15,0,0,0-.65-10.48,6,6,0,0,0-3.39-2.47,15.13,15.13,0,0,0-5.19-.46l-1.8.11Z"/><path class="cls-1" d="M499.18,556.43a7.85,7.85,0,0,1-4.45-.42,7.37,7.37,0,0,1-3.33-2.9,13.91,13.91,0,0,1-1.91-5.32,14.27,14.27,0,0,1,0-5.7,7.49,7.49,0,0,1,2.18-3.87,7.79,7.79,0,0,1,4.05-1.88,7.68,7.68,0,0,1,4.43.42,7.37,7.37,0,0,1,3.3,2.93,14.51,14.51,0,0,1,1.89,5.38,14.2,14.2,0,0,1,0,5.64,7.42,7.42,0,0,1-2.14,3.84A7.8,7.8,0,0,1,499.18,556.43Zm-.19-1.11a6.73,6.73,0,0,0,3.52-1.61,6,6,0,0,0,1.75-3.34,14,14,0,0,0-.09-5.1,14.16,14.16,0,0,0-1.63-4.88,6.16,6.16,0,0,0-2.78-2.58,7.35,7.35,0,0,0-7.34,1.26,6.33,6.33,0,0,0-1.8,3.38,13.87,13.87,0,0,0,.06,5.13,13.38,13.38,0,0,0,1.65,4.84,6.12,6.12,0,0,0,2.82,2.55A6.77,6.77,0,0,0,499,555.32Z"/><path class="cls-1" d="M512.54,553.48l-6-18.91.83-.27,16.71,13.28-5.33-16.87,1-.33,6,18.92-.89.28-16.64-13.24,5.31,16.82Z"/><path class="cls-1" d="M531.18,547.29l-2.32-21,1.36-.68,15.31,14.54-1.06.52-4.83-4.58-8.16,4,.74,6.62Zm.16-8.38,7.39-3.67L530,527Z"/><path class="cls-1" d="M553.75,534.66,543,519.32l-5.57,3.9-.63-.9,11.58-8.11.63.89-5.12,3.59L554.64,534Z"/><path class="cls-1" d="M563,527.55l-13-15,.81-.7,13,15Z"/><path class="cls-1" d="M573.67,517.62a7.77,7.77,0,0,1-3.76,2.42,7.39,7.39,0,0,1-4.41-.24,16.4,16.4,0,0,1-8.27-7.52,7.48,7.48,0,0,1-.67-4.39,8.52,8.52,0,0,1,5.79-6.37,7.38,7.38,0,0,1,4.4.28,14.52,14.52,0,0,1,4.81,3.07,14.18,14.18,0,0,1,3.46,4.45,7.33,7.33,0,0,1,.68,4.34A7.7,7.7,0,0,1,573.67,517.62Zm-.83-.75a6.77,6.77,0,0,0,1.79-3.43,6.06,6.06,0,0,0-.68-3.71,16.81,16.81,0,0,0-7.5-6.81,6.22,6.22,0,0,0-3.79-.32,6.52,6.52,0,0,0-3.23,2.07,6.61,6.61,0,0,0-1.77,3.43,6.27,6.27,0,0,0,.67,3.78,13.67,13.67,0,0,0,3.2,4,13.52,13.52,0,0,0,4.28,2.8,6.19,6.19,0,0,0,3.79.27A6.69,6.69,0,0,0,572.84,516.87Z"/><path class="cls-1" d="M582.53,506.62l-16.8-10.55.47-.75,21.33-.68-15-9.42.57-.91,16.79,10.56-.5.79-21.25.67,14.94,9.38Z"/></g><g id="P"><path class="cls-2" d="M262.76,148.93S409.08,359,359.41,752.75"/><path class="cls-2" d="M324.65,286.86S141.11,232.25,219.71,2.5C219.71,2.5,371.07,69.19,324.65,286.86Z"/><path class="cls-2" d="M338.47,440.21s31.51,60.61,31.23,139"/><path class="cls-2" d="M231.78,305S182.56,163.15,2.5,205.44c0,0,5.55,139.7,217.25,136.21"/><path class="cls-2" d="M135.27,444.42s42.13-58.35,143.42-48.88"/><path class="cls-2" d="M213.68,399.15s-78.57-32.21-131.1,82.19C82.58,481.34,174.89,486.51,213.68,399.15Z"/><path class="cls-2" d="M347.87,374.91s4.1-74,56.14-128.63"/><path class="cls-2" d="M378.32,280.42S391.43,65.58,617.69,110.65C617.69,110.65,598.37,286.86,378.32,280.42Z"/><path class="cls-2" d="M591.44,310.6s-6,122.22-203.39,122.22c0,0,17.73-62.89,71.62-100.14"/><path class="cls-2" d="M443,386.78S378.32,407,365.82,498.71"/><path class="cls-2" d="M369.7,583.75s24.33-62.5,116.88-79.08"/><path class="cls-2" d="M461.07,548.64c-16.7-.54-35.5-3.06-56.66-8.12,0,0,5.08-20.1,23.73-40.46"/></g></g></svg>