<svg xmlns="http://www.w3.org/2000/svg" viewBox="0 0 621.19 756.25"><defs><style>.cls-1{fill:#eb3e94;}.cls-2{fill:none;stroke:#eb3e94;stroke-linecap:round;stroke-linejoin:round;stroke-width:6px;}</style></defs><title>Asset 32</title><g id="Layer_2" data-name="Layer 2"><g id="PT"><path class="cls-1" d="M67.86,258.57l5.46-19.06,12,3.44-.63,2.14-9.56-2.73-1.78,6.22L82,251.05l-.61,2.13-8.63-2.47-1.82,6.36,9.83,2.84-.62,2.18Z"/><path class="cls-1" d="M81.55,262.54,94.61,246l2.72.9L97.9,268l-2.46-.81-.14-5.76-7.72-2.56L84,263.36Zm7.4-5.72L95.37,259l-.19-10.17Z"/><path class="cls-1" d="M107,271.63a8.19,8.19,0,0,1-3.85-2.74,7.73,7.73,0,0,1-1.47-4.29,13.89,13.89,0,0,1,1-5.53,13.7,13.7,0,0,1,2.84-4.79,7.39,7.39,0,0,1,3.9-2.23,8.4,8.4,0,0,1,4.7.48,7.78,7.78,0,0,1,3.18,2.12,7.36,7.36,0,0,1,1.63,3.08,6.79,6.79,0,0,1,0,3.41l-2.53-.95a5.77,5.77,0,0,0,0-2.27,4.75,4.75,0,0,0-1-2,4.83,4.83,0,0,0-2.06-1.36,5.24,5.24,0,0,0-3.14-.27,5.1,5.1,0,0,0-2.67,1.78,13.36,13.36,0,0,0-2.17,4q-1.44,3.89-.79,6.19a4.78,4.78,0,0,0,3.2,3.27,4.53,4.53,0,0,0,4.52-.63,6,6,0,0,0,1.53-1.71l2.53.94a8.25,8.25,0,0,1-1.48,2,6.91,6.91,0,0,1-2.09,1.46,6.57,6.57,0,0,1-2.62.57A8.24,8.24,0,0,1,107,271.63Z"/><path class="cls-1" d="M116.75,275l7.58-18.33,2.35,1-3.24,7.81,9.89,4.09,3.23-7.81,2.35,1L131.32,281,129,280l3.49-8.45-9.88-4.09-3.5,8.45Z"/><path class="cls-1" d="M139.92,284.83l8.5-17.92,3.17,1.5L150,285.77l12.49-12.2,3.17,1.5L157.14,293l-2.37-1.12,6.87-14.49-12.06,12-2.15-1,1.65-16.79L142.28,286Z"/><path class="cls-1" d="M167.21,298.55a8.56,8.56,0,0,1-3.5-3.18,7.77,7.77,0,0,1-1-4.46,14.93,14.93,0,0,1,5.13-9.76,7.86,7.86,0,0,1,4.27-1.7,8.47,8.47,0,0,1,4.6,1.05,8.35,8.35,0,0,1,3.48,3.17,7.84,7.84,0,0,1,1,4.46,13.5,13.5,0,0,1-1.66,5.4,13.08,13.08,0,0,1-3.46,4.39,7.75,7.75,0,0,1-4.23,1.69A8.47,8.47,0,0,1,167.21,298.55Zm1-2a5.54,5.54,0,0,0,3.15.71,5.14,5.14,0,0,0,3-1.38,12.4,12.4,0,0,0,2.69-3.66,13,13,0,0,0,1.5-4.35,5.35,5.35,0,0,0-.52-3.25,6.05,6.05,0,0,0-5.52-2.89,5.46,5.46,0,0,0-3,1.42,12.57,12.57,0,0,0-2.72,3.69,12.21,12.21,0,0,0-1.46,4.3,5.3,5.3,0,0,0,.57,3.23A5.66,5.66,0,0,0,168.24,296.59Z"/><path class="cls-1" d="M177.38,303.61l9.85-17.21,2.11,1.21,1.43,18.58,7.66-13.38,2.2,1.27-9.85,17.21-2-1.13-1.46-18.86-7.77,13.57Z"/><path class="cls-1" d="M197.93,315.66l9.22-14.88-5.44-3.37,1.23-2,12.75,7.9-1.23,2-5.14-3.19L200.09,317Z"/><path class="cls-1" d="M207,321.36,218,304.9l2.11,1.41-4.72,7,8.88,6,4.72-7,2.1,1.41L220,330.16l-2.11-1.42,5.11-7.59-8.88-6-5.11,7.59Z"/><path class="cls-1" d="M230.19,337.45l7.48-19.24,2.05,1.55L233.63,335l13.13-9.84,1.58,1.21-6,15.25,13.13-9.84,2,1.55-16.63,12.26L239,344.15l5.87-14.87L232,338.83Z"/><path class="cls-1" d="M246.88,350.38l12.76-15.18,9.58,8.05-1.45,1.7-7.61-6.4-4.17,5,6.86,5.76-1.43,1.7-6.87-5.77-4.25,5.06,7.81,6.61-1.45,1.73Z"/><path class="cls-1" d="M263,364.23l13.57-14.47.43.41.86.81,1.06,1,1,1a13.93,13.93,0,0,1,3.5,4.91,7.11,7.11,0,0,1,.18,4.68,11.78,11.78,0,0,1-2.85,4.59,11.94,11.94,0,0,1-4.62,3.24,7.43,7.43,0,0,1-4.84.08,13.45,13.45,0,0,1-5.12-3.24Zm3.39.19,1.27,1.19a10.84,10.84,0,0,0,3.6,2.34,5.59,5.59,0,0,0,3.68.05,9.27,9.27,0,0,0,3.83-2.68,9.52,9.52,0,0,0,2.44-3.95,5.29,5.29,0,0,0-.31-3.57,11.13,11.13,0,0,0-2.57-3.4L277,353.14Z"/><path class="cls-1" d="M280.86,381.87a8.6,8.6,0,0,1-2.34-4.12,7.81,7.81,0,0,1,.41-4.55,15,15,0,0,1,7.93-7.67,7.81,7.81,0,0,1,4.59-.28,9.22,9.22,0,0,1,6.35,6.54,7.84,7.84,0,0,1-.44,4.55,15.21,15.21,0,0,1-7.92,7.69,7.77,7.77,0,0,1-4.55.29A8.45,8.45,0,0,1,280.86,381.87Zm1.58-1.54a5.63,5.63,0,0,0,2.78,1.67,5.19,5.19,0,0,0,3.23-.4,12.18,12.18,0,0,0,3.69-2.63,12.79,12.79,0,0,0,2.79-3.66,5.4,5.4,0,0,0,.53-3.26,6.09,6.09,0,0,0-4.34-4.46,5.41,5.41,0,0,0-3.3.4,14.9,14.9,0,0,0-6.48,6.28,5.37,5.37,0,0,0-.47,3.25A5.65,5.65,0,0,0,282.44,380.33Z"/><path class="cls-1" d="M288.8,389.89l14.93-13.06,1.6,1.82-4.71,18,11.61-10.15,1.67,1.91L299,401.51l-1.49-1.7,4.76-18.31-11.77,10.29Z"/><path class="cls-1" d="M300.64,403.36l20-6.62,1.77,2.26-11.15,17.9-1.6-2,3.05-4.88-5-6.39-5.47,1.8Zm9.33-.7,4.18,5.32,5.45-8.58Z"/><path class="cls-1" d="M315.15,422.45,329.4,412.3l-3.72-5.22,1.9-1.35L336.29,418l-1.9,1.35-3.51-4.93-14.25,10.16Z"/><path class="cls-1" d="M321.29,431.1,338,420.33l6.79,10.5L342.85,432l-5.4-8.35L332,427.2l4.86,7.52L335,435.93l-4.88-7.53L324.59,432l5.54,8.61-1.9,1.22Z"/><path class="cls-1" d="M447.67,243.6a19,19,0,0,1-7.6,3,12.45,12.45,0,0,1-7-.88,13.27,13.27,0,0,1-5.53-4.7l5.21-3.41a8.94,8.94,0,0,0,5.84,3.17,9.76,9.76,0,0,0,6.28-1.75,13.46,13.46,0,0,0,3.84-3.63,8.06,8.06,0,0,0,1.44-4,6.29,6.29,0,0,0-1.09-3.86,6.22,6.22,0,0,0-3.31-2.63,8.41,8.41,0,0,0-4.39-.13,14.94,14.94,0,0,0-4.77,2l-3.33,2.07-2.88-4.39,3-2.1a11.7,11.7,0,0,0,3.42-3.46,8.33,8.33,0,0,0,1.34-3.9,5.56,5.56,0,0,0-.9-3.53,5.15,5.15,0,0,0-2.59-2,7.1,7.1,0,0,0-3.76-.24,12,12,0,0,0-4.39,1.88,10.67,10.67,0,0,0-3,3,7.7,7.7,0,0,0-1.31,4,8.38,8.38,0,0,0,1.37,4.64l-5.17,3.4a12.3,12.3,0,0,1-2.24-7.14,12.87,12.87,0,0,1,2.13-6.76,18.5,18.5,0,0,1,5.53-5.47,23.08,23.08,0,0,1,7.37-3.32,12.06,12.06,0,0,1,6.63.13,9.44,9.44,0,0,1,5,4,9,9,0,0,1,1.47,5.82,12.61,12.61,0,0,1-2.93,6.63,15.55,15.55,0,0,1,5.16-.79,10.23,10.23,0,0,1,4.65,1.2,10.05,10.05,0,0,1,3.68,3.48,10.85,10.85,0,0,1,1.85,5.13,11.63,11.63,0,0,1-.79,5.24,16.28,16.28,0,0,1-3.12,5A24.57,24.57,0,0,1,447.67,243.6Z"/><path class="cls-1" d="M469.06,237.92l-1.32-8.09-2.34,1.32-3.86-5.87,6.12-4L471,226.4l.3,10Z"/><path class="cls-1" d="M482.79,219.77a62.46,62.46,0,0,1-2.56-6.75,95.28,95.28,0,0,1-2.47-9.44A105.91,105.91,0,0,1,476,192.25a84.83,84.83,0,0,1-.35-12.4l-19.77,13L453,188.34l25.46-16.72,2.95,4.49a64,64,0,0,0,0,8.06c.18,2.92.48,5.9.92,9s1,6,1.61,8.9,1.34,5.52,2.12,7.93a37.52,37.52,0,0,0,2.49,6.05Z"/><path class="cls-1" d="M518.8,196.91a13.48,13.48,0,0,1-12.55,1.62q-6.51-2.34-12.42-11.34a33.68,33.68,0,0,1-5.06-11.2,16,16,0,0,1,.45-9.17,13.85,13.85,0,0,1,5.52-6.62,13.41,13.41,0,0,1,12.52-1.53q6.59,2.37,12.52,11.41T525.25,186A13.47,13.47,0,0,1,518.8,196.91Zm-2.92-4.51a7.07,7.07,0,0,0,3.36-6.81q-.29-4.41-5.11-11.76t-8.92-9.56a7.09,7.09,0,0,0-7.63.32,7.18,7.18,0,0,0-3.33,6.91q.27,4.55,5.16,12t8.81,9.32A7.23,7.23,0,0,0,515.88,192.4Z"/><path class="cls-1" d="M548.43,177.45a13.45,13.45,0,0,1-12.55,1.63q-6.51-2.34-12.42-11.34a33.68,33.68,0,0,1-5.06-11.2,16,16,0,0,1,.46-9.17,13.83,13.83,0,0,1,5.51-6.62,13.41,13.41,0,0,1,12.52-1.53q6.58,2.35,12.52,11.41t5.48,15.94A13.48,13.48,0,0,1,548.43,177.45Zm-2.92-4.5a7.08,7.08,0,0,0,3.36-6.81q-.29-4.41-5.11-11.76-4.92-7.5-8.92-9.56a7.11,7.11,0,0,0-7.63.31,7.19,7.19,0,0,0-3.33,6.91q.27,4.56,5.16,12t8.81,9.31A7.22,7.22,0,0,0,545.51,173Z"/><path class="cls-1" d="M507.56,233.82l-12.42-8.89,1.49-1,10.64,7.58-3.4-12.61,1.49-1,4,14.73Z"/><path class="cls-1" d="M515.19,228.51,507,216.7l7.45-5.18.92,1.34L509.43,217l2.68,3.86,5.33-3.71.92,1.33L513,222.16l2.74,3.94,6.1-4.22.94,1.35Z"/><path class="cls-1" d="M529.45,218.84a6,6,0,0,1-3.17,1.15,5.65,5.65,0,0,1-3.17-.86,9.88,9.88,0,0,1-2.87-2.84,9.72,9.72,0,0,1-1.67-3.72,5.66,5.66,0,0,1,.31-3.31,6,6,0,0,1,2.2-2.6,5.54,5.54,0,0,1,1.89-.86,5.78,5.78,0,0,1,2-.11,5.35,5.35,0,0,1,1.82.55,4.09,4.09,0,0,1,1.4,1.13l-1.61,1.13a3.78,3.78,0,0,0-1.36-.87,3.7,3.7,0,0,0-1.62-.21,3.25,3.25,0,0,0-1.58.6,3.86,3.86,0,0,0-1.45,1.75,3.91,3.91,0,0,0-.13,2.37,8.81,8.81,0,0,0,1.43,3,9.77,9.77,0,0,0,1.76,2,5.15,5.15,0,0,0,1.75,1,3.55,3.55,0,0,0,1.68,0,4.18,4.18,0,0,0,1.55-.68,3.68,3.68,0,0,0,1.11-1.16,3.36,3.36,0,0,0,.45-1.31,3.7,3.7,0,0,0,0-1.29,3.42,3.42,0,0,0-.42-1.07l-.68-1.08-2.87,2-.78-1.11,4.45-3.08,4.24,6.09-1.14.79-1.25-1.8a5.6,5.6,0,0,1-.12,1.51,4.31,4.31,0,0,1-.65,1.53A5,5,0,0,1,529.45,218.84Z"/><path class="cls-1" d="M541.12,210.73a5.89,5.89,0,0,1-3.18,1.15,5.54,5.54,0,0,1-3.16-.86,9.52,9.52,0,0,1-2.87-2.84,9.65,9.65,0,0,1-1.67-3.72,5.67,5.67,0,0,1,.31-3.31,6,6,0,0,1,2.2-2.6,5.35,5.35,0,0,1,1.89-.85,5.53,5.53,0,0,1,2-.12,5.23,5.23,0,0,1,1.81.55,4.13,4.13,0,0,1,1.41,1.14l-1.62,1.12a3.67,3.67,0,0,0-1.35-.86,3.57,3.57,0,0,0-1.62-.22,3.24,3.24,0,0,0-1.59.6,4,4,0,0,0-1.45,1.75,3.94,3.94,0,0,0-.12,2.38,8.49,8.49,0,0,0,1.43,3,9.48,9.48,0,0,0,1.76,2,4.86,4.86,0,0,0,1.74.95,3.69,3.69,0,0,0,1.68.06,4.3,4.3,0,0,0,1.55-.69,3.61,3.61,0,0,0,1.12-1.16,3.72,3.72,0,0,0,.45-1.31,3.89,3.89,0,0,0-.06-1.28,3.73,3.73,0,0,0-.41-1.08l-.68-1.08-2.88,2-.77-1.11,4.45-3.08,4.23,6.09-1.13.79-1.25-1.79a5.56,5.56,0,0,1-.12,1.5,4.61,4.61,0,0,1-.65,1.53A5.17,5.17,0,0,1,541.12,210.73Z"/><path class="cls-1" d="M548.33,205.48l-8.21-11.82,1.51-1,8.22,11.82Z"/><path class="cls-1" d="M552.65,202.48l-8.21-11.81,7.45-5.18.91,1.34-5.92,4.11,2.68,3.86,5.34-3.71.92,1.32-5.35,3.72,2.74,3.93,6.11-4.22.93,1.35Z"/><path class="cls-1" d="M566.58,193a7.84,7.84,0,0,1-1.79.93,6,6,0,0,1-1.85.36,4.57,4.57,0,0,1-1.76-.31,4,4,0,0,1-1.51-1.07l1.58-1.1a2.77,2.77,0,0,0,1.37.72,3.32,3.32,0,0,0,1.56-.07,5.26,5.26,0,0,0,1.59-.76,5,5,0,0,0,1.22-1.2,2.88,2.88,0,0,0,.53-1.4,2,2,0,0,0-.37-1.36,1.82,1.82,0,0,0-1.24-.81,4.13,4.13,0,0,0-1.9.29l-2.87,1.07a6.56,6.56,0,0,1-1.86.43,3.27,3.27,0,0,1-1.67-.29,3.61,3.61,0,0,1-1.41-1.26,3.41,3.41,0,0,1-.66-2.14,4.4,4.4,0,0,1,.69-2.21A6.64,6.64,0,0,1,558.1,181a6.34,6.34,0,0,1,2.67-1.14,4.37,4.37,0,0,1,2.33.26,3.76,3.76,0,0,1,1.65,1.34l-1.55,1.07a2.81,2.81,0,0,0-1.37-.94,2.68,2.68,0,0,0-1.46,0,4.76,4.76,0,0,0-1.44.69,3.45,3.45,0,0,0-1.52,1.91,2.17,2.17,0,0,0,.3,1.82,1.76,1.76,0,0,0,1.26.82,3.91,3.91,0,0,0,1.82-.31l2.8-1a5.4,5.4,0,0,1,2.17-.46,3.38,3.38,0,0,1,1.65.46,4,4,0,0,1,1.2,1.15,3.51,3.51,0,0,1,.67,2.12,4.44,4.44,0,0,1-.69,2.27A7.08,7.08,0,0,1,566.58,193Z"/><path class="cls-1" d="M472.5,414.14,467,400.83l8.3-3.4.6,1.49-6.54,2.68,1.81,4.4,5.87-2.41.6,1.48-5.87,2.4,2.44,5.95Z"/><path class="cls-1" d="M482.06,410.22l-.63-15.29,1.92-.79,10.27,11.34-1.74.71-2.79-3.1-5.46,2.24.17,4.17Zm1.37-6.65,4.54-1.86-4.9-5.51Z"/><path class="cls-1" d="M495.79,404.59l-5.46-13.31,2.36-1,8.52,9.35L500.77,387l2.35-1,5.45,13.31-1.76.72-4.41-10.76.56,12.34-1.59.65-8.2-9.08,4.37,10.65Z"/><path class="cls-1" d="M511.72,398.06l-5.46-13.31,1.71-.7,5.45,13.31Z"/><path class="cls-1" d="M516.58,396.07l-5.45-13.32,1.74-.71,4.83,11.78,6.29-2.57.63,1.52Z"/><path class="cls-1" d="M526.84,391.86l-5.45-13.31,1.7-.7,5.46,13.31Z"/><path class="cls-1" d="M531.71,389.87l-5.46-13.31,8.39-3.44.61,1.5-6.67,2.74,1.78,4.34,6-2.46.61,1.49-6,2.47,1.82,4.43,6.87-2.79.63,1.52Z"/><path class="cls-1" d="M547.35,383.67a7.87,7.87,0,0,1-2,.53,5.9,5.9,0,0,1-1.88-.06,4.44,4.44,0,0,1-1.65-.68,4,4,0,0,1-1.25-1.37l1.79-.74a2.7,2.7,0,0,0,1.18,1,3.41,3.41,0,0,0,1.54.28,5.2,5.2,0,0,0,1.71-.41,4.81,4.81,0,0,0,1.45-.9,3,3,0,0,0,.83-1.25,2,2,0,0,0-.07-1.4,1.83,1.83,0,0,0-1-1.07,4.09,4.09,0,0,0-1.91-.12l-3,.41a6.84,6.84,0,0,1-1.91,0,3.37,3.37,0,0,1-1.57-.65,3.66,3.66,0,0,1-1.1-1.54,3.45,3.45,0,0,1-.18-2.23,4.4,4.4,0,0,1,1.16-2,6.6,6.6,0,0,1,2.23-1.46,6.34,6.34,0,0,1,2.86-.53,4.27,4.27,0,0,1,2.21.76,3.83,3.83,0,0,1,1.33,1.66l-1.75.72a2.76,2.76,0,0,0-1.13-1.22,2.61,2.61,0,0,0-1.43-.31,4.72,4.72,0,0,0-1.56.37,3.48,3.48,0,0,0-1.9,1.53,2.17,2.17,0,0,0-.1,1.84,1.78,1.78,0,0,0,1.06,1.07,3.86,3.86,0,0,0,1.84.1l3-.41a5.49,5.49,0,0,1,2.23,0,3.48,3.48,0,0,1,1.51.8,4,4,0,0,1,.92,1.38,3.51,3.51,0,0,1,.19,2.23,4.36,4.36,0,0,1-1.17,2.06A6.84,6.84,0,0,1,547.35,383.67Z"/><path class="cls-1" d="M477.29,334.1l-9-17.69,11-5.58,1,2-8.69,4.4,3,5.84,7.81-3.95,1,2L475.61,325l4,7.91Z"/><path class="cls-1" d="M490,327.84,482.9,309.3l11.7-4.45.78,2.1-9.3,3.53,2.3,6,8.38-3.18.79,2.08-8.39,3.19,2.35,6.18,9.57-3.61.81,2.11Z"/><path class="cls-1" d="M503.94,322.67l-5-19.18,12.1-3.17.55,2.16L502,305l1.64,6.27,8.66-2.27.57,2.15-8.68,2.27,1.68,6.39,9.9-2.56.58,2.19Z"/><path class="cls-1" d="M518.31,319.09l-2.91-19.62.58-.08,1.17-.17,1.44-.22,1.37-.18a13.87,13.87,0,0,1,6,.3,7.2,7.2,0,0,1,3.78,2.76A12,12,0,0,1,531.6,307a12.17,12.17,0,0,1-.32,5.64,7.48,7.48,0,0,1-2.95,3.85,13.55,13.55,0,0,1-5.72,2Zm2.26-2.54,1.72-.26a10.73,10.73,0,0,0,4.07-1.37,5.6,5.6,0,0,0,2.33-2.85,11.57,11.57,0,0,0-1.31-9,5.27,5.27,0,0,0-3-2,10.88,10.88,0,0,0-4.26-.1l-1.83.27Z"/><path class="cls-1" d="M535.33,316.84l-1.44-19.78,2.53-.18,1.44,19.78Z"/><path class="cls-1" d="M541.2,316.23l0-19.83h2.43l10.45,15.44,0-15.42h2.54l0,19.84h-2.27L543.76,300.6l0,15.64Z"/><path class="cls-1" d="M567.19,317.54a8.32,8.32,0,0,1-4.36-1.65,7.71,7.71,0,0,1-2.54-3.74,15.3,15.3,0,0,1,1.12-10.94,7.84,7.84,0,0,1,3.3-3.19,8.33,8.33,0,0,1,4.64-.75,7.63,7.63,0,0,1,2.74.8,8.14,8.14,0,0,1,2.18,1.65,7.54,7.54,0,0,1,1.41,2.21,5.82,5.82,0,0,1,.45,2.45l-2.7-.27a5.08,5.08,0,0,0-.65-2.12,5,5,0,0,0-1.5-1.68,4.56,4.56,0,0,0-2.2-.79,5.12,5.12,0,0,0-5.35,2.9,12.26,12.26,0,0,0-1.17,4.41,13.06,13.06,0,0,0,.08,3.64,6.62,6.62,0,0,0,1,2.56,4.89,4.89,0,0,0,1.7,1.57,5.84,5.84,0,0,0,2.25.67,4.9,4.9,0,0,0,2.2-.22,4.74,4.74,0,0,0,1.65-1,5.18,5.18,0,0,0,1.62-2.89l.25-1.74-4.8-.48.19-1.86,7.42.77-1,10.18-1.89-.19.3-3a7.87,7.87,0,0,1-1.47,1.47,6.31,6.31,0,0,1-2.06,1A7.35,7.35,0,0,1,567.19,317.54Z"/><path class="cls-1" d="M465.89,393.23,453.82,362.1,446.29,365l-1.42-3.65a22.84,22.84,0,0,0,5.32-2.72,5.92,5.92,0,0,0,2.27-2.8,5.24,5.24,0,0,0-.06-3.13l4.1-1.59,15.41,39.76Z"/><path class="cls-1" d="M494.75,382.73a13.46,13.46,0,0,1-12.61-1Q476.26,378,472.37,368a33.51,33.51,0,0,1-2.6-12,16,16,0,0,1,2.36-8.88,13.75,13.75,0,0,1,6.78-5.31,13.41,13.41,0,0,1,12.57,1.12q5.94,3.69,9.85,13.78t2,16.73A13.44,13.44,0,0,1,494.75,382.73Zm-1.91-5a7.09,7.09,0,0,0,4.71-6q.65-4.38-2.53-12.57-3.24-8.35-6.73-11.22a7.11,7.11,0,0,0-7.52-1.29,7.2,7.2,0,0,0-4.7,6.07q-.69,4.5,2.53,12.81t6.67,10.95A7.22,7.22,0,0,0,492.84,377.72Z"/><path class="cls-1" d="M527.8,369.91a13.45,13.45,0,0,1-12.61-1q-5.88-3.66-9.77-13.69a33.55,33.55,0,0,1-2.6-12,16,16,0,0,1,2.36-8.87A13.77,13.77,0,0,1,512,329a13.44,13.44,0,0,1,12.57,1.12q5.94,3.69,9.85,13.78t2,16.73A13.44,13.44,0,0,1,527.8,369.91Zm-1.91-5a7.08,7.08,0,0,0,4.71-6q.64-4.37-2.53-12.57-3.24-8.36-6.73-11.21a7.07,7.07,0,0,0-7.52-1.29,7.19,7.19,0,0,0-4.7,6.06q-.69,4.5,2.53,12.81,3.17,8.16,6.67,10.95A7.22,7.22,0,0,0,525.89,364.9Z"/><path class="cls-1" d="M446.21,497.26l-11.92-15.85,9.88-7.43,1.32,1.78-7.78,5.86,3.94,5.24,7-5.26,1.32,1.75-7,5.26,5.32,7.08Z"/><path class="cls-1" d="M456,489.73l-3.35-20.83,2.51-1.39,15.9,13.85-2.27,1.26-4.33-3.79-7.11,3.95.92,5.69Zm.8-9.33,5.91-3.28-7.61-6.74Z"/><path class="cls-1" d="M472.36,480.89l-7.19-18.48,7.16-2.79a8.91,8.91,0,0,1,3.57-.69,4.69,4.69,0,0,1,2.69,1,5.69,5.69,0,0,1,1.71,2.45,5.76,5.76,0,0,1,.45,2.71,5.14,5.14,0,0,1-.73,2.13,7.75,7.75,0,0,1-1.33,1.6l6.89,7-2.51,1-6.47-6.66-5,1.94,3.09,8Zm-1.49-10.84,4-1.56a5.6,5.6,0,0,0,2.89-2.11,3.16,3.16,0,0,0,.16-3,3.13,3.13,0,0,0-2-2.05,4.68,4.68,0,0,0-3.09.28l-4.59,1.78Z"/><path class="cls-1" d="M487.49,475.12l-4.58-19.29,3.41-.82,9.61,14.56L498,452.23l3.4-.81,4.59,19.3-2.55.6-3.71-15.6-1.88,16.93-2.31.55-9.23-14.13L490,474.52Z"/><path class="cls-1" d="M516.11,469.91a8.83,8.83,0,0,1-4.24-.37,5.08,5.08,0,0,1-2.6-2.21,10,10,0,0,1-1.19-3.94l-1.44-12.64,2.61-.29,1.49,13a4.89,4.89,0,0,0,1.59,3.44,4.62,4.62,0,0,0,3.53.79,5.67,5.67,0,0,0,2.47-.8,3.51,3.51,0,0,0,1.41-1.76,5.72,5.72,0,0,0,.25-2.72l-1.48-13,2.53-.29L522.51,462a8.89,8.89,0,0,1-.31,3.94,5.11,5.11,0,0,1-2.06,2.68A9,9,0,0,1,516.11,469.91Z"/><path class="cls-1" d="M526,468.56l-.41-19.83,2.43-.05,10.8,15.19-.33-15.41,2.54,0,.42,19.83-2.27,0-11-15.41.33,15.64Z"/><path class="cls-1" d="M545.07,468.51l.7-19.82,2.54.09-.7,19.82Z"/><path class="cls-1" d="M555.67,469,557,451.53l-6.39-.5.18-2.32,15,1.16-.19,2.33-6-.47-1.35,17.45Z"/><path class="cls-1" d="M570.27,470.52l1.1-8.38L566.15,450l2.75.36,4,9.74,6.33-8.37,2.76.36-8.15,10.43-1.1,8.36Z"/><path class="cls-1" d="M473.58,559.2l-1.18-19.8.58,0c.33,0,.72,0,1.19-.07l1.45-.08,1.38-.06a13.79,13.79,0,0,1,6,.83,7.1,7.1,0,0,1,3.52,3.08,13.76,13.76,0,0,1,.56,10.81,7.44,7.44,0,0,1-3.27,3.57,13.59,13.59,0,0,1-5.87,1.49Zm2.47-2.33,1.74-.1a10.84,10.84,0,0,0,4.17-1,5.54,5.54,0,0,0,2.57-2.64A11.54,11.54,0,0,0,484,544a5.32,5.32,0,0,0-2.81-2.24,10.94,10.94,0,0,0-4.23-.46l-1.85.11Z"/><path class="cls-1" d="M500,556.87a8.5,8.5,0,0,1-4.72-.41,7.71,7.71,0,0,1-3.53-2.91,13,13,0,0,1-2-5.23,13.19,13.19,0,0,1,.11-5.64,7.86,7.86,0,0,1,2.36-3.94,9.24,9.24,0,0,1,9-1.55,7.73,7.73,0,0,1,3.51,2.94A15.09,15.09,0,0,1,506.63,551a7.71,7.71,0,0,1-2.32,3.91A8.55,8.55,0,0,1,500,556.87Zm-.38-2.18a5.66,5.66,0,0,0,2.94-1.35,5.2,5.2,0,0,0,1.51-2.89,12.52,12.52,0,0,0-.09-4.54,12.85,12.85,0,0,0-1.45-4.37,5.4,5.4,0,0,0-2.39-2.27,6.06,6.06,0,0,0-6.14,1.06,5.52,5.52,0,0,0-1.52,2.95,12.51,12.51,0,0,0,.07,4.59,12.28,12.28,0,0,0,1.45,4.31,5.28,5.28,0,0,0,2.41,2.21A5.7,5.7,0,0,0,499.63,554.69Z"/><path class="cls-1" d="M512.6,554.09l-6-18.92,2.32-.73L523.57,546l-4.64-14.71,2.42-.76,6,18.91-2.16.68-14.86-11.7L515,553.32Z"/><path class="cls-1" d="M531.29,547.93l-2.39-21,2.57-1.27,15.25,14.57-2.32,1.15-4.16-4L533,541.05l.65,5.72Zm1.23-9.28,6.05-3-7.29-7.09Z"/><path class="cls-1" d="M553.82,535.43l-10-14.33-5.25,3.67-1.34-1.91,12.29-8.61,1.34,1.91-5,3.47,10,14.34Z"/><path class="cls-1" d="M563.25,528.28l-13-15,1.92-1.66,13,15Z"/><path class="cls-1" d="M574.45,517.83a8.62,8.62,0,0,1-4,2.59,7.86,7.86,0,0,1-4.57-.13,13,13,0,0,1-4.77-2.92,13.17,13.17,0,0,1-3.38-4.5,8,8,0,0,1-.57-4.57,9.24,9.24,0,0,1,6.13-6.75,7.71,7.71,0,0,1,4.57.16,13.26,13.26,0,0,1,4.81,3,13,13,0,0,1,3.36,4.46,7.71,7.71,0,0,1,.58,4.52A8.62,8.62,0,0,1,574.45,517.83Zm-1.64-1.49a5.58,5.58,0,0,0,1.49-2.87,5.17,5.17,0,0,0-.6-3.2,12.32,12.32,0,0,0-2.86-3.52,12.58,12.58,0,0,0-3.83-2.56,5.37,5.37,0,0,0-3.28-.32A5.58,5.58,0,0,0,561,505.6a5.45,5.45,0,0,0-1.45,2.89,5.39,5.39,0,0,0,.61,3.26,12.4,12.4,0,0,0,2.89,3.57,12.18,12.18,0,0,0,3.78,2.5,5.29,5.29,0,0,0,3.27.26A5.5,5.5,0,0,0,572.81,516.34Z"/><path class="cls-1" d="M582.77,507.46,566,496.9l1.29-2,18.63-.67L572.84,486l1.35-2.15L591,494.38l-1.21,1.92-18.9.69,13.24,8.32Z"/></g><g id="P"><path class="cls-2" d="M263.26,149.43s146.32,210.1,96.65,603.82"/><path class="cls-2" d="M325.15,287.36S141.61,232.75,220.21,3C220.21,3,371.57,69.69,325.15,287.36Z"/><path class="cls-2" d="M339,440.71s31.51,60.61,31.23,139"/><path class="cls-2" d="M232.28,305.45S183.06,163.65,3,205.94c0,0,5.55,139.7,217.25,136.21"/><path class="cls-2" d="M135.77,444.92S177.9,386.57,279.19,396"/><path class="cls-2" d="M214.18,399.65s-78.57-32.21-131.1,82.19C83.08,481.84,175.39,487,214.18,399.65Z"/><path class="cls-2" d="M348.37,375.41s4.1-74,56.14-128.63"/><path class="cls-2" d="M378.82,280.92S391.93,66.08,618.19,111.15C618.19,111.15,598.87,287.36,378.82,280.92Z"/><path class="cls-2" d="M591.94,311.1s-6,122.22-203.39,122.22c0,0,17.73-62.89,71.62-100.14"/><path class="cls-2" d="M443.51,387.28s-64.69,20.18-77.19,111.93"/><path class="cls-2" d="M370.2,584.25s24.33-62.5,116.88-79.08"/><path class="cls-2" d="M461.57,549.14c-16.7-.54-35.5-3.06-56.66-8.12,0,0,5.08-20.1,23.73-40.46"/></g></g></svg>