<svg xmlns="http://www.w3.org/2000/svg" viewBox="0 0 229.96 356.62"><defs><style>.cls-1{fill:none;stroke:#8ac447;stroke-miterlimit:10;stroke-width:2px;}</style></defs><title>Asset 1</title><g id="Layer_2" data-name="Layer 2"><g id="Layer_1-2" data-name="Layer 1"><path class="cls-1" d="M91.62,289.46s12.23-9.33,21.31,12.67"/><path class="cls-1" d="M101.42,235.33s-3.59,19.32,2.64,37.93"/><path class="cls-1" d="M90.64,250.77s22.21,22.57,25.82,78.34"/><path class="cls-1" d="M55.17,342.18s22-10.71,33.32-5.91"/><path class="cls-1" d="M60.3,330.22s44.77,2.5,49,26.23"/><path class="cls-1" d="M72.25,320.17s16.16-10.88,25.25-1"/><path class="cls-1" d="M45.8,286.07s22.12-8.64,36.57,3.26"/><path class="cls-1" d="M13.1,280.7S28.59,264,53,273.4"/><path class="cls-1" d="M40.24,321.72s8.12-20.08,27.26-17.35"/><path class="cls-1" d="M61.91,263.85s27-8.45,40.49,8.91"/><path class="cls-1" d="M23.41,252.24s20.72-7.34,41.51-6"/><path class="cls-1" d="M41.89,255.64s26.08-18.3,40.54-4.41"/><path class="cls-1" d="M71.76,218.34S58.21,229.06,67.68,242"/><path class="cls-1" d="M6.84,242.44s19.8-16.76,39.74-8.9"/><path class="cls-1" d="M22.76,310.3s69.07-27.16,85.75,29.5"/><path class="cls-1" d="M.15,266.61c.59-.09,111.5-9.12,109.1,89.84"/><path class="cls-1" d="M19.11,228.31s86.53,4.13,95.79,80.66"/><path class="cls-1" d="M180.93,327.86s-23.86-5.48-33.8,1.73"/><path class="cls-1" d="M173.24,317.37s-43.06,12.49-41.8,36.56"/><path class="cls-1" d="M159.34,310.25s-18.19-7-24.83,4.71"/><path class="cls-1" d="M177.45,271.09s-23.5-3.45-34.9,11.39"/><path class="cls-1" d="M208.1,258.51s-18.83-12.78-40.52,1.84"/><path class="cls-1" d="M190.88,304.57s-12.42-17.74-30.46-10.78"/><path class="cls-1" d="M108.7,180.83s-7.08,11.39,1.07,37.64"/><path class="cls-1" d="M84.79,199.39s31.65,17.76,30.86,57.37"/><path class="cls-1" d="M156.76,253.05s-28.17-2.17-37.45,17.79"/><path class="cls-1" d="M191.67,233.09s-21.84-2.5-41.79,3.51"/><path class="cls-1" d="M174.42,240.56s-29.52-12-40.49,4.81"/><path class="cls-1" d="M136.93,210.92s15.62,7.4,9.29,22.12"/><path class="cls-1" d="M205.61,219.81s-23.06-11.87-40.72.26"/><path class="cls-1" d="M49.19,186.5s2.52-20.18,16.1-22.65"/><path class="cls-1" d="M65.71,190s20.66-16.2,31.41,3.74"/><path class="cls-1" d="M43.48,122.88s-7.91,13.69,2.12,20.84"/><path class="cls-1" d="M47.38,172.13s17.06-17,30.05-2.34"/><path class="cls-1" d="M24.12,169.18s4.36-20.9,19.16-18.67"/><path class="cls-1" d="M82.92,148.09s-11,11.46,3.16,31"/><path class="cls-1" d="M14.26,152.05s37.4-10,57.88,12.63"/><path class="cls-1" d="M24.89,131.42s89,43.1,90.86,118.23"/><path class="cls-1" d="M178,198.31s-3.65-20-17.34-21.71"/><path class="cls-1" d="M161.69,202.69s-21.55-15-31.16,5.5"/><path class="cls-1" d="M180.11,134.48s8.66,13.22-1,20.93"/><path class="cls-1" d="M179,183.86s-18-16-30.13-.65"/><path class="cls-1" d="M202,179.61s-5.53-20.62-20.18-17.56"/><path class="cls-1" d="M142.15,161.86s11.67,10.82-1.41,31.16"/><path class="cls-1" d="M210.92,162s-37.9-7.87-57.08,15.86"/><path class="cls-1" d="M107.31,91.21s-6,12-.26,31.71"/><path class="cls-1" d="M97.69,139.38s17.71,5,19.77,27"/><path class="cls-1" d="M134.61,121s-11.48,5.46-12.82,28.5"/><path class="cls-1" d="M99.72,68.91s13.71-6.6,22.27,8.7"/><path class="cls-1" d="M107.28,38.56s-3,11.38,3.9,21.14"/><path class="cls-1" d="M107.53,83.35s17.62,8.18,16.07,35"/><path class="cls-1" d="M116.88,24.69a29.79,29.79,0,0,1,10.73,24.42"/><path class="cls-1" d="M137.82,56.76s-10,3.3-11.7,18.09"/><path class="cls-1" d="M90.33,41.68S126.8,63.07,124.89,96"/><path class="cls-1" d="M133.83,90.11s14.27,8,10.76,29"/><path class="cls-1" d="M176.3,130s-28.09-4.67-34.36,4.08"/><path class="cls-1" d="M171.65,144s-35.58-7-41.56,18.29"/><path class="cls-1" d="M168.23,88s4.23,8.6-3.14,20.42"/><path class="cls-1" d="M196.84,113.36s-36.94-3.67-48.63,12"/><path class="cls-1" d="M214.75,99.3s-24.93-12-43.62,4.52"/><path class="cls-1" d="M141.31,40.16S164.54,66,154.92,96.05"/><path class="cls-1" d="M208.93,67.69S171,61.76,158,89.92"/><path class="cls-1" d="M158.66,11S179,49.16,164.19,78.54"/><path class="cls-1" d="M228.71,32.57S184.2,41.4,167.88,72.23"/><path class="cls-1" d="M205.34,289.51s-73.4-10.94-76.92,48"/><path class="cls-1" d="M217.56,241.86c-.59,0-110.7,16.18-86.12,112.06"/><path class="cls-1" d="M85.84,75.08s33.59,55.78,33.45,117.37"/><path class="cls-1" d="M190.47,208.81s-83.38,23.47-75.21,100.12"/><path class="cls-1" d="M225.61,78.94S142.53,96.44,128.85,167"/><path class="cls-1" d="M199.16,142s-86.41,48-84.08,123.14"/><line class="cls-1" x1="129" y1="25.25" x2="115.08" y2="265.1"/><path class="cls-1" d="M229.4.83s-140,95-110.61,352.77"/></g></g></svg>