<svg xmlns="http://www.w3.org/2000/svg" viewBox="0 0 135.15 245.84"><defs><style>.cls-1{fill:none;stroke:#8ac447;stroke-linecap:round;stroke-linejoin:round;stroke-width:5px;}</style></defs><title>Asset 1</title><g id="Layer_2" data-name="Layer 2"><g id="S"><path class="cls-1" d="M64.19,243.34c1.3-44.21,9.89-97.82,37.74-142.37"/><path class="cls-1" d="M66.58,209.83S69.37,105.3,44.07,49.39"/><path class="cls-1" d="M44.07,49.39S49.94,19.94,29.21,2.5C29.21,2.5,23.11,27.84,44.07,49.39Z"/><path class="cls-1" d="M83.09,57.28S89.68,35.36,109.86,31A40.62,40.62,0,0,1,83.09,57.28Z"/><path class="cls-1" d="M101.93,101s2.37-22.76,21.4-30.77A40.61,40.61,0,0,1,101.93,101Z"/><path class="cls-1" d="M35.46,122.46s-12.37-19.25-33-17.85A40.62,40.62,0,0,0,35.46,122.46Z"/><path class="cls-1" d="M83.09,57.28s-24.42,24.59-20.9,65.94"/><path class="cls-1" d="M100.35,125.81s11.66-19.69,32.3-19A40.62,40.62,0,0,1,100.35,125.81Z"/><path class="cls-1" d="M100.35,125.81s-9.58,5.82-19,18.37"/><path class="cls-1" d="M35.46,122.87c11.11,7.15,26.62,20.77,30.28,42.51"/><path class="cls-1" d="M45.16,130.17a41.79,41.79,0,0,1,.05-15.41"/><path class="cls-1" d="M69.52,192.27a42,42,0,0,1,11.34-10.43"/><path class="cls-1" d="M53.18,139.08a41.89,41.89,0,0,0-15.4.35"/></g></g></svg>