<svg xmlns="http://www.w3.org/2000/svg" viewBox="0 0 105.95 217.29"><defs><style>.cls-1{fill:none;stroke:#8ac447;stroke-linecap:round;stroke-linejoin:round;stroke-width:5px;}</style></defs><title>Asset 3</title><g id="Layer_2" data-name="Layer 2"><g id="S"><path class="cls-1" d="M32.69,214.79c0-52.59,5.09-124.92,29.09-171.47"/><path class="cls-1" d="M61.71,42.49s15.58-20.94,41.74-19.37C103.45,23.12,86.79,44.9,61.71,42.49Z"/><path class="cls-1" d="M61.71,42.49S61.17,16.39,39,2.5C39,2.5,39.88,29.91,61.71,42.49Z"/><path class="cls-1" d="M44.5,92.41S60.08,71.47,86.24,73C86.24,73,69.58,94.82,44.5,92.41Z"/><path class="cls-1" d="M44.5,92.41s-.54-26.1-22.76-40C21.74,52.42,22.67,79.83,44.5,92.41Z"/><path class="cls-1" d="M36.18,142s12.45-22.94,38.56-25.1C74.74,116.9,61.35,140.83,36.18,142Z"/><path class="cls-1" d="M36.18,142S31.94,116.24,8,105.64C8,105.64,12.79,132.64,36.18,142Z"/><path class="cls-1" d="M33,192.73S43.94,169,69.86,165.18C69.86,165.18,58,189.93,33,192.73Z"/><path class="cls-1" d="M33,192.73S27.1,167.3,2.5,158.28C2.5,158.28,9.05,184.91,33,192.73Z"/></g></g></svg>