<svg xmlns="http://www.w3.org/2000/svg" viewBox="0 0 174.97 285.88"><defs><style>.cls-1{fill:none;stroke:#8ac447;stroke-miterlimit:10;stroke-width:2px;}</style></defs><title>Asset 3</title><g id="Layer_2" data-name="Layer 2"><g id="Layer_1-2" data-name="Layer 1"><path class="cls-1" d="M105.29,232.05s-9.29-7.48-16.2,10.14"/><path class="cls-1" d="M97.85,188.68s2.73,15.48-2,30.38"/><path class="cls-1" d="M106,201.05s-16.88,18.08-19.63,62.76"/><path class="cls-1" d="M133,274.28s-16.74-8.58-25.33-4.74"/><path class="cls-1" d="M129.1,264.7s-34,2-37.21,21"/><path class="cls-1" d="M120,256.65s-12.29-8.72-19.2-.8"/><path class="cls-1" d="M140.12,229.33s-16.82-6.92-27.8,2.61"/><path class="cls-1" d="M165,225s-11.77-13.36-30.33-5.85"/><path class="cls-1" d="M144.35,257.89s-6.17-16.09-20.73-13.9"/><path class="cls-1" d="M127.87,211.53s-20.48-6.77-30.77,7.14"/><path class="cls-1" d="M157.14,202.23s-15.75-5.89-31.55-4.79"/><path class="cls-1" d="M143.09,205s-19.82-14.66-30.81-3.53"/><path class="cls-1" d="M120.39,175.07s10.3,8.59,3.1,18.93"/><path class="cls-1" d="M169.73,194.37s-15-13.42-30.2-7.13"/><path class="cls-1" d="M157.62,248.74S105.14,227,92.46,272.38"/><path class="cls-1" d="M174.81,213.74c-.45-.07-84.74-7.31-82.92,72"/><path class="cls-1" d="M160.4,183.06s-65.76,3.31-72.8,64.61"/><path class="cls-1" d="M37.41,262.81s18.14-4.39,25.69,1.39"/><path class="cls-1" d="M43.26,254.4S76,264.41,75,283.69"/><path class="cls-1" d="M53.83,248.7s13.82-5.58,18.87,3.77"/><path class="cls-1" d="M40.06,217.33s17.86-2.77,26.53,9.13"/><path class="cls-1" d="M16.77,207.25S31.08,197,47.56,208.73"/><path class="cls-1" d="M29.85,244.15S39.3,229.94,53,235.52"/><path class="cls-1" d="M92.31,145s5.38,9.13-.81,30.15"/><path class="cls-1" d="M110.49,159.89a53.33,53.33,0,0,0-23.46,46"/><path class="cls-1" d="M55.79,202.88s21.4-1.75,28.46,14.25"/><path class="cls-1" d="M29.26,186.88s16.59-2,31.76,2.82"/><path class="cls-1" d="M42.36,192.87s22.44-9.59,30.78,3.85"/><path class="cls-1" d="M70.85,169.12s-11.86,5.93-7,17.72"/><path class="cls-1" d="M18.66,176.25s17.53-9.52,31,.2"/><path class="cls-1" d="M137.54,149.56s-1.92-16.17-12.24-18.15"/><path class="cls-1" d="M125,152.33s-15.71-13-23.88,3"/><path class="cls-1" d="M141.88,98.6s6,11-1.61,16.69"/><path class="cls-1" d="M138.92,138.05s-13-13.59-22.84-1.88"/><path class="cls-1" d="M156.6,135.69s-3.32-16.75-14.57-15"/><path class="cls-1" d="M111.91,118.79s8.39,9.18-2.4,24.86"/><path class="cls-1" d="M164.09,122s-28.43-8-44,10.12"/><path class="cls-1" d="M156,105.43S88.4,140,87,200.15"/><path class="cls-1" d="M39.66,159s2.77-16,13.18-17.39"/><path class="cls-1" d="M52,162.53s16.38-12,23.68,4.41"/><path class="cls-1" d="M38,107.89s-6.58,10.59.72,16.76"/><path class="cls-1" d="M38.9,147.45s13.67-12.8,22.9-.52"/><path class="cls-1" d="M21.37,144S25.58,127.52,36.71,130"/><path class="cls-1" d="M66.89,129.82s-8.87,8.67,1.07,25"/><path class="cls-1" d="M14.63,129.9s28.8-6.3,43.37,12.71"/><path class="cls-1" d="M93.37,73.22s4.59,9.62.2,25.41"/><path class="cls-1" d="M100.68,111.81s-13.46,4-15,21.66"/><path class="cls-1" d="M72.62,97s8.73,4.38,9.75,22.84"/><path class="cls-1" d="M99.14,55.35s-10.42-5.28-16.93,7"/><path class="cls-1" d="M93.39,31s2.3,9.11-3,16.94"/><path class="cls-1" d="M93.2,66.92S79.81,73.47,81,94.94"/><path class="cls-1" d="M86.1,19.93a24.3,24.3,0,0,0-8.16,19.56"/><path class="cls-1" d="M70.18,45.62s7.63,2.65,8.89,14.49"/><path class="cls-1" d="M106.28,33.54S78.56,50.68,80,77.07"/><path class="cls-1" d="M73.21,72.34S62.37,78.77,65,95.57"/><path class="cls-1" d="M40.94,104.31s21.35-3.74,26.11,3.28"/><path class="cls-1" d="M44.47,115.55s27-5.59,31.59,14.65"/><path class="cls-1" d="M47.07,70.68S43.85,77.57,49.45,87"/><path class="cls-1" d="M25.33,91s28.07-3,37,9.6"/><path class="cls-1" d="M11.71,79.71s19-9.66,33.15,3.62"/><path class="cls-1" d="M67.53,32.33S49.87,53,57.19,77.1"/><path class="cls-1" d="M16.14,54.38S45,49.63,54.83,72.19"/><path class="cls-1" d="M54.35,9S38.86,39.54,50.14,63.07"/><path class="cls-1" d="M1.1,26.24S34.93,33.31,47.34,58"/><path class="cls-1" d="M18.86,232.09s55.79-8.77,58.47,38.47"/><path class="cls-1" d="M9.58,193.91c.45,0,84.13,13,65.45,89.78"/><path class="cls-1" d="M109.68,60.3s-25.52,44.69-25.42,94"/><path class="cls-1" d="M30.16,167.43s63.37,18.81,57.17,80.21"/><path class="cls-1" d="M3.46,63.39S66.6,77.41,77,134"/><path class="cls-1" d="M23.57,113.88s65.67,38.47,63.9,98.65"/><line class="cls-1" x1="76.89" y1="20.38" x2="87.47" y2="212.53"/><path class="cls-1" d="M.58.81S107,76.89,84.64,283.43"/></g></g></svg>