<svg xmlns="http://www.w3.org/2000/svg" viewBox="0 0 154.36 247.44"><defs><style>.cls-1{fill:none;stroke:#8ac447;stroke-linecap:round;stroke-linejoin:round;stroke-width:5px;}</style></defs><title>Asset 4</title><g id="Layer_2" data-name="Layer 2"><g id="S"><path class="cls-1" d="M55.42,244.94c7.5-43.41,23.47-94.86,57-134.82"/><path class="cls-1" d="M62.29,213s17.29-103.13,0-162"/><path class="cls-1" d="M62.29,51S72.2,22.65,54.1,2.5C54.1,2.5,44.53,26.75,62.29,51Z"/><path class="cls-1" d="M99.84,64.23S109.41,43.45,130,42A40.63,40.63,0,0,1,99.84,64.23Z"/><path class="cls-1" d="M28,184.19S22.45,162,2.5,156.69A40.61,40.61,0,0,0,28,184.19Z"/><path class="cls-1" d="M112.42,110.12s5.52-22.2,25.47-27.5A40.61,40.61,0,0,1,112.42,110.12Z"/><path class="cls-1" d="M32.79,114.74S23.22,94,2.63,92.48A40.63,40.63,0,0,0,32.79,114.74Z"/><path class="cls-1" d="M99.84,64.23s-27.6,21-29.87,62.41"/><path class="cls-1" d="M114.51,141.77s20.93-9.26,37.35,3.26A40.63,40.63,0,0,1,114.51,141.77Z"/><path class="cls-1" d="M114.51,141.77s-11.17-.82-26.17,3.91"/><path class="cls-1" d="M45.13,198.06s-4.21-22.49,11.74-35.6A40.63,40.63,0,0,1,45.13,198.06Z"/><path class="cls-1" d="M45.13,198.06A63.31,63.31,0,0,0,43,210.37"/><path class="cls-1" d="M32.79,114.74s33.87,18.87,34.85,54.14"/><path class="cls-1" d="M28,184.19c11.51,16.16,17.94,30.37,27.45,60.75"/><path class="cls-1" d="M52.15,131.14a41.77,41.77,0,0,1,2.19-15.25"/><path class="cls-1" d="M67.64,196a41.8,41.8,0,0,1,12.68-8.75"/><path class="cls-1" d="M58.85,141.08a41.84,41.84,0,0,0-15.3-1.79"/></g></g></svg>