<svg xmlns="http://www.w3.org/2000/svg" viewBox="0 0 105.95 217.29"><defs><style>.cls-1{fill:none;stroke:#8ac447;stroke-linecap:round;stroke-linejoin:round;stroke-width:5px;}</style></defs><title>Asset 5</title><g id="Layer_2" data-name="Layer 2"><g id="S"><path class="cls-1" d="M73.26,214.79c0-52.59-5.09-124.92-29.1-171.47"/><path class="cls-1" d="M44.24,42.49S28.65,21.55,2.5,23.12C2.5,23.12,19.16,44.9,44.24,42.49Z"/><path class="cls-1" d="M44.24,42.49s.54-26.1,22.75-40C67,2.5,66.06,29.91,44.24,42.49Z"/><path class="cls-1" d="M61.45,92.41S45.86,71.47,19.71,73C19.71,73,36.37,94.82,61.45,92.41Z"/><path class="cls-1" d="M61.45,92.41s.54-26.1,22.75-40C84.2,52.42,83.27,79.83,61.45,92.41Z"/><path class="cls-1" d="M69.77,142S57.32,119.06,31.2,116.9C31.2,116.9,44.6,140.83,69.77,142Z"/><path class="cls-1" d="M69.77,142S74,116.24,98,105.64C98,105.64,93.16,132.64,69.77,142Z"/><path class="cls-1" d="M72.94,192.73S62,169,36.09,165.18C36.09,165.18,47.91,189.93,72.94,192.73Z"/><path class="cls-1" d="M72.94,192.73s5.91-25.43,30.51-34.45C103.45,158.28,96.89,184.91,72.94,192.73Z"/></g></g></svg>