<svg xmlns="http://www.w3.org/2000/svg" viewBox="0 0 247.36 154.5"><defs><style>.cls-1{fill:none;stroke:#1e9b9b;stroke-miterlimit:10;stroke-width:2px;}.cls-2{fill:#1e9b9b;}</style></defs><title>Asset 13</title><g id="Layer_2" data-name="Layer 2"><g id="Layer_1-2" data-name="Layer 1"><path class="cls-1" d="M221.09,148.75a43.82,43.82,0,0,1-24.8,7.66H56.53A55.53,55.53,0,1,1,65.06,46,49.18,49.18,0,0,1,93.24,14" transform="translate(0 -2.9)"/><path class="cls-2" d="M101.06,18.51l-2.29-14,5-.81a6.57,6.57,0,0,1,2.39,0,3.23,3.23,0,0,1,1.66.92,3.48,3.48,0,0,1,.82,1.85,3.47,3.47,0,0,1-1.11,3.37,5,5,0,0,1-1.27.82l4,6.37-.88.15-3.92-6.22-4.71.77,1.08,6.67Zm-.46-7.59,3.53-.58a5.86,5.86,0,0,0,3-1.19,2.52,2.52,0,0,0,.69-2.43,2.56,2.56,0,0,0-1.25-2,4.49,4.49,0,0,0-2.72-.24l-4.17.68Z" transform="translate(0 -2.9)"/><path class="cls-2" d="M112.09,17.06,113.36,2.9l8.13.73-.08.79-7.36-.66-.52,5.81,6.85.62-.07.8-6.85-.62-.53,5.94,7.63.7-.07.8Z" transform="translate(0 -2.9)"/><path class="cls-2" d="M122.05,18.14l4.83-13.37.21.08.49.19.7.25.81.3a10.3,10.3,0,0,1,3.75,2.17,4.87,4.87,0,0,1,1.47,3,8.9,8.9,0,0,1-.62,3.94,8.88,8.88,0,0,1-2.17,3.57,5.17,5.17,0,0,1-3.18,1.36,10.7,10.7,0,0,1-4.33-.75Zm1.07-.47,1.11.4a10.35,10.35,0,0,0,3.82.72,4.38,4.38,0,0,0,2.85-1.1,7.61,7.61,0,0,0,2-3.23,7.61,7.61,0,0,0,.54-3.85A4.28,4.28,0,0,0,131.9,8a10.73,10.73,0,0,0-3.28-1.77l-1.22-.44Z" transform="translate(0 -2.9)"/><path class="cls-2" d="M136.34,25.13a5.87,5.87,0,0,1-1.86-2,3.31,3.31,0,0,1-.32-2.21,6.47,6.47,0,0,1,1.19-2.54l5.51-7.75.69.49-5.71,8A3.89,3.89,0,0,0,135,22a3.93,3.93,0,0,0,1.8,2.48,5.2,5.2,0,0,0,2,.92,2.82,2.82,0,0,0,1.81-.28,4.48,4.48,0,0,0,1.58-1.46l5.71-8,.62.44-5.68,8a5.68,5.68,0,0,1-1.91,1.79,3.3,3.3,0,0,1-2.16.33A5.87,5.87,0,0,1,136.34,25.13Z" transform="translate(0 -2.9)"/><path class="cls-2" d="M144.6,32.87A5.59,5.59,0,0,1,143.28,30a5,5,0,0,1,.69-3,10.89,10.89,0,0,1,2.71-3,11.09,11.09,0,0,1,3.53-2,5.11,5.11,0,0,1,3.11-.08,5.46,5.46,0,0,1,2.6,1.87,4.89,4.89,0,0,1,1,4.63,4.73,4.73,0,0,1-1.12,1.9l-.55-.68a4.73,4.73,0,0,0,.88-1.62,3.84,3.84,0,0,0,.12-1.85,4.07,4.07,0,0,0-.91-1.87,4.61,4.61,0,0,0-2.24-1.6,4.33,4.33,0,0,0-2.69.14,10.56,10.56,0,0,0-3.15,1.88,8.14,8.14,0,0,0-3,4,4.18,4.18,0,0,0,1,3.8,4.23,4.23,0,0,0,1.65,1.27,3.85,3.85,0,0,0,1.83.26,4.73,4.73,0,0,0,1.76-.53L151,34a4.35,4.35,0,0,1-1.52.62,5.16,5.16,0,0,1-1.71.05,4.83,4.83,0,0,1-1.69-.57A5,5,0,0,1,144.6,32.87Z" transform="translate(0 -2.9)"/><path class="cls-2" d="M153,45.78l-.05-14.21,8.16,0v.79l-7.39,0,0,5.83,6.88,0V39l-6.88,0,0,6h7.67v.8Z" transform="translate(0 -2.9)"/><path class="cls-2" d="M166.85,47.32a6.61,6.61,0,0,1-1.73-.75,5.15,5.15,0,0,1-1.29-1.11,4.18,4.18,0,0,1-.77-1.42,4.27,4.27,0,0,1-.14-1.69l.83.25a3.32,3.32,0,0,0,.36,1.78,4.1,4.1,0,0,0,1.2,1.36,5.69,5.69,0,0,0,1.75.85,5.43,5.43,0,0,0,2.08.21,3.44,3.44,0,0,0,1.69-.62,2.56,2.56,0,0,0,1-1.4,2.44,2.44,0,0,0-.1-1.73,4,4,0,0,0-1.58-1.57l-2.8-1.78a7,7,0,0,1-1.3-1.06,3,3,0,0,1-.75-1.33,3.18,3.18,0,0,1,.08-1.74,3.24,3.24,0,0,1,1.11-1.68,4,4,0,0,1,1.93-.81,5.62,5.62,0,0,1,2.38.19,5.49,5.49,0,0,1,2.37,1.3,4.15,4.15,0,0,1,1.12,1.88,3.6,3.6,0,0,1,0,1.93l-.83-.24a3.31,3.31,0,0,0-.14-2,3.2,3.2,0,0,0-1.1-1.34,5.54,5.54,0,0,0-1.64-.79,4,4,0,0,0-2.87.06,2.69,2.69,0,0,0-1.51,1.74,2.14,2.14,0,0,0,.17,1.82,4.91,4.91,0,0,0,1.52,1.43l2.86,1.8a4.78,4.78,0,0,1,1.48,1.34,2.94,2.94,0,0,1,.54,1.42,3.69,3.69,0,0,1-.13,1.4,3.43,3.43,0,0,1-1.1,1.7,4,4,0,0,1-2,.86A6.1,6.1,0,0,1,166.85,47.32Z" transform="translate(0 -2.9)"/><path class="cls-2" d="M182.25,56.48a5.5,5.5,0,0,1-1.6-2.78,5,5,0,0,1,.39-3.06A12.86,12.86,0,0,1,186.76,45a5.13,5.13,0,0,1,3.09-.39,5.48,5.48,0,0,1,2.77,1.62,4.9,4.9,0,0,1,1.4,4.51,4.63,4.63,0,0,1-.93,2l-.61-.61a4.82,4.82,0,0,0,.72-1.7,3.87,3.87,0,0,0-.07-1.85,4.06,4.06,0,0,0-1.08-1.78,4.61,4.61,0,0,0-2.38-1.37,4.3,4.3,0,0,0-2.67.4A10.6,10.6,0,0,0,184.05,48a8.13,8.13,0,0,0-2.62,4.27,4.17,4.17,0,0,0,1.39,3.67A4.08,4.08,0,0,0,184.58,57a4,4,0,0,0,1.85.08,4.78,4.78,0,0,0,1.7-.7l.61.61a4.27,4.27,0,0,1-1.45.76,4.83,4.83,0,0,1-1.7.23,5,5,0,0,1-1.74-.41A4.92,4.92,0,0,1,182.25,56.48Z" transform="translate(0 -2.9)"/><path class="cls-2" d="M188.65,65.33A5.62,5.62,0,0,1,188,62.2a5.3,5.3,0,0,1,1.3-2.89,10,10,0,0,1,3.25-2.42,10.29,10.29,0,0,1,3.91-1.17,5.33,5.33,0,0,1,3.11.69,6.12,6.12,0,0,1,2.77,5.51A5.32,5.32,0,0,1,201,64.79a10.3,10.3,0,0,1-3.29,2.42,10.07,10.07,0,0,1-3.87,1.17,5.3,5.3,0,0,1-3.08-.67A5.51,5.51,0,0,1,188.65,65.33Zm.72-.36a4.77,4.77,0,0,0,1.83,2.08,4.26,4.26,0,0,0,2.65.51,10.26,10.26,0,0,0,3.48-1.12,10.13,10.13,0,0,0,3-2.14,4.44,4.44,0,0,0,1.19-2.45,4.67,4.67,0,0,0-.55-2.7,4.78,4.78,0,0,0-1.84-2.06,4.48,4.48,0,0,0-2.69-.53,9.54,9.54,0,0,0-3.51,1.11,9.71,9.71,0,0,0-3,2.13,4.45,4.45,0,0,0-1.17,2.47A4.85,4.85,0,0,0,189.37,65Z" transform="translate(0 -2.9)"/><path class="cls-2" d="M197.34,77l1.36-1c1.78-1.29,2.72-2.12,2.83-3.11a1.34,1.34,0,0,0-1.33-1.54,3.07,3.07,0,0,0-1.71.43l-.32-.92a3.77,3.77,0,0,1,2.48-.56A2.31,2.31,0,0,1,203,72.73c-.17,1.47-1.4,2.42-3,3.57l-.66.48v0l3.35.36-.12,1.08-5.28-.58Z" transform="translate(0 -2.9)"/><path class="cls-2" d="M203.75,75.91l4.32-13.54,7.77,2.48-.24.75-7-2.25-1.77,5.57L213.34,71l-.24.77-6.56-2.1-1.81,5.68,7.3,2.35-.24.76Z" transform="translate(0 -2.9)"/><path class="cls-2" d="M216.29,81l9-11,3.08,2.53a6.32,6.32,0,0,1,2.27,3.08,3.17,3.17,0,0,1-.71,3,3.24,3.24,0,0,1-1.79,1.18,4.05,4.05,0,0,1-2.49-.39,5,5,0,0,1,.8,1.2,3.29,3.29,0,0,1,.31,1.18,2.86,2.86,0,0,1-.18,1.15,4,4,0,0,1-.66,1.12,3.23,3.23,0,0,1-2.89,1.31,7,7,0,0,1-3.63-1.76Zm1.1-.14,2.46,2a7.42,7.42,0,0,0,3.09,1.7,2.31,2.31,0,0,0,2.33-1,2.71,2.71,0,0,0,.71-1.79,3.31,3.31,0,0,0-.61-1.77,7.84,7.84,0,0,0-1.51-1.62l-2.68-2.2Zm4.31-5.24,2.67,2.2a8.66,8.66,0,0,0,1.13.78,4.57,4.57,0,0,0,1.28.49,2.43,2.43,0,0,0,1.31-.05,2.53,2.53,0,0,0,1.2-.87,2.44,2.44,0,0,0,.52-2.52,6.16,6.16,0,0,0-2-2.54l-2.43-2Z" transform="translate(0 -2.9)"/><path class="cls-2" d="M226.1,90.48l5-3.51,3.9-8.54.49.71L232,86.84l8.41-.73.48.69-9.32.8-5,3.5Z" transform="translate(0 -2.9)"/><path class="cls-2" d="M232.51,104.94l11.74-2.36-.58-2.9.75-.15a10.12,10.12,0,0,0,.53,1.93,1.34,1.34,0,0,0,.64.78,1.52,1.52,0,0,0,.89.05l.13.67-13.93,2.81Z" transform="translate(0 -2.9)"/><path class="cls-2" d="M233.1,108.81l1.51-.1.08,1.18-1.51.1Z" transform="translate(0 -2.9)"/><path class="cls-2" d="M233.19,114.67l11.94.77.19-2.94.77,0a9.85,9.85,0,0,0,0,2,1.39,1.39,0,0,0,.41.92,1.51,1.51,0,0,0,.85.27l-.05.69-14.18-.91Z" transform="translate(0 -2.9)"/><path class="cls-2" d="M232.14,122.47,245.23,128l-.31.74-7.55-3.18L242,135.69l-.42,1-3.2-7-10,1.74.38-.9,9.33-1.59-1.75-3.81-4.5-1.9Z" transform="translate(0 -2.9)"/><path class="cls-2" d="M224.51,135.88a5.53,5.53,0,0,1,2.62-1.79,5.12,5.12,0,0,1,3.11.1,12.37,12.37,0,0,1,6.1,5.2,5.3,5.3,0,0,1,.63,3.09,5.43,5.43,0,0,1-1.34,2.88,4.57,4.57,0,0,1-1.38,1.08,5.32,5.32,0,0,1-3.46.53,4,4,0,0,1-1.56-.65l.56-.66a4,4,0,0,0,1.74.55,4.38,4.38,0,0,0,1.89-.26,3.6,3.6,0,0,0,1.59-1.12,4.33,4.33,0,0,0,.57-5.13,9.53,9.53,0,0,0-2.38-2.8,10.49,10.49,0,0,0-2.39-1.6,5.91,5.91,0,0,0-2.18-.58,4,4,0,0,0-1.92.38,5,5,0,0,0-1.62,1.28,4.43,4.43,0,0,0-1,1.77,4.12,4.12,0,0,0-.07,1.74,4.61,4.61,0,0,0,.55,1.52,4.38,4.38,0,0,0,.91,1.13l1.26,1.07,2.58-3,.52.45-3.07,3.6L221.3,140l.5-.58,1.88,1.6a5.24,5.24,0,0,1-.38-1.63,4.58,4.58,0,0,1,.22-1.74A5.13,5.13,0,0,1,224.51,135.88Z" transform="translate(0 -2.9)"/><path class="cls-2" d="M37,82.69a7,7,0,0,1-3.94-1,6.35,6.35,0,0,1-2.41-3.1,13.76,13.76,0,0,1-.82-5.1,14,14,0,0,1,.82-5.12A6.48,6.48,0,0,1,33,65.2,7,7,0,0,1,37,64.14a6.23,6.23,0,0,1,5.32,2.77,5.78,5.78,0,0,1,1,2.62h-1.1a6,6,0,0,0-.89-2.16,4.84,4.84,0,0,0-1.73-1.6A5.09,5.09,0,0,0,37,65.16a5.87,5.87,0,0,0-3.37.92,5.48,5.48,0,0,0-2,2.76,13.53,13.53,0,0,0-.67,4.61q0,4.17,1.51,6.19a5.33,5.33,0,0,0,4.56,2,5.19,5.19,0,0,0,2.57-.6,4.9,4.9,0,0,0,1.73-1.59,6.08,6.08,0,0,0,.89-2.17h1.1a5.6,5.6,0,0,1-.61,2,6.26,6.26,0,0,1-3.24,2.94A6.42,6.42,0,0,1,37,82.69Z" transform="translate(0 -2.9)"/><path class="cls-2" d="M53.13,82.69a7.15,7.15,0,0,1-3.92-1,6.75,6.75,0,0,1-2.55-3.12,12.82,12.82,0,0,1-.89-5.07,13,13,0,0,1,.89-5.1,6.76,6.76,0,0,1,2.55-3.14,7.73,7.73,0,0,1,7.83,0,6.71,6.71,0,0,1,2.51,3.13,13.09,13.09,0,0,1,.88,5.12,12.83,12.83,0,0,1-.88,5.07A6.71,6.71,0,0,1,57,81.63,7,7,0,0,1,53.13,82.69Zm0-1a6.12,6.12,0,0,0,3.41-.9A5.48,5.48,0,0,0,58.62,78a12.87,12.87,0,0,0,.71-4.59,12.79,12.79,0,0,0-.72-4.63,5.67,5.67,0,0,0-2.1-2.75,6.72,6.72,0,0,0-6.77,0,5.71,5.71,0,0,0-2.14,2.76,12.52,12.52,0,0,0-.73,4.61,12.42,12.42,0,0,0,.73,4.6,5.65,5.65,0,0,0,2.14,2.72A6.12,6.12,0,0,0,53.13,81.67Z" transform="translate(0 -2.9)"/><path class="cls-2" d="M63.12,85.19l1.58-1.47c2.07-1.88,3.15-3,3.15-4.32A1.7,1.7,0,0,0,66,77.65a3.83,3.83,0,0,0-2.1.77l-.53-1.12a4.83,4.83,0,0,1,3.05-1c2.35,0,3.32,1.47,3.32,2.82,0,1.87-1.42,3.25-3.32,4.92l-.77.7v0h4.27v1.38H63.12Z" transform="translate(0 -2.9)"/><path class="cls-2" d="M72.84,82.44v-18H83.2v1H73.81V72.8h8.74v1H73.81v7.56l9.74,0v1Z" transform="translate(0 -2.9)"/><path class="cls-2" d="M78.23,109.61a7,7,0,0,1-3.93-1,6.37,6.37,0,0,1-2.42-3.1,13.91,13.91,0,0,1-.81-5.1,14.17,14.17,0,0,1,.81-5.12,6.5,6.5,0,0,1,2.42-3.13,7,7,0,0,1,3.93-1.06,6.23,6.23,0,0,1,5.33,2.77,5.94,5.94,0,0,1,1,2.62h-1.1a6.21,6.21,0,0,0-.89-2.16,5,5,0,0,0-1.73-1.6,5.13,5.13,0,0,0-2.58-.61,5.87,5.87,0,0,0-3.37.92,5.47,5.47,0,0,0-2,2.76,13.57,13.57,0,0,0-.67,4.61q0,4.17,1.51,6.19a5.3,5.3,0,0,0,4.55,2,5.23,5.23,0,0,0,2.58-.6,5,5,0,0,0,1.73-1.59,6.26,6.26,0,0,0,.89-2.17h1.1a5.55,5.55,0,0,1-.62,2A6.13,6.13,0,0,1,82.6,108a6.25,6.25,0,0,1-1.93,1.21A6.39,6.39,0,0,1,78.23,109.61Z" transform="translate(0 -2.9)"/><path class="cls-2" d="M94.39,109.61a7.21,7.21,0,0,1-3.93-1,6.69,6.69,0,0,1-2.54-3.12,12.64,12.64,0,0,1-.9-5.07,12.79,12.79,0,0,1,.9-5.1,6.79,6.79,0,0,1,2.54-3.14,7.75,7.75,0,0,1,7.84,0,6.71,6.71,0,0,1,2.51,3.13,13.29,13.29,0,0,1,.87,5.12,13,13,0,0,1-.87,5.07,6.66,6.66,0,0,1-2.51,3.11A7,7,0,0,1,94.39,109.61Zm0-1a6.09,6.09,0,0,0,3.4-.9A5.49,5.49,0,0,0,99.88,105a12.88,12.88,0,0,0,.7-4.59,13,13,0,0,0-.71-4.63A5.67,5.67,0,0,0,97.77,93,6.74,6.74,0,0,0,91,93a5.7,5.7,0,0,0-2.13,2.76,12.54,12.54,0,0,0-.74,4.61,12.41,12.41,0,0,0,.74,4.6A5.63,5.63,0,0,0,91,107.69,6.18,6.18,0,0,0,94.39,108.59Z" transform="translate(0 -2.9)"/><path class="cls-2" d="M104.38,112.11l1.57-1.47c2.08-1.87,3.15-3,3.15-4.32a1.7,1.7,0,0,0-1.9-1.75,3.89,3.89,0,0,0-2.1.77l-.52-1.12a4.81,4.81,0,0,1,3-1c2.35,0,3.32,1.47,3.32,2.82,0,1.88-1.42,3.25-3.32,4.92l-.78.7v0h4.27V113h-6.74Z" transform="translate(0 -2.9)"/><path class="cls-2" d="M114.09,109.36v-18h10.37v1h-9.39v7.41h8.74v1h-8.74v7.57l9.74,0v1Z" transform="translate(0 -2.9)"/><path class="cls-2" d="M124.68,138.18a7,7,0,0,1-3.93-1,6.37,6.37,0,0,1-2.42-3.1,14,14,0,0,1-.81-5.1,14.17,14.17,0,0,1,.81-5.12,6.5,6.5,0,0,1,2.42-3.13,7,7,0,0,1,3.93-1.06A6.23,6.23,0,0,1,130,122.4a5.9,5.9,0,0,1,1,2.62h-1.1a6.21,6.21,0,0,0-.89-2.16,4.92,4.92,0,0,0-1.73-1.6,5.13,5.13,0,0,0-2.58-.61,5.89,5.89,0,0,0-3.37.92,5.47,5.47,0,0,0-2,2.76,13.57,13.57,0,0,0-.67,4.61q0,4.17,1.51,6.19a5.3,5.3,0,0,0,4.55,2,5.23,5.23,0,0,0,2.58-.6A5,5,0,0,0,129,135a6.26,6.26,0,0,0,.89-2.17H131a5.61,5.61,0,0,1-.62,2,6.13,6.13,0,0,1-1.31,1.73,6.25,6.25,0,0,1-1.93,1.21A6.39,6.39,0,0,1,124.68,138.18Z" transform="translate(0 -2.9)"/><path class="cls-2" d="M140.84,138.18a7.21,7.21,0,0,1-3.93-1.05,6.74,6.74,0,0,1-2.54-3.12,12.64,12.64,0,0,1-.9-5.07,12.79,12.79,0,0,1,.9-5.1,6.74,6.74,0,0,1,2.54-3.14,7.75,7.75,0,0,1,7.84,0,6.71,6.71,0,0,1,2.51,3.13,13.29,13.29,0,0,1,.87,5.12,13,13,0,0,1-.87,5.07,6.71,6.71,0,0,1-2.51,3.11A7,7,0,0,1,140.84,138.18Zm0-1a6.09,6.09,0,0,0,3.4-.9,5.49,5.49,0,0,0,2.09-2.73,15.43,15.43,0,0,0,0-9.22,5.67,5.67,0,0,0-2.1-2.75,6.74,6.74,0,0,0-6.78,0,5.7,5.7,0,0,0-2.13,2.76,12.54,12.54,0,0,0-.74,4.61,12.41,12.41,0,0,0,.74,4.6,5.63,5.63,0,0,0,2.13,2.72A6.18,6.18,0,0,0,140.84,137.16Z" transform="translate(0 -2.9)"/><path class="cls-2" d="M150.83,140.68l1.57-1.47c2.08-1.88,3.15-3.05,3.15-4.32a1.7,1.7,0,0,0-1.9-1.75,3.89,3.89,0,0,0-2.1.77l-.52-1.12a4.81,4.81,0,0,1,3.05-1c2.35,0,3.32,1.47,3.32,2.82,0,1.88-1.42,3.25-3.32,4.92l-.78.7v0h4.27v1.38h-6.74Z" transform="translate(0 -2.9)"/><path class="cls-2" d="M160.55,137.93V119.88h10.36v1h-9.39v7.41h8.74v1h-8.74v7.56l9.74,0v1Z" transform="translate(0 -2.9)"/><path class="cls-2" d="M31.88,135.16a7.08,7.08,0,0,1-3.93-1,6.42,6.42,0,0,1-2.42-3.1,14,14,0,0,1-.81-5.1,14.14,14.14,0,0,1,.81-5.12A6.5,6.5,0,0,1,28,117.67a6.93,6.93,0,0,1,3.93-1.06,6.17,6.17,0,0,1,5.33,2.77,5.9,5.9,0,0,1,1,2.62h-1.1a6.17,6.17,0,0,0-.9-2.17,4.87,4.87,0,0,0-1.72-1.59,5.13,5.13,0,0,0-2.58-.61,5.87,5.87,0,0,0-3.37.92,5.47,5.47,0,0,0-2,2.76,13.51,13.51,0,0,0-.68,4.61c0,2.77.51,4.84,1.52,6.19a5.3,5.3,0,0,0,4.55,2,5.23,5.23,0,0,0,2.58-.6A4.87,4.87,0,0,0,36.18,132a6.17,6.17,0,0,0,.9-2.17h1.1a5.61,5.61,0,0,1-.62,2,6.17,6.17,0,0,1-3.24,2.94A6.39,6.39,0,0,1,31.88,135.16Z" transform="translate(0 -2.9)"/><path class="cls-2" d="M48,135.16a7.21,7.21,0,0,1-3.93-1A6.79,6.79,0,0,1,41.57,131a12.64,12.64,0,0,1-.9-5.07,12.88,12.88,0,0,1,.9-5.11,6.84,6.84,0,0,1,2.54-3.14A7.13,7.13,0,0,1,48,116.61,7,7,0,0,1,52,117.67a6.71,6.71,0,0,1,2.51,3.13,13.26,13.26,0,0,1,.87,5.12,12.94,12.94,0,0,1-.87,5.06A6.73,6.73,0,0,1,52,134.1,7,7,0,0,1,48,135.16Zm0-1a6.09,6.09,0,0,0,3.4-.9,5.49,5.49,0,0,0,2.09-2.73,12.88,12.88,0,0,0,.7-4.59,13,13,0,0,0-.71-4.63,5.67,5.67,0,0,0-2.1-2.75,6,6,0,0,0-3.38-.91,6.1,6.1,0,0,0-3.4.92,5.7,5.7,0,0,0-2.13,2.76,14.7,14.7,0,0,0,0,9.21,5.63,5.63,0,0,0,2.13,2.72A6.18,6.18,0,0,0,48,134.14Z" transform="translate(0 -2.9)"/><path class="cls-2" d="M58,137.66l1.57-1.47c2.08-1.88,3.15-3.05,3.15-4.33a1.69,1.69,0,0,0-1.9-1.74,3.89,3.89,0,0,0-2.1.77l-.52-1.12a4.81,4.81,0,0,1,3.05-1.05c2.35,0,3.32,1.47,3.32,2.82,0,1.87-1.42,3.25-3.32,4.92l-.78.7v.05h4.27v1.37H58Z" transform="translate(0 -2.9)"/><path class="cls-2" d="M67.74,134.91v-18H78.11v1H68.72v7.41h8.74v1H68.72v7.56l9.74,0v1Z" transform="translate(0 -2.9)"/></g></g></svg>