<svg xmlns="http://www.w3.org/2000/svg" viewBox="0 0 379.02 185.24"><defs><style>.cls-1{fill:#fff;}.cls-2{fill:none;stroke:#fff;stroke-linecap:round;stroke-linejoin:round;stroke-width:5px;}</style></defs><title>Asset 1</title><g id="Layer_2" data-name="Layer 2"><g id="CLOUDS"><path class="cls-1" d="M54.23,172.56V125.85H43v-6.08a31.59,31.59,0,0,0,8.45-.91A8.9,8.9,0,0,0,56,116.2a7.5,7.5,0,0,0,1.66-4.28h7v60.64Z" transform="translate(0 -3.62)"/><path class="cls-1" d="M75.37,172.56V160.82H86.9v11.74Z" transform="translate(0 -3.62)"/><path class="cls-1" d="M103.55,172.56V125.85H92.31v-6.08a31.59,31.59,0,0,0,8.45-.91,8.94,8.94,0,0,0,4.57-2.66,7.5,7.5,0,0,0,1.66-4.28h7v60.64Z" transform="translate(0 -3.62)"/><path class="cls-1" d="M134,172.56v-25.3h3.91V160l10.76-12.69h4.41l-8.26,9.91,9,15.39h-4.17l-7.57-12.66-4.2,4.88v7.78Z" transform="translate(0 -3.62)"/><path class="cls-1" d="M166.34,172.92a10.75,10.75,0,0,1-5.82-1.54,10,10,0,0,1-3.78-4.44,16.69,16.69,0,0,1-1.32-7,16.49,16.49,0,0,1,1.36-7,10.09,10.09,0,0,1,3.86-4.49,10.89,10.89,0,0,1,5.88-1.56,10.14,10.14,0,0,1,3.73.68,10.36,10.36,0,0,1,3.05,1.86,9.14,9.14,0,0,1,2.09,2.66,8,8,0,0,1,.88,3.11h-4a6.21,6.21,0,0,0-1-2.49,6.07,6.07,0,0,0-2-1.85,5.55,5.55,0,0,0-2.76-.7,6.2,6.2,0,0,0-6.08,4.18,14.73,14.73,0,0,0-.89,5.54,16.15,16.15,0,0,0,.55,4.49,8.15,8.15,0,0,0,1.52,3,5.7,5.7,0,0,0,2.26,1.66,7.44,7.44,0,0,0,2.76.52,6,6,0,0,0,2.55-.51,5.64,5.64,0,0,0,1.85-1.32,6.16,6.16,0,0,0,1.16-1.74,5.2,5.2,0,0,0,.46-1.81l.14-2.05h-5.92v-2.69l9.82,0v13.08h-2.71v-3.71a10.05,10.05,0,0,1-1.66,2,7.89,7.89,0,0,1-2.45,1.52A9.3,9.3,0,0,1,166.34,172.92Z" transform="translate(0 -3.62)"/><path class="cls-1" d="M199.43,172.84a8.26,8.26,0,0,1-4.56-1.22,7.73,7.73,0,0,1-2.88-3.51,15.75,15.75,0,0,1,0-11,7.51,7.51,0,0,1,2.87-3.45,8.46,8.46,0,0,1,4.58-1.18,7.74,7.74,0,0,1,3.72.87,7.2,7.2,0,0,1,2.6,2.32,6.87,6.87,0,0,1,1.17,3.2h-2.7a5.84,5.84,0,0,0-.84-2.11,4.43,4.43,0,0,0-1.62-1.51,4.79,4.79,0,0,0-2.4-.56,5.3,5.3,0,0,0-3,.84,5.14,5.14,0,0,0-1.88,2.6,13.53,13.53,0,0,0-.63,4.5q0,4.14,1.42,6.08a4.8,4.8,0,0,0,4.13,1.94,4.69,4.69,0,0,0,2.4-.59,4.62,4.62,0,0,0,1.62-1.58,6.22,6.22,0,0,0,.84-2.14h2.7a8.29,8.29,0,0,1-.68,2.44,7,7,0,0,1-1.45,2.09,6.52,6.52,0,0,1-2.25,1.45A8.3,8.3,0,0,1,199.43,172.84Z" transform="translate(0 -3.62)"/><path class="cls-1" d="M217.4,172.84a8.58,8.58,0,0,1-4.58-1.19,7.79,7.79,0,0,1-3-3.47,13,13,0,0,1-1.05-5.49,13.22,13.22,0,0,1,1.06-5.54,7.86,7.86,0,0,1,3-3.49,9.25,9.25,0,0,1,9.11,0,7.76,7.76,0,0,1,3,3.48,15.1,15.1,0,0,1,0,11,7.78,7.78,0,0,1-2.95,3.47A8.57,8.57,0,0,1,217.4,172.84Zm0-2.21a5.57,5.57,0,0,0,3.12-.84,5.15,5.15,0,0,0,2-2.59,12.39,12.39,0,0,0,.68-4.48,13,13,0,0,0-.68-4.56,5.36,5.36,0,0,0-2-2.64,6.1,6.1,0,0,0-6.23,0,5.42,5.42,0,0,0-2,2.65,12.44,12.44,0,0,0-.7,4.54,12.14,12.14,0,0,0,.7,4.48,5.25,5.25,0,0,0,2,2.59A5.64,5.64,0,0,0,217.4,170.63Z" transform="translate(0 -3.62)"/><path class="cls-1" d="M227.23,177.1v-1.5a3.62,3.62,0,0,1,.47-1.9,4.72,4.72,0,0,1,1.23-1.33,12.14,12.14,0,0,1,1.58-1c.56-.29,1.09-.59,1.58-.89a4.68,4.68,0,0,0,1.22-1,2.15,2.15,0,0,0,.48-1.41,1.91,1.91,0,0,0-.65-1.5,2.61,2.61,0,0,0-1.77-.57,2.81,2.81,0,0,0-1.9.65,2.59,2.59,0,0,0-.85,1.86H227a4,4,0,0,1,.51-2A3.75,3.75,0,0,1,229,165a5,5,0,0,1,2.46-.55,4.39,4.39,0,0,1,3,1,3.29,3.29,0,0,1,1.1,2.58,3.54,3.54,0,0,1-.46,1.88,4.41,4.41,0,0,1-1.2,1.31,10.64,10.64,0,0,1-1.55,1c-.56.28-1.08.57-1.57.86a4.6,4.6,0,0,0-1.2,1,2.08,2.08,0,0,0-.46,1.37v.21h6.53v1.49Z" transform="translate(0 -3.62)"/><path class="cls-1" d="M243.4,172.84a6.84,6.84,0,0,1-3.48-.87,6,6,0,0,1-2.36-2.48,8.2,8.2,0,0,1-.85-3.88,9.39,9.39,0,0,1,.77-3.92,6,6,0,0,1,2.23-2.64,7.07,7.07,0,0,1,6.9-.08,5.47,5.47,0,0,1,2.11,2.44,8.82,8.82,0,0,1,.72,3.72v.93H239.27a6.35,6.35,0,0,0,.45,2.44,4,4,0,0,0,1.35,1.73,3.85,3.85,0,0,0,2.29.65,4.22,4.22,0,0,0,2.34-.63,2.88,2.88,0,0,0,1.26-1.83h2.38a4.66,4.66,0,0,1-1.14,2.43,5.82,5.82,0,0,1-2.16,1.49A7.08,7.08,0,0,1,243.4,172.84Zm-4.11-8.49H247a5.5,5.5,0,0,0-.42-2.2,3.37,3.37,0,0,0-1.25-1.55,3.7,3.7,0,0,0-2.12-.57,3.64,3.64,0,0,0-2.21.64,3.78,3.78,0,0,0-1.3,1.63A5,5,0,0,0,239.29,164.35Z" transform="translate(0 -3.62)"/><path class="cls-2" d="M82.49,44.75A28,28,0,0,0,77.6,56.5a65.3,65.3,0,1,0-9.8,129.86H344.31a32.22,32.22,0,0,0,0-64.44s-9.5-1-20.11,7.06c0,0-9.86-23.11-37.14-22.85" transform="translate(0 -3.62)"/><path class="cls-1" d="M95.84,43.57,82.14,29.24l5.55-5.31a8.56,8.56,0,0,1,3-2,4.57,4.57,0,0,1,2.84-.14,5.51,5.51,0,0,1,2.52,1.6,5.66,5.66,0,0,1,1.45,2.34A4.91,4.91,0,0,1,97.68,28a7.46,7.46,0,0,1-.62,2l9,3.81-1.95,1.86L95.63,32l-3.86,3.68,5.91,6.18Zm-5.52-9.44,3.13-3a5.67,5.67,0,0,0,1.86-3.05,3.16,3.16,0,0,0-1-2.8,3.09,3.09,0,0,0-2.59-1.14A4.74,4.74,0,0,0,89,25.59L85.41,29Z" transform="translate(0 -3.62)"/><path class="cls-1" d="M106.87,33.45,97.22,16.12,108.15,10l1.08,2-8.69,4.84,3.15,5.65,7.83-4.35,1.08,1.94-7.84,4.36L108,30.22l9-5,1.1,2Z" transform="translate(0 -3.62)"/><path class="cls-1" d="M118.86,26.91,114.09,7.66l.57-.14,1.15-.28,1.41-.35,1.35-.31a13.91,13.91,0,0,1,6-.28,7.21,7.21,0,0,1,4,2.39,11.91,11.91,0,0,1,2.3,4.89,12,12,0,0,1,.22,5.64,7.45,7.45,0,0,1-2.57,4.11,13.52,13.52,0,0,1-5.5,2.53Zm2-2.74,1.69-.42A10.7,10.7,0,0,0,126.47,22a5.47,5.47,0,0,0,2.05-3.06,9.41,9.41,0,0,0-.17-4.67,9.52,9.52,0,0,0-2-4.19,5.34,5.34,0,0,0-3.17-1.68,11.2,11.2,0,0,0-4.25.31l-1.79.45Z" transform="translate(0 -3.62)"/><path class="cls-1" d="M140.94,23.94a8.85,8.85,0,0,1-4.15-1,5.18,5.18,0,0,1-2.25-2.57,9.85,9.85,0,0,1-.6-4.07l.4-12.7L137,3.7l-.41,13.09a4.84,4.84,0,0,0,1.07,3.63,4.65,4.65,0,0,0,3.38,1.3,5.62,5.62,0,0,0,2.56-.44,3.54,3.54,0,0,0,1.65-1.53,5.66,5.66,0,0,0,.64-2.67L146.28,4l2.55.08-.41,13a9,9,0,0,1-.88,3.86,5.11,5.11,0,0,1-2.43,2.34A8.89,8.89,0,0,1,140.94,23.94Z" transform="translate(0 -3.62)"/><path class="cls-1" d="M156,26.61a8.23,8.23,0,0,1-4-2.54,7.72,7.72,0,0,1-1.68-4.22,13.9,13.9,0,0,1,.72-5.57,13.58,13.58,0,0,1,2.6-4.93,7.41,7.41,0,0,1,3.78-2.42,8.47,8.47,0,0,1,4.72.25,7.69,7.69,0,0,1,3.28,2,7.26,7.26,0,0,1,1.78,3,6.87,6.87,0,0,1,.15,3.4l-2.58-.82a5.76,5.76,0,0,0-.16-2.27,4.51,4.51,0,0,0-1.09-1.92,4.75,4.75,0,0,0-2.11-1.26,5.27,5.27,0,0,0-3.15-.12,5.15,5.15,0,0,0-2.58,1.91,13.27,13.27,0,0,0-2,4.1q-1.24,3.94-.48,6.23a4.81,4.81,0,0,0,3.35,3.1,4.71,4.71,0,0,0,2.47.16,4.61,4.61,0,0,0,2-1,6.2,6.2,0,0,0,1.44-1.78l2.58.81a8.4,8.4,0,0,1-1.38,2.12,6.94,6.94,0,0,1-2,1.55,6.54,6.54,0,0,1-2.59.71A8.29,8.29,0,0,1,156,26.61Z" transform="translate(0 -3.62)"/><path class="cls-1" d="M163.61,29.08l10.64-16.74,10.56,6.71-1.21,1.88-8.4-5.33-3.47,5.46,7.56,4.81-1.19,1.87-7.57-4.81L167,28.51,175.6,34l-1.22,1.91Z" transform="translate(0 -3.62)"/><path class="cls-1" d="M175.08,36.52,189.7,23.11l.39.44.8.87,1,1.07c.34.38.65.72.92,1a13.85,13.85,0,0,1,3.13,5.16,7.13,7.13,0,0,1-.17,4.68,12,12,0,0,1-3.18,4.36,12.07,12.07,0,0,1-4.85,2.89,7.4,7.4,0,0,1-4.84-.29A13.43,13.43,0,0,1,178,39.72Zm3.37.44,1.18,1.29a10.72,10.72,0,0,0,3.41,2.6,5.64,5.64,0,0,0,3.67.33,9.41,9.41,0,0,0,4-2.39A9.49,9.49,0,0,0,193.45,35a5.33,5.33,0,0,0,0-3.59,11.08,11.08,0,0,0-2.3-3.58l-1.26-1.36Z" transform="translate(0 -3.62)"/><path class="cls-1" d="M185.79,51.18l21.77-3,.87,1.77-21.78,3Z" transform="translate(0 -3.62)"/><path class="cls-1" d="M207.72,77.5l-1.93-19.73,6.68-.66a9.54,9.54,0,0,1,3.83.34,5.89,5.89,0,0,1,2.81,1.85,6,6,0,0,1,1.28,3.33,6.13,6.13,0,0,1-.55,3.45,5.51,5.51,0,0,1-2.24,2.35A8.51,8.51,0,0,1,214,69.51L209.6,70l.72,7.3Zm1.66-9.68,4.38-.43A4.76,4.76,0,0,0,217,65.93a3.89,3.89,0,0,0,1-3.21,3.52,3.52,0,0,0-1.6-2.84,5.36,5.36,0,0,0-3.48-.68l-4.26.41Z" transform="translate(0 -3.62)"/><path class="cls-1" d="M221,76.5l4.37-19.34,2.53.56L224,74.85l9.14,2.06-.5,2.22Z" transform="translate(0 -3.62)"/><path class="cls-1" d="M231.28,78.19l16.78-12.78L250.47,67l-4.71,20.55-2.18-1.4,1.3-5.61L238,76.11l-4.58,3.49Zm8.6-3.69,5.68,3.66,2.36-9.89Z" transform="translate(0 -3.62)"/><path class="cls-1" d="M244.92,87l16.25-11.36,1.39,2L255.93,95l12.64-8.83L270,88.25,253.77,99.61l-1.3-1.85,6.72-17.69-12.82,9Z" transform="translate(0 -3.62)"/><path class="cls-1" d="M254.81,104.71l17-4.34-1.59-6.2,2.26-.58,3.72,14.54-2.26.57-1.5-5.86-17,4.35Z" transform="translate(0 -3.62)"/></g></g></svg>