<svg xmlns="http://www.w3.org/2000/svg" viewBox="0 0 379.02 185.31"><defs><style>.cls-1{fill:none;stroke:#fff;stroke-linecap:round;stroke-linejoin:round;stroke-width:5px;}.cls-2{fill:#fff;}</style></defs><title>Asset 18</title><g id="Layer_2" data-name="Layer 2"><g id="C"><path class="cls-1" d="M344.31,122.13a32.22,32.22,0,0,1,0,64.43H67.8A65.3,65.3,0,1,1,67.8,56a66,66,0,0,1,9.8.73" transform="translate(0 -3.75)"/></g><g id="CT"><path class="cls-2" d="M56,172.77V121.69H43.45v-3.27a43.7,43.7,0,0,0,8.52-.61c1.9-.4,3.16-1.07,3.79-2a6.43,6.43,0,0,0,1-3.69h2.93v60.64Z" transform="translate(0 -3.75)"/><path class="cls-2" d="M73.36,172.77v-6.46h5.07v6.46Z" transform="translate(0 -3.75)"/><path class="cls-2" d="M96.88,172.77V121.69H84.3v-3.27a43.59,43.59,0,0,0,8.51-.61c1.91-.4,3.17-1.07,3.8-2a6.43,6.43,0,0,0,.94-3.69h2.94v60.64Z" transform="translate(0 -3.75)"/><path class="cls-2" d="M137.47,172.77v-25.3h1.44v14.59l13.44-14.59h1.89L145,157.56l9.76,15.21H153L144,158.56l-5,5.51v8.7Z" transform="translate(0 -3.75)"/><path class="cls-2" d="M167.08,173.12a9.8,9.8,0,0,1-5.45-1.47,9.23,9.23,0,0,1-3.46-4.35,22,22,0,0,1,0-14.26,9.42,9.42,0,0,1,3.46-4.42,9.65,9.65,0,0,1,5.45-1.5,8,8,0,0,1,3.07.61,9.77,9.77,0,0,1,2.72,1.67,9.51,9.51,0,0,1,2,2.41,7.11,7.11,0,0,1,.92,2.87h-1.54a7.14,7.14,0,0,0-1.27-3,7.74,7.74,0,0,0-2.53-2.26,6.63,6.63,0,0,0-3.36-.87,8.17,8.17,0,0,0-4.61,1.29,8.08,8.08,0,0,0-3,3.86,17.32,17.32,0,0,0-1.05,6.47,19.19,19.19,0,0,0,.6,5.08,10.3,10.3,0,0,0,1.73,3.63,7.28,7.28,0,0,0,2.73,2.16,8.7,8.7,0,0,0,3.6.72,7.83,7.83,0,0,0,3.51-.74,7.29,7.29,0,0,0,2.44-1.91,8.46,8.46,0,0,0,1.44-2.51,7.75,7.75,0,0,0,.47-2.54v-2.94h-7.07v-1.23h8.43v12.88h-1.36v-4.41a9.46,9.46,0,0,1-1.78,2.41,8.27,8.27,0,0,1-2.61,1.71A8.73,8.73,0,0,1,167.08,173.12Z" transform="translate(0 -3.75)"/><path class="cls-2" d="M199,173a7.77,7.77,0,0,1-4.32-1.14,7,7,0,0,1-2.65-3.4,18,18,0,0,1,0-11.23,7.07,7.07,0,0,1,2.65-3.44,7.62,7.62,0,0,1,4.32-1.17,6.84,6.84,0,0,1,5.85,3.05,6.36,6.36,0,0,1,1.06,2.88h-1.2a6.74,6.74,0,0,0-1-2.38,5.54,5.54,0,0,0-1.9-1.76,5.72,5.72,0,0,0-2.83-.66,6.45,6.45,0,0,0-3.7,1,6,6,0,0,0-2.22,3,14.66,14.66,0,0,0-.74,5.06c0,3.05.55,5.31,1.65,6.8a5.84,5.84,0,0,0,5,2.23,5.72,5.72,0,0,0,2.83-.66,5.42,5.42,0,0,0,1.9-1.75,6.74,6.74,0,0,0,1-2.38h1.2a6.1,6.1,0,0,1-.67,2.19,6.81,6.81,0,0,1-1.45,1.9,6.7,6.7,0,0,1-2.11,1.33A7,7,0,0,1,199,173Z" transform="translate(0 -3.75)"/><path class="cls-2" d="M216.23,173a7.78,7.78,0,0,1-4.31-1.16,7.38,7.38,0,0,1-2.8-3.42,14.06,14.06,0,0,1-1-5.57,14.27,14.27,0,0,1,1-5.61,7.56,7.56,0,0,1,2.8-3.45,7.79,7.79,0,0,1,4.31-1.17,7.65,7.65,0,0,1,4.29,1.17,7.31,7.31,0,0,1,2.76,3.44,14.49,14.49,0,0,1,1,5.62,14.26,14.26,0,0,1-1,5.57,7.41,7.41,0,0,1-2.76,3.42A7.65,7.65,0,0,1,216.23,173Zm0-1.12a6.7,6.7,0,0,0,3.74-1,6.06,6.06,0,0,0,2.29-3,14,14,0,0,0,.77-5,14.2,14.2,0,0,0-.78-5.08,6.2,6.2,0,0,0-2.31-3,6.57,6.57,0,0,0-3.71-1,6.66,6.66,0,0,0-3.73,1,6.37,6.37,0,0,0-2.35,3,16.37,16.37,0,0,0,0,10.11,6.18,6.18,0,0,0,2.35,3A6.74,6.74,0,0,0,216.23,171.92Z" transform="translate(0 -3.75)"/><path class="cls-2" d="M227.22,177.31V175.8a3.64,3.64,0,0,1,.47-1.9,4.68,4.68,0,0,1,1.22-1.33,12.91,12.91,0,0,1,1.59-1c.55-.3,1.08-.6,1.58-.9a4.65,4.65,0,0,0,1.22-1,2.14,2.14,0,0,0,.47-1.41,1.88,1.88,0,0,0-.65-1.5,2.57,2.57,0,0,0-1.76-.57,2.85,2.85,0,0,0-1.91.65,2.63,2.63,0,0,0-.85,1.86H227a4.09,4.09,0,0,1,.5-2,3.73,3.73,0,0,1,1.51-1.46,5.08,5.08,0,0,1,2.46-.55,4.39,4.39,0,0,1,3,1,3.33,3.33,0,0,1,1.1,2.59,3.57,3.57,0,0,1-.47,1.88,4.65,4.65,0,0,1-1.19,1.31,11.08,11.08,0,0,1-1.56,1c-.55.28-1.07.56-1.56.85a4.44,4.44,0,0,0-1.2,1,2.07,2.07,0,0,0-.47,1.37v.2h6.53v1.5Z" transform="translate(0 -3.75)"/><path class="cls-2" d="M238.31,172.77V152.94H249.7V154H239.38v8.15H249v1.13h-9.61v8.31l10.7,0v1.12Z" transform="translate(0 -3.75)"/><path class="cls-2" d="M90.47,51.63l-16-11.7,4.13-5.65A9,9,0,0,1,81,32a4.3,4.3,0,0,1,2.56-.71,4.83,4.83,0,0,1,2.62,1A5.1,5.1,0,0,1,88,34.4a5,5,0,0,1,.39,2.31,7.51,7.51,0,0,1-.46,2l10.24,2.4-.73,1-10-2.33L83.49,45.2l7.62,5.57Zm-7.89-7.09,3-4a8.18,8.18,0,0,0,1.79-4.1,3.51,3.51,0,0,0-1.69-3.1,3.58,3.58,0,0,0-3.23-.79A6.16,6.16,0,0,0,79.46,35L76,39.71Z" transform="translate(0 -3.75)"/><path class="cls-2" d="M98.65,40.8l-12.93-15,8.63-7.42.72.83L87.25,25.9l5.31,6.17,7.28-6.26.73.85-7.28,6.27,5.43,6.3,8.12-7,.74.85Z" transform="translate(0 -3.75)"/><path class="cls-2" d="M107.76,33l-9.1-17.62.27-.13.67-.34.92-.47,1.07-.54a14.5,14.5,0,0,1,5.78-1.79,6.79,6.79,0,0,1,4.44,1.32,12.48,12.48,0,0,1,3.44,4.37,12.42,12.42,0,0,1,1.6,5.61,7.16,7.16,0,0,1-1.64,4.55,14.91,14.91,0,0,1-4.86,3.71Zm.53-1.54,1.47-.75a14.74,14.74,0,0,0,4.36-3.22,6.18,6.18,0,0,0,1.58-4,10.68,10.68,0,0,0-1.42-5.09,10.64,10.64,0,0,0-3.43-4.22,6,6,0,0,0-4.09-.88A15,15,0,0,0,101.83,15l-1.61.83Z" transform="translate(0 -3.75)"/><path class="cls-2" d="M126.55,25.5a8.26,8.26,0,0,1-3.77.11,4.61,4.61,0,0,1-2.6-1.71,9.31,9.31,0,0,1-1.54-3.6l-3-12.94,1.15-.27,3.06,13.4a5.45,5.45,0,0,0,2.17,3.57,5.39,5.39,0,0,0,4.25.42,6.94,6.94,0,0,0,2.86-1.26,4,4,0,0,0,1.39-2.15,6.26,6.26,0,0,0-.06-3l-3-13.4,1-.24,3.05,13.35a8,8,0,0,1,.08,3.65A4.62,4.62,0,0,1,130,24,8.33,8.33,0,0,1,126.55,25.5Z" transform="translate(0 -3.75)"/><path class="cls-2" d="M140.34,24.13a7.73,7.73,0,0,1-4.29-1.25,7,7,0,0,1-2.57-3.46,15.18,15.18,0,0,1-.77-5.63,15.45,15.45,0,0,1,1-5.6,7.1,7.1,0,0,1,2.73-3.38,7.73,7.73,0,0,1,4.35-1.06,6.84,6.84,0,0,1,5.78,3.19,6.52,6.52,0,0,1,1,2.9l-1.21,0a6.69,6.69,0,0,0-.92-2.4,5.35,5.35,0,0,0-1.86-1.8,5.6,5.6,0,0,0-2.81-.73,6.36,6.36,0,0,0-3.72.92,6,6,0,0,0-2.3,3,15.1,15.1,0,0,0-.86,5.05c-.07,3.05.43,5.32,1.5,6.84a5.83,5.83,0,0,0,5,2.34,5.67,5.67,0,0,0,2.84-.59,5.32,5.32,0,0,0,1.94-1.7,6.71,6.71,0,0,0,1-2.35l1.2,0a6.29,6.29,0,0,1-.72,2.18,6.82,6.82,0,0,1-1.49,1.86A6.9,6.9,0,0,1,143,23.7,7.07,7.07,0,0,1,140.34,24.13Z" transform="translate(0 -3.75)"/><path class="cls-2" d="M147.72,24.25l5-19.18,11,2.9L163.49,9l-10-2.62-2.07,7.88,9.28,2.44-.28,1.08-9.29-2.44-2.11,8,10.34,2.75-.29,1.09Z" transform="translate(0 -3.75)"/><path class="cls-2" d="M159.32,27.3l9.37-17.47A1.36,1.36,0,0,1,169,10l.65.35.92.5,1.05.58a14.38,14.38,0,0,1,4.74,3.75,6.77,6.77,0,0,1,1.42,4.4,12.5,12.5,0,0,1-1.65,5.32,12.35,12.35,0,0,1-3.72,4.49,7.12,7.12,0,0,1-4.67,1.22,14.86,14.86,0,0,1-5.82-1.91Zm1.57-.43,1.45.78a14.42,14.42,0,0,0,5.12,1.77,6.16,6.16,0,0,0,4.17-.94A10.69,10.69,0,0,0,175,24.43a10.64,10.64,0,0,0,1.54-5.21A6,6,0,0,0,175,15.34a15,15,0,0,0-4.17-3.11l-1.6-.86Z" transform="translate(0 -3.75)"/><path class="cls-2" d="M176.69,38.26l15-13,3.65,4.21a8.91,8.91,0,0,1,2.4,4.77,4.41,4.41,0,0,1-1.67,3.89,4.54,4.54,0,0,1-2.74,1.2A5.62,5.62,0,0,1,190,38.2,6.86,6.86,0,0,1,190.8,40a4.56,4.56,0,0,1,.15,1.7,4,4,0,0,1-.51,1.55,5.48,5.48,0,0,1-1.17,1.38A4.48,4.48,0,0,1,185,45.79a9.62,9.62,0,0,1-4.59-3.27Zm1.55.07,2.92,3.35A10.26,10.26,0,0,0,185,44.74a3.25,3.25,0,0,0,3.43-.77,3.79,3.79,0,0,0,1.39-2.31,4.57,4.57,0,0,0-.43-2.57,10.44,10.44,0,0,0-1.7-2.58l-3.16-3.65Zm7.15-6.21,3.16,3.65a12.55,12.55,0,0,0,1.38,1.34,6,6,0,0,0,1.65,1,3.51,3.51,0,0,0,1.81.24,3.55,3.55,0,0,0,1.85-.92,3.43,3.43,0,0,0,1.3-3.35,8.57,8.57,0,0,0-2.12-4l-2.88-3.31Z" transform="translate(0 -3.75)"/><path class="cls-2" d="M187.22,52.08l7.55-4,6.82-11.18.57,1.07L196,48l11.76.39.56,1-13-.45-7.53,4Z" transform="translate(0 -3.75)"/><path class="cls-2" d="M206.85,78,204.14,58.4l11.27-1.56.15,1.09-10.21,1.41,1.11,8.07L216,66.1l.15,1.11-9.51,1.31,1.14,8.24,10.6-1.44.15,1.12Z" transform="translate(0 -3.75)"/><path class="cls-2" d="M216.51,76.08,227.2,57.87l1.5.27L232.26,79l-1.16-.22L230,72.18l-9-1.63-3.37,5.74Zm5.13-6.62,8.13,1.48-2-11.84Z" transform="translate(0 -3.75)"/><path class="cls-2" d="M236.74,82.3a7.81,7.81,0,0,1-3.18-3.14,7,7,0,0,1-.61-4.27,18,18,0,0,1,5.59-9.74,7.15,7.15,0,0,1,4-1.67,7.65,7.65,0,0,1,4.33,1.14,6.81,6.81,0,0,1,3.56,5.55,6.41,6.41,0,0,1-.51,3l-1.05-.6a6.7,6.7,0,0,0,.34-2.55,5.51,5.51,0,0,0-.78-2.47,5.58,5.58,0,0,0-2.12-2,6.41,6.41,0,0,0-3.71-1,6.06,6.06,0,0,0-3.44,1.52,15,15,0,0,0-3.16,4c-1.52,2.64-2.16,4.88-1.94,6.72a5.85,5.85,0,0,0,3.23,4.43,5.76,5.76,0,0,0,2.78.83,5.42,5.42,0,0,0,2.52-.57,6.63,6.63,0,0,0,2-1.58l1.05.6A6.27,6.27,0,0,1,244,82.18a6.8,6.8,0,0,1-2.2.92,7,7,0,0,1-2.5.11A7.1,7.1,0,0,1,236.74,82.3Z" transform="translate(0 -3.75)"/><path class="cls-2" d="M242.46,85l15.2-12.74.68.82-6.85,5.75,8.18,9.75,6.85-5.75.69.82L252,96.44l-.69-.82,7.49-6.28-8.18-9.75-7.49,6.27Z" transform="translate(0 -3.75)"/><path class="cls-2" d="M267.38,123.63,257,106.71l5.22-3.19a9.63,9.63,0,0,1,3.51-1.35,5.57,5.57,0,0,1,3.2.41,5.81,5.81,0,0,1,2.52,2.37,6.06,6.06,0,0,1,1,3.34,5.77,5.77,0,0,1-1,3.09,8.54,8.54,0,0,1-2.69,2.49l-4.36,2.66,4,6.49Zm-3.57-8.1,4.35-2.66a6.35,6.35,0,0,0,2.87-3.3,4.62,4.62,0,0,0-.62-4.06,4.17,4.17,0,0,0-3.28-2.26,7.22,7.22,0,0,0-4.3,1.27l-4.19,2.56Z" transform="translate(0 -3.75)"/><path class="cls-2" d="M277.13,117.81,273.2,98.37l1.13-.23,3.72,18.28,9.92-2,.23,1.16Z" transform="translate(0 -3.75)"/><path class="cls-2" d="M285,115.28,295.51,97l1.5.26L300.8,118l-1.16-.2-1.2-6.55-9-1.54-3.32,5.78Zm5.07-6.68,8.14,1.4-2.17-11.83Z" transform="translate(0 -3.75)"/><path class="cls-2" d="M299.05,117.39l11.26-16.33.72.5-.21,21.34,10-14.57.88.6-11.26,16.33-.76-.52.23-21.27-10,14.52Z" transform="translate(0 -3.75)"/><path class="cls-2" d="M313,129.49l15.7-10.22-3.71-5.7.92-.6,7.71,11.85-.92.6-3.41-5.24-15.7,10.22Z" transform="translate(0 -3.75)"/></g></g></svg>