<svg xmlns="http://www.w3.org/2000/svg" viewBox="0 0 379.02 185.32"><defs><style>.cls-1{fill:none;stroke:#fff;stroke-linecap:round;stroke-linejoin:round;stroke-width:5px;}.cls-2{fill:#fff;}</style></defs><title>Asset 25</title><g id="Layer_2" data-name="Layer 2"><g id="C"><path class="cls-1" d="M344.31,122.15a32.22,32.22,0,0,1,0,64.43H67.8A65.3,65.3,0,1,1,67.8,56a66,66,0,0,1,9.8.73" transform="translate(0 -3.76)"/></g><g id="CT"><path class="cls-2" d="M54.57,172.79V125.32H43.08v-5.58a32.94,32.94,0,0,0,8.45-.86A8.42,8.42,0,0,0,56,116.32a7.24,7.24,0,0,0,1.53-4.17h6.25v60.64Z" transform="translate(0 -3.76)"/><path class="cls-2" d="M75.07,172.79V162H85.43v10.82Z" transform="translate(0 -3.76)"/><path class="cls-2" d="M102.42,172.79V125.32H90.93v-5.58a32.94,32.94,0,0,0,8.45-.86,8.42,8.42,0,0,0,4.44-2.56,7.24,7.24,0,0,0,1.53-4.17h6.25v60.64Z" transform="translate(0 -3.76)"/><path class="cls-2" d="M137,172.79v-25.3h3.36v13.09l11.34-13.09h3.87l-8.45,9.94,9.19,15.36h-3.66l-7.89-13-4.4,5v8Z" transform="translate(0 -3.76)"/><path class="cls-2" d="M168.73,173.14a10.49,10.49,0,0,1-5.74-1.53,9.78,9.78,0,0,1-3.71-4.42,19.44,19.44,0,0,1,0-14,10.06,10.06,0,0,1,3.77-4.48,10.67,10.67,0,0,1,5.8-1.54,9.69,9.69,0,0,1,3.58.66,9.82,9.82,0,0,1,3,1.82,9.44,9.44,0,0,1,2.07,2.62,7.44,7.44,0,0,1,.89,3h-3.47a6.48,6.48,0,0,0-1.08-2.61,6.36,6.36,0,0,0-2.13-1.93,5.84,5.84,0,0,0-2.9-.73,7,7,0,0,0-3.84,1.07,6.86,6.86,0,0,0-2.57,3.31,15.29,15.29,0,0,0-.92,5.74,16.88,16.88,0,0,0,.56,4.62,8.46,8.46,0,0,0,1.57,3.12,6.21,6.21,0,0,0,2.36,1.77,7.47,7.47,0,0,0,2.93.57,6.51,6.51,0,0,0,2.78-.56,6.18,6.18,0,0,0,2-1.45,6.44,6.44,0,0,0,1.21-1.9,6,6,0,0,0,.47-2l.11-2.24h-6.16v-2.38l9.52,0v13h-2.43v-3.85a10.64,10.64,0,0,1-1.68,2.05,8.06,8.06,0,0,1-2.48,1.56A9.3,9.3,0,0,1,168.73,173.14Z" transform="translate(0 -3.76)"/><path class="cls-2" d="M199.43,173.06a8.17,8.17,0,0,1-4.56-1.22,7.63,7.63,0,0,1-2.88-3.51,15.73,15.73,0,0,1,0-11,7.51,7.51,0,0,1,2.87-3.45,8.46,8.46,0,0,1,4.58-1.19,7.74,7.74,0,0,1,3.72.87,7.31,7.31,0,0,1,2.6,2.33,6.83,6.83,0,0,1,1.17,3.19h-2.7a5.92,5.92,0,0,0-.84-2.11,4.61,4.61,0,0,0-1.62-1.51,4.89,4.89,0,0,0-2.4-.56,5.3,5.3,0,0,0-3,.84,5.19,5.19,0,0,0-1.88,2.6,13.5,13.5,0,0,0-.64,4.5c0,2.76.48,4.79,1.42,6.08a4.81,4.81,0,0,0,4.14,2,4.5,4.5,0,0,0,4-2.17,6.3,6.3,0,0,0,.84-2.14h2.7a8.31,8.31,0,0,1-.68,2.43,7,7,0,0,1-1.45,2.1,6.66,6.66,0,0,1-2.25,1.45A8.31,8.31,0,0,1,199.43,173.06Z" transform="translate(0 -3.76)"/><path class="cls-2" d="M217.4,173.06a8.47,8.47,0,0,1-4.58-1.19,7.77,7.77,0,0,1-3-3.46,14.94,14.94,0,0,1,0-11,7.81,7.81,0,0,1,3-3.49,9.21,9.21,0,0,1,9.11,0,7.74,7.74,0,0,1,3,3.49,15.1,15.1,0,0,1,0,11,7.71,7.71,0,0,1-3,3.46A8.42,8.42,0,0,1,217.4,173.06Zm0-2.2a5.59,5.59,0,0,0,3.12-.84,5.19,5.19,0,0,0,2-2.59,12.44,12.44,0,0,0,.68-4.49,13,13,0,0,0-.68-4.55,5.36,5.36,0,0,0-2-2.64,5.51,5.51,0,0,0-3.11-.86,5.57,5.57,0,0,0-3.12.86,5.46,5.46,0,0,0-2,2.65,12.48,12.48,0,0,0-.7,4.54,12.19,12.19,0,0,0,.7,4.49,5.29,5.29,0,0,0,2,2.59A5.64,5.64,0,0,0,217.4,170.86Z" transform="translate(0 -3.76)"/><path class="cls-2" d="M227.22,177.33v-1.51a3.64,3.64,0,0,1,.47-1.9,4.68,4.68,0,0,1,1.22-1.33,12.91,12.91,0,0,1,1.59-1c.55-.3,1.08-.6,1.58-.9a4.65,4.65,0,0,0,1.22-1,2.14,2.14,0,0,0,.47-1.41,1.88,1.88,0,0,0-.65-1.5,2.57,2.57,0,0,0-1.76-.57,2.85,2.85,0,0,0-1.91.65,2.63,2.63,0,0,0-.85,1.86H227a4.09,4.09,0,0,1,.5-2,3.73,3.73,0,0,1,1.51-1.46,5.08,5.08,0,0,1,2.46-.55,4.39,4.39,0,0,1,3,1,3.33,3.33,0,0,1,1.1,2.59,3.57,3.57,0,0,1-.47,1.88,4.65,4.65,0,0,1-1.19,1.31,11.08,11.08,0,0,1-1.56,1c-.55.28-1.07.56-1.56.85a4.44,4.44,0,0,0-1.2,1,2.07,2.07,0,0,0-.47,1.37v.2h6.53v1.5Z" transform="translate(0 -3.76)"/><path class="cls-2" d="M237.92,172.79V153h12.51l0,2.23h-9.94v6.48h8.95v2.22h-9v6.61l10.24,0v2.26Z" transform="translate(0 -3.76)"/><path class="cls-2" d="M90.17,52l-16-11.71,4.53-6.2a8.69,8.69,0,0,1,2.64-2.51,4.63,4.63,0,0,1,2.78-.63,6.37,6.37,0,0,1,4.59,3.18,5.15,5.15,0,0,1,.54,2.18A7.34,7.34,0,0,1,89,38.36l9.57,2.17L97,42.7l-9-2.12-3.15,4.3,6.9,5Zm-7.1-8.33,2.55-3.49a5.73,5.73,0,0,0,1.31-3.33,3.17,3.17,0,0,0-1.47-2.59,3.12,3.12,0,0,0-2.76-.66,4.73,4.73,0,0,0-2.46,1.9l-2.9,4Z" transform="translate(0 -3.76)"/><path class="cls-2" d="M98.34,41.09l-12.93-15,9.48-8.16,1.45,1.71L88.8,26.08,93,31l6.79-5.84,1.45,1.68-6.8,5.86,4.31,5L106.55,31,108,32.76Z" transform="translate(0 -3.76)"/><path class="cls-2" d="M107.4,33.22,98.29,15.6l.52-.26,1.06-.55q.61-.33,1.29-.66c.45-.23.86-.44,1.24-.62a13.8,13.8,0,0,1,5.8-1.67,7.18,7.18,0,0,1,4.47,1.39A11.87,11.87,0,0,1,116,17.45a11.92,11.92,0,0,1,1.52,5.43,7.48,7.48,0,0,1-1.54,4.6,13.53,13.53,0,0,1-4.76,3.74Zm1.31-3.14,1.55-.79a10.79,10.79,0,0,0,3.4-2.62,5.51,5.51,0,0,0,1.28-3.45,9.5,9.5,0,0,0-1.25-4.51,9.45,9.45,0,0,0-2.91-3.61,5.36,5.36,0,0,0-3.47-.9,11.12,11.12,0,0,0-4.06,1.29l-1.64.85Z" transform="translate(0 -3.76)"/><path class="cls-2" d="M126.82,25.44a8.87,8.87,0,0,1-4.26.11,5.13,5.13,0,0,1-2.83-1.92,10,10,0,0,1-1.62-3.78l-2.83-12.4,2.57-.58,2.91,12.77a4.88,4.88,0,0,0,2,3.24,4.65,4.65,0,0,0,3.59.4,5.65,5.65,0,0,0,2.37-1.08,3.58,3.58,0,0,0,1.21-1.9,5.82,5.82,0,0,0-.06-2.74L126.93,4.79l2.48-.56,2.89,12.65a9.06,9.06,0,0,1,.13,3.95,5.11,5.11,0,0,1-1.75,2.88A8.92,8.92,0,0,1,126.82,25.44Z" transform="translate(0 -3.76)"/><path class="cls-2" d="M140.73,24.14a8.23,8.23,0,0,1-4.53-1.33,7.69,7.69,0,0,1-2.79-3.58,13.78,13.78,0,0,1-.87-5.55,13.89,13.89,0,0,1,1.12-5.46,7.5,7.5,0,0,1,3-3.38,8.44,8.44,0,0,1,4.6-1.08,7.83,7.83,0,0,1,3.69,1,7.15,7.15,0,0,1,2.55,2.39,6.77,6.77,0,0,1,1.09,3.22l-2.7-.06a6,6,0,0,0-.78-2.14,4.6,4.6,0,0,0-1.59-1.54A4.77,4.77,0,0,0,141.1,6a5.29,5.29,0,0,0-3.06.77,5.1,5.1,0,0,0-1.94,2.55,13.63,13.63,0,0,0-.75,4.48c-.06,2.76.36,4.8,1.28,6.12a5.31,5.31,0,0,0,6.5,1.51,4.6,4.6,0,0,0,1.65-1.54,6.1,6.1,0,0,0,.89-2.12l2.7.06a8.25,8.25,0,0,1-.73,2.42,6.91,6.91,0,0,1-1.5,2.06,6.68,6.68,0,0,1-2.29,1.4A8.4,8.4,0,0,1,140.73,24.14Z" transform="translate(0 -3.76)"/><path class="cls-2" d="M147.31,24.16l5-19.18,12.1,3.18-.58,2.16-9.62-2.53-1.64,6.26,8.66,2.28-.56,2.15L152,16.2l-1.68,6.39,9.89,2.63-.58,2.19Z" transform="translate(0 -3.76)"/><path class="cls-2" d="M159,27.11l9.37-17.48.51.28c.28.16.63.35,1.05.56l1.28.69,1.21.67a13.85,13.85,0,0,1,4.65,3.85,7.16,7.16,0,0,1,1.39,4.47,11.93,11.93,0,0,1-1.57,5.16,12,12,0,0,1-3.62,4.34A7.46,7.46,0,0,1,168.61,31a13.66,13.66,0,0,1-5.78-1.8Zm3.32-.69,1.54.82a10.52,10.52,0,0,0,4.08,1.33,5.54,5.54,0,0,0,3.57-.9,9.45,9.45,0,0,0,3-3.58,9.57,9.57,0,0,0,1.33-4.44,5.32,5.32,0,0,0-1.22-3.37,11,11,0,0,0-3.36-2.62l-1.63-.87Z" transform="translate(0 -3.76)"/><path class="cls-2" d="M176.42,38l15-13,4.19,4.82a9.44,9.44,0,0,1,2.59,5,4.89,4.89,0,0,1-4.26,5.07,5.74,5.74,0,0,1-3.27-.94,6.93,6.93,0,0,1,.75,1.95,4.59,4.59,0,0,1,0,1.69,4,4,0,0,1-.58,1.43,6,6,0,0,1-1.06,1.21,4.56,4.56,0,0,1-4.29,1.18A10,10,0,0,1,180.74,43Zm3.26.53,2.63,3a7.21,7.21,0,0,0,3.1,2.32,2.77,2.77,0,0,0,2.75-.67,3.08,3.08,0,0,0,1.11-1.81,3.6,3.6,0,0,0-.28-2,7.65,7.65,0,0,0-1.31-2.06L184.85,34Zm6.79-5.9,2.84,3.26A7.65,7.65,0,0,0,190.44,37a4.76,4.76,0,0,0,1.32.73,3,3,0,0,0,1.43.13,3.18,3.18,0,0,0,2.51-3.4,6.32,6.32,0,0,0-1.63-3.14l-2.6-3Z" transform="translate(0 -3.76)"/><path class="cls-2" d="M187.22,52.1l7.46-4,6.87-11.32,1.3,2.45-5.57,8.94,10.49.28,1.31,2.46-13.22-.57-7.45,4Z" transform="translate(0 -3.76)"/><path class="cls-2" d="M206.43,78.11l-2.71-19.65,12.39-1.71.3,2.22-9.86,1.36.89,6.41,8.87-1.23.31,2.21-8.89,1.22.9,6.55,10.14-1.37.31,2.24Z" transform="translate(0 -3.76)"/><path class="cls-2" d="M216.13,76l10.63-18.22,2.82.52,3.5,20.8-2.55-.47-.94-5.68-8-1.46-2.91,5Zm6.54-6.7,6.65,1.22-1.6-10Z" transform="translate(0 -3.76)"/><path class="cls-2" d="M237.15,82.54a8.19,8.19,0,0,1-3.35-3.33,7.64,7.64,0,0,1-.75-4.48,15.73,15.73,0,0,1,5.47-9.56,7.46,7.46,0,0,1,4.21-1.56,8.46,8.46,0,0,1,4.56,1.24,7.82,7.82,0,0,1,2.79,2.61,7.31,7.31,0,0,1,1.1,3.31,6.75,6.75,0,0,1-.58,3.35l-2.34-1.34a5.67,5.67,0,0,0,.32-2.25,4.53,4.53,0,0,0-.65-2.11,4.74,4.74,0,0,0-1.8-1.68,5.23,5.23,0,0,0-3.06-.78,5.09,5.09,0,0,0-2.92,1.31,13.47,13.47,0,0,0-2.79,3.59c-1.38,2.4-2,4.39-1.8,6a4.82,4.82,0,0,0,2.63,3.75,4.48,4.48,0,0,0,4.56.11,6.18,6.18,0,0,0,1.79-1.43l2.34,1.34a8,8,0,0,1-1.8,1.77,6.65,6.65,0,0,1-5,1.24A8.55,8.55,0,0,1,237.15,82.54Z" transform="translate(0 -3.76)"/><path class="cls-2" d="M242.19,84.75,257.39,72,259,74l-6.47,5.43,6.87,8.2,6.48-5.43,1.63,1.95-15.2,12.74-1.63-2,7-5.87-6.88-8.2-7,5.87Z" transform="translate(0 -3.76)"/><path class="cls-2" d="M267,123.83l-10.35-16.92,5.72-3.5A9.64,9.64,0,0,1,266,102a6,6,0,0,1,3.33.44,6,6,0,0,1,2.61,2.44,6.19,6.19,0,0,1,1,3.35,5.59,5.59,0,0,1-1,3.09,8.63,8.63,0,0,1-2.74,2.53l-3.79,2.32,3.83,6.26Zm-2.73-9.44,3.75-2.29a4.82,4.82,0,0,0,2.24-2.71,4,4,0,0,0-.53-3.31,3.55,3.55,0,0,0-2.68-1.86,5.37,5.37,0,0,0-3.43.91L260,107.36Z" transform="translate(0 -3.76)"/><path class="cls-2" d="M276.79,117.91l-3.94-19.44,2.54-.52,3.5,17.21,9.18-1.87.45,2.23Z" transform="translate(0 -3.76)"/><path class="cls-2" d="M284.65,115.22l10.43-18.34,2.83.49,3.72,20.76-2.56-.44-1-5.67-8-1.37-2.85,5Zm6.46-6.77,6.67,1.14-1.71-10Z" transform="translate(0 -3.76)"/><path class="cls-2" d="M298.7,117.19,310,100.86l2,1.38-.12,18.64,8.75-12.69,2.09,1.43L311.42,126l-1.86-1.28.11-18.91-8.88,12.87Z" transform="translate(0 -3.76)"/><path class="cls-2" d="M312.76,129.09l14.67-9.55-3.5-5.37,2-1.27,8.18,12.57-1.95,1.27-3.3-5.06-14.67,9.55Z" transform="translate(0 -3.76)"/></g></g></svg>