<svg xmlns="http://www.w3.org/2000/svg" viewBox="0 0 292.19 139.7"><defs><style>.cls-1{fill:none;stroke:#fff;stroke-linecap:round;stroke-linejoin:round;stroke-width:5px;}.cls-2{fill:#fff;}</style></defs><title>Asset 19</title><g id="Layer_2" data-name="Layer 2"><g id="C"><path class="cls-1" d="M255.31,137.49A44.05,44.05,0,0,1,237.94,141H32.9C13.84,138.61.36,120.15,2.78,101.09A34.78,34.78,0,0,1,65,84.4a44.3,44.3,0,0,1,44-31.89s10.18.3,16.9,4c0,0-1.5-15.8,10.61-23.62" transform="translate(0 -3.83)"/></g><g id="CT"><path class="cls-2" d="M147.05,35.36l-11.73-16,4.93-3.62a9.5,9.5,0,0,1,3.38-1.64,5.64,5.64,0,0,1,3.24.14,5.75,5.75,0,0,1,2.7,2.15,6,6,0,0,1,1.27,3.25,5.66,5.66,0,0,1-.74,3.16,8.63,8.63,0,0,1-2.48,2.71l-4.11,3L148,34.66Zm-4.24-7.77,4.11-3A6.37,6.37,0,0,0,149.51,21a4.65,4.65,0,0,0-1-4,4.18,4.18,0,0,0-3.45-2,7.29,7.29,0,0,0-4.19,1.63l-4,2.9Z" transform="translate(0 -3.83)"/><path class="cls-2" d="M162,26.78a7.73,7.73,0,0,1-4.45.32,7.39,7.39,0,0,1-3.77-2.31A14.09,14.09,0,0,1,151,19.85a14.12,14.12,0,0,1-.91-5.62,7.46,7.46,0,0,1,1.51-4.17,7.73,7.73,0,0,1,3.68-2.53,7.71,7.71,0,0,1,4.44-.31,7.36,7.36,0,0,1,3.74,2.35,14.51,14.51,0,0,1,2.75,5,14.12,14.12,0,0,1,.92,5.57,7.37,7.37,0,0,1-1.48,4.14A7.69,7.69,0,0,1,162,26.78Zm-.37-1.06a6.77,6.77,0,0,0,3.21-2.16A6,6,0,0,0,166,20a14.19,14.19,0,0,0-.93-5,14.3,14.3,0,0,0-2.41-4.55,6.25,6.25,0,0,0-3.17-2.09,6.6,6.6,0,0,0-3.84.27,6.68,6.68,0,0,0-3.19,2.18,6.34,6.34,0,0,0-1.22,3.64,14,14,0,0,0,.9,5.05,13.52,13.52,0,0,0,2.43,4.5A6.15,6.15,0,0,0,157.8,26,6.72,6.72,0,0,0,161.65,25.72Z" transform="translate(0 -3.83)"/><path class="cls-2" d="M170.74,23.91,166.13,3.83l1.19.06,4.2,18.71,6.13-18.22,1.08,0L183,23.15l6.15-18.22,1.18.06-6.65,19.54-1.49-.07-4.13-18L172.15,24Z" transform="translate(0 -3.83)"/><path class="cls-2" d="M186.24,25.23,194,7l10.48,4.45-.43,1-9.5-4-3.18,7.5,8.84,3.75-.44,1-8.84-3.75-3.25,7.65,9.84,4.21-.44,1Z" transform="translate(0 -3.83)"/><path class="cls-2" d="M196,29.19l12.46-15.43,5.44,4.4a8.81,8.81,0,0,1,2.21,2.49,4.27,4.27,0,0,1,.59,2.58,4.77,4.77,0,0,1-1.15,2.57,5.1,5.1,0,0,1-2.22,1.71,4.94,4.94,0,0,1-2.32.27,6.58,6.58,0,0,1-2-.56l-2.89,10.12-1-.77,2.81-9.86-5.18-4.19-5.93,7.35Zm7.46-7.54,3.89,3.13a8.16,8.16,0,0,0,4,2,3.54,3.54,0,0,0,3.18-1.55,3.6,3.6,0,0,0,.94-3.19A6.24,6.24,0,0,0,213.19,19l-4.59-3.7Z" transform="translate(0 -3.83)"/><path class="cls-2" d="M210.23,42.32l21.11-.4.55,1.41L216,57.25l-.43-1.1,5-4.39-3.29-8.49-6.66.12Zm8.33.92,3,7.7,9-7.93Z" transform="translate(0 -3.83)"/><path class="cls-2" d="M237.72,62.06l2.66-19.65,1.15.15L239,61.05l10,1.35-.15,1.17Z" transform="translate(0 -3.83)"/><path class="cls-2" d="M246.92,63.13,255,45l10.39,4.65-.44,1-9.42-4.21-3.33,7.44L261,57.82l-.46,1-8.76-3.91-3.39,7.59,9.75,4.38-.45,1Z" transform="translate(0 -3.83)"/><path class="cls-2" d="M258.16,68.24l14.27-13.77a1.49,1.49,0,0,1,.21.22l.51.54.72.75c.27.29.54.58.83.87a14.36,14.36,0,0,1,3.36,5,6.76,6.76,0,0,1,0,4.63,12.45,12.45,0,0,1-3.2,4.55A12.3,12.3,0,0,1,270,74.19a7.1,7.1,0,0,1-4.82-.26,14.87,14.87,0,0,1-4.95-3.6Zm1.63.06,1.14,1.19a14.65,14.65,0,0,0,4.34,3.26,6.15,6.15,0,0,0,4.25.37A10.61,10.61,0,0,0,274,70.3a10.57,10.57,0,0,0,3.06-4.49,6,6,0,0,0-.33-4.17,15.16,15.16,0,0,0-3-4.24l-1.26-1.3Z" transform="translate(0 -3.83)"/><path class="cls-2" d="M271.23,86.22l19.68-2.52.7,5.52a8.81,8.81,0,0,1-.64,5.31,4.4,4.4,0,0,1-3.55,2.31,4.6,4.6,0,0,1-2.95-.52,5.71,5.71,0,0,1-2.15-2.78,6.94,6.94,0,0,1-.33,2,4.5,4.5,0,0,1-.82,1.5,3.93,3.93,0,0,1-1.28,1,5.44,5.44,0,0,1-1.74.5A4.47,4.47,0,0,1,274,97.09a9.73,9.73,0,0,1-2-5.27Zm1.26.91.56,4.41a10.18,10.18,0,0,0,1.52,4.68,3.22,3.22,0,0,0,3.28,1.26,3.73,3.73,0,0,0,2.43-1.15A4.51,4.51,0,0,0,281.35,94a10.62,10.62,0,0,0,0-3.09l-.61-4.79Zm9.38-1.2.62,4.79a10.9,10.9,0,0,0,.4,1.88,6.15,6.15,0,0,0,.83,1.73,3.35,3.35,0,0,0,3.42,1.47,3.42,3.42,0,0,0,2.94-2.07,8.48,8.48,0,0,0,.43-4.48L290,84.9Z" transform="translate(0 -3.83)"/><path class="cls-2" d="M271.11,104.64a8.27,8.27,0,0,1,1.57-3.44,4.58,4.58,0,0,1,2.68-1.57,9.21,9.21,0,0,1,3.91.21l12.92,3.06-.27,1.15-13.38-3.17a4.74,4.74,0,0,0-6.42,4A7,7,0,0,0,272,108a3.88,3.88,0,0,0,1.31,2.2,6.32,6.32,0,0,0,2.72,1.27l13.37,3.18-.25,1-13.32-3.16a8,8,0,0,1-3.31-1.54,4.65,4.65,0,0,1-1.57-2.62A8.44,8.44,0,0,1,271.11,104.64Z" transform="translate(0 -3.83)"/><path class="cls-2" d="M269.55,111.12l16.69,10.71-.62,1-15.71-10-5.46,8.52-1-.63Z" transform="translate(0 -3.83)"/><path class="cls-2" d="M264.3,119.64l12.45,15.43-4.33,3.5a8.86,8.86,0,0,1-4.86,2.23,4.43,4.43,0,0,1-3.83-1.81,4.58,4.58,0,0,1-1.09-2.78,5.56,5.56,0,0,1,1.24-3.29,7.31,7.31,0,0,1-1.87.75,4.55,4.55,0,0,1-1.71.09,4,4,0,0,1-1.52-.57,5.44,5.44,0,0,1-1.34-1.22,4.47,4.47,0,0,1-1-4.32,9.72,9.72,0,0,1,3.43-4.47Zm-.12,1.54L260.72,124a10.23,10.23,0,0,0-3.19,3.75,3.22,3.22,0,0,0,.64,3.45,3.69,3.69,0,0,0,2.25,1.47,4.57,4.57,0,0,0,2.59-.33,10.9,10.9,0,0,0,2.64-1.6l3.76-3Zm5.94,7.37-3.76,3a11.53,11.53,0,0,0-1.39,1.33,6.07,6.07,0,0,0-1,1.61,3.51,3.51,0,0,0-.3,1.8,3.58,3.58,0,0,0,.85,1.89,3.43,3.43,0,0,0,3.3,1.42,8.66,8.66,0,0,0,4-2l3.41-2.76Z" transform="translate(0 -3.83)"/><path class="cls-2" d="M94,132.14V81.59H81.5V78.35a43.71,43.71,0,0,0,8.42-.6c1.89-.4,3.14-1.06,3.76-2a6.39,6.39,0,0,0,.93-3.65h2.91v60Z" transform="translate(0 -3.83)"/><path class="cls-2" d="M134.16,132.14V114.79H105.28v-4.07l28.55-38.59h3.74v39.26h10.62v3.4H137.57v17.35Zm-25.39-20.75h25.06V77.69Z" transform="translate(0 -3.83)"/><path class="cls-2" d="M168.87,132.14V106.83h4.2a18.33,18.33,0,0,1,7.6,1.36,8.65,8.65,0,0,1,4.25,4.1,18.68,18.68,0,0,1-.13,14.26,9.1,9.1,0,0,1-4.52,4.19,18.81,18.81,0,0,1-7.69,1.36Zm1.51-1.44h2.1a18.52,18.52,0,0,0,6.83-1.09,7.85,7.85,0,0,0,4.11-3.57,13.56,13.56,0,0,0,1.38-6.61,13.58,13.58,0,0,0-1.42-6.78,7.66,7.66,0,0,0-4.12-3.4,19.27,19.27,0,0,0-6.57-1h-2.31Z" transform="translate(0 -3.83)"/><path class="cls-2" d="M186.83,132.14l9.25-25.31H198l9.24,25.31h-1.51l-2.92-8H191.22l-2.92,8Zm4.93-9.49H202.3L197,108.25Z" transform="translate(0 -3.83)"/><path class="cls-2" d="M214.67,132.14V121.22l-8.49-14.39h1.54l7.63,13,7.49-13h1.51L216,121.25v10.89Z" transform="translate(0 -3.83)"/><path class="cls-2" d="M232.83,132.49a12.52,12.52,0,0,1-3.32-.43,9.6,9.6,0,0,1-2.77-1.26,7.21,7.21,0,0,1-3.1-4.86h1.55a5.76,5.76,0,0,0,1.5,2.87,7,7,0,0,0,2.73,1.73,9.89,9.89,0,0,0,3.41.58,9.47,9.47,0,0,0,3.66-.67,6.1,6.1,0,0,0,2.58-1.9,4.51,4.51,0,0,0,1-2.87,4.34,4.34,0,0,0-1-2.91,7.22,7.22,0,0,0-3.49-1.9l-5.67-1.65a12.44,12.44,0,0,1-2.75-1.17,5.52,5.52,0,0,1-1.94-1.9,5.72,5.72,0,0,1-.72-3,5.83,5.83,0,0,1,1.06-3.42,7,7,0,0,1,2.9-2.34,9.73,9.73,0,0,1,4.16-.85,9.53,9.53,0,0,1,4.7,1,7.3,7.3,0,0,1,2.84,2.65,6.35,6.35,0,0,1,.93,3.31h-1.54a5.88,5.88,0,0,0-1.23-3.36,5.8,5.8,0,0,0-2.56-1.75,9.66,9.66,0,0,0-3.19-.53,7.14,7.14,0,0,0-4.87,1.52,4.8,4.8,0,0,0-1.73,3.73,3.84,3.84,0,0,0,1.2,3,8.54,8.54,0,0,0,3.32,1.68l5.77,1.66a8.53,8.53,0,0,1,3.2,1.55,5.39,5.39,0,0,1,1.63,2.16,6.58,6.58,0,0,1,.48,2.47,6.05,6.05,0,0,1-1.05,3.46,7,7,0,0,1-3,2.45A11,11,0,0,1,232.83,132.49Z" transform="translate(0 -3.83)"/><path class="cls-2" d="M202.23,100V80.18h11.22v1.09h-10v8.12h9.33v1.13h-9.33V100Z" transform="translate(0 -3.83)"/><path class="cls-2" d="M222.53,100.29a7.87,7.87,0,0,1-4.31-1.16,7.4,7.4,0,0,1-2.8-3.43,13.84,13.84,0,0,1-1-5.56,14,14,0,0,1,1-5.61,7.4,7.4,0,0,1,2.8-3.45,8.46,8.46,0,0,1,8.6,0,7.36,7.36,0,0,1,2.76,3.44,14.51,14.51,0,0,1,1,5.63,14.25,14.25,0,0,1-1,5.56,7.41,7.41,0,0,1-2.76,3.42A7.7,7.7,0,0,1,222.53,100.29Zm0-1.13a6.7,6.7,0,0,0,3.74-1,6,6,0,0,0,2.29-3,14.28,14.28,0,0,0,.77-5,14,14,0,0,0-.79-5.09,6.13,6.13,0,0,0-2.3-3,7.39,7.39,0,0,0-7.44,0,6.23,6.23,0,0,0-2.35,3,13.7,13.7,0,0,0-.81,5.07,13.5,13.5,0,0,0,.81,5,6.12,6.12,0,0,0,2.35,3A6.74,6.74,0,0,0,222.53,99.16Z" transform="translate(0 -3.83)"/><path class="cls-2" d="M233,100V80.18h7a8.75,8.75,0,0,1,3.29.55,4.34,4.34,0,0,1,2.08,1.63,4.87,4.87,0,0,1,.72,2.73,5.16,5.16,0,0,1-.66,2.73,4.89,4.89,0,0,1-1.63,1.66,7.21,7.21,0,0,1-1.93.85L246,100h-1.23l-4-9.44h-6.66V100Zm1.07-10.56h5a8.07,8.07,0,0,0,4.37-1,3.51,3.51,0,0,0,1.5-3.2,3.56,3.56,0,0,0-1.27-3.07,6.21,6.21,0,0,0-3.7-.94h-5.89Z" transform="translate(0 -3.83)"/></g></g></svg>