<svg xmlns="http://www.w3.org/2000/svg" viewBox="0 0 292.28 139.68"><defs><style>.cls-1{fill:none;stroke:#fff;stroke-linecap:round;stroke-linejoin:round;stroke-width:5px;}.cls-2{fill:#fff;}</style></defs><title>Asset 26</title><g id="Layer_2" data-name="Layer 2"><g id="C"><path class="cls-1" d="M255.31,137.47A44.05,44.05,0,0,1,237.94,141H32.9C13.84,138.58.36,120.13,2.78,101.07A34.78,34.78,0,0,1,65,84.37a44.3,44.3,0,0,1,44-31.88s10.18.3,16.9,4c0,0-1.5-15.8,10.61-23.62" transform="translate(0 -3.83)"/></g><g id="CT"><path class="cls-2" d="M146.72,35.61,135,19.62l5.4-4A9.64,9.64,0,0,1,143.87,14a5.85,5.85,0,0,1,3.35.16A5.92,5.92,0,0,1,150,16.36a6.27,6.27,0,0,1,1.29,3.25,5.57,5.57,0,0,1-.74,3.16,8.68,8.68,0,0,1-2.52,2.76l-3.58,2.62,4.34,5.92Zm-3.52-9.17,3.55-2.61a4.73,4.73,0,0,0,2-2.88,3.93,3.93,0,0,0-.8-3.25,3.53,3.53,0,0,0-2.83-1.63,5.39,5.39,0,0,0-3.34,1.19l-3.45,2.53Z" transform="translate(0 -3.83)"/><path class="cls-2" d="M162.34,26.69a8.5,8.5,0,0,1-4.71.38,7.8,7.8,0,0,1-4-2.29,13,13,0,0,1-2.8-4.84,13.26,13.26,0,0,1-.82-5.58,7.91,7.91,0,0,1,1.69-4.28,8.5,8.5,0,0,1,3.91-2.64,8.41,8.41,0,0,1,4.69-.36,7.87,7.87,0,0,1,3.95,2.32,13.33,13.33,0,0,1,2.8,4.89,13.22,13.22,0,0,1,.83,5.53,7.78,7.78,0,0,1-1.65,4.25A8.5,8.5,0,0,1,162.34,26.69Zm-.72-2.08a5.67,5.67,0,0,0,2.68-1.82,5.17,5.17,0,0,0,1-3.1,12.4,12.4,0,0,0-.83-4.46,12.74,12.74,0,0,0-2.14-4.07,5.4,5.4,0,0,0-2.74-1.85,5.55,5.55,0,0,0-3.22.22,5.43,5.43,0,0,0-2.65,1.84,5.3,5.3,0,0,0-1,3.16,12.18,12.18,0,0,0,.83,4.51,12.18,12.18,0,0,0,2.13,4,5.31,5.31,0,0,0,2.74,1.79A5.72,5.72,0,0,0,161.62,24.61Z" transform="translate(0 -3.83)"/><path class="cls-2" d="M170.78,23.91,166,3.83l2.56.12,3.63,16,5.22-15.56,2,.1,3.7,16,5.22-15.56,2.55.12-6.73,19.54-2.34-.11L178.2,8.87,173.05,24Z" transform="translate(0 -3.83)"/><path class="cls-2" d="M185.86,25.1l7.75-18.25,11.51,4.89-.88,2L195.08,9.9l-2.53,6,8.25,3.5-.87,2.05-8.26-3.51L189.09,24l9.41,4-.89,2.08Z" transform="translate(0 -3.83)"/><path class="cls-2" d="M195.64,28.94l12.45-15.43,6,4.82a8.84,8.84,0,0,1,2.38,2.76,4.61,4.61,0,0,1,.5,2.8,5.64,5.64,0,0,1-1.27,2.71,5.56,5.56,0,0,1-2.13,1.73,5,5,0,0,1-2.21.43,7.59,7.59,0,0,1-2.05-.36l-2.62,9.45-2.09-1.69,2.55-8.92L203,23.89l-5.37,6.65Zm8.66-6.69L207.66,25a5.74,5.74,0,0,0,3.26,1.46,3.16,3.16,0,0,0,2.65-1.34,3.15,3.15,0,0,0,.8-2.73,4.67,4.67,0,0,0-1.78-2.54l-3.83-3.09Z" transform="translate(0 -3.83)"/><path class="cls-2" d="M210.14,41.92l21.09-.47,1,2.68L216.37,58l-.94-2.42,4.35-3.77-2.94-7.58-5.76.12ZM219.27,44l2.44,6.31,7.73-6.61Z" transform="translate(0 -3.83)"/><path class="cls-2" d="M237.35,62,240,42.37l2.57.34-2.34,17.4,9.29,1.25-.3,2.26Z" transform="translate(0 -3.83)"/><path class="cls-2" d="M246.57,62.92l8.09-18.11,11.42,5.11-.92,2-9.08-4.05-2.64,5.91,8.18,3.65-.91,2-8.19-3.66-2.7,6,9.34,4.2-.93,2.06Z" transform="translate(0 -3.83)"/><path class="cls-2" d="M257.89,67.87,272.16,54.1l.4.42.82.86c.33.33.67.68,1,1s.66.7.95,1a13.82,13.82,0,0,1,3.26,5.08,7.21,7.21,0,0,1-.05,4.68,13.85,13.85,0,0,1-7.85,7.45,7.48,7.48,0,0,1-4.85-.16A13.63,13.63,0,0,1,260.91,71Zm3.38.36,1.21,1.26A10.68,10.68,0,0,0,266,72a5.63,5.63,0,0,0,3.67.24,9.51,9.51,0,0,0,4-2.5,9.4,9.4,0,0,0,2.62-3.81,5.27,5.27,0,0,0-.13-3.59,11.05,11.05,0,0,0-2.39-3.52l-1.29-1.33Z" transform="translate(0 -3.83)"/><path class="cls-2" d="M271.19,85.78l19.68-2.52.81,6.33a9.47,9.47,0,0,1-.63,5.61,4.44,4.44,0,0,1-3.57,2.33,4.57,4.57,0,0,1-2.79-.47,5.85,5.85,0,0,1-2.19-2.6,6.82,6.82,0,0,1-.46,2,4.53,4.53,0,0,1-.92,1.42,4.15,4.15,0,0,1-1.28.87,6,6,0,0,1-1.55.41,4.54,4.54,0,0,1-4.22-1.39,10,10,0,0,1-2-5.5ZM273.61,88l.51,4a7.14,7.14,0,0,0,1.29,3.64,2.77,2.77,0,0,0,2.66,1,3.09,3.09,0,0,0,1.93-.89,3.62,3.62,0,0,0,.9-1.85,7.6,7.6,0,0,0,.05-2.44l-.55-4.29Zm8.93-1.14.54,4.28a8.6,8.6,0,0,0,.35,1.52,4.75,4.75,0,0,0,.7,1.34,2.89,2.89,0,0,0,1.12.9,2.72,2.72,0,0,0,1.59.2,2.79,2.79,0,0,0,2.38-1.64,6.32,6.32,0,0,0,.39-3.51l-.5-3.93Z" transform="translate(0 -3.83)"/><path class="cls-2" d="M271,104.87a8.94,8.94,0,0,1,1.79-3.87,5.14,5.14,0,0,1,3-1.69,9.93,9.93,0,0,1,4.1.22l12.38,2.94-.61,2.56-12.75-3a4.92,4.92,0,0,0-3.77.34,4.59,4.59,0,0,0-1.95,3,5.65,5.65,0,0,0-.08,2.6,3.64,3.64,0,0,0,1.17,1.93,5.79,5.79,0,0,0,2.48,1.16l12.75,3-.59,2.48-12.63-3a9.23,9.23,0,0,1-3.6-1.63,5.16,5.16,0,0,1-1.81-2.85A9.07,9.07,0,0,1,271,104.87Z" transform="translate(0 -3.83)"/><path class="cls-2" d="M269.76,110.71l16.7,10.7-1.4,2.19-14.79-9.47-5,7.89-1.91-1.23Z" transform="translate(0 -3.83)"/><path class="cls-2" d="M264.62,119.3l12.45,15.44-5,4a9.29,9.29,0,0,1-5.1,2.4,4.41,4.41,0,0,1-3.86-1.82,4.5,4.5,0,0,1-1.06-2.61,5.86,5.86,0,0,1,1.06-3.24,6.39,6.39,0,0,1-2,.68,4.53,4.53,0,0,1-1.69,0,4.07,4.07,0,0,1-1.41-.63,5.77,5.77,0,0,1-1.16-1.11,4.55,4.55,0,0,1-1-4.32,10.1,10.1,0,0,1,3.62-4.62Zm-.65,3.24-3.13,2.52a7.28,7.28,0,0,0-2.43,3,2.75,2.75,0,0,0,.58,2.77,3,3,0,0,0,1.76,1.17,3.58,3.58,0,0,0,2.05-.2,7.52,7.52,0,0,0,2.11-1.23l3.36-2.72Zm5.65,7-3.36,2.71a7.63,7.63,0,0,0-1.11,1.09,4.54,4.54,0,0,0-.78,1.29,2.92,2.92,0,0,0-.18,1.43,2.77,2.77,0,0,0,.66,1.46,2.83,2.83,0,0,0,2.65,1.18,6.45,6.45,0,0,0,3.2-1.52l3.08-2.48Z" transform="translate(0 -3.83)"/><path class="cls-2" d="M92.5,132.11v-47H81.13V79.62a32.74,32.74,0,0,0,8.36-.85,8.37,8.37,0,0,0,4.4-2.54A7.17,7.17,0,0,0,95.4,72.1h6.19v60Z" transform="translate(0 -3.83)"/><path class="cls-2" d="M135.24,132.11V117.34H107.15v-7.8L135,72.1h8.92v37.56h9.76v7.68h-9.76v14.77Zm-19.71-22.45h19.59V83.39Z" transform="translate(0 -3.83)"/><path class="cls-2" d="M168.36,132.11v-25.3h4.12l1.76,0a17.63,17.63,0,0,1,7.55,1.52,9.11,9.11,0,0,1,4.26,4.19,17.68,17.68,0,0,1-.11,13.81,9.5,9.5,0,0,1-4.44,4.3,17.32,17.32,0,0,1-7.59,1.45Zm3.33-2.78h2.22a13.52,13.52,0,0,0,5.39-1,7.06,7.06,0,0,0,3.47-3.16,14.71,14.71,0,0,0,0-11.64,6.74,6.74,0,0,0-3.4-3,14.1,14.1,0,0,0-5.36-.92h-2.36Z" transform="translate(0 -3.83)"/><path class="cls-2" d="M187.26,132.11l9.17-25.3h3.66l9.15,25.3h-3.3l-2.49-6.91H193.07l-2.5,6.91Zm6.67-9.9h8.63L198.25,110Z" transform="translate(0 -3.83)"/><path class="cls-2" d="M216.23,132.11V121.33l-8.63-14.52h3.53l6.72,11.64,6.62-11.64H228l-8.57,14.54v10.76Z" transform="translate(0 -3.83)"/><path class="cls-2" d="M236.84,132.46a13.86,13.86,0,0,1-3.52-.44,10.57,10.57,0,0,1-3-1.34,7.89,7.89,0,0,1-2.24-2.22,7,7,0,0,1-1.11-3.07h3.4a4.89,4.89,0,0,0,1.25,2.42,5.88,5.88,0,0,0,2.33,1.47,9,9,0,0,0,3,.49,8.42,8.42,0,0,0,3-.51,5.19,5.19,0,0,0,2.18-1.48,3.51,3.51,0,0,0,.82-2.33,3.19,3.19,0,0,0-1-2.43,7.31,7.31,0,0,0-3-1.48l-5.21-1.34A12.1,12.1,0,0,1,230.6,119a5.85,5.85,0,0,1-2.12-2.1,6.22,6.22,0,0,1-.77-3.24,6.08,6.08,0,0,1,1.19-3.75,7.71,7.71,0,0,1,3.22-2.49,11.5,11.5,0,0,1,4.62-.89,11,11,0,0,1,5,1,7.48,7.48,0,0,1,3.09,2.71,6.64,6.64,0,0,1,1,3.59h-3.33a4.89,4.89,0,0,0-1-2.74,4.78,4.78,0,0,0-2.13-1.45,8.31,8.31,0,0,0-2.78-.45,6,6,0,0,0-4.1,1.23,3.8,3.8,0,0,0-1.39,2.93,3.12,3.12,0,0,0,1,2.45,7,7,0,0,0,2.94,1.39l5.08,1.31a9.71,9.71,0,0,1,3.59,1.52,5.86,5.86,0,0,1,1.93,2.32,7,7,0,0,1,.59,2.86,6.33,6.33,0,0,1-1.18,3.75,7.86,7.86,0,0,1-3.28,2.58A12.19,12.19,0,0,1,236.84,132.46Z" transform="translate(0 -3.83)"/><path class="cls-2" d="M201.83,100V80.15h12.36v2.23h-9.74v6.55h8.75v2.2h-8.75V100Z" transform="translate(0 -3.83)"/><path class="cls-2" d="M223.44,100.26a8.62,8.62,0,0,1-4.59-1.19,7.77,7.77,0,0,1-3-3.47,14.92,14.92,0,0,1,0-11,7.79,7.79,0,0,1,3-3.49,9.23,9.23,0,0,1,9.12,0,7.76,7.76,0,0,1,3,3.48,15.24,15.24,0,0,1,0,11,7.74,7.74,0,0,1-3,3.47A8.51,8.51,0,0,1,223.44,100.26Zm0-2.21a5.67,5.67,0,0,0,3.12-.83,5.22,5.22,0,0,0,2-2.6,15.22,15.22,0,0,0,0-9,5.36,5.36,0,0,0-2-2.65,5.51,5.51,0,0,0-3.11-.85,5.57,5.57,0,0,0-3.12.86,5.46,5.46,0,0,0-2,2.65,12.48,12.48,0,0,0-.7,4.54,12.14,12.14,0,0,0,.7,4.48,5.32,5.32,0,0,0,2,2.6A5.72,5.72,0,0,0,223.44,98.05Z" transform="translate(0 -3.83)"/><path class="cls-2" d="M233.93,100V80.15h7.68a8.57,8.57,0,0,1,3.58.66,4.54,4.54,0,0,1,2.15,1.86,5.6,5.6,0,0,1,.72,2.9,5.67,5.67,0,0,1-.57,2.69A5.12,5.12,0,0,1,246,90a7.34,7.34,0,0,1-1.83,1l3.9,9h-2.69l-3.62-8.55h-5.33V100Zm2.54-10.65h4.32a5.64,5.64,0,0,0,3.45-.91,3.66,3.66,0,0,0,.13-5.33,4.7,4.7,0,0,0-3-.86h-4.92Z" transform="translate(0 -3.83)"/></g></g></svg>