<svg xmlns="http://www.w3.org/2000/svg" viewBox="0 0 335.93 159.77"><defs><style>.cls-1{fill:#1e9b9b;}.cls-2{fill:none;stroke:#1e9b9b;stroke-miterlimit:10;stroke-width:2px;}</style></defs><title>Asset 14</title><g id="Layer_2" data-name="Layer 2"><g id="Layer_1-2" data-name="Layer 1"><path class="cls-1" d="M163.91,38.05,153.17,27.32,157,23.53A7,7,0,0,1,159,22.05a3.39,3.39,0,0,1,2-.24,3.66,3.66,0,0,1,1.87,1.08A3.92,3.92,0,0,1,164,24.73a3.83,3.83,0,0,1,0,1.78,5.87,5.87,0,0,1-.59,1.51l7.47,3-.67.67L163,28.76l-3.6,3.61,5.11,5.1Zm-5.14-6.29,2.7-2.7a6.25,6.25,0,0,0,1.84-2.89,2.72,2.72,0,0,0-.92-2.55,2.72,2.72,0,0,0-2.35-1,4.75,4.75,0,0,0-2.51,1.49l-3.19,3.2Z" transform="translate(0 -3.23)"/><path class="cls-1" d="M172.79,29.65l-8.28-12.73,7.3-4.75.46.7-6.62,4.31,3.4,5.22,6.16-4,.47.72-6.16,4L173,28.46,179.87,24l.47.72Z" transform="translate(0 -3.23)"/><path class="cls-1" d="M182.12,23.8l-5.4-14.19.22-.08.54-.19c.21-.09.46-.18.74-.28l.86-.32a11.08,11.08,0,0,1,4.55-.86,5.18,5.18,0,0,1,3.26,1.39,9.43,9.43,0,0,1,2.24,3.62,9.39,9.39,0,0,1,.73,4.41,5.43,5.43,0,0,1-1.64,3.31,11.27,11.27,0,0,1-4,2.4Zm.54-1.12,1.18-.45a10.92,10.92,0,0,0,3.59-2.07A4.73,4.73,0,0,0,189,17.28a8.18,8.18,0,0,0-.64-4,8.11,8.11,0,0,0-2.24-3.5,4.61,4.61,0,0,0-3-1,11.61,11.61,0,0,0-3.89.85l-1.3.5Z" transform="translate(0 -3.23)"/><path class="cls-1" d="M198.85,19.17A6.34,6.34,0,0,1,196,19a3.5,3.5,0,0,1-1.87-1.48,7,7,0,0,1-.93-2.84L191.79,4.59l.9-.12,1.42,10.43a4.2,4.2,0,0,0,1.42,2.86,4.18,4.18,0,0,0,3.22.62A5.33,5.33,0,0,0,201,17.6a3,3,0,0,0,1.21-1.54,5,5,0,0,0,.16-2.29L201,3.34l.81-.11,1.42,10.38A6,6,0,0,1,203,16.4a3.57,3.57,0,0,1-1.44,1.85A6.5,6.5,0,0,1,198.85,19.17Z" transform="translate(0 -3.23)"/><path class="cls-1" d="M211.34,18.86a5.88,5.88,0,0,1-3.22-1.16,5.26,5.26,0,0,1-1.8-2.77A11.51,11.51,0,0,1,206,10.6a11.79,11.79,0,0,1,1.06-4.23,5.5,5.5,0,0,1,2.25-2.45,5.93,5.93,0,0,1,3.37-.6,5.43,5.43,0,0,1,2.59.87A5.23,5.23,0,0,1,216.94,6a4.78,4.78,0,0,1,.62,2.27l-.92-.08a4.92,4.92,0,0,0-.59-1.88,4.07,4.07,0,0,0-1.33-1.47,4.29,4.29,0,0,0-2.11-.69,4.89,4.89,0,0,0-2.89.52,4.64,4.64,0,0,0-1.9,2.17,11.6,11.6,0,0,0-.9,3.81,8.66,8.66,0,0,0,.82,5.29,5,5,0,0,0,5.87,1.72,4,4,0,0,0,1.56-1.21,5,5,0,0,0,.91-1.75l.92.08a4.67,4.67,0,0,1-.66,1.63,5.24,5.24,0,0,1-1.23,1.35,5,5,0,0,1-1.7.87A5.23,5.23,0,0,1,211.34,18.86Z" transform="translate(0 -3.23)"/><path class="cls-1" d="M218.74,19.65l4.47-14.51,8.33,2.56-.25.8-7.54-2.32-1.84,6,7,2.16-.25.83-7-2.17L219.78,19l7.82,2.44-.25.82Z" transform="translate(0 -3.23)"/><path class="cls-1" d="M233.13,25.53a7.74,7.74,0,0,1-1.62-1.2,5.8,5.8,0,0,1-1.08-1.47A4.43,4.43,0,0,1,230,21.2a4.53,4.53,0,0,1,.26-1.79l.8.45a3.6,3.6,0,0,0-.05,1.95,4.25,4.25,0,0,0,.93,1.7,5.91,5.91,0,0,0,1.62,1.3,5.58,5.58,0,0,0,2.11.72,3.76,3.76,0,0,0,1.91-.24,2.8,2.8,0,0,0,1.34-1.23,2.58,2.58,0,0,0,.31-1.82,4.32,4.32,0,0,0-1.27-2l-2.49-2.52a7.15,7.15,0,0,1-1.1-1.42,3.25,3.25,0,0,1-.46-1.56,3.41,3.41,0,0,1,.5-1.79,3.48,3.48,0,0,1,1.56-1.48,4.23,4.23,0,0,1,2.2-.39,5.89,5.89,0,0,1,2.43.77,5.78,5.78,0,0,1,2.16,1.92,4.43,4.43,0,0,1,.71,2.22,3.75,3.75,0,0,1-.48,2l-.8-.45a3.47,3.47,0,0,0,.33-2.12,3.43,3.43,0,0,0-.83-1.67,5.46,5.46,0,0,0-1.52-1.2,4.23,4.23,0,0,0-3-.63,2.9,2.9,0,0,0-2,1.45,2.26,2.26,0,0,0-.25,1.93,5,5,0,0,0,1.24,1.85l2.54,2.56a5,5,0,0,1,1.23,1.75,3.31,3.31,0,0,1,.22,1.61,4,4,0,0,1-.47,1.43A3.61,3.61,0,0,1,238.1,26a4.32,4.32,0,0,1-2.27.41A6.67,6.67,0,0,1,233.13,25.53Z" transform="translate(0 -3.23)"/><path class="cls-1" d="M248.8,38.48a5.84,5.84,0,0,1-1.45-3.1,5.33,5.33,0,0,1,.69-3.23,13.75,13.75,0,0,1,6.59-5.51,5.39,5.39,0,0,1,3.33-.13,5.75,5.75,0,0,1,2.8,2,5.19,5.19,0,0,1,1.09,4.93,4.93,4.93,0,0,1-1.17,2l-.59-.71A5.09,5.09,0,0,0,261,33a4.13,4.13,0,0,0,.1-2,4.41,4.41,0,0,0-1-2,4.94,4.94,0,0,0-2.41-1.68,4.56,4.56,0,0,0-2.87.19,11.29,11.29,0,0,0-3.34,2,8.67,8.67,0,0,0-3.17,4.31,4.47,4.47,0,0,0,1.15,4,4.36,4.36,0,0,0,1.77,1.33,4,4,0,0,0,2,.26,5,5,0,0,0,1.88-.59l.59.71a4.92,4.92,0,0,1-1.61.68,5.35,5.35,0,0,1-1.83.08,5.18,5.18,0,0,1-1.82-.59A5.24,5.24,0,0,1,248.8,38.48Z" transform="translate(0 -3.23)"/><path class="cls-1" d="M255.62,48.81a6,6,0,0,1-.7-3.35,5.67,5.67,0,0,1,1.38-3.09,10.7,10.7,0,0,1,3.47-2.59,11,11,0,0,1,4.17-1.26,5.8,5.8,0,0,1,3.33.73,6.5,6.5,0,0,1,3,5.88,5.62,5.62,0,0,1-1.4,3.07,11.13,11.13,0,0,1-3.52,2.59,10.81,10.81,0,0,1-4.13,1.26,5.6,5.6,0,0,1-3.29-.71A5.87,5.87,0,0,1,255.62,48.81Zm.77-.39a5.18,5.18,0,0,0,2,2.22,4.61,4.61,0,0,0,2.83.53A10.94,10.94,0,0,0,264.9,50a10.79,10.79,0,0,0,3.21-2.3,4.77,4.77,0,0,0,1.27-2.61A5.68,5.68,0,0,0,266.81,40a4.76,4.76,0,0,0-2.88-.56,10.3,10.3,0,0,0-3.74,1.19A10.43,10.43,0,0,0,257,42.9a4.69,4.69,0,0,0-1.23,2.63A5.09,5.09,0,0,0,256.39,48.42Z" transform="translate(0 -3.23)"/><path class="cls-1" d="M256.77,55.19l1.58.9c2,1.2,3.22,1.78,4.25,1.46a1.42,1.42,0,0,0,.93-2,3.15,3.15,0,0,0-1.14-1.49l.78-.7a4,4,0,0,1,1.59,2.19c.58,1.89-.36,3-1.45,3.37-1.5.46-3-.35-4.77-1.46l-.75-.45h-.05l1.06,3.44-1.11.34L256,55.41Z" transform="translate(0 -3.23)"/><path class="cls-1" d="M260.57,61.4l15-2.24,1.28,8.62-.83.12-1.16-7.81-6.17.92,1.08,7.27-.85.13-1.08-7.27-6.3.94,1.19,8.1-.85.13Z" transform="translate(0 -3.23)"/><path class="cls-1" d="M279.31,81.43l-.09-15.19,4.26,0a6.68,6.68,0,0,1,4,1,3.34,3.34,0,0,1,1.43,2.91,3.48,3.48,0,0,1-.66,2.19,4.37,4.37,0,0,1-2.32,1.38,5.49,5.49,0,0,1,1.48.43,3.58,3.58,0,0,1,1.07.77,2.92,2.92,0,0,1,.64,1.06,4.52,4.52,0,0,1,.22,1.37,3.43,3.43,0,0,1-1.48,3,7.42,7.42,0,0,1-4.19,1Zm.77-8.12,3.7,0a9.2,9.2,0,0,0,1.46-.13,5,5,0,0,0,1.4-.47,2.74,2.74,0,0,0,1-.93,2.79,2.79,0,0,0,.39-1.54,2.62,2.62,0,0,0-1.3-2.42,6.54,6.54,0,0,0-3.36-.74l-3.36,0Zm.05,7.25,3.4,0a7.89,7.89,0,0,0,3.7-.72,2.49,2.49,0,0,0,1.26-2.38,2.87,2.87,0,0,0-.65-2,3.49,3.49,0,0,0-1.71-1,8.61,8.61,0,0,0-2.34-.3l-3.7,0Z" transform="translate(0 -3.23)"/><path class="cls-1" d="M293.7,82.61l1.86-6.28-2.43-9.73.88.27,2.18,8.79,6.52-6.22.87.26-7.25,6.88-1.85,6.26Z" transform="translate(0 -3.23)"/><path class="cls-1" d="M308.42,90.52,316.9,81l-2.36-2.09.54-.62a11.14,11.14,0,0,0,1.7,1.3,1.47,1.47,0,0,0,1,.26,1.65,1.65,0,0,0,.79-.53l.55.48L309.09,91.12Z" transform="translate(0 -3.23)"/><path class="cls-1" d="M311.36,93.4l1.23-1.05.83,1-1.23,1.05Z" transform="translate(0 -3.23)"/><path class="cls-1" d="M315.08,98.31l10.8-6.86-1.69-2.66.69-.43a11.19,11.19,0,0,0,1.27,1.71,1.48,1.48,0,0,0,.93.54,1.58,1.58,0,0,0,.91-.3l.4.62-12.82,8.14Z" transform="translate(0 -3.23)"/><path class="cls-1" d="M319,105.6l14.86-3.13.18.84-8.57,1.81,10.23,6.08.23,1.11-7.07-4.18-7.73,7.61-.21-1,7.22-7.08-3.86-2.28-5.1,1.08Z" transform="translate(0 -3.23)"/><path class="cls-1" d="M320.36,121.85a5.88,5.88,0,0,1,1.26-3.15,5.54,5.54,0,0,1,2.84-1.75,11.15,11.15,0,0,1,4.33-.21A11.35,11.35,0,0,1,333,118a5.47,5.47,0,0,1,2.39,2.37,5.7,5.7,0,0,1,.51,3.35,4.65,4.65,0,0,1-.58,1.79,6.11,6.11,0,0,1-1.18,1.5,5.66,5.66,0,0,1-1.58,1,4.24,4.24,0,0,1-1.77.35l.11-.92a4.31,4.31,0,0,0,1.87-.54,4.94,4.94,0,0,0,1.53-1.35,4.07,4.07,0,0,0,.75-1.94,4.87,4.87,0,0,0-.44-2.84,4.94,4.94,0,0,0-2.09-2.06,10.33,10.33,0,0,0-3.78-1.08,11.22,11.22,0,0,0-3.07,0,6.13,6.13,0,0,0-2.28.78,4.37,4.37,0,0,0-1.49,1.47,5.31,5.31,0,0,0-.68,2.09,4.83,4.83,0,0,0,.19,2.15,4.43,4.43,0,0,0,1,1.58,4.91,4.91,0,0,0,1.39,1,4.72,4.72,0,0,0,1.49.46l1.75.21.5-4.22.73.09-.6,5-7.67-.9.1-.82,2.62.31a5.82,5.82,0,0,1-1.31-1.22,5.08,5.08,0,0,1-.83-1.68A5.2,5.2,0,0,1,320.36,121.85Z" transform="translate(0 -3.23)"/><path class="cls-2" d="M324.27,136.5a44.11,44.11,0,0,1-40,25.5h-245A38.29,38.29,0,1,1,55,88.81a57.33,57.33,0,0,1,90.17-29.52,62.7,62.7,0,0,1,9.68-21.57" transform="translate(0 -3.23)"/><path class="cls-1" d="M65,116.71a7.08,7.08,0,0,1-4-1,6.44,6.44,0,0,1-2.43-3.12,16.36,16.36,0,0,1,0-10.29A6.6,6.6,0,0,1,61,99.09,7,7,0,0,1,65,98a6.29,6.29,0,0,1,5.36,2.79,5.87,5.87,0,0,1,1,2.65H70.19a6.19,6.19,0,0,0-.9-2.19,5.08,5.08,0,0,0-1.74-1.61,5.25,5.25,0,0,0-2.59-.6,5.84,5.84,0,0,0-3.39.92,5.46,5.46,0,0,0-2,2.78,13.65,13.65,0,0,0-.68,4.64q0,4.18,1.52,6.23a5.36,5.36,0,0,0,4.59,2,5.25,5.25,0,0,0,2.59-.6,5,5,0,0,0,1.74-1.6,6.14,6.14,0,0,0,.9-2.18H71.3a5.73,5.73,0,0,1-.62,2A6.4,6.4,0,0,1,69.35,115a6.28,6.28,0,0,1-1.93,1.22A6.49,6.49,0,0,1,65,116.71Z" transform="translate(0 -3.23)"/><path class="cls-1" d="M81.23,116.71a7.19,7.19,0,0,1-4-1.07,6.75,6.75,0,0,1-2.56-3.13,15,15,0,0,1,0-10.25,6.88,6.88,0,0,1,2.56-3.16,7.78,7.78,0,0,1,7.89,0,6.83,6.83,0,0,1,2.53,3.16,13.22,13.22,0,0,1,.88,5.15,13,13,0,0,1-.88,5.1,6.83,6.83,0,0,1-2.53,3.14A7.09,7.09,0,0,1,81.23,116.71Zm0-1a6.13,6.13,0,0,0,3.42-.9,5.46,5.46,0,0,0,2.1-2.75,12.82,12.82,0,0,0,.71-4.62,13,13,0,0,0-.72-4.66A5.69,5.69,0,0,0,84.63,100a6.81,6.81,0,0,0-6.82,0,5.68,5.68,0,0,0-2.15,2.78,14.89,14.89,0,0,0,0,9.27,5.62,5.62,0,0,0,2.15,2.74A6.23,6.23,0,0,0,81.23,115.67Z" transform="translate(0 -3.23)"/><path class="cls-1" d="M91.29,119.22l1.58-1.48C95,115.85,96,114.67,96,113.39a1.71,1.71,0,0,0-1.91-1.76,3.85,3.85,0,0,0-2.12.78l-.52-1.14a4.92,4.92,0,0,1,3.06-1c2.37,0,3.35,1.48,3.35,2.84,0,1.89-1.43,3.27-3.35,5l-.78.71v0h4.3v1.38H91.29Z" transform="translate(0 -3.23)"/><path class="cls-1" d="M101.07,116.45V98.28H111.5v1h-9.45v7.47h8.8v1h-8.8v7.62l9.8,0v1Z" transform="translate(0 -3.23)"/><path class="cls-1" d="M106.09,88.62a7.13,7.13,0,0,1-4-1.05,6.44,6.44,0,0,1-2.43-3.12,13.93,13.93,0,0,1-.82-5.13,14.1,14.1,0,0,1,.82-5.16A6.52,6.52,0,0,1,102.13,71a7.05,7.05,0,0,1,4-1.07,6.39,6.39,0,0,1,3.17.77,6.3,6.3,0,0,1,2.2,2,6,6,0,0,1,1,2.64h-1.11a6.05,6.05,0,0,0-.89-2.18,5,5,0,0,0-1.75-1.61,5.14,5.14,0,0,0-2.59-.61,5.93,5.93,0,0,0-3.39.92,5.6,5.6,0,0,0-2,2.78,13.76,13.76,0,0,0-.68,4.65q0,4.19,1.53,6.23a5.34,5.34,0,0,0,4.58,2,5.25,5.25,0,0,0,2.59-.6,5,5,0,0,0,1.75-1.61,6.05,6.05,0,0,0,.89-2.18h1.11a5.71,5.71,0,0,1-.62,2A6.17,6.17,0,0,1,110.49,87a6.33,6.33,0,0,1-1.94,1.22A6.49,6.49,0,0,1,106.09,88.62Z" transform="translate(0 -3.23)"/><path class="cls-1" d="M122.36,88.62a7.18,7.18,0,0,1-4-1.06,6.85,6.85,0,0,1-2.57-3.14,12.79,12.79,0,0,1-.9-5.1,13,13,0,0,1,.9-5.14A6.88,6.88,0,0,1,118.41,71a7.18,7.18,0,0,1,4-1.07A7.1,7.1,0,0,1,126.3,71a6.74,6.74,0,0,1,2.52,3.15,13.24,13.24,0,0,1,.88,5.16,13,13,0,0,1-.88,5.1,6.78,6.78,0,0,1-2.52,3.13A7.1,7.1,0,0,1,122.36,88.62Zm0-1a6.11,6.11,0,0,0,3.43-.91,5.55,5.55,0,0,0,2.1-2.74,13,13,0,0,0,.71-4.62,12.79,12.79,0,0,0-.73-4.67,5.61,5.61,0,0,0-2.11-2.76,6,6,0,0,0-3.4-.92,6.15,6.15,0,0,0-3.42.92,5.83,5.83,0,0,0-2.15,2.78,12.73,12.73,0,0,0-.74,4.65,12.49,12.49,0,0,0,.74,4.62,5.63,5.63,0,0,0,2.15,2.74A6.15,6.15,0,0,0,122.36,87.59Z" transform="translate(0 -3.23)"/><path class="cls-1" d="M132.42,91.14,134,89.65c2.09-1.88,3.17-3.07,3.17-4.35a1.71,1.71,0,0,0-1.91-1.76,3.82,3.82,0,0,0-2.11.78l-.53-1.13a4.87,4.87,0,0,1,3.07-1.06c2.36,0,3.34,1.49,3.34,2.84,0,1.89-1.43,3.27-3.34,5l-.78.7v.05h4.3v1.39h-6.79Z" transform="translate(0 -3.23)"/><path class="cls-1" d="M142.2,88.37V70.19h10.43v1h-9.45v7.46H152v1h-8.8v7.62l9.81,0v1Z" transform="translate(0 -3.23)"/><path class="cls-1" d="M111.83,146.48a7.08,7.08,0,0,1-4-1,6.4,6.4,0,0,1-2.44-3.12,16.55,16.55,0,0,1,0-10.29,6.51,6.51,0,0,1,2.44-3.16,7,7,0,0,1,4-1.07,6.31,6.31,0,0,1,3.17.78,6.24,6.24,0,0,1,2.19,2,5.86,5.86,0,0,1,1,2.64h-1.1a6.22,6.22,0,0,0-.9-2.18,5.08,5.08,0,0,0-1.74-1.61,5.28,5.28,0,0,0-2.59-.61,5.89,5.89,0,0,0-3.4.93,5.5,5.5,0,0,0-2,2.78,13.41,13.41,0,0,0-.68,4.64c0,2.79.5,4.87,1.52,6.23a5.35,5.35,0,0,0,4.59,2,5.27,5.27,0,0,0,2.59-.6,5,5,0,0,0,1.74-1.6,6.22,6.22,0,0,0,.9-2.18h1.1a5.71,5.71,0,0,1-.61,2,6.4,6.4,0,0,1-1.33,1.74,6.28,6.28,0,0,1-1.93,1.22A6.57,6.57,0,0,1,111.83,146.48Z" transform="translate(0 -3.23)"/><path class="cls-1" d="M128.09,146.48a7.18,7.18,0,0,1-4-1.07,6.8,6.8,0,0,1-2.56-3.13,15,15,0,0,1,0-10.25,6.83,6.83,0,0,1,2.56-3.16,7.78,7.78,0,0,1,7.89,0,6.78,6.78,0,0,1,2.53,3.16,13.41,13.41,0,0,1,.88,5.15,13.17,13.17,0,0,1-.88,5.1,6.83,6.83,0,0,1-2.53,3.14A7.1,7.1,0,0,1,128.09,146.48Zm0-1a6.19,6.19,0,0,0,3.43-.9,5.46,5.46,0,0,0,2.1-2.75,15.41,15.41,0,0,0,0-9.28,5.69,5.69,0,0,0-2.11-2.77,6.75,6.75,0,0,0-6.82,0,5.68,5.68,0,0,0-2.15,2.78,14.7,14.7,0,0,0,0,9.27,5.62,5.62,0,0,0,2.15,2.74A6.17,6.17,0,0,0,128.09,145.44Z" transform="translate(0 -3.23)"/><path class="cls-1" d="M138.15,149l1.59-1.48c2.08-1.89,3.16-3.07,3.16-4.35A1.7,1.7,0,0,0,141,141.4a3.82,3.82,0,0,0-2.11.78l-.53-1.14a4.93,4.93,0,0,1,3.07-1c2.36,0,3.35,1.48,3.35,2.84,0,1.88-1.44,3.27-3.35,4.95l-.78.71v0h4.3v1.38h-6.79Z" transform="translate(0 -3.23)"/><path class="cls-1" d="M147.93,146.22V128h10.44v1h-9.46v7.47h8.8v1h-8.8v7.62l9.81,0v1Z" transform="translate(0 -3.23)"/><path class="cls-1" d="M37.08,146.48a7.08,7.08,0,0,1-4-1,6.4,6.4,0,0,1-2.44-3.12,16.55,16.55,0,0,1,0-10.29,6.51,6.51,0,0,1,2.44-3.16,7,7,0,0,1,4-1.07,6.27,6.27,0,0,1,3.16.78,6.18,6.18,0,0,1,2.2,2,5.86,5.86,0,0,1,1,2.64h-1.1a6.22,6.22,0,0,0-.9-2.18,5.08,5.08,0,0,0-1.74-1.61,5.28,5.28,0,0,0-2.59-.61,5.89,5.89,0,0,0-3.4.93,5.5,5.5,0,0,0-2,2.78,13.41,13.41,0,0,0-.68,4.64c0,2.79.5,4.87,1.52,6.23a5.35,5.35,0,0,0,4.59,2,5.27,5.27,0,0,0,2.59-.6,5,5,0,0,0,1.74-1.6,6.22,6.22,0,0,0,.9-2.18h1.1a5.71,5.71,0,0,1-.61,2,6.4,6.4,0,0,1-1.33,1.74A6.21,6.21,0,0,1,39.53,146,6.48,6.48,0,0,1,37.08,146.48Z" transform="translate(0 -3.23)"/><path class="cls-1" d="M53.34,146.48a7.18,7.18,0,0,1-4-1.07,6.74,6.74,0,0,1-2.56-3.13,15,15,0,0,1,0-10.25,6.77,6.77,0,0,1,2.56-3.16,7.78,7.78,0,0,1,7.89,0A6.78,6.78,0,0,1,59.81,132a13.41,13.41,0,0,1,.88,5.15,13.17,13.17,0,0,1-.88,5.1,6.83,6.83,0,0,1-2.53,3.14A7.1,7.1,0,0,1,53.34,146.48Zm0-1a6.19,6.19,0,0,0,3.43-.9,5.46,5.46,0,0,0,2.1-2.75,15.41,15.41,0,0,0,0-9.28,5.71,5.71,0,0,0-2.12-2.77,6.75,6.75,0,0,0-6.82,0,5.8,5.8,0,0,0-2.15,2.78,14.89,14.89,0,0,0,0,9.27,5.73,5.73,0,0,0,2.15,2.74A6.23,6.23,0,0,0,53.34,145.44Z" transform="translate(0 -3.23)"/><path class="cls-1" d="M63.4,149,65,147.51c2.08-1.89,3.16-3.07,3.16-4.35a1.7,1.7,0,0,0-1.91-1.76,3.82,3.82,0,0,0-2.11.78L63.6,141a4.93,4.93,0,0,1,3.07-1C69,140,70,141.47,70,142.83c0,1.88-1.43,3.27-3.34,4.95l-.78.71v0h4.3v1.38H63.4Z" transform="translate(0 -3.23)"/><path class="cls-1" d="M73.18,146.22V128H83.62v1H74.16v7.47H83v1h-8.8v7.62l9.81,0v1Z" transform="translate(0 -3.23)"/></g></g></svg>