<svg xmlns="http://www.w3.org/2000/svg" viewBox="0 0 310.46 157.93"><defs><style>.cls-1{fill:#fff;}.cls-2{fill:none;stroke:#fff;stroke-linecap:round;stroke-linejoin:round;stroke-width:4.03px;}</style></defs><title>Asset 3</title><g id="Layer_2" data-name="Layer 2"><g id="CLOUDS"><path class="cls-1" d="M67.85,109.15v-26H78.18A11.26,11.26,0,0,1,83,84a6.11,6.11,0,0,1,2.84,2.52,8.71,8.71,0,0,1,.23,7.38,6.77,6.77,0,0,1-1.84,2.29,10,10,0,0,1-2.36,1.39l5,11.55H82.85L78.22,98.26H71.7v10.89Zm3.85-14h5.44A6.61,6.61,0,0,0,81.35,94a4,4,0,0,0,1.5-3.38,4,4,0,0,0-1.36-3.27,5.61,5.61,0,0,0-3.68-1.12H71.7Z" transform="translate(-3.78 -2.9)"/><path class="cls-1" d="M91,109.15v-26h16.81l0,3.34H94.82v7.91h11.53v3.31H94.8v8.06l13.26,0v3.38Z" transform="translate(-3.78 -2.9)"/><path class="cls-1" d="M112.35,109.15v-26h.85c.48,0,1,0,1.72,0H117l1.88,0a18,18,0,0,1,7.76,1.6A9.54,9.54,0,0,1,131,89.1,15.44,15.44,0,0,1,132.4,96a15.68,15.68,0,0,1-1.5,7.18,9.81,9.81,0,0,1-4.56,4.46,17.33,17.33,0,0,1-7.76,1.52Zm3.92-3.24h2.34a12.71,12.71,0,0,0,5.14-1,7,7,0,0,0,3.39-3.13A11.9,11.9,0,0,0,128.35,96a12,12,0,0,0-1.15-5.68,6.7,6.7,0,0,0-3.31-3,13,13,0,0,0-5.17-.93h-2.45Z" transform="translate(-3.78 -2.9)"/><path class="cls-1" d="M145.88,109.51a11.91,11.91,0,0,1-5.65-1.15,6.86,6.86,0,0,1-3.12-3.37,13.16,13.16,0,0,1-1-5.4V83.13h4v17a6.22,6.22,0,0,0,1.52,4.6,5.83,5.83,0,0,0,4.26,1.5,7.09,7.09,0,0,0,3.14-.65,4.51,4.51,0,0,0,2-2,7.56,7.56,0,0,0,.7-3.43v-17h3.9V99.9a12.17,12.17,0,0,1-1,5.19,7,7,0,0,1-3.16,3.29A12.13,12.13,0,0,1,145.88,109.51Z" transform="translate(-3.78 -2.9)"/><path class="cls-1" d="M170,109.51a10.88,10.88,0,0,1-6-1.63,10.38,10.38,0,0,1-3.86-4.64A17.78,17.78,0,0,1,158.73,96a17.48,17.48,0,0,1,1.33-7.15,10,10,0,0,1,3.86-4.53A11.29,11.29,0,0,1,170,82.76a10.5,10.5,0,0,1,5,1.16,9.61,9.61,0,0,1,3.5,3.09,9.23,9.23,0,0,1,1.57,4.3h-4.1a7.39,7.39,0,0,0-1-2.67,5.58,5.58,0,0,0-2-1.89,6.14,6.14,0,0,0-3-.69,6.62,6.62,0,0,0-3.76,1,6.38,6.38,0,0,0-2.35,3.26,17.19,17.19,0,0,0-.8,5.71q0,5.27,1.78,7.71a6,6,0,0,0,5.13,2.44,5.75,5.75,0,0,0,3-.75,5.89,5.89,0,0,0,2-2,7.86,7.86,0,0,0,1-2.72H180a11.66,11.66,0,0,1-.9,3.28,9.37,9.37,0,0,1-1.89,2.82,8.56,8.56,0,0,1-3,2A11.43,11.43,0,0,1,170,109.51Z" transform="translate(-3.78 -2.9)"/><path class="cls-1" d="M183.77,109.15v-26h16.81l0,3.34H187.64v7.91h11.54v3.31H187.62v8.06l13.27,0v3.38Z" transform="translate(-3.78 -2.9)"/><path class="cls-1" d="M77.84,145.51a11.2,11.2,0,0,1-6.15-1.64,10.64,10.64,0,0,1-3.94-4.68A17.34,17.34,0,0,1,66.38,132a16.8,16.8,0,0,1,1.36-7.11,10.23,10.23,0,0,1,3.94-4.53,11.54,11.54,0,0,1,6.16-1.58,10.72,10.72,0,0,1,5.08,1.17,9.77,9.77,0,0,1,3.57,3.14,9.36,9.36,0,0,1,1.61,4.41H83.48a7.31,7.31,0,0,0-1-2.58,5.52,5.52,0,0,0-1.92-1.8,5.76,5.76,0,0,0-2.84-.66A5.62,5.62,0,0,0,72,126.52a16.58,16.58,0,0,0-.76,5.51q0,5.13,1.69,7.47a5.58,5.58,0,0,0,4.81,2.34,5.29,5.29,0,0,0,2.84-.73,5.66,5.66,0,0,0,1.92-1.94,8.13,8.13,0,0,0,1-2.66H88.1a12.65,12.65,0,0,1-.89,3.39,9.24,9.24,0,0,1-1.9,2.89,8.5,8.5,0,0,1-3.07,2A11.85,11.85,0,0,1,77.84,145.51Z" transform="translate(-3.78 -2.9)"/><path class="cls-1" d="M102,145.51a11.83,11.83,0,0,1-6.22-1.58,10.45,10.45,0,0,1-4-4.57,16.38,16.38,0,0,1-1.43-7.17A16.6,16.6,0,0,1,91.74,125a10.63,10.63,0,0,1,4.07-4.6,11.67,11.67,0,0,1,6.19-1.61,11.45,11.45,0,0,1,6.14,1.61,10.55,10.55,0,0,1,4,4.6,19,19,0,0,1,0,14.38,10.44,10.44,0,0,1-4,4.57A11.64,11.64,0,0,1,102,145.51Zm0-3.67a6.5,6.5,0,0,0,3.65-1,6.26,6.26,0,0,0,2.35-3.11,15.32,15.32,0,0,0,.82-5.48,15.92,15.92,0,0,0-.83-5.59,6.49,6.49,0,0,0-2.36-3.2,7,7,0,0,0-7.3,0A6.6,6.6,0,0,0,96,126.68a15.57,15.57,0,0,0-.85,5.57,15,15,0,0,0,.85,5.48,6.36,6.36,0,0,0,2.38,3.11A6.57,6.57,0,0,0,102,141.84Z" transform="translate(-3.78 -2.9)"/><path class="cls-1" d="M114.42,149.11l2.26-2.12c3-2.7,4.54-4.39,4.54-6.23a2.44,2.44,0,0,0-2.74-2.52,5.49,5.49,0,0,0-3,1.12l-.75-1.62a7,7,0,0,1,4.39-1.51c3.38,0,4.78,2.12,4.78,4.06,0,2.7-2,4.68-4.78,7.09l-1.12,1v.07h6.16v2h-9.72Z" transform="translate(-3.78 -2.9)"/><path class="cls-1" d="M139.86,144.79V129.05h10.4v2.28h-7.73v4.4h6.83V138H142.5v4.5l7.92,0v2.29Z" transform="translate(-3.78 -2.9)"/><path class="cls-1" d="M152.89,144.79V129.05h3.78l4.13,12,4.17-12h3.77v15.74h-2.69V132.45l-4.15,12.34h-2.21l-4.11-12.27v12.27Z" transform="translate(-3.78 -2.9)"/><path class="cls-1" d="M171.68,144.79V129.05h2.64v15.74Z" transform="translate(-3.78 -2.9)"/><path class="cls-1" d="M182.91,145a8.78,8.78,0,0,1-2.25-.29,6.85,6.85,0,0,1-2-.86,5.07,5.07,0,0,1-1.46-1.42,4.4,4.4,0,0,1-.71-2h2.74a2.79,2.79,0,0,0,.7,1.34,3.19,3.19,0,0,0,1.31.82,5.21,5.21,0,0,0,1.77.29,5,5,0,0,0,1.62-.26,2.92,2.92,0,0,0,1.22-.78,1.81,1.81,0,0,0,.47-1.28,1.64,1.64,0,0,0-.6-1.35,4.65,4.65,0,0,0-1.73-.76l-3.08-.73a7.1,7.1,0,0,1-2.08-.8,3.73,3.73,0,0,1-1.38-1.38,4.09,4.09,0,0,1-.49-2.09,3.93,3.93,0,0,1,.78-2.44,5,5,0,0,1,2.12-1.61,7.76,7.76,0,0,1,3-.56,7.4,7.4,0,0,1,3.23.64,4.85,4.85,0,0,1,2,1.7,4.36,4.36,0,0,1,.69,2.35h-2.67a2.77,2.77,0,0,0-.56-1.5,2.68,2.68,0,0,0-1.19-.8,4.7,4.7,0,0,0-1.59-.25,3.38,3.38,0,0,0-2.29.66,2,2,0,0,0-.75,1.56,1.69,1.69,0,0,0,.55,1.33,4,4,0,0,0,1.7.76L185,136a6.36,6.36,0,0,1,2.36.94,3.77,3.77,0,0,1,1.3,1.5,4.45,4.45,0,0,1,.41,1.91,4,4,0,0,1-.78,2.43,5.17,5.17,0,0,1-2.15,1.65A7.89,7.89,0,0,1,182.91,145Z" transform="translate(-3.78 -2.9)"/><path class="cls-1" d="M197,145a8.8,8.8,0,0,1-2.26-.29,6.91,6.91,0,0,1-2-.86,5.24,5.24,0,0,1-1.47-1.42,4.39,4.39,0,0,1-.7-2h2.74a2.87,2.87,0,0,0,.69,1.34,3.25,3.25,0,0,0,1.31.82,5.27,5.27,0,0,0,1.78.29,5,5,0,0,0,1.62-.26,3,3,0,0,0,1.22-.78,1.85,1.85,0,0,0,.47-1.28,1.62,1.62,0,0,0-.61-1.35,4.53,4.53,0,0,0-1.72-.76l-3.08-.73a7.17,7.17,0,0,1-2.09-.8,3.7,3.7,0,0,1-1.37-1.38,4.09,4.09,0,0,1-.49-2.09,3.93,3.93,0,0,1,.77-2.44,5,5,0,0,1,2.12-1.61,7.82,7.82,0,0,1,3-.56,7.47,7.47,0,0,1,3.23.64,4.75,4.75,0,0,1,2,1.7,4.37,4.37,0,0,1,.7,2.35h-2.68a2.49,2.49,0,0,0-1.74-2.3,4.74,4.74,0,0,0-1.59-.25,3.41,3.41,0,0,0-2.3.66,2,2,0,0,0-.75,1.56,1.69,1.69,0,0,0,.56,1.33,4,4,0,0,0,1.7.76L199,136a6.48,6.48,0,0,1,2.37.94,3.85,3.85,0,0,1,1.3,1.5,4.45,4.45,0,0,1,.41,1.91,4,4,0,0,1-.78,2.43,5.23,5.23,0,0,1-2.15,1.65A7.93,7.93,0,0,1,197,145Z" transform="translate(-3.78 -2.9)"/><path class="cls-1" d="M205.22,144.79V129.05h2.64v15.74Z" transform="translate(-3.78 -2.9)"/><path class="cls-1" d="M217.07,145a7.13,7.13,0,0,1-3.76-1,6.35,6.35,0,0,1-2.45-2.76,11.37,11.37,0,0,1,0-8.7,6.45,6.45,0,0,1,2.46-2.79,7.13,7.13,0,0,1,3.74-1,7,7,0,0,1,3.72,1,6.39,6.39,0,0,1,2.43,2.79,11.47,11.47,0,0,1,0,8.69,6.31,6.31,0,0,1-2.42,2.77A7.08,7.08,0,0,1,217.07,145Zm0-2.22a3.87,3.87,0,0,0,2.21-.61,3.76,3.76,0,0,0,1.42-1.88,9.3,9.3,0,0,0,.5-3.31,9.68,9.68,0,0,0-.5-3.38,4,4,0,0,0-1.43-1.94,4.2,4.2,0,0,0-4.41,0,4.05,4.05,0,0,0-1.45,1.94,9.37,9.37,0,0,0-.51,3.37,9.06,9.06,0,0,0,.51,3.31,3.68,3.68,0,0,0,3.66,2.49Z" transform="translate(-3.78 -2.9)"/><path class="cls-1" d="M226.23,144.79V129.05h2.59l7.71,11.25V129.05h2.64v15.74h-2.38l-7.92-11.55v11.55Z" transform="translate(-3.78 -2.9)"/><path class="cls-1" d="M247.76,145a8.78,8.78,0,0,1-2.25-.29,6.85,6.85,0,0,1-2-.86,5.07,5.07,0,0,1-1.46-1.42,4.4,4.4,0,0,1-.71-2h2.74a2.79,2.79,0,0,0,.7,1.34,3.19,3.19,0,0,0,1.31.82,5.21,5.21,0,0,0,1.77.29,5,5,0,0,0,1.62-.26,3,3,0,0,0,1.22-.78,1.85,1.85,0,0,0,.47-1.28,1.64,1.64,0,0,0-.6-1.35,4.65,4.65,0,0,0-1.73-.76l-3.08-.73a7.1,7.1,0,0,1-2.08-.8,3.73,3.73,0,0,1-1.38-1.38,4.09,4.09,0,0,1-.49-2.09,3.93,3.93,0,0,1,.78-2.44,5,5,0,0,1,2.12-1.61,7.76,7.76,0,0,1,3-.56,7.4,7.4,0,0,1,3.23.64,4.85,4.85,0,0,1,2,1.7,4.36,4.36,0,0,1,.69,2.35H251a2.77,2.77,0,0,0-.56-1.5,2.68,2.68,0,0,0-1.19-.8,4.74,4.74,0,0,0-1.59-.25,3.38,3.38,0,0,0-2.29.66,2,2,0,0,0-.75,1.56,1.69,1.69,0,0,0,.55,1.33,4,4,0,0,0,1.7.76l2.93.68a6.36,6.36,0,0,1,2.36.94,3.77,3.77,0,0,1,1.3,1.5,4.45,4.45,0,0,1,.41,1.91,4,4,0,0,1-.78,2.43,5.17,5.17,0,0,1-2.15,1.65A7.89,7.89,0,0,1,247.76,145Z" transform="translate(-3.78 -2.9)"/><path class="cls-1" d="M18.2,137.61l-1.8.78-4.72-10.86,1.8-.78Zm5.59-2.42L22,136l-4.73-10.85,1.81-.79Z" transform="translate(-3.78 -2.9)"/><path class="cls-1" d="M24,123.44,3.88,117l-.1-2.86,19.56-7.89.09,2.59L18.09,111l.3,8.13,5.48,1.76ZM16,118.5l-.25-6.75-9.46,3.72Z" transform="translate(-3.78 -2.9)"/><path class="cls-1" d="M24.81,102.21,7.47,92.59l3.73-6.72a8.68,8.68,0,0,1,2.3-2.81,4.6,4.6,0,0,1,2.68-1,5.69,5.69,0,0,1,2.88.78,5.71,5.71,0,0,1,2.08,1.81,5,5,0,0,1,.8,2.1,7.25,7.25,0,0,1,0,2.08l9.75,1-1.3,2.35-9.23-1-2.59,4.67L26,100Zm-8.07-7.38,2.09-3.78a5.61,5.61,0,0,0,.88-3.46,3.16,3.16,0,0,0-1.77-2.39,3.15,3.15,0,0,0-2.82-.31,4.65,4.65,0,0,0-2.21,2.19l-2.39,4.3Z" transform="translate(-3.78 -2.9)"/><path class="cls-1" d="M33.06,89.44l-14-14,1.79-1.8,14,14Z" transform="translate(-3.78 -2.9)"/><path class="cls-1" d="M35.92,85.85,26.34,68.48l.51-.27,1-.58,1.28-.7,1.22-.65a13.8,13.8,0,0,1,5.75-1.82,7.14,7.14,0,0,1,4.51,1.27,13.75,13.75,0,0,1,5.15,9.52,7.46,7.46,0,0,1-1.42,4.63,13.53,13.53,0,0,1-4.66,3.87Zm1.23-3.17,1.52-.84A10.62,10.62,0,0,0,42,79.13a5.5,5.5,0,0,0,1.19-3.48,9.27,9.27,0,0,0-1.38-4.47,9.42,9.42,0,0,0-3-3.53,5.27,5.27,0,0,0-3.49-.81,11,11,0,0,0-4,1.4l-1.63.89Z" transform="translate(-3.78 -2.9)"/><path class="cls-1" d="M63.6,73.44,43.81,74.78,43,62.3l2.23-.13.67,9.92,6.46-.44-.61-8.94,2.22-.15.61,9,6.59-.44-.66-10.21,2.26-.16Z" transform="translate(-3.78 -2.9)"/><path class="cls-1" d="M66.69,48.65a8.5,8.5,0,0,1-2.9,3.74,7.83,7.83,0,0,1-4.36,1.37A13.14,13.14,0,0,1,54,52.55a13.12,13.12,0,0,1-4.66-3.16,7.8,7.8,0,0,1-2-4.13,9.2,9.2,0,0,1,3.59-8.37,7.82,7.82,0,0,1,4.37-1.35,13.26,13.26,0,0,1,5.51,1.24,13.2,13.2,0,0,1,4.64,3.12,7.64,7.64,0,0,1,2,4.08A8.42,8.42,0,0,1,66.69,48.65Zm-2-.87a5.63,5.63,0,0,0,.47-3.21,5.21,5.21,0,0,0-1.6-2.83,12.62,12.62,0,0,0-3.85-2.4,12.85,12.85,0,0,0-4.46-1.17A5.36,5.36,0,0,0,52,39a5.42,5.42,0,0,0-2,2.52,5.52,5.52,0,0,0-.44,3.2,5.42,5.42,0,0,0,1.64,2.88A12.64,12.64,0,0,0,55.1,50a12.1,12.1,0,0,0,4.39,1.13,5.32,5.32,0,0,0,3.18-.81A5.62,5.62,0,0,0,64.66,47.78Z" transform="translate(-3.78 -2.9)"/><path class="cls-1" d="M70.43,40.73,55.94,27.18l8.44-9L66,19.69,59.34,26.8l4.79,4.48,6-6.4,1.6,1.5-6,6.4,6.48,6Z" transform="translate(-3.78 -2.9)"/><path class="cls-1" d="M85.26,27.66,73.73,10.53l2.44-.78,9,13.68L84.61,7l1.89-.61,9.08,13.66L95,3.68l2.43-.78L98,23.55l-2.23.72L86.92,11l.5,16Z" transform="translate(-3.78 -2.9)"/><path class="cls-1" d="M102.21,22.93l2.72-19.65,2.51.35L106.28,12l10.6,1.47L118,5.1l2.51.35-2.72,19.64-2.51-.34,1.26-9.07L106,14.22l-1.26,9.06Z" transform="translate(-3.78 -2.9)"/><path class="cls-1" d="M125.05,29.53a8.46,8.46,0,0,1-3.34-3.35,7.8,7.8,0,0,1-.82-4.5,13.06,13.06,0,0,1,1.88-5.26,13.18,13.18,0,0,1,3.72-4.24,7.85,7.85,0,0,1,4.36-1.48,9.21,9.21,0,0,1,7.85,4.61,7.81,7.81,0,0,1,.79,4.51,13.22,13.22,0,0,1-1.92,5.31,13.18,13.18,0,0,1-3.68,4.21,7.67,7.67,0,0,1-4.3,1.48A8.39,8.39,0,0,1,125.05,29.53Zm1.12-1.9a5.65,5.65,0,0,0,3.12.87,5.26,5.26,0,0,0,3-1.24,12.58,12.58,0,0,0,2.86-3.52,12.83,12.83,0,0,0,1.72-4.27,5.36,5.36,0,0,0-.36-3.28A6,6,0,0,0,131.15,13a5.36,5.36,0,0,0-3.07,1.26,12.54,12.54,0,0,0-2.91,3.56,12.24,12.24,0,0,0-1.67,4.22,5.26,5.26,0,0,0,.41,3.25A5.66,5.66,0,0,0,126.17,27.63Z" transform="translate(-3.78 -2.9)"/><path class="cls-1" d="M132.43,34.26,147.62,21.5l1.67,2-13.44,11.3,6,7.17-1.74,1.46Z" transform="translate(-3.78 -2.9)"/><path class="cls-1" d="M155.38,46.42,142.64,31.23l9.58-8,1.43,1.72L146,31.3l4.16,5,6.86-5.76,1.43,1.71L151.61,38,155.86,43l7.85-6.56,1.46,1.74Z" transform="translate(-3.78 -2.9)"/><path class="cls-1" d="M171.29,35.68,164.2,17.16l2.37-.91,7.1,18.52Z" transform="translate(-3.78 -2.9)"/><path class="cls-1" d="M182.54,33a10.37,10.37,0,0,1-2.78,0,8.11,8.11,0,0,1-2.48-.73,5.94,5.94,0,0,1-2-1.49,5.41,5.41,0,0,1-1.18-2.27l2.63-.35A4,4,0,0,0,178,29.9a4.69,4.69,0,0,0,2,.9,7,7,0,0,0,2.42.06,6.52,6.52,0,0,0,2.25-.7,4,4,0,0,0,1.54-1.37,2.75,2.75,0,0,0,.4-1.9,2.47,2.47,0,0,0-1-1.78,5.63,5.63,0,0,0-2.51-.84l-4.19-.51a8.91,8.91,0,0,1-2.55-.63,4.62,4.62,0,0,1-1.87-1.41,5,5,0,0,1-.94-2.45,4.9,4.9,0,0,1,.54-3A6.12,6.12,0,0,1,176.28,14a8.89,8.89,0,0,1,3.49-1.16,8.66,8.66,0,0,1,4,.28,6,6,0,0,1,2.68,1.79,5.19,5.19,0,0,1,1.18,2.68l-2.58.34a3.85,3.85,0,0,0-1.08-2,3.77,3.77,0,0,0-1.8-.91,6.76,6.76,0,0,0-2.21-.06,4.77,4.77,0,0,0-3.06,1.38,3,3,0,0,0-.78,2.42,2.48,2.48,0,0,0,1,1.81,5.48,5.48,0,0,0,2.43.77l4.08.49a7.76,7.76,0,0,1,3,.81,4.58,4.58,0,0,1,1.73,1.61,5.25,5.25,0,0,1,.75,2.16,4.91,4.91,0,0,1-.52,3,6.22,6.22,0,0,1-2.28,2.34A9.48,9.48,0,0,1,182.54,33Z" transform="translate(-3.78 -2.9)"/><path class="cls-1" d="M190.5,32.07l3.36-19.54,2.55.43-3,17.31,9.24,1.58-.39,2.24Z" transform="translate(-3.78 -2.9)"/><path class="cls-1" d="M201.59,33.51l15.75-14,2.52,1.36L216.75,41.7l-2.29-1.23.87-5.69-7.16-3.87-4.3,3.84Zm8.29-4.34,6,3.21,1.59-10Z" transform="translate(-3.78 -2.9)"/><path class="cls-1" d="M216.49,41.71l15-13,1.59,1.83-4.76,18,11.64-10.11,1.66,1.91-15,13-1.48-1.71L230,33.37l-11.8,10.26Z" transform="translate(-3.78 -2.9)"/><path class="cls-1" d="M227.16,54.55l18.58-6.94.2.54.41,1.12c.17.43.34.89.51,1.36l.47,1.3a13.69,13.69,0,0,1,1,6,7.13,7.13,0,0,1-1.91,4.27A11.71,11.71,0,0,1,241.79,65a12,12,0,0,1-5.57.87,7.44,7.44,0,0,1-4.38-2.08,13.58,13.58,0,0,1-3.15-5.17Zm3,1.68.61,1.63a10.44,10.44,0,0,0,2.19,3.69,5.58,5.58,0,0,0,3.27,1.69,11.63,11.63,0,0,0,8.56-3.17,5.27,5.27,0,0,0,1.3-3.34,10.85,10.85,0,0,0-.79-4.18l-.65-1.74Z" transform="translate(-3.78 -2.9)"/><path class="cls-1" d="M244.16,90.31,232.6,74.19l2.11-1.51L245,86.94l7.61-5.47,1.32,1.85Z" transform="translate(-3.78 -2.9)"/><path class="cls-1" d="M254.92,83.54,247.81,65l2.37-.91,7.11,18.51Z" transform="translate(-3.78 -2.9)"/><path class="cls-1" d="M258.71,81.31l-1.06-19.8,2.42-.13,11.29,14.83-.82-15.4,2.53-.13,1.06,19.8-2.25.12-11.47-15,.84,15.61Z" transform="translate(-3.78 -2.9)"/><path class="cls-1" d="M274.81,81l7-18.55,11.7,4.43-.8,2.08-9.3-3.52-2.29,6.06,8.37,3.17-.78,2.08-8.39-3.18L278,79.71l9.56,3.64-.8,2.12Z" transform="translate(-3.78 -2.9)"/><path class="cls-1" d="M285.88,85.7,287.69,83l2.5,1.68-1.8,2.69Z" transform="translate(-3.78 -2.9)"/><path class="cls-2" d="M26.88,145.45A45.15,45.15,0,0,0,59,158.82H268.28a43.94,43.94,0,0,0,33.35-72.56" transform="translate(-3.78 -2.9)"/></g></g></svg>