<svg xmlns="http://www.w3.org/2000/svg" viewBox="0 0 304.72 150.11"><defs><style>.cls-1{fill:#fff;}.cls-2{fill:none;stroke:#fff;stroke-miterlimit:10;stroke-width:5px;}</style></defs><title>Asset 24</title><g id="Layer_2" data-name="Layer 2"><g id="CLOUDS"><path class="cls-1" d="M55.52,90.47V87.55H71.47v2.91Zm0,8.06V95.6l15.95,0v2.94Z" transform="translate(0 -2.5)"/><path class="cls-1" d="M80.69,105.55l9.39-26h4.25l9.38,26H99.82l-2.45-6.82H87.06l-2.47,6.82ZM88,95.24h8.35l-4.17-12Z" transform="translate(0 -2.5)"/><path class="cls-1" d="M114,105.55v-26h10.33a11.29,11.29,0,0,1,4.81.89A6.08,6.08,0,0,1,132,83a7.6,7.6,0,0,1,.94,3.87,7.81,7.81,0,0,1-.71,3.51,6.83,6.83,0,0,1-1.84,2.28A9.87,9.87,0,0,1,128,94l5,11.55H129l-4.62-10.89h-6.52v10.89Zm3.85-14h5.44a6.63,6.63,0,0,0,4.21-1.18,4.61,4.61,0,0,0,.14-6.65A5.68,5.68,0,0,0,124,82.6h-6.1Z" transform="translate(0 -2.5)"/><path class="cls-1" d="M137.13,105.55v-26H141v26Z" transform="translate(0 -2.5)"/><path class="cls-1" d="M146.13,105.55v-26H147c.47,0,1,0,1.72,0h2.06l1.88,0a18.09,18.09,0,0,1,7.76,1.6,9.54,9.54,0,0,1,4.38,4.34,17.8,17.8,0,0,1-.1,14.07,9.86,9.86,0,0,1-4.56,4.46,17.41,17.41,0,0,1-7.77,1.52Zm3.93-3.24h2.34a12.71,12.71,0,0,0,5.14-1,7.09,7.09,0,0,0,3.39-3.13,12,12,0,0,0,1.21-5.81A11.89,11.89,0,0,0,161,86.73a6.68,6.68,0,0,0-3.3-3,13,13,0,0,0-5.17-.92h-2.45Z" transform="translate(0 -2.5)"/><path class="cls-1" d="M169.91,105.55v-26h16.81l0,3.34H173.78v7.91h11.54v3.31H173.76v8.06l13.27,0v3.38Z" transform="translate(0 -2.5)"/><path class="cls-1" d="M62.27,131.79a7.69,7.69,0,0,1-4.08-1,6.84,6.84,0,0,1-2.65-3,12.87,12.87,0,0,1,0-9.63A7,7,0,0,1,58.21,115a8.27,8.27,0,0,1,8.1,0A7,7,0,0,1,69,118.08a13,13,0,0,1,0,9.62,7,7,0,0,1-2.64,3A7.59,7.59,0,0,1,62.27,131.79Zm0-2.19a4.62,4.62,0,0,0,2.59-.7,4.37,4.37,0,0,0,1.64-2.17,10.84,10.84,0,0,0,.56-3.78,11,11,0,0,0-.57-3.86,4.51,4.51,0,0,0-1.64-2.22,4.62,4.62,0,0,0-2.58-.71A4.27,4.27,0,0,0,58,119.1a10.73,10.73,0,0,0-.58,3.85,10.41,10.41,0,0,0,.58,3.79,4.4,4.4,0,0,0,1.68,2.16A4.61,4.61,0,0,0,62.27,129.6Z" transform="translate(0 -2.5)"/><path class="cls-1" d="M72.37,131.55V114.2H83.45v2.21H75v5.36h7.53V124H75v7.59Z" transform="translate(0 -2.5)"/><path class="cls-1" d="M90.53,131.55V114.2H93.1v17.35Z" transform="translate(0 -2.5)"/><path class="cls-1" d="M102.58,131.79a9.33,9.33,0,0,1-2.44-.31,7.57,7.57,0,0,1-2.13-.93A5.36,5.36,0,0,1,96.44,129a4.94,4.94,0,0,1-.77-2.16h2.67a3.21,3.21,0,0,0,.82,1.57,3.67,3.67,0,0,0,1.52,1,6,6,0,0,0,2,.33,5.36,5.36,0,0,0,1.91-.33,3.48,3.48,0,0,0,1.42-.93,2.19,2.19,0,0,0,.54-1.5,2,2,0,0,0-.67-1.58,4.84,4.84,0,0,0-2-.93l-3.48-.87a8.21,8.21,0,0,1-2.22-.85,4.15,4.15,0,0,1-1.49-1.48A4.51,4.51,0,0,1,96.2,119a4.28,4.28,0,0,1,.83-2.64,5.39,5.39,0,0,1,2.27-1.73,8.14,8.14,0,0,1,3.24-.61,7.83,7.83,0,0,1,3.5.7,5.32,5.32,0,0,1,2.16,1.87,4.54,4.54,0,0,1,.75,2.53h-2.61a3.16,3.16,0,0,0-.66-1.77,3.07,3.07,0,0,0-1.38-.95,5.64,5.64,0,0,0-1.84-.28,4,4,0,0,0-2.67.78,2.44,2.44,0,0,0-.89,1.87,2,2,0,0,0,.65,1.57,4.61,4.61,0,0,0,1.94.89l3.36.83a6.77,6.77,0,0,1,2.54,1,4.11,4.11,0,0,1,1.37,1.62,4.9,4.9,0,0,1,.42,2,4.31,4.31,0,0,1-.83,2.62,5.56,5.56,0,0,1-2.31,1.8A8.44,8.44,0,0,1,102.58,131.79Z" transform="translate(0 -2.5)"/><path class="cls-1" d="M111.68,131.55V114.2h2.6v15.1h8v2.25Z" transform="translate(0 -2.5)"/><path class="cls-1" d="M123.64,131.55l6.27-17.35h2.83L139,131.55H136.4L134.77,127h-6.88l-1.65,4.54Zm4.89-6.87h5.56l-2.78-8Z" transform="translate(0 -2.5)"/><path class="cls-1" d="M141.12,131.55V114.2h2.49l8.83,12.94V114.2H155v17.35h-2.3l-9-13.2v13.2Z" transform="translate(0 -2.5)"/><path class="cls-1" d="M158.44,131.55V114.2h3.09l1.25,0a12,12,0,0,1,5.18,1.06,6.41,6.41,0,0,1,2.92,2.9,10.26,10.26,0,0,1,.93,4.59,10.36,10.36,0,0,1-1,4.78,6.6,6.6,0,0,1-3,3,11.58,11.58,0,0,1-5.18,1Zm2.62-2.16h1.56a8.38,8.38,0,0,0,3.42-.64,4.67,4.67,0,0,0,2.26-2.09,9.66,9.66,0,0,0,0-7.65,4.47,4.47,0,0,0-2.2-2,8.75,8.75,0,0,0-3.45-.62h-1.63Z" transform="translate(0 -2.5)"/><path class="cls-1" d="M179,131.55l0-17.35h2.6v15.1h8v2.25Z" transform="translate(0 -2.5)"/><path class="cls-1" d="M191.94,131.55V114.2h2.57v17.35Z" transform="translate(0 -2.5)"/><path class="cls-1" d="M197.94,131.55V114.2h2.49l8.83,12.94V114.2h2.58v17.35h-2.3l-9-13.2v13.2Z" transform="translate(0 -2.5)"/><path class="cls-1" d="M215.26,131.55V114.2h11.21l0,2.23h-8.61v5.27h7.69v2.21h-7.7v5.38h8.84v2.25Z" transform="translate(0 -2.5)"/><path class="cls-1" d="M150.54,31.84l-9.27-17.53,6.78-3.6a8.75,8.75,0,0,1,3.47-1.09,4.55,4.55,0,0,1,2.78.64,5.59,5.59,0,0,1,2,2.23,5.72,5.72,0,0,1,.75,2.64,5.1,5.1,0,0,1-.47,2.2,7.7,7.7,0,0,1-1.14,1.74l7.65,6.13-2.38,1.26-7.2-5.86-4.71,2.5,4,7.55Zm-2.73-10.6,3.81-2a5.65,5.65,0,0,0,2.63-2.42,3.16,3.16,0,0,0-.18-3,3.15,3.15,0,0,0-2.19-1.8,4.66,4.66,0,0,0-3,.63L144.48,15Z" transform="translate(0 -2.5)"/><path class="cls-1" d="M163.45,25.34,160,5.81,172.3,3.63l.38,2.2-9.79,1.74L164,13.94l8.82-1.56.38,2.18-8.83,1.57,1.16,6.51,10.08-1.76.39,2.23Z" transform="translate(0 -2.5)"/><path class="cls-1" d="M176.42,23.1,179.2,3.47l.57.08,1.18.17,1.44.2,1.37.22a13.65,13.65,0,0,1,5.69,2,7.17,7.17,0,0,1,2.84,3.72,11.79,11.79,0,0,1,.31,5.39,12,12,0,0,1-1.9,5.31,7.46,7.46,0,0,1-3.92,2.85,13.44,13.44,0,0,1-6.05.3Zm2.89-1.79,1.72.24a10.58,10.58,0,0,0,4.29-.16,5.54,5.54,0,0,0,3-2.07A9.48,9.48,0,0,0,190,14.91a9.42,9.42,0,0,0-.28-4.62,5.32,5.32,0,0,0-2.31-2.74,10.91,10.91,0,0,0-4.05-1.3L181.47,6Z" transform="translate(0 -2.5)"/><path class="cls-1" d="M197.29,28.86A9,9,0,0,1,194,26.19,5.21,5.21,0,0,1,193,22.9,9.85,9.85,0,0,1,194.24,19l5.82-11.3,2.34,1.2-6,11.65a4.86,4.86,0,0,0-.58,3.74,4.58,4.58,0,0,0,2.49,2.62,5.58,5.58,0,0,0,2.5.7,3.51,3.51,0,0,0,2.15-.67,5.74,5.74,0,0,0,1.72-2.13l6-11.64L213,14.31,207,25.84A9.11,9.11,0,0,1,204.56,29a5.16,5.16,0,0,1-3.2,1.07A9,9,0,0,1,197.29,28.86Z" transform="translate(0 -2.5)"/><path class="cls-1" d="M209,37.78a8.24,8.24,0,0,1-2.27-4.14,7.75,7.75,0,0,1,.54-4.51,13.84,13.84,0,0,1,3.31-4.54,13.52,13.52,0,0,1,4.64-3.08,7.4,7.4,0,0,1,4.48-.31,8.37,8.37,0,0,1,4,2.48A7.64,7.64,0,0,1,225.68,27a7.26,7.26,0,0,1,.13,3.49,7,7,0,0,1-1.5,3l-1.87-1.95a5.77,5.77,0,0,0,.94-2.07,4.59,4.59,0,0,0,0-2.21,4.84,4.84,0,0,0-1.25-2.12,5.18,5.18,0,0,0-2.71-1.61,5.08,5.08,0,0,0-3.18.44,13.19,13.19,0,0,0-3.69,2.65q-3,2.87-3.41,5.23a4.81,4.81,0,0,0,1.46,4.33,4.53,4.53,0,0,0,4.34,1.4,6.39,6.39,0,0,0,2.13-.87l1.87,2a8.39,8.39,0,0,1-2.23,1.19,6.92,6.92,0,0,1-2.51.4,6.55,6.55,0,0,1-2.61-.62A8.39,8.39,0,0,1,209,37.78Z" transform="translate(0 -2.5)"/><path class="cls-1" d="M214.15,43.19,232,34.51l5.47,11.25-2,1-4.35-8.95-5.82,2.84,3.92,8.05-2,1-3.92-8.06-6,2.89,4.45,9.21-2,1Z" transform="translate(0 -2.5)"/><path class="cls-1" d="M219.85,55,239.5,52.4c0,.06,0,.26.07.58s.09.71.16,1.18.13.94.19,1.44.12.95.17,1.37a13.84,13.84,0,0,1-.4,6,7.11,7.11,0,0,1-2.81,3.73,11.82,11.82,0,0,1-5.11,1.76,12,12,0,0,1-5.63-.41,7.43,7.43,0,0,1-3.8-3,13.61,13.61,0,0,1-1.92-5.75Zm2.5,2.29.23,1.73a10.66,10.66,0,0,0,1.32,4.08,5.55,5.55,0,0,0,2.81,2.37,11.5,11.5,0,0,0,9-1.18,5.22,5.22,0,0,0,2-3,10.73,10.73,0,0,0,.16-4.25l-.24-1.84Z" transform="translate(0 -2.5)"/><path class="cls-1" d="M254.7,72.49a8.24,8.24,0,0,1-4.64-.83,7.72,7.72,0,0,1-3.16-3.26A13.85,13.85,0,0,1,245.45,63a13.68,13.68,0,0,1,.53-5.55,7.46,7.46,0,0,1,2.57-3.67A8.4,8.4,0,0,1,253,52.18a7.78,7.78,0,0,1,3.78.56,7.31,7.31,0,0,1,2.79,2.1A7,7,0,0,1,261,57.93l-2.7.23a5.66,5.66,0,0,0-1-2,4.65,4.65,0,0,0-1.73-1.37,4.79,4.79,0,0,0-2.44-.36,5.27,5.27,0,0,0-3,1.09,5.17,5.17,0,0,0-1.66,2.75,13.56,13.56,0,0,0-.26,4.53q.34,4.14,1.92,5.95a4.81,4.81,0,0,0,4.28,1.59,4.55,4.55,0,0,0,3.83-2.49,6.28,6.28,0,0,0,.65-2.2l2.69-.23a8.07,8.07,0,0,1-.47,2.48,7.07,7.07,0,0,1-1.27,2.21,6.63,6.63,0,0,1-2.13,1.63A8.09,8.09,0,0,1,254.7,72.49Z" transform="translate(0 -2.5)"/><path class="cls-1" d="M268.19,74.29a8.63,8.63,0,0,1-3.93-2.63,7.73,7.73,0,0,1-1.68-4.25A14.92,14.92,0,0,1,266.21,57a7.93,7.93,0,0,1,4-2.31,8.53,8.53,0,0,1,4.7.36,8.43,8.43,0,0,1,3.91,2.63,7.89,7.89,0,0,1,1.65,4.26,13.2,13.2,0,0,1-.84,5.59,13.1,13.1,0,0,1-2.78,4.84,7.67,7.67,0,0,1-3.93,2.3A8.5,8.5,0,0,1,268.19,74.29Zm.73-2.09a5.52,5.52,0,0,0,3.23.24,5.16,5.16,0,0,0,2.71-1.8,12.67,12.67,0,0,0,2.11-4,12.85,12.85,0,0,0,.85-4.53,5.3,5.3,0,0,0-1-3.14,6.08,6.08,0,0,0-5.88-2,5.43,5.43,0,0,0-2.76,1.84A12.48,12.48,0,0,0,266,62.82a12.36,12.36,0,0,0-.82,4.46,5.36,5.36,0,0,0,1,3.11A5.63,5.63,0,0,0,268.92,72.2Z" transform="translate(0 -2.5)"/><path class="cls-1" d="M272.72,78.33l2.35-.27c3.06-.3,4.77-.63,5.6-1.76a1.86,1.86,0,0,0-.53-2.78,4.27,4.27,0,0,0-2.36-.69l.27-1.33a5.36,5.36,0,0,1,3.38,1.06c2.07,1.54,2,3.47,1.09,4.66-1.23,1.66-3.38,1.94-6.15,2.18l-1.14.11,0,0L279,82.34l-.9,1.22-5.95-4.41Z" transform="translate(0 -2.5)"/><path class="cls-1" d="M280.12,80.46l15.55-12.31L303.43,78l-1.76,1.38-6.17-7.8-5.08,4,5.56,7L294.24,84l-5.57-7L283.49,81l6.33,8L288,90.47Z" transform="translate(0 -2.5)"/><path class="cls-2" d="M299,89c13.34,41.14-17.67,61.09-41.94,61.09H47.8a45.29,45.29,0,0,1-5.68-90.23C42,58.64,42,57.39,42,56.13a51.12,51.12,0,0,1,95.57-25.27" transform="translate(0 -2.5)"/></g></g></svg>