<svg xmlns="http://www.w3.org/2000/svg" viewBox="0 0 177.17 110.76"><defs><style>.cls-1{fill:none;stroke:#1e9b9b;stroke-miterlimit:10;stroke-width:2px;}.cls-2{fill:#1e9b9b;}</style></defs><title>Asset 15</title><g id="Layer_2" data-name="Layer 2"><g id="Layer_1-2" data-name="Layer 1"><path class="cls-1" d="M158.36,106.35a31.26,31.26,0,0,1-17.72,5.48H40.7a39.71,39.71,0,1,1,6.11-78.95A35.12,35.12,0,0,1,67,10" transform="translate(0 -2.07)"/><path class="cls-2" d="M72.3,13.3l-1.72-10,3.53-.61a4.45,4.45,0,0,1,1.71,0A2.2,2.2,0,0,1,77,3.31a2.45,2.45,0,0,1,.6,1.32,2.58,2.58,0,0,1-.09,1.43,2.5,2.5,0,0,1-.68,1,3.76,3.76,0,0,1-.91.6l2.92,4.53-.62.11L75.39,7.86,72,8.44l.82,4.76Zm-.38-5.43,2.52-.43a4.23,4.23,0,0,0,2.13-.87,1.8,1.8,0,0,0,.48-1.75,1.87,1.87,0,0,0-.91-1.44,3.18,3.18,0,0,0-2-.15l-3,.51Z" transform="translate(0 -2.07)"/><path class="cls-2" d="M80.19,12.19,81,2.07l5.81.47,0,.56-5.26-.43-.34,4.16,4.9.4,0,.58-4.9-.4-.35,4.24,5.46.46,0,.57Z" transform="translate(0 -2.07)"/><path class="cls-2" d="M87.32,12.91,90.7,3.33l.15,0,.36.13.5.18.58.21A7.3,7.3,0,0,1,95,5.43a3.44,3.44,0,0,1,1.07,2.12,6.53,6.53,0,0,1-.42,2.82,6.3,6.3,0,0,1-1.54,2.56,3.66,3.66,0,0,1-2.27,1,7.57,7.57,0,0,1-3.09-.52Zm.77-.34.79.28a7.4,7.4,0,0,0,2.74.49,3.18,3.18,0,0,0,2-.8,5.47,5.47,0,0,0,1.4-2.32,5.43,5.43,0,0,0,.37-2.76,3,3,0,0,0-1.11-1.83A7.56,7.56,0,0,0,92,4.38l-.87-.31Z" transform="translate(0 -2.07)"/><path class="cls-2" d="M97.58,17.83a4.28,4.28,0,0,1-1.34-1.4A2.38,2.38,0,0,1,96,14.85,4.83,4.83,0,0,1,96.83,13l3.9-5.57.5.35-4,5.77a2.78,2.78,0,0,0-.6,2.05,2.75,2.75,0,0,0,1.3,1.76,3.51,3.51,0,0,0,1.46.65,2.09,2.09,0,0,0,1.3-.21,3.26,3.26,0,0,0,1.12-1.06l4-5.77.45.32-4,5.75a3.87,3.87,0,0,1-1.36,1.28,2.35,2.35,0,0,1-1.54.26A4.36,4.36,0,0,1,97.58,17.83Z" transform="translate(0 -2.07)"/><path class="cls-2" d="M103.53,23.31a3.94,3.94,0,0,1-1-2.08,3.55,3.55,0,0,1,.48-2.15A7.64,7.64,0,0,1,105,16.89a7.93,7.93,0,0,1,2.52-1.48,3.61,3.61,0,0,1,2.22-.08,3.93,3.93,0,0,1,1.88,1.33,3.5,3.5,0,0,1,.7,3.3,3.2,3.2,0,0,1-.79,1.36l-.39-.47a3.47,3.47,0,0,0,.62-1.17,2.8,2.8,0,0,0,.07-1.32,2.82,2.82,0,0,0-.66-1.33,3.26,3.26,0,0,0-1.61-1.14,3.06,3.06,0,0,0-1.92.12,7.58,7.58,0,0,0-2.24,1.36,5.78,5.78,0,0,0-2.14,2.87A3,3,0,0,0,104,23a3.06,3.06,0,0,0,1.18.9,3,3,0,0,0,1.32.18,3.55,3.55,0,0,0,1.26-.39l.39.47a3.05,3.05,0,0,1-1.08.45,3.38,3.38,0,0,1-1.23.05,3.54,3.54,0,0,1-2.28-1.3Z" transform="translate(0 -2.07)"/><path class="cls-2" d="M106.48,27.11l9.19-4.35L118.16,28l-.51.24-2.26-4.78-3.77,1.78,2.1,4.45-.52.25-2.1-4.45-3.85,1.82,2.33,5-.52.25Z" transform="translate(0 -2.07)"/><path class="cls-2" d="M119.36,33.77a5.15,5.15,0,0,1-1.24-.53,3.42,3.42,0,0,1-.93-.79,2.72,2.72,0,0,1-.56-1,2.8,2.8,0,0,1-.11-1.2l.59.17a2.44,2.44,0,0,0,.27,1.27,3,3,0,0,0,.87,1,4.06,4.06,0,0,0,1.26.59,3.84,3.84,0,0,0,1.48.14,2.54,2.54,0,0,0,1.21-.46,1.85,1.85,0,0,0,.68-1,1.78,1.78,0,0,0-.08-1.23,2.93,2.93,0,0,0-1.15-1.12l-2-1.25a4.7,4.7,0,0,1-.94-.75,2.23,2.23,0,0,1-.54-.94,2.56,2.56,0,0,1,.83-2.46,2.88,2.88,0,0,1,1.37-.59,4,4,0,0,1,1.71.13,3.78,3.78,0,0,1,1.7.91,2.93,2.93,0,0,1,.81,1.33,2.49,2.49,0,0,1,0,1.38l-.59-.17a2.38,2.38,0,0,0-.12-1.43,2.29,2.29,0,0,0-.79-.95,3.86,3.86,0,0,0-1.18-.55,2.84,2.84,0,0,0-2.05.06,1.9,1.9,0,0,0-1.07,1.25,1.55,1.55,0,0,0,.13,1.3,3.51,3.51,0,0,0,1.1,1l2.06,1.27a3.5,3.5,0,0,1,1.07.95,2.19,2.19,0,0,1,.39,1,2.58,2.58,0,0,1-.08,1,2.46,2.46,0,0,1-.78,1.23,2.84,2.84,0,0,1-1.42.62A4.34,4.34,0,0,1,119.36,33.77Z" transform="translate(0 -2.07)"/><path class="cls-2" d="M130.42,40.2a3.94,3.94,0,0,1-1.16-2,3.57,3.57,0,0,1,.26-2.2,9.2,9.2,0,0,1,4-4.08,3.63,3.63,0,0,1,2.21-.3,3.92,3.92,0,0,1,2,1.13,3.59,3.59,0,0,1,.95,1.55A3.52,3.52,0,0,1,138.8,36a3.4,3.4,0,0,1-.65,1.43l-.44-.44a3.54,3.54,0,0,0,.5-1.22,2.81,2.81,0,0,0-.06-1.32,2.87,2.87,0,0,0-.79-1.26,3.33,3.33,0,0,0-1.71-1,3.11,3.11,0,0,0-1.9.3,7.9,7.9,0,0,0-2.1,1.58,5.89,5.89,0,0,0-1.85,3.08,3,3,0,0,0,1,2.61,2.86,2.86,0,0,0,1.26.78,2.82,2.82,0,0,0,1.32,0,3.37,3.37,0,0,0,1.22-.51l.44.43a3.14,3.14,0,0,1-1,.55,3.48,3.48,0,0,1-1.21.18,3.76,3.76,0,0,1-1.25-.28A3.7,3.7,0,0,1,130.42,40.2Z" transform="translate(0 -2.07)"/><path class="cls-2" d="M135.07,46.51a4,4,0,0,1-.48-2.23,3.76,3.76,0,0,1,.91-2.08,7.21,7.21,0,0,1,2.31-1.74,7.31,7.31,0,0,1,2.79-.87,3.91,3.91,0,0,1,2.23.47,4.06,4.06,0,0,1,1.54,1.7,4,4,0,0,1,.47,2.23,3.85,3.85,0,0,1-.93,2.06,7.3,7.3,0,0,1-2.34,1.75,7.43,7.43,0,0,1-2.76.86,3.76,3.76,0,0,1-2.21-.46A4,4,0,0,1,135.07,46.51Zm.51-.26a3.46,3.46,0,0,0,1.33,1.48,3.1,3.1,0,0,0,1.9.34,7.11,7.11,0,0,0,2.48-.82,7.33,7.33,0,0,0,2.13-1.55,3.17,3.17,0,0,0,.84-1.75,3.39,3.39,0,0,0-.41-1.93,3.42,3.42,0,0,0-1.33-1.47,3.28,3.28,0,0,0-1.93-.36A8.4,8.4,0,0,0,136,42.55a3.19,3.19,0,0,0-.82,1.77A3.47,3.47,0,0,0,135.58,46.25Z" transform="translate(0 -2.07)"/><path class="cls-2" d="M141.17,55l1-.73c1.27-.94,1.94-1.53,2-2.25a1,1,0,0,0-1-1.08,2.14,2.14,0,0,0-1.21.31l-.23-.65a2.68,2.68,0,0,1,1.76-.42c1.31.13,1.78,1,1.7,1.77-.11,1-1,1.73-2.14,2.56l-.47.35v0l2.39.24-.08.77-3.77-.38Z" transform="translate(0 -2.07)"/><path class="cls-2" d="M145.75,54.23l3-9.71,5.57,1.73-.16.54-5-1.57-1.24,4,4.7,1.45-.17.55-4.7-1.45-1.26,4.07,5.23,1.63-.17.55Z" transform="translate(0 -2.07)"/><path class="cls-2" d="M154.73,57.75l6.38-7.91,2.22,1.79A4.39,4.39,0,0,1,165,53.82a2.23,2.23,0,0,1-.49,2.11,2.26,2.26,0,0,1-1.27.85,2.91,2.91,0,0,1-1.78-.26,3.89,3.89,0,0,1,.58.85,2.51,2.51,0,0,1,.23.85,1.93,1.93,0,0,1-.12.82,3.08,3.08,0,0,1-.47.81,2.28,2.28,0,0,1-2.05.95A4.92,4.92,0,0,1,157,59.56Zm.79-.11,1.77,1.43a5.25,5.25,0,0,0,2.23,1.19,1.63,1.63,0,0,0,1.65-.69,2,2,0,0,0,.5-1.29,2.42,2.42,0,0,0-.45-1.26,5.58,5.58,0,0,0-1.09-1.15l-1.93-1.55Zm3-3.77,1.92,1.55a5.33,5.33,0,0,0,.82.55,3.12,3.12,0,0,0,.92.35,1.7,1.7,0,0,0,1.78-.67,1.77,1.77,0,0,0,.36-1.81A4.38,4.38,0,0,0,162.94,52l-1.75-1.41Z" transform="translate(0 -2.07)"/><path class="cls-2" d="M161.8,64.5,165.38,62l2.73-6.13.36.5L166,61.86l6-.58.35.49-6.66.63-3.56,2.54Z" transform="translate(0 -2.07)"/><path class="cls-2" d="M166.49,74.81l8.37-1.76L174.43,71l.54-.11a7.69,7.69,0,0,0,.39,1.38,1,1,0,0,0,.46.55,1.12,1.12,0,0,0,.64,0l.1.48-9.95,2.09Z" transform="translate(0 -2.07)"/><path class="cls-2" d="M166.93,77.57l1.08-.09.07.85-1.08.08Z" transform="translate(0 -2.07)"/><path class="cls-2" d="M167,81.75l8.54.48.12-2.1.55,0a7.08,7.08,0,0,0,0,1.43,1,1,0,0,0,.3.65,1.08,1.08,0,0,0,.61.19l0,.49L167,82.36Z" transform="translate(0 -2.07)"/><path class="cls-2" d="M166.33,87.33l9.4,3.86-.22.53-5.42-2.23,3.37,7.22-.29.71-2.34-5-7.14,1.3.27-.64,6.66-1.2-1.28-2.71-3.23-1.33Z" transform="translate(0 -2.07)"/><path class="cls-2" d="M161,97a3.9,3.9,0,0,1,1.86-1.3,3.63,3.63,0,0,1,2.23,0,8.93,8.93,0,0,1,4.39,3.68,3.71,3.71,0,0,1,.47,2.2,3.82,3.82,0,0,1-.94,2.07,3.44,3.44,0,0,1-1,.79,4,4,0,0,1-1.21.4,3.55,3.55,0,0,1-1.26,0,2.81,2.81,0,0,1-1.12-.45l.4-.48a2.78,2.78,0,0,0,1.25.39,3.29,3.29,0,0,0,1.35-.2,2.64,2.64,0,0,0,1.13-.81,3.27,3.27,0,0,0,.79-1.75,3.34,3.34,0,0,0-.41-1.92,6.84,6.84,0,0,0-1.73-2,7.35,7.35,0,0,0-1.72-1.13,4.19,4.19,0,0,0-1.56-.4,2.89,2.89,0,0,0-1.37.29,3.51,3.51,0,0,0-1.15.92,3.2,3.2,0,0,0-.67,1.27,2.91,2.91,0,0,0-.05,1.24,3.33,3.33,0,0,0,.41,1.09,2.8,2.8,0,0,0,.66.8l.91.76,1.82-2.18.38.32-2.18,2.6-4-3.32.36-.42,1.35,1.13a3.72,3.72,0,0,1-.28-1.16,3.38,3.38,0,0,1,.15-1.25A3.47,3.47,0,0,1,161,97Z" transform="translate(0 -2.07)"/><path class="cls-2" d="M26.72,59.12a5,5,0,0,1-2.81-.75,4.53,4.53,0,0,1-1.73-2.21,9.91,9.91,0,0,1-.58-3.65,10,10,0,0,1,.58-3.66,4.66,4.66,0,0,1,1.73-2.24,5,5,0,0,1,2.81-.76A4.52,4.52,0,0,1,29,46.4a4.58,4.58,0,0,1,1.56,1.43,4.18,4.18,0,0,1,.69,1.88h-.78a4.32,4.32,0,0,0-.64-1.55A3.49,3.49,0,0,0,28.56,47a3.66,3.66,0,0,0-1.84-.44,4.19,4.19,0,0,0-2.41.66,4,4,0,0,0-1.44,2,9.75,9.75,0,0,0-.48,3.3,7.41,7.41,0,0,0,1.08,4.43,3.8,3.8,0,0,0,3.25,1.45A3.66,3.66,0,0,0,28.56,58a3.49,3.49,0,0,0,1.24-1.14,4.32,4.32,0,0,0,.64-1.55h.78a4,4,0,0,1-.43,1.43,4.68,4.68,0,0,1-.94,1.23,4.56,4.56,0,0,1-1.38.87A4.7,4.7,0,0,1,26.72,59.12Z" transform="translate(0 -2.07)"/><path class="cls-2" d="M38.28,59.12a5.13,5.13,0,0,1-2.81-.75,4.83,4.83,0,0,1-1.82-2.23A9,9,0,0,1,33,52.51a9.18,9.18,0,0,1,.64-3.65,4.81,4.81,0,0,1,1.82-2.24,5.51,5.51,0,0,1,5.6,0,4.84,4.84,0,0,1,1.8,2.24,9.58,9.58,0,0,1,.62,3.66,9.37,9.37,0,0,1-.62,3.62,4.81,4.81,0,0,1-1.8,2.23A5,5,0,0,1,38.28,59.12Zm0-.73a4.44,4.44,0,0,0,2.43-.64,3.92,3.92,0,0,0,1.49-2,9.07,9.07,0,0,0,.51-3.28,9.23,9.23,0,0,0-.52-3.31,4,4,0,0,0-1.5-2,4.24,4.24,0,0,0-2.41-.66,4.31,4.31,0,0,0-2.43.66,4.11,4.11,0,0,0-1.53,2,9,9,0,0,0-.52,3.3,8.9,8.9,0,0,0,.52,3.29,4,4,0,0,0,1.53,2A4.46,4.46,0,0,0,38.28,58.39Z" transform="translate(0 -2.07)"/><path class="cls-2" d="M45.42,60.91l1.12-1.06c1.49-1.34,2.25-2.18,2.25-3.09a1.21,1.21,0,0,0-1.35-1.25,2.74,2.74,0,0,0-1.5.56l-.38-.81a3.48,3.48,0,0,1,2.18-.75,2.09,2.09,0,0,1,2.37,2c0,1.34-1,2.32-2.37,3.52l-.55.5v0h3.05v1H45.42Z" transform="translate(0 -2.07)"/><path class="cls-2" d="M52.37,58.94V46h7.41v.72H53.06v5.3h6.25v.73H53.06v5.41l7,0v.73Z" transform="translate(0 -2.07)"/><path class="cls-2" d="M56.22,78.37a5,5,0,0,1-2.81-.75,4.53,4.53,0,0,1-1.73-2.21,11.81,11.81,0,0,1,0-7.31,4.66,4.66,0,0,1,1.73-2.24,4.94,4.94,0,0,1,2.81-.76,4.57,4.57,0,0,1,2.25.55A4.48,4.48,0,0,1,60,67.08,4.18,4.18,0,0,1,60.72,69h-.78a4.5,4.5,0,0,0-.64-1.55,3.58,3.58,0,0,0-1.24-1.14,3.66,3.66,0,0,0-1.84-.44,4.19,4.19,0,0,0-2.41.66,4,4,0,0,0-1.44,2,9.49,9.49,0,0,0-.49,3.3A7.43,7.43,0,0,0,53,76.19a3.82,3.82,0,0,0,3.26,1.45,3.76,3.76,0,0,0,1.84-.43,3.58,3.58,0,0,0,1.24-1.14,4.5,4.5,0,0,0,.64-1.55h.78a3.9,3.9,0,0,1-.44,1.42,4.2,4.2,0,0,1-.94,1.24,4.45,4.45,0,0,1-3.12,1.19Z" transform="translate(0 -2.07)"/><path class="cls-2" d="M67.78,78.37A5,5,0,0,1,65,77.61a4.76,4.76,0,0,1-1.82-2.22,9.07,9.07,0,0,1-.64-3.63,9.18,9.18,0,0,1,.64-3.65A4.76,4.76,0,0,1,65,65.87a5.05,5.05,0,0,1,2.81-.77,5,5,0,0,1,2.79.76,4.76,4.76,0,0,1,1.79,2.24A9.38,9.38,0,0,1,73,71.76a9.17,9.17,0,0,1-.63,3.62,4.78,4.78,0,0,1-1.79,2.23A5,5,0,0,1,67.78,78.37Zm0-.73A4.36,4.36,0,0,0,70.21,77,3.85,3.85,0,0,0,71.7,75a9.09,9.09,0,0,0,.5-3.28,9.21,9.21,0,0,0-.51-3.31,4,4,0,0,0-1.5-2,4.24,4.24,0,0,0-2.41-.66,4.28,4.28,0,0,0-2.43.66,4.11,4.11,0,0,0-1.53,2,9,9,0,0,0-.53,3.3,8.89,8.89,0,0,0,.53,3.29A3.93,3.93,0,0,0,65.35,77,4.36,4.36,0,0,0,67.78,77.64Z" transform="translate(0 -2.07)"/><path class="cls-2" d="M74.92,80.15,76,79.1c1.48-1.34,2.25-2.18,2.25-3.09a1.21,1.21,0,0,0-1.35-1.25,2.63,2.63,0,0,0-1.5.56l-.38-.81a3.48,3.48,0,0,1,2.18-.75,2.09,2.09,0,0,1,2.37,2c0,1.34-1,2.32-2.37,3.52l-.55.5v0h3v1H74.92Z" transform="translate(0 -2.07)"/><path class="cls-2" d="M81.86,78.19V65.28h7.41V66H82.56V71.3h6.25V72H82.56v5.41l7,0v.73Z" transform="translate(0 -2.07)"/><path class="cls-2" d="M89.44,98.8a5,5,0,0,1-2.82-.75,4.5,4.5,0,0,1-1.72-2.21,11.62,11.62,0,0,1,0-7.31,4.54,4.54,0,0,1,1.72-2.24,5,5,0,0,1,2.82-.76,4.43,4.43,0,0,1,3.8,2,4.18,4.18,0,0,1,.69,1.88h-.78a4.32,4.32,0,0,0-.64-1.55,3.43,3.43,0,0,0-1.24-1.15,3.75,3.75,0,0,0-1.83-.43,4.21,4.21,0,0,0-2.42.66,3.88,3.88,0,0,0-1.44,2,9.75,9.75,0,0,0-.48,3.3,7.38,7.38,0,0,0,1.08,4.42,4.32,4.32,0,0,0,5.09,1,3.49,3.49,0,0,0,1.24-1.14A4.39,4.39,0,0,0,93.15,95h.78a4.09,4.09,0,0,1-.43,1.42,4.73,4.73,0,0,1-.94,1.24,4.41,4.41,0,0,1-1.38.86A4.49,4.49,0,0,1,89.44,98.8Z" transform="translate(0 -2.07)"/><path class="cls-2" d="M101,98.8A5.13,5.13,0,0,1,98.18,98a4.74,4.74,0,0,1-1.82-2.23,9,9,0,0,1-.64-3.62,9.14,9.14,0,0,1,.64-3.65,4.84,4.84,0,0,1,1.82-2.25,5,5,0,0,1,2.81-.76,5,5,0,0,1,2.79.76,4.79,4.79,0,0,1,1.8,2.24,9.58,9.58,0,0,1,.62,3.66,9.4,9.4,0,0,1-.62,3.62,4.86,4.86,0,0,1-1.8,2.23A5.06,5.06,0,0,1,101,98.8Zm0-.74a4.36,4.36,0,0,0,2.43-.64,3.88,3.88,0,0,0,1.49-2,10.8,10.8,0,0,0,0-6.59,4,4,0,0,0-1.5-2,4.8,4.8,0,0,0-4.84,0,4,4,0,0,0-1.53,2,9,9,0,0,0-.52,3.3A8.9,8.9,0,0,0,97,95.48a4,4,0,0,0,1.53,1.94A4.4,4.4,0,0,0,101,98.06Z" transform="translate(0 -2.07)"/><path class="cls-2" d="M108.13,100.58l1.12-1c1.49-1.34,2.25-2.18,2.25-3.09a1.2,1.2,0,0,0-1.35-1.25,2.73,2.73,0,0,0-1.5.55l-.38-.8a3.48,3.48,0,0,1,2.18-.75,2.09,2.09,0,0,1,2.38,2c0,1.34-1,2.32-2.38,3.51l-.55.5v0h3v1h-4.82Z" transform="translate(0 -2.07)"/><path class="cls-2" d="M115.08,98.62V85.71h7.41v.71h-6.72v5.31H122v.73h-6.25v5.41l7,0v.73Z" transform="translate(0 -2.07)"/><path class="cls-2" d="M23.08,96.64a5,5,0,0,1-2.81-.75,4.57,4.57,0,0,1-1.73-2.21,11.81,11.81,0,0,1,0-7.31,4.61,4.61,0,0,1,1.73-2.24,4.94,4.94,0,0,1,2.81-.76,4.47,4.47,0,0,1,2.25.55,4.39,4.39,0,0,1,1.56,1.43,4.14,4.14,0,0,1,.69,1.88H26.8a4.5,4.5,0,0,0-.64-1.55,3.51,3.51,0,0,0-1.24-1.15,3.76,3.76,0,0,0-1.84-.43,4.17,4.17,0,0,0-2.41.66,3.88,3.88,0,0,0-1.44,2,9.49,9.49,0,0,0-.49,3.3,7.38,7.38,0,0,0,1.08,4.42,3.8,3.8,0,0,0,3.26,1.45,3.76,3.76,0,0,0,1.84-.42,3.58,3.58,0,0,0,1.24-1.14,4.59,4.59,0,0,0,.64-1.55h.78a3.9,3.9,0,0,1-.44,1.42,4.52,4.52,0,0,1-4.06,2.43Z" transform="translate(0 -2.07)"/><path class="cls-2" d="M34.63,96.64a5.1,5.1,0,0,1-2.8-.76A4.74,4.74,0,0,1,30,93.65,9,9,0,0,1,29.37,90,9.14,9.14,0,0,1,30,86.38a4.84,4.84,0,0,1,1.82-2.25,5.54,5.54,0,0,1,5.6,0,4.71,4.71,0,0,1,1.79,2.24A9.38,9.38,0,0,1,39.85,90a9.21,9.21,0,0,1-.63,3.62,4.78,4.78,0,0,1-1.79,2.23A5.07,5.07,0,0,1,34.63,96.64Zm0-.74a4.37,4.37,0,0,0,2.44-.64,3.94,3.94,0,0,0,1.49-2,9.35,9.35,0,0,0,.5-3.28,9.21,9.21,0,0,0-.51-3.31,4,4,0,0,0-1.5-2,4.33,4.33,0,0,0-2.42-.65,4.27,4.27,0,0,0-2.42.66,4,4,0,0,0-1.53,2,9,9,0,0,0-.53,3.3,8.79,8.79,0,0,0,.53,3.28,4,4,0,0,0,1.53,2A4.35,4.35,0,0,0,34.63,95.9Z" transform="translate(0 -2.07)"/><path class="cls-2" d="M41.78,98.42l1.12-1c1.48-1.34,2.25-2.18,2.25-3.09A1.21,1.21,0,0,0,43.79,93a2.76,2.76,0,0,0-1.5.55l-.37-.8A3.48,3.48,0,0,1,44.1,92a2.08,2.08,0,0,1,2.37,2c0,1.34-1,2.32-2.37,3.51l-.56.5v0H46.6v1H41.78Z" transform="translate(0 -2.07)"/><path class="cls-2" d="M48.72,96.46V83.55h7.41v.71H49.42v5.3h6.25v.74H49.42v5.41l7,0v.73Z" transform="translate(0 -2.07)"/></g></g></svg>