<svg xmlns="http://www.w3.org/2000/svg" viewBox="0 0 302.7 164.75"><defs><style>.cls-1{fill:none;stroke:#fff;stroke-linecap:round;stroke-linejoin:round;stroke-width:5px;}.cls-2{fill:#fff;}</style></defs><title>Asset 27</title><g id="Layer_2" data-name="Layer 2"><g id="C"><path class="cls-1" d="M105.91,16.62A40.65,40.65,0,0,0,79,53.37,54.7,54.7,0,1,0,57.2,158.24H222.8" transform="translate(0 -4)"/></g><g id="CT"><path class="cls-2" d="M115.51,23.77,117.13,4l7.65.63a8.74,8.74,0,0,1,3.52.94,4.55,4.55,0,0,1,2,2,5.62,5.62,0,0,1,.48,3,5.79,5.79,0,0,1-.79,2.63,5.25,5.25,0,0,1-1.58,1.6,7.51,7.51,0,0,1-1.91.85l3.15,9.29L127,24.71l-2.91-8.81-5.32-.44L118,24Zm3.4-10.4,4.3.35a5.76,5.76,0,0,0,3.52-.62,3.18,3.18,0,0,0,1.44-2.6,3.14,3.14,0,0,0-.87-2.71,4.7,4.7,0,0,0-2.9-1.1l-4.91-.4Z" transform="translate(0 -4)"/><path class="cls-2" d="M129.34,25.23,139,7.91,149.93,14l-1.1,1.94-8.69-4.84L137,16.76l7.82,4.36-1.08,1.94-7.84-4.37-3.22,5.77,8.93,5-1.1,2Z" transform="translate(0 -4)"/><path class="cls-2" d="M140.26,31.21l16-11.74.34.47c.18.26.42.58.7,1s.56.76.86,1.17.56.78.8,1.13a13.78,13.78,0,0,1,2.55,5.47,7.18,7.18,0,0,1-.67,4.63,11.91,11.91,0,0,1-3.64,4,12.08,12.08,0,0,1-5.13,2.35,7.45,7.45,0,0,1-4.79-.81,13.59,13.59,0,0,1-4.43-4.12Zm3.3.81,1,1.4a10.79,10.79,0,0,0,3.12,3,5.5,5.5,0,0,0,3.6.72,9.38,9.38,0,0,0,4.26-1.94,9.42,9.42,0,0,0,3.11-3.43,5.25,5.25,0,0,0,.35-3.57,10.94,10.94,0,0,0-1.9-3.81L156,22.86Z" transform="translate(0 -4)"/><path class="cls-2" d="M176.41,46.52a8.85,8.85,0,0,1-4.25.35,5.09,5.09,0,0,1-2.93-1.75,9.83,9.83,0,0,1-1.84-3.68l-3.55-12.21,2.53-.73L170,41.08a4.84,4.84,0,0,0,2.15,3.11,4.59,4.59,0,0,0,3.61.19,5.59,5.59,0,0,0,2.3-1.21,3.52,3.52,0,0,0,1.09-2,5.74,5.74,0,0,0-.21-2.73L175.31,25.9l2.45-.72,3.62,12.46a8.92,8.92,0,0,1,.36,3.94,5.11,5.11,0,0,1-1.58,3A9.06,9.06,0,0,1,176.41,46.52Z" transform="translate(0 -4)"/><path class="cls-2" d="M191.31,45.22a8.15,8.15,0,0,1-4.45-1.56A7.66,7.66,0,0,1,184.24,40a13.83,13.83,0,0,1-.58-5.59,13.71,13.71,0,0,1,1.39-5.4,7.48,7.48,0,0,1,3.12-3.22,8.4,8.4,0,0,1,4.65-.85A7.78,7.78,0,0,1,196.46,26a7.37,7.37,0,0,1,2.43,2.51,7,7,0,0,1,.93,3.28l-2.7-.2a5.69,5.69,0,0,0-.68-2.17,4.48,4.48,0,0,0-1.5-1.62,4.77,4.77,0,0,0-2.35-.74,5.24,5.24,0,0,0-3.09.62,5.1,5.1,0,0,0-2.07,2.45,13.44,13.44,0,0,0-1,4.44q-.3,4.13,1,6.17a4.79,4.79,0,0,0,4,2.24,4.68,4.68,0,0,0,2.44-.41,4.76,4.76,0,0,0,1.73-1.45,6.14,6.14,0,0,0,1-2.08l2.69.2a8.46,8.46,0,0,1-.85,2.38,7.08,7.08,0,0,1-1.6,2,6.56,6.56,0,0,1-2.36,1.28A8.46,8.46,0,0,1,191.31,45.22Z" transform="translate(0 -4)"/><path class="cls-2" d="M199,45.88l8-18.17,11.46,5-.91,2-9.11-4-2.6,5.93,8.21,3.6-.89,2-8.22-3.6-2.65,6.06,9.36,4.13L210.73,51Z" transform="translate(0 -4)"/><path class="cls-2" d="M219.63,60a8.13,8.13,0,0,1-2-4.27,7.71,7.71,0,0,1,.82-4.47A13.9,13.9,0,0,1,222,46.9a13.61,13.61,0,0,1,4.83-2.79,7.48,7.48,0,0,1,4.49,0,8.47,8.47,0,0,1,3.86,2.73,7.79,7.79,0,0,1,1.74,3.4,7.34,7.34,0,0,1-.09,3.49,6.87,6.87,0,0,1-1.69,3l-1.74-2.06a5.8,5.8,0,0,0,1.07-2,4.59,4.59,0,0,0,.1-2.21,4.77,4.77,0,0,0-1.12-2.2,5.27,5.27,0,0,0-2.61-1.77,5.11,5.11,0,0,0-3.19.24,13.48,13.48,0,0,0-3.85,2.43q-3.17,2.67-3.72,5a4.79,4.79,0,0,0,1.19,4.41,4.52,4.52,0,0,0,4.25,1.67,6.23,6.23,0,0,0,2.17-.75l1.75,2.06a8.3,8.3,0,0,1-2.3,1.06,7,7,0,0,1-2.53.25A6.8,6.8,0,0,1,222,62,8.44,8.44,0,0,1,219.63,60Z" transform="translate(0 -4)"/><path class="cls-2" d="M226.83,72.8a8.53,8.53,0,0,1-.38-4.72,7.78,7.78,0,0,1,2.29-4,13,13,0,0,1,4.84-2.8,13.26,13.26,0,0,1,5.58-.82,7.91,7.91,0,0,1,4.28,1.69,9.21,9.21,0,0,1,3,8.6,7.81,7.81,0,0,1-2.32,3.94,15.2,15.2,0,0,1-10.42,3.64,7.76,7.76,0,0,1-4.25-1.66A8.35,8.35,0,0,1,226.83,72.8Zm2.08-.72a5.65,5.65,0,0,0,1.82,2.68,5.23,5.23,0,0,0,3.09,1,12.36,12.36,0,0,0,4.46-.83,12.89,12.89,0,0,0,4.08-2.14,5.36,5.36,0,0,0,1.84-2.74,5.46,5.46,0,0,0-.21-3.22,5.58,5.58,0,0,0-1.84-2.66,5.44,5.44,0,0,0-3.16-1,12.6,12.6,0,0,0-4.51.83,12.18,12.18,0,0,0-4,2.14,5.27,5.27,0,0,0-1.79,2.74A5.64,5.64,0,0,0,228.91,72.08Z" transform="translate(0 -4)"/><path class="cls-2" d="M242.3,93.12l-.23-1-.11-.48a3.6,3.6,0,0,1,0-2,4.77,4.77,0,0,1,.89-1.58,12.65,12.65,0,0,1,1.31-1.33c.48-.42.92-.83,1.34-1.24a4.66,4.66,0,0,0,.95-1.29,2.11,2.11,0,0,0,.14-1.47,1.9,1.9,0,0,0-1-1.32,2.57,2.57,0,0,0-1.84-.15,2.82,2.82,0,0,0-1.71,1.07,2.64,2.64,0,0,0-.4,2l-1.61.37a4.1,4.1,0,0,1,0-2.06A3.69,3.69,0,0,1,241.24,81a5,5,0,0,1,2.27-1.1,4.36,4.36,0,0,1,3.15.27,3.28,3.28,0,0,1,1.66,2.27,3.59,3.59,0,0,1,0,1.93,4.66,4.66,0,0,1-.87,1.55,11.31,11.31,0,0,1-1.29,1.3c-.48.4-.92.8-1.33,1.19a4.47,4.47,0,0,0-.94,1.24,2.08,2.08,0,0,0-.14,1.44l.05.2,6.35-1.49.34,1.46Z" transform="translate(0 -4)"/><path class="cls-2" d="M253.9,86.38l4.72-19.27,12.15,3-.55,2.17-9.66-2.37L259,76.18l8.7,2.13-.53,2.16-8.72-2.14-1.57,6.42,9.93,2.46-.53,2.2Z" transform="translate(0 -4)"/><path class="cls-2" d="M265.87,88.55l13.31-14.7,2.6,2.36-6.56,16.15,15.49-8.07,2.59,2.35L280,101.34,278,99.58,288.81,87.7l-15,8L272,94.13l6.44-15.6L267.8,90.3Z" transform="translate(0 -4)"/><path class="cls-2" d="M279.31,103l17.82-8.7,1.12,2.28-17.83,8.7Z" transform="translate(0 -4)"/><path class="cls-2" d="M282.45,113.33a10.4,10.4,0,0,1-.05-2.78,8.05,8.05,0,0,1,.7-2.49,6.29,6.29,0,0,1,1.46-2,5.54,5.54,0,0,1,2.26-1.21l.38,2.64a3.86,3.86,0,0,0-1.73,1.24,4.49,4.49,0,0,0-.88,2,7.23,7.23,0,0,0,0,2.42,7,7,0,0,0,.73,2.25,4.11,4.11,0,0,0,1.39,1.52,2.78,2.78,0,0,0,1.91.38,2.49,2.49,0,0,0,1.77-1,5.53,5.53,0,0,0,.8-2.51l.46-4.2a9.33,9.33,0,0,1,.61-2.56,4.62,4.62,0,0,1,1.39-1.89,5.06,5.06,0,0,1,2.43-1,4.77,4.77,0,0,1,3,.51,6,6,0,0,1,2.3,2.22,9,9,0,0,1,1.2,3.48,8.53,8.53,0,0,1-.24,4,5.94,5.94,0,0,1-1.75,2.71,5.25,5.25,0,0,1-2.67,1.21l-.37-2.58a3.9,3.9,0,0,0,2-1.1,3.86,3.86,0,0,0,.89-1.81,6.8,6.8,0,0,0,0-2.21,4.68,4.68,0,0,0-1.42-3,3,3,0,0,0-2.43-.76,2.49,2.49,0,0,0-1.79,1,5.59,5.59,0,0,0-.74,2.44l-.45,4.08a7.57,7.57,0,0,1-.77,3,4.63,4.63,0,0,1-1.59,1.76,5.38,5.38,0,0,1-2.15.77,4.94,4.94,0,0,1-3-.48,6.16,6.16,0,0,1-2.37-2.26A9.5,9.5,0,0,1,282.45,113.33Z" transform="translate(0 -4)"/><path class="cls-2" d="M281.41,126.6a10.84,10.84,0,0,1,1.13-2.54,8,8,0,0,1,1.69-2,6.13,6.13,0,0,1,2.17-1.18,5.56,5.56,0,0,1,2.55-.14l-.77,2.55a3.86,3.86,0,0,0-2.09.39,4.56,4.56,0,0,0-1.63,1.41,7.08,7.08,0,0,0-1.06,2.19,6.6,6.6,0,0,0-.29,2.34,4.09,4.09,0,0,0,.61,2,2.78,2.78,0,0,0,1.57,1.14,2.44,2.44,0,0,0,2-.19,5.57,5.57,0,0,0,1.8-1.93l2.19-3.61A8.83,8.83,0,0,1,293,125a4.54,4.54,0,0,1,2.06-1.12,4.94,4.94,0,0,1,2.61.15,4.79,4.79,0,0,1,2.54,1.74,6,6,0,0,1,1.14,3,8.89,8.89,0,0,1-.38,3.66,8.66,8.66,0,0,1-1.91,3.53,5.92,5.92,0,0,1-2.74,1.7,5.18,5.18,0,0,1-2.92,0l.75-2.5A3.54,3.54,0,0,0,298,133.7a6.81,6.81,0,0,0,1-2,4.7,4.7,0,0,0,0-3.36,2.93,2.93,0,0,0-1.88-1.7,2.43,2.43,0,0,0-2.06.19,5.34,5.34,0,0,0-1.71,1.89l-2.13,3.51a7.57,7.57,0,0,1-2,2.36,4.63,4.63,0,0,1-2.17.92,5.57,5.57,0,0,1-2.28-.21,5,5,0,0,1-2.55-1.73,6.15,6.15,0,0,1-1.19-3A9.55,9.55,0,0,1,281.41,126.6Z" transform="translate(0 -4)"/><path class="cls-2" d="M278.31,134l16.34,11.25-1.44,2.08-16.34-11.25Z" transform="translate(0 -4)"/><path class="cls-2" d="M270.38,142.07a8.51,8.51,0,0,1,4.39-1.78,7.75,7.75,0,0,1,4.46,1,15,15,0,0,1,6.58,8.86,7.85,7.85,0,0,1-.33,4.58,9.25,9.25,0,0,1-7.31,5.45,7.77,7.77,0,0,1-4.45-1,13.4,13.4,0,0,1-4.15-3.83,13.26,13.26,0,0,1-2.45-5,7.72,7.72,0,0,1,.31-4.54A8.48,8.48,0,0,1,270.38,142.07Zm1.32,1.77a5.67,5.67,0,0,0-2,2.54,5.13,5.13,0,0,0,0,3.25,12.36,12.36,0,0,0,2.13,4,12.64,12.64,0,0,0,3.27,3.25,5.28,5.28,0,0,0,3.15.94,5.45,5.45,0,0,0,3-1.17,5.6,5.6,0,0,0,2-2.55,5.5,5.5,0,0,0,0-3.32,12.68,12.68,0,0,0-2.15-4.06,12.18,12.18,0,0,0-3.24-3.18,5.28,5.28,0,0,0-3.15-.89A5.65,5.65,0,0,0,271.7,143.84Z" transform="translate(0 -4)"/><path class="cls-2" d="M264.49,146.85l2.94,19.62-2.4.36-12.64-13.7,2.28,15.25-2.52.37-2.93-19.61,2.24-.34,12.84,13.89L262,147.23Z" transform="translate(0 -4)"/><path class="cls-2" d="M239.24,148.05a10.62,10.62,0,0,1,2.75.35,8.47,8.47,0,0,1,2.37,1,6.34,6.34,0,0,1,1.76,1.74,5.57,5.57,0,0,1,.87,2.4h-2.66a3.9,3.9,0,0,0-1-1.89,4.65,4.65,0,0,0-1.83-1.15,7,7,0,0,0-2.39-.38,6.74,6.74,0,0,0-2.33.39,4.09,4.09,0,0,0-1.7,1.16,2.75,2.75,0,0,0-.65,1.83,2.49,2.49,0,0,0,.77,1.9,5.57,5.57,0,0,0,2.37,1.16l4.09,1.06a9.48,9.48,0,0,1,2.45,1,4.61,4.61,0,0,1,1.66,1.65,4.86,4.86,0,0,1,.61,2.55,4.81,4.81,0,0,1-.93,2.93,6.11,6.11,0,0,1-2.54,2,8.84,8.84,0,0,1-3.61.7,8.66,8.66,0,0,1-3.93-.81,6,6,0,0,1-2.42-2.13,5.19,5.19,0,0,1-.82-2.81h2.6a3.6,3.6,0,0,0,2.47,3.29,6.69,6.69,0,0,0,2.18.35,4.75,4.75,0,0,0,3.22-1,3,3,0,0,0,1.09-2.3,2.46,2.46,0,0,0-.78-1.92,5.29,5.29,0,0,0-2.31-1.08l-4-1a7.68,7.68,0,0,1-2.82-1.19,4.62,4.62,0,0,1-1.51-1.82,5.41,5.41,0,0,1-.46-2.24,4.89,4.89,0,0,1,.92-2.94,6.1,6.1,0,0,1,2.57-2A9.51,9.51,0,0,1,239.24,148.05Z" transform="translate(0 -4)"/><path class="cls-2" d="M48.21,135.52a8.26,8.26,0,0,1-4.56-1.22,7.73,7.73,0,0,1-2.88-3.51,15.75,15.75,0,0,1,0-11,7.47,7.47,0,0,1,2.88-3.45,8.4,8.4,0,0,1,4.57-1.18,7.74,7.74,0,0,1,3.72.87,7.2,7.2,0,0,1,2.6,2.32,6.87,6.87,0,0,1,1.17,3.2H53a5.84,5.84,0,0,0-.84-2.11,4.43,4.43,0,0,0-1.62-1.51,4.79,4.79,0,0,0-2.4-.57,5.31,5.31,0,0,0-3,.85,5.14,5.14,0,0,0-1.88,2.6,13.53,13.53,0,0,0-.63,4.5q0,4.14,1.42,6.08a4.8,4.8,0,0,0,4.13,1.94,4.69,4.69,0,0,0,2.4-.59,4.62,4.62,0,0,0,1.62-1.58A6.3,6.3,0,0,0,53,129h2.7a8.37,8.37,0,0,1-.68,2.44,6.83,6.83,0,0,1-1.45,2.09A6.52,6.52,0,0,1,51.32,135,8.3,8.3,0,0,1,48.21,135.52Z" transform="translate(0 -4)"/><path class="cls-2" d="M66.73,135.52a8.62,8.62,0,0,1-4.59-1.19,7.77,7.77,0,0,1-3-3.47,14.94,14.94,0,0,1,0-11,7.9,7.9,0,0,1,3-3.49,8.54,8.54,0,0,1,4.57-1.2,8.42,8.42,0,0,1,4.55,1.2,7.76,7.76,0,0,1,3,3.48,15.24,15.24,0,0,1,0,11,7.74,7.74,0,0,1-3,3.47A8.51,8.51,0,0,1,66.73,135.52Zm0-2.21a5.59,5.59,0,0,0,3.12-.84,5.15,5.15,0,0,0,2-2.59,12.61,12.61,0,0,0,.68-4.48,12.8,12.8,0,0,0-.69-4.56,5.29,5.29,0,0,0-2-2.64,6,6,0,0,0-6.23,0,5.42,5.42,0,0,0-2,2.65,12.44,12.44,0,0,0-.7,4.54,12.14,12.14,0,0,0,.7,4.48,5.25,5.25,0,0,0,2,2.59A5.64,5.64,0,0,0,66.73,133.31Z" transform="translate(0 -4)"/><path class="cls-2" d="M77.1,139.78v-1.5a3.52,3.52,0,0,1,.47-1.9,4.54,4.54,0,0,1,1.22-1.33,12.44,12.44,0,0,1,1.58-1c.56-.29,1.09-.59,1.59-.89a4.85,4.85,0,0,0,1.22-1,2.2,2.2,0,0,0,.47-1.41,1.91,1.91,0,0,0-.65-1.5,2.57,2.57,0,0,0-1.76-.57,2.83,2.83,0,0,0-1.91.65,2.63,2.63,0,0,0-.85,1.86H76.83a4,4,0,0,1,.51-2,3.75,3.75,0,0,1,1.5-1.45,5,5,0,0,1,2.47-.55,4.29,4.29,0,0,1,3,1,3.27,3.27,0,0,1,1.11,2.58,3.57,3.57,0,0,1-.47,1.88,4.52,4.52,0,0,1-1.19,1.31,11.31,11.31,0,0,1-1.56,1c-.55.28-1.07.57-1.56.86a4.6,4.6,0,0,0-1.2,1,2.09,2.09,0,0,0-.47,1.37v.21h6.53v1.49Z" transform="translate(0 -4)"/><path class="cls-2" d="M88.34,135.24V115.41h12.51v2.24h-10v6.47h9v2.22h-9V133l10.23,0v2.26Z" transform="translate(0 -4)"/><path class="cls-2" d="M76.93,100a8.26,8.26,0,0,1-4.56-1.22,7.63,7.63,0,0,1-2.88-3.51,13.91,13.91,0,0,1-1-5.53,13.68,13.68,0,0,1,1-5.49,7.49,7.49,0,0,1,2.88-3.44,8.32,8.32,0,0,1,4.57-1.19,7.74,7.74,0,0,1,3.72.87,7.21,7.21,0,0,1,2.6,2.32A6.87,6.87,0,0,1,84.42,86h-2.7a5.84,5.84,0,0,0-.84-2.11,4.52,4.52,0,0,0-1.62-1.51,4.74,4.74,0,0,0-2.4-.56,5.3,5.3,0,0,0-3,.84,5.2,5.2,0,0,0-1.88,2.6,13.53,13.53,0,0,0-.63,4.5q0,4.14,1.42,6.08a4.77,4.77,0,0,0,4.13,1.94,4.55,4.55,0,0,0,2.4-.59,4.68,4.68,0,0,0,1.62-1.57,6.38,6.38,0,0,0,.84-2.14h2.7a8.31,8.31,0,0,1-.68,2.43A6.83,6.83,0,0,1,82.29,98,6.54,6.54,0,0,1,80,99.49,8.48,8.48,0,0,1,76.93,100Z" transform="translate(0 -4)"/><path class="cls-2" d="M95.45,100a8.58,8.58,0,0,1-4.58-1.19,7.79,7.79,0,0,1-3-3.47,13,13,0,0,1-1-5.49,13.14,13.14,0,0,1,1.06-5.53,7.75,7.75,0,0,1,3-3.49,9.21,9.21,0,0,1,9.11,0,7.76,7.76,0,0,1,3,3.48,15.1,15.1,0,0,1,0,11,7.78,7.78,0,0,1-3,3.47A8.57,8.57,0,0,1,95.45,100Zm0-2.21A5.65,5.65,0,0,0,98.57,97a5.22,5.22,0,0,0,2-2.6,12.39,12.39,0,0,0,.68-4.48,13,13,0,0,0-.68-4.56,5.45,5.45,0,0,0-2-2.64,5.42,5.42,0,0,0-8.23,2.66,12.48,12.48,0,0,0-.7,4.54,12.14,12.14,0,0,0,.7,4.48,5.32,5.32,0,0,0,2,2.6A5.72,5.72,0,0,0,95.45,97.81Z" transform="translate(0 -4)"/><path class="cls-2" d="M105.82,104.29v-1.51a3.62,3.62,0,0,1,.47-1.9,4.68,4.68,0,0,1,1.22-1.33,11.82,11.82,0,0,1,1.59-1c.55-.3,1.08-.6,1.58-.9a4.65,4.65,0,0,0,1.22-1,2.12,2.12,0,0,0,.47-1.4,1.88,1.88,0,0,0-.65-1.51,2.62,2.62,0,0,0-1.76-.56,2.8,2.8,0,0,0-1.91.65,2.63,2.63,0,0,0-.85,1.86h-1.64a4.13,4.13,0,0,1,.5-2,3.71,3.71,0,0,1,1.51-1.45,5,5,0,0,1,2.46-.55,4.39,4.39,0,0,1,3,1,3.31,3.31,0,0,1,1.1,2.59,3.59,3.59,0,0,1-.47,1.88,4.79,4.79,0,0,1-1.19,1.31,10.69,10.69,0,0,1-1.56,1c-.55.29-1.07.57-1.56.86a4.6,4.6,0,0,0-1.2,1,2.12,2.12,0,0,0-.47,1.38v.2h6.53v1.5Z" transform="translate(0 -4)"/><path class="cls-2" d="M117.06,99.75V79.91h12.51v2.24h-9.94v6.47h8.95v2.22h-9v6.62l10.23,0v2.27Z" transform="translate(0 -4)"/><path class="cls-2" d="M125.9,135.52a8.21,8.21,0,0,1-4.56-1.22,7.73,7.73,0,0,1-2.88-3.51,15.75,15.75,0,0,1,0-11,7.51,7.51,0,0,1,2.87-3.45,8.43,8.43,0,0,1,4.58-1.18,7.67,7.67,0,0,1,3.71.87,7.23,7.23,0,0,1,2.61,2.32,6.87,6.87,0,0,1,1.17,3.2h-2.7a5.84,5.84,0,0,0-.84-2.11,4.43,4.43,0,0,0-1.62-1.51,4.79,4.79,0,0,0-2.4-.57,5.31,5.31,0,0,0-3,.85,5.14,5.14,0,0,0-1.88,2.6,13.5,13.5,0,0,0-.64,4.5c0,2.76.48,4.79,1.42,6.08a4.83,4.83,0,0,0,4.14,1.94,4.69,4.69,0,0,0,2.4-.59,4.62,4.62,0,0,0,1.62-1.58,6.3,6.3,0,0,0,.84-2.14h2.7a8.37,8.37,0,0,1-.68,2.44,7,7,0,0,1-1.45,2.09A6.47,6.47,0,0,1,129,135,8.21,8.21,0,0,1,125.9,135.52Z" transform="translate(0 -4)"/><path class="cls-2" d="M144.41,135.52a8.61,8.61,0,0,1-4.58-1.19,7.77,7.77,0,0,1-3-3.47,14.94,14.94,0,0,1,0-11,7.9,7.9,0,0,1,3-3.49,8.52,8.52,0,0,1,4.56-1.2,8.43,8.43,0,0,1,4.56,1.2,7.76,7.76,0,0,1,3,3.48,15.24,15.24,0,0,1,0,11,7.74,7.74,0,0,1-3,3.47A8.52,8.52,0,0,1,144.41,135.52Zm0-2.21a5.6,5.6,0,0,0,3.13-.84,5.15,5.15,0,0,0,2-2.59,12.61,12.61,0,0,0,.68-4.48,12.8,12.8,0,0,0-.69-4.56,5.29,5.29,0,0,0-2-2.64,6,6,0,0,0-6.23,0,5.36,5.36,0,0,0-2,2.65,12.44,12.44,0,0,0-.7,4.54,12.14,12.14,0,0,0,.7,4.48,5.19,5.19,0,0,0,2,2.59A5.63,5.63,0,0,0,144.41,133.31Z" transform="translate(0 -4)"/><path class="cls-2" d="M154.78,139.78v-1.5a3.53,3.53,0,0,1,.48-1.9,4.54,4.54,0,0,1,1.22-1.33,11.77,11.77,0,0,1,1.58-1c.56-.29,1.09-.59,1.59-.89a5,5,0,0,0,1.22-1,2.2,2.2,0,0,0,.47-1.41,1.91,1.91,0,0,0-.65-1.5,2.59,2.59,0,0,0-1.76-.57,2.83,2.83,0,0,0-1.91.65,2.63,2.63,0,0,0-.85,1.86h-1.65a4,4,0,0,1,.51-2,3.75,3.75,0,0,1,1.5-1.45,5,5,0,0,1,2.47-.55,4.29,4.29,0,0,1,3,1,3.27,3.27,0,0,1,1.11,2.58,3.57,3.57,0,0,1-.47,1.88,4.52,4.52,0,0,1-1.19,1.31,11.31,11.31,0,0,1-1.56,1c-.55.28-1.07.57-1.56.86a4.6,4.6,0,0,0-1.2,1,2.09,2.09,0,0,0-.47,1.37v.21h6.53v1.49Z" transform="translate(0 -4)"/><path class="cls-2" d="M166,135.24V115.41h12.51v2.24h-9.95v6.47h9v2.22h-9V133l10.23,0v2.26Z" transform="translate(0 -4)"/></g></g></svg>