<svg xmlns="http://www.w3.org/2000/svg" viewBox="0 0 302.6 164.56"><defs><style>.cls-1{fill:none;stroke:#fff;stroke-linecap:round;stroke-linejoin:round;stroke-width:5px;}.cls-2{fill:#fff;}</style></defs><title>Asset 20</title><g id="Layer_2" data-name="Layer 2"><g id="C"><path class="cls-1" d="M105.91,16.65A40.63,40.63,0,0,0,79,53.4,54.7,54.7,0,1,0,57.2,158.27H222.8" transform="translate(0 -4.03)"/></g><g id="CT"><path class="cls-2" d="M115.9,23.8,117.52,4l7,.58a8.64,8.64,0,0,1,3.23.81,4.35,4.35,0,0,1,1.95,1.81,4.82,4.82,0,0,1,.49,2.77,5.13,5.13,0,0,1-.88,2.67,4.89,4.89,0,0,1-1.76,1.52,7.22,7.22,0,0,1-2,.69l3.31,10-1.23-.1L124.38,15l-6.64-.55L117,23.89Zm1.93-10.44,5,.41a8.11,8.11,0,0,0,4.44-.6A3.56,3.56,0,0,0,129,10.1a3.58,3.58,0,0,0-1-3.16,6.07,6.07,0,0,0-3.6-1.24l-5.88-.49Z" transform="translate(0 -4.03)"/><path class="cls-2" d="M129.68,25.39l9.66-17.32,9.94,5.54-.53,1-9-5-4,7.11,8.39,4.68-.55,1-8.38-4.67-4,7.25,9.33,5.24-.55,1Z" transform="translate(0 -4.03)"/><path class="cls-2" d="M140.47,31.51l16-11.74.17.26.44.6.61.84c.22.32.46.64.7,1a14.45,14.45,0,0,1,2.67,5.43,6.76,6.76,0,0,1-.62,4.59,12.35,12.35,0,0,1-3.77,4.08,12.31,12.31,0,0,1-5.3,2.45,7.1,7.1,0,0,1-4.74-.9,14.87,14.87,0,0,1-4.43-4.23Zm1.61.29,1,1.33a14.63,14.63,0,0,0,3.86,3.8,6.22,6.22,0,0,0,4.17,1,10.72,10.72,0,0,0,4.81-2.2,10.65,10.65,0,0,0,3.62-4,6,6,0,0,0,.24-4.19,15,15,0,0,0-2.43-4.6l-1.07-1.46Z" transform="translate(0 -4.03)"/><path class="cls-2" d="M176.14,46.69a8.18,8.18,0,0,1-3.76.33,4.61,4.61,0,0,1-2.7-1.56,9.09,9.09,0,0,1-1.74-3.5l-3.71-12.74,1.13-.33,3.84,13.19a4.74,4.74,0,0,0,6.65,3.61,7,7,0,0,0,2.77-1.43A3.92,3.92,0,0,0,179.89,42a6.36,6.36,0,0,0-.24-3l-3.84-13.2,1-.3,3.83,13.15a7.85,7.85,0,0,1,.3,3.64A4.66,4.66,0,0,1,179.46,45,8.42,8.42,0,0,1,176.14,46.69Z" transform="translate(0 -4.03)"/><path class="cls-2" d="M190.94,45.16a7.72,7.72,0,0,1-4.22-1.46,7,7,0,0,1-2.4-3.59,15,15,0,0,1-.48-5.65,15.3,15.3,0,0,1,1.31-5.55,7.08,7.08,0,0,1,2.9-3.23,7.68,7.68,0,0,1,4.4-.85,6.88,6.88,0,0,1,3.38,1.1,6.79,6.79,0,0,1,2.22,2.37,6.38,6.38,0,0,1,.85,2.95l-1.2-.09a6.75,6.75,0,0,0-.8-2.44,5.51,5.51,0,0,0-1.77-1.89,5.75,5.75,0,0,0-2.77-.88,6.44,6.44,0,0,0-3.77.74,6.08,6.08,0,0,0-2.44,2.85,15,15,0,0,0-1.11,5q-.33,4.56,1.15,6.91A5.88,5.88,0,0,0,191,44a5.73,5.73,0,0,0,2.87-.45,5.31,5.31,0,0,0,2-1.6,6.79,6.79,0,0,0,1.16-2.31l1.2.09a6.39,6.39,0,0,1-.83,2.14,6.9,6.9,0,0,1-1.59,1.78,6.66,6.66,0,0,1-2.2,1.18A7.28,7.28,0,0,1,190.94,45.16Z" transform="translate(0 -4.03)"/><path class="cls-2" d="M199.41,46l8-18.17,10.43,4.57-.44,1L207.9,29.3l-3.26,7.47,8.79,3.85-.45,1-8.79-3.85-3.34,7.61,9.79,4.32-.45,1Z" transform="translate(0 -4.03)"/><path class="cls-2" d="M219.39,59.75a7.77,7.77,0,0,1-1.92-4,7,7,0,0,1,.88-4.22,15.09,15.09,0,0,1,3.7-4.31,15.28,15.28,0,0,1,4.87-3,7.15,7.15,0,0,1,4.34-.2,7.58,7.58,0,0,1,3.68,2.55,6.75,6.75,0,0,1,1.59,3.18A6.85,6.85,0,0,1,236.4,53a6.42,6.42,0,0,1-1.51,2.67l-.78-.92a6.66,6.66,0,0,0,1.18-2.29,5.48,5.48,0,0,0,.11-2.58,5.67,5.67,0,0,0-1.32-2.59,6.4,6.4,0,0,0-3.16-2.17,6.06,6.06,0,0,0-3.75.26,15,15,0,0,0-4.35,2.71q-3.48,3-4.11,5.66A5.84,5.84,0,0,0,220.25,59a5.6,5.6,0,0,0,2.33,1.73,5.36,5.36,0,0,0,2.56.32,6.71,6.71,0,0,0,2.45-.79l.78.92a6.32,6.32,0,0,1-2.11.9,6.82,6.82,0,0,1-4.76-.62A7.12,7.12,0,0,1,219.39,59.75Z" transform="translate(0 -4.03)"/><path class="cls-2" d="M226.74,72.51a7.86,7.86,0,0,1-.33-4.46,7.45,7.45,0,0,1,2.32-3.76,13.82,13.82,0,0,1,4.93-2.76,14.22,14.22,0,0,1,5.63-.92,7.54,7.54,0,0,1,4.17,1.51,8.5,8.5,0,0,1,2.84,8.13A7.43,7.43,0,0,1,244,74a14.47,14.47,0,0,1-5,2.75,14.26,14.26,0,0,1-5.56.92,7.37,7.37,0,0,1-4.14-1.48A7.67,7.67,0,0,1,226.74,72.51Zm1.06-.37a6.69,6.69,0,0,0,2.16,3.2,6,6,0,0,0,3.58,1.18,16.74,16.74,0,0,0,9.57-3.34A6.22,6.22,0,0,0,245.2,70a6.59,6.59,0,0,0-.27-3.84A6.68,6.68,0,0,0,242.75,63a6.3,6.3,0,0,0-3.64-1.22,16.22,16.22,0,0,0-9.55,3.32,6.17,6.17,0,0,0-2.05,3.2A6.73,6.73,0,0,0,227.8,72.14Z" transform="translate(0 -4.03)"/><path class="cls-2" d="M242.3,93.15l-.23-1-.11-.48a3.6,3.6,0,0,1,0-2,4.72,4.72,0,0,1,.89-1.57,13.79,13.79,0,0,1,1.31-1.34c.48-.41.92-.83,1.34-1.23a4.66,4.66,0,0,0,.95-1.29,2.13,2.13,0,0,0,.14-1.48,1.9,1.9,0,0,0-1-1.31,2.57,2.57,0,0,0-1.84-.15,2.78,2.78,0,0,0-1.71,1.07,2.61,2.61,0,0,0-.4,2l-1.61.38a4.14,4.14,0,0,1,0-2.07A3.79,3.79,0,0,1,241.24,81a5.07,5.07,0,0,1,2.27-1.09,4.36,4.36,0,0,1,3.15.27,3.29,3.29,0,0,1,1.66,2.26,3.62,3.62,0,0,1,0,1.94,4.76,4.76,0,0,1-.87,1.55,11.22,11.22,0,0,1-1.29,1.29c-.48.41-.92.8-1.33,1.19a4.66,4.66,0,0,0-.94,1.25,2.07,2.07,0,0,0-.14,1.44l.05.2,6.35-1.49.34,1.45Z" transform="translate(0 -4.03)"/><path class="cls-2" d="M254.3,86.55,259,67.28,270.07,70l-.26,1.07-10-2.46-1.94,7.92,9.32,2.28-.26,1.09-9.33-2.28-2,8.07L266,88.25l-.27,1.1Z" transform="translate(0 -4.03)"/><path class="cls-2" d="M266.14,88.79l13.31-14.7.9.81-7,18.79L291.45,85l.87.79L279,100.45l-.87-.8,11.35-12.52-16.35,8L272,94.05l6.26-16.83L267,89.58Z" transform="translate(0 -4.03)"/><path class="cls-2" d="M279.52,103.44l17.82-8.7.47,1L280,104.4Z" transform="translate(0 -4.03)"/><path class="cls-2" d="M282.38,113.08a9.72,9.72,0,0,1-.05-2.63,7.28,7.28,0,0,1,.67-2.28,5.64,5.64,0,0,1,1.36-1.8,5.82,5.82,0,0,1,2.06-1.15l.17,1.19a4.61,4.61,0,0,0-2,1.49,5.53,5.53,0,0,0-1,2.31,8,8,0,0,0-.07,2.72,7.57,7.57,0,0,0,.94,2.76,4.88,4.88,0,0,0,1.76,1.79,3.51,3.51,0,0,0,2.33.41,3.32,3.32,0,0,0,2.14-1.12,5.6,5.6,0,0,0,1.09-2.92l.64-4.58a9.59,9.59,0,0,1,.6-2.26,4.33,4.33,0,0,1,1.25-1.72,5,5,0,0,1,5-.46,5.46,5.46,0,0,1,2.14,2,7.74,7.74,0,0,1,1.13,3.14,7.51,7.51,0,0,1-.28,3.76,5.81,5.81,0,0,1-1.74,2.5A5,5,0,0,1,298,117.3l-.17-1.19a4.64,4.64,0,0,0,2.47-1.34,4.57,4.57,0,0,0,1.07-2.18,7.65,7.65,0,0,0,0-2.53,5.59,5.59,0,0,0-1.72-3.61,3.78,3.78,0,0,0-3.09-.92,3,3,0,0,0-2.21,1.27,6.41,6.41,0,0,0-.93,2.76l-.65,4.67a6.57,6.57,0,0,1-.84,2.66,4.2,4.2,0,0,1-1.49,1.5,5.15,5.15,0,0,1-1.86.64,4.71,4.71,0,0,1-2.8-.41,5.62,5.62,0,0,1-2.23-2A8.52,8.52,0,0,1,282.38,113.08Z" transform="translate(0 -4.03)"/><path class="cls-2" d="M281.48,126.3a9.4,9.4,0,0,1,1.07-2.4,7.37,7.37,0,0,1,1.57-1.79,5.57,5.57,0,0,1,2-1,5.71,5.71,0,0,1,2.35-.18l-.35,1.16a4.5,4.5,0,0,0-2.49.48,5.5,5.5,0,0,0-1.92,1.65,7.91,7.91,0,0,0-1.21,2.43,7.42,7.42,0,0,0-.32,2.9,4.81,4.81,0,0,0,.84,2.37,3.5,3.5,0,0,0,1.94,1.36,3.32,3.32,0,0,0,2.41-.11,5.6,5.6,0,0,0,2.22-2.18l2.52-3.89a9.94,9.94,0,0,1,1.5-1.79,4.18,4.18,0,0,1,1.86-1,4.49,4.49,0,0,1,2.43.15,4.57,4.57,0,0,1,2.33,1.56,5.52,5.52,0,0,1,1.1,2.71A7.7,7.7,0,0,1,301,132a7.56,7.56,0,0,1-1.85,3.29,5.68,5.68,0,0,1-2.63,1.52,4.9,4.9,0,0,1-2.69,0l.35-1.16a4.62,4.62,0,0,0,2.8-.16,4.56,4.56,0,0,0,1.89-1.53,7.64,7.64,0,0,0,1.12-2.27,5.64,5.64,0,0,0,0-4,3.75,3.75,0,0,0-2.41-2.13,3,3,0,0,0-2.54.21,6.63,6.63,0,0,0-2,2.11l-2.55,4a6.79,6.79,0,0,1-1.89,2.05,4.33,4.33,0,0,1-2,.73,5.21,5.21,0,0,1-2-.2,4.7,4.7,0,0,1-2.35-1.57A5.52,5.52,0,0,1,281.1,130,8.53,8.53,0,0,1,281.48,126.3Z" transform="translate(0 -4.03)"/><path class="cls-2" d="M278.09,134.33l16.33,11.25-.6.88-16.34-11.25Z" transform="translate(0 -4.03)"/><path class="cls-2" d="M270.69,141.9a7.8,7.8,0,0,1,4.15-1.64,7.38,7.38,0,0,1,4.29,1.07,16.5,16.5,0,0,1,6.66,9,7.52,7.52,0,0,1-.18,4.43,7.85,7.85,0,0,1-2.77,3.52,7.69,7.69,0,0,1-4.14,1.62,7.35,7.35,0,0,1-4.26-1.12,16.78,16.78,0,0,1-6.68-9,7.39,7.39,0,0,1,.18-4.39A7.62,7.62,0,0,1,270.69,141.9Zm.67.9a6.77,6.77,0,0,0-2.42,3,6.07,6.07,0,0,0,0,3.78,13.91,13.91,0,0,0,2.38,4.5,14.14,14.14,0,0,0,3.67,3.62,6.17,6.17,0,0,0,3.65,1,6.45,6.45,0,0,0,3.57-1.41,6.6,6.6,0,0,0,2.4-3,6.29,6.29,0,0,0,.07-3.83,16.19,16.19,0,0,0-6-8.12,6.2,6.2,0,0,0-3.67-1A6.74,6.74,0,0,0,271.36,142.8Z" transform="translate(0 -4.03)"/><path class="cls-2" d="M264.14,146.93l2.93,19.61-.87.13-14.41-15.73,2.61,17.5-1.05.16L250.41,149l.92-.14,14.36,15.69-2.61-17.44Z" transform="translate(0 -4.03)"/><path class="cls-2" d="M239.57,148.08a9.79,9.79,0,0,1,2.6.33,7.55,7.55,0,0,1,2.17,1,5.63,5.63,0,0,1,1.58,1.61,5.78,5.78,0,0,1,.85,2.2h-1.21a4.53,4.53,0,0,0-1.18-2.25,5.42,5.42,0,0,0-2.14-1.36,7.88,7.88,0,0,0-2.67-.45,7.3,7.3,0,0,0-2.87.53,4.82,4.82,0,0,0-2,1.48,3.55,3.55,0,0,0-.75,2.25,3.39,3.39,0,0,0,.8,2.28,5.71,5.71,0,0,0,2.74,1.5l4.44,1.29a9.61,9.61,0,0,1,2.16.91,4.43,4.43,0,0,1,1.52,1.49,5,5,0,0,1-.27,5.05,5.62,5.62,0,0,1-2.27,1.84,7.75,7.75,0,0,1-3.26.66,7.6,7.6,0,0,1-3.69-.81,5.81,5.81,0,0,1-2.22-2.08,4.9,4.9,0,0,1-.73-2.59h1.2a4.71,4.71,0,0,0,1,2.63,4.53,4.53,0,0,0,2,1.37,7.51,7.51,0,0,0,2.51.41,5.57,5.57,0,0,0,3.82-1.19,3.76,3.76,0,0,0,1.35-2.92,3,3,0,0,0-.94-2.37,6.61,6.61,0,0,0-2.6-1.32l-4.53-1.3a6.83,6.83,0,0,1-2.51-1.22,4.36,4.36,0,0,1-1.27-1.69,5.15,5.15,0,0,1-.37-1.94,4.74,4.74,0,0,1,.81-2.7,5.7,5.7,0,0,1,2.34-1.93A8.57,8.57,0,0,1,239.57,148.08Z" transform="translate(0 -4.03)"/><path class="cls-2" d="M47.81,135.54a7.77,7.77,0,0,1-4.32-1.14,7,7,0,0,1-2.65-3.4,18,18,0,0,1,0-11.23,7.07,7.07,0,0,1,2.65-3.44,7.62,7.62,0,0,1,4.32-1.17,6.84,6.84,0,0,1,5.85,3,6.36,6.36,0,0,1,1.06,2.88h-1.2a6.74,6.74,0,0,0-1-2.38,5.54,5.54,0,0,0-1.9-1.76,5.72,5.72,0,0,0-2.83-.66,6.45,6.45,0,0,0-3.7,1,6,6,0,0,0-2.22,3,14.66,14.66,0,0,0-.74,5.06c0,3,.55,5.31,1.66,6.8a5.81,5.81,0,0,0,5,2.23,5.72,5.72,0,0,0,2.83-.66,5.42,5.42,0,0,0,1.9-1.75,6.74,6.74,0,0,0,1-2.38h1.2a6.1,6.1,0,0,1-.67,2.19,6.81,6.81,0,0,1-1.45,1.9,6.7,6.7,0,0,1-2.11,1.33A7,7,0,0,1,47.81,135.54Z" transform="translate(0 -4.03)"/><path class="cls-2" d="M65.56,135.54a7.78,7.78,0,0,1-4.31-1.16,7.32,7.32,0,0,1-2.8-3.42,13.89,13.89,0,0,1-1-5.57,14.09,14.09,0,0,1,1-5.61,7.5,7.5,0,0,1,2.8-3.45,7.79,7.79,0,0,1,4.31-1.17,7.67,7.67,0,0,1,4.29,1.17,7.31,7.31,0,0,1,2.76,3.44,14.49,14.49,0,0,1,1,5.62,14.26,14.26,0,0,1-1,5.57,7.41,7.41,0,0,1-2.76,3.42A7.67,7.67,0,0,1,65.56,135.54Zm0-1.12a6.7,6.7,0,0,0,3.74-1,6.06,6.06,0,0,0,2.29-3,14.21,14.21,0,0,0,.77-5,14,14,0,0,0-.79-5.08,6.13,6.13,0,0,0-2.3-3,6.57,6.57,0,0,0-3.71-1,6.66,6.66,0,0,0-3.73,1,6.37,6.37,0,0,0-2.35,3,16.18,16.18,0,0,0,0,10.11,6.18,6.18,0,0,0,2.35,3A6.74,6.74,0,0,0,65.56,134.42Z" transform="translate(0 -4.03)"/><path class="cls-2" d="M77.1,139.81V138.3a3.55,3.55,0,0,1,.47-1.9,4.54,4.54,0,0,1,1.22-1.33,13.59,13.59,0,0,1,1.58-1q.84-.45,1.59-.9a4.82,4.82,0,0,0,1.22-1,2.2,2.2,0,0,0,.47-1.41,1.91,1.91,0,0,0-.65-1.5,2.57,2.57,0,0,0-1.76-.57,2.83,2.83,0,0,0-1.91.65,2.59,2.59,0,0,0-.85,1.86H76.83a4,4,0,0,1,.51-2,3.77,3.77,0,0,1,1.5-1.46,5.15,5.15,0,0,1,2.47-.55,4.34,4.34,0,0,1,3,1,3.3,3.3,0,0,1,1.11,2.59,3.57,3.57,0,0,1-.47,1.88,4.65,4.65,0,0,1-1.19,1.31,12.36,12.36,0,0,1-1.56,1c-.55.28-1.07.56-1.56.85a4.44,4.44,0,0,0-1.2,1,2.07,2.07,0,0,0-.47,1.37v.2h6.53v1.5Z" transform="translate(0 -4.03)"/><path class="cls-2" d="M88.74,135.27V115.44h11.39v1.09H89.81v8.15h9.6v1.13h-9.6v8.31l10.7,0v1.12Z" transform="translate(0 -4.03)"/><path class="cls-2" d="M76.53,100.05a7.77,7.77,0,0,1-4.32-1.15,7,7,0,0,1-2.65-3.4,15.17,15.17,0,0,1-.9-5.6,15.42,15.42,0,0,1,.9-5.63,7.12,7.12,0,0,1,2.65-3.44,7.62,7.62,0,0,1,4.32-1.17,7,7,0,0,1,3.46.85,6.75,6.75,0,0,1,2.39,2.2,6.37,6.37,0,0,1,1.07,2.88H82.24a6.82,6.82,0,0,0-1-2.38,5.45,5.45,0,0,0-1.9-1.76,5.72,5.72,0,0,0-2.83-.66,6.45,6.45,0,0,0-3.7,1,6,6,0,0,0-2.22,3,14.76,14.76,0,0,0-.74,5.07c0,3,.55,5.31,1.66,6.79a5.81,5.81,0,0,0,5,2.23,5.72,5.72,0,0,0,2.83-.66,5.33,5.33,0,0,0,1.9-1.75,6.74,6.74,0,0,0,1-2.38h1.21a6.33,6.33,0,0,1-.68,2.19,6.77,6.77,0,0,1-1.44,1.9,6.87,6.87,0,0,1-2.12,1.33A7,7,0,0,1,76.53,100.05Z" transform="translate(0 -4.03)"/><path class="cls-2" d="M94.28,100.05A7.87,7.87,0,0,1,90,98.89a7.46,7.46,0,0,1-2.8-3.43,14,14,0,0,1-1-5.56,14.2,14.2,0,0,1,1-5.61A7.46,7.46,0,0,1,90,80.84a7.79,7.79,0,0,1,4.31-1.18,7.65,7.65,0,0,1,4.29,1.17,7.36,7.36,0,0,1,2.76,3.44,14.55,14.55,0,0,1,1,5.63,14.25,14.25,0,0,1-1,5.56,7.41,7.41,0,0,1-2.76,3.42A7.65,7.65,0,0,1,94.28,100.05Zm0-1.13a6.7,6.7,0,0,0,3.74-1,6,6,0,0,0,2.29-3,14,14,0,0,0,.78-5,14.2,14.2,0,0,0-.79-5.09,6.2,6.2,0,0,0-2.31-3,6.57,6.57,0,0,0-3.71-1,6.66,6.66,0,0,0-3.73,1,6.22,6.22,0,0,0-2.34,3,13.74,13.74,0,0,0-.81,5.07,13.5,13.5,0,0,0,.81,5,6.06,6.06,0,0,0,2.34,3A6.74,6.74,0,0,0,94.28,98.92Z" transform="translate(0 -4.03)"/><path class="cls-2" d="M105.82,104.31V102.8a3.64,3.64,0,0,1,.47-1.9,4.82,4.82,0,0,1,1.22-1.33,12.91,12.91,0,0,1,1.59-1c.55-.3,1.08-.59,1.58-.9a4.62,4.62,0,0,0,1.22-1,2.14,2.14,0,0,0,.47-1.41,1.88,1.88,0,0,0-.65-1.5,2.57,2.57,0,0,0-1.76-.57,2.85,2.85,0,0,0-1.91.65,2.67,2.67,0,0,0-.85,1.86h-1.64a4.09,4.09,0,0,1,.5-2,3.73,3.73,0,0,1,1.51-1.46,5.09,5.09,0,0,1,2.46-.54,4.34,4.34,0,0,1,3,1,3.29,3.29,0,0,1,1.1,2.58,3.57,3.57,0,0,1-.47,1.88,4.65,4.65,0,0,1-1.19,1.31,11.68,11.68,0,0,1-1.56,1c-.55.28-1.07.57-1.56.86a4.24,4.24,0,0,0-1.2,1,2.07,2.07,0,0,0-.47,1.37v.21h6.53v1.49Z" transform="translate(0 -4.03)"/><path class="cls-2" d="M117.46,99.77V79.94h11.39V81H118.53v8.14h9.6v1.13h-9.6v8.31l10.7,0v1.12Z" transform="translate(0 -4.03)"/><path class="cls-2" d="M125.5,135.54a7.77,7.77,0,0,1-4.32-1.14,7,7,0,0,1-2.66-3.4,18.16,18.16,0,0,1,0-11.23,7.09,7.09,0,0,1,2.66-3.44,7.62,7.62,0,0,1,4.32-1.17,6.84,6.84,0,0,1,5.85,3,6.36,6.36,0,0,1,1.06,2.88h-1.2a6.74,6.74,0,0,0-1-2.38,5.54,5.54,0,0,0-1.9-1.76,5.72,5.72,0,0,0-2.83-.66,6.42,6.42,0,0,0-3.7,1,6.12,6.12,0,0,0-2.23,3,14.9,14.9,0,0,0-.74,5.06c0,3,.56,5.31,1.66,6.8a5.84,5.84,0,0,0,5,2.23,5.72,5.72,0,0,0,2.83-.66,5.42,5.42,0,0,0,1.9-1.75,6.74,6.74,0,0,0,1-2.38h1.2a6.1,6.1,0,0,1-.67,2.19,6.89,6.89,0,0,1-3.56,3.23A7,7,0,0,1,125.5,135.54Z" transform="translate(0 -4.03)"/><path class="cls-2" d="M143.25,135.54a7.76,7.76,0,0,1-4.31-1.16,7.32,7.32,0,0,1-2.8-3.42,13.89,13.89,0,0,1-1-5.57,14.09,14.09,0,0,1,1-5.61,7.5,7.5,0,0,1,2.8-3.45,8.49,8.49,0,0,1,8.6,0,7.31,7.31,0,0,1,2.76,3.44,14.49,14.49,0,0,1,1,5.62,14.26,14.26,0,0,1-1,5.57,7.41,7.41,0,0,1-2.76,3.42A7.69,7.69,0,0,1,143.25,135.54Zm0-1.12a6.7,6.7,0,0,0,3.74-1,6.06,6.06,0,0,0,2.29-3,14.21,14.21,0,0,0,.77-5,14,14,0,0,0-.79-5.08,6.13,6.13,0,0,0-2.3-3,6.57,6.57,0,0,0-3.71-1,6.66,6.66,0,0,0-3.73,1,6.31,6.31,0,0,0-2.35,3,16.18,16.18,0,0,0,0,10.11,6.12,6.12,0,0,0,2.35,3A6.74,6.74,0,0,0,143.25,134.42Z" transform="translate(0 -4.03)"/><path class="cls-2" d="M154.78,139.81V138.3a3.55,3.55,0,0,1,.48-1.9,4.54,4.54,0,0,1,1.22-1.33,12.79,12.79,0,0,1,1.58-1q.84-.45,1.59-.9a5,5,0,0,0,1.22-1,2.2,2.2,0,0,0,.47-1.41,1.91,1.91,0,0,0-.65-1.5,2.59,2.59,0,0,0-1.76-.57,2.83,2.83,0,0,0-1.91.65,2.59,2.59,0,0,0-.85,1.86h-1.65a4,4,0,0,1,.51-2,3.77,3.77,0,0,1,1.5-1.46,5.15,5.15,0,0,1,2.47-.55,4.34,4.34,0,0,1,3,1,3.3,3.3,0,0,1,1.11,2.59,3.57,3.57,0,0,1-.47,1.88,4.65,4.65,0,0,1-1.19,1.31,12.36,12.36,0,0,1-1.56,1c-.55.28-1.07.56-1.56.85a4.44,4.44,0,0,0-1.2,1,2.07,2.07,0,0,0-.47,1.37v.2h6.53v1.5Z" transform="translate(0 -4.03)"/><path class="cls-2" d="M166.43,135.27V115.44h11.38v1.09H167.5v8.15h9.6v1.13h-9.6v8.31l10.7,0v1.12Z" transform="translate(0 -4.03)"/></g></g></svg>