<svg xmlns="http://www.w3.org/2000/svg" viewBox="0 0 209.39 120.81"><defs><style>.cls-1{fill:none;stroke:#fff;stroke-linecap:round;stroke-linejoin:round;stroke-width:5px;}.cls-2{fill:#fff;}</style></defs><title>Asset 4</title><g id="Layer_2" data-name="Layer 2"><g id="CLOUDS"><path class="cls-1" d="M32.75,57.81A30.21,30.21,0,0,1,41.14,59c0-.15,0-.31,0-.47A28.88,28.88,0,0,1,78.45,30.9a34.89,34.89,0,0,1,69.17,6.49c0,1-.05,1.93-.13,2.88a41.15,41.15,0,1,1,18.25,78h-133a30.25,30.25,0,0,1,0-60.5Z"/><path class="cls-2" d="M39.33,103a8.21,8.21,0,0,1-4.56-1.22,7.71,7.71,0,0,1-2.88-3.52,15.73,15.73,0,0,1,0-11,7.51,7.51,0,0,1,2.87-3.45,8.46,8.46,0,0,1,4.58-1.19A7.57,7.57,0,0,1,43,83.5a7.23,7.23,0,0,1,2.61,2.32A6.83,6.83,0,0,1,46.82,89h-2.7a5.89,5.89,0,0,0-.84-2.12,4.61,4.61,0,0,0-1.62-1.51,4.89,4.89,0,0,0-2.4-.56,5.23,5.23,0,0,0-3,.85,5.12,5.12,0,0,0-1.88,2.59,13.59,13.59,0,0,0-.64,4.5c0,2.77.48,4.79,1.42,6.09a4.83,4.83,0,0,0,4.14,1.94,4.69,4.69,0,0,0,2.4-.59,4.62,4.62,0,0,0,1.62-1.58,6.3,6.3,0,0,0,.84-2.14h2.7a8.46,8.46,0,0,1-.68,2.44A7.13,7.13,0,0,1,44.69,101a6.61,6.61,0,0,1-2.26,1.45A8.21,8.21,0,0,1,39.33,103Z"/><path class="cls-2" d="M57.84,103a8.52,8.52,0,0,1-4.58-1.2,7.75,7.75,0,0,1-3-3.46,14.94,14.94,0,0,1,0-11,7.9,7.9,0,0,1,3-3.49,8.53,8.53,0,0,1,4.56-1.21,8.43,8.43,0,0,1,4.56,1.2,7.79,7.79,0,0,1,3,3.49,15.24,15.24,0,0,1,0,11,7.71,7.71,0,0,1-3,3.46A8.44,8.44,0,0,1,57.84,103Zm0-2.21A5.6,5.6,0,0,0,61,100a5.19,5.19,0,0,0,2-2.59,15.26,15.26,0,0,0,0-9,5.29,5.29,0,0,0-2-2.64,6,6,0,0,0-6.23,0,5.38,5.38,0,0,0-2,2.64,12.52,12.52,0,0,0-.7,4.54,12.19,12.19,0,0,0,.7,4.49,5.24,5.24,0,0,0,2,2.59A5.63,5.63,0,0,0,57.84,100.8Z"/><path class="cls-2" d="M68.23,107.27v-1.51a3.55,3.55,0,0,1,.47-1.9,4.82,4.82,0,0,1,1.22-1.33,12.91,12.91,0,0,1,1.59-1c.55-.3,1.08-.59,1.58-.9a4.47,4.47,0,0,0,1.22-1,2.14,2.14,0,0,0,.47-1.41,1.88,1.88,0,0,0-.65-1.5,2.57,2.57,0,0,0-1.76-.57,2.85,2.85,0,0,0-1.91.65,2.67,2.67,0,0,0-.85,1.86H68a4.09,4.09,0,0,1,.5-2A3.73,3.73,0,0,1,70,95.17a5.09,5.09,0,0,1,2.46-.54,4.34,4.34,0,0,1,3,1,3.29,3.29,0,0,1,1.1,2.58,3.57,3.57,0,0,1-.47,1.88,4.65,4.65,0,0,1-1.19,1.31,11.08,11.08,0,0,1-1.56,1c-.55.28-1.07.57-1.56.86a4.24,4.24,0,0,0-1.2,1,2.07,2.07,0,0,0-.47,1.37v.21h6.53v1.49Z"/><path class="cls-2" d="M79.47,102.73V82.9H92v2.23H82v6.48h9v2.22H82v6.61l10.23,0v2.26Z"/><path class="cls-2" d="M72.85,67.52a8.23,8.23,0,0,1-4.56-1.22,7.63,7.63,0,0,1-2.88-3.51,13.73,13.73,0,0,1-1-5.53,13.59,13.59,0,0,1,1-5.48,7.51,7.51,0,0,1,2.87-3.45,8.38,8.38,0,0,1,4.58-1.19,7.74,7.74,0,0,1,3.72.87,7.31,7.31,0,0,1,2.6,2.33,6.79,6.79,0,0,1,1.17,3.19h-2.7a5.84,5.84,0,0,0-.84-2.11,4.52,4.52,0,0,0-1.62-1.51,4.89,4.89,0,0,0-2.4-.56,5.3,5.3,0,0,0-3,.84,5.14,5.14,0,0,0-1.88,2.6,13.5,13.5,0,0,0-.64,4.5c0,2.76.48,4.79,1.42,6.08a4.8,4.8,0,0,0,4.14,1.94,4.59,4.59,0,0,0,2.4-.59,4.68,4.68,0,0,0,1.62-1.57A6.38,6.38,0,0,0,77.64,61h2.7a8.31,8.31,0,0,1-.68,2.43,7,7,0,0,1-1.45,2.09A6.54,6.54,0,0,1,76,67,8.51,8.51,0,0,1,72.85,67.52Z"/><path class="cls-2" d="M91.36,67.52a8.61,8.61,0,0,1-4.58-1.19,7.77,7.77,0,0,1-3-3.47,13,13,0,0,1-1-5.49,13,13,0,0,1,1.06-5.53,7.79,7.79,0,0,1,3-3.49,9.23,9.23,0,0,1,9.12,0,7.76,7.76,0,0,1,3,3.48,13.28,13.28,0,0,1,1,5.55,13.15,13.15,0,0,1-1,5.49,7.74,7.74,0,0,1-3,3.47A8.52,8.52,0,0,1,91.36,67.52Zm0-2.21a5.68,5.68,0,0,0,3.13-.83,5.22,5.22,0,0,0,2-2.6,12.61,12.61,0,0,0,.68-4.48,12.7,12.7,0,0,0-.69-4.55,5.36,5.36,0,0,0-2-2.65,6.1,6.1,0,0,0-6.23,0,5.4,5.4,0,0,0-2,2.65,12.48,12.48,0,0,0-.7,4.54,12.14,12.14,0,0,0,.7,4.48,5.26,5.26,0,0,0,2,2.6A5.71,5.71,0,0,0,91.36,65.31Z"/><path class="cls-2" d="M101.75,71.79V70.28a3.64,3.64,0,0,1,.47-1.9,4.68,4.68,0,0,1,1.22-1.33,11.82,11.82,0,0,1,1.59-1c.55-.3,1.08-.6,1.58-.9a4.5,4.5,0,0,0,1.22-1,2.12,2.12,0,0,0,.47-1.4,1.86,1.86,0,0,0-.65-1.5,2.57,2.57,0,0,0-1.76-.57,2.8,2.8,0,0,0-1.91.65,2.63,2.63,0,0,0-.85,1.86h-1.64a4,4,0,0,1,.51-2,3.68,3.68,0,0,1,1.5-1.45,5,5,0,0,1,2.46-.55,4.39,4.39,0,0,1,3,1,3.33,3.33,0,0,1,1.1,2.59,3.59,3.59,0,0,1-.47,1.88,4.79,4.79,0,0,1-1.19,1.31,10.18,10.18,0,0,1-1.56,1c-.55.29-1.07.57-1.56.86a4.6,4.6,0,0,0-1.2,1,2.12,2.12,0,0,0-.47,1.38v.2h6.53v1.5Z"/><path class="cls-2" d="M113,67.25V47.41h12.5v2.24h-9.94v6.47h9v2.23h-9V65l10.23,0v2.27Z"/><path class="cls-2" d="M117,103a8.21,8.21,0,0,1-4.56-1.22,7.71,7.71,0,0,1-2.88-3.52,15.73,15.73,0,0,1,0-11,7.51,7.51,0,0,1,2.87-3.45A8.44,8.44,0,0,1,117,82.62a7.59,7.59,0,0,1,3.71.88,7.23,7.23,0,0,1,2.61,2.32,6.83,6.83,0,0,1,1.17,3.2h-2.71A5.7,5.7,0,0,0,121,86.9a4.61,4.61,0,0,0-1.62-1.51,4.89,4.89,0,0,0-2.4-.56,5.23,5.23,0,0,0-3,.85,5.12,5.12,0,0,0-1.88,2.59,13.59,13.59,0,0,0-.64,4.5c0,2.77.48,4.79,1.42,6.09A4.83,4.83,0,0,0,117,100.8a4.69,4.69,0,0,0,2.4-.59A4.62,4.62,0,0,0,121,98.63a6.08,6.08,0,0,0,.83-2.14h2.71a8.79,8.79,0,0,1-.68,2.44A7.13,7.13,0,0,1,122.4,101a6.61,6.61,0,0,1-2.26,1.45A8.21,8.21,0,0,1,117,103Z"/><path class="cls-2" d="M135.55,103a8.52,8.52,0,0,1-4.58-1.2,7.75,7.75,0,0,1-3-3.46,14.94,14.94,0,0,1,0-11,7.9,7.9,0,0,1,3-3.49,8.53,8.53,0,0,1,4.56-1.21,8.43,8.43,0,0,1,4.56,1.2,7.79,7.79,0,0,1,3,3.49,13.38,13.38,0,0,1,1,5.55,13.15,13.15,0,0,1-1,5.49,7.71,7.71,0,0,1-3,3.46A8.44,8.44,0,0,1,135.55,103Zm0-2.21a5.6,5.6,0,0,0,3.13-.84,5.19,5.19,0,0,0,2-2.59,15.26,15.26,0,0,0,0-9,5.34,5.34,0,0,0-2-2.64,6,6,0,0,0-6.23,0,5.38,5.38,0,0,0-2,2.64,12.52,12.52,0,0,0-.7,4.54,12.19,12.19,0,0,0,.7,4.49,5.24,5.24,0,0,0,2,2.59A5.63,5.63,0,0,0,135.55,100.8Z"/><path class="cls-2" d="M145.94,107.27v-1.51a3.55,3.55,0,0,1,.47-1.9,4.82,4.82,0,0,1,1.22-1.33,13.59,13.59,0,0,1,1.58-1c.56-.3,1.09-.59,1.59-.9a4.62,4.62,0,0,0,1.22-1,2.14,2.14,0,0,0,.47-1.41,1.88,1.88,0,0,0-.65-1.5,2.57,2.57,0,0,0-1.76-.57,2.83,2.83,0,0,0-1.91.65,2.67,2.67,0,0,0-.85,1.86h-1.64a4,4,0,0,1,.5-2,3.73,3.73,0,0,1,1.51-1.46,5.09,5.09,0,0,1,2.46-.54,4.29,4.29,0,0,1,3,1,3.27,3.27,0,0,1,1.11,2.58,3.57,3.57,0,0,1-.47,1.88,4.65,4.65,0,0,1-1.19,1.31,11.68,11.68,0,0,1-1.56,1c-.55.28-1.07.57-1.56.86a4.24,4.24,0,0,0-1.2,1,2.07,2.07,0,0,0-.47,1.37v.21h6.53v1.49Z"/><path class="cls-2" d="M157.18,102.73V82.9h12.51v2.23h-10v6.48h9v2.22h-9v6.61l10.23,0v2.26Z"/></g></g></svg>