<svg xmlns="http://www.w3.org/2000/svg" viewBox="0 0 209.39 120.81"><defs><style>.cls-1{fill:none;stroke:#fff;stroke-linecap:round;stroke-linejoin:round;stroke-width:5px;}.cls-2{fill:#fff;}</style></defs><title>Asset 21</title><g id="Layer_2" data-name="Layer 2"><g id="C"><path class="cls-1" d="M32.75,57.81A30.21,30.21,0,0,1,41.14,59c0-.15,0-.31,0-.47A28.91,28.91,0,0,1,78.45,30.9a34.89,34.89,0,0,1,69.17,6.49c0,1-.05,1.93-.13,2.88a41.15,41.15,0,1,1,18.25,78h-133a30.25,30.25,0,0,1,0-60.5Z"/></g><g id="CT"><path class="cls-2" d="M38.93,103a7.77,7.77,0,0,1-4.32-1.15A7,7,0,0,1,32,98.46a15.4,15.4,0,0,1-.89-5.6A15.64,15.64,0,0,1,32,87.23a7.13,7.13,0,0,1,2.66-3.44,7.62,7.62,0,0,1,4.32-1.17,7,7,0,0,1,3.46.85,6.84,6.84,0,0,1,2.39,2.2,6.36,6.36,0,0,1,1.06,2.88h-1.2a6.82,6.82,0,0,0-1-2.38,5.54,5.54,0,0,0-1.9-1.76,5.72,5.72,0,0,0-2.83-.66,6.43,6.43,0,0,0-3.7,1,6,6,0,0,0-2.23,3,15,15,0,0,0-.74,5.07c0,3,.56,5.31,1.66,6.79a5.84,5.84,0,0,0,5,2.23,5.72,5.72,0,0,0,2.83-.66,5.42,5.42,0,0,0,1.9-1.75,6.74,6.74,0,0,0,1-2.38h1.2a6.1,6.1,0,0,1-.67,2.19,6.89,6.89,0,0,1-3.56,3.23A7,7,0,0,1,38.93,103Z"/><path class="cls-2" d="M56.68,103a7.9,7.9,0,0,1-4.32-1.16,7.44,7.44,0,0,1-2.79-3.43,13.84,13.84,0,0,1-1-5.56,14,14,0,0,1,1-5.61,7.44,7.44,0,0,1,2.79-3.45,7.83,7.83,0,0,1,4.32-1.18A7.7,7.7,0,0,1,61,83.79a7.36,7.36,0,0,1,2.76,3.44,14.55,14.55,0,0,1,1,5.63,14.25,14.25,0,0,1-1,5.56A7.41,7.41,0,0,1,61,101.84,7.7,7.7,0,0,1,56.68,103Zm0-1.13a6.7,6.7,0,0,0,3.74-1,6,6,0,0,0,2.29-3,14.28,14.28,0,0,0,.77-5,14,14,0,0,0-.79-5.09,6.13,6.13,0,0,0-2.3-3,6.57,6.57,0,0,0-3.71-1,6.66,6.66,0,0,0-3.73,1,6.23,6.23,0,0,0-2.35,3,13.74,13.74,0,0,0-.81,5.07,13.5,13.5,0,0,0,.81,5,6.08,6.08,0,0,0,2.35,3A6.74,6.74,0,0,0,56.68,101.88Z"/><path class="cls-2" d="M68.21,107.27v-1.51a3.55,3.55,0,0,1,.48-1.9,4.67,4.67,0,0,1,1.22-1.33,12.79,12.79,0,0,1,1.58-1c.56-.3,1.09-.59,1.59-.9a4.79,4.79,0,0,0,1.22-1,2.2,2.2,0,0,0,.47-1.41,1.91,1.91,0,0,0-.65-1.5,2.59,2.59,0,0,0-1.76-.57,2.83,2.83,0,0,0-1.91.65,2.63,2.63,0,0,0-.85,1.86H68a4,4,0,0,1,.51-2A3.77,3.77,0,0,1,70,95.17a5.14,5.14,0,0,1,2.46-.54,4.3,4.3,0,0,1,3,1,3.27,3.27,0,0,1,1.11,2.58,3.57,3.57,0,0,1-.47,1.88,4.65,4.65,0,0,1-1.19,1.31,12.36,12.36,0,0,1-1.56,1c-.55.28-1.08.57-1.56.86a4.24,4.24,0,0,0-1.2,1,2,2,0,0,0-.47,1.37v.21h6.53v1.49Z"/><path class="cls-2" d="M79.86,102.73V82.9H91.24V84H80.93v8.14h9.6v1.13h-9.6v8.31l10.7,0v1.12Z"/><path class="cls-2" d="M72.42,67.51a7.71,7.71,0,0,1-4.32-1.15A7,7,0,0,1,65.45,63a15.17,15.17,0,0,1-.9-5.6,15.42,15.42,0,0,1,.9-5.63,7.16,7.16,0,0,1,2.65-3.44,7.71,7.71,0,0,1,4.32-1.16,7,7,0,0,1,3.46.84,6.88,6.88,0,0,1,2.4,2.2,6.56,6.56,0,0,1,1.06,2.88H78.13a6.63,6.63,0,0,0-1-2.38,5.42,5.42,0,0,0-1.9-1.75,5.62,5.62,0,0,0-2.83-.67,6.45,6.45,0,0,0-3.7,1,6,6,0,0,0-2.22,3,15,15,0,0,0-.74,5.07q0,4.56,1.66,6.8a6.65,6.65,0,0,0,7.83,1.57A5.42,5.42,0,0,0,77.15,64a6.63,6.63,0,0,0,1-2.38h1.21a6.19,6.19,0,0,1-.67,2.18A7,7,0,0,1,75.11,67,7.28,7.28,0,0,1,72.42,67.51Z"/><path class="cls-2" d="M90.17,67.51a7.87,7.87,0,0,1-4.31-1.16,7.44,7.44,0,0,1-2.8-3.42,14.1,14.1,0,0,1-1-5.57,14.27,14.27,0,0,1,1-5.61,7.52,7.52,0,0,1,2.8-3.45,8.54,8.54,0,0,1,8.61,0,7.46,7.46,0,0,1,2.75,3.44,14.55,14.55,0,0,1,1,5.63,14.21,14.21,0,0,1-1,5.56,7.4,7.4,0,0,1-2.75,3.42A7.71,7.71,0,0,1,90.17,67.51Zm0-1.13a6.76,6.76,0,0,0,3.74-1,6,6,0,0,0,2.29-3,14,14,0,0,0,.78-5,14.2,14.2,0,0,0-.79-5.09,6.25,6.25,0,0,0-2.31-3,7.39,7.39,0,0,0-7.44,0,6.28,6.28,0,0,0-2.34,3,13.74,13.74,0,0,0-.81,5.07,13.59,13.59,0,0,0,.81,5,6.21,6.21,0,0,0,2.34,3A6.84,6.84,0,0,0,90.17,66.38Z"/><path class="cls-2" d="M101.71,71.77v-1.5a3.62,3.62,0,0,1,.47-1.9A4.68,4.68,0,0,1,103.4,67,13,13,0,0,1,105,66c.55-.29,1.08-.59,1.58-.89a4.68,4.68,0,0,0,1.22-1,2.15,2.15,0,0,0,.48-1.41,1.89,1.89,0,0,0-.66-1.5,2.57,2.57,0,0,0-1.76-.57,2.85,2.85,0,0,0-1.91.65,2.67,2.67,0,0,0-.85,1.86h-1.64a4,4,0,0,1,.51-2,3.62,3.62,0,0,1,1.5-1.45,5,5,0,0,1,2.46-.55,4.39,4.39,0,0,1,3,1,3.29,3.29,0,0,1,1.1,2.58,3.45,3.45,0,0,1-.47,1.88,4.38,4.38,0,0,1-1.19,1.31,10.23,10.23,0,0,1-1.56,1c-.55.28-1.07.57-1.56.86a4.6,4.6,0,0,0-1.2,1,2.09,2.09,0,0,0-.47,1.37v.21h6.53v1.49Z"/><path class="cls-2" d="M113.35,67.23V47.4h11.39v1.1H114.42v8.15H124v1.12h-9.61v8.31l10.7,0v1.12Z"/><path class="cls-2" d="M116.59,103a7.77,7.77,0,0,1-4.32-1.15,7,7,0,0,1-2.65-3.4,15.17,15.17,0,0,1-.9-5.6,15.42,15.42,0,0,1,.9-5.63,7.12,7.12,0,0,1,2.65-3.44,7.62,7.62,0,0,1,4.32-1.17,7,7,0,0,1,3.46.85,6.84,6.84,0,0,1,2.39,2.2,6.36,6.36,0,0,1,1.06,2.88h-1.2a6.82,6.82,0,0,0-1-2.38,5.54,5.54,0,0,0-1.9-1.76,5.72,5.72,0,0,0-2.83-.66,6.45,6.45,0,0,0-3.7,1,6,6,0,0,0-2.22,3,14.74,14.74,0,0,0-.75,5.07c0,3,.56,5.31,1.66,6.79a5.84,5.84,0,0,0,5,2.23,5.72,5.72,0,0,0,2.83-.66,5.42,5.42,0,0,0,1.9-1.75,6.74,6.74,0,0,0,1-2.38h1.2a6.1,6.1,0,0,1-.67,2.19,6.81,6.81,0,0,1-1.45,1.9,6.7,6.7,0,0,1-2.11,1.33A7,7,0,0,1,116.59,103Z"/><path class="cls-2" d="M134.34,103a7.87,7.87,0,0,1-4.31-1.16,7.4,7.4,0,0,1-2.8-3.43,13.84,13.84,0,0,1-1-5.56,14,14,0,0,1,1-5.61A7.4,7.4,0,0,1,130,83.8a7.79,7.79,0,0,1,4.31-1.18,7.67,7.67,0,0,1,4.29,1.17,7.36,7.36,0,0,1,2.76,3.44,14.55,14.55,0,0,1,1,5.63,14.25,14.25,0,0,1-1,5.56,7.41,7.41,0,0,1-2.76,3.42A7.67,7.67,0,0,1,134.34,103Zm0-1.13a6.7,6.7,0,0,0,3.74-1,6,6,0,0,0,2.29-3,14.28,14.28,0,0,0,.77-5,14,14,0,0,0-.79-5.09,6.13,6.13,0,0,0-2.3-3,6.57,6.57,0,0,0-3.71-1,6.66,6.66,0,0,0-3.73,1,6.23,6.23,0,0,0-2.35,3,13.74,13.74,0,0,0-.81,5.07,13.5,13.5,0,0,0,.81,5,6.08,6.08,0,0,0,2.35,3A6.74,6.74,0,0,0,134.34,101.88Z"/><path class="cls-2" d="M145.88,107.27v-1.51a3.55,3.55,0,0,1,.47-1.9,4.67,4.67,0,0,1,1.22-1.33,13.59,13.59,0,0,1,1.58-1c.56-.3,1.09-.59,1.59-.9a4.62,4.62,0,0,0,1.22-1,2.2,2.2,0,0,0,.47-1.41,1.91,1.91,0,0,0-.65-1.5,2.57,2.57,0,0,0-1.76-.57,2.83,2.83,0,0,0-1.91.65,2.63,2.63,0,0,0-.85,1.86h-1.65a4,4,0,0,1,.51-2,3.77,3.77,0,0,1,1.5-1.46,5.16,5.16,0,0,1,2.47-.54,4.29,4.29,0,0,1,3,1,3.27,3.27,0,0,1,1.11,2.58,3.57,3.57,0,0,1-.47,1.88,4.65,4.65,0,0,1-1.19,1.31,12.36,12.36,0,0,1-1.56,1c-.55.28-1.07.57-1.56.86a4.24,4.24,0,0,0-1.2,1,2.07,2.07,0,0,0-.47,1.37v.21h6.53v1.49Z"/><path class="cls-2" d="M157.52,102.73V82.9h11.39V84H158.59v8.14h9.6v1.13h-9.6v8.31l10.7,0v1.12Z"/></g></g></svg>