<svg xmlns="http://www.w3.org/2000/svg" viewBox="0 0 209.39 120.81"><defs><style>.cls-1{fill:none;stroke:#fff;stroke-linecap:round;stroke-linejoin:round;stroke-width:5px;}.cls-2{fill:#fff;}</style></defs><title>Asset 28</title><g id="Layer_2" data-name="Layer 2"><g id="C"><path class="cls-1" d="M32.75,57.81A30.21,30.21,0,0,1,41.14,59c0-.15,0-.31,0-.47A28.91,28.91,0,0,1,78.45,30.9a34.89,34.89,0,0,1,69.17,6.49c0,1-.05,1.93-.13,2.88a41.15,41.15,0,1,1,18.25,78h-133a30.25,30.25,0,0,1,0-60.5Z"/></g><g id="CT"><path class="cls-2" d="M39.33,109.67a8.21,8.21,0,0,1-4.56-1.22,7.73,7.73,0,0,1-2.88-3.51,15.75,15.75,0,0,1,0-11,7.51,7.51,0,0,1,2.87-3.45,8.43,8.43,0,0,1,4.58-1.18,7.67,7.67,0,0,1,3.71.87,7.23,7.23,0,0,1,2.61,2.32,6.87,6.87,0,0,1,1.17,3.2H44.11a5.77,5.77,0,0,0-.83-2.12,4.49,4.49,0,0,0-1.62-1.5,4.79,4.79,0,0,0-2.4-.57,5.23,5.23,0,0,0-3,.85,5.14,5.14,0,0,0-1.88,2.6,13.5,13.5,0,0,0-.64,4.5c0,2.76.48,4.78,1.42,6.08a4.83,4.83,0,0,0,4.14,1.94,4.69,4.69,0,0,0,2.4-.59,4.62,4.62,0,0,0,1.62-1.58,6.08,6.08,0,0,0,.83-2.14h2.71a8.37,8.37,0,0,1-.68,2.44,7,7,0,0,1-1.45,2.09,6.47,6.47,0,0,1-2.26,1.45A8.21,8.21,0,0,1,39.33,109.67Z"/><path class="cls-2" d="M57.84,109.67a8.52,8.52,0,0,1-4.58-1.2,7.75,7.75,0,0,1-3-3.46,14.94,14.94,0,0,1,0-11,7.9,7.9,0,0,1,3-3.49,8.52,8.52,0,0,1,4.56-1.2,8.43,8.43,0,0,1,4.56,1.2,7.76,7.76,0,0,1,3,3.48,15.24,15.24,0,0,1,0,11,7.71,7.71,0,0,1-3,3.46A8.44,8.44,0,0,1,57.84,109.67Zm0-2.21a5.6,5.6,0,0,0,3.13-.84,5.15,5.15,0,0,0,2-2.59,15.26,15.26,0,0,0,0-9,5.29,5.29,0,0,0-2-2.64,6,6,0,0,0-6.23,0,5.38,5.38,0,0,0-2,2.64,12.52,12.52,0,0,0-.7,4.54,12.19,12.19,0,0,0,.7,4.49,5.19,5.19,0,0,0,2,2.59A5.63,5.63,0,0,0,57.84,107.46Z"/><path class="cls-2" d="M68.21,107.27v-1.51a3.55,3.55,0,0,1,.48-1.9,4.67,4.67,0,0,1,1.22-1.33,12.79,12.79,0,0,1,1.58-1c.56-.3,1.09-.59,1.59-.9a4.79,4.79,0,0,0,1.22-1,2.2,2.2,0,0,0,.47-1.41,1.91,1.91,0,0,0-.65-1.5,2.59,2.59,0,0,0-1.76-.57,2.83,2.83,0,0,0-1.91.65,2.63,2.63,0,0,0-.85,1.86H68a4,4,0,0,1,.51-2A3.77,3.77,0,0,1,70,95.17a5.14,5.14,0,0,1,2.46-.54,4.3,4.3,0,0,1,3,1,3.27,3.27,0,0,1,1.11,2.58,3.57,3.57,0,0,1-.47,1.88,4.65,4.65,0,0,1-1.19,1.31,12.36,12.36,0,0,1-1.56,1c-.55.28-1.08.57-1.56.86a4.24,4.24,0,0,0-1.2,1,2,2,0,0,0-.47,1.37v.21h6.53v1.49Z"/><path class="cls-2" d="M79.46,102.73V82.9H92v2.23H82v6.48h9v2.22H82v6.61l10.23,0v2.26Z"/><path class="cls-2" d="M72.82,67.51a8.26,8.26,0,0,1-4.56-1.22,7.73,7.73,0,0,1-2.88-3.51,13.91,13.91,0,0,1-1-5.53,13.86,13.86,0,0,1,1-5.49,7.47,7.47,0,0,1,2.88-3.45,8.42,8.42,0,0,1,4.57-1.18,7.74,7.74,0,0,1,3.72.87,7.23,7.23,0,0,1,2.61,2.32,7,7,0,0,1,1.16,3.2h-2.7a5.84,5.84,0,0,0-.84-2.11,4.48,4.48,0,0,0-1.61-1.51,4.8,4.8,0,0,0-2.41-.56,5.27,5.27,0,0,0-3,.84,5.09,5.09,0,0,0-1.88,2.6,13.25,13.25,0,0,0-.64,4.5q0,4.14,1.42,6.08a4.81,4.81,0,0,0,4.13,1.94,4.47,4.47,0,0,0,4-2.17A6.22,6.22,0,0,0,77.61,61h2.7a8,8,0,0,1-.68,2.44,7,7,0,0,1-1.44,2.09A6.66,6.66,0,0,1,75.93,67,8.27,8.27,0,0,1,72.82,67.51Z"/><path class="cls-2" d="M91.34,67.51a8.58,8.58,0,0,1-4.58-1.19,7.79,7.79,0,0,1-3-3.47,13,13,0,0,1-1-5.49,13.23,13.23,0,0,1,1-5.54,7.92,7.92,0,0,1,3-3.49,9.25,9.25,0,0,1,9.11,0,7.84,7.84,0,0,1,3,3.48,13.38,13.38,0,0,1,1,5.55,13.15,13.15,0,0,1-1,5.49,7.72,7.72,0,0,1-3,3.47A8.55,8.55,0,0,1,91.34,67.51Zm0-2.21a5.63,5.63,0,0,0,3.13-.84,5.13,5.13,0,0,0,2-2.59,12.39,12.39,0,0,0,.68-4.48,13,13,0,0,0-.68-4.56,5.36,5.36,0,0,0-2-2.64,5.43,5.43,0,0,0-8.23,2.66,12.66,12.66,0,0,0-.7,4.54,12.35,12.35,0,0,0,.7,4.48,5.26,5.26,0,0,0,2,2.59A5.58,5.58,0,0,0,91.34,65.3Z"/><path class="cls-2" d="M101.71,71.77v-1.5a3.62,3.62,0,0,1,.47-1.9A4.68,4.68,0,0,1,103.4,67,13,13,0,0,1,105,66c.55-.29,1.08-.59,1.58-.89a4.68,4.68,0,0,0,1.22-1,2.15,2.15,0,0,0,.48-1.41,1.89,1.89,0,0,0-.66-1.5,2.57,2.57,0,0,0-1.76-.57,2.85,2.85,0,0,0-1.91.65,2.67,2.67,0,0,0-.85,1.86h-1.64a4,4,0,0,1,.51-2,3.62,3.62,0,0,1,1.5-1.45,5,5,0,0,1,2.46-.55,4.39,4.39,0,0,1,3,1,3.29,3.29,0,0,1,1.1,2.58,3.45,3.45,0,0,1-.47,1.88,4.38,4.38,0,0,1-1.19,1.31,10.23,10.23,0,0,1-1.56,1c-.55.28-1.07.57-1.56.86a4.6,4.6,0,0,0-1.2,1,2.09,2.09,0,0,0-.47,1.37v.21h6.53v1.49Z"/><path class="cls-2" d="M113,67.23V47.4h12.51l0,2.24h-9.94v6.47h8.95v2.22h-9v6.61l10.24,0v2.26Z"/><path class="cls-2" d="M117,103a8.26,8.26,0,0,1-4.56-1.22,7.71,7.71,0,0,1-2.88-3.52,15.73,15.73,0,0,1,0-11,7.51,7.51,0,0,1,2.87-3.45A8.46,8.46,0,0,1,117,82.62a7.63,7.63,0,0,1,3.72.88,7.28,7.28,0,0,1,2.6,2.32,6.83,6.83,0,0,1,1.17,3.2h-2.7a5.89,5.89,0,0,0-.84-2.12,4.61,4.61,0,0,0-1.62-1.51,4.89,4.89,0,0,0-2.4-.56,5.23,5.23,0,0,0-3,.85A5.12,5.12,0,0,0,112,88.27a13.59,13.59,0,0,0-.64,4.5c0,2.77.48,4.79,1.42,6.09a4.83,4.83,0,0,0,4.14,1.94,4.69,4.69,0,0,0,2.4-.59,4.62,4.62,0,0,0,1.62-1.58,6.3,6.3,0,0,0,.84-2.14h2.7a8.46,8.46,0,0,1-.68,2.44,7.13,7.13,0,0,1-1.45,2.09,6.66,6.66,0,0,1-2.25,1.45A8.3,8.3,0,0,1,117,103Z"/><path class="cls-2" d="M135.5,103a8.52,8.52,0,0,1-4.58-1.2,7.75,7.75,0,0,1-3-3.46,14.94,14.94,0,0,1,0-11,7.9,7.9,0,0,1,3-3.49,8.53,8.53,0,0,1,4.56-1.21,8.43,8.43,0,0,1,4.56,1.2,7.79,7.79,0,0,1,3,3.49,15.24,15.24,0,0,1,0,11,7.71,7.71,0,0,1-3,3.46A8.44,8.44,0,0,1,135.5,103Zm0-2.21a5.6,5.6,0,0,0,3.13-.84,5.19,5.19,0,0,0,2-2.59,15.26,15.26,0,0,0,0-9,5.29,5.29,0,0,0-2-2.64,6,6,0,0,0-6.23,0,5.43,5.43,0,0,0-2,2.64,12.52,12.52,0,0,0-.7,4.54,12.19,12.19,0,0,0,.7,4.49,5.29,5.29,0,0,0,2,2.59A5.63,5.63,0,0,0,135.5,100.8Z"/><path class="cls-2" d="M145.88,107.27v-1.51a3.55,3.55,0,0,1,.47-1.9,4.67,4.67,0,0,1,1.22-1.33,13.59,13.59,0,0,1,1.58-1c.56-.3,1.09-.59,1.59-.9a4.62,4.62,0,0,0,1.22-1,2.2,2.2,0,0,0,.47-1.41,1.91,1.91,0,0,0-.65-1.5,2.57,2.57,0,0,0-1.76-.57,2.83,2.83,0,0,0-1.91.65,2.63,2.63,0,0,0-.85,1.86h-1.65a4,4,0,0,1,.51-2,3.77,3.77,0,0,1,1.5-1.46,5.16,5.16,0,0,1,2.47-.54,4.29,4.29,0,0,1,3,1,3.27,3.27,0,0,1,1.11,2.58,3.57,3.57,0,0,1-.47,1.88,4.65,4.65,0,0,1-1.19,1.31,12.36,12.36,0,0,1-1.56,1c-.55.28-1.07.57-1.56.86a4.24,4.24,0,0,0-1.2,1,2.07,2.07,0,0,0-.47,1.37v.21h6.53v1.49Z"/><path class="cls-2" d="M157.12,102.73V82.9h12.51v2.23h-10v6.48h9v2.22h-9v6.61l10.23,0v2.26Z"/></g></g></svg>