<svg xmlns="http://www.w3.org/2000/svg" viewBox="0 0 231.47 110.25"><defs><style>.cls-1{fill:#1e9b9b;}.cls-2{fill:none;stroke:#1e9b9b;stroke-miterlimit:10;stroke-width:2px;}</style></defs><title>Asset 17</title><g id="Layer_2" data-name="Layer 2"><g id="Layer_1-2" data-name="Layer 1"><path class="cls-1" d="M113.1,26.18l-7.39-7.38,2.6-2.61a4.7,4.7,0,0,1,1.43-1,2.27,2.27,0,0,1,1.39-.16,2.57,2.57,0,0,1,1.28.74,2.68,2.68,0,0,1,.77,1.26,2.56,2.56,0,0,1,0,1.23,3.58,3.58,0,0,1-.4,1l5.14,2.07-.46.46-5-2L110,22.27l3.52,3.51Zm-3.54-4.33L111.42,20a4.32,4.32,0,0,0,1.27-2,1.86,1.86,0,0,0-.64-1.75,1.87,1.87,0,0,0-1.61-.67,3.25,3.25,0,0,0-1.73,1l-2.19,2.2Z" transform="translate(0 -2.22)"/><path class="cls-1" d="M119.2,20.41l-5.7-8.76,5-3.27.32.48-4.56,3,2.34,3.59,4.24-2.76.33.5L117,15.92l2.39,3.67,4.73-3.06.32.49Z" transform="translate(0 -2.22)"/><path class="cls-1" d="M125.63,16.38l-3.71-9.77.15-.05.36-.14.52-.19.59-.22a7.69,7.69,0,0,1,3.13-.59,3.6,3.6,0,0,1,2.25,1,6.6,6.6,0,0,1,1.54,2.49,6.62,6.62,0,0,1,.5,3,3.77,3.77,0,0,1-1.13,2.28,7.67,7.67,0,0,1-2.77,1.65Zm.37-.78.81-.3a7.72,7.72,0,0,0,2.48-1.43,3.24,3.24,0,0,0,1.06-2,5.68,5.68,0,0,0-.44-2.75,5.61,5.61,0,0,0-1.54-2.41A3.14,3.14,0,0,0,126.28,6a7.9,7.9,0,0,0-2.68.59l-.89.34Z" transform="translate(0 -2.22)"/><path class="cls-1" d="M137.15,13.19a4.52,4.52,0,0,1-2-.12,2.43,2.43,0,0,1-1.28-1,4.81,4.81,0,0,1-.64-2l-1-6.93.61-.08,1,7.17a2.89,2.89,0,0,0,1,2,2.85,2.85,0,0,0,2.21.42,3.55,3.55,0,0,0,1.56-.53,2.07,2.07,0,0,0,.83-1.06,3.36,3.36,0,0,0,.11-1.58l-1-7.17.55-.08,1,7.15a4.24,4.24,0,0,1-.12,1.92,2.54,2.54,0,0,1-1,1.27A4.63,4.63,0,0,1,137.15,13.19Z" transform="translate(0 -2.22)"/><path class="cls-1" d="M145.72,13a4.14,4.14,0,0,1-2.22-.8,3.77,3.77,0,0,1-1.24-1.9,8.25,8.25,0,0,1-.21-3,8.16,8.16,0,0,1,.72-2.91,3.74,3.74,0,0,1,1.55-1.68,4,4,0,0,1,2.32-.42,3.62,3.62,0,0,1,2.94,1.86A3.45,3.45,0,0,1,150,5.71l-.63-.06A3.42,3.42,0,0,0,149,4.36a2.84,2.84,0,0,0-.91-1,3,3,0,0,0-1.46-.48,3.37,3.37,0,0,0-2,.36,3.2,3.2,0,0,0-1.3,1.49,7.82,7.82,0,0,0-.62,2.63,6,6,0,0,0,.56,3.64,3.09,3.09,0,0,0,2.53,1.4,2.93,2.93,0,0,0,1.51-.22,2.78,2.78,0,0,0,1.08-.83,3.56,3.56,0,0,0,.62-1.21l.63.06a3.07,3.07,0,0,1-.45,1.12,3.7,3.7,0,0,1-.84.93,3.81,3.81,0,0,1-1.17.6A3.73,3.73,0,0,1,145.72,13Z" transform="translate(0 -2.22)"/><path class="cls-1" d="M150.84,13.52l3.08-10,5.73,1.76-.17.56-5.19-1.61L153,8.36l4.83,1.49-.18.56-4.83-1.49-1.29,4.19,5.38,1.67-.17.57Z" transform="translate(0 -2.22)"/><path class="cls-1" d="M160.74,17.57a5,5,0,0,1-1.11-.82,3.91,3.91,0,0,1-.74-1,2.95,2.95,0,0,1-.14-2.38l.55.31a2.36,2.36,0,0,0,0,1.34,2.79,2.79,0,0,0,.63,1.17,4,4,0,0,0,1.12.9,3.84,3.84,0,0,0,1.45.49,2.57,2.57,0,0,0,1.31-.16,1.87,1.87,0,0,0,.93-.85,1.75,1.75,0,0,0,.21-1.25,3,3,0,0,0-.87-1.39l-1.72-1.73a5.56,5.56,0,0,1-.75-1,2.18,2.18,0,0,1-.32-1.07,2.42,2.42,0,0,1,.35-1.24,2.4,2.4,0,0,1,1.07-1,3,3,0,0,1,1.51-.26,4.46,4.46,0,0,1,3.16,1.85,3,3,0,0,1,.49,1.53,2.66,2.66,0,0,1-.33,1.38l-.55-.31a2.48,2.48,0,0,0,.23-1.46,2.5,2.5,0,0,0-.57-1.15,4.14,4.14,0,0,0-1.05-.83,3,3,0,0,0-2.06-.43,2,2,0,0,0-1.37,1,1.61,1.61,0,0,0-.18,1.33,3.49,3.49,0,0,0,.86,1.27l1.75,1.77a3.56,3.56,0,0,1,.84,1.2,2.16,2.16,0,0,1,.15,1.1,2.68,2.68,0,0,1-.32,1,2.61,2.61,0,0,1-1.07,1,3,3,0,0,1-1.57.28A4.37,4.37,0,0,1,160.74,17.57Z" transform="translate(0 -2.22)"/><path class="cls-1" d="M171.51,26.48a4.08,4.08,0,0,1-1-2.13,3.74,3.74,0,0,1,.48-2.23,8.05,8.05,0,0,1,2-2.25,8,8,0,0,1,2.58-1.54,3.73,3.73,0,0,1,2.28-.09,4.05,4.05,0,0,1,1.94,1.35,3.66,3.66,0,0,1,.82,1.68,3.52,3.52,0,0,1-.08,1.71,3.3,3.3,0,0,1-.8,1.4l-.41-.48a3.46,3.46,0,0,0,.63-1.2,3,3,0,0,0,.07-1.36,3,3,0,0,0-.69-1.37,3.42,3.42,0,0,0-1.66-1.16,3.15,3.15,0,0,0-2,.13,8.07,8.07,0,0,0-2.3,1.41,6,6,0,0,0-2.19,3,3.09,3.09,0,0,0,.8,2.78,3,3,0,0,0,1.22.92,2.72,2.72,0,0,0,1.35.17,3.52,3.52,0,0,0,1.29-.4l.41.48a3.24,3.24,0,0,1-1.11.47,3.79,3.79,0,0,1-1.26.06,3.6,3.6,0,0,1-1.25-.41A3.65,3.65,0,0,1,171.51,26.48Z" transform="translate(0 -2.22)"/><path class="cls-1" d="M176.2,33.58a4.12,4.12,0,0,1-.47-2.3,3.86,3.86,0,0,1,1-2.13,8.54,8.54,0,0,1,5.25-2.64,3.94,3.94,0,0,1,2.29.49,4,4,0,0,1,1.57,1.76,4,4,0,0,1,.47,2.29,3.92,3.92,0,0,1-1,2.12A7.76,7.76,0,0,1,182.88,35a7.45,7.45,0,0,1-2.85.86,3.84,3.84,0,0,1-2.26-.48A4.09,4.09,0,0,1,176.2,33.58Zm.53-.26a3.49,3.49,0,0,0,1.35,1.52,3.14,3.14,0,0,0,2,.37,8.86,8.86,0,0,0,4.76-2.41,3.17,3.17,0,0,0,.87-1.8,3.9,3.9,0,0,0-1.76-3.49,3.24,3.24,0,0,0-2-.39,7.3,7.3,0,0,0-2.57.82,7.06,7.06,0,0,0-2.18,1.58,3.21,3.21,0,0,0-.86,1.81A3.68,3.68,0,0,0,176.73,33.32Z" transform="translate(0 -2.22)"/><path class="cls-1" d="M177,38l1.08.62c1.39.83,2.22,1.23,2.93,1a1,1,0,0,0,.64-1.35,2.25,2.25,0,0,0-.78-1l.53-.48a2.89,2.89,0,0,1,1.1,1.51,1.69,1.69,0,0,1-1,2.32c-1,.31-2-.24-3.28-1l-.52-.3h0l.73,2.37-.76.23-1.15-3.73Z" transform="translate(0 -2.22)"/><path class="cls-1" d="M179.62,42.26,190,40.72l.88,5.93-.57.09-.8-5.37-4.24.63.74,5-.59.09-.74-5-4.33.65.81,5.58-.58.08Z" transform="translate(0 -2.22)"/><path class="cls-1" d="M192.51,56l-.07-10.45,2.94,0a4.67,4.67,0,0,1,2.73.68,2.29,2.29,0,0,1,1,2,2.38,2.38,0,0,1-.46,1.51,3,3,0,0,1-1.59,1,3.6,3.6,0,0,1,1,.3,2.35,2.35,0,0,1,.73.52,1.88,1.88,0,0,1,.44.73,2.87,2.87,0,0,1,.15,1,2.33,2.33,0,0,1-1,2.09,5.14,5.14,0,0,1-2.88.72Zm.53-5.58,2.54,0a5.92,5.92,0,0,0,1-.09,3.5,3.5,0,0,0,1-.32,1.93,1.93,0,0,0,.71-.65,1.86,1.86,0,0,0,.27-1,1.81,1.81,0,0,0-.89-1.67,4.41,4.41,0,0,0-2.32-.51l-2.31,0Zm0,5h2.34a5.35,5.35,0,0,0,2.54-.5,1.68,1.68,0,0,0,.87-1.63,2,2,0,0,0-.44-1.35,2.47,2.47,0,0,0-1.18-.71,5.88,5.88,0,0,0-1.62-.21L193,51Z" transform="translate(0 -2.22)"/><path class="cls-1" d="M202.41,56.84l1.28-4.32L202,45.83l.61.18,1.5,6.05,4.49-4.28.59.18-5,4.73L202.94,57Z" transform="translate(0 -2.22)"/><path class="cls-1" d="M212.54,62.28l5.83-6.58-1.62-1.44.37-.42a7.49,7.49,0,0,0,1.17.89,1,1,0,0,0,.72.18,1.12,1.12,0,0,0,.54-.37l.38.34L213,62.7Z" transform="translate(0 -2.22)"/><path class="cls-1" d="M214.55,64.26l.85-.73.57.67-.85.72Z" transform="translate(0 -2.22)"/><path class="cls-1" d="M217.12,67.65l7.43-4.72-1.16-1.83.48-.3a8,8,0,0,0,.87,1.18,1.05,1.05,0,0,0,.64.37,1.15,1.15,0,0,0,.63-.21l.27.43-8.82,5.6Z" transform="translate(0 -2.22)"/><path class="cls-1" d="M219.82,72.66,230,70.51l.12.58-5.89,1.24,7,4.19.16.76L226.6,74.4l-5.31,5.24-.15-.7,5-4.87-2.65-1.57-3.52.74Z" transform="translate(0 -2.22)"/><path class="cls-1" d="M220.76,83.84a4,4,0,0,1,.86-2.16,3.9,3.9,0,0,1,1.95-1.21,7.73,7.73,0,0,1,3-.14,7.85,7.85,0,0,1,2.87.84,3.74,3.74,0,0,1,1.64,1.63,4,4,0,0,1,.36,2.31,3.37,3.37,0,0,1-.4,1.22,4.14,4.14,0,0,1-.82,1,4.06,4.06,0,0,1-1.09.7,2.83,2.83,0,0,1-1.21.23l.07-.63a2.93,2.93,0,0,0,1.29-.37,3.33,3.33,0,0,0,1.05-.93,2.72,2.72,0,0,0,.52-1.33,3.44,3.44,0,0,0-.31-2,3.29,3.29,0,0,0-1.44-1.42,7,7,0,0,0-2.6-.74,8.25,8.25,0,0,0-2.11,0,4.22,4.22,0,0,0-1.57.54,3,3,0,0,0-1,1,3.6,3.6,0,0,0-.47,1.44,3.16,3.16,0,0,0,.14,1.47,3,3,0,0,0,.66,1.1,3.41,3.41,0,0,0,1,.71,3.24,3.24,0,0,0,1,.32l1.21.14.34-2.9.5.06-.41,3.46-5.28-.63.07-.56,1.81.22a3.46,3.46,0,0,1-.9-.85,3.28,3.28,0,0,1-.58-1.15A3.49,3.49,0,0,1,220.76,83.84Z" transform="translate(0 -2.22)"/><path class="cls-2" d="M223.45,93.92a30.35,30.35,0,0,1-27.53,17.55H27.34A26.35,26.35,0,1,1,38.16,61.11,39.44,39.44,0,0,1,100.21,40.8,43.18,43.18,0,0,1,106.87,26" transform="translate(0 -2.22)"/><path class="cls-1" d="M45,80.3a4.86,4.86,0,0,1-2.72-.72,4.4,4.4,0,0,1-1.68-2.14,11.47,11.47,0,0,1,0-7.08,4.49,4.49,0,0,1,1.68-2.17A4.78,4.78,0,0,1,45,67.45a4.29,4.29,0,0,1,3.69,1.92,4,4,0,0,1,.67,1.82h-.76a4.22,4.22,0,0,0-.62-1.5,3.37,3.37,0,0,0-1.2-1.11A3.55,3.55,0,0,0,45,68.16a4.07,4.07,0,0,0-2.33.63,3.88,3.88,0,0,0-1.41,1.92,9.4,9.4,0,0,0-.46,3.19,7.25,7.25,0,0,0,1,4.29A3.68,3.68,0,0,0,45,79.6a3.55,3.55,0,0,0,1.78-.42,3.35,3.35,0,0,0,1.2-1.1,4.3,4.3,0,0,0,.62-1.5h.76A3.93,3.93,0,0,1,49,78,4.54,4.54,0,0,1,48,79.15,4.11,4.11,0,0,1,46.7,80,4.39,4.39,0,0,1,45,80.3Z" transform="translate(0 -2.22)"/><path class="cls-1" d="M56.21,80.3a5,5,0,0,1-2.73-.73,4.63,4.63,0,0,1-1.76-2.15,10.33,10.33,0,0,1,0-7,4.71,4.71,0,0,1,1.76-2.18,5,5,0,0,1,2.73-.74,4.83,4.83,0,0,1,2.7.74,4.59,4.59,0,0,1,1.74,2.17,9,9,0,0,1,.61,3.54,8.87,8.87,0,0,1-.61,3.51,4.61,4.61,0,0,1-1.74,2.16A4.82,4.82,0,0,1,56.21,80.3Zm0-.7A4.16,4.16,0,0,0,58.56,79,3.77,3.77,0,0,0,60,77.08a10.56,10.56,0,0,0,0-6.39,3.94,3.94,0,0,0-1.45-1.9,4.17,4.17,0,0,0-2.34-.63,4.24,4.24,0,0,0-2.36.63,4,4,0,0,0-1.48,1.92,10.23,10.23,0,0,0,0,6.38A3.89,3.89,0,0,0,53.85,79,4.24,4.24,0,0,0,56.21,79.6Z" transform="translate(0 -2.22)"/><path class="cls-1" d="M63.13,82l1.09-1c1.43-1.29,2.18-2.11,2.18-3a1.18,1.18,0,0,0-1.32-1.21,2.62,2.62,0,0,0-1.45.54l-.36-.78a3.32,3.32,0,0,1,2.11-.73,2,2,0,0,1,2.3,2c0,1.29-1,2.25-2.3,3.4l-.54.49v0h3v1H63.13Z" transform="translate(0 -2.22)"/><path class="cls-1" d="M69.86,80.13V67.62H77v.69H70.53v5.14h6.06v.71H70.53v5.25h6.75v.71Z" transform="translate(0 -2.22)"/><path class="cls-1" d="M73.32,61a4.91,4.91,0,0,1-2.73-.72,4.41,4.41,0,0,1-1.67-2.15,9.56,9.56,0,0,1-.57-3.53A9.67,9.67,0,0,1,68.92,51a4.47,4.47,0,0,1,1.67-2.17,4.84,4.84,0,0,1,2.73-.74,4.32,4.32,0,0,1,2.18.54A4.27,4.27,0,0,1,77,50a4.2,4.2,0,0,1,.67,1.82h-.76a4.3,4.3,0,0,0-.62-1.5,3.4,3.4,0,0,0-3-1.53,4.08,4.08,0,0,0-2.34.64,3.79,3.79,0,0,0-1.4,1.91,9.44,9.44,0,0,0-.47,3.2,7.12,7.12,0,0,0,1,4.28,3.68,3.68,0,0,0,3.16,1.41,3.58,3.58,0,0,0,1.78-.42,3.42,3.42,0,0,0,1.2-1.1,4.3,4.3,0,0,0,.62-1.5h.76a4,4,0,0,1-.43,1.38,4.24,4.24,0,0,1-.91,1.2,4.34,4.34,0,0,1-3,1.15Z" transform="translate(0 -2.22)"/><path class="cls-1" d="M84.51,61a4.92,4.92,0,0,1-2.72-.73A4.7,4.7,0,0,1,80,58.09a8.68,8.68,0,0,1-.62-3.51A8.84,8.84,0,0,1,80,51a4.76,4.76,0,0,1,1.76-2.18,5.35,5.35,0,0,1,5.43,0A4.71,4.71,0,0,1,89,51a9.24,9.24,0,0,1,.6,3.55,9.06,9.06,0,0,1-.6,3.51,4.76,4.76,0,0,1-1.74,2.15A4.89,4.89,0,0,1,84.51,61Zm0-.71a4.27,4.27,0,0,0,2.36-.62,3.79,3.79,0,0,0,1.44-1.89,8.86,8.86,0,0,0,.49-3.18,8.72,8.72,0,0,0-.5-3.21,3.84,3.84,0,0,0-1.45-1.9,4.1,4.1,0,0,0-2.34-.64,4.21,4.21,0,0,0-2.35.64,3.92,3.92,0,0,0-1.48,1.91,8.69,8.69,0,0,0-.51,3.2,8.54,8.54,0,0,0,.51,3.18,3.91,3.91,0,0,0,1.48,1.89A4.29,4.29,0,0,0,84.51,60.27Z" transform="translate(0 -2.22)"/><path class="cls-1" d="M91.43,62.71l1.09-1c1.44-1.3,2.18-2.11,2.18-3a1.18,1.18,0,0,0-1.31-1.22,2.7,2.7,0,0,0-1.46.54l-.36-.78a3.36,3.36,0,0,1,2.11-.72A2,2,0,0,1,96,58.47c0,1.3-1,2.25-2.3,3.41l-.54.48v0h3v1H91.43Z" transform="translate(0 -2.22)"/><path class="cls-1" d="M98.16,60.81V48.3h7.18V49h-6.5v5.14h6v.71h-6v5.24l6.74,0v.71Z" transform="translate(0 -2.22)"/><path class="cls-1" d="M77.26,100.79a4.86,4.86,0,0,1-2.72-.72,4.43,4.43,0,0,1-1.68-2.15,9.54,9.54,0,0,1-.56-3.53,9.69,9.69,0,0,1,.56-3.55,4.49,4.49,0,0,1,1.68-2.17,4.78,4.78,0,0,1,2.72-.73,4.29,4.29,0,0,1,2.18.53A4.21,4.21,0,0,1,81,89.86a4,4,0,0,1,.67,1.81h-.76a4.3,4.3,0,0,0-.62-1.5A3.37,3.37,0,0,0,79,89.06a3.55,3.55,0,0,0-1.78-.42,4.07,4.07,0,0,0-2.33.64,3.81,3.81,0,0,0-1.41,1.91,9.46,9.46,0,0,0-.46,3.2,7.19,7.19,0,0,0,1,4.28,4.19,4.19,0,0,0,4.94,1,3.37,3.37,0,0,0,1.2-1.11,4.3,4.3,0,0,0,.62-1.5h.76a3.93,3.93,0,0,1-.42,1.38,4.43,4.43,0,0,1-.91,1.2,4.48,4.48,0,0,1-1.34.84A4.39,4.39,0,0,1,77.26,100.79Z" transform="translate(0 -2.22)"/><path class="cls-1" d="M88.46,100.79a5,5,0,0,1-2.73-.73A4.7,4.7,0,0,1,84,97.9a8.86,8.86,0,0,1-.62-3.51A9,9,0,0,1,84,90.85a4.76,4.76,0,0,1,1.76-2.18,5,5,0,0,1,2.73-.73,4.82,4.82,0,0,1,2.7.73,4.59,4.59,0,0,1,1.74,2.17,9,9,0,0,1,.61,3.55,8.87,8.87,0,0,1-.61,3.51,4.63,4.63,0,0,1-1.74,2.15A4.83,4.83,0,0,1,88.46,100.79Zm0-.71a4.24,4.24,0,0,0,2.35-.62,3.86,3.86,0,0,0,1.45-1.89,9.08,9.08,0,0,0,.49-3.18,8.94,8.94,0,0,0-.5-3.21,3.9,3.9,0,0,0-1.45-1.9,4.1,4.1,0,0,0-2.34-.64,4.24,4.24,0,0,0-2.36.64,4,4,0,0,0-1.48,1.91,8.69,8.69,0,0,0-.51,3.2,8.54,8.54,0,0,0,.51,3.18,4,4,0,0,0,1.48,1.89A4.32,4.32,0,0,0,88.46,100.08Z" transform="translate(0 -2.22)"/><path class="cls-1" d="M95.38,102.52l1.09-1c1.43-1.3,2.18-2.11,2.18-3a1.18,1.18,0,0,0-1.32-1.22,2.69,2.69,0,0,0-1.45.54l-.37-.78a3.37,3.37,0,0,1,2.12-.72,2,2,0,0,1,2.3,2c0,1.3-1,2.25-2.3,3.41l-.54.48v0h3v1H95.38Z" transform="translate(0 -2.22)"/><path class="cls-1" d="M102.11,100.62V88.11h7.18v.69h-6.51v5.14h6.06v.71h-6.06v5.24l6.75,0v.71Z" transform="translate(0 -2.22)"/><path class="cls-1" d="M25.83,100.79a4.91,4.91,0,0,1-2.73-.72,4.36,4.36,0,0,1-1.67-2.15,9.52,9.52,0,0,1-.57-3.53,9.67,9.67,0,0,1,.57-3.55,4.41,4.41,0,0,1,1.67-2.17,4.84,4.84,0,0,1,2.73-.73,4.32,4.32,0,0,1,2.18.53,4.18,4.18,0,0,1,1.5,1.39,3.89,3.89,0,0,1,.67,1.81h-.76a4.12,4.12,0,0,0-.62-1.5,3.43,3.43,0,0,0-1.19-1.11,3.58,3.58,0,0,0-1.78-.42,4.08,4.08,0,0,0-2.34.64,3.79,3.79,0,0,0-1.4,1.91,9.44,9.44,0,0,0-.47,3.2,7.12,7.12,0,0,0,1.05,4.28,3.68,3.68,0,0,0,3.16,1.41,3.69,3.69,0,0,0,1.78-.41,3.43,3.43,0,0,0,1.19-1.11,4.12,4.12,0,0,0,.62-1.5h.76a3.93,3.93,0,0,1-.42,1.38,4.24,4.24,0,0,1-.91,1.2,4.34,4.34,0,0,1-3,1.15Z" transform="translate(0 -2.22)"/><path class="cls-1" d="M37,100.79a4.92,4.92,0,0,1-2.72-.73,4.72,4.72,0,0,1-1.77-2.16,8.87,8.87,0,0,1-.61-3.51,9,9,0,0,1,.61-3.54,4.78,4.78,0,0,1,1.77-2.18,5.41,5.41,0,0,1,5.43,0,4.71,4.71,0,0,1,1.74,2.17,9.24,9.24,0,0,1,.6,3.55,9.06,9.06,0,0,1-.6,3.51,4.76,4.76,0,0,1-1.74,2.15A4.89,4.89,0,0,1,37,100.79Zm0-.71a4.3,4.3,0,0,0,2.36-.62,3.84,3.84,0,0,0,1.44-1.89,10.56,10.56,0,0,0,0-6.39,3.84,3.84,0,0,0-1.45-1.9A4.1,4.1,0,0,0,37,88.64a4.21,4.21,0,0,0-2.35.64,3.92,3.92,0,0,0-1.48,1.91,8.69,8.69,0,0,0-.51,3.2,8.54,8.54,0,0,0,.51,3.18,3.91,3.91,0,0,0,1.48,1.89A4.29,4.29,0,0,0,37,100.08Z" transform="translate(0 -2.22)"/><path class="cls-1" d="M43.94,102.52l1.09-1c1.44-1.3,2.18-2.11,2.18-3a1.18,1.18,0,0,0-1.32-1.22,2.69,2.69,0,0,0-1.45.54l-.36-.78a3.34,3.34,0,0,1,2.11-.72,2,2,0,0,1,2.3,2c0,1.3-1,2.25-2.3,3.41l-.54.48v0h3v1H43.94Z" transform="translate(0 -2.22)"/><path class="cls-1" d="M50.67,100.62V88.11h7.18v.69H51.34v5.14H57.4v.71H51.34v5.24l6.75,0v.71Z" transform="translate(0 -2.22)"/></g></g></svg>